<?xml version="1.0" encoding="UTF-8" standalone="no"?>
<!DOCTYPE svg PUBLIC "-//W3C//DTD SVG 1.1//EN" "http://www.w3.org/Graphics/SVG/1.1/DTD/svg11-flat.dtd"
[
<!ATTLIST g xmlns:fme CDATA #FIXED "http://www.safe.com/fme" >
<!ATTLIST path fme:_creation_instance CDATA #IMPLIED fme:i CDATA #IMPLIED >
<!ATTLIST ellipse fme:_creation_instance CDATA #IMPLIED fme:i CDATA #IMPLIED >
<!ATTLIST text fme:_creation_instance CDATA #IMPLIED fme:i CDATA #IMPLIED >
<!ATTLIST use fme:_creation_instance CDATA #IMPLIED fme:i CDATA #IMPLIED >
]>
<svg xmlns="http://www.w3.org/2000/svg"  viewBox="-7.14471 -7.14471 585.866 481.61"><g xmlns:fme="http://www.safe.com/fme" fill="none" stroke="black" stroke-width="0.071447095812216" transform="translate(0,467.321) scale(1, -1)">
<g id="test" >
<path d="M 77.9423,62.3205 m -0.357235,-0.357235 l 0,0.714471 0.714471,0 0,-0.714471 z "/>
<path d="M 51.9615,17.3205 m -0.357235,-0.357235 l 0,0.714471 0.714471,0 0,-0.714471 z "/>
<path d="M 25.9808,62.3205 m -0.357235,-0.357235 l 0,0.714471 0.714471,0 0,-0.714471 z "/>
<path d="M 103.923,45 m -0.357235,-0.357235 l 0,0.714471 0.714471,0 0,-0.714471 z "/>
<path d="M 77.9423,0 m -0.357235,-0.357235 l 0,0.714471 0.714471,0 0,-0.714471 z "/>
<path d="M 51.9615,45 m -0.357235,-0.357235 l 0,0.714471 0.714471,0 0,-0.714471 z "/>
<path d="M 129.904,62.3205 m -0.357235,-0.357235 l 0,0.714471 0.714471,0 0,-0.714471 z "/>
<path d="M 103.923,17.3205 m -0.357235,-0.357235 l 0,0.714471 0.714471,0 0,-0.714471 z "/>
<path d="M 77.9423,62.3205 m -0.357235,-0.357235 l 0,0.714471 0.714471,0 0,-0.714471 z "/>
<path d="M 155.885,45 m -0.357235,-0.357235 l 0,0.714471 0.714471,0 0,-0.714471 z "/>
<path d="M 129.904,0 m -0.357235,-0.357235 l 0,0.714471 0.714471,0 0,-0.714471 z "/>
<path d="M 103.923,45 m -0.357235,-0.357235 l 0,0.714471 0.714471,0 0,-0.714471 z "/>
<path d="M 181.865,62.3205 m -0.357235,-0.357235 l 0,0.714471 0.714471,0 0,-0.714471 z "/>
<path d="M 155.885,17.3205 m -0.357235,-0.357235 l 0,0.714471 0.714471,0 0,-0.714471 z "/>
<path d="M 129.904,62.3205 m -0.357235,-0.357235 l 0,0.714471 0.714471,0 0,-0.714471 z "/>
<path d="M 207.846,45 m -0.357235,-0.357235 l 0,0.714471 0.714471,0 0,-0.714471 z "/>
<path d="M 181.865,0 m -0.357235,-0.357235 l 0,0.714471 0.714471,0 0,-0.714471 z "/>
<path d="M 155.885,45 m -0.357235,-0.357235 l 0,0.714471 0.714471,0 0,-0.714471 z "/>
<path d="M 233.827,62.3205 m -0.357235,-0.357235 l 0,0.714471 0.714471,0 0,-0.714471 z "/>
<path d="M 207.846,17.3205 m -0.357235,-0.357235 l 0,0.714471 0.714471,0 0,-0.714471 z "/>
<path d="M 181.865,62.3205 m -0.357235,-0.357235 l 0,0.714471 0.714471,0 0,-0.714471 z "/>
<path d="M 259.808,45 m -0.357235,-0.357235 l 0,0.714471 0.714471,0 0,-0.714471 z "/>
<path d="M 233.827,0 m -0.357235,-0.357235 l 0,0.714471 0.714471,0 0,-0.714471 z "/>
<path d="M 207.846,45 m -0.357235,-0.357235 l 0,0.714471 0.714471,0 0,-0.714471 z "/>
<path d="M 285.788,62.3205 m -0.357235,-0.357235 l 0,0.714471 0.714471,0 0,-0.714471 z "/>
<path d="M 259.808,17.3205 m -0.357235,-0.357235 l 0,0.714471 0.714471,0 0,-0.714471 z "/>
<path d="M 233.827,62.3205 m -0.357235,-0.357235 l 0,0.714471 0.714471,0 0,-0.714471 z "/>
<path d="M 311.769,45 m -0.357235,-0.357235 l 0,0.714471 0.714471,0 0,-0.714471 z "/>
<path d="M 285.788,0 m -0.357235,-0.357235 l 0,0.714471 0.714471,0 0,-0.714471 z "/>
<path d="M 259.808,45 m -0.357235,-0.357235 l 0,0.714471 0.714471,0 0,-0.714471 z "/>
<path d="M 337.75,62.3205 m -0.357235,-0.357235 l 0,0.714471 0.714471,0 0,-0.714471 z "/>
<path d="M 311.769,17.3205 m -0.357235,-0.357235 l 0,0.714471 0.714471,0 0,-0.714471 z "/>
<path d="M 285.788,62.3205 m -0.357235,-0.357235 l 0,0.714471 0.714471,0 0,-0.714471 z "/>
<path d="M 363.731,45 m -0.357235,-0.357235 l 0,0.714471 0.714471,0 0,-0.714471 z "/>
<path d="M 337.75,0 m -0.357235,-0.357235 l 0,0.714471 0.714471,0 0,-0.714471 z "/>
<path d="M 311.769,45 m -0.357235,-0.357235 l 0,0.714471 0.714471,0 0,-0.714471 z "/>
<path d="M 389.711,62.3205 m -0.357235,-0.357235 l 0,0.714471 0.714471,0 0,-0.714471 z "/>
<path d="M 363.731,17.3205 m -0.357235,-0.357235 l 0,0.714471 0.714471,0 0,-0.714471 z "/>
<path d="M 337.75,62.3205 m -0.357235,-0.357235 l 0,0.714471 0.714471,0 0,-0.714471 z "/>
<path d="M 415.692,45 m -0.357235,-0.357235 l 0,0.714471 0.714471,0 0,-0.714471 z "/>
<path d="M 389.711,0 m -0.357235,-0.357235 l 0,0.714471 0.714471,0 0,-0.714471 z "/>
<path d="M 363.731,45 m -0.357235,-0.357235 l 0,0.714471 0.714471,0 0,-0.714471 z "/>
<path d="M 441.673,62.3205 m -0.357235,-0.357235 l 0,0.714471 0.714471,0 0,-0.714471 z "/>
<path d="M 415.692,17.3205 m -0.357235,-0.357235 l 0,0.714471 0.714471,0 0,-0.714471 z "/>
<path d="M 389.711,62.3205 m -0.357235,-0.357235 l 0,0.714471 0.714471,0 0,-0.714471 z "/>
<path d="M 467.654,45 m -0.357235,-0.357235 l 0,0.714471 0.714471,0 0,-0.714471 z "/>
<path d="M 441.673,0 m -0.357235,-0.357235 l 0,0.714471 0.714471,0 0,-0.714471 z "/>
<path d="M 415.692,45 m -0.357235,-0.357235 l 0,0.714471 0.714471,0 0,-0.714471 z "/>
<path d="M 493.634,62.3205 m -0.357235,-0.357235 l 0,0.714471 0.714471,0 0,-0.714471 z "/>
<path d="M 467.654,17.3205 m -0.357235,-0.357235 l 0,0.714471 0.714471,0 0,-0.714471 z "/>
<path d="M 441.673,62.3205 m -0.357235,-0.357235 l 0,0.714471 0.714471,0 0,-0.714471 z "/>
<path d="M 519.615,45 m -0.357235,-0.357235 l 0,0.714471 0.714471,0 0,-0.714471 z "/>
<path d="M 493.634,0 m -0.357235,-0.357235 l 0,0.714471 0.714471,0 0,-0.714471 z "/>
<path d="M 467.654,45 m -0.357235,-0.357235 l 0,0.714471 0.714471,0 0,-0.714471 z "/>
<path d="M 545.596,62.3205 m -0.357235,-0.357235 l 0,0.714471 0.714471,0 0,-0.714471 z "/>
<path d="M 519.615,17.3205 m -0.357235,-0.357235 l 0,0.714471 0.714471,0 0,-0.714471 z "/>
<path d="M 493.634,62.3205 m -0.357235,-0.357235 l 0,0.714471 0.714471,0 0,-0.714471 z "/>
<path d="M 571.577,45 m -0.357235,-0.357235 l 0,0.714471 0.714471,0 0,-0.714471 z "/>
<path d="M 545.596,0 m -0.357235,-0.357235 l 0,0.714471 0.714471,0 0,-0.714471 z "/>
<path d="M 519.615,45 m -0.357235,-0.357235 l 0,0.714471 0.714471,0 0,-0.714471 z "/>
<path d="M 51.9615,107.321 m -0.357235,-0.357235 l 0,0.714471 0.714471,0 0,-0.714471 z "/>
<path d="M 25.9808,62.3205 m -0.357235,-0.357235 l 0,0.714471 0.714471,0 0,-0.714471 z "/>
<path d="M 0,107.321 m -0.357235,-0.357235 l 0,0.714471 0.714471,0 0,-0.714471 z "/>
<path d="M 77.9423,90 m -0.357235,-0.357235 l 0,0.714471 0.714471,0 0,-0.714471 z "/>
<path d="M 51.9615,45 m -0.357235,-0.357235 l 0,0.714471 0.714471,0 0,-0.714471 z "/>
<path d="M 25.9808,90 m -0.357235,-0.357235 l 0,0.714471 0.714471,0 0,-0.714471 z "/>
<path d="M 103.923,107.321 m -0.357235,-0.357235 l 0,0.714471 0.714471,0 0,-0.714471 z "/>
<path d="M 77.9423,62.3205 m -0.357235,-0.357235 l 0,0.714471 0.714471,0 0,-0.714471 z "/>
<path d="M 51.9615,107.321 m -0.357235,-0.357235 l 0,0.714471 0.714471,0 0,-0.714471 z "/>
<path d="M 129.904,90 m -0.357235,-0.357235 l 0,0.714471 0.714471,0 0,-0.714471 z "/>
<path d="M 103.923,45 m -0.357235,-0.357235 l 0,0.714471 0.714471,0 0,-0.714471 z "/>
<path d="M 77.9423,90 m -0.357235,-0.357235 l 0,0.714471 0.714471,0 0,-0.714471 z "/>
<path d="M 155.885,107.321 m -0.357235,-0.357235 l 0,0.714471 0.714471,0 0,-0.714471 z "/>
<path d="M 129.904,62.3205 m -0.357235,-0.357235 l 0,0.714471 0.714471,0 0,-0.714471 z "/>
<path d="M 103.923,107.321 m -0.357235,-0.357235 l 0,0.714471 0.714471,0 0,-0.714471 z "/>
<path d="M 181.865,90 m -0.357235,-0.357235 l 0,0.714471 0.714471,0 0,-0.714471 z "/>
<path d="M 155.885,45 m -0.357235,-0.357235 l 0,0.714471 0.714471,0 0,-0.714471 z "/>
<path d="M 129.904,90 m -0.357235,-0.357235 l 0,0.714471 0.714471,0 0,-0.714471 z "/>
<path d="M 207.846,107.321 m -0.357235,-0.357235 l 0,0.714471 0.714471,0 0,-0.714471 z "/>
<path d="M 181.865,62.3205 m -0.357235,-0.357235 l 0,0.714471 0.714471,0 0,-0.714471 z "/>
<path d="M 155.885,107.321 m -0.357235,-0.357235 l 0,0.714471 0.714471,0 0,-0.714471 z "/>
<path d="M 233.827,90 m -0.357235,-0.357235 l 0,0.714471 0.714471,0 0,-0.714471 z "/>
<path d="M 207.846,45 m -0.357235,-0.357235 l 0,0.714471 0.714471,0 0,-0.714471 z "/>
<path d="M 181.865,90 m -0.357235,-0.357235 l 0,0.714471 0.714471,0 0,-0.714471 z "/>
<path d="M 259.808,107.321 m -0.357235,-0.357235 l 0,0.714471 0.714471,0 0,-0.714471 z "/>
<path d="M 233.827,62.3205 m -0.357235,-0.357235 l 0,0.714471 0.714471,0 0,-0.714471 z "/>
<path d="M 207.846,107.321 m -0.357235,-0.357235 l 0,0.714471 0.714471,0 0,-0.714471 z "/>
<path d="M 285.788,90 m -0.357235,-0.357235 l 0,0.714471 0.714471,0 0,-0.714471 z "/>
<path d="M 259.808,45 m -0.357235,-0.357235 l 0,0.714471 0.714471,0 0,-0.714471 z "/>
<path d="M 233.827,90 m -0.357235,-0.357235 l 0,0.714471 0.714471,0 0,-0.714471 z "/>
<path d="M 311.769,107.321 m -0.357235,-0.357235 l 0,0.714471 0.714471,0 0,-0.714471 z "/>
<path d="M 285.788,62.3205 m -0.357235,-0.357235 l 0,0.714471 0.714471,0 0,-0.714471 z "/>
<path d="M 259.808,107.321 m -0.357235,-0.357235 l 0,0.714471 0.714471,0 0,-0.714471 z "/>
<path d="M 337.75,90 m -0.357235,-0.357235 l 0,0.714471 0.714471,0 0,-0.714471 z "/>
<path d="M 311.769,45 m -0.357235,-0.357235 l 0,0.714471 0.714471,0 0,-0.714471 z "/>
<path d="M 285.788,90 m -0.357235,-0.357235 l 0,0.714471 0.714471,0 0,-0.714471 z "/>
<path d="M 363.731,107.321 m -0.357235,-0.357235 l 0,0.714471 0.714471,0 0,-0.714471 z "/>
<path d="M 337.75,62.3205 m -0.357235,-0.357235 l 0,0.714471 0.714471,0 0,-0.714471 z "/>
<path d="M 311.769,107.321 m -0.357235,-0.357235 l 0,0.714471 0.714471,0 0,-0.714471 z "/>
<path d="M 389.711,90 m -0.357235,-0.357235 l 0,0.714471 0.714471,0 0,-0.714471 z "/>
<path d="M 363.731,45 m -0.357235,-0.357235 l 0,0.714471 0.714471,0 0,-0.714471 z "/>
<path d="M 337.75,90 m -0.357235,-0.357235 l 0,0.714471 0.714471,0 0,-0.714471 z "/>
<path d="M 415.692,107.321 m -0.357235,-0.357235 l 0,0.714471 0.714471,0 0,-0.714471 z "/>
<path d="M 389.711,62.3205 m -0.357235,-0.357235 l 0,0.714471 0.714471,0 0,-0.714471 z "/>
<path d="M 363.731,107.321 m -0.357235,-0.357235 l 0,0.714471 0.714471,0 0,-0.714471 z "/>
<path d="M 441.673,90 m -0.357235,-0.357235 l 0,0.714471 0.714471,0 0,-0.714471 z "/>
<path d="M 415.692,45 m -0.357235,-0.357235 l 0,0.714471 0.714471,0 0,-0.714471 z "/>
<path d="M 389.711,90 m -0.357235,-0.357235 l 0,0.714471 0.714471,0 0,-0.714471 z "/>
<path d="M 467.654,107.321 m -0.357235,-0.357235 l 0,0.714471 0.714471,0 0,-0.714471 z "/>
<path d="M 441.673,62.3205 m -0.357235,-0.357235 l 0,0.714471 0.714471,0 0,-0.714471 z "/>
<path d="M 415.692,107.321 m -0.357235,-0.357235 l 0,0.714471 0.714471,0 0,-0.714471 z "/>
<path d="M 493.634,90 m -0.357235,-0.357235 l 0,0.714471 0.714471,0 0,-0.714471 z "/>
<path d="M 467.654,45 m -0.357235,-0.357235 l 0,0.714471 0.714471,0 0,-0.714471 z "/>
<path d="M 441.673,90 m -0.357235,-0.357235 l 0,0.714471 0.714471,0 0,-0.714471 z "/>
<path d="M 519.615,107.321 m -0.357235,-0.357235 l 0,0.714471 0.714471,0 0,-0.714471 z "/>
<path d="M 493.634,62.3205 m -0.357235,-0.357235 l 0,0.714471 0.714471,0 0,-0.714471 z "/>
<path d="M 467.654,107.321 m -0.357235,-0.357235 l 0,0.714471 0.714471,0 0,-0.714471 z "/>
<path d="M 545.596,90 m -0.357235,-0.357235 l 0,0.714471 0.714471,0 0,-0.714471 z "/>
<path d="M 519.615,45 m -0.357235,-0.357235 l 0,0.714471 0.714471,0 0,-0.714471 z "/>
<path d="M 493.634,90 m -0.357235,-0.357235 l 0,0.714471 0.714471,0 0,-0.714471 z "/>
<path d="M 77.9423,152.321 m -0.357235,-0.357235 l 0,0.714471 0.714471,0 0,-0.714471 z "/>
<path d="M 51.9615,107.321 m -0.357235,-0.357235 l 0,0.714471 0.714471,0 0,-0.714471 z "/>
<path d="M 25.9808,152.321 m -0.357235,-0.357235 l 0,0.714471 0.714471,0 0,-0.714471 z "/>
<path d="M 103.923,135 m -0.357235,-0.357235 l 0,0.714471 0.714471,0 0,-0.714471 z "/>
<path d="M 77.9423,90 m -0.357235,-0.357235 l 0,0.714471 0.714471,0 0,-0.714471 z "/>
<path d="M 51.9615,135 m -0.357235,-0.357235 l 0,0.714471 0.714471,0 0,-0.714471 z "/>
<path d="M 129.904,152.321 m -0.357235,-0.357235 l 0,0.714471 0.714471,0 0,-0.714471 z "/>
<path d="M 103.923,107.321 m -0.357235,-0.357235 l 0,0.714471 0.714471,0 0,-0.714471 z "/>
<path d="M 77.9423,152.321 m -0.357235,-0.357235 l 0,0.714471 0.714471,0 0,-0.714471 z "/>
<path d="M 155.885,135 m -0.357235,-0.357235 l 0,0.714471 0.714471,0 0,-0.714471 z "/>
<path d="M 129.904,90 m -0.357235,-0.357235 l 0,0.714471 0.714471,0 0,-0.714471 z "/>
<path d="M 103.923,135 m -0.357235,-0.357235 l 0,0.714471 0.714471,0 0,-0.714471 z "/>
<path d="M 181.865,152.321 m -0.357235,-0.357235 l 0,0.714471 0.714471,0 0,-0.714471 z "/>
<path d="M 155.885,107.321 m -0.357235,-0.357235 l 0,0.714471 0.714471,0 0,-0.714471 z "/>
<path d="M 129.904,152.321 m -0.357235,-0.357235 l 0,0.714471 0.714471,0 0,-0.714471 z "/>
<path d="M 207.846,135 m -0.357235,-0.357235 l 0,0.714471 0.714471,0 0,-0.714471 z "/>
<path d="M 181.865,90 m -0.357235,-0.357235 l 0,0.714471 0.714471,0 0,-0.714471 z "/>
<path d="M 155.885,135 m -0.357235,-0.357235 l 0,0.714471 0.714471,0 0,-0.714471 z "/>
<path d="M 233.827,152.321 m -0.357235,-0.357235 l 0,0.714471 0.714471,0 0,-0.714471 z "/>
<path d="M 207.846,107.321 m -0.357235,-0.357235 l 0,0.714471 0.714471,0 0,-0.714471 z "/>
<path d="M 181.865,152.321 m -0.357235,-0.357235 l 0,0.714471 0.714471,0 0,-0.714471 z "/>
<path d="M 259.808,135 m -0.357235,-0.357235 l 0,0.714471 0.714471,0 0,-0.714471 z "/>
<path d="M 233.827,90 m -0.357235,-0.357235 l 0,0.714471 0.714471,0 0,-0.714471 z "/>
<path d="M 207.846,135 m -0.357235,-0.357235 l 0,0.714471 0.714471,0 0,-0.714471 z "/>
<path d="M 285.788,152.321 m -0.357235,-0.357235 l 0,0.714471 0.714471,0 0,-0.714471 z "/>
<path d="M 259.808,107.321 m -0.357235,-0.357235 l 0,0.714471 0.714471,0 0,-0.714471 z "/>
<path d="M 233.827,152.321 m -0.357235,-0.357235 l 0,0.714471 0.714471,0 0,-0.714471 z "/>
<path d="M 311.769,135 m -0.357235,-0.357235 l 0,0.714471 0.714471,0 0,-0.714471 z "/>
<path d="M 285.788,90 m -0.357235,-0.357235 l 0,0.714471 0.714471,0 0,-0.714471 z "/>
<path d="M 259.808,135 m -0.357235,-0.357235 l 0,0.714471 0.714471,0 0,-0.714471 z "/>
<path d="M 337.75,152.321 m -0.357235,-0.357235 l 0,0.714471 0.714471,0 0,-0.714471 z "/>
<path d="M 311.769,107.321 m -0.357235,-0.357235 l 0,0.714471 0.714471,0 0,-0.714471 z "/>
<path d="M 285.788,152.321 m -0.357235,-0.357235 l 0,0.714471 0.714471,0 0,-0.714471 z "/>
<path d="M 363.731,135 m -0.357235,-0.357235 l 0,0.714471 0.714471,0 0,-0.714471 z "/>
<path d="M 337.75,90 m -0.357235,-0.357235 l 0,0.714471 0.714471,0 0,-0.714471 z "/>
<path d="M 311.769,135 m -0.357235,-0.357235 l 0,0.714471 0.714471,0 0,-0.714471 z "/>
<path d="M 389.711,152.321 m -0.357235,-0.357235 l 0,0.714471 0.714471,0 0,-0.714471 z "/>
<path d="M 363.731,107.321 m -0.357235,-0.357235 l 0,0.714471 0.714471,0 0,-0.714471 z "/>
<path d="M 337.75,152.321 m -0.357235,-0.357235 l 0,0.714471 0.714471,0 0,-0.714471 z "/>
<path d="M 415.692,135 m -0.357235,-0.357235 l 0,0.714471 0.714471,0 0,-0.714471 z "/>
<path d="M 389.711,90 m -0.357235,-0.357235 l 0,0.714471 0.714471,0 0,-0.714471 z "/>
<path d="M 363.731,135 m -0.357235,-0.357235 l 0,0.714471 0.714471,0 0,-0.714471 z "/>
<path d="M 441.673,152.321 m -0.357235,-0.357235 l 0,0.714471 0.714471,0 0,-0.714471 z "/>
<path d="M 415.692,107.321 m -0.357235,-0.357235 l 0,0.714471 0.714471,0 0,-0.714471 z "/>
<path d="M 389.711,152.321 m -0.357235,-0.357235 l 0,0.714471 0.714471,0 0,-0.714471 z "/>
<path d="M 467.654,135 m -0.357235,-0.357235 l 0,0.714471 0.714471,0 0,-0.714471 z "/>
<path d="M 441.673,90 m -0.357235,-0.357235 l 0,0.714471 0.714471,0 0,-0.714471 z "/>
<path d="M 415.692,135 m -0.357235,-0.357235 l 0,0.714471 0.714471,0 0,-0.714471 z "/>
<path d="M 493.634,152.321 m -0.357235,-0.357235 l 0,0.714471 0.714471,0 0,-0.714471 z "/>
<path d="M 467.654,107.321 m -0.357235,-0.357235 l 0,0.714471 0.714471,0 0,-0.714471 z "/>
<path d="M 441.673,152.321 m -0.357235,-0.357235 l 0,0.714471 0.714471,0 0,-0.714471 z "/>
<path d="M 519.615,135 m -0.357235,-0.357235 l 0,0.714471 0.714471,0 0,-0.714471 z "/>
<path d="M 493.634,90 m -0.357235,-0.357235 l 0,0.714471 0.714471,0 0,-0.714471 z "/>
<path d="M 467.654,135 m -0.357235,-0.357235 l 0,0.714471 0.714471,0 0,-0.714471 z "/>
<path d="M 545.596,152.321 m -0.357235,-0.357235 l 0,0.714471 0.714471,0 0,-0.714471 z "/>
<path d="M 519.615,107.321 m -0.357235,-0.357235 l 0,0.714471 0.714471,0 0,-0.714471 z "/>
<path d="M 493.634,152.321 m -0.357235,-0.357235 l 0,0.714471 0.714471,0 0,-0.714471 z "/>
<path d="M 571.577,135 m -0.357235,-0.357235 l 0,0.714471 0.714471,0 0,-0.714471 z "/>
<path d="M 545.596,90 m -0.357235,-0.357235 l 0,0.714471 0.714471,0 0,-0.714471 z "/>
<path d="M 519.615,135 m -0.357235,-0.357235 l 0,0.714471 0.714471,0 0,-0.714471 z "/>
<path d="M 51.9615,197.321 m -0.357235,-0.357235 l 0,0.714471 0.714471,0 0,-0.714471 z "/>
<path d="M 25.9808,152.321 m -0.357235,-0.357235 l 0,0.714471 0.714471,0 0,-0.714471 z "/>
<path d="M 0,197.321 m -0.357235,-0.357235 l 0,0.714471 0.714471,0 0,-0.714471 z "/>
<path d="M 77.9423,180 m -0.357235,-0.357235 l 0,0.714471 0.714471,0 0,-0.714471 z "/>
<path d="M 51.9615,135 m -0.357235,-0.357235 l 0,0.714471 0.714471,0 0,-0.714471 z "/>
<path d="M 25.9808,180 m -0.357235,-0.357235 l 0,0.714471 0.714471,0 0,-0.714471 z "/>
<path d="M 103.923,197.321 m -0.357235,-0.357235 l 0,0.714471 0.714471,0 0,-0.714471 z "/>
<path d="M 77.9423,152.321 m -0.357235,-0.357235 l 0,0.714471 0.714471,0 0,-0.714471 z "/>
<path d="M 51.9615,197.321 m -0.357235,-0.357235 l 0,0.714471 0.714471,0 0,-0.714471 z "/>
<path d="M 129.904,180 m -0.357235,-0.357235 l 0,0.714471 0.714471,0 0,-0.714471 z "/>
<path d="M 103.923,135 m -0.357235,-0.357235 l 0,0.714471 0.714471,0 0,-0.714471 z "/>
<path d="M 77.9423,180 m -0.357235,-0.357235 l 0,0.714471 0.714471,0 0,-0.714471 z "/>
<path d="M 155.885,197.321 m -0.357235,-0.357235 l 0,0.714471 0.714471,0 0,-0.714471 z "/>
<path d="M 129.904,152.321 m -0.357235,-0.357235 l 0,0.714471 0.714471,0 0,-0.714471 z "/>
<path d="M 103.923,197.321 m -0.357235,-0.357235 l 0,0.714471 0.714471,0 0,-0.714471 z "/>
<path d="M 181.865,180 m -0.357235,-0.357235 l 0,0.714471 0.714471,0 0,-0.714471 z "/>
<path d="M 155.885,135 m -0.357235,-0.357235 l 0,0.714471 0.714471,0 0,-0.714471 z "/>
<path d="M 129.904,180 m -0.357235,-0.357235 l 0,0.714471 0.714471,0 0,-0.714471 z "/>
<path d="M 207.846,197.321 m -0.357235,-0.357235 l 0,0.714471 0.714471,0 0,-0.714471 z "/>
<path d="M 181.865,152.321 m -0.357235,-0.357235 l 0,0.714471 0.714471,0 0,-0.714471 z "/>
<path d="M 155.885,197.321 m -0.357235,-0.357235 l 0,0.714471 0.714471,0 0,-0.714471 z "/>
<path d="M 233.827,180 m -0.357235,-0.357235 l 0,0.714471 0.714471,0 0,-0.714471 z "/>
<path d="M 207.846,135 m -0.357235,-0.357235 l 0,0.714471 0.714471,0 0,-0.714471 z "/>
<path d="M 181.865,180 m -0.357235,-0.357235 l 0,0.714471 0.714471,0 0,-0.714471 z "/>
<path d="M 259.808,197.321 m -0.357235,-0.357235 l 0,0.714471 0.714471,0 0,-0.714471 z "/>
<path d="M 233.827,152.321 m -0.357235,-0.357235 l 0,0.714471 0.714471,0 0,-0.714471 z "/>
<path d="M 207.846,197.321 m -0.357235,-0.357235 l 0,0.714471 0.714471,0 0,-0.714471 z "/>
<path d="M 285.788,180 m -0.357235,-0.357235 l 0,0.714471 0.714471,0 0,-0.714471 z "/>
<path d="M 259.808,135 m -0.357235,-0.357235 l 0,0.714471 0.714471,0 0,-0.714471 z "/>
<path d="M 233.827,180 m -0.357235,-0.357235 l 0,0.714471 0.714471,0 0,-0.714471 z "/>
<path d="M 311.769,197.321 m -0.357235,-0.357235 l 0,0.714471 0.714471,0 0,-0.714471 z "/>
<path d="M 285.788,152.321 m -0.357235,-0.357235 l 0,0.714471 0.714471,0 0,-0.714471 z "/>
<path d="M 259.808,197.321 m -0.357235,-0.357235 l 0,0.714471 0.714471,0 0,-0.714471 z "/>
<path d="M 337.75,180 m -0.357235,-0.357235 l 0,0.714471 0.714471,0 0,-0.714471 z "/>
<path d="M 311.769,135 m -0.357235,-0.357235 l 0,0.714471 0.714471,0 0,-0.714471 z "/>
<path d="M 285.788,180 m -0.357235,-0.357235 l 0,0.714471 0.714471,0 0,-0.714471 z "/>
<path d="M 363.731,197.321 m -0.357235,-0.357235 l 0,0.714471 0.714471,0 0,-0.714471 z "/>
<path d="M 337.75,152.321 m -0.357235,-0.357235 l 0,0.714471 0.714471,0 0,-0.714471 z "/>
<path d="M 311.769,197.321 m -0.357235,-0.357235 l 0,0.714471 0.714471,0 0,-0.714471 z "/>
<path d="M 389.711,180 m -0.357235,-0.357235 l 0,0.714471 0.714471,0 0,-0.714471 z "/>
<path d="M 363.731,135 m -0.357235,-0.357235 l 0,0.714471 0.714471,0 0,-0.714471 z "/>
<path d="M 337.75,180 m -0.357235,-0.357235 l 0,0.714471 0.714471,0 0,-0.714471 z "/>
<path d="M 415.692,197.321 m -0.357235,-0.357235 l 0,0.714471 0.714471,0 0,-0.714471 z "/>
<path d="M 389.711,152.321 m -0.357235,-0.357235 l 0,0.714471 0.714471,0 0,-0.714471 z "/>
<path d="M 363.731,197.321 m -0.357235,-0.357235 l 0,0.714471 0.714471,0 0,-0.714471 z "/>
<path d="M 441.673,180 m -0.357235,-0.357235 l 0,0.714471 0.714471,0 0,-0.714471 z "/>
<path d="M 415.692,135 m -0.357235,-0.357235 l 0,0.714471 0.714471,0 0,-0.714471 z "/>
<path d="M 389.711,180 m -0.357235,-0.357235 l 0,0.714471 0.714471,0 0,-0.714471 z "/>
<path d="M 467.654,197.321 m -0.357235,-0.357235 l 0,0.714471 0.714471,0 0,-0.714471 z "/>
<path d="M 441.673,152.321 m -0.357235,-0.357235 l 0,0.714471 0.714471,0 0,-0.714471 z "/>
<path d="M 415.692,197.321 m -0.357235,-0.357235 l 0,0.714471 0.714471,0 0,-0.714471 z "/>
<path d="M 493.634,180 m -0.357235,-0.357235 l 0,0.714471 0.714471,0 0,-0.714471 z "/>
<path d="M 467.654,135 m -0.357235,-0.357235 l 0,0.714471 0.714471,0 0,-0.714471 z "/>
<path d="M 441.673,180 m -0.357235,-0.357235 l 0,0.714471 0.714471,0 0,-0.714471 z "/>
<path d="M 519.615,197.321 m -0.357235,-0.357235 l 0,0.714471 0.714471,0 0,-0.714471 z "/>
<path d="M 493.634,152.321 m -0.357235,-0.357235 l 0,0.714471 0.714471,0 0,-0.714471 z "/>
<path d="M 467.654,197.321 m -0.357235,-0.357235 l 0,0.714471 0.714471,0 0,-0.714471 z "/>
<path d="M 545.596,180 m -0.357235,-0.357235 l 0,0.714471 0.714471,0 0,-0.714471 z "/>
<path d="M 519.615,135 m -0.357235,-0.357235 l 0,0.714471 0.714471,0 0,-0.714471 z "/>
<path d="M 493.634,180 m -0.357235,-0.357235 l 0,0.714471 0.714471,0 0,-0.714471 z "/>
<path d="M 77.9423,242.321 m -0.357235,-0.357235 l 0,0.714471 0.714471,0 0,-0.714471 z "/>
<path d="M 51.9615,197.321 m -0.357235,-0.357235 l 0,0.714471 0.714471,0 0,-0.714471 z "/>
<path d="M 25.9808,242.321 m -0.357235,-0.357235 l 0,0.714471 0.714471,0 0,-0.714471 z "/>
<path d="M 103.923,225 m -0.357235,-0.357235 l 0,0.714471 0.714471,0 0,-0.714471 z "/>
<path d="M 77.9423,180 m -0.357235,-0.357235 l 0,0.714471 0.714471,0 0,-0.714471 z "/>
<path d="M 51.9615,225 m -0.357235,-0.357235 l 0,0.714471 0.714471,0 0,-0.714471 z "/>
<path d="M 129.904,242.321 m -0.357235,-0.357235 l 0,0.714471 0.714471,0 0,-0.714471 z "/>
<path d="M 103.923,197.321 m -0.357235,-0.357235 l 0,0.714471 0.714471,0 0,-0.714471 z "/>
<path d="M 77.9423,242.321 m -0.357235,-0.357235 l 0,0.714471 0.714471,0 0,-0.714471 z "/>
<path d="M 155.885,225 m -0.357235,-0.357235 l 0,0.714471 0.714471,0 0,-0.714471 z "/>
<path d="M 129.904,180 m -0.357235,-0.357235 l 0,0.714471 0.714471,0 0,-0.714471 z "/>
<path d="M 103.923,225 m -0.357235,-0.357235 l 0,0.714471 0.714471,0 0,-0.714471 z "/>
<path d="M 181.865,242.321 m -0.357235,-0.357235 l 0,0.714471 0.714471,0 0,-0.714471 z "/>
<path d="M 155.885,197.321 m -0.357235,-0.357235 l 0,0.714471 0.714471,0 0,-0.714471 z "/>
<path d="M 129.904,242.321 m -0.357235,-0.357235 l 0,0.714471 0.714471,0 0,-0.714471 z "/>
<path d="M 207.846,225 m -0.357235,-0.357235 l 0,0.714471 0.714471,0 0,-0.714471 z "/>
<path d="M 181.865,180 m -0.357235,-0.357235 l 0,0.714471 0.714471,0 0,-0.714471 z "/>
<path d="M 155.885,225 m -0.357235,-0.357235 l 0,0.714471 0.714471,0 0,-0.714471 z "/>
<path d="M 233.827,242.321 m -0.357235,-0.357235 l 0,0.714471 0.714471,0 0,-0.714471 z "/>
<path d="M 207.846,197.321 m -0.357235,-0.357235 l 0,0.714471 0.714471,0 0,-0.714471 z "/>
<path d="M 181.865,242.321 m -0.357235,-0.357235 l 0,0.714471 0.714471,0 0,-0.714471 z "/>
<path d="M 259.808,225 m -0.357235,-0.357235 l 0,0.714471 0.714471,0 0,-0.714471 z "/>
<path d="M 233.827,180 m -0.357235,-0.357235 l 0,0.714471 0.714471,0 0,-0.714471 z "/>
<path d="M 207.846,225 m -0.357235,-0.357235 l 0,0.714471 0.714471,0 0,-0.714471 z "/>
<path d="M 285.788,242.321 m -0.357235,-0.357235 l 0,0.714471 0.714471,0 0,-0.714471 z "/>
<path d="M 259.808,197.321 m -0.357235,-0.357235 l 0,0.714471 0.714471,0 0,-0.714471 z "/>
<path d="M 233.827,242.321 m -0.357235,-0.357235 l 0,0.714471 0.714471,0 0,-0.714471 z "/>
<path d="M 311.769,225 m -0.357235,-0.357235 l 0,0.714471 0.714471,0 0,-0.714471 z "/>
<path d="M 285.788,180 m -0.357235,-0.357235 l 0,0.714471 0.714471,0 0,-0.714471 z "/>
<path d="M 259.808,225 m -0.357235,-0.357235 l 0,0.714471 0.714471,0 0,-0.714471 z "/>
<path d="M 337.75,242.321 m -0.357235,-0.357235 l 0,0.714471 0.714471,0 0,-0.714471 z "/>
<path d="M 311.769,197.321 m -0.357235,-0.357235 l 0,0.714471 0.714471,0 0,-0.714471 z "/>
<path d="M 285.788,242.321 m -0.357235,-0.357235 l 0,0.714471 0.714471,0 0,-0.714471 z "/>
<path d="M 363.731,225 m -0.357235,-0.357235 l 0,0.714471 0.714471,0 0,-0.714471 z "/>
<path d="M 337.75,180 m -0.357235,-0.357235 l 0,0.714471 0.714471,0 0,-0.714471 z "/>
<path d="M 311.769,225 m -0.357235,-0.357235 l 0,0.714471 0.714471,0 0,-0.714471 z "/>
<path d="M 389.711,242.321 m -0.357235,-0.357235 l 0,0.714471 0.714471,0 0,-0.714471 z "/>
<path d="M 363.731,197.321 m -0.357235,-0.357235 l 0,0.714471 0.714471,0 0,-0.714471 z "/>
<path d="M 337.75,242.321 m -0.357235,-0.357235 l 0,0.714471 0.714471,0 0,-0.714471 z "/>
<path d="M 415.692,225 m -0.357235,-0.357235 l 0,0.714471 0.714471,0 0,-0.714471 z "/>
<path d="M 389.711,180 m -0.357235,-0.357235 l 0,0.714471 0.714471,0 0,-0.714471 z "/>
<path d="M 363.731,225 m -0.357235,-0.357235 l 0,0.714471 0.714471,0 0,-0.714471 z "/>
<path d="M 441.673,242.321 m -0.357235,-0.357235 l 0,0.714471 0.714471,0 0,-0.714471 z "/>
<path d="M 415.692,197.321 m -0.357235,-0.357235 l 0,0.714471 0.714471,0 0,-0.714471 z "/>
<path d="M 389.711,242.321 m -0.357235,-0.357235 l 0,0.714471 0.714471,0 0,-0.714471 z "/>
<path d="M 467.654,225 m -0.357235,-0.357235 l 0,0.714471 0.714471,0 0,-0.714471 z "/>
<path d="M 441.673,180 m -0.357235,-0.357235 l 0,0.714471 0.714471,0 0,-0.714471 z "/>
<path d="M 415.692,225 m -0.357235,-0.357235 l 0,0.714471 0.714471,0 0,-0.714471 z "/>
<path d="M 493.634,242.321 m -0.357235,-0.357235 l 0,0.714471 0.714471,0 0,-0.714471 z "/>
<path d="M 467.654,197.321 m -0.357235,-0.357235 l 0,0.714471 0.714471,0 0,-0.714471 z "/>
<path d="M 441.673,242.321 m -0.357235,-0.357235 l 0,0.714471 0.714471,0 0,-0.714471 z "/>
<path d="M 519.615,225 m -0.357235,-0.357235 l 0,0.714471 0.714471,0 0,-0.714471 z "/>
<path d="M 493.634,180 m -0.357235,-0.357235 l 0,0.714471 0.714471,0 0,-0.714471 z "/>
<path d="M 467.654,225 m -0.357235,-0.357235 l 0,0.714471 0.714471,0 0,-0.714471 z "/>
<path d="M 545.596,242.321 m -0.357235,-0.357235 l 0,0.714471 0.714471,0 0,-0.714471 z "/>
<path d="M 519.615,197.321 m -0.357235,-0.357235 l 0,0.714471 0.714471,0 0,-0.714471 z "/>
<path d="M 493.634,242.321 m -0.357235,-0.357235 l 0,0.714471 0.714471,0 0,-0.714471 z "/>
<path d="M 571.577,225 m -0.357235,-0.357235 l 0,0.714471 0.714471,0 0,-0.714471 z "/>
<path d="M 545.596,180 m -0.357235,-0.357235 l 0,0.714471 0.714471,0 0,-0.714471 z "/>
<path d="M 519.615,225 m -0.357235,-0.357235 l 0,0.714471 0.714471,0 0,-0.714471 z "/>
<path d="M 51.9615,287.321 m -0.357235,-0.357235 l 0,0.714471 0.714471,0 0,-0.714471 z "/>
<path d="M 25.9808,242.321 m -0.357235,-0.357235 l 0,0.714471 0.714471,0 0,-0.714471 z "/>
<path d="M 0,287.321 m -0.357235,-0.357235 l 0,0.714471 0.714471,0 0,-0.714471 z "/>
<path d="M 77.9423,270 m -0.357235,-0.357235 l 0,0.714471 0.714471,0 0,-0.714471 z "/>
<path d="M 51.9615,225 m -0.357235,-0.357235 l 0,0.714471 0.714471,0 0,-0.714471 z "/>
<path d="M 25.9808,270 m -0.357235,-0.357235 l 0,0.714471 0.714471,0 0,-0.714471 z "/>
<path d="M 103.923,287.321 m -0.357235,-0.357235 l 0,0.714471 0.714471,0 0,-0.714471 z "/>
<path d="M 77.9423,242.321 m -0.357235,-0.357235 l 0,0.714471 0.714471,0 0,-0.714471 z "/>
<path d="M 51.9615,287.321 m -0.357235,-0.357235 l 0,0.714471 0.714471,0 0,-0.714471 z "/>
<path d="M 129.904,270 m -0.357235,-0.357235 l 0,0.714471 0.714471,0 0,-0.714471 z "/>
<path d="M 103.923,225 m -0.357235,-0.357235 l 0,0.714471 0.714471,0 0,-0.714471 z "/>
<path d="M 77.9423,270 m -0.357235,-0.357235 l 0,0.714471 0.714471,0 0,-0.714471 z "/>
<path d="M 155.885,287.321 m -0.357235,-0.357235 l 0,0.714471 0.714471,0 0,-0.714471 z "/>
<path d="M 129.904,242.321 m -0.357235,-0.357235 l 0,0.714471 0.714471,0 0,-0.714471 z "/>
<path d="M 103.923,287.321 m -0.357235,-0.357235 l 0,0.714471 0.714471,0 0,-0.714471 z "/>
<path d="M 181.865,270 m -0.357235,-0.357235 l 0,0.714471 0.714471,0 0,-0.714471 z "/>
<path d="M 155.885,225 m -0.357235,-0.357235 l 0,0.714471 0.714471,0 0,-0.714471 z "/>
<path d="M 129.904,270 m -0.357235,-0.357235 l 0,0.714471 0.714471,0 0,-0.714471 z "/>
<path d="M 207.846,287.321 m -0.357235,-0.357235 l 0,0.714471 0.714471,0 0,-0.714471 z "/>
<path d="M 181.865,242.321 m -0.357235,-0.357235 l 0,0.714471 0.714471,0 0,-0.714471 z "/>
<path d="M 155.885,287.321 m -0.357235,-0.357235 l 0,0.714471 0.714471,0 0,-0.714471 z "/>
<path d="M 233.827,270 m -0.357235,-0.357235 l 0,0.714471 0.714471,0 0,-0.714471 z "/>
<path d="M 207.846,225 m -0.357235,-0.357235 l 0,0.714471 0.714471,0 0,-0.714471 z "/>
<path d="M 181.865,270 m -0.357235,-0.357235 l 0,0.714471 0.714471,0 0,-0.714471 z "/>
<path d="M 259.808,287.321 m -0.357235,-0.357235 l 0,0.714471 0.714471,0 0,-0.714471 z "/>
<path d="M 233.827,242.321 m -0.357235,-0.357235 l 0,0.714471 0.714471,0 0,-0.714471 z "/>
<path d="M 207.846,287.321 m -0.357235,-0.357235 l 0,0.714471 0.714471,0 0,-0.714471 z "/>
<path d="M 285.788,270 m -0.357235,-0.357235 l 0,0.714471 0.714471,0 0,-0.714471 z "/>
<path d="M 259.808,225 m -0.357235,-0.357235 l 0,0.714471 0.714471,0 0,-0.714471 z "/>
<path d="M 233.827,270 m -0.357235,-0.357235 l 0,0.714471 0.714471,0 0,-0.714471 z "/>
<path d="M 311.769,287.321 m -0.357235,-0.357235 l 0,0.714471 0.714471,0 0,-0.714471 z "/>
<path d="M 285.788,242.321 m -0.357235,-0.357235 l 0,0.714471 0.714471,0 0,-0.714471 z "/>
<path d="M 259.808,287.321 m -0.357235,-0.357235 l 0,0.714471 0.714471,0 0,-0.714471 z "/>
<path d="M 337.75,270 m -0.357235,-0.357235 l 0,0.714471 0.714471,0 0,-0.714471 z "/>
<path d="M 311.769,225 m -0.357235,-0.357235 l 0,0.714471 0.714471,0 0,-0.714471 z "/>
<path d="M 285.788,270 m -0.357235,-0.357235 l 0,0.714471 0.714471,0 0,-0.714471 z "/>
<path d="M 363.731,287.321 m -0.357235,-0.357235 l 0,0.714471 0.714471,0 0,-0.714471 z "/>
<path d="M 337.75,242.321 m -0.357235,-0.357235 l 0,0.714471 0.714471,0 0,-0.714471 z "/>
<path d="M 311.769,287.321 m -0.357235,-0.357235 l 0,0.714471 0.714471,0 0,-0.714471 z "/>
<path d="M 389.711,270 m -0.357235,-0.357235 l 0,0.714471 0.714471,0 0,-0.714471 z "/>
<path d="M 363.731,225 m -0.357235,-0.357235 l 0,0.714471 0.714471,0 0,-0.714471 z "/>
<path d="M 337.75,270 m -0.357235,-0.357235 l 0,0.714471 0.714471,0 0,-0.714471 z "/>
<path d="M 415.692,287.321 m -0.357235,-0.357235 l 0,0.714471 0.714471,0 0,-0.714471 z "/>
<path d="M 389.711,242.321 m -0.357235,-0.357235 l 0,0.714471 0.714471,0 0,-0.714471 z "/>
<path d="M 363.731,287.321 m -0.357235,-0.357235 l 0,0.714471 0.714471,0 0,-0.714471 z "/>
<path d="M 441.673,270 m -0.357235,-0.357235 l 0,0.714471 0.714471,0 0,-0.714471 z "/>
<path d="M 415.692,225 m -0.357235,-0.357235 l 0,0.714471 0.714471,0 0,-0.714471 z "/>
<path d="M 389.711,270 m -0.357235,-0.357235 l 0,0.714471 0.714471,0 0,-0.714471 z "/>
<path d="M 467.654,287.321 m -0.357235,-0.357235 l 0,0.714471 0.714471,0 0,-0.714471 z "/>
<path d="M 441.673,242.321 m -0.357235,-0.357235 l 0,0.714471 0.714471,0 0,-0.714471 z "/>
<path d="M 415.692,287.321 m -0.357235,-0.357235 l 0,0.714471 0.714471,0 0,-0.714471 z "/>
<path d="M 493.634,270 m -0.357235,-0.357235 l 0,0.714471 0.714471,0 0,-0.714471 z "/>
<path d="M 467.654,225 m -0.357235,-0.357235 l 0,0.714471 0.714471,0 0,-0.714471 z "/>
<path d="M 441.673,270 m -0.357235,-0.357235 l 0,0.714471 0.714471,0 0,-0.714471 z "/>
<path d="M 519.615,287.321 m -0.357235,-0.357235 l 0,0.714471 0.714471,0 0,-0.714471 z "/>
<path d="M 493.634,242.321 m -0.357235,-0.357235 l 0,0.714471 0.714471,0 0,-0.714471 z "/>
<path d="M 467.654,287.321 m -0.357235,-0.357235 l 0,0.714471 0.714471,0 0,-0.714471 z "/>
<path d="M 545.596,270 m -0.357235,-0.357235 l 0,0.714471 0.714471,0 0,-0.714471 z "/>
<path d="M 519.615,225 m -0.357235,-0.357235 l 0,0.714471 0.714471,0 0,-0.714471 z "/>
<path d="M 493.634,270 m -0.357235,-0.357235 l 0,0.714471 0.714471,0 0,-0.714471 z "/>
<path d="M 77.9423,332.321 m -0.357235,-0.357235 l 0,0.714471 0.714471,0 0,-0.714471 z "/>
<path d="M 51.9615,287.321 m -0.357235,-0.357235 l 0,0.714471 0.714471,0 0,-0.714471 z "/>
<path d="M 25.9808,332.321 m -0.357235,-0.357235 l 0,0.714471 0.714471,0 0,-0.714471 z "/>
<path d="M 103.923,315 m -0.357235,-0.357235 l 0,0.714471 0.714471,0 0,-0.714471 z "/>
<path d="M 77.9423,270 m -0.357235,-0.357235 l 0,0.714471 0.714471,0 0,-0.714471 z "/>
<path d="M 51.9615,315 m -0.357235,-0.357235 l 0,0.714471 0.714471,0 0,-0.714471 z "/>
<path d="M 129.904,332.321 m -0.357235,-0.357235 l 0,0.714471 0.714471,0 0,-0.714471 z "/>
<path d="M 103.923,287.321 m -0.357235,-0.357235 l 0,0.714471 0.714471,0 0,-0.714471 z "/>
<path d="M 77.9423,332.321 m -0.357235,-0.357235 l 0,0.714471 0.714471,0 0,-0.714471 z "/>
<path d="M 155.885,315 m -0.357235,-0.357235 l 0,0.714471 0.714471,0 0,-0.714471 z "/>
<path d="M 129.904,270 m -0.357235,-0.357235 l 0,0.714471 0.714471,0 0,-0.714471 z "/>
<path d="M 103.923,315 m -0.357235,-0.357235 l 0,0.714471 0.714471,0 0,-0.714471 z "/>
<path d="M 181.865,332.321 m -0.357235,-0.357235 l 0,0.714471 0.714471,0 0,-0.714471 z "/>
<path d="M 155.885,287.321 m -0.357235,-0.357235 l 0,0.714471 0.714471,0 0,-0.714471 z "/>
<path d="M 129.904,332.321 m -0.357235,-0.357235 l 0,0.714471 0.714471,0 0,-0.714471 z "/>
<path d="M 207.846,315 m -0.357235,-0.357235 l 0,0.714471 0.714471,0 0,-0.714471 z "/>
<path d="M 181.865,270 m -0.357235,-0.357235 l 0,0.714471 0.714471,0 0,-0.714471 z "/>
<path d="M 155.885,315 m -0.357235,-0.357235 l 0,0.714471 0.714471,0 0,-0.714471 z "/>
<path d="M 233.827,332.321 m -0.357235,-0.357235 l 0,0.714471 0.714471,0 0,-0.714471 z "/>
<path d="M 207.846,287.321 m -0.357235,-0.357235 l 0,0.714471 0.714471,0 0,-0.714471 z "/>
<path d="M 181.865,332.321 m -0.357235,-0.357235 l 0,0.714471 0.714471,0 0,-0.714471 z "/>
<path d="M 259.808,315 m -0.357235,-0.357235 l 0,0.714471 0.714471,0 0,-0.714471 z "/>
<path d="M 233.827,270 m -0.357235,-0.357235 l 0,0.714471 0.714471,0 0,-0.714471 z "/>
<path d="M 207.846,315 m -0.357235,-0.357235 l 0,0.714471 0.714471,0 0,-0.714471 z "/>
<path d="M 285.788,332.321 m -0.357235,-0.357235 l 0,0.714471 0.714471,0 0,-0.714471 z "/>
<path d="M 259.808,287.321 m -0.357235,-0.357235 l 0,0.714471 0.714471,0 0,-0.714471 z "/>
<path d="M 233.827,332.321 m -0.357235,-0.357235 l 0,0.714471 0.714471,0 0,-0.714471 z "/>
<path d="M 311.769,315 m -0.357235,-0.357235 l 0,0.714471 0.714471,0 0,-0.714471 z "/>
<path d="M 285.788,270 m -0.357235,-0.357235 l 0,0.714471 0.714471,0 0,-0.714471 z "/>
<path d="M 259.808,315 m -0.357235,-0.357235 l 0,0.714471 0.714471,0 0,-0.714471 z "/>
<path d="M 337.75,332.321 m -0.357235,-0.357235 l 0,0.714471 0.714471,0 0,-0.714471 z "/>
<path d="M 311.769,287.321 m -0.357235,-0.357235 l 0,0.714471 0.714471,0 0,-0.714471 z "/>
<path d="M 285.788,332.321 m -0.357235,-0.357235 l 0,0.714471 0.714471,0 0,-0.714471 z "/>
<path d="M 363.731,315 m -0.357235,-0.357235 l 0,0.714471 0.714471,0 0,-0.714471 z "/>
<path d="M 337.75,270 m -0.357235,-0.357235 l 0,0.714471 0.714471,0 0,-0.714471 z "/>
<path d="M 311.769,315 m -0.357235,-0.357235 l 0,0.714471 0.714471,0 0,-0.714471 z "/>
<path d="M 389.711,332.321 m -0.357235,-0.357235 l 0,0.714471 0.714471,0 0,-0.714471 z "/>
<path d="M 363.731,287.321 m -0.357235,-0.357235 l 0,0.714471 0.714471,0 0,-0.714471 z "/>
<path d="M 337.75,332.321 m -0.357235,-0.357235 l 0,0.714471 0.714471,0 0,-0.714471 z "/>
<path d="M 415.692,315 m -0.357235,-0.357235 l 0,0.714471 0.714471,0 0,-0.714471 z "/>
<path d="M 389.711,270 m -0.357235,-0.357235 l 0,0.714471 0.714471,0 0,-0.714471 z "/>
<path d="M 363.731,315 m -0.357235,-0.357235 l 0,0.714471 0.714471,0 0,-0.714471 z "/>
<path d="M 441.673,332.321 m -0.357235,-0.357235 l 0,0.714471 0.714471,0 0,-0.714471 z "/>
<path d="M 415.692,287.321 m -0.357235,-0.357235 l 0,0.714471 0.714471,0 0,-0.714471 z "/>
<path d="M 389.711,332.321 m -0.357235,-0.357235 l 0,0.714471 0.714471,0 0,-0.714471 z "/>
<path d="M 467.654,315 m -0.357235,-0.357235 l 0,0.714471 0.714471,0 0,-0.714471 z "/>
<path d="M 441.673,270 m -0.357235,-0.357235 l 0,0.714471 0.714471,0 0,-0.714471 z "/>
<path d="M 415.692,315 m -0.357235,-0.357235 l 0,0.714471 0.714471,0 0,-0.714471 z "/>
<path d="M 493.634,332.321 m -0.357235,-0.357235 l 0,0.714471 0.714471,0 0,-0.714471 z "/>
<path d="M 467.654,287.321 m -0.357235,-0.357235 l 0,0.714471 0.714471,0 0,-0.714471 z "/>
<path d="M 441.673,332.321 m -0.357235,-0.357235 l 0,0.714471 0.714471,0 0,-0.714471 z "/>
<path d="M 519.615,315 m -0.357235,-0.357235 l 0,0.714471 0.714471,0 0,-0.714471 z "/>
<path d="M 493.634,270 m -0.357235,-0.357235 l 0,0.714471 0.714471,0 0,-0.714471 z "/>
<path d="M 467.654,315 m -0.357235,-0.357235 l 0,0.714471 0.714471,0 0,-0.714471 z "/>
<path d="M 545.596,332.321 m -0.357235,-0.357235 l 0,0.714471 0.714471,0 0,-0.714471 z "/>
<path d="M 519.615,287.321 m -0.357235,-0.357235 l 0,0.714471 0.714471,0 0,-0.714471 z "/>
<path d="M 493.634,332.321 m -0.357235,-0.357235 l 0,0.714471 0.714471,0 0,-0.714471 z "/>
<path d="M 571.577,315 m -0.357235,-0.357235 l 0,0.714471 0.714471,0 0,-0.714471 z "/>
<path d="M 545.596,270 m -0.357235,-0.357235 l 0,0.714471 0.714471,0 0,-0.714471 z "/>
<path d="M 519.615,315 m -0.357235,-0.357235 l 0,0.714471 0.714471,0 0,-0.714471 z "/>
<path d="M 51.9615,377.321 m -0.357235,-0.357235 l 0,0.714471 0.714471,0 0,-0.714471 z "/>
<path d="M 25.9808,332.321 m -0.357235,-0.357235 l 0,0.714471 0.714471,0 0,-0.714471 z "/>
<path d="M 0,377.321 m -0.357235,-0.357235 l 0,0.714471 0.714471,0 0,-0.714471 z "/>
<path d="M 77.9423,360 m -0.357235,-0.357235 l 0,0.714471 0.714471,0 0,-0.714471 z "/>
<path d="M 51.9615,315 m -0.357235,-0.357235 l 0,0.714471 0.714471,0 0,-0.714471 z "/>
<path d="M 25.9808,360 m -0.357235,-0.357235 l 0,0.714471 0.714471,0 0,-0.714471 z "/>
<path d="M 103.923,377.321 m -0.357235,-0.357235 l 0,0.714471 0.714471,0 0,-0.714471 z "/>
<path d="M 77.9423,332.321 m -0.357235,-0.357235 l 0,0.714471 0.714471,0 0,-0.714471 z "/>
<path d="M 51.9615,377.321 m -0.357235,-0.357235 l 0,0.714471 0.714471,0 0,-0.714471 z "/>
<path d="M 129.904,360 m -0.357235,-0.357235 l 0,0.714471 0.714471,0 0,-0.714471 z "/>
<path d="M 103.923,315 m -0.357235,-0.357235 l 0,0.714471 0.714471,0 0,-0.714471 z "/>
<path d="M 77.9423,360 m -0.357235,-0.357235 l 0,0.714471 0.714471,0 0,-0.714471 z "/>
<path d="M 155.885,377.321 m -0.357235,-0.357235 l 0,0.714471 0.714471,0 0,-0.714471 z "/>
<path d="M 129.904,332.321 m -0.357235,-0.357235 l 0,0.714471 0.714471,0 0,-0.714471 z "/>
<path d="M 103.923,377.321 m -0.357235,-0.357235 l 0,0.714471 0.714471,0 0,-0.714471 z "/>
<path d="M 181.865,360 m -0.357235,-0.357235 l 0,0.714471 0.714471,0 0,-0.714471 z "/>
<path d="M 155.885,315 m -0.357235,-0.357235 l 0,0.714471 0.714471,0 0,-0.714471 z "/>
<path d="M 129.904,360 m -0.357235,-0.357235 l 0,0.714471 0.714471,0 0,-0.714471 z "/>
<path d="M 207.846,377.321 m -0.357235,-0.357235 l 0,0.714471 0.714471,0 0,-0.714471 z "/>
<path d="M 181.865,332.321 m -0.357235,-0.357235 l 0,0.714471 0.714471,0 0,-0.714471 z "/>
<path d="M 155.885,377.321 m -0.357235,-0.357235 l 0,0.714471 0.714471,0 0,-0.714471 z "/>
<path d="M 233.827,360 m -0.357235,-0.357235 l 0,0.714471 0.714471,0 0,-0.714471 z "/>
<path d="M 207.846,315 m -0.357235,-0.357235 l 0,0.714471 0.714471,0 0,-0.714471 z "/>
<path d="M 181.865,360 m -0.357235,-0.357235 l 0,0.714471 0.714471,0 0,-0.714471 z "/>
<path d="M 259.808,377.321 m -0.357235,-0.357235 l 0,0.714471 0.714471,0 0,-0.714471 z "/>
<path d="M 233.827,332.321 m -0.357235,-0.357235 l 0,0.714471 0.714471,0 0,-0.714471 z "/>
<path d="M 207.846,377.321 m -0.357235,-0.357235 l 0,0.714471 0.714471,0 0,-0.714471 z "/>
<path d="M 285.788,360 m -0.357235,-0.357235 l 0,0.714471 0.714471,0 0,-0.714471 z "/>
<path d="M 259.808,315 m -0.357235,-0.357235 l 0,0.714471 0.714471,0 0,-0.714471 z "/>
<path d="M 233.827,360 m -0.357235,-0.357235 l 0,0.714471 0.714471,0 0,-0.714471 z "/>
<path d="M 311.769,377.321 m -0.357235,-0.357235 l 0,0.714471 0.714471,0 0,-0.714471 z "/>
<path d="M 285.788,332.321 m -0.357235,-0.357235 l 0,0.714471 0.714471,0 0,-0.714471 z "/>
<path d="M 259.808,377.321 m -0.357235,-0.357235 l 0,0.714471 0.714471,0 0,-0.714471 z "/>
<path d="M 337.75,360 m -0.357235,-0.357235 l 0,0.714471 0.714471,0 0,-0.714471 z "/>
<path d="M 311.769,315 m -0.357235,-0.357235 l 0,0.714471 0.714471,0 0,-0.714471 z "/>
<path d="M 285.788,360 m -0.357235,-0.357235 l 0,0.714471 0.714471,0 0,-0.714471 z "/>
<path d="M 363.731,377.321 m -0.357235,-0.357235 l 0,0.714471 0.714471,0 0,-0.714471 z "/>
<path d="M 337.75,332.321 m -0.357235,-0.357235 l 0,0.714471 0.714471,0 0,-0.714471 z "/>
<path d="M 311.769,377.321 m -0.357235,-0.357235 l 0,0.714471 0.714471,0 0,-0.714471 z "/>
<path d="M 389.711,360 m -0.357235,-0.357235 l 0,0.714471 0.714471,0 0,-0.714471 z "/>
<path d="M 363.731,315 m -0.357235,-0.357235 l 0,0.714471 0.714471,0 0,-0.714471 z "/>
<path d="M 337.75,360 m -0.357235,-0.357235 l 0,0.714471 0.714471,0 0,-0.714471 z "/>
<path d="M 415.692,377.321 m -0.357235,-0.357235 l 0,0.714471 0.714471,0 0,-0.714471 z "/>
<path d="M 389.711,332.321 m -0.357235,-0.357235 l 0,0.714471 0.714471,0 0,-0.714471 z "/>
<path d="M 363.731,377.321 m -0.357235,-0.357235 l 0,0.714471 0.714471,0 0,-0.714471 z "/>
<path d="M 441.673,360 m -0.357235,-0.357235 l 0,0.714471 0.714471,0 0,-0.714471 z "/>
<path d="M 415.692,315 m -0.357235,-0.357235 l 0,0.714471 0.714471,0 0,-0.714471 z "/>
<path d="M 389.711,360 m -0.357235,-0.357235 l 0,0.714471 0.714471,0 0,-0.714471 z "/>
<path d="M 467.654,377.321 m -0.357235,-0.357235 l 0,0.714471 0.714471,0 0,-0.714471 z "/>
<path d="M 441.673,332.321 m -0.357235,-0.357235 l 0,0.714471 0.714471,0 0,-0.714471 z "/>
<path d="M 415.692,377.321 m -0.357235,-0.357235 l 0,0.714471 0.714471,0 0,-0.714471 z "/>
<path d="M 493.634,360 m -0.357235,-0.357235 l 0,0.714471 0.714471,0 0,-0.714471 z "/>
<path d="M 467.654,315 m -0.357235,-0.357235 l 0,0.714471 0.714471,0 0,-0.714471 z "/>
<path d="M 441.673,360 m -0.357235,-0.357235 l 0,0.714471 0.714471,0 0,-0.714471 z "/>
<path d="M 519.615,377.321 m -0.357235,-0.357235 l 0,0.714471 0.714471,0 0,-0.714471 z "/>
<path d="M 493.634,332.321 m -0.357235,-0.357235 l 0,0.714471 0.714471,0 0,-0.714471 z "/>
<path d="M 467.654,377.321 m -0.357235,-0.357235 l 0,0.714471 0.714471,0 0,-0.714471 z "/>
<path d="M 545.596,360 m -0.357235,-0.357235 l 0,0.714471 0.714471,0 0,-0.714471 z "/>
<path d="M 519.615,315 m -0.357235,-0.357235 l 0,0.714471 0.714471,0 0,-0.714471 z "/>
<path d="M 493.634,360 m -0.357235,-0.357235 l 0,0.714471 0.714471,0 0,-0.714471 z "/>
<path d="M 77.9423,422.321 m -0.357235,-0.357235 l 0,0.714471 0.714471,0 0,-0.714471 z "/>
<path d="M 51.9615,377.321 m -0.357235,-0.357235 l 0,0.714471 0.714471,0 0,-0.714471 z "/>
<path d="M 25.9808,422.321 m -0.357235,-0.357235 l 0,0.714471 0.714471,0 0,-0.714471 z "/>
<path d="M 103.923,405 m -0.357235,-0.357235 l 0,0.714471 0.714471,0 0,-0.714471 z "/>
<path d="M 77.9423,360 m -0.357235,-0.357235 l 0,0.714471 0.714471,0 0,-0.714471 z "/>
<path d="M 51.9615,405 m -0.357235,-0.357235 l 0,0.714471 0.714471,0 0,-0.714471 z "/>
<path d="M 129.904,422.321 m -0.357235,-0.357235 l 0,0.714471 0.714471,0 0,-0.714471 z "/>
<path d="M 103.923,377.321 m -0.357235,-0.357235 l 0,0.714471 0.714471,0 0,-0.714471 z "/>
<path d="M 77.9423,422.321 m -0.357235,-0.357235 l 0,0.714471 0.714471,0 0,-0.714471 z "/>
<path d="M 155.885,405 m -0.357235,-0.357235 l 0,0.714471 0.714471,0 0,-0.714471 z "/>
<path d="M 129.904,360 m -0.357235,-0.357235 l 0,0.714471 0.714471,0 0,-0.714471 z "/>
<path d="M 103.923,405 m -0.357235,-0.357235 l 0,0.714471 0.714471,0 0,-0.714471 z "/>
<path d="M 181.865,422.321 m -0.357235,-0.357235 l 0,0.714471 0.714471,0 0,-0.714471 z "/>
<path d="M 155.885,377.321 m -0.357235,-0.357235 l 0,0.714471 0.714471,0 0,-0.714471 z "/>
<path d="M 129.904,422.321 m -0.357235,-0.357235 l 0,0.714471 0.714471,0 0,-0.714471 z "/>
<path d="M 207.846,405 m -0.357235,-0.357235 l 0,0.714471 0.714471,0 0,-0.714471 z "/>
<path d="M 181.865,360 m -0.357235,-0.357235 l 0,0.714471 0.714471,0 0,-0.714471 z "/>
<path d="M 155.885,405 m -0.357235,-0.357235 l 0,0.714471 0.714471,0 0,-0.714471 z "/>
<path d="M 233.827,422.321 m -0.357235,-0.357235 l 0,0.714471 0.714471,0 0,-0.714471 z "/>
<path d="M 207.846,377.321 m -0.357235,-0.357235 l 0,0.714471 0.714471,0 0,-0.714471 z "/>
<path d="M 181.865,422.321 m -0.357235,-0.357235 l 0,0.714471 0.714471,0 0,-0.714471 z "/>
<path d="M 259.808,405 m -0.357235,-0.357235 l 0,0.714471 0.714471,0 0,-0.714471 z "/>
<path d="M 233.827,360 m -0.357235,-0.357235 l 0,0.714471 0.714471,0 0,-0.714471 z "/>
<path d="M 207.846,405 m -0.357235,-0.357235 l 0,0.714471 0.714471,0 0,-0.714471 z "/>
<path d="M 285.788,422.321 m -0.357235,-0.357235 l 0,0.714471 0.714471,0 0,-0.714471 z "/>
<path d="M 259.808,377.321 m -0.357235,-0.357235 l 0,0.714471 0.714471,0 0,-0.714471 z "/>
<path d="M 233.827,422.321 m -0.357235,-0.357235 l 0,0.714471 0.714471,0 0,-0.714471 z "/>
<path d="M 311.769,405 m -0.357235,-0.357235 l 0,0.714471 0.714471,0 0,-0.714471 z "/>
<path d="M 285.788,360 m -0.357235,-0.357235 l 0,0.714471 0.714471,0 0,-0.714471 z "/>
<path d="M 259.808,405 m -0.357235,-0.357235 l 0,0.714471 0.714471,0 0,-0.714471 z "/>
<path d="M 337.75,422.321 m -0.357235,-0.357235 l 0,0.714471 0.714471,0 0,-0.714471 z "/>
<path d="M 311.769,377.321 m -0.357235,-0.357235 l 0,0.714471 0.714471,0 0,-0.714471 z "/>
<path d="M 285.788,422.321 m -0.357235,-0.357235 l 0,0.714471 0.714471,0 0,-0.714471 z "/>
<path d="M 363.731,405 m -0.357235,-0.357235 l 0,0.714471 0.714471,0 0,-0.714471 z "/>
<path d="M 337.75,360 m -0.357235,-0.357235 l 0,0.714471 0.714471,0 0,-0.714471 z "/>
<path d="M 311.769,405 m -0.357235,-0.357235 l 0,0.714471 0.714471,0 0,-0.714471 z "/>
<path d="M 389.711,422.321 m -0.357235,-0.357235 l 0,0.714471 0.714471,0 0,-0.714471 z "/>
<path d="M 363.731,377.321 m -0.357235,-0.357235 l 0,0.714471 0.714471,0 0,-0.714471 z "/>
<path d="M 337.75,422.321 m -0.357235,-0.357235 l 0,0.714471 0.714471,0 0,-0.714471 z "/>
<path d="M 415.692,405 m -0.357235,-0.357235 l 0,0.714471 0.714471,0 0,-0.714471 z "/>
<path d="M 389.711,360 m -0.357235,-0.357235 l 0,0.714471 0.714471,0 0,-0.714471 z "/>
<path d="M 363.731,405 m -0.357235,-0.357235 l 0,0.714471 0.714471,0 0,-0.714471 z "/>
<path d="M 441.673,422.321 m -0.357235,-0.357235 l 0,0.714471 0.714471,0 0,-0.714471 z "/>
<path d="M 415.692,377.321 m -0.357235,-0.357235 l 0,0.714471 0.714471,0 0,-0.714471 z "/>
<path d="M 389.711,422.321 m -0.357235,-0.357235 l 0,0.714471 0.714471,0 0,-0.714471 z "/>
<path d="M 467.654,405 m -0.357235,-0.357235 l 0,0.714471 0.714471,0 0,-0.714471 z "/>
<path d="M 441.673,360 m -0.357235,-0.357235 l 0,0.714471 0.714471,0 0,-0.714471 z "/>
<path d="M 415.692,405 m -0.357235,-0.357235 l 0,0.714471 0.714471,0 0,-0.714471 z "/>
<path d="M 493.634,422.321 m -0.357235,-0.357235 l 0,0.714471 0.714471,0 0,-0.714471 z "/>
<path d="M 467.654,377.321 m -0.357235,-0.357235 l 0,0.714471 0.714471,0 0,-0.714471 z "/>
<path d="M 441.673,422.321 m -0.357235,-0.357235 l 0,0.714471 0.714471,0 0,-0.714471 z "/>
<path d="M 519.615,405 m -0.357235,-0.357235 l 0,0.714471 0.714471,0 0,-0.714471 z "/>
<path d="M 493.634,360 m -0.357235,-0.357235 l 0,0.714471 0.714471,0 0,-0.714471 z "/>
<path d="M 467.654,405 m -0.357235,-0.357235 l 0,0.714471 0.714471,0 0,-0.714471 z "/>
<path d="M 545.596,422.321 m -0.357235,-0.357235 l 0,0.714471 0.714471,0 0,-0.714471 z "/>
<path d="M 519.615,377.321 m -0.357235,-0.357235 l 0,0.714471 0.714471,0 0,-0.714471 z "/>
<path d="M 493.634,422.321 m -0.357235,-0.357235 l 0,0.714471 0.714471,0 0,-0.714471 z "/>
<path d="M 571.577,405 m -0.357235,-0.357235 l 0,0.714471 0.714471,0 0,-0.714471 z "/>
<path d="M 545.596,360 m -0.357235,-0.357235 l 0,0.714471 0.714471,0 0,-0.714471 z "/>
<path d="M 519.615,405 m -0.357235,-0.357235 l 0,0.714471 0.714471,0 0,-0.714471 z "/>
<path d="M 51.9615,467.321 m -0.357235,-0.357235 l 0,0.714471 0.714471,0 0,-0.714471 z "/>
<path d="M 25.9808,422.321 m -0.357235,-0.357235 l 0,0.714471 0.714471,0 0,-0.714471 z "/>
<path d="M 0,467.321 m -0.357235,-0.357235 l 0,0.714471 0.714471,0 0,-0.714471 z "/>
<path d="M 77.9423,450 m -0.357235,-0.357235 l 0,0.714471 0.714471,0 0,-0.714471 z "/>
<path d="M 51.9615,405 m -0.357235,-0.357235 l 0,0.714471 0.714471,0 0,-0.714471 z "/>
<path d="M 25.9808,450 m -0.357235,-0.357235 l 0,0.714471 0.714471,0 0,-0.714471 z "/>
<path d="M 103.923,467.321 m -0.357235,-0.357235 l 0,0.714471 0.714471,0 0,-0.714471 z "/>
<path d="M 77.9423,422.321 m -0.357235,-0.357235 l 0,0.714471 0.714471,0 0,-0.714471 z "/>
<path d="M 51.9615,467.321 m -0.357235,-0.357235 l 0,0.714471 0.714471,0 0,-0.714471 z "/>
<path d="M 129.904,450 m -0.357235,-0.357235 l 0,0.714471 0.714471,0 0,-0.714471 z "/>
<path d="M 103.923,405 m -0.357235,-0.357235 l 0,0.714471 0.714471,0 0,-0.714471 z "/>
<path d="M 77.9423,450 m -0.357235,-0.357235 l 0,0.714471 0.714471,0 0,-0.714471 z "/>
<path d="M 155.885,467.321 m -0.357235,-0.357235 l 0,0.714471 0.714471,0 0,-0.714471 z "/>
<path d="M 129.904,422.321 m -0.357235,-0.357235 l 0,0.714471 0.714471,0 0,-0.714471 z "/>
<path d="M 103.923,467.321 m -0.357235,-0.357235 l 0,0.714471 0.714471,0 0,-0.714471 z "/>
<path d="M 181.865,450 m -0.357235,-0.357235 l 0,0.714471 0.714471,0 0,-0.714471 z "/>
<path d="M 155.885,405 m -0.357235,-0.357235 l 0,0.714471 0.714471,0 0,-0.714471 z "/>
<path d="M 129.904,450 m -0.357235,-0.357235 l 0,0.714471 0.714471,0 0,-0.714471 z "/>
<path d="M 207.846,467.321 m -0.357235,-0.357235 l 0,0.714471 0.714471,0 0,-0.714471 z "/>
<path d="M 181.865,422.321 m -0.357235,-0.357235 l 0,0.714471 0.714471,0 0,-0.714471 z "/>
<path d="M 155.885,467.321 m -0.357235,-0.357235 l 0,0.714471 0.714471,0 0,-0.714471 z "/>
<path d="M 233.827,450 m -0.357235,-0.357235 l 0,0.714471 0.714471,0 0,-0.714471 z "/>
<path d="M 207.846,405 m -0.357235,-0.357235 l 0,0.714471 0.714471,0 0,-0.714471 z "/>
<path d="M 181.865,450 m -0.357235,-0.357235 l 0,0.714471 0.714471,0 0,-0.714471 z "/>
<path d="M 259.808,467.321 m -0.357235,-0.357235 l 0,0.714471 0.714471,0 0,-0.714471 z "/>
<path d="M 233.827,422.321 m -0.357235,-0.357235 l 0,0.714471 0.714471,0 0,-0.714471 z "/>
<path d="M 207.846,467.321 m -0.357235,-0.357235 l 0,0.714471 0.714471,0 0,-0.714471 z "/>
<path d="M 285.788,450 m -0.357235,-0.357235 l 0,0.714471 0.714471,0 0,-0.714471 z "/>
<path d="M 259.808,405 m -0.357235,-0.357235 l 0,0.714471 0.714471,0 0,-0.714471 z "/>
<path d="M 233.827,450 m -0.357235,-0.357235 l 0,0.714471 0.714471,0 0,-0.714471 z "/>
<path d="M 311.769,467.321 m -0.357235,-0.357235 l 0,0.714471 0.714471,0 0,-0.714471 z "/>
<path d="M 285.788,422.321 m -0.357235,-0.357235 l 0,0.714471 0.714471,0 0,-0.714471 z "/>
<path d="M 259.808,467.321 m -0.357235,-0.357235 l 0,0.714471 0.714471,0 0,-0.714471 z "/>
<path d="M 337.75,450 m -0.357235,-0.357235 l 0,0.714471 0.714471,0 0,-0.714471 z "/>
<path d="M 311.769,405 m -0.357235,-0.357235 l 0,0.714471 0.714471,0 0,-0.714471 z "/>
<path d="M 285.788,450 m -0.357235,-0.357235 l 0,0.714471 0.714471,0 0,-0.714471 z "/>
<path d="M 363.731,467.321 m -0.357235,-0.357235 l 0,0.714471 0.714471,0 0,-0.714471 z "/>
<path d="M 337.75,422.321 m -0.357235,-0.357235 l 0,0.714471 0.714471,0 0,-0.714471 z "/>
<path d="M 311.769,467.321 m -0.357235,-0.357235 l 0,0.714471 0.714471,0 0,-0.714471 z "/>
<path d="M 389.711,450 m -0.357235,-0.357235 l 0,0.714471 0.714471,0 0,-0.714471 z "/>
<path d="M 363.731,405 m -0.357235,-0.357235 l 0,0.714471 0.714471,0 0,-0.714471 z "/>
<path d="M 337.75,450 m -0.357235,-0.357235 l 0,0.714471 0.714471,0 0,-0.714471 z "/>
<path d="M 415.692,467.321 m -0.357235,-0.357235 l 0,0.714471 0.714471,0 0,-0.714471 z "/>
<path d="M 389.711,422.321 m -0.357235,-0.357235 l 0,0.714471 0.714471,0 0,-0.714471 z "/>
<path d="M 363.731,467.321 m -0.357235,-0.357235 l 0,0.714471 0.714471,0 0,-0.714471 z "/>
<path d="M 441.673,450 m -0.357235,-0.357235 l 0,0.714471 0.714471,0 0,-0.714471 z "/>
<path d="M 415.692,405 m -0.357235,-0.357235 l 0,0.714471 0.714471,0 0,-0.714471 z "/>
<path d="M 389.711,450 m -0.357235,-0.357235 l 0,0.714471 0.714471,0 0,-0.714471 z "/>
<path d="M 467.654,467.321 m -0.357235,-0.357235 l 0,0.714471 0.714471,0 0,-0.714471 z "/>
<path d="M 441.673,422.321 m -0.357235,-0.357235 l 0,0.714471 0.714471,0 0,-0.714471 z "/>
<path d="M 415.692,467.321 m -0.357235,-0.357235 l 0,0.714471 0.714471,0 0,-0.714471 z "/>
<path d="M 493.634,450 m -0.357235,-0.357235 l 0,0.714471 0.714471,0 0,-0.714471 z "/>
<path d="M 467.654,405 m -0.357235,-0.357235 l 0,0.714471 0.714471,0 0,-0.714471 z "/>
<path d="M 441.673,450 m -0.357235,-0.357235 l 0,0.714471 0.714471,0 0,-0.714471 z "/>
<path d="M 519.615,467.321 m -0.357235,-0.357235 l 0,0.714471 0.714471,0 0,-0.714471 z "/>
<path d="M 493.634,422.321 m -0.357235,-0.357235 l 0,0.714471 0.714471,0 0,-0.714471 z "/>
<path d="M 467.654,467.321 m -0.357235,-0.357235 l 0,0.714471 0.714471,0 0,-0.714471 z "/>
<path d="M 545.596,450 m -0.357235,-0.357235 l 0,0.714471 0.714471,0 0,-0.714471 z "/>
<path d="M 519.615,405 m -0.357235,-0.357235 l 0,0.714471 0.714471,0 0,-0.714471 z "/>
<path d="M 493.634,450 m -0.357235,-0.357235 l 0,0.714471 0.714471,0 0,-0.714471 z "/>
<path d="M 51.9615,47.3205 l 25.9808,15 "/>
<path d="M 51.9615,47.3205 l 7.10543e-15,-30 "/>
<path d="M 51.9615,47.3205 l -25.9808,15 "/>
<path d="M 77.9423,62.3205 l -25.9808,-45 -25.9808,45 51.9615,2.84217e-14 "/>
<path d="M 77.9423,30 l 25.9808,15 "/>
<path d="M 77.9423,30 l 0,-30 "/>
<path d="M 77.9423,30 l -25.9808,15 "/>
<path d="M 103.923,45 l -25.9808,-45 -25.9808,45 51.9615,2.13163e-14 "/>
<path d="M 103.923,47.3205 l 25.9808,15 "/>
<path d="M 103.923,47.3205 l 0,-30 "/>
<path d="M 103.923,47.3205 l -25.9808,15 "/>
<path d="M 129.904,62.3205 l -25.9808,-45 -25.9808,45 51.9615,2.84217e-14 "/>
<path d="M 129.904,30 l 25.9808,15 "/>
<path d="M 129.904,30 l 0,-30 "/>
<path d="M 129.904,30 l -25.9808,15 "/>
<path d="M 155.885,45 l -25.9808,-45 -25.9808,45 51.9615,2.13163e-14 "/>
<path d="M 155.885,47.3205 l 25.9808,15 "/>
<path d="M 155.885,47.3205 l 0,-30 "/>
<path d="M 155.885,47.3205 l -25.9808,15 "/>
<path d="M 181.865,62.3205 l -25.9808,-45 -25.9808,45 51.9615,2.84217e-14 "/>
<path d="M 181.865,30 l 25.9808,15 "/>
<path d="M 181.865,30 l 0,-30 "/>
<path d="M 181.865,30 l -25.9808,15 "/>
<path d="M 207.846,45 l -25.9808,-45 -25.9808,45 51.9615,2.13163e-14 "/>
<path d="M 207.846,47.3205 l 25.9808,15 "/>
<path d="M 207.846,47.3205 l 0,-30 "/>
<path d="M 207.846,47.3205 l -25.9808,15 "/>
<path d="M 233.827,62.3205 l -25.9808,-45 -25.9808,45 51.9615,2.84217e-14 "/>
<path d="M 233.827,30 l 25.9808,15 "/>
<path d="M 233.827,30 l 0,-30 "/>
<path d="M 233.827,30 l -25.9808,15 "/>
<path d="M 259.808,45 l -25.9808,-45 -25.9808,45 51.9615,2.13163e-14 "/>
<path d="M 259.808,47.3205 l 25.9808,15 "/>
<path d="M 259.808,47.3205 l 0,-30 "/>
<path d="M 259.808,47.3205 l -25.9808,15 "/>
<path d="M 285.788,62.3205 l -25.9808,-45 -25.9808,45 51.9615,2.84217e-14 "/>
<path d="M 285.788,30 l 25.9808,15 "/>
<path d="M 285.788,30 l 0,-30 "/>
<path d="M 285.788,30 l -25.9808,15 "/>
<path d="M 311.769,45 l -25.9808,-45 -25.9808,45 51.9615,2.13163e-14 "/>
<path d="M 311.769,47.3205 l 25.9808,15 "/>
<path d="M 311.769,47.3205 l 0,-30 "/>
<path d="M 311.769,47.3205 l -25.9808,15 "/>
<path d="M 337.75,62.3205 l -25.9808,-45 -25.9808,45 51.9615,2.84217e-14 "/>
<path d="M 337.75,30 l 25.9808,15 "/>
<path d="M 337.75,30 l 0,-30 "/>
<path d="M 337.75,30 l -25.9808,15 "/>
<path d="M 363.731,45 l -25.9808,-45 -25.9808,45 51.9615,2.13163e-14 "/>
<path d="M 363.731,47.3205 l 25.9808,15 "/>
<path d="M 363.731,47.3205 l 0,-30 "/>
<path d="M 363.731,47.3205 l -25.9808,15 "/>
<path d="M 389.711,62.3205 l -25.9808,-45 -25.9808,45 51.9615,2.84217e-14 "/>
<path d="M 389.711,30 l 25.9808,15 "/>
<path d="M 389.711,30 l 0,-30 "/>
<path d="M 389.711,30 l -25.9808,15 "/>
<path d="M 415.692,45 l -25.9808,-45 -25.9808,45 51.9615,2.13163e-14 "/>
<path d="M 415.692,47.3205 l 25.9808,15 "/>
<path d="M 415.692,47.3205 l 0,-30 "/>
<path d="M 415.692,47.3205 l -25.9808,15 "/>
<path d="M 441.673,62.3205 l -25.9808,-45 -25.9808,45 51.9615,2.84217e-14 "/>
<path d="M 441.673,30 l 25.9808,15 "/>
<path d="M 441.673,30 l 0,-30 "/>
<path d="M 441.673,30 l -25.9808,15 "/>
<path d="M 467.654,45 l -25.9808,-45 -25.9808,45 51.9615,2.13163e-14 "/>
<path d="M 467.654,47.3205 l 25.9808,15 "/>
<path d="M 467.654,47.3205 l 0,-30 "/>
<path d="M 467.654,47.3205 l -25.9808,15 "/>
<path d="M 493.634,62.3205 l -25.9808,-45 -25.9808,45 51.9615,2.84217e-14 "/>
<path d="M 493.634,30 l 25.9808,15 "/>
<path d="M 493.634,30 l 0,-30 "/>
<path d="M 493.634,30 l -25.9808,15 "/>
<path d="M 519.615,45 l -25.9808,-45 -25.9808,45 51.9615,2.13163e-14 "/>
<path d="M 519.615,47.3205 l 25.9808,15 "/>
<path d="M 519.615,47.3205 l 0,-30 "/>
<path d="M 519.615,47.3205 l -25.9808,15 "/>
<path d="M 545.596,62.3205 l -25.9808,-45 -25.9808,45 51.9615,2.84217e-14 "/>
<path d="M 545.596,30 l 25.9808,15 "/>
<path d="M 545.596,30 l 0,-30 "/>
<path d="M 545.596,30 l -25.9808,15 "/>
<path d="M 571.577,45 l -25.9808,-45 -25.9808,45 51.9615,2.13163e-14 "/>
<path d="M 25.9808,92.3205 l 25.9808,15 "/>
<path d="M 25.9808,92.3205 l 3.55271e-15,-30 "/>
<path d="M 25.9808,92.3205 l -25.9808,15 "/>
<path d="M 51.9615,107.321 l -25.9808,-45 -25.9808,45 51.9615,1.42109e-14 "/>
<path d="M 51.9615,75 l 25.9808,15 "/>
<path d="M 51.9615,75 l 7.10543e-15,-30 "/>
<path d="M 51.9615,75 l -25.9808,15 "/>
<path d="M 77.9423,90 l -25.9808,-45 -25.9808,45 51.9615,2.84217e-14 "/>
<path d="M 77.9423,92.3205 l 25.9808,15 "/>
<path d="M 77.9423,92.3205 l 0,-30 "/>
<path d="M 77.9423,92.3205 l -25.9808,15 "/>
<path d="M 103.923,107.321 l -25.9808,-45 -25.9808,45 51.9615,1.42109e-14 "/>
<path d="M 103.923,75 l 25.9808,15 "/>
<path d="M 103.923,75 l 0,-30 "/>
<path d="M 103.923,75 l -25.9808,15 "/>
<path d="M 129.904,90 l -25.9808,-45 -25.9808,45 51.9615,2.84217e-14 "/>
<path d="M 129.904,92.3205 l 25.9808,15 "/>
<path d="M 129.904,92.3205 l 0,-30 "/>
<path d="M 129.904,92.3205 l -25.9808,15 "/>
<path d="M 155.885,107.321 l -25.9808,-45 -25.9808,45 51.9615,1.42109e-14 "/>
<path d="M 155.885,75 l 25.9808,15 "/>
<path d="M 155.885,75 l 0,-30 "/>
<path d="M 155.885,75 l -25.9808,15 "/>
<path d="M 181.865,90 l -25.9808,-45 -25.9808,45 51.9615,2.84217e-14 "/>
<path d="M 181.865,92.3205 l 25.9808,15 "/>
<path d="M 181.865,92.3205 l 0,-30 "/>
<path d="M 181.865,92.3205 l -25.9808,15 "/>
<path d="M 207.846,107.321 l -25.9808,-45 -25.9808,45 51.9615,1.42109e-14 "/>
<path d="M 207.846,75 l 25.9808,15 "/>
<path d="M 207.846,75 l 0,-30 "/>
<path d="M 207.846,75 l -25.9808,15 "/>
<path d="M 233.827,90 l -25.9808,-45 -25.9808,45 51.9615,2.84217e-14 "/>
<path d="M 233.827,92.3205 l 25.9808,15 "/>
<path d="M 233.827,92.3205 l 0,-30 "/>
<path d="M 233.827,92.3205 l -25.9808,15 "/>
<path d="M 259.808,107.321 l -25.9808,-45 -25.9808,45 51.9615,1.42109e-14 "/>
<path d="M 259.808,75 l 25.9808,15 "/>
<path d="M 259.808,75 l 0,-30 "/>
<path d="M 259.808,75 l -25.9808,15 "/>
<path d="M 285.788,90 l -25.9808,-45 -25.9808,45 51.9615,2.84217e-14 "/>
<path d="M 285.788,92.3205 l 25.9808,15 "/>
<path d="M 285.788,92.3205 l 0,-30 "/>
<path d="M 285.788,92.3205 l -25.9808,15 "/>
<path d="M 311.769,107.321 l -25.9808,-45 -25.9808,45 51.9615,1.42109e-14 "/>
<path d="M 311.769,75 l 25.9808,15 "/>
<path d="M 311.769,75 l 0,-30 "/>
<path d="M 311.769,75 l -25.9808,15 "/>
<path d="M 337.75,90 l -25.9808,-45 -25.9808,45 51.9615,2.84217e-14 "/>
<path d="M 337.75,92.3205 l 25.9808,15 "/>
<path d="M 337.75,92.3205 l 0,-30 "/>
<path d="M 337.75,92.3205 l -25.9808,15 "/>
<path d="M 363.731,107.321 l -25.9808,-45 -25.9808,45 51.9615,1.42109e-14 "/>
<path d="M 363.731,75 l 25.9808,15 "/>
<path d="M 363.731,75 l 0,-30 "/>
<path d="M 363.731,75 l -25.9808,15 "/>
<path d="M 389.711,90 l -25.9808,-45 -25.9808,45 51.9615,2.84217e-14 "/>
<path d="M 389.711,92.3205 l 25.9808,15 "/>
<path d="M 389.711,92.3205 l 0,-30 "/>
<path d="M 389.711,92.3205 l -25.9808,15 "/>
<path d="M 415.692,107.321 l -25.9808,-45 -25.9808,45 51.9615,1.42109e-14 "/>
<path d="M 415.692,75 l 25.9808,15 "/>
<path d="M 415.692,75 l 0,-30 "/>
<path d="M 415.692,75 l -25.9808,15 "/>
<path d="M 441.673,90 l -25.9808,-45 -25.9808,45 51.9615,2.84217e-14 "/>
<path d="M 441.673,92.3205 l 25.9808,15 "/>
<path d="M 441.673,92.3205 l 0,-30 "/>
<path d="M 441.673,92.3205 l -25.9808,15 "/>
<path d="M 467.654,107.321 l -25.9808,-45 -25.9808,45 51.9615,1.42109e-14 "/>
<path d="M 467.654,75 l 25.9808,15 "/>
<path d="M 467.654,75 l 0,-30 "/>
<path d="M 467.654,75 l -25.9808,15 "/>
<path d="M 493.634,90 l -25.9808,-45 -25.9808,45 51.9615,2.84217e-14 "/>
<path d="M 493.634,92.3205 l 25.9808,15 "/>
<path d="M 493.634,92.3205 l 0,-30 "/>
<path d="M 493.634,92.3205 l -25.9808,15 "/>
<path d="M 519.615,107.321 l -25.9808,-45 -25.9808,45 51.9615,1.42109e-14 "/>
<path d="M 519.615,75 l 25.9808,15 "/>
<path d="M 519.615,75 l 0,-30 "/>
<path d="M 519.615,75 l -25.9808,15 "/>
<path d="M 545.596,90 l -25.9808,-45 -25.9808,45 51.9615,2.84217e-14 "/>
<path d="M 51.9615,137.321 l 25.9808,15 "/>
<path d="M 51.9615,137.321 l 7.10543e-15,-30 "/>
<path d="M 51.9615,137.321 l -25.9808,15 "/>
<path d="M 77.9423,152.321 l -25.9808,-45 -25.9808,45 51.9615,0 "/>
<path d="M 77.9423,120 l 25.9808,15 "/>
<path d="M 77.9423,120 l 0,-30 "/>
<path d="M 77.9423,120 l -25.9808,15 "/>
<path d="M 103.923,135 l -25.9808,-45 -25.9808,45 51.9615,0 "/>
<path d="M 103.923,137.321 l 25.9808,15 "/>
<path d="M 103.923,137.321 l 0,-30 "/>
<path d="M 103.923,137.321 l -25.9808,15 "/>
<path d="M 129.904,152.321 l -25.9808,-45 -25.9808,45 51.9615,0 "/>
<path d="M 129.904,120 l 25.9808,15 "/>
<path d="M 129.904,120 l 0,-30 "/>
<path d="M 129.904,120 l -25.9808,15 "/>
<path d="M 155.885,135 l -25.9808,-45 -25.9808,45 51.9615,0 "/>
<path d="M 155.885,137.321 l 25.9808,15 "/>
<path d="M 155.885,137.321 l 0,-30 "/>
<path d="M 155.885,137.321 l -25.9808,15 "/>
<path d="M 181.865,152.321 l -25.9808,-45 -25.9808,45 51.9615,0 "/>
<path d="M 181.865,120 l 25.9808,15 "/>
<path d="M 181.865,120 l 0,-30 "/>
<path d="M 181.865,120 l -25.9808,15 "/>
<path d="M 207.846,135 l -25.9808,-45 -25.9808,45 51.9615,0 "/>
<path d="M 207.846,137.321 l 25.9808,15 "/>
<path d="M 207.846,137.321 l 0,-30 "/>
<path d="M 207.846,137.321 l -25.9808,15 "/>
<path d="M 233.827,152.321 l -25.9808,-45 -25.9808,45 51.9615,0 "/>
<path d="M 233.827,120 l 25.9808,15 "/>
<path d="M 233.827,120 l 0,-30 "/>
<path d="M 233.827,120 l -25.9808,15 "/>
<path d="M 259.808,135 l -25.9808,-45 -25.9808,45 51.9615,0 "/>
<path d="M 259.808,137.321 l 25.9808,15 "/>
<path d="M 259.808,137.321 l 0,-30 "/>
<path d="M 259.808,137.321 l -25.9808,15 "/>
<path d="M 285.788,152.321 l -25.9808,-45 -25.9808,45 51.9615,0 "/>
<path d="M 285.788,120 l 25.9808,15 "/>
<path d="M 285.788,120 l 0,-30 "/>
<path d="M 285.788,120 l -25.9808,15 "/>
<path d="M 311.769,135 l -25.9808,-45 -25.9808,45 51.9615,0 "/>
<path d="M 311.769,137.321 l 25.9808,15 "/>
<path d="M 311.769,137.321 l 0,-30 "/>
<path d="M 311.769,137.321 l -25.9808,15 "/>
<path d="M 337.75,152.321 l -25.9808,-45 -25.9808,45 51.9615,0 "/>
<path d="M 337.75,120 l 25.9808,15 "/>
<path d="M 337.75,120 l 0,-30 "/>
<path d="M 337.75,120 l -25.9808,15 "/>
<path d="M 363.731,135 l -25.9808,-45 -25.9808,45 51.9615,0 "/>
<path d="M 363.731,137.321 l 25.9808,15 "/>
<path d="M 363.731,137.321 l 0,-30 "/>
<path d="M 363.731,137.321 l -25.9808,15 "/>
<path d="M 389.711,152.321 l -25.9808,-45 -25.9808,45 51.9615,0 "/>
<path d="M 389.711,120 l 25.9808,15 "/>
<path d="M 389.711,120 l 0,-30 "/>
<path d="M 389.711,120 l -25.9808,15 "/>
<path d="M 415.692,135 l -25.9808,-45 -25.9808,45 51.9615,0 "/>
<path d="M 415.692,137.321 l 25.9808,15 "/>
<path d="M 415.692,137.321 l 0,-30 "/>
<path d="M 415.692,137.321 l -25.9808,15 "/>
<path d="M 441.673,152.321 l -25.9808,-45 -25.9808,45 51.9615,0 "/>
<path d="M 441.673,120 l 25.9808,15 "/>
<path d="M 441.673,120 l 0,-30 "/>
<path d="M 441.673,120 l -25.9808,15 "/>
<path d="M 467.654,135 l -25.9808,-45 -25.9808,45 51.9615,0 "/>
<path d="M 467.654,137.321 l 25.9808,15 "/>
<path d="M 467.654,137.321 l 0,-30 "/>
<path d="M 467.654,137.321 l -25.9808,15 "/>
<path d="M 493.634,152.321 l -25.9808,-45 -25.9808,45 51.9615,0 "/>
<path d="M 493.634,120 l 25.9808,15 "/>
<path d="M 493.634,120 l 0,-30 "/>
<path d="M 493.634,120 l -25.9808,15 "/>
<path d="M 519.615,135 l -25.9808,-45 -25.9808,45 51.9615,0 "/>
<path d="M 519.615,137.321 l 25.9808,15 "/>
<path d="M 519.615,137.321 l 0,-30 "/>
<path d="M 519.615,137.321 l -25.9808,15 "/>
<path d="M 545.596,152.321 l -25.9808,-45 -25.9808,45 51.9615,0 "/>
<path d="M 545.596,120 l 25.9808,15 "/>
<path d="M 545.596,120 l 0,-30 "/>
<path d="M 545.596,120 l -25.9808,15 "/>
<path d="M 571.577,135 l -25.9808,-45 -25.9808,45 51.9615,0 "/>
<path d="M 25.9808,182.321 l 25.9808,15 "/>
<path d="M 25.9808,182.321 l 3.55271e-15,-30 "/>
<path d="M 25.9808,182.321 l -25.9808,15 "/>
<path d="M 51.9615,197.321 l -25.9808,-45 -25.9808,45 51.9615,2.84217e-14 "/>
<path d="M 51.9615,165 l 25.9808,15 "/>
<path d="M 51.9615,165 l 7.10543e-15,-30 "/>
<path d="M 51.9615,165 l -25.9808,15 "/>
<path d="M 77.9423,180 l -25.9808,-45 -25.9808,45 51.9615,2.84217e-14 "/>
<path d="M 77.9423,182.321 l 25.9808,15 "/>
<path d="M 77.9423,182.321 l 0,-30 "/>
<path d="M 77.9423,182.321 l -25.9808,15 "/>
<path d="M 103.923,197.321 l -25.9808,-45 -25.9808,45 51.9615,2.84217e-14 "/>
<path d="M 103.923,165 l 25.9808,15 "/>
<path d="M 103.923,165 l 0,-30 "/>
<path d="M 103.923,165 l -25.9808,15 "/>
<path d="M 129.904,180 l -25.9808,-45 -25.9808,45 51.9615,2.84217e-14 "/>
<path d="M 129.904,182.321 l 25.9808,15 "/>
<path d="M 129.904,182.321 l 0,-30 "/>
<path d="M 129.904,182.321 l -25.9808,15 "/>
<path d="M 155.885,197.321 l -25.9808,-45 -25.9808,45 51.9615,2.84217e-14 "/>
<path d="M 155.885,165 l 25.9808,15 "/>
<path d="M 155.885,165 l 0,-30 "/>
<path d="M 155.885,165 l -25.9808,15 "/>
<path d="M 181.865,180 l -25.9808,-45 -25.9808,45 51.9615,2.84217e-14 "/>
<path d="M 181.865,182.321 l 25.9808,15 "/>
<path d="M 181.865,182.321 l 0,-30 "/>
<path d="M 181.865,182.321 l -25.9808,15 "/>
<path d="M 207.846,197.321 l -25.9808,-45 -25.9808,45 51.9615,2.84217e-14 "/>
<path d="M 207.846,165 l 25.9808,15 "/>
<path d="M 207.846,165 l 0,-30 "/>
<path d="M 207.846,165 l -25.9808,15 "/>
<path d="M 233.827,180 l -25.9808,-45 -25.9808,45 51.9615,2.84217e-14 "/>
<path d="M 233.827,182.321 l 25.9808,15 "/>
<path d="M 233.827,182.321 l 0,-30 "/>
<path d="M 233.827,182.321 l -25.9808,15 "/>
<path d="M 259.808,197.321 l -25.9808,-45 -25.9808,45 51.9615,2.84217e-14 "/>
<path d="M 259.808,165 l 25.9808,15 "/>
<path d="M 259.808,165 l 0,-30 "/>
<path d="M 259.808,165 l -25.9808,15 "/>
<path d="M 285.788,180 l -25.9808,-45 -25.9808,45 51.9615,2.84217e-14 "/>
<path d="M 285.788,182.321 l 25.9808,15 "/>
<path d="M 285.788,182.321 l 0,-30 "/>
<path d="M 285.788,182.321 l -25.9808,15 "/>
<path d="M 311.769,197.321 l -25.9808,-45 -25.9808,45 51.9615,2.84217e-14 "/>
<path d="M 311.769,165 l 25.9808,15 "/>
<path d="M 311.769,165 l 0,-30 "/>
<path d="M 311.769,165 l -25.9808,15 "/>
<path d="M 337.75,180 l -25.9808,-45 -25.9808,45 51.9615,2.84217e-14 "/>
<path d="M 337.75,182.321 l 25.9808,15 "/>
<path d="M 337.75,182.321 l 0,-30 "/>
<path d="M 337.75,182.321 l -25.9808,15 "/>
<path d="M 363.731,197.321 l -25.9808,-45 -25.9808,45 51.9615,2.84217e-14 "/>
<path d="M 363.731,165 l 25.9808,15 "/>
<path d="M 363.731,165 l 0,-30 "/>
<path d="M 363.731,165 l -25.9808,15 "/>
<path d="M 389.711,180 l -25.9808,-45 -25.9808,45 51.9615,2.84217e-14 "/>
<path d="M 389.711,182.321 l 25.9808,15 "/>
<path d="M 389.711,182.321 l 0,-30 "/>
<path d="M 389.711,182.321 l -25.9808,15 "/>
<path d="M 415.692,197.321 l -25.9808,-45 -25.9808,45 51.9615,2.84217e-14 "/>
<path d="M 415.692,165 l 25.9808,15 "/>
<path d="M 415.692,165 l 0,-30 "/>
<path d="M 415.692,165 l -25.9808,15 "/>
<path d="M 441.673,180 l -25.9808,-45 -25.9808,45 51.9615,2.84217e-14 "/>
<path d="M 441.673,182.321 l 25.9808,15 "/>
<path d="M 441.673,182.321 l 0,-30 "/>
<path d="M 441.673,182.321 l -25.9808,15 "/>
<path d="M 467.654,197.321 l -25.9808,-45 -25.9808,45 51.9615,2.84217e-14 "/>
<path d="M 467.654,165 l 25.9808,15 "/>
<path d="M 467.654,165 l 0,-30 "/>
<path d="M 467.654,165 l -25.9808,15 "/>
<path d="M 493.634,180 l -25.9808,-45 -25.9808,45 51.9615,2.84217e-14 "/>
<path d="M 493.634,182.321 l 25.9808,15 "/>
<path d="M 493.634,182.321 l 0,-30 "/>
<path d="M 493.634,182.321 l -25.9808,15 "/>
<path d="M 519.615,197.321 l -25.9808,-45 -25.9808,45 51.9615,2.84217e-14 "/>
<path d="M 519.615,165 l 25.9808,15 "/>
<path d="M 519.615,165 l 0,-30 "/>
<path d="M 519.615,165 l -25.9808,15 "/>
<path d="M 545.596,180 l -25.9808,-45 -25.9808,45 51.9615,2.84217e-14 "/>
<path d="M 51.9615,227.321 l 25.9808,15 "/>
<path d="M 51.9615,227.321 l 7.10543e-15,-30 "/>
<path d="M 51.9615,227.321 l -25.9808,15 "/>
<path d="M 77.9423,242.321 l -25.9808,-45 -25.9808,45 51.9615,2.84217e-14 "/>
<path d="M 77.9423,210 l 25.9808,15 "/>
<path d="M 77.9423,210 l 0,-30 "/>
<path d="M 77.9423,210 l -25.9808,15 "/>
<path d="M 103.923,225 l -25.9808,-45 -25.9808,45 51.9615,2.84217e-14 "/>
<path d="M 103.923,227.321 l 25.9808,15 "/>
<path d="M 103.923,227.321 l 0,-30 "/>
<path d="M 103.923,227.321 l -25.9808,15 "/>
<path d="M 129.904,242.321 l -25.9808,-45 -25.9808,45 51.9615,2.84217e-14 "/>
<path d="M 129.904,210 l 25.9808,15 "/>
<path d="M 129.904,210 l 0,-30 "/>
<path d="M 129.904,210 l -25.9808,15 "/>
<path d="M 155.885,225 l -25.9808,-45 -25.9808,45 51.9615,2.84217e-14 "/>
<path d="M 155.885,227.321 l 25.9808,15 "/>
<path d="M 155.885,227.321 l 0,-30 "/>
<path d="M 155.885,227.321 l -25.9808,15 "/>
<path d="M 181.865,242.321 l -25.9808,-45 -25.9808,45 51.9615,2.84217e-14 "/>
<path d="M 181.865,210 l 25.9808,15 "/>
<path d="M 181.865,210 l 0,-30 "/>
<path d="M 181.865,210 l -25.9808,15 "/>
<path d="M 207.846,225 l -25.9808,-45 -25.9808,45 51.9615,2.84217e-14 "/>
<path d="M 207.846,227.321 l 25.9808,15 "/>
<path d="M 207.846,227.321 l 0,-30 "/>
<path d="M 207.846,227.321 l -25.9808,15 "/>
<path d="M 233.827,242.321 l -25.9808,-45 -25.9808,45 51.9615,2.84217e-14 "/>
<path d="M 233.827,210 l 25.9808,15 "/>
<path d="M 233.827,210 l 0,-30 "/>
<path d="M 233.827,210 l -25.9808,15 "/>
<path d="M 259.808,225 l -25.9808,-45 -25.9808,45 51.9615,2.84217e-14 "/>
<path d="M 259.808,227.321 l 25.9808,15 "/>
<path d="M 259.808,227.321 l 0,-30 "/>
<path d="M 259.808,227.321 l -25.9808,15 "/>
<path d="M 285.788,242.321 l -25.9808,-45 -25.9808,45 51.9615,2.84217e-14 "/>
<path d="M 285.788,210 l 25.9808,15 "/>
<path d="M 285.788,210 l 0,-30 "/>
<path d="M 285.788,210 l -25.9808,15 "/>
<path d="M 311.769,225 l -25.9808,-45 -25.9808,45 51.9615,2.84217e-14 "/>
<path d="M 311.769,227.321 l 25.9808,15 "/>
<path d="M 311.769,227.321 l 0,-30 "/>
<path d="M 311.769,227.321 l -25.9808,15 "/>
<path d="M 337.75,242.321 l -25.9808,-45 -25.9808,45 51.9615,2.84217e-14 "/>
<path d="M 337.75,210 l 25.9808,15 "/>
<path d="M 337.75,210 l 0,-30 "/>
<path d="M 337.75,210 l -25.9808,15 "/>
<path d="M 363.731,225 l -25.9808,-45 -25.9808,45 51.9615,2.84217e-14 "/>
<path d="M 363.731,227.321 l 25.9808,15 "/>
<path d="M 363.731,227.321 l 0,-30 "/>
<path d="M 363.731,227.321 l -25.9808,15 "/>
<path d="M 389.711,242.321 l -25.9808,-45 -25.9808,45 51.9615,2.84217e-14 "/>
<path d="M 389.711,210 l 25.9808,15 "/>
<path d="M 389.711,210 l 0,-30 "/>
<path d="M 389.711,210 l -25.9808,15 "/>
<path d="M 415.692,225 l -25.9808,-45 -25.9808,45 51.9615,2.84217e-14 "/>
<path d="M 415.692,227.321 l 25.9808,15 "/>
<path d="M 415.692,227.321 l 0,-30 "/>
<path d="M 415.692,227.321 l -25.9808,15 "/>
<path d="M 441.673,242.321 l -25.9808,-45 -25.9808,45 51.9615,2.84217e-14 "/>
<path d="M 441.673,210 l 25.9808,15 "/>
<path d="M 441.673,210 l 0,-30 "/>
<path d="M 441.673,210 l -25.9808,15 "/>
<path d="M 467.654,225 l -25.9808,-45 -25.9808,45 51.9615,2.84217e-14 "/>
<path d="M 467.654,227.321 l 25.9808,15 "/>
<path d="M 467.654,227.321 l 0,-30 "/>
<path d="M 467.654,227.321 l -25.9808,15 "/>
<path d="M 493.634,242.321 l -25.9808,-45 -25.9808,45 51.9615,2.84217e-14 "/>
<path d="M 493.634,210 l 25.9808,15 "/>
<path d="M 493.634,210 l 0,-30 "/>
<path d="M 493.634,210 l -25.9808,15 "/>
<path d="M 519.615,225 l -25.9808,-45 -25.9808,45 51.9615,2.84217e-14 "/>
<path d="M 519.615,227.321 l 25.9808,15 "/>
<path d="M 519.615,227.321 l 0,-30 "/>
<path d="M 519.615,227.321 l -25.9808,15 "/>
<path d="M 545.596,242.321 l -25.9808,-45 -25.9808,45 51.9615,2.84217e-14 "/>
<path d="M 545.596,210 l 25.9808,15 "/>
<path d="M 545.596,210 l 0,-30 "/>
<path d="M 545.596,210 l -25.9808,15 "/>
<path d="M 571.577,225 l -25.9808,-45 -25.9808,45 51.9615,2.84217e-14 "/>
<path d="M 25.9808,272.321 l 25.9808,15 "/>
<path d="M 25.9808,272.321 l 3.55271e-15,-30 "/>
<path d="M 25.9808,272.321 l -25.9808,15 "/>
<path d="M 51.9615,287.321 l -25.9808,-45 -25.9808,45 51.9615,5.68434e-14 "/>
<path d="M 51.9615,255 l 25.9808,15 "/>
<path d="M 51.9615,255 l 7.10543e-15,-30 "/>
<path d="M 51.9615,255 l -25.9808,15 "/>
<path d="M 77.9423,270 l -25.9808,-45 -25.9808,45 51.9615,0 "/>
<path d="M 77.9423,272.321 l 25.9808,15 "/>
<path d="M 77.9423,272.321 l 0,-30 "/>
<path d="M 77.9423,272.321 l -25.9808,15 "/>
<path d="M 103.923,287.321 l -25.9808,-45 -25.9808,45 51.9615,5.68434e-14 "/>
<path d="M 103.923,255 l 25.9808,15 "/>
<path d="M 103.923,255 l 0,-30 "/>
<path d="M 103.923,255 l -25.9808,15 "/>
<path d="M 129.904,270 l -25.9808,-45 -25.9808,45 51.9615,0 "/>
<path d="M 129.904,272.321 l 25.9808,15 "/>
<path d="M 129.904,272.321 l 0,-30 "/>
<path d="M 129.904,272.321 l -25.9808,15 "/>
<path d="M 155.885,287.321 l -25.9808,-45 -25.9808,45 51.9615,5.68434e-14 "/>
<path d="M 155.885,255 l 25.9808,15 "/>
<path d="M 155.885,255 l 0,-30 "/>
<path d="M 155.885,255 l -25.9808,15 "/>
<path d="M 181.865,270 l -25.9808,-45 -25.9808,45 51.9615,0 "/>
<path d="M 181.865,272.321 l 25.9808,15 "/>
<path d="M 181.865,272.321 l 0,-30 "/>
<path d="M 181.865,272.321 l -25.9808,15 "/>
<path d="M 207.846,287.321 l -25.9808,-45 -25.9808,45 51.9615,5.68434e-14 "/>
<path d="M 207.846,255 l 25.9808,15 "/>
<path d="M 207.846,255 l 0,-30 "/>
<path d="M 207.846,255 l -25.9808,15 "/>
<path d="M 233.827,270 l -25.9808,-45 -25.9808,45 51.9615,0 "/>
<path d="M 233.827,272.321 l 25.9808,15 "/>
<path d="M 233.827,272.321 l 0,-30 "/>
<path d="M 233.827,272.321 l -25.9808,15 "/>
<path d="M 259.808,287.321 l -25.9808,-45 -25.9808,45 51.9615,5.68434e-14 "/>
<path d="M 259.808,255 l 25.9808,15 "/>
<path d="M 259.808,255 l 0,-30 "/>
<path d="M 259.808,255 l -25.9808,15 "/>
<path d="M 285.788,270 l -25.9808,-45 -25.9808,45 51.9615,0 "/>
<path d="M 285.788,272.321 l 25.9808,15 "/>
<path d="M 285.788,272.321 l 0,-30 "/>
<path d="M 285.788,272.321 l -25.9808,15 "/>
<path d="M 311.769,287.321 l -25.9808,-45 -25.9808,45 51.9615,5.68434e-14 "/>
<path d="M 311.769,255 l 25.9808,15 "/>
<path d="M 311.769,255 l 0,-30 "/>
<path d="M 311.769,255 l -25.9808,15 "/>
<path d="M 337.75,270 l -25.9808,-45 -25.9808,45 51.9615,0 "/>
<path d="M 337.75,272.321 l 25.9808,15 "/>
<path d="M 337.75,272.321 l 0,-30 "/>
<path d="M 337.75,272.321 l -25.9808,15 "/>
<path d="M 363.731,287.321 l -25.9808,-45 -25.9808,45 51.9615,5.68434e-14 "/>
<path d="M 363.731,255 l 25.9808,15 "/>
<path d="M 363.731,255 l 0,-30 "/>
<path d="M 363.731,255 l -25.9808,15 "/>
<path d="M 389.711,270 l -25.9808,-45 -25.9808,45 51.9615,0 "/>
<path d="M 389.711,272.321 l 25.9808,15 "/>
<path d="M 389.711,272.321 l 0,-30 "/>
<path d="M 389.711,272.321 l -25.9808,15 "/>
<path d="M 415.692,287.321 l -25.9808,-45 -25.9808,45 51.9615,5.68434e-14 "/>
<path d="M 415.692,255 l 25.9808,15 "/>
<path d="M 415.692,255 l 0,-30 "/>
<path d="M 415.692,255 l -25.9808,15 "/>
<path d="M 441.673,270 l -25.9808,-45 -25.9808,45 51.9615,0 "/>
<path d="M 441.673,272.321 l 25.9808,15 "/>
<path d="M 441.673,272.321 l 0,-30 "/>
<path d="M 441.673,272.321 l -25.9808,15 "/>
<path d="M 467.654,287.321 l -25.9808,-45 -25.9808,45 51.9615,5.68434e-14 "/>
<path d="M 467.654,255 l 25.9808,15 "/>
<path d="M 467.654,255 l 0,-30 "/>
<path d="M 467.654,255 l -25.9808,15 "/>
<path d="M 493.634,270 l -25.9808,-45 -25.9808,45 51.9615,0 "/>
<path d="M 493.634,272.321 l 25.9808,15 "/>
<path d="M 493.634,272.321 l 0,-30 "/>
<path d="M 493.634,272.321 l -25.9808,15 "/>
<path d="M 519.615,287.321 l -25.9808,-45 -25.9808,45 51.9615,5.68434e-14 "/>
<path d="M 519.615,255 l 25.9808,15 "/>
<path d="M 519.615,255 l 0,-30 "/>
<path d="M 519.615,255 l -25.9808,15 "/>
<path d="M 545.596,270 l -25.9808,-45 -25.9808,45 51.9615,0 "/>
<path d="M 51.9615,317.321 l 25.9808,15 "/>
<path d="M 51.9615,317.321 l 7.10543e-15,-30 "/>
<path d="M 51.9615,317.321 l -25.9808,15 "/>
<path d="M 77.9423,332.321 l -25.9808,-45 -25.9808,45 51.9615,0 "/>
<path d="M 77.9423,300 l 25.9808,15 "/>
<path d="M 77.9423,300 l 0,-30 "/>
<path d="M 77.9423,300 l -25.9808,15 "/>
<path d="M 103.923,315 l -25.9808,-45 -25.9808,45 51.9615,5.68434e-14 "/>
<path d="M 103.923,317.321 l 25.9808,15 "/>
<path d="M 103.923,317.321 l 0,-30 "/>
<path d="M 103.923,317.321 l -25.9808,15 "/>
<path d="M 129.904,332.321 l -25.9808,-45 -25.9808,45 51.9615,0 "/>
<path d="M 129.904,300 l 25.9808,15 "/>
<path d="M 129.904,300 l 0,-30 "/>
<path d="M 129.904,300 l -25.9808,15 "/>
<path d="M 155.885,315 l -25.9808,-45 -25.9808,45 51.9615,5.68434e-14 "/>
<path d="M 155.885,317.321 l 25.9808,15 "/>
<path d="M 155.885,317.321 l 0,-30 "/>
<path d="M 155.885,317.321 l -25.9808,15 "/>
<path d="M 181.865,332.321 l -25.9808,-45 -25.9808,45 51.9615,0 "/>
<path d="M 181.865,300 l 25.9808,15 "/>
<path d="M 181.865,300 l 0,-30 "/>
<path d="M 181.865,300 l -25.9808,15 "/>
<path d="M 207.846,315 l -25.9808,-45 -25.9808,45 51.9615,5.68434e-14 "/>
<path d="M 207.846,317.321 l 25.9808,15 "/>
<path d="M 207.846,317.321 l 0,-30 "/>
<path d="M 207.846,317.321 l -25.9808,15 "/>
<path d="M 233.827,332.321 l -25.9808,-45 -25.9808,45 51.9615,0 "/>
<path d="M 233.827,300 l 25.9808,15 "/>
<path d="M 233.827,300 l 0,-30 "/>
<path d="M 233.827,300 l -25.9808,15 "/>
<path d="M 259.808,315 l -25.9808,-45 -25.9808,45 51.9615,5.68434e-14 "/>
<path d="M 259.808,317.321 l 25.9808,15 "/>
<path d="M 259.808,317.321 l 0,-30 "/>
<path d="M 259.808,317.321 l -25.9808,15 "/>
<path d="M 285.788,332.321 l -25.9808,-45 -25.9808,45 51.9615,0 "/>
<path d="M 285.788,300 l 25.9808,15 "/>
<path d="M 285.788,300 l 0,-30 "/>
<path d="M 285.788,300 l -25.9808,15 "/>
<path d="M 311.769,315 l -25.9808,-45 -25.9808,45 51.9615,5.68434e-14 "/>
<path d="M 311.769,317.321 l 25.9808,15 "/>
<path d="M 311.769,317.321 l 0,-30 "/>
<path d="M 311.769,317.321 l -25.9808,15 "/>
<path d="M 337.75,332.321 l -25.9808,-45 -25.9808,45 51.9615,0 "/>
<path d="M 337.75,300 l 25.9808,15 "/>
<path d="M 337.75,300 l 0,-30 "/>
<path d="M 337.75,300 l -25.9808,15 "/>
<path d="M 363.731,315 l -25.9808,-45 -25.9808,45 51.9615,5.68434e-14 "/>
<path d="M 363.731,317.321 l 25.9808,15 "/>
<path d="M 363.731,317.321 l 0,-30 "/>
<path d="M 363.731,317.321 l -25.9808,15 "/>
<path d="M 389.711,332.321 l -25.9808,-45 -25.9808,45 51.9615,0 "/>
<path d="M 389.711,300 l 25.9808,15 "/>
<path d="M 389.711,300 l 0,-30 "/>
<path d="M 389.711,300 l -25.9808,15 "/>
<path d="M 415.692,315 l -25.9808,-45 -25.9808,45 51.9615,5.68434e-14 "/>
<path d="M 415.692,317.321 l 25.9808,15 "/>
<path d="M 415.692,317.321 l 0,-30 "/>
<path d="M 415.692,317.321 l -25.9808,15 "/>
<path d="M 441.673,332.321 l -25.9808,-45 -25.9808,45 51.9615,0 "/>
<path d="M 441.673,300 l 25.9808,15 "/>
<path d="M 441.673,300 l 0,-30 "/>
<path d="M 441.673,300 l -25.9808,15 "/>
<path d="M 467.654,315 l -25.9808,-45 -25.9808,45 51.9615,5.68434e-14 "/>
<path d="M 467.654,317.321 l 25.9808,15 "/>
<path d="M 467.654,317.321 l 0,-30 "/>
<path d="M 467.654,317.321 l -25.9808,15 "/>
<path d="M 493.634,332.321 l -25.9808,-45 -25.9808,45 51.9615,0 "/>
<path d="M 493.634,300 l 25.9808,15 "/>
<path d="M 493.634,300 l 0,-30 "/>
<path d="M 493.634,300 l -25.9808,15 "/>
<path d="M 519.615,315 l -25.9808,-45 -25.9808,45 51.9615,5.68434e-14 "/>
<path d="M 519.615,317.321 l 25.9808,15 "/>
<path d="M 519.615,317.321 l 0,-30 "/>
<path d="M 519.615,317.321 l -25.9808,15 "/>
<path d="M 545.596,332.321 l -25.9808,-45 -25.9808,45 51.9615,0 "/>
<path d="M 545.596,300 l 25.9808,15 "/>
<path d="M 545.596,300 l 0,-30 "/>
<path d="M 545.596,300 l -25.9808,15 "/>
<path d="M 571.577,315 l -25.9808,-45 -25.9808,45 51.9615,5.68434e-14 "/>
<path d="M 25.9808,362.321 l 25.9808,15 "/>
<path d="M 25.9808,362.321 l 3.55271e-15,-30 "/>
<path d="M 25.9808,362.321 l -25.9808,15 "/>
<path d="M 51.9615,377.321 l -25.9808,-45 -25.9808,45 51.9615,0 "/>
<path d="M 51.9615,345 l 25.9808,15 "/>
<path d="M 51.9615,345 l 7.10543e-15,-30 "/>
<path d="M 51.9615,345 l -25.9808,15 "/>
<path d="M 77.9423,360 l -25.9808,-45 -25.9808,45 51.9615,0 "/>
<path d="M 77.9423,362.321 l 25.9808,15 "/>
<path d="M 77.9423,362.321 l 0,-30 "/>
<path d="M 77.9423,362.321 l -25.9808,15 "/>
<path d="M 103.923,377.321 l -25.9808,-45 -25.9808,45 51.9615,0 "/>
<path d="M 103.923,345 l 25.9808,15 "/>
<path d="M 103.923,345 l 0,-30 "/>
<path d="M 103.923,345 l -25.9808,15 "/>
<path d="M 129.904,360 l -25.9808,-45 -25.9808,45 51.9615,0 "/>
<path d="M 129.904,362.321 l 25.9808,15 "/>
<path d="M 129.904,362.321 l 0,-30 "/>
<path d="M 129.904,362.321 l -25.9808,15 "/>
<path d="M 155.885,377.321 l -25.9808,-45 -25.9808,45 51.9615,0 "/>
<path d="M 155.885,345 l 25.9808,15 "/>
<path d="M 155.885,345 l 0,-30 "/>
<path d="M 155.885,345 l -25.9808,15 "/>
<path d="M 181.865,360 l -25.9808,-45 -25.9808,45 51.9615,0 "/>
<path d="M 181.865,362.321 l 25.9808,15 "/>
<path d="M 181.865,362.321 l 0,-30 "/>
<path d="M 181.865,362.321 l -25.9808,15 "/>
<path d="M 207.846,377.321 l -25.9808,-45 -25.9808,45 51.9615,0 "/>
<path d="M 207.846,345 l 25.9808,15 "/>
<path d="M 207.846,345 l 0,-30 "/>
<path d="M 207.846,345 l -25.9808,15 "/>
<path d="M 233.827,360 l -25.9808,-45 -25.9808,45 51.9615,0 "/>
<path d="M 233.827,362.321 l 25.9808,15 "/>
<path d="M 233.827,362.321 l 0,-30 "/>
<path d="M 233.827,362.321 l -25.9808,15 "/>
<path d="M 259.808,377.321 l -25.9808,-45 -25.9808,45 51.9615,0 "/>
<path d="M 259.808,345 l 25.9808,15 "/>
<path d="M 259.808,345 l 0,-30 "/>
<path d="M 259.808,345 l -25.9808,15 "/>
<path d="M 285.788,360 l -25.9808,-45 -25.9808,45 51.9615,0 "/>
<path d="M 285.788,362.321 l 25.9808,15 "/>
<path d="M 285.788,362.321 l 0,-30 "/>
<path d="M 285.788,362.321 l -25.9808,15 "/>
<path d="M 311.769,377.321 l -25.9808,-45 -25.9808,45 51.9615,0 "/>
<path d="M 311.769,345 l 25.9808,15 "/>
<path d="M 311.769,345 l 0,-30 "/>
<path d="M 311.769,345 l -25.9808,15 "/>
<path d="M 337.75,360 l -25.9808,-45 -25.9808,45 51.9615,0 "/>
<path d="M 337.75,362.321 l 25.9808,15 "/>
<path d="M 337.75,362.321 l 0,-30 "/>
<path d="M 337.75,362.321 l -25.9808,15 "/>
<path d="M 363.731,377.321 l -25.9808,-45 -25.9808,45 51.9615,0 "/>
<path d="M 363.731,345 l 25.9808,15 "/>
<path d="M 363.731,345 l 0,-30 "/>
<path d="M 363.731,345 l -25.9808,15 "/>
<path d="M 389.711,360 l -25.9808,-45 -25.9808,45 51.9615,0 "/>
<path d="M 389.711,362.321 l 25.9808,15 "/>
<path d="M 389.711,362.321 l 0,-30 "/>
<path d="M 389.711,362.321 l -25.9808,15 "/>
<path d="M 415.692,377.321 l -25.9808,-45 -25.9808,45 51.9615,0 "/>
<path d="M 415.692,345 l 25.9808,15 "/>
<path d="M 415.692,345 l 0,-30 "/>
<path d="M 415.692,345 l -25.9808,15 "/>
<path d="M 441.673,360 l -25.9808,-45 -25.9808,45 51.9615,0 "/>
<path d="M 441.673,362.321 l 25.9808,15 "/>
<path d="M 441.673,362.321 l 0,-30 "/>
<path d="M 441.673,362.321 l -25.9808,15 "/>
<path d="M 467.654,377.321 l -25.9808,-45 -25.9808,45 51.9615,0 "/>
<path d="M 467.654,345 l 25.9808,15 "/>
<path d="M 467.654,345 l 0,-30 "/>
<path d="M 467.654,345 l -25.9808,15 "/>
<path d="M 493.634,360 l -25.9808,-45 -25.9808,45 51.9615,0 "/>
<path d="M 493.634,362.321 l 25.9808,15 "/>
<path d="M 493.634,362.321 l 0,-30 "/>
<path d="M 493.634,362.321 l -25.9808,15 "/>
<path d="M 519.615,377.321 l -25.9808,-45 -25.9808,45 51.9615,0 "/>
<path d="M 519.615,345 l 25.9808,15 "/>
<path d="M 519.615,345 l 0,-30 "/>
<path d="M 519.615,345 l -25.9808,15 "/>
<path d="M 545.596,360 l -25.9808,-45 -25.9808,45 51.9615,0 "/>
<path d="M 51.9615,407.321 l 25.9808,15 "/>
<path d="M 51.9615,407.321 l 7.10543e-15,-30 "/>
<path d="M 51.9615,407.321 l -25.9808,15 "/>
<path d="M 77.9423,422.321 l -25.9808,-45 -25.9808,45 51.9615,0 "/>
<path d="M 77.9423,390 l 25.9808,15 "/>
<path d="M 77.9423,390 l 0,-30 "/>
<path d="M 77.9423,390 l -25.9808,15 "/>
<path d="M 103.923,405 l -25.9808,-45 -25.9808,45 51.9615,0 "/>
<path d="M 103.923,407.321 l 25.9808,15 "/>
<path d="M 103.923,407.321 l 0,-30 "/>
<path d="M 103.923,407.321 l -25.9808,15 "/>
<path d="M 129.904,422.321 l -25.9808,-45 -25.9808,45 51.9615,0 "/>
<path d="M 129.904,390 l 25.9808,15 "/>
<path d="M 129.904,390 l 0,-30 "/>
<path d="M 129.904,390 l -25.9808,15 "/>
<path d="M 155.885,405 l -25.9808,-45 -25.9808,45 51.9615,0 "/>
<path d="M 155.885,407.321 l 25.9808,15 "/>
<path d="M 155.885,407.321 l 0,-30 "/>
<path d="M 155.885,407.321 l -25.9808,15 "/>
<path d="M 181.865,422.321 l -25.9808,-45 -25.9808,45 51.9615,0 "/>
<path d="M 181.865,390 l 25.9808,15 "/>
<path d="M 181.865,390 l 0,-30 "/>
<path d="M 181.865,390 l -25.9808,15 "/>
<path d="M 207.846,405 l -25.9808,-45 -25.9808,45 51.9615,0 "/>
<path d="M 207.846,407.321 l 25.9808,15 "/>
<path d="M 207.846,407.321 l 0,-30 "/>
<path d="M 207.846,407.321 l -25.9808,15 "/>
<path d="M 233.827,422.321 l -25.9808,-45 -25.9808,45 51.9615,0 "/>
<path d="M 233.827,390 l 25.9808,15 "/>
<path d="M 233.827,390 l 0,-30 "/>
<path d="M 233.827,390 l -25.9808,15 "/>
<path d="M 259.808,405 l -25.9808,-45 -25.9808,45 51.9615,0 "/>
<path d="M 259.808,407.321 l 25.9808,15 "/>
<path d="M 259.808,407.321 l 0,-30 "/>
<path d="M 259.808,407.321 l -25.9808,15 "/>
<path d="M 285.788,422.321 l -25.9808,-45 -25.9808,45 51.9615,0 "/>
<path d="M 285.788,390 l 25.9808,15 "/>
<path d="M 285.788,390 l 0,-30 "/>
<path d="M 285.788,390 l -25.9808,15 "/>
<path d="M 311.769,405 l -25.9808,-45 -25.9808,45 51.9615,0 "/>
<path d="M 311.769,407.321 l 25.9808,15 "/>
<path d="M 311.769,407.321 l 0,-30 "/>
<path d="M 311.769,407.321 l -25.9808,15 "/>
<path d="M 337.75,422.321 l -25.9808,-45 -25.9808,45 51.9615,0 "/>
<path d="M 337.75,390 l 25.9808,15 "/>
<path d="M 337.75,390 l 0,-30 "/>
<path d="M 337.75,390 l -25.9808,15 "/>
<path d="M 363.731,405 l -25.9808,-45 -25.9808,45 51.9615,0 "/>
<path d="M 363.731,407.321 l 25.9808,15 "/>
<path d="M 363.731,407.321 l 0,-30 "/>
<path d="M 363.731,407.321 l -25.9808,15 "/>
<path d="M 389.711,422.321 l -25.9808,-45 -25.9808,45 51.9615,0 "/>
<path d="M 389.711,390 l 25.9808,15 "/>
<path d="M 389.711,390 l 0,-30 "/>
<path d="M 389.711,390 l -25.9808,15 "/>
<path d="M 415.692,405 l -25.9808,-45 -25.9808,45 51.9615,0 "/>
<path d="M 415.692,407.321 l 25.9808,15 "/>
<path d="M 415.692,407.321 l 0,-30 "/>
<path d="M 415.692,407.321 l -25.9808,15 "/>
<path d="M 441.673,422.321 l -25.9808,-45 -25.9808,45 51.9615,0 "/>
<path d="M 441.673,390 l 25.9808,15 "/>
<path d="M 441.673,390 l 0,-30 "/>
<path d="M 441.673,390 l -25.9808,15 "/>
<path d="M 467.654,405 l -25.9808,-45 -25.9808,45 51.9615,0 "/>
<path d="M 467.654,407.321 l 25.9808,15 "/>
<path d="M 467.654,407.321 l 0,-30 "/>
<path d="M 467.654,407.321 l -25.9808,15 "/>
<path d="M 493.634,422.321 l -25.9808,-45 -25.9808,45 51.9615,0 "/>
<path d="M 493.634,390 l 25.9808,15 "/>
<path d="M 493.634,390 l 0,-30 "/>
<path d="M 493.634,390 l -25.9808,15 "/>
<path d="M 519.615,405 l -25.9808,-45 -25.9808,45 51.9615,0 "/>
<path d="M 519.615,407.321 l 25.9808,15 "/>
<path d="M 519.615,407.321 l 0,-30 "/>
<path d="M 519.615,407.321 l -25.9808,15 "/>
<path d="M 545.596,422.321 l -25.9808,-45 -25.9808,45 51.9615,0 "/>
<path d="M 545.596,390 l 25.9808,15 "/>
<path d="M 545.596,390 l 0,-30 "/>
<path d="M 545.596,390 l -25.9808,15 "/>
<path d="M 571.577,405 l -25.9808,-45 -25.9808,45 51.9615,0 "/>
<path d="M 25.9808,452.321 l 25.9808,15 "/>
<path d="M 25.9808,452.321 l 3.55271e-15,-30 "/>
<path d="M 25.9808,452.321 l -25.9808,15 "/>
<path d="M 51.9615,467.321 l -25.9808,-45 -25.9808,45 51.9615,0 "/>
<path d="M 51.9615,435 l 25.9808,15 "/>
<path d="M 51.9615,435 l 7.10543e-15,-30 "/>
<path d="M 51.9615,435 l -25.9808,15 "/>
<path d="M 77.9423,450 l -25.9808,-45 -25.9808,45 51.9615,0 "/>
<path d="M 77.9423,452.321 l 25.9808,15 "/>
<path d="M 77.9423,452.321 l 0,-30 "/>
<path d="M 77.9423,452.321 l -25.9808,15 "/>
<path d="M 103.923,467.321 l -25.9808,-45 -25.9808,45 51.9615,0 "/>
<path d="M 103.923,435 l 25.9808,15 "/>
<path d="M 103.923,435 l 0,-30 "/>
<path d="M 103.923,435 l -25.9808,15 "/>
<path d="M 129.904,450 l -25.9808,-45 -25.9808,45 51.9615,0 "/>
<path d="M 129.904,452.321 l 25.9808,15 "/>
<path d="M 129.904,452.321 l 0,-30 "/>
<path d="M 129.904,452.321 l -25.9808,15 "/>
<path d="M 155.885,467.321 l -25.9808,-45 -25.9808,45 51.9615,0 "/>
<path d="M 155.885,435 l 25.9808,15 "/>
<path d="M 155.885,435 l 0,-30 "/>
<path d="M 155.885,435 l -25.9808,15 "/>
<path d="M 181.865,450 l -25.9808,-45 -25.9808,45 51.9615,0 "/>
<path d="M 181.865,452.321 l 25.9808,15 "/>
<path d="M 181.865,452.321 l 0,-30 "/>
<path d="M 181.865,452.321 l -25.9808,15 "/>
<path d="M 207.846,467.321 l -25.9808,-45 -25.9808,45 51.9615,0 "/>
<path d="M 207.846,435 l 25.9808,15 "/>
<path d="M 207.846,435 l 0,-30 "/>
<path d="M 207.846,435 l -25.9808,15 "/>
<path d="M 233.827,450 l -25.9808,-45 -25.9808,45 51.9615,0 "/>
<path d="M 233.827,452.321 l 25.9808,15 "/>
<path d="M 233.827,452.321 l 0,-30 "/>
<path d="M 233.827,452.321 l -25.9808,15 "/>
<path d="M 259.808,467.321 l -25.9808,-45 -25.9808,45 51.9615,0 "/>
<path d="M 259.808,435 l 25.9808,15 "/>
<path d="M 259.808,435 l 0,-30 "/>
<path d="M 259.808,435 l -25.9808,15 "/>
<path d="M 285.788,450 l -25.9808,-45 -25.9808,45 51.9615,0 "/>
<path d="M 285.788,452.321 l 25.9808,15 "/>
<path d="M 285.788,452.321 l 0,-30 "/>
<path d="M 285.788,452.321 l -25.9808,15 "/>
<path d="M 311.769,467.321 l -25.9808,-45 -25.9808,45 51.9615,0 "/>
<path d="M 311.769,435 l 25.9808,15 "/>
<path d="M 311.769,435 l 0,-30 "/>
<path d="M 311.769,435 l -25.9808,15 "/>
<path d="M 337.75,450 l -25.9808,-45 -25.9808,45 51.9615,0 "/>
<path d="M 337.75,452.321 l 25.9808,15 "/>
<path d="M 337.75,452.321 l 0,-30 "/>
<path d="M 337.75,452.321 l -25.9808,15 "/>
<path d="M 363.731,467.321 l -25.9808,-45 -25.9808,45 51.9615,0 "/>
<path d="M 363.731,435 l 25.9808,15 "/>
<path d="M 363.731,435 l 0,-30 "/>
<path d="M 363.731,435 l -25.9808,15 "/>
<path d="M 389.711,450 l -25.9808,-45 -25.9808,45 51.9615,0 "/>
<path d="M 389.711,452.321 l 25.9808,15 "/>
<path d="M 389.711,452.321 l 0,-30 "/>
<path d="M 389.711,452.321 l -25.9808,15 "/>
<path d="M 415.692,467.321 l -25.9808,-45 -25.9808,45 51.9615,0 "/>
<path d="M 415.692,435 l 25.9808,15 "/>
<path d="M 415.692,435 l 0,-30 "/>
<path d="M 415.692,435 l -25.9808,15 "/>
<path d="M 441.673,450 l -25.9808,-45 -25.9808,45 51.9615,0 "/>
<path d="M 441.673,452.321 l 25.9808,15 "/>
<path d="M 441.673,452.321 l 0,-30 "/>
<path d="M 441.673,452.321 l -25.9808,15 "/>
<path d="M 467.654,467.321 l -25.9808,-45 -25.9808,45 51.9615,0 "/>
<path d="M 467.654,435 l 25.9808,15 "/>
<path d="M 467.654,435 l 0,-30 "/>
<path d="M 467.654,435 l -25.9808,15 "/>
<path d="M 493.634,450 l -25.9808,-45 -25.9808,45 51.9615,0 "/>
<path d="M 493.634,452.321 l 25.9808,15 "/>
<path d="M 493.634,452.321 l 0,-30 "/>
<path d="M 493.634,452.321 l -25.9808,15 "/>
<path d="M 519.615,467.321 l -25.9808,-45 -25.9808,45 51.9615,0 "/>
<path d="M 519.615,435 l 25.9808,15 "/>
<path d="M 519.615,435 l 0,-30 "/>
<path d="M 519.615,435 l -25.9808,15 "/>
<path d="M 545.596,450 l -25.9808,-45 -25.9808,45 51.9615,0 "/>
</g></g></svg>