<?xml version="1.0" encoding="UTF-8" standalone="no"?>
<!DOCTYPE svg PUBLIC "-//W3C//DTD SVG 1.1//EN" "http://www.w3.org/Graphics/SVG/1.1/DTD/svg11-flat.dtd"
[
<!ATTLIST g xmlns:fme CDATA #FIXED "http://www.safe.com/fme" >
<!ATTLIST path fme:_creation_instance CDATA #IMPLIED fme:i CDATA #IMPLIED >
<!ATTLIST ellipse fme:_creation_instance CDATA #IMPLIED fme:i CDATA #IMPLIED >
<!ATTLIST text fme:_creation_instance CDATA #IMPLIED fme:i CDATA #IMPLIED >
<!ATTLIST use fme:_creation_instance CDATA #IMPLIED fme:i CDATA #IMPLIED >
]>
<svg xmlns="http://www.w3.org/2000/svg"  viewBox="-6.75 -6.75 1052.73 418.5"><g xmlns:fme="http://www.safe.com/fme" fill="none" stroke="black" stroke-width="0.0675" transform="translate(0,405) scale(1, -1)">
<g id="test" >
<path d="M 51.9615,45 m -0.3375,-0.3375 l 0,0.675 0.675,0 0,-0.675 z "/>
<path d="M 25.9808,0 m -0.3375,-0.3375 l 0,0.675 0.675,0 0,-0.675 z "/>
<path d="M 0,45 m -0.3375,-0.3375 l 0,0.675 0.675,0 0,-0.675 z "/>
<path d="M 103.923,45 m -0.3375,-0.3375 l 0,0.675 0.675,0 0,-0.675 z "/>
<path d="M 77.9423,0 m -0.3375,-0.3375 l 0,0.675 0.675,0 0,-0.675 z "/>
<path d="M 51.9615,45 m -0.3375,-0.3375 l 0,0.675 0.675,0 0,-0.675 z "/>
<path d="M 155.885,45 m -0.3375,-0.3375 l 0,0.675 0.675,0 0,-0.675 z "/>
<path d="M 129.904,0 m -0.3375,-0.3375 l 0,0.675 0.675,0 0,-0.675 z "/>
<path d="M 103.923,45 m -0.3375,-0.3375 l 0,0.675 0.675,0 0,-0.675 z "/>
<path d="M 207.846,45 m -0.3375,-0.3375 l 0,0.675 0.675,0 0,-0.675 z "/>
<path d="M 181.865,0 m -0.3375,-0.3375 l 0,0.675 0.675,0 0,-0.675 z "/>
<path d="M 155.885,45 m -0.3375,-0.3375 l 0,0.675 0.675,0 0,-0.675 z "/>
<path d="M 259.808,45 m -0.3375,-0.3375 l 0,0.675 0.675,0 0,-0.675 z "/>
<path d="M 233.827,0 m -0.3375,-0.3375 l 0,0.675 0.675,0 0,-0.675 z "/>
<path d="M 207.846,45 m -0.3375,-0.3375 l 0,0.675 0.675,0 0,-0.675 z "/>
<path d="M 311.769,45 m -0.3375,-0.3375 l 0,0.675 0.675,0 0,-0.675 z "/>
<path d="M 285.788,0 m -0.3375,-0.3375 l 0,0.675 0.675,0 0,-0.675 z "/>
<path d="M 259.808,45 m -0.3375,-0.3375 l 0,0.675 0.675,0 0,-0.675 z "/>
<path d="M 363.731,45 m -0.3375,-0.3375 l 0,0.675 0.675,0 0,-0.675 z "/>
<path d="M 337.75,0 m -0.3375,-0.3375 l 0,0.675 0.675,0 0,-0.675 z "/>
<path d="M 311.769,45 m -0.3375,-0.3375 l 0,0.675 0.675,0 0,-0.675 z "/>
<path d="M 415.692,45 m -0.3375,-0.3375 l 0,0.675 0.675,0 0,-0.675 z "/>
<path d="M 389.711,0 m -0.3375,-0.3375 l 0,0.675 0.675,0 0,-0.675 z "/>
<path d="M 363.731,45 m -0.3375,-0.3375 l 0,0.675 0.675,0 0,-0.675 z "/>
<path d="M 467.654,45 m -0.3375,-0.3375 l 0,0.675 0.675,0 0,-0.675 z "/>
<path d="M 441.673,0 m -0.3375,-0.3375 l 0,0.675 0.675,0 0,-0.675 z "/>
<path d="M 415.692,45 m -0.3375,-0.3375 l 0,0.675 0.675,0 0,-0.675 z "/>
<path d="M 519.615,45 m -0.3375,-0.3375 l 0,0.675 0.675,0 0,-0.675 z "/>
<path d="M 493.634,0 m -0.3375,-0.3375 l 0,0.675 0.675,0 0,-0.675 z "/>
<path d="M 467.654,45 m -0.3375,-0.3375 l 0,0.675 0.675,0 0,-0.675 z "/>
<path d="M 571.577,45 m -0.3375,-0.3375 l 0,0.675 0.675,0 0,-0.675 z "/>
<path d="M 545.596,0 m -0.3375,-0.3375 l 0,0.675 0.675,0 0,-0.675 z "/>
<path d="M 519.615,45 m -0.3375,-0.3375 l 0,0.675 0.675,0 0,-0.675 z "/>
<path d="M 623.538,45 m -0.3375,-0.3375 l 0,0.675 0.675,0 0,-0.675 z "/>
<path d="M 597.558,0 m -0.3375,-0.3375 l 0,0.675 0.675,0 0,-0.675 z "/>
<path d="M 571.577,45 m -0.3375,-0.3375 l 0,0.675 0.675,0 0,-0.675 z "/>
<path d="M 675.5,45 m -0.3375,-0.3375 l 0,0.675 0.675,0 0,-0.675 z "/>
<path d="M 649.519,0 m -0.3375,-0.3375 l 0,0.675 0.675,0 0,-0.675 z "/>
<path d="M 623.538,45 m -0.3375,-0.3375 l 0,0.675 0.675,0 0,-0.675 z "/>
<path d="M 727.461,45 m -0.3375,-0.3375 l 0,0.675 0.675,0 0,-0.675 z "/>
<path d="M 701.481,0 m -0.3375,-0.3375 l 0,0.675 0.675,0 0,-0.675 z "/>
<path d="M 675.5,45 m -0.3375,-0.3375 l 0,0.675 0.675,0 0,-0.675 z "/>
<path d="M 779.423,45 m -0.3375,-0.3375 l 0,0.675 0.675,0 0,-0.675 z "/>
<path d="M 753.442,0 m -0.3375,-0.3375 l 0,0.675 0.675,0 0,-0.675 z "/>
<path d="M 727.461,45 m -0.3375,-0.3375 l 0,0.675 0.675,0 0,-0.675 z "/>
<path d="M 831.384,45 m -0.3375,-0.3375 l 0,0.675 0.675,0 0,-0.675 z "/>
<path d="M 805.404,0 m -0.3375,-0.3375 l 0,0.675 0.675,0 0,-0.675 z "/>
<path d="M 779.423,45 m -0.3375,-0.3375 l 0,0.675 0.675,0 0,-0.675 z "/>
<path d="M 883.346,45 m -0.3375,-0.3375 l 0,0.675 0.675,0 0,-0.675 z "/>
<path d="M 857.365,0 m -0.3375,-0.3375 l 0,0.675 0.675,0 0,-0.675 z "/>
<path d="M 831.384,45 m -0.3375,-0.3375 l 0,0.675 0.675,0 0,-0.675 z "/>
<path d="M 935.307,45 m -0.3375,-0.3375 l 0,0.675 0.675,0 0,-0.675 z "/>
<path d="M 909.327,0 m -0.3375,-0.3375 l 0,0.675 0.675,0 0,-0.675 z "/>
<path d="M 883.346,45 m -0.3375,-0.3375 l 0,0.675 0.675,0 0,-0.675 z "/>
<path d="M 987.269,45 m -0.3375,-0.3375 l 0,0.675 0.675,0 0,-0.675 z "/>
<path d="M 961.288,0 m -0.3375,-0.3375 l 0,0.675 0.675,0 0,-0.675 z "/>
<path d="M 935.307,45 m -0.3375,-0.3375 l 0,0.675 0.675,0 0,-0.675 z "/>
<path d="M 1039.23,45 m -0.3375,-0.3375 l 0,0.675 0.675,0 0,-0.675 z "/>
<path d="M 1013.25,0 m -0.3375,-0.3375 l 0,0.675 0.675,0 0,-0.675 z "/>
<path d="M 987.269,45 m -0.3375,-0.3375 l 0,0.675 0.675,0 0,-0.675 z "/>
<path d="M 51.9615,135 m -0.3375,-0.3375 l 0,0.675 0.675,0 0,-0.675 z "/>
<path d="M 25.9808,90 m -0.3375,-0.3375 l 0,0.675 0.675,0 0,-0.675 z "/>
<path d="M 0,135 m -0.3375,-0.3375 l 0,0.675 0.675,0 0,-0.675 z "/>
<path d="M 103.923,135 m -0.3375,-0.3375 l 0,0.675 0.675,0 0,-0.675 z "/>
<path d="M 77.9423,90 m -0.3375,-0.3375 l 0,0.675 0.675,0 0,-0.675 z "/>
<path d="M 51.9615,135 m -0.3375,-0.3375 l 0,0.675 0.675,0 0,-0.675 z "/>
<path d="M 155.885,135 m -0.3375,-0.3375 l 0,0.675 0.675,0 0,-0.675 z "/>
<path d="M 129.904,90 m -0.3375,-0.3375 l 0,0.675 0.675,0 0,-0.675 z "/>
<path d="M 103.923,135 m -0.3375,-0.3375 l 0,0.675 0.675,0 0,-0.675 z "/>
<path d="M 207.846,135 m -0.3375,-0.3375 l 0,0.675 0.675,0 0,-0.675 z "/>
<path d="M 181.865,90 m -0.3375,-0.3375 l 0,0.675 0.675,0 0,-0.675 z "/>
<path d="M 155.885,135 m -0.3375,-0.3375 l 0,0.675 0.675,0 0,-0.675 z "/>
<path d="M 259.808,135 m -0.3375,-0.3375 l 0,0.675 0.675,0 0,-0.675 z "/>
<path d="M 233.827,90 m -0.3375,-0.3375 l 0,0.675 0.675,0 0,-0.675 z "/>
<path d="M 207.846,135 m -0.3375,-0.3375 l 0,0.675 0.675,0 0,-0.675 z "/>
<path d="M 311.769,135 m -0.3375,-0.3375 l 0,0.675 0.675,0 0,-0.675 z "/>
<path d="M 285.788,90 m -0.3375,-0.3375 l 0,0.675 0.675,0 0,-0.675 z "/>
<path d="M 259.808,135 m -0.3375,-0.3375 l 0,0.675 0.675,0 0,-0.675 z "/>
<path d="M 363.731,135 m -0.3375,-0.3375 l 0,0.675 0.675,0 0,-0.675 z "/>
<path d="M 337.75,90 m -0.3375,-0.3375 l 0,0.675 0.675,0 0,-0.675 z "/>
<path d="M 311.769,135 m -0.3375,-0.3375 l 0,0.675 0.675,0 0,-0.675 z "/>
<path d="M 415.692,135 m -0.3375,-0.3375 l 0,0.675 0.675,0 0,-0.675 z "/>
<path d="M 389.711,90 m -0.3375,-0.3375 l 0,0.675 0.675,0 0,-0.675 z "/>
<path d="M 363.731,135 m -0.3375,-0.3375 l 0,0.675 0.675,0 0,-0.675 z "/>
<path d="M 467.654,135 m -0.3375,-0.3375 l 0,0.675 0.675,0 0,-0.675 z "/>
<path d="M 441.673,90 m -0.3375,-0.3375 l 0,0.675 0.675,0 0,-0.675 z "/>
<path d="M 415.692,135 m -0.3375,-0.3375 l 0,0.675 0.675,0 0,-0.675 z "/>
<path d="M 519.615,135 m -0.3375,-0.3375 l 0,0.675 0.675,0 0,-0.675 z "/>
<path d="M 493.634,90 m -0.3375,-0.3375 l 0,0.675 0.675,0 0,-0.675 z "/>
<path d="M 467.654,135 m -0.3375,-0.3375 l 0,0.675 0.675,0 0,-0.675 z "/>
<path d="M 571.577,135 m -0.3375,-0.3375 l 0,0.675 0.675,0 0,-0.675 z "/>
<path d="M 545.596,90 m -0.3375,-0.3375 l 0,0.675 0.675,0 0,-0.675 z "/>
<path d="M 519.615,135 m -0.3375,-0.3375 l 0,0.675 0.675,0 0,-0.675 z "/>
<path d="M 623.538,135 m -0.3375,-0.3375 l 0,0.675 0.675,0 0,-0.675 z "/>
<path d="M 597.558,90 m -0.3375,-0.3375 l 0,0.675 0.675,0 0,-0.675 z "/>
<path d="M 571.577,135 m -0.3375,-0.3375 l 0,0.675 0.675,0 0,-0.675 z "/>
<path d="M 675.5,135 m -0.3375,-0.3375 l 0,0.675 0.675,0 0,-0.675 z "/>
<path d="M 649.519,90 m -0.3375,-0.3375 l 0,0.675 0.675,0 0,-0.675 z "/>
<path d="M 623.538,135 m -0.3375,-0.3375 l 0,0.675 0.675,0 0,-0.675 z "/>
<path d="M 727.461,135 m -0.3375,-0.3375 l 0,0.675 0.675,0 0,-0.675 z "/>
<path d="M 701.481,90 m -0.3375,-0.3375 l 0,0.675 0.675,0 0,-0.675 z "/>
<path d="M 675.5,135 m -0.3375,-0.3375 l 0,0.675 0.675,0 0,-0.675 z "/>
<path d="M 779.423,135 m -0.3375,-0.3375 l 0,0.675 0.675,0 0,-0.675 z "/>
<path d="M 753.442,90 m -0.3375,-0.3375 l 0,0.675 0.675,0 0,-0.675 z "/>
<path d="M 727.461,135 m -0.3375,-0.3375 l 0,0.675 0.675,0 0,-0.675 z "/>
<path d="M 831.384,135 m -0.3375,-0.3375 l 0,0.675 0.675,0 0,-0.675 z "/>
<path d="M 805.404,90 m -0.3375,-0.3375 l 0,0.675 0.675,0 0,-0.675 z "/>
<path d="M 779.423,135 m -0.3375,-0.3375 l 0,0.675 0.675,0 0,-0.675 z "/>
<path d="M 883.346,135 m -0.3375,-0.3375 l 0,0.675 0.675,0 0,-0.675 z "/>
<path d="M 857.365,90 m -0.3375,-0.3375 l 0,0.675 0.675,0 0,-0.675 z "/>
<path d="M 831.384,135 m -0.3375,-0.3375 l 0,0.675 0.675,0 0,-0.675 z "/>
<path d="M 935.307,135 m -0.3375,-0.3375 l 0,0.675 0.675,0 0,-0.675 z "/>
<path d="M 909.327,90 m -0.3375,-0.3375 l 0,0.675 0.675,0 0,-0.675 z "/>
<path d="M 883.346,135 m -0.3375,-0.3375 l 0,0.675 0.675,0 0,-0.675 z "/>
<path d="M 987.269,135 m -0.3375,-0.3375 l 0,0.675 0.675,0 0,-0.675 z "/>
<path d="M 961.288,90 m -0.3375,-0.3375 l 0,0.675 0.675,0 0,-0.675 z "/>
<path d="M 935.307,135 m -0.3375,-0.3375 l 0,0.675 0.675,0 0,-0.675 z "/>
<path d="M 1039.23,135 m -0.3375,-0.3375 l 0,0.675 0.675,0 0,-0.675 z "/>
<path d="M 1013.25,90 m -0.3375,-0.3375 l 0,0.675 0.675,0 0,-0.675 z "/>
<path d="M 987.269,135 m -0.3375,-0.3375 l 0,0.675 0.675,0 0,-0.675 z "/>
<path d="M 51.9615,225 m -0.3375,-0.3375 l 0,0.675 0.675,0 0,-0.675 z "/>
<path d="M 25.9808,180 m -0.3375,-0.3375 l 0,0.675 0.675,0 0,-0.675 z "/>
<path d="M 0,225 m -0.3375,-0.3375 l 0,0.675 0.675,0 0,-0.675 z "/>
<path d="M 103.923,225 m -0.3375,-0.3375 l 0,0.675 0.675,0 0,-0.675 z "/>
<path d="M 77.9423,180 m -0.3375,-0.3375 l 0,0.675 0.675,0 0,-0.675 z "/>
<path d="M 51.9615,225 m -0.3375,-0.3375 l 0,0.675 0.675,0 0,-0.675 z "/>
<path d="M 155.885,225 m -0.3375,-0.3375 l 0,0.675 0.675,0 0,-0.675 z "/>
<path d="M 129.904,180 m -0.3375,-0.3375 l 0,0.675 0.675,0 0,-0.675 z "/>
<path d="M 103.923,225 m -0.3375,-0.3375 l 0,0.675 0.675,0 0,-0.675 z "/>
<path d="M 207.846,225 m -0.3375,-0.3375 l 0,0.675 0.675,0 0,-0.675 z "/>
<path d="M 181.865,180 m -0.3375,-0.3375 l 0,0.675 0.675,0 0,-0.675 z "/>
<path d="M 155.885,225 m -0.3375,-0.3375 l 0,0.675 0.675,0 0,-0.675 z "/>
<path d="M 259.808,225 m -0.3375,-0.3375 l 0,0.675 0.675,0 0,-0.675 z "/>
<path d="M 233.827,180 m -0.3375,-0.3375 l 0,0.675 0.675,0 0,-0.675 z "/>
<path d="M 207.846,225 m -0.3375,-0.3375 l 0,0.675 0.675,0 0,-0.675 z "/>
<path d="M 311.769,225 m -0.3375,-0.3375 l 0,0.675 0.675,0 0,-0.675 z "/>
<path d="M 285.788,180 m -0.3375,-0.3375 l 0,0.675 0.675,0 0,-0.675 z "/>
<path d="M 259.808,225 m -0.3375,-0.3375 l 0,0.675 0.675,0 0,-0.675 z "/>
<path d="M 363.731,225 m -0.3375,-0.3375 l 0,0.675 0.675,0 0,-0.675 z "/>
<path d="M 337.75,180 m -0.3375,-0.3375 l 0,0.675 0.675,0 0,-0.675 z "/>
<path d="M 311.769,225 m -0.3375,-0.3375 l 0,0.675 0.675,0 0,-0.675 z "/>
<path d="M 415.692,225 m -0.3375,-0.3375 l 0,0.675 0.675,0 0,-0.675 z "/>
<path d="M 389.711,180 m -0.3375,-0.3375 l 0,0.675 0.675,0 0,-0.675 z "/>
<path d="M 363.731,225 m -0.3375,-0.3375 l 0,0.675 0.675,0 0,-0.675 z "/>
<path d="M 467.654,225 m -0.3375,-0.3375 l 0,0.675 0.675,0 0,-0.675 z "/>
<path d="M 441.673,180 m -0.3375,-0.3375 l 0,0.675 0.675,0 0,-0.675 z "/>
<path d="M 415.692,225 m -0.3375,-0.3375 l 0,0.675 0.675,0 0,-0.675 z "/>
<path d="M 519.615,225 m -0.3375,-0.3375 l 0,0.675 0.675,0 0,-0.675 z "/>
<path d="M 493.634,180 m -0.3375,-0.3375 l 0,0.675 0.675,0 0,-0.675 z "/>
<path d="M 467.654,225 m -0.3375,-0.3375 l 0,0.675 0.675,0 0,-0.675 z "/>
<path d="M 571.577,225 m -0.3375,-0.3375 l 0,0.675 0.675,0 0,-0.675 z "/>
<path d="M 545.596,180 m -0.3375,-0.3375 l 0,0.675 0.675,0 0,-0.675 z "/>
<path d="M 519.615,225 m -0.3375,-0.3375 l 0,0.675 0.675,0 0,-0.675 z "/>
<path d="M 623.538,225 m -0.3375,-0.3375 l 0,0.675 0.675,0 0,-0.675 z "/>
<path d="M 597.558,180 m -0.3375,-0.3375 l 0,0.675 0.675,0 0,-0.675 z "/>
<path d="M 571.577,225 m -0.3375,-0.3375 l 0,0.675 0.675,0 0,-0.675 z "/>
<path d="M 675.5,225 m -0.3375,-0.3375 l 0,0.675 0.675,0 0,-0.675 z "/>
<path d="M 649.519,180 m -0.3375,-0.3375 l 0,0.675 0.675,0 0,-0.675 z "/>
<path d="M 623.538,225 m -0.3375,-0.3375 l 0,0.675 0.675,0 0,-0.675 z "/>
<path d="M 727.461,225 m -0.3375,-0.3375 l 0,0.675 0.675,0 0,-0.675 z "/>
<path d="M 701.481,180 m -0.3375,-0.3375 l 0,0.675 0.675,0 0,-0.675 z "/>
<path d="M 675.5,225 m -0.3375,-0.3375 l 0,0.675 0.675,0 0,-0.675 z "/>
<path d="M 779.423,225 m -0.3375,-0.3375 l 0,0.675 0.675,0 0,-0.675 z "/>
<path d="M 753.442,180 m -0.3375,-0.3375 l 0,0.675 0.675,0 0,-0.675 z "/>
<path d="M 727.461,225 m -0.3375,-0.3375 l 0,0.675 0.675,0 0,-0.675 z "/>
<path d="M 831.384,225 m -0.3375,-0.3375 l 0,0.675 0.675,0 0,-0.675 z "/>
<path d="M 805.404,180 m -0.3375,-0.3375 l 0,0.675 0.675,0 0,-0.675 z "/>
<path d="M 779.423,225 m -0.3375,-0.3375 l 0,0.675 0.675,0 0,-0.675 z "/>
<path d="M 883.346,225 m -0.3375,-0.3375 l 0,0.675 0.675,0 0,-0.675 z "/>
<path d="M 857.365,180 m -0.3375,-0.3375 l 0,0.675 0.675,0 0,-0.675 z "/>
<path d="M 831.384,225 m -0.3375,-0.3375 l 0,0.675 0.675,0 0,-0.675 z "/>
<path d="M 935.307,225 m -0.3375,-0.3375 l 0,0.675 0.675,0 0,-0.675 z "/>
<path d="M 909.327,180 m -0.3375,-0.3375 l 0,0.675 0.675,0 0,-0.675 z "/>
<path d="M 883.346,225 m -0.3375,-0.3375 l 0,0.675 0.675,0 0,-0.675 z "/>
<path d="M 987.269,225 m -0.3375,-0.3375 l 0,0.675 0.675,0 0,-0.675 z "/>
<path d="M 961.288,180 m -0.3375,-0.3375 l 0,0.675 0.675,0 0,-0.675 z "/>
<path d="M 935.307,225 m -0.3375,-0.3375 l 0,0.675 0.675,0 0,-0.675 z "/>
<path d="M 1039.23,225 m -0.3375,-0.3375 l 0,0.675 0.675,0 0,-0.675 z "/>
<path d="M 1013.25,180 m -0.3375,-0.3375 l 0,0.675 0.675,0 0,-0.675 z "/>
<path d="M 987.269,225 m -0.3375,-0.3375 l 0,0.675 0.675,0 0,-0.675 z "/>
<path d="M 51.9615,315 m -0.3375,-0.3375 l 0,0.675 0.675,0 0,-0.675 z "/>
<path d="M 25.9808,270 m -0.3375,-0.3375 l 0,0.675 0.675,0 0,-0.675 z "/>
<path d="M 0,315 m -0.3375,-0.3375 l 0,0.675 0.675,0 0,-0.675 z "/>
<path d="M 103.923,315 m -0.3375,-0.3375 l 0,0.675 0.675,0 0,-0.675 z "/>
<path d="M 77.9423,270 m -0.3375,-0.3375 l 0,0.675 0.675,0 0,-0.675 z "/>
<path d="M 51.9615,315 m -0.3375,-0.3375 l 0,0.675 0.675,0 0,-0.675 z "/>
<path d="M 155.885,315 m -0.3375,-0.3375 l 0,0.675 0.675,0 0,-0.675 z "/>
<path d="M 129.904,270 m -0.3375,-0.3375 l 0,0.675 0.675,0 0,-0.675 z "/>
<path d="M 103.923,315 m -0.3375,-0.3375 l 0,0.675 0.675,0 0,-0.675 z "/>
<path d="M 207.846,315 m -0.3375,-0.3375 l 0,0.675 0.675,0 0,-0.675 z "/>
<path d="M 181.865,270 m -0.3375,-0.3375 l 0,0.675 0.675,0 0,-0.675 z "/>
<path d="M 155.885,315 m -0.3375,-0.3375 l 0,0.675 0.675,0 0,-0.675 z "/>
<path d="M 259.808,315 m -0.3375,-0.3375 l 0,0.675 0.675,0 0,-0.675 z "/>
<path d="M 233.827,270 m -0.3375,-0.3375 l 0,0.675 0.675,0 0,-0.675 z "/>
<path d="M 207.846,315 m -0.3375,-0.3375 l 0,0.675 0.675,0 0,-0.675 z "/>
<path d="M 311.769,315 m -0.3375,-0.3375 l 0,0.675 0.675,0 0,-0.675 z "/>
<path d="M 285.788,270 m -0.3375,-0.3375 l 0,0.675 0.675,0 0,-0.675 z "/>
<path d="M 259.808,315 m -0.3375,-0.3375 l 0,0.675 0.675,0 0,-0.675 z "/>
<path d="M 363.731,315 m -0.3375,-0.3375 l 0,0.675 0.675,0 0,-0.675 z "/>
<path d="M 337.75,270 m -0.3375,-0.3375 l 0,0.675 0.675,0 0,-0.675 z "/>
<path d="M 311.769,315 m -0.3375,-0.3375 l 0,0.675 0.675,0 0,-0.675 z "/>
<path d="M 415.692,315 m -0.3375,-0.3375 l 0,0.675 0.675,0 0,-0.675 z "/>
<path d="M 389.711,270 m -0.3375,-0.3375 l 0,0.675 0.675,0 0,-0.675 z "/>
<path d="M 363.731,315 m -0.3375,-0.3375 l 0,0.675 0.675,0 0,-0.675 z "/>
<path d="M 467.654,315 m -0.3375,-0.3375 l 0,0.675 0.675,0 0,-0.675 z "/>
<path d="M 441.673,270 m -0.3375,-0.3375 l 0,0.675 0.675,0 0,-0.675 z "/>
<path d="M 415.692,315 m -0.3375,-0.3375 l 0,0.675 0.675,0 0,-0.675 z "/>
<path d="M 519.615,315 m -0.3375,-0.3375 l 0,0.675 0.675,0 0,-0.675 z "/>
<path d="M 493.634,270 m -0.3375,-0.3375 l 0,0.675 0.675,0 0,-0.675 z "/>
<path d="M 467.654,315 m -0.3375,-0.3375 l 0,0.675 0.675,0 0,-0.675 z "/>
<path d="M 571.577,315 m -0.3375,-0.3375 l 0,0.675 0.675,0 0,-0.675 z "/>
<path d="M 545.596,270 m -0.3375,-0.3375 l 0,0.675 0.675,0 0,-0.675 z "/>
<path d="M 519.615,315 m -0.3375,-0.3375 l 0,0.675 0.675,0 0,-0.675 z "/>
<path d="M 623.538,315 m -0.3375,-0.3375 l 0,0.675 0.675,0 0,-0.675 z "/>
<path d="M 597.558,270 m -0.3375,-0.3375 l 0,0.675 0.675,0 0,-0.675 z "/>
<path d="M 571.577,315 m -0.3375,-0.3375 l 0,0.675 0.675,0 0,-0.675 z "/>
<path d="M 675.5,315 m -0.3375,-0.3375 l 0,0.675 0.675,0 0,-0.675 z "/>
<path d="M 649.519,270 m -0.3375,-0.3375 l 0,0.675 0.675,0 0,-0.675 z "/>
<path d="M 623.538,315 m -0.3375,-0.3375 l 0,0.675 0.675,0 0,-0.675 z "/>
<path d="M 727.461,315 m -0.3375,-0.3375 l 0,0.675 0.675,0 0,-0.675 z "/>
<path d="M 701.481,270 m -0.3375,-0.3375 l 0,0.675 0.675,0 0,-0.675 z "/>
<path d="M 675.5,315 m -0.3375,-0.3375 l 0,0.675 0.675,0 0,-0.675 z "/>
<path d="M 779.423,315 m -0.3375,-0.3375 l 0,0.675 0.675,0 0,-0.675 z "/>
<path d="M 753.442,270 m -0.3375,-0.3375 l 0,0.675 0.675,0 0,-0.675 z "/>
<path d="M 727.461,315 m -0.3375,-0.3375 l 0,0.675 0.675,0 0,-0.675 z "/>
<path d="M 831.384,315 m -0.3375,-0.3375 l 0,0.675 0.675,0 0,-0.675 z "/>
<path d="M 805.404,270 m -0.3375,-0.3375 l 0,0.675 0.675,0 0,-0.675 z "/>
<path d="M 779.423,315 m -0.3375,-0.3375 l 0,0.675 0.675,0 0,-0.675 z "/>
<path d="M 883.346,315 m -0.3375,-0.3375 l 0,0.675 0.675,0 0,-0.675 z "/>
<path d="M 857.365,270 m -0.3375,-0.3375 l 0,0.675 0.675,0 0,-0.675 z "/>
<path d="M 831.384,315 m -0.3375,-0.3375 l 0,0.675 0.675,0 0,-0.675 z "/>
<path d="M 935.307,315 m -0.3375,-0.3375 l 0,0.675 0.675,0 0,-0.675 z "/>
<path d="M 909.327,270 m -0.3375,-0.3375 l 0,0.675 0.675,0 0,-0.675 z "/>
<path d="M 883.346,315 m -0.3375,-0.3375 l 0,0.675 0.675,0 0,-0.675 z "/>
<path d="M 987.269,315 m -0.3375,-0.3375 l 0,0.675 0.675,0 0,-0.675 z "/>
<path d="M 961.288,270 m -0.3375,-0.3375 l 0,0.675 0.675,0 0,-0.675 z "/>
<path d="M 935.307,315 m -0.3375,-0.3375 l 0,0.675 0.675,0 0,-0.675 z "/>
<path d="M 1039.23,315 m -0.3375,-0.3375 l 0,0.675 0.675,0 0,-0.675 z "/>
<path d="M 1013.25,270 m -0.3375,-0.3375 l 0,0.675 0.675,0 0,-0.675 z "/>
<path d="M 987.269,315 m -0.3375,-0.3375 l 0,0.675 0.675,0 0,-0.675 z "/>
<path d="M 51.9615,405 m -0.3375,-0.3375 l 0,0.675 0.675,0 0,-0.675 z "/>
<path d="M 25.9808,360 m -0.3375,-0.3375 l 0,0.675 0.675,0 0,-0.675 z "/>
<path d="M 0,405 m -0.3375,-0.3375 l 0,0.675 0.675,0 0,-0.675 z "/>
<path d="M 103.923,405 m -0.3375,-0.3375 l 0,0.675 0.675,0 0,-0.675 z "/>
<path d="M 77.9423,360 m -0.3375,-0.3375 l 0,0.675 0.675,0 0,-0.675 z "/>
<path d="M 51.9615,405 m -0.3375,-0.3375 l 0,0.675 0.675,0 0,-0.675 z "/>
<path d="M 155.885,405 m -0.3375,-0.3375 l 0,0.675 0.675,0 0,-0.675 z "/>
<path d="M 129.904,360 m -0.3375,-0.3375 l 0,0.675 0.675,0 0,-0.675 z "/>
<path d="M 103.923,405 m -0.3375,-0.3375 l 0,0.675 0.675,0 0,-0.675 z "/>
<path d="M 207.846,405 m -0.3375,-0.3375 l 0,0.675 0.675,0 0,-0.675 z "/>
<path d="M 181.865,360 m -0.3375,-0.3375 l 0,0.675 0.675,0 0,-0.675 z "/>
<path d="M 155.885,405 m -0.3375,-0.3375 l 0,0.675 0.675,0 0,-0.675 z "/>
<path d="M 259.808,405 m -0.3375,-0.3375 l 0,0.675 0.675,0 0,-0.675 z "/>
<path d="M 233.827,360 m -0.3375,-0.3375 l 0,0.675 0.675,0 0,-0.675 z "/>
<path d="M 207.846,405 m -0.3375,-0.3375 l 0,0.675 0.675,0 0,-0.675 z "/>
<path d="M 311.769,405 m -0.3375,-0.3375 l 0,0.675 0.675,0 0,-0.675 z "/>
<path d="M 285.788,360 m -0.3375,-0.3375 l 0,0.675 0.675,0 0,-0.675 z "/>
<path d="M 259.808,405 m -0.3375,-0.3375 l 0,0.675 0.675,0 0,-0.675 z "/>
<path d="M 363.731,405 m -0.3375,-0.3375 l 0,0.675 0.675,0 0,-0.675 z "/>
<path d="M 337.75,360 m -0.3375,-0.3375 l 0,0.675 0.675,0 0,-0.675 z "/>
<path d="M 311.769,405 m -0.3375,-0.3375 l 0,0.675 0.675,0 0,-0.675 z "/>
<path d="M 415.692,405 m -0.3375,-0.3375 l 0,0.675 0.675,0 0,-0.675 z "/>
<path d="M 389.711,360 m -0.3375,-0.3375 l 0,0.675 0.675,0 0,-0.675 z "/>
<path d="M 363.731,405 m -0.3375,-0.3375 l 0,0.675 0.675,0 0,-0.675 z "/>
<path d="M 467.654,405 m -0.3375,-0.3375 l 0,0.675 0.675,0 0,-0.675 z "/>
<path d="M 441.673,360 m -0.3375,-0.3375 l 0,0.675 0.675,0 0,-0.675 z "/>
<path d="M 415.692,405 m -0.3375,-0.3375 l 0,0.675 0.675,0 0,-0.675 z "/>
<path d="M 519.615,405 m -0.3375,-0.3375 l 0,0.675 0.675,0 0,-0.675 z "/>
<path d="M 493.634,360 m -0.3375,-0.3375 l 0,0.675 0.675,0 0,-0.675 z "/>
<path d="M 467.654,405 m -0.3375,-0.3375 l 0,0.675 0.675,0 0,-0.675 z "/>
<path d="M 571.577,405 m -0.3375,-0.3375 l 0,0.675 0.675,0 0,-0.675 z "/>
<path d="M 545.596,360 m -0.3375,-0.3375 l 0,0.675 0.675,0 0,-0.675 z "/>
<path d="M 519.615,405 m -0.3375,-0.3375 l 0,0.675 0.675,0 0,-0.675 z "/>
<path d="M 623.538,405 m -0.3375,-0.3375 l 0,0.675 0.675,0 0,-0.675 z "/>
<path d="M 597.558,360 m -0.3375,-0.3375 l 0,0.675 0.675,0 0,-0.675 z "/>
<path d="M 571.577,405 m -0.3375,-0.3375 l 0,0.675 0.675,0 0,-0.675 z "/>
<path d="M 675.5,405 m -0.3375,-0.3375 l 0,0.675 0.675,0 0,-0.675 z "/>
<path d="M 649.519,360 m -0.3375,-0.3375 l 0,0.675 0.675,0 0,-0.675 z "/>
<path d="M 623.538,405 m -0.3375,-0.3375 l 0,0.675 0.675,0 0,-0.675 z "/>
<path d="M 727.461,405 m -0.3375,-0.3375 l 0,0.675 0.675,0 0,-0.675 z "/>
<path d="M 701.481,360 m -0.3375,-0.3375 l 0,0.675 0.675,0 0,-0.675 z "/>
<path d="M 675.5,405 m -0.3375,-0.3375 l 0,0.675 0.675,0 0,-0.675 z "/>
<path d="M 779.423,405 m -0.3375,-0.3375 l 0,0.675 0.675,0 0,-0.675 z "/>
<path d="M 753.442,360 m -0.3375,-0.3375 l 0,0.675 0.675,0 0,-0.675 z "/>
<path d="M 727.461,405 m -0.3375,-0.3375 l 0,0.675 0.675,0 0,-0.675 z "/>
<path d="M 831.384,405 m -0.3375,-0.3375 l 0,0.675 0.675,0 0,-0.675 z "/>
<path d="M 805.404,360 m -0.3375,-0.3375 l 0,0.675 0.675,0 0,-0.675 z "/>
<path d="M 779.423,405 m -0.3375,-0.3375 l 0,0.675 0.675,0 0,-0.675 z "/>
<path d="M 883.346,405 m -0.3375,-0.3375 l 0,0.675 0.675,0 0,-0.675 z "/>
<path d="M 857.365,360 m -0.3375,-0.3375 l 0,0.675 0.675,0 0,-0.675 z "/>
<path d="M 831.384,405 m -0.3375,-0.3375 l 0,0.675 0.675,0 0,-0.675 z "/>
<path d="M 935.307,405 m -0.3375,-0.3375 l 0,0.675 0.675,0 0,-0.675 z "/>
<path d="M 909.327,360 m -0.3375,-0.3375 l 0,0.675 0.675,0 0,-0.675 z "/>
<path d="M 883.346,405 m -0.3375,-0.3375 l 0,0.675 0.675,0 0,-0.675 z "/>
<path d="M 987.269,405 m -0.3375,-0.3375 l 0,0.675 0.675,0 0,-0.675 z "/>
<path d="M 961.288,360 m -0.3375,-0.3375 l 0,0.675 0.675,0 0,-0.675 z "/>
<path d="M 935.307,405 m -0.3375,-0.3375 l 0,0.675 0.675,0 0,-0.675 z "/>
<path d="M 1039.23,405 m -0.3375,-0.3375 l 0,0.675 0.675,0 0,-0.675 z "/>
<path d="M 1013.25,360 m -0.3375,-0.3375 l 0,0.675 0.675,0 0,-0.675 z "/>
<path d="M 987.269,405 m -0.3375,-0.3375 l 0,0.675 0.675,0 0,-0.675 z "/>
<path d="M 51.9615,45 l -25.9808,-45 -25.9808,45 "/>
<path d="M 103.923,45 l -25.9808,-45 -25.9808,45 "/>
<path d="M 155.885,45 l -25.9808,-45 -25.9808,45 "/>
<path d="M 207.846,45 l -25.9808,-45 -25.9808,45 "/>
<path d="M 259.808,45 l -25.9808,-45 -25.9808,45 "/>
<path d="M 311.769,45 l -25.9808,-45 -25.9808,45 "/>
<path d="M 363.731,45 l -25.9808,-45 -25.9808,45 "/>
<path d="M 415.692,45 l -25.9808,-45 -25.9808,45 "/>
<path d="M 467.654,45 l -25.9808,-45 -25.9808,45 "/>
<path d="M 519.615,45 l -25.9808,-45 -25.9808,45 "/>
<path d="M 571.577,45 l -25.9808,-45 -25.9808,45 "/>
<path d="M 623.538,45 l -25.9808,-45 -25.9808,45 "/>
<path d="M 675.5,45 l -25.9808,-45 -25.9808,45 "/>
<path d="M 727.461,45 l -25.9808,-45 -25.9808,45 "/>
<path d="M 779.423,45 l -25.9808,-45 -25.9808,45 "/>
<path d="M 831.384,45 l -25.9808,-45 -25.9808,45 "/>
<path d="M 883.346,45 l -25.9808,-45 -25.9808,45 "/>
<path d="M 935.307,45 l -25.9808,-45 -25.9808,45 "/>
<path d="M 987.269,45 l -25.9808,-45 -25.9808,45 "/>
<path d="M 1039.23,45 l -25.9808,-45 -25.9808,45 "/>
<path d="M 51.9615,135 l -25.9808,-45 -25.9808,45 "/>
<path d="M 103.923,135 l -25.9808,-45 -25.9808,45 "/>
<path d="M 155.885,135 l -25.9808,-45 -25.9808,45 "/>
<path d="M 207.846,135 l -25.9808,-45 -25.9808,45 "/>
<path d="M 259.808,135 l -25.9808,-45 -25.9808,45 "/>
<path d="M 311.769,135 l -25.9808,-45 -25.9808,45 "/>
<path d="M 363.731,135 l -25.9808,-45 -25.9808,45 "/>
<path d="M 415.692,135 l -25.9808,-45 -25.9808,45 "/>
<path d="M 467.654,135 l -25.9808,-45 -25.9808,45 "/>
<path d="M 519.615,135 l -25.9808,-45 -25.9808,45 "/>
<path d="M 571.577,135 l -25.9808,-45 -25.9808,45 "/>
<path d="M 623.538,135 l -25.9808,-45 -25.9808,45 "/>
<path d="M 675.5,135 l -25.9808,-45 -25.9808,45 "/>
<path d="M 727.461,135 l -25.9808,-45 -25.9808,45 "/>
<path d="M 779.423,135 l -25.9808,-45 -25.9808,45 "/>
<path d="M 831.384,135 l -25.9808,-45 -25.9808,45 "/>
<path d="M 883.346,135 l -25.9808,-45 -25.9808,45 "/>
<path d="M 935.307,135 l -25.9808,-45 -25.9808,45 "/>
<path d="M 987.269,135 l -25.9808,-45 -25.9808,45 "/>
<path d="M 1039.23,135 l -25.9808,-45 -25.9808,45 "/>
<path d="M 51.9615,225 l -25.9808,-45 -25.9808,45 "/>
<path d="M 103.923,225 l -25.9808,-45 -25.9808,45 "/>
<path d="M 155.885,225 l -25.9808,-45 -25.9808,45 "/>
<path d="M 207.846,225 l -25.9808,-45 -25.9808,45 "/>
<path d="M 259.808,225 l -25.9808,-45 -25.9808,45 "/>
<path d="M 311.769,225 l -25.9808,-45 -25.9808,45 "/>
<path d="M 363.731,225 l -25.9808,-45 -25.9808,45 "/>
<path d="M 415.692,225 l -25.9808,-45 -25.9808,45 "/>
<path d="M 467.654,225 l -25.9808,-45 -25.9808,45 "/>
<path d="M 519.615,225 l -25.9808,-45 -25.9808,45 "/>
<path d="M 571.577,225 l -25.9808,-45 -25.9808,45 "/>
<path d="M 623.538,225 l -25.9808,-45 -25.9808,45 "/>
<path d="M 675.5,225 l -25.9808,-45 -25.9808,45 "/>
<path d="M 727.461,225 l -25.9808,-45 -25.9808,45 "/>
<path d="M 779.423,225 l -25.9808,-45 -25.9808,45 "/>
<path d="M 831.384,225 l -25.9808,-45 -25.9808,45 "/>
<path d="M 883.346,225 l -25.9808,-45 -25.9808,45 "/>
<path d="M 935.307,225 l -25.9808,-45 -25.9808,45 "/>
<path d="M 987.269,225 l -25.9808,-45 -25.9808,45 "/>
<path d="M 1039.23,225 l -25.9808,-45 -25.9808,45 "/>
<path d="M 51.9615,315 l -25.9808,-45 -25.9808,45 "/>
<path d="M 103.923,315 l -25.9808,-45 -25.9808,45 "/>
<path d="M 155.885,315 l -25.9808,-45 -25.9808,45 "/>
<path d="M 207.846,315 l -25.9808,-45 -25.9808,45 "/>
<path d="M 259.808,315 l -25.9808,-45 -25.9808,45 "/>
<path d="M 311.769,315 l -25.9808,-45 -25.9808,45 "/>
<path d="M 363.731,315 l -25.9808,-45 -25.9808,45 "/>
<path d="M 415.692,315 l -25.9808,-45 -25.9808,45 "/>
<path d="M 467.654,315 l -25.9808,-45 -25.9808,45 "/>
<path d="M 519.615,315 l -25.9808,-45 -25.9808,45 "/>
<path d="M 571.577,315 l -25.9808,-45 -25.9808,45 "/>
<path d="M 623.538,315 l -25.9808,-45 -25.9808,45 "/>
<path d="M 675.5,315 l -25.9808,-45 -25.9808,45 "/>
<path d="M 727.461,315 l -25.9808,-45 -25.9808,45 "/>
<path d="M 779.423,315 l -25.9808,-45 -25.9808,45 "/>
<path d="M 831.384,315 l -25.9808,-45 -25.9808,45 "/>
<path d="M 883.346,315 l -25.9808,-45 -25.9808,45 "/>
<path d="M 935.307,315 l -25.9808,-45 -25.9808,45 "/>
<path d="M 987.269,315 l -25.9808,-45 -25.9808,45 "/>
<path d="M 1039.23,315 l -25.9808,-45 -25.9808,45 "/>
<path d="M 51.9615,405 l -25.9808,-45 -25.9808,45 "/>
<path d="M 103.923,405 l -25.9808,-45 -25.9808,45 "/>
<path d="M 155.885,405 l -25.9808,-45 -25.9808,45 "/>
<path d="M 207.846,405 l -25.9808,-45 -25.9808,45 "/>
<path d="M 259.808,405 l -25.9808,-45 -25.9808,45 "/>
<path d="M 311.769,405 l -25.9808,-45 -25.9808,45 "/>
<path d="M 363.731,405 l -25.9808,-45 -25.9808,45 "/>
<path d="M 415.692,405 l -25.9808,-45 -25.9808,45 "/>
<path d="M 467.654,405 l -25.9808,-45 -25.9808,45 "/>
<path d="M 519.615,405 l -25.9808,-45 -25.9808,45 "/>
<path d="M 571.577,405 l -25.9808,-45 -25.9808,45 "/>
<path d="M 623.538,405 l -25.9808,-45 -25.9808,45 "/>
<path d="M 675.5,405 l -25.9808,-45 -25.9808,45 "/>
<path d="M 727.461,405 l -25.9808,-45 -25.9808,45 "/>
<path d="M 779.423,405 l -25.9808,-45 -25.9808,45 "/>
<path d="M 831.384,405 l -25.9808,-45 -25.9808,45 "/>
<path d="M 883.346,405 l -25.9808,-45 -25.9808,45 "/>
<path d="M 935.307,405 l -25.9808,-45 -25.9808,45 "/>
<path d="M 987.269,405 l -25.9808,-45 -25.9808,45 "/>
<path d="M 1039.23,405 l -25.9808,-45 -25.9808,45 "/>
</g></g></svg>