<?xml version="1.0" encoding="UTF-8" standalone="no"?>
<!DOCTYPE svg PUBLIC "-//W3C//DTD SVG 1.1//EN" "http://www.w3.org/Graphics/SVG/1.1/DTD/svg11-flat.dtd"
[
<!ATTLIST g xmlns:fme CDATA #FIXED "http://www.safe.com/fme" >
<!ATTLIST path fme:_creation_instance CDATA #IMPLIED fme:i CDATA #IMPLIED >
<!ATTLIST ellipse fme:_creation_instance CDATA #IMPLIED fme:i CDATA #IMPLIED >
<!ATTLIST text fme:_creation_instance CDATA #IMPLIED fme:i CDATA #IMPLIED >
<!ATTLIST use fme:_creation_instance CDATA #IMPLIED fme:i CDATA #IMPLIED >
]>
<svg xmlns="http://www.w3.org/2000/svg"  viewBox="-0.125008 -0.125008 11.9228 7.75051"><g xmlns:fme="http://www.safe.com/fme" fill="none" stroke="black" stroke-width="0.001250082936343" transform="translate(0,7.5005) scale(1, -1)">
<g id="test" >
<path fme:_creation_instance="0" d="M 8.34104,6.63502 l -0.0127326,-1.31585 -0.000458554,-0.00864659 -0.00120482,-0.00857451 -0.00194205,-0.00843814 -0.00266472,-0.00823851 -0.00336742,-0.00797711 -0.00404486,-0.00765591 -0.00469198,-0.0072773 -0.00530393,-0.00684413 -0.0058761,-0.00635966 -0.00640423,-0.0058275 -0.00688433,-0.00525164 -0.00731283,-0.00463642 -0.00768649,-0.00398643 -0.00800253,-0.00330656 -0.00825857,-0.0026019 -0.00845269,-0.00187773 -0.00858344,-0.00113948 -0.00864983,-0.000392685 -0.00865138,0.000357052 -0.00858806,0.00110411 -0.00846035,0.00184289 -0.00826921,0.00256786 -0.00801608,0.00327357 -0.00770285,0.00395474 -0.00733186,0.00460626 -0.00690591,0.00522324 -0.00642818,0.00580107 -0.00590225,0.0063354 -0.00533207,0.00682223 -0.00472192,0.00725791 -0.00407636,0.00763918 -0.00340025,0.00796317 -0.00269863,0.00822746 -0.00197679,0.00843007 -0.00124013,0.00856947 -0.112981,1.12141 -0.000477295,0.00772703 0.000121896,0.0077408 0.000720356,0.00770817 0.0013145,0.00762935 0.00190076,0.0075048 0.00247563,0.00733526 0.00303567,0.00712177 0.00357751,0.00686559 0.113049,0.197863 0.000926373,0.0957362 -1.72496,-0.59946 -0.00825959,-0.00247679 -0.00844226,-0.00175602 -0.00856215,-0.0010222 -0.00861838,-0.000280775 -0.00861053,0.000462737 -0.00853865,0.00120281 -0.00840329,0.00193394 -0.00820544,0.00265069 -0.00794658,0.00334772 -0.00762863,0.00401987 -0.00725396,0.00466213 -0.00682535,0.00526972 -0.00634599,0.00583813 -0.00581945,0.00636313 -0.00524964,0.00684081 -0.00464079,0.00726763 -0.00399743,0.00764041 -0.00332435,0.00795638 -0.00262656,0.0082132 -0.00190923,0.00840894 -0.00117771,0.00854215 -0.000437427,0.00861185 0.000306105,0.00861752 0.00690963,0.0876891 -0.714848,-0.668992 -0.00619475,-0.00533935 -0.00661033,-0.00481529 -0.0069817,-0.00425903 -0.00730638,-0.00367429 -0.00758218,-0.00306497 -0.00780728,-0.00243515 -0.00798015,-0.00178904 -0.00809966,-0.00113097 -0.00816499,-0.00046533 -0.0081757,0.000203419 -0.00813174,0.000870808 -0.620655,0.0922694 -0.123861,-0.173836 0.0621428,-0.342321 0.00116635,-0.00847246 0.000438148,-0.00854114 -0.000293256,-0.00854734 -0.00102251,-0.00849102 -0.00174429,-0.0083726 -0.00245332,-0.00819294 -0.00314439,-0.00795335 -0.00381247,-0.00765559 -0.00445266,-0.00730183 -0.00506029,-0.00689467 -0.0056309,-0.00643708 -0.00616033,-0.0059324 -0.00664469,-0.00538433 -0.00708046,-0.00479688 -0.00746444,-0.00417435 -0.00779382,-0.00352128 -0.00806619,-0.00284246 -0.00827957,-0.00214284 -0.00843238,-0.00142755 -0.00852352,-0.000701823 -0.00855232,2.90401e-05 -0.00851856,0.000759691 -0.00842249,0.00148478 -0.00826482,0.00219902 -0.0080467,0.00289717 -0.00776972,0.00357413 -0.00743592,0.00422494 -0.00704772,0.00484486 -0.00660797,0.00542933 -0.0061199,0.0059741 -0.00558706,0.00647517 -1.23481,1.5614 -0.493573,-0.83223 -0.00475867,-0.00728202 -0.00537353,-0.0068409 -0.00594773,-0.00634802 -0.00647692,-0.00580709 -0.00695709,-0.00522223 -0.00738462,-0.00459784 -1.81411,-1.0228 -0.00760168,-0.00386829 -0.00790366,-0.00320644 -0.00814815,-0.00252126 -0.00833336,-0.00181774 -0.00845795,-0.00110099 -0.00852101,-0.000376241 -0.00852207,0.000351249 -0.00846114,0.00107618 -0.00833866,0.00179329 -0.00815551,0.00249735 -0.00791303,0.00318324 -0.00761299,0.00384598 -0.00725756,0.00448073 -0.00684933,0.00508289 -0.00639128,0.00564807 -0.00588673,0.00617216 -0.00533935,0.00665135 -0.00475313,0.00708215 -0.00413233,0.00746143 -0.00348147,0.00778643 -0.00280528,0.00805478 -0.00210869,0.00826454 -0.00139675,0.00841417 -0.000674651,0.00850259 5.23551e-05,0.00852915 0.00077898,0.00849366 0.00149994,0.00839639 0.00220999,0.00823803 0.00290395,0.00801974 0.0035768,0.0077431 0.00422362,0.00741014 0.00483971,0.00702327 0.0054206,0.0065853 0.314314,0.350269 0.039782,0.421799 -0.133813,-0.099851 -0.00721276,-0.00490735 -0.00761302,-0.00426004 -0.00795534,-0.00358031 -0.00823711,-0.00287333 -0.00845619,-0.00214449 -0.00861092,-0.00139932 -0.00870011,-0.000643507 -0.00872309,0.000117207 -0.00867968,0.000877028 -0.00857021,0.00163017 -0.00839552,0.00237091 -0.00815694,0.00309361 -0.00785627,0.00379276 -0.00749581,0.00446305 -0.00707831,0.00509937 -0.00660694,0.00569688 -0.00608528,0.00625103 -0.00551731,0.00675761 -0.00490735,0.00721276 -0.00426004,0.00761302 -0.00358031,0.00795534 -0.00287333,0.00823711 -0.00214449,0.00845619 -0.00139932,0.00861092 -0.000643507,0.00870011 0.000117207,0.00872309 0.000877028,0.00867968 0.00163017,0.00857021 0.00237091,0.00839552 0.00309361,0.00815694 0.00379276,0.00785627 0.00446305,0.00749581 0.00509937,0.00707831 0.00569688,0.00660694 0.00625103,0.00608528 0.00675761,0.00551731 0.314325,0.234548 0.00705441,0.00480923 0.00743892,0.00418996 0.00776921,0.00354015 0.00804287,0.00286454 0.0082579,0.00216804 0.00841274,0.00145574 0.00850625,0.00073283 0.00853776,4.57769e-06 0.00850703,-0.000723708 0.0084143,-0.00144672 0.00826022,-0.00215918 0.00804594,-0.00285591 0.00777301,-0.00353182 0.00744341,-0.00418198 0.00705956,-0.00480166 0.00662425,-0.00538634 0.00614066,-0.00593175 0.0056123,-0.00643393 0.00504303,-0.00688921 0.004437,-0.00729427 0.00379863,-0.00764616 0.00313257,-0.00794232 0.00244367,-0.00818058 0.00173697,-0.00835921 0.0010176,-0.0084769 0.000290811,-0.00853281 -0.000438095,-0.00852651 -0.0640283,-0.678876 -0.000180046,-0.0017451 -0.000210633,-0.00174167 -0.000241154,-0.00173771 1.30645,0.736583 0.519089,0.875253 -0.0177994,0.022507 -0.00503215,0.00695736 -0.00441676,0.0073634 -0.0037688,0.00771515 -0.00309306,0.00801001 -0.00239452,0.00824583 -0.00167832,0.00842084 -0.000949746,0.00853378 -0.000214171,0.00858379 0.000522983,0.00857052 0.00125628,0.00849406 0.00198032,0.00835498 0.00268975,0.0081543 0.00337936,0.0078935 0.00404405,0.0075745 0.00467892,0.00719966 0.0052793,0.00677173 0.348869,0.409906 0.00577088,0.00622472 0.00627798,0.00571289 0.00673985,0.0051599 0.00715316,0.00456973 0.00751493,0.00394664 0.00782256,0.00329511 0.00807382,0.00261984 0.00826691,0.0019257 0.00840044,0.00121768 0.00847344,0.000500882 0.0084854,-0.00021952 0.00843621,-0.000938341 0.00832624,-0.0016504 0.00815628,-0.00235057 0.00792756,-0.0030338 0.00764172,-0.00369518 0.00730081,-0.00432993 0.00690731,-0.00493348 0.00646404,-0.00550149 0.00597419,-0.00602986 0.0054413,-0.00651478 0.00486921,-0.00695277 0.00426203,-0.00734066 0.00362415,-0.00767566 0.00296015,-0.00795535 0.00227483,-0.00817773 0.00157311,-0.00834119 0.000860062,-0.00844455 0.000140816,-0.00848707 -0.000579444,-0.00846843 -0.00129553,-0.00838879 -0.00200228,-0.0082487 -0.00269461,-0.00804918 -0.00336752,-0.00779166 -0.00401616,-0.00747801 -0.253365,-0.427207 1.03466,-1.30831 -0.000362231,0.00781762 0.000250216,0.007822 0.000861131,0.00777848 0.00146677,0.00768732 0.00206343,0.00754908 0.00264745,0.0073646 0.00321525,0.00713502 0.00376337,0.00686173 0.00428843,0.00654643 0.0891781,0.125159 -0.155131,0.0230625 -0.00853848,0.00165169 -0.00836269,0.00238732 -0.00812364,0.00310488 -0.00782315,0.00379897 -0.00746349,0.00446432 -0.00704738,0.00509591 -0.00657797,0.00568895 -0.0060588,0.00623896 -0.00549382,0.00674179 -0.00488728,0.00719363 -0.00424377,0.00759106 -0.00356817,0.00793107 -0.00286558,0.0082111 -0.00214132,0.00842903 -0.00140086,0.0085832 -0.000649812,0.00867246 0.000106156,0.00869612 0.000861321,0.00865401 0.00160997,0.00854645 0.00234644,0.00837425 0.00306517,0.0081387 0.00376071,0.00784161 0.00442781,0.0074852 0.00506142,0.00707218 0.00565675,0.00660567 0.0062093,0.0060892 0.00671488,0.00552668 0.00716967,0.00492235 0.00757024,0.0042808 0.00791355,0.00360687 0.00819701,0.00290565 0.00841847,0.00218247 0.412877,0.088073 0.0084493,0.00142697 0.00854044,0.00069838 0.00856887,-3.53381e-05 0.00853439,-0.000768796 0.00843724,-0.00149661 0.00827814,-0.00221343 0.00805825,-0.002914 0.0077792,-0.00359318 0.00744302,-0.00424597 0.00705219,-0.00486759 0.00660959,-0.00545346 0.00611845,-0.00599929 0.00558238,-0.00650107 0.00500532,-0.00695511 0.00439151,-0.00735809 0.00374546,-0.00770703 0.0030719,-0.00799939 0.00237579,-0.00823301 0.00166223,-0.00840618 0.000936472,-0.00851762 0.000203834,-0.00856652 -0.000530301,-0.00855252 -0.00126054,-0.00847572 -0.00198153,-0.00833669 -0.00268796,-0.00813644 -0.00337466,-0.00787645 -0.00403658,-0.00755863 -0.00466886,-0.0071853 -0.00156764,-0.00220014 0.472023,-0.070173 0.867862,0.81219 0.0065063,0.0055854 0.00696088,0.00500747 0.00736428,0.00439273 0.00771353,0.00374568 0.00800606,0.00307109 0.00823973,0.00237392 0.00841281,0.00165929 0.00852403,0.000932469 0.00857258,0.000198787 0.00855809,-0.000536357 0.00848068,-0.00126756 0.00834091,-0.00198944 0.00813981,-0.00269669 0.00787886,-0.00338411 0.00755998,-0.00404665 0.00718551,-0.00467944 0.0067582,-0.00527782 0.00628121,-0.00583739 0.00575802,-0.00635404 0.0051925,-0.00682397 0.0045888,-0.00724372 0.00395136,-0.00761021 0.00328487,-0.00792075 0.00259422,-0.00817304 0.0018845,-0.00836524 0.00116092,-0.00849593 0.000428808,-0.00856416 -0.00030646,-0.00856941 -0.0151459,-0.192214 1.71462,0.595866 0.00782167,0.00236475 0.00798863,0.00171826 0.00810225,0.00106029 0.00816177,0.00039524 0.00816679,-0.000272448 0.00811728,-0.000938316 0.00801357,-0.00159792 0.00785635,-0.00224685 0.00764668,-0.00288078 0.00738595,-0.00349548 0.0070759,-0.00408684 0.00671861,-0.00465091 0.00631646,-0.00518392 0.00587213,-0.00568232 0.0972835,0.17027 0.00445326,0.00708805 0.00503047,0.00669076 0.00557244,0.00624659 0.00607535,0.00575866 0.00653569,0.00523036 0.00695024,0.00466542 0.00731609,0.00406779 0.00763066,0.00344165 0.00789177,0.0027914 0.00809758,0.00212158 0.00824665,0.0014369 0.00833794,0.000742153 0.0083708,4.22042e-05 0.008345,-0.000658041 0.00826072,-0.00135367 0.00811857,-0.00203982 0.00791952,-0.00271168 0.00766498,-0.00336453 0.00735673,-0.00399381 0.00699693,-0.0045951 1.03713,-0.745061 0.00603048,-0.00469161 0.00565467,-0.00513834 0.00524586,-0.00555508 0.00480642,-0.00593938 1.05101,-1.40533 0.493367,0.132626 0.00851555,0.00189509 0.00864832,0.0011457 0.00871526,0.000387592 0.00871588,-0.000373468 0.00865016,-0.00113169 0.00851861,-0.00188129 0.00832223,-0.00261658 0.00806251,-0.00333195 0.00774144,-0.00402197 0.00736144,-0.00468137 0.00692542,-0.00530515 0.00643669,-0.00588855 0.00589898,-0.00642714 0.00531637,-0.00691681 0.0046933,-0.00735384 0.00403451,-0.00773491 0.00334501,-0.0080571 0.00263006,-0.00831798 0.00189509,-0.00851555 0.0011457,-0.00864832 0.000387592,-0.00871526 -0.000373468,-0.00871588 -0.00113169,-0.00865016 -0.00188129,-0.00851861 -0.00261658,-0.00832223 -0.00333195,-0.00806251 -0.00402197,-0.00774144 -0.00468137,-0.00736144 -0.00530515,-0.00692542 -0.00588855,-0.00643669 -0.00642714,-0.00589898 -0.00691681,-0.00531637 -0.00735384,-0.0046933 -0.00773491,-0.00403451 -0.0080571,-0.00334501 -0.00831798,-0.00263006 -0.558818,-0.15022 -0.00830132,-0.0018569 -0.0084291,-0.00114467 -0.00849589,-0.000424159 -0.0085012,0.000299422 -0.00844499,0.00102084 -0.00832768,0.00173486 -0.00815011,0.00243634 -0.00791356,0.00312018 -0.00761975,0.00378145 -0.00727081,0.00441535 -0.00686925,0.00501731 -0.00641799,0.00558296 -0.00592029,0.00610821 -0.00537975,0.00658926 -1.08238,1.44727 -0.934498,0.67133 -0.191116,-0.3345 z "/>
<path fme:_creation_instance="0" d="M 3.97943,1.89848 l 0.283807,2.497 -0.195369,-0.259929 -0.0884383,-2.23707 z M 2.77505,1.65238 l -0.0521621,0.493454 -0.032281,-0.491802 0.0844431,-0.0016515 z M 2.84236,3.96589 l -0.0424239,-0.646331 0.176652,-1.67113 0.710561,-0.0138968 -0.460932,2.14816 -0.287168,0.429745 0.00319129,-0.00755044 0.00256217,-0.00778645 0.00191583,-0.00797014 0.00125662,-0.00810027 0.00058896,-0.00817598 -8.26539e-05,-0.00819675 -0.000753713,-0.00816244 -0.00141971,-0.00807329 -0.00207616,-0.00792988 -0.00271867,-0.0077332 -0.0033429,-0.00748455 -0.00394468,-0.00718561 -0.0918644,-0.152199 z M 1.53481,1.67663 l 0.955623,-0.0186896 0.108803,1.65763 -0.0222665,0.210642 -1.05663,-1.7506 0.0144658,-0.0989825 z M 1.43458,0.979442 l -0.0731518,0.500544 -0.07702,0.00150632 -0.00870603,0.000550833 -0.0086249,0.00130748 -0.00847813,0.00205418 -0.00826685,0.00278524 -0.00799266,0.00349511 -0.00765764,0.00417838 -0.00726435,0.00482986 -0.00681579,0.00544458 -0.00631535,0.00601787 -0.00576685,0.00654536 -0.00517447,0.00702305 -0.00454272,0.00744729 -0.00387639,0.00781486 -0.00318057,0.00812295 -0.00246054,0.00836924 -0.00172179,0.00855183 -0.000969931,0.00866935 -0.000210694,0.00872089 0.000550145,0.00870607 0.0013068,0.008625 0.00205351,0.0084783 0.00278459,0.00826707 0.00349448,0.00799293 0.00417778,0.00765797 0.111337,0.18446 -0.0443074,0.303175 -0.184453,-1.06062 0.351254,-0.0807166 z M 2.87463,0.7104 l -0.381032,0.27147 -0.00668774,0.0052057 -0.00622294,0.00575328 -0.00571344,0.00625953 -0.0051629,0.00672083 -0.00457529,0.00713386 -0.00395481,0.00749564 -0.00330592,0.00780359 -0.00263329,0.00805549 -0.00194175,0.00824953 -0.00123625,0.00838432 -0.000521885,0.00845889 0.000196234,0.0084727 0.0254872,0.388299 -0.913192,0.0178598 0.0795964,-0.544641 1.2376,-0.284395 -0.00670341,0.0634143 z M 2.84656,0.975969 l -0.0503124,0.475955 -0.118746,0.00232237 -0.022438,-0.341844 0.191496,-0.136433 z M 3.76088,1.43306 l -0.763102,0.0149244 0.0662759,-0.62697 0.654204,-0.466094 0.0426222,1.07814 z M 9.95817,1.86368 l -0.0952199,-0.153489 0.245365,-0.337106 0.0613858,-0.00492069 -0.211531,0.495515 z M 9.86223,2.08841 l -0.12935,0.303006 -0.625995,-0.938065 0.738734,-0.0592169 -0.183963,0.252746 -0.0046836,0.00704257 -0.00407174,0.00741315 -0.00343075,0.00773071 -0.00276522,0.00799296 -0.00207991,0.00819804 -0.00137972,0.00834447 -0.000669657,0.00843122 4.51934e-05,0.00845765 0.00075972,0.00842358 0.00146881,0.00832925 0.0021674,0.00817534 0.00285048,0.00796295 0.00351317,0.0076936 0.00415073,0.00736921 0.2047,0.329965 z M 10.7836,3.96596 l -0.91811,-1.3758 0.125546,-0.294095 1.23161,1.98529 -0.439051,-0.315394 z M 10.3218,3.6342 l -0.690284,-0.495868 0.140205,-0.328434 0.550078,0.824302 z M 7.05902,3.36831 l -0.0482048,0.509797 -0.16818,0.0601332 0.216385,-0.569931 z M 5.63947,3.90468 l -0.117263,-0.737003 0.270167,-0.456053 0.703226,1.7534 -0.856129,-0.560343 z M 5.41342,3.75673 l -0.173059,-0.113268 0.122213,-0.2063 0.050846,0.319568 z M 5.2536,2.75229 l 0.0597529,0.375548 -0.205569,0.34701 -0.172162,-0.237948 0.317978,-0.484611 z M 5.59811,2.22724 l 0.100424,0.250393 -0.225538,0.380718 -0.0564001,-0.354476 0.181514,-0.276635 z M 5.88858,1.48989 l -0.152689,0.165281 -0.00362195,0.00414384 -0.00338849,0.00433682 -0.00314476,0.00451667 -0.0846372,0.12899 -0.0928707,-0.23156 0.340352,-0.075708 z M 6.48344,1.15268 l -0.013917,0.0030957 0.0336817,-0.0364594 -0.0197647,0.0333637 z M 6.34364,1.38866 l -0.516615,0.87207 -0.0951781,-0.237314 0.156568,-0.238616 0.342872,-0.371148 0.112353,-0.0249919 z M 7.67378,1.09279 l -0.461855,0.763949 -0.00363219,0.0065501 -0.00313176,0.00680358 -0.00261376,0.0070189 -0.0020811,0.00719484 -0.00153676,0.00733042 -0.000983807,0.00742487 -0.0679786,0.718918 -0.551244,1.45191 -0.00243232,0.00722512 -0.00187484,0.00738942 -0.00130647,0.00751077 -0.0007305,0.00758847 -0.000150287,0.00762207 0.0004308,0.00761137 0.00100938,0.00755643 -0.652798,-1.62766 0.690512,-1.16561 1.0624,-0.23632 z M 7.81689,0.856065 l -1.06571,0.237058 0.405404,-0.68434 0.00406829,-0.00759584 0.00339928,-0.00791786 0.00270504,-0.00818111 0.00199071,-0.0083836 0.0012616,-0.00852385 0.000523122,-0.00860082 -0.00021924,-0.00861392 -0.000959974,-0.00856307 -0.00169358,-0.00844864 -0.00241461,-0.00827148 -0.00311772,-0.00803291 -0.00379767,-0.00773469 -0.00444943,-0.00737904 -0.00506815,-0.00696861 -0.00564924,-0.00650644 -0.00618839,-0.00599596 -0.00668159,-0.00544096 -0.00712519,-0.00484556 -0.00751587,-0.00421418 -0.00785076,-0.00355152 -0.00812735,-0.00286249 -0.00834361,-0.0021522 -0.00849791,-0.00142593 -0.00858911,-0.000689078 -0.00861655,5.28919e-05 -0.00858001,0.000794469 -0.00847976,0.00153015 -0.00831656,0.00225447 -0.0080916,0.00296204 -0.00780657,0.00364763 -0.00746357,0.00430613 -0.00706516,0.00493267 -0.0066143,0.00552257 -0.00611432,0.00607148 -0.870278,0.942049 -0.736939,0.163925 -0.00836786,0.00224585 -0.00814206,0.00296173 -0.00785513,0.00365538 -0.00750925,0.00432159 -0.00710699,0.00495536 -0.00665139,0.00555194 -0.00614585,0.00610683 -0.00559419,0.00661589 -0.00500053,0.00707528 -0.00436933,0.00748157 -0.00370534,0.00783169 -0.00301353,0.00812303 -0.0022991,0.00835339 -0.00156741,0.00852104 -0.000823961,0.00862473 -7.4323e-05,0.00866368 0.000675873,0.0086376 0.001421,0.00854668 0.00215545,0.0083916 0.00287373,0.00817353 0.188585,0.47021 -0.137453,0.209483 -0.0616122,-0.387234 -0.00173394,-0.00850206 -0.00246445,-0.00831974 -0.0031764,-0.00807478 -0.00386444,-0.00776902 -0.00452338,-0.00740477 -0.00514826,-0.00698477 -0.00573438,-0.00651217 -1.28869,-1.34137 -0.00586417,-0.00562717 -0.00630176,-0.00513238 -0.00669773,-0.00460369 -0.00704946,-0.00404459 -0.00735462,-0.00345877 -0.00761121,-0.0028501 -0.00781752,-0.00222261 -0.00797219,-0.00158044 -0.0080742,-0.000927831 -0.00812288,-0.000269092 -0.00930524,-0.235378 -0.000708746,-0.00856938 -0.0014423,-0.00847682 -0.00216518,-0.00832158 -0.00287206,-0.00810481 -0.0035577,-0.00782812 -0.00421704,-0.00749355 -0.00484519,-0.00710357 -0.00543753,-0.00666108 -0.00598966,-0.00616933 -0.0064975,-0.00563197 -0.00695731,-0.00505297 -0.00736567,-0.00443661 -0.00771958,-0.00378744 -0.00801641,-0.00311028 -0.00825397,-0.00241011 -0.0084305,-0.00169213 -0.0085447,-0.000961638 -0.00859572,-0.000224034 -0.00858319,0.000515226 -0.0085072,0.00125068 -0.00836831,0.00197688 -0.00816754,0.00268847 -0.00790639,0.00338018 -0.00758678,0.00404689 -0.00721108,0.00468369 -0.660721,0.470737 0.00283188,-0.0267896 0.000536281,-0.00862605 -0.000210549,-0.00864014 -0.000955807,-0.00858969 -0.00169393,-0.00847508 -0.00241939,-0.00829716 -0.00312678,-0.00805727 -0.00381082,-0.00775719 -0.00446639,-0.00739917 -0.0050886,-0.00698588 -0.0056728,-0.0065204 -0.00621463,-0.00600622 -0.00671003,-0.00544718 -0.00715532,-0.00484745 -0.00754715,-0.00421151 -0.00788261,-0.00354411 -0.00815919,-0.00285024 -0.00837483,-0.00213508 -0.00852791,-0.00140397 -0.00861729,-0.000662375 -0.00864229,8.41699e-05 -0.00860275,0.000830086 -0.00849895,0.0015698 -1.30205,0.299206 -0.00133146,-0.00810248 -0.00199172,-0.00796592 -0.00263854,-0.00777567 -0.00326758,-0.00753298 -0.00387459,-0.00723951 -0.00445547,-0.00689722 -0.00500632,-0.00650843 -0.0055234,-0.00607576 -0.00600325,-0.00560213 -0.00644263,-0.00509072 -0.00683856,-0.00454499 -0.00718839,-0.00396862 -0.00748975,-0.00336549 -0.00774061,-0.00273967 -0.00793929,-0.00209538 -0.00808443,-0.00143696 -0.910562,-0.123529 -0.00853123,-0.000786999 -0.00856728,-5.38724e-05 -0.00854045,0.000679649 -0.00845093,0.00140818 -0.00829938,0.00212638 -0.00808691,0.00282897 -0.00781509,0.00351079 -0.00748589,0.00416685 -0.00710176,0.00479231 -0.00666549,0.00538261 -0.0061803,0.00593339 -0.00564974,0.00644062 -0.00507772,0.00690058 -0.00446842,0.00730989 -0.00382632,0.00766554 -0.00315614,0.00796492 -0.0024628,0.00820584 -0.00175137,0.00838653 -0.00102709,0.00850566 -0.198272,2.55914 -0.154122,0.551784 0.0270888,-2.26081 -0.000276081,-0.00871951 -0.00103499,-0.00866227 -0.00178601,-0.0085391 -0.00252345,-0.00835094 -0.00324168,-0.00809923 -0.00393524,-0.00778588 -0.00459885,-0.00741327 -0.00522746,-0.00698425 -0.00581628,-0.00650207 -0.00636084,-0.0059704 -0.00685699,-0.0053933 -0.00730096,-0.00477515 -0.00768936,-0.00412066 -0.00801923,-0.00343481 -0.00828808,-0.00272282 -0.00849385,-0.0019901 -0.00863498,-0.00124224 -0.00871039,-0.000484925 -0.00871951,0.000276081 -0.00866227,0.00103499 -0.0085391,0.00178601 -0.00835094,0.00252345 -0.00809923,0.00324168 -0.00778588,0.00393524 -0.00741327,0.00459885 -0.00698425,0.00522746 -0.00650207,0.00581628 -0.0059704,0.00636084 -0.0053933,0.00685699 -0.00477515,0.00730096 -0.00412066,0.00768936 -0.00343481,0.00801923 -0.00272282,0.00828808 -0.0019901,0.00849385 -0.00124224,0.00863498 -0.000484925,0.00871039 -0.0362391,3.02448 0.000257405,0.00846767 0.000973184,0.0084155 0.00168198,0.00830293 0.0023787,0.00813078 0.00305835,0.00790027 0.00371606,0.00761306 0.00434709,0.00727121 0.00494692,0.00687719 0.00551126,0.0064338 0.00603603,0.00594424 0.00651749,0.00541202 0.00695218,0.00484096 0.00733697,0.00423516 0.00766911,0.00359896 0.0079462,0.00293694 0.00816627,0.00225383 0.00832773,0.00155455 0.00842942,0.000844119 0.00847062,0.000127625 0.00845103,-0.000589785 0.00837078,-0.00130296 0.00823046,-0.00200679 0.00803108,-0.00269621 0.00777405,-0.00336629 0.00746123,-0.0040122 0.00709487,-0.00462932 0.00667758,-0.00521322 0.00621238,-0.0057597 0.00570258,-0.00626484 0.00515186,-0.00672503 0.00456417,-0.00713695 0.00394372,-0.00749765 0.00329497,-0.00780454 0.00262257,-0.00805542 0.36221,-1.29678 0.00154435,-0.00631447 0.00113083,-0.00640147 0.000712526,-0.00646142 0.190846,-2.46329 0.572073,0.0776088 -0.378658,0.0870138 -0.00812508,0.00223133 -0.00790839,0.00290742 -0.00763556,0.00356286 -0.00730852,0.004193 -0.00692959,0.00479338 -0.00650147,0.00535973 -0.00602718,0.00588802 -0.00551011,0.00637451 -0.00495392,0.00681575 -0.00436255,0.0072086 -0.00374022,0.00755027 -0.00309133,0.00783833 -0.00242049,0.00807075 -0.00173247,0.00824586 -0.00103215,0.00836244 -0.0003245,0.00841965 0.000385453,0.00841708 0.00109267,0.00835475 0.305038,1.754 -0.0617969,0.422848 -0.000811153,0.00753749 -0.000237815,0.00757728 0.000336891,0.00757352 0.00090966,0.00752624 0.0014772,0.0074357 0.00203625,0.00730243 0.0025836,0.00712719 0.245601,0.604906 0.00357915,0.00783016 0.00423939,0.00749328 0.00486821,0.00710086 0.00546094,0.00665581 0.0060132,0.00616143 0.00652088,0.00562137 0.00698023,0.00503965 0.00738784,0.00442057 0.0077407,0.00376873 0.00803617,0.00308896 0.00827208,0.00238628 0.00844668,0.00166592 0.00855867,0.000933214 0.00860722,0.000193589 0.00859197,-0.000547472 0.00851304,-0.00128447 0.00837101,-0.00201196 0.00816693,-0.00272452 0.00790231,-0.0034169 0.00757912,-0.00408395 0.00719976,-0.00472072 0.00676703,-0.00532251 0.00628413,-0.00588484 0.00575467,-0.00640356 0.00518254,-0.00687481 0.004572,-0.0072951 0.00392758,-0.00766132 0.00325404,-0.00797076 0.00255638,-0.00822111 0.00183978,-0.00841053 0.00110953,-0.0085376 0.000371065,-0.0086014 -0.000370152,-0.00860144 -0.00110863,-0.00853772 -0.178749,-1.02782 0.0972019,-0.665107 1.06735,1.76836 -0.0995415,0.941663 -0.000533061,0.00846246 0.000185762,0.0084772 0.00090325,0.00843099 0.00161424,0.00832416 0.00231363,0.00815748 0.00299638,0.00793216 0.00365759,0.0076498 0.00429251,0.00731244 0.00489656,0.00692251 0.0054654,0.00648281 0.00599495,0.0059965 0.0064814,0.00546707 0.00692125,0.00489834 0.00731134,0.00429439 0.00764886,0.00365956 0.00793139,0.00299842 0.00815689,0.00231573 0.00832375,0.00161638 0.00843076,0.000905417 0.00847715,0.000187941 0.0084626,-0.000530886 0.0083872,-0.0012459 0.00825151,-0.00195195 0.00805648,-0.00264397 0.00780353,-0.00331698 0.00749448,-0.00396614 0.00713154,-0.00458678 0.00671733,-0.00517445 0.00625482,-0.00572491 0.00574734,-0.00623422 0.00519854,-0.0066987 0.00461237,-0.00711502 0.00399303,-0.00748018 0.0780137,-0.162361 0.00603901,0.00628054 0.00656279,0.00573103 0.00703675,0.00513801 0.00745728,0.00450598 0.0078212,0.00383975 0.00812575,0.00314436 0.00836862,0.00242511 0.00854795,0.00168745 0.00866239,0.000936974 0.00871107,0.000179387 0.00869362,-0.000579561 0.00861017,-0.00133411 0.00846136,-0.00207853 0.00824831,-0.00280717 0.00797265,-0.0035145 0.00763646,-0.00419515 0.0072423,-0.00484396 0.00679317,-0.00545599 0.00629246,-0.0060266 0.00574398,-0.00655146 0.00515189,-0.00702658 0.534732,-0.800222 0.00395607,-0.00643355 0.00345924,-0.00671378 0.00294267,-0.0069557 0.00240932,-0.00715795 0.00186222,-0.00731937 0.370203,-1.72531 0.0813039,2.0566 0.000714008,0.00861101 0.00145469,0.00851723 0.00218451,0.00835986 0.00289802,0.00814007 0.00358989,0.00785952 0.00425496,0.00752028 0.00488826,0.0071249 0.43492,0.57864 0.00552347,0.00671912 0.00608646,0.00621373 0.00660339,0.00566132 0.00707037,0.00506609 0.00748386,0.00443252 0.00784072,0.00376543 0.00813827,0.00306984 0.00837425,0.00235103 0.00854687,0.00161443 0.00865483,0.000865622 0.00869731,0.000110262 0.00867399,-0.000645933 0.00858505,-0.00139724 0.00843116,-0.00213798 0.00821348,-0.00286254 0.00793366,-0.00356544 0.00759382,-0.00424137 0.00719653,-0.00488522 0.00674479,-0.0054921 0.00624203,-0.00605743 0.00569204,-0.00657694 0.00509898,-0.00704668 0.00446735,-0.00746312 0.00380193,-0.00782309 0.00310774,-0.00812388 0.00239003,-0.0083632 0.00165425,-0.00853925 0.000905948,-0.0086507 0.000150794,-0.0086967 -0.000605501,-0.00867691 -0.449856,-3.95793 1.0621,1.10552 0.0912095,0.573254 -0.476326,0.725939 -0.00441342,0.00740327 -0.00375953,0.00775581 -0.00307771,0.00805074 -0.00237304,0.00828586 -0.00165073,0.00845942 -0.00091616,0.00857014 -0.000174785,0.0086172 0.000567888,0.00860025 0.00130634,0.0085194 0.00203509,0.00837527 0.00274873,0.00816892 0.00344194,0.00790188 0.00410958,0.00757615 0.0047467,0.00719413 0.272402,0.376491 0.000342237,0.00824967 0.00102165,0.00819332 0.00169409,0.00808111 0.00235498,0.0079138 0.00299982,0.00769255 0.00362421,0.00741885 0.00422389,0.00709457 0.00479478,0.00672193 0.00533297,0.00630346 0.00583481,0.00584202 0.00629688,0.00534075 0.00671601,0.00480307 0.0290447,0.01901 0.445795,0.61614 0.00534924,0.00675947 0.00591149,0.00627368 0.00642982,0.00574127 0.00690037,0.00516621 0.00731965,0.00455275 0.00768454,0.00390547 0.00799233,0.00322917 0.00824073,0.00252887 0.0084279,0.00180978 0.00855245,0.00107724 0.00861345,0.000336703 0.00861044,-0.000406339 0.00854346,-0.00114636 0.00841299,-0.00187787 0.00822001,-0.00259542 0.00796596,-0.00329368 0.00765271,-0.00396748 0.0072826,-0.00461179 0.00685837,-0.00522183 0.00638319,-0.00579308 0.00586057,-0.00632128 0.00529441,-0.0068025 0.00468891,-0.00723319 0.00404856,-0.00761012 0.00337814,-0.00793051 0.00268261,-0.00819197 0.00196715,-0.00839256 0.00123707,-0.0085308 0.000497802,-0.00860564 -0.000245166,-0.00861654 -0.000986313,-0.00856341 -0.0235091,-0.147755 0.969999,0.634871 0.00724773,0.00431835 0.00758593,0.00369206 0.00787015,0.00303948 0.00809834,0.00236528 0.00826889,0.00167424 0.00838059,0.00097128 0.00843264,0.000261408 0.00842466,-0.000450324 0.00835672,-0.00115885 0.0082293,-0.00185913 0.0080433,-0.00254617 0.00780005,-0.0032151 0.00750129,-0.00386113 0.00714913,-0.00447969 0.00674609,-0.00506636 0.00629502,-0.00561697 0.00579916,-0.0061276 0.00526201,-0.00659461 0.00468741,-0.00701469 0.00407945,-0.00738483 0.00344245,-0.00770241 0.00278095,-0.00796517 0.00209966,-0.00817124 0.00140342,-0.00831914 0.000697186,-0.00840783 -1.4006e-05,-0.00843667 -0.000725098,-0.00840547 -0.00143103,-0.00831443 -0.00212678,-0.00816422 -0.00280738,-0.0079559 -0.210277,-0.524298 0.00488902,0.00665988 0.00542209,0.00623358 0.00591815,0.00576472 0.00637381,0.00525653 0.00678597,0.00471245 0.00715181,0.0041362 0.00746883,0.00353173 0.00773488,0.00290314 0.00794812,0.00225474 0.00810712,0.00159096 0.00821078,0.000916308 0.0082584,0.000235406 0.00824964,-0.000447104 0.00818458,-0.00112656 0.00806366,-0.00179833 0.00788769,-0.00245782 0.432168,-0.154523 0.00806933,-0.00328839 0.00775243,-0.00397837 0.00737667,-0.00463814 0.0069449,-0.0052627 0.00646039,-0.0058473 0.00592684,-0.0063875 0.00534828,-0.00687921 0.00472912,-0.00731868 0.00407405,-0.00770258 0.00338804,-0.008028 0.00267631,-0.00829246 0.00194426,-0.00849397 0.00119745,-0.00863097 0.122599,-1.29656 0.622553,-1.63973 0.269198,-0.445277 -0.611096,4.09465 -0.000901266,0.00853268 -0.000166505,0.00857853 0.000569481,0.00856123 0.00130127,0.0084809 0.00202349,0.00833813 0.00273081,0.00813398 0.00341802,0.00786995 0.00408007,0.00754798 0.00471208,0.00717044 0.00530941,0.00674012 0.00586764,0.00626017 0.00638268,0.00573414 0.00685073,0.00516589 0.00726835,0.00455961 0.00763246,0.00391977 0.00794037,0.00325107 0.00818984,0.00255843 0.665846,0.177038 0.00822151,0.00181914 0.0083454,0.00112102 0.00841013,0.00041496 0.00841522,-0.000294046 0.00836065,-0.00100097 0.0082468,-0.00170079 0.00807448,-0.00238856 0.00784491,-0.00305939 0.00755972,-0.00370853 0.00722092,-0.00433137 0.00683093,-0.0049235 0.0063925,-0.00548073 0.00590875,-0.00599909 0.00538311,-0.00647492 0.0048193,-0.00690484 0.00422132,-0.00728581 0.0035934,-0.00761511 0.00294001,-0.00789042 0.00226578,-0.00810979 0.00157548,-0.00827166 0.324858,-2.20772 0.589691,1.79656 0.00300824,0.00799504 0.0036796,0.00770913 0.00432411,0.00736697 0.00493707,0.00697105 0.00551399,0.00652427 0.00605069,0.00602987 0.00654323,0.00549148 0.00698803,0.00491302 0.00738183,0.0042987 0.00772177,0.00365302 0.00800536,0.00298068 0.00823054,0.00228659 0.00839566,0.00157581 0.00849951,0.000853538 0.00854135,0.000125036 0.00852085,-0.000604378 0.00843818,-0.00132938 0.00829394,-0.00204469 1.224,-0.357848 0.781895,0.561677 0.00718359,0.00470631 0.0075609,0.00407259 0.00788245,0.00340885 0.00814586,0.00271996 0.0083492,0.00201101 0.00849096,0.00128723 0.00857009,0.000553951 0.00858601,-0.00018341 0.00853862,-0.000919418 0.00842824,-0.00164865 0.00825571,-0.00236571 0.00802228,-0.00306533 0.00772969,-0.00374235 0.00738009,-0.00439176 0.00697606,-0.00500878 0.00652058,-0.00558886 0.00601701,-0.00612772 0.00546906,-0.00662138 0.00488077,-0.00706621 0.00425649,-0.00745893 0.00360081,-0.00779663 0.00291858,-0.00807683 0.00221482,-0.00829746 0.00149473,-0.00845689 0.000763609,-0.00855396 2.68588e-05,-0.00858793 -0.000710089,-0.00855857 -0.0014418,-0.00846608 -0.00216288,-0.00831115 -0.002868,-0.00809493 -0.00355197,-0.007819 -0.00420975,-0.0074854 -1.57072,-2.53192 0.331609,-0.776802 0.00301973,-0.00800624 0.00232422,-0.00823508 0.0016117,-0.00840363 0.000887379,-0.00851065 0.000156559,-0.00855535 -0.000575407,-0.00853742 -0.00130316,-0.00845697 -0.00202137,-0.0083146 -0.00272478,-0.00811136 -0.00340824,-0.00784872 -0.00406675,-0.00752862 -0.00469548,-0.00715339 -0.00528983,-0.00672579 -0.00584545,-0.00624894 -0.00635827,-0.00572634 -0.00682453,-0.00516181 -0.00724083,-0.00455949 -0.00760411,-0.00392378 -0.00791172,-0.00325935 -0.00816139,-0.00257105 -0.00835131,-0.00186392 -0.00848008,-0.00114315 -0.00854677,-0.000414004 -0.00855087,0.000318171 -0.055235,0.00442764 0.624948,-0.858613 0.0046994,-0.00706866 0.004083,-0.00744173 0.00343719,-0.00776118 0.00276662,-0.00802472 0.00207611,-0.00823043 0.00137064,-0.00837685 0.000655294,-0.00846291 -6.47719e-05,-0.00848799 -0.000784371,-0.00845192 -0.00149832,-0.00835495 -0.00220147,-0.00819779 -0.00288876,-0.00798156 -0.00355524,-0.00770782 -0.0041961,-0.00737855 -0.00480673,-0.00699611 -0.00538272,-0.00656327 -0.00591994,-0.00608314 -0.00641449,-0.00555918 -0.00686284,-0.00499517 -0.00726173,-0.00439516 -0.00760831,-0.00376349 -0.00790007,-0.0031047 -0.0081349,-0.00242354 -0.00831113,-0.00172493 -0.00842747,-0.00101388 -0.00848309,-0.000295527 -0.0084776,0.000424954 -0.00841102,0.00114237 -0.00828384,0.00185156 -0.00809697,0.00254741 -0.00785177,0.0032249 -0.00754999,0.00387916 -0.00719381,0.00450547 -0.00678581,0.00509932 -0.00632891,0.00565643 -0.00582641,0.00617278 -0.00528193,0.00664465 -0.725941,0.997367 -1.07948,0.0865308 -0.00859514,0.00106525 -0.00847073,0.00180497 -0.00828278,0.00253115 -0.0080327,0.00323835 -0.00772237,0.00392126 -0.00735411,0.00457475 -0.00693068,0.00519392 -0.00645527,0.00577414 -0.00593143,0.00631104 -0.00536311,0.00680061 -0.00475455,0.00723916 -0.00411033,0.00762341 -0.00343528,0.00795048 -0.00273446,0.0082179 -0.00201312,0.00842369 -0.00127669,0.00856629 -0.000530682,0.00864463 0.000219309,0.00865812 0.000967654,0.00860667 0.00170874,0.00849067 0.00243701,0.00831097 0.003147,0.00806893 0.00383338,0.00776636 0.00449101,0.00740554 0.793035,1.18838 -0.222992,0.522365 -0.00298416,0.00789836 -0.00230724,0.00812194 -0.00161387,0.00828762 -0.00090899,0.00839422 -0.000197633,0.00844098 0.000515134,0.00842757 0.00122423,0.00835407 0.00192459,0.00822102 0.00261124,0.00802936 0.00327927,0.00778046 0.00392392,0.0074761 0.0045406,0.00711844 0.00512491,0.00671003 0.00567269,0.00625379 0.00618002,0.00575296 0.0066433,0.00521112 1.07662,0.773396 -0.981069,0.286825 -0.684378,-2.08503 0.0612423,-0.4162 0.000891483,-0.00866379 0.000134241,-0.0087085 -0.000624019,-0.00868716 -0.00137755,-0.00859991 -0.00212062,-0.00844743 -0.00284761,-0.00823087 -0.003553,-0.00795187 -0.00423144,-0.00761255 -0.00487778,-0.00721549 -0.00548712,-0.00676369 -0.00605484,-0.00626059 -0.00657662,-0.00571 -0.00704852,-0.00511609 -0.00746695,-0.00448338 -0.00782875,-0.00381665 -0.00813115,-0.00312097 -0.00837187,-0.00240162 -0.00854909,-0.00166405 -0.00866146,-0.000913862 -0.00870813,-0.000156738 -0.00868874,0.000601575 -0.00860344,0.00135532 -0.00845288,0.00209879 -0.0082382,0.00282634 -0.00796102,0.00353245 -0.00762346,0.00421176 -0.00722807,0.00485913 -0.00677785,0.00546963 -0.00627621,0.00603864 -0.00572697,0.00656185 -0.00513428,0.00703528 -0.00450265,0.00745535 -0.130495,0.239008 -0.00361768,0.00732185 -0.00300815,0.00759264 -0.00237856,0.00781279 -0.0017331,0.00798082 -0.00107608,0.00809563 -0.000411891,0.00815644 0.00025505,0.00816285 0.00092029,0.00811482 0.00157939,0.00801266 0.00222796,0.00785706 0.0584638,0.178116 -0.366831,2.49297 -0.471126,-0.125265 0.671544,-4.49969 0.000901165,-0.00853107 0.000166682,-0.00857692 -0.000569028,-0.00855964 -0.00130055,-0.00847938 -0.0020225,-0.00833671 -0.00272957,-0.00813269 -0.00341655,-0.00786883 -0.00407839,-0.00754705 -0.00471021,-0.00716974 -0.00530737,-0.00673966 -0.00586548,-0.00625999 -0.00638042,-0.00573425 -0.0068484,-0.0051663 -0.00726599,-0.00456034 -0.0076301,-0.00392082 -0.00793806,-0.00325245 -0.00818761,-0.00256013 -0.0083769,-0.00184898 -0.00850455,-0.00112423 -0.00856961,-0.000391195 -0.00857161,0.000344715 -0.00851052,0.00107809 -0.00838681,0.00180353 -0.00820137,0.00251569 -0.00795559,0.00320935 -0.00765125,0.00387938 -0.00729061,0.00452087 -0.00687632,0.00512909 -0.00641142,0.00569956 -0.00589934,0.00622809 -0.00534384,0.00671078 -0.00474902,0.00714409 -0.488366,0.807801 z "/>
</g></g></svg>