<?xml version="1.0" encoding="UTF-8" standalone="no"?>
<!DOCTYPE svg PUBLIC "-//W3C//DTD SVG 1.1//EN" "http://www.w3.org/Graphics/SVG/1.1/DTD/svg11-flat.dtd"
[
<!ATTLIST g xmlns:fme CDATA #FIXED "http://www.safe.com/fme" >
<!ATTLIST path fme:_creation_instance CDATA #IMPLIED fme:i CDATA #IMPLIED >
<!ATTLIST ellipse fme:_creation_instance CDATA #IMPLIED fme:i CDATA #IMPLIED >
<!ATTLIST text fme:_creation_instance CDATA #IMPLIED fme:i CDATA #IMPLIED >
<!ATTLIST use fme:_creation_instance CDATA #IMPLIED fme:i CDATA #IMPLIED >
]>
<svg xmlns="http://www.w3.org/2000/svg"  viewBox="-0.0251127 -0.0251127 2.05924 2.15234"><g xmlns:fme="http://www.safe.com/fme" fill="none" stroke="black" stroke-width="0.000251127124297" transform="translate(0,2.10211) scale(1, -1)">
<g id="test" >
<path fme:_creation_instance="0" d="M 1.90902,1.05106 l -1.80902,0.587785 1.11803,-1.53884 4.44089e-16,1.90211 -1.11803,-1.53884 1.80902,0.587785 "/>
<path fme:_creation_instance="0" d="M 1.11803,0.688904 l -0.165248,-0.0536922 0.165248,-0.227444 0,0.281136 z M 1.31803,1.13793 l 0,-0.173752 0.267376,0.0868758 -0.267376,0.0868758 z M 0.952786,1.4669 l 0.165248,-0.0536922 0,0.281136 -0.165248,-0.227444 z M 0.527051,1.22119 l 0.102129,0.140568 -0.267376,0.0868758 0.165248,-0.227444 z M 0.650658,1.05106 l 0.178522,-0.245714 0.288854,0.0938545 2.22045e-16,0.303719 -0.288854,0.0938545 -0.178522,-0.245714 z M 0.62918,0.740358 l -0.102129,0.140568 -0.165248,-0.227444 0.267376,0.0868758 z M 0.752786,0.570228 l -0.621885,-0.202063 -0.00834796,-0.0023178 -0.00851725,-0.00158653 -0.00862261,-0.000843358 -0.00866324,-9.38533e-05 -0.00863885,0.000656356 -0.00854962,0.00140164 -0.00839621,0.0021364 -0.00817978,0.00285513 -0.00790195,0.00355242 -0.00756481,0.00422305 -0.00717089,0.00486198 -0.00672314,0.00546442 -0.00622493,0.00602584 -0.00568,0.00654204 -0.00509242,0.00700912 -0.00446663,0.0074236 -0.00380731,0.00778235 -0.00311941,0.00808269 -0.0024081,0.00832236 -0.00167871,0.00849956 -0.000936716,0.00861296 -0.000187695,0.00866172 0.000562734,0.00864546 0.00130894,0.0085643 0.00204532,0.00841886 0.00276635,0.00821023 0.00346661,0.00793997 0.00414086,0.00761012 0.00478402,0.00722314 0.384346,0.529007 -0.384346,0.529007 -0.00478402,0.00722314 -0.00414086,0.00761012 -0.00346661,0.00793997 -0.00276635,0.00821023 -0.00204532,0.00841886 -0.00130894,0.0085643 -0.000562734,0.00864546 0.000187695,0.00866172 0.000936716,0.00861296 0.00167871,0.00849956 0.0024081,0.00832236 0.00311941,0.00808269 0.00380731,0.00778235 0.00446663,0.0074236 0.00509242,0.00700912 0.00568,0.00654204 0.00622493,0.00602584 0.00672314,0.00546442 0.00717089,0.00486198 0.00756481,0.00422305 0.00790195,0.00355242 0.00817978,0.00285513 0.00839621,0.0021364 0.00854962,0.00140164 0.00863885,0.000656356 0.00866324,-9.38533e-05 0.00862261,-0.000843358 0.00851725,-0.00158653 0.00834796,-0.0023178 0.621885,-0.202063 0.384346,0.529007 0.00539127,0.00678194 0.00595806,0.00628984 0.00648012,0.00575053 0.00695354,0.00516805 0.00737477,0.00454679 0.00774065,0.00389139 0.00804842,0.00320678 0.00829578,0.00249811 0.00848088,0.00177068 0.00860231,0.00102996 0.00865918,0.000281516 0.00865104,-0.000469046 0.00857798,-0.00121609 0.00844052,-0.001954 0.00823972,-0.00267725 0.00797706,-0.0033804 0.00765453,-0.00405817 0.00727454,-0.00470549 0.00683995,-0.00531749 0.00635402,-0.00588957 0.00582039,-0.00641745 0.00524308,-0.00689715 0.00462641,-0.00732509 0.00397502,-0.00769804 0.00329378,-0.00801321 0.00258783,-0.00826824 0.00186245,-0.0084612 0.00112309,-0.00859065 0.000375303,-0.00865562 -2.22045e-16,-0.653888 0.621885,-0.202063 2.24077e-09,-7.28069e-10 0.00811601,-0.00303167 0.00782314,-0.00372278 0.00747155,-0.00438595 0.00706388,-0.0050162 0.00660318,-0.00560879 0.00609292,-0.00615929 0.00553693,-0.00666355 0.00493938,-0.0071178 0.00430475,-0.00751862 0.00363781,-0.00786301 0.00294357,-0.00814837 0.00222723,-0.00837258 0.00149417,-0.00853393 0.000749901,-0.00863124 0,-0.00866375 -0.000749901,-0.00863124 -0.00149417,-0.00853393 -0.00222723,-0.00837258 -0.00294357,-0.00814837 -0.00363781,-0.00786301 -0.00430475,-0.00751862 -0.00493938,-0.0071178 -0.00553693,-0.00666355 -0.00609292,-0.00615929 -0.00660318,-0.00560879 -0.00706388,-0.0050162 -0.00747155,-0.00438595 -0.00782314,-0.00372278 -0.00811601,-0.00303167 -2.24077e-09,-7.28069e-10 -0.621885,-0.202063 0,-0.653888 -0.000375303,-0.00865562 -0.00112309,-0.00859065 -0.00186245,-0.0084612 -0.00258783,-0.00826824 -0.00329378,-0.00801321 -0.00397502,-0.00769804 -0.00462641,-0.00732509 -0.00524308,-0.00689715 -0.00582039,-0.00641745 -0.00635402,-0.00588957 -0.00683995,-0.00531749 -0.00727454,-0.00470549 -0.00765453,-0.00405817 -0.00797706,-0.0033804 -0.00823972,-0.00267725 -0.00844052,-0.001954 -0.00857798,-0.00121609 -0.00865104,-0.000469046 -0.00865918,0.000281516 -0.00860231,0.00102996 -0.00848088,0.00177068 -0.00829578,0.00249811 -0.00804842,0.00320678 -0.00774065,0.00389139 -0.00737477,0.00454679 -0.00695354,0.00516805 -0.00648012,0.00575053 -0.00595806,0.00628984 -0.00539127,0.00678194 -0.384346,0.529007 z "/>
<path fme:_creation_instance="0" d="M 1.11803,2.00211 l -2.22045e-16,-1.90211 0.000375303,-0.00865562 0.00112309,-0.00859065 0.00186245,-0.0084612 0.00258783,-0.00826824 0.00329378,-0.00801321 0.00397502,-0.00769804 0.00462641,-0.00732509 0.00524308,-0.00689715 0.00582039,-0.00641745 0.00635402,-0.00588957 0.00683995,-0.00531749 0.00727454,-0.00470549 0.00765453,-0.00405817 0.00797706,-0.0033804 0.00823972,-0.00267725 0.00844052,-0.001954 0.00857798,-0.00121609 0.00865104,-0.000469046 0.00865918,0.000281516 0.00860231,0.00102996 0.00848088,0.00177068 0.00829578,0.00249811 0.00804842,0.00320678 0.00774065,0.00389139 0.00737477,0.00454679 0.00695354,0.00516805 0.00648012,0.00575053 0.00595806,0.00628984 0.00539127,0.00678194 0.690983,0.951057 0.00463473,0.00697582 0.00403475,0.00733918 0.00340647,0.00765106 0.0027543,0.00790928 0.00208281,0.00811201 0.00139671,0.00825785 0.000700813,0.00834576 0,0.00837513 -0.000700813,0.00834576 -0.00139671,0.00825785 -0.00208281,0.00811201 -0.0027543,0.00790928 -0.00340647,0.00765106 -0.00403475,0.00733918 -0.00463473,0.00697582 -0.690983,0.951057 -0.00539127,0.00678194 -0.00595806,0.00628984 -0.00648012,0.00575053 -0.00695354,0.00516805 -0.00737477,0.00454679 -0.00774065,0.00389139 -0.00804842,0.00320678 -0.00829578,0.00249811 -0.00848088,0.00177068 -0.00860231,0.00102996 -0.00865918,0.000281516 -0.00865104,-0.000469046 -0.00857798,-0.00121609 -0.00844052,-0.001954 -0.00823972,-0.00267725 -0.00797706,-0.0033804 -0.00765453,-0.00405817 -0.00727454,-0.00470549 -0.00683995,-0.00531749 -0.00635402,-0.00588957 -0.00582039,-0.00641745 -0.00524308,-0.00689715 -0.00462641,-0.00732509 -0.00397502,-0.00769804 -0.00329378,-0.00801321 -0.00258783,-0.00826824 -0.00186245,-0.0084612 -0.00112309,-0.00859065 -0.000375303,-0.00865562 z "/>
<path fme:_creation_instance="0" d="M 0.0190983,1.58006 l 1.11803,-1.53884 0.00539127,-0.00678194 0.00595806,-0.00628984 0.00648012,-0.00575053 0.00695354,-0.00516805 0.00737477,-0.00454679 0.00774065,-0.00389139 0.00804842,-0.00320678 0.00829578,-0.00249811 0.00848088,-0.00177068 0.00860231,-0.00102996 0.00865918,-0.000281516 0.00865104,0.000469046 0.00857798,0.00121609 0.00844052,0.001954 0.00823972,0.00267725 0.00797706,0.0033804 0.00765453,0.00405817 0.00727454,0.00470549 0.00683995,0.00531749 0.00635402,0.00588957 0.00582039,0.00641745 0.00524308,0.00689715 0.00462641,0.00732509 0.00397502,0.00769804 0.00329378,0.00801321 0.00258783,0.00826824 0.00186245,0.0084612 0.00112309,0.00859065 0.000375303,0.00865562 2.22045e-16,1.90211 -0.000366827,0.0085575 -0.00109779,0.00849472 -0.0018207,0.00836961 -0.00253025,0.00818311 -0.00322124,0.00793656 -0.00388859,0.00763179 -0.00452742,0.00727103 -0.00513303,0.00685692 -0.00570098,0.00639251 -0.00622711,0.0058812 -0.00670755,0.00532674 -0.00713878,0.0047332 -0.00751764,0.00410494 -0.00784134,0.00344656 -0.00810751,0.00276289 -0.00831421,0.00205896 -0.00845991,0.00133992 -0.00854354,0.000611046 -0.00856449,-0.000122309 -0.0085226,-0.000854766 -0.00841819,-0.00158095 -0.00825202,-0.00229554 -1.11803,-0.363271 -0.00802531,-0.00299329 -0.00773972,-0.00366907 -0.00739735,-0.00431794 -0.00700071,-0.00493513 -0.0065527,-0.00551611 -0.00605662,-0.00605662 -0.00551611,-0.0065527 -0.00493513,-0.00700071 -0.00431794,-0.00739735 -0.00366907,-0.00773972 -0.00299329,-0.00802531 -0.00229554,-0.00825202 -0.00158095,-0.00841819 -0.000854766,-0.0085226 -0.000122309,-0.00856449 0.000611046,-0.00854354 0.00133992,-0.00845991 0.00205896,-0.00831421 0.00276289,-0.00810751 0.00344656,-0.00784134 0.00410494,-0.00751764 0.0047332,-0.00713878 z "/>
<path fme:_creation_instance="0" d="M 1.29894,0.158779 l -1.11803,1.53884 -0.00539127,0.00678194 -0.00595806,0.00628984 -0.00648012,0.00575053 -0.00695354,0.00516805 -0.00737477,0.00454679 -0.00774065,0.00389139 -0.00804842,0.00320678 -0.00829578,0.00249811 -0.00848088,0.00177068 -0.00860231,0.00102996 -0.00865918,0.000281516 -0.00865104,-0.000469046 -0.00857798,-0.00121609 -0.00844052,-0.001954 -0.00823972,-0.00267725 -0.00797706,-0.0033804 -0.00765453,-0.00405817 -0.00727454,-0.00470549 -0.00683995,-0.00531749 -0.00635402,-0.00588957 -0.00582039,-0.00641745 -0.00524308,-0.00689715 -0.00462641,-0.00732509 -0.00397502,-0.00769804 -0.00329378,-0.00801321 -0.00258783,-0.00826824 -0.00186245,-0.0084612 -0.00112309,-0.00859065 -0.000375303,-0.00865562 -1.11022e-16,-1.17557 0.000350714,-0.00836778 0.00104968,-0.00830909 0.00174129,-0.00819211 0.00242068,-0.00801768 0.00308309,-0.007787 0.00372388,-0.0075017 0.00433854,-0.00716379 0.00492278,-0.00677562 0.00547248,-0.00633993 0.0059838,-0.00585977 0.00645315,-0.00533851 0.00687723,-0.0047798 0.00725308,-0.00418757 0.00757804,-0.00356596 0.00784986,-0.00291934 1.11803,-0.363271 0.00834796,-0.0023178 0.00851725,-0.00158653 0.00862261,-0.000843358 0.00866324,-9.38533e-05 0.00863885,0.000656356 0.00854962,0.00140164 0.00839621,0.0021364 0.00817978,0.00285513 0.00790195,0.00355242 0.00756481,0.00422305 0.00717089,0.00486198 0.00672314,0.00546442 0.00622493,0.00602584 0.00568,0.00654204 0.00509242,0.00700912 0.00446663,0.0074236 0.00380731,0.00778235 0.00311941,0.00808269 0.0024081,0.00832236 0.00167871,0.00849956 0.000936716,0.00861296 0.000187695,0.00866172 -0.000562734,0.00864546 -0.00130894,0.0085643 -0.00204532,0.00841886 -0.00276635,0.00821023 -0.00346661,0.00793997 -0.00414086,0.00761012 -0.00478402,0.00722314 z "/>
</g></g></svg>