<?xml version="1.0" encoding="UTF-8" standalone="no"?>
<!DOCTYPE svg PUBLIC "-//W3C//DTD SVG 1.1//EN" "http://www.w3.org/Graphics/SVG/1.1/DTD/svg11-flat.dtd"
[
<!ATTLIST g xmlns:fme CDATA #FIXED "http://www.safe.com/fme" >
<!ATTLIST path fme:_creation_instance CDATA #IMPLIED fme:i CDATA #IMPLIED >
<!ATTLIST ellipse fme:_creation_instance CDATA #IMPLIED fme:i CDATA #IMPLIED >
<!ATTLIST text fme:_creation_instance CDATA #IMPLIED fme:i CDATA #IMPLIED >
<!ATTLIST use fme:_creation_instance CDATA #IMPLIED fme:i CDATA #IMPLIED >
]>
<svg xmlns="http://www.w3.org/2000/svg"  viewBox="-9.29375 -9.29375 762.088 762.088"><g xmlns:fme="http://www.safe.com/fme" fill="none" stroke="black" stroke-width="0.0929375" transform="translate(0,743.5) scale(1, -1)">
<g id="test" >
<path d="M 1,1 l 43.2929,0 -43.2929,43.2929 0,-43.2929 z M 0.5,0.5 l -0.5,0 0,45 0.00190265,0.0435779 0.00569347,0.0432462 0.00944096,0.0425854 0.0131166,0.0416005 0.0166924,0.0402991 0.0201412,0.0386909 0.0234367,0.0367882 0.0265538,0.0346056 0.0294688,0.0321596 0.0321596,0.0294688 0.0346056,0.0265538 0.0367882,0.0234367 0.0386909,0.0201412 0.0402991,0.0166924 0.0416005,0.0131166 0.0425854,0.00944096 0.0432462,0.00569347 0.0435779,0.00190265 0.0435779,-0.00190265 0.0432462,-0.00569347 0.0425854,-0.00944096 0.0416005,-0.0131166 0.0402991,-0.0166924 0.0386909,-0.0201412 0.0367882,-0.0234367 0.0346056,-0.0265538 0.0321596,-0.0294688 45,-45 0.0294688,-0.0321596 0.0265538,-0.0346056 0.0234367,-0.0367882 0.0201412,-0.0386909 0.0166924,-0.0402991 0.0131166,-0.0416005 0.00944096,-0.0425854 0.00569347,-0.0432462 0.00190265,-0.0435779 -0.00190265,-0.0435779 -0.00569347,-0.0432462 -0.00944096,-0.0425854 -0.0131166,-0.0416005 -0.0166924,-0.0402991 -0.0201412,-0.0386909 -0.0234367,-0.0367882 -0.0265538,-0.0346056 -0.0294688,-0.0321596 -0.0321596,-0.0294688 -0.0346056,-0.0265538 -0.0367882,-0.0234367 -0.0386909,-0.0201412 -0.0402991,-0.0166924 -0.0416005,-0.0131166 -0.0425854,-0.00944096 -0.0432462,-0.00569347 -0.0435779,-0.00190265 -45,0 0,0.5 z "/>
<path d="M 202.5,23 l -0.340575,7.80044 -1.01913,7.74107 -1.68993,7.62279 -2.34787,7.4465 -2.98794,7.21353 -3.60527,6.92567 -4.19517,6.58509 -4.75313,6.1944 -5.27492,5.75657 -5.75657,5.27492 -6.1944,4.75313 -6.58509,4.19517 -6.92567,3.60527 -7.21353,2.98794 -7.4465,2.34787 -7.62279,1.68993 -7.74107,1.01913 -7.80044,0.340575 0,1 7.88759,-0.34438 7.82757,-1.03052 7.70796,-1.70881 7.5297,-2.37411 7.29413,-3.02133 7.00305,-3.64556 6.65867,-4.24204 6.26361,-4.80624 5.82089,-5.33386 5.33386,-5.82089 4.80624,-6.26361 4.24204,-6.65867 3.64556,-7.00305 3.02133,-7.29413 2.37411,-7.5297 1.70881,-7.70796 1.03052,-7.82757 0.34438,-7.88759 -1,0 z "/>
<path d="M 292.5,23 l -0.340575,7.80044 -1.01913,7.74107 -1.68993,7.62279 -2.34787,7.4465 -2.98794,7.21353 -3.60527,6.92567 -4.19517,6.58509 -4.75313,6.1944 -5.27492,5.75657 -5.75657,5.27492 -6.1944,4.75313 -6.58509,4.19517 -6.92567,3.60527 -7.21353,2.98794 -7.4465,2.34787 -7.62279,1.68993 -7.74107,1.01913 -7.80044,0.340575 0,1 7.88759,-0.34438 7.82757,-1.03052 7.70796,-1.70881 7.5297,-2.37411 7.29413,-3.02133 7.00305,-3.64556 6.65867,-4.24204 6.26361,-4.80624 5.82089,-5.33386 5.33386,-5.82089 4.80624,-6.26361 4.24204,-6.65867 3.64556,-7.00305 3.02133,-7.29413 2.37411,-7.5297 1.70881,-7.70796 1.03052,-7.82757 0.34438,-7.88759 -1,0 z "/>
<path d="M 382.5,23 l -0.340575,7.80044 -1.01913,7.74107 -1.68993,7.62279 -2.34787,7.4465 -2.98794,7.21353 -3.60527,6.92567 -4.19517,6.58509 -4.75313,6.1944 -5.27492,5.75657 -5.75657,5.27492 -6.1944,4.75313 -6.58509,4.19517 -6.92567,3.60527 -7.21353,2.98794 -7.4465,2.34787 -7.62279,1.68993 -7.74107,1.01913 -7.80044,0.340575 0,1 7.88759,-0.34438 7.82757,-1.03052 7.70796,-1.70881 7.5297,-2.37411 7.29413,-3.02133 7.00305,-3.64556 6.65867,-4.24204 6.26361,-4.80624 5.82089,-5.33386 5.33386,-5.82089 4.80624,-6.26361 4.24204,-6.65867 3.64556,-7.00305 3.02133,-7.29413 2.37411,-7.5297 1.70881,-7.70796 1.03052,-7.82757 0.34438,-7.88759 -1,0 z "/>
<path d="M 472.5,23 l -0.340575,7.80044 -1.01913,7.74107 -1.68993,7.62279 -2.34787,7.4465 -2.98794,7.21353 -3.60527,6.92567 -4.19517,6.58509 -4.75313,6.1944 -5.27492,5.75657 -5.75657,5.27492 -6.1944,4.75313 -6.58509,4.19517 -6.92567,3.60527 -7.21353,2.98794 -7.4465,2.34787 -7.62279,1.68993 -7.74107,1.01913 -7.80044,0.340575 0,1 7.88759,-0.34438 7.82757,-1.03052 7.70796,-1.70881 7.5297,-2.37411 7.29413,-3.02133 7.00305,-3.64556 6.65867,-4.24204 6.26361,-4.80624 5.82089,-5.33386 5.33386,-5.82089 4.80624,-6.26361 4.24204,-6.65867 3.64556,-7.00305 3.02133,-7.29413 2.37411,-7.5297 1.70881,-7.70796 1.03052,-7.82757 0.34438,-7.88759 -1,0 z "/>
<path d="M 451,1 l 43.2929,0 -43.2929,43.2929 0,-43.2929 z M 450.5,0.5 l -0.5,0 0,45 0.00176925,0.0420253 0.00529524,0.0417278 0.00878375,0.0411351 0.0122101,0.0402513 0.01555,0.0390826 0.0187799,0.0376373 0.0218769,0.0359257 0.0248191,0.0339598 0.0275856,0.0317536 0.0301569,0.0293226 0.0325147,0.0266842 0.0346425,0.0238569 0.0365251,0.0208607 0.0381492,0.0177169 0.0395033,0.0144478 0.0405779,0.0110764 0.0413653,0.00762661 0.0418599,0.00412284 0.0420584,0.000589906 0.0419591,-0.00294721 0.0415629,-0.00646346 0.0408726,-0.00993398 0.039893,-0.0133342 0.0386311,-0.01664 0.0370958,-0.0198281 0.035298,-0.0228759 0.0332503,-0.0257617 0.0309674,-0.0284653 45,-45 0.0294688,-0.0321596 0.0265538,-0.0346056 0.0234367,-0.0367882 0.0201412,-0.0386909 0.0166924,-0.0402991 0.0131166,-0.0416005 0.00944096,-0.0425854 0.00569347,-0.0432462 0.00190265,-0.0435779 -0.00190265,-0.0435779 -0.00569347,-0.0432462 -0.00944096,-0.0425854 -0.0131166,-0.0416005 -0.0166924,-0.0402991 -0.0201412,-0.0386909 -0.0234367,-0.0367882 -0.0265538,-0.0346056 -0.0294688,-0.0321596 -0.0321596,-0.0294688 -0.0346056,-0.0265538 -0.0367882,-0.0234367 -0.0386909,-0.0201412 -0.0402991,-0.0166924 -0.0416005,-0.0131166 -0.0425854,-0.00944096 -0.0432462,-0.00569347 -0.0435779,-0.00190265 -45,0 0,0.5 z "/>
<path d="M 652.5,23 l -0.340575,7.80044 -1.01913,7.74107 -1.68993,7.62279 -2.34787,7.4465 -2.98794,7.21353 -3.60527,6.92567 -4.19517,6.58509 -4.75313,6.1944 -5.27492,5.75657 -5.75657,5.27492 -6.1944,4.75313 -6.58509,4.19517 -6.92567,3.60527 -7.21353,2.98794 -7.4465,2.34787 -7.62279,1.68993 -7.74107,1.01913 -7.80044,0.340575 0,1 7.88759,-0.34438 7.82757,-1.03052 7.70796,-1.70881 7.5297,-2.37411 7.29413,-3.02133 7.00305,-3.64556 6.65867,-4.24204 6.26361,-4.80624 5.82089,-5.33386 5.33386,-5.82089 4.80624,-6.26361 4.24204,-6.65867 3.64556,-7.00305 3.02133,-7.29413 2.37411,-7.5297 1.70881,-7.70796 1.03052,-7.82757 0.34438,-7.88759 -1,0 z "/>
<path d="M 742.5,23 l -0.340575,7.80044 -1.01913,7.74107 -1.68993,7.62279 -2.34787,7.4465 -2.98794,7.21353 -3.60527,6.92567 -4.19517,6.58509 -4.75313,6.1944 -5.27492,5.75657 -5.75657,5.27492 -6.1944,4.75313 -6.58509,4.19517 -6.92567,3.60527 -7.21353,2.98794 -7.4465,2.34787 -7.62279,1.68993 -7.74107,1.01913 -7.80044,0.340575 0,1 7.88759,-0.34438 7.82757,-1.03052 7.70796,-1.70881 7.5297,-2.37411 7.29413,-3.02133 7.00305,-3.64556 6.65867,-4.24204 6.26361,-4.80624 5.82089,-5.33386 5.33386,-5.82089 4.80624,-6.26361 4.24204,-6.65867 3.64556,-7.00305 3.02133,-7.29413 2.37411,-7.5297 1.70881,-7.70796 1.03052,-7.82757 0.34438,-7.88759 -1,0 z "/>
<path d="M 1,91 l 43.2929,0 -43.2929,43.2929 0,-43.2929 z M 0.5,90.5 l -0.5,0 0,45 0.00190265,0.0435779 0.00569347,0.0432462 0.00944096,0.0425854 0.0131166,0.0416005 0.0166924,0.0402991 0.0201412,0.0386909 0.0234367,0.0367882 0.0265538,0.0346056 0.0294688,0.0321596 0.0321596,0.0294688 0.0346056,0.0265538 0.0367882,0.0234367 0.0386909,0.0201412 0.0402991,0.0166924 0.0416005,0.0131166 0.0425854,0.00944096 0.0432462,0.00569347 0.0435779,0.00190265 0.0435779,-0.00190265 0.0432462,-0.00569347 0.0425854,-0.00944096 0.0416005,-0.0131166 0.0402991,-0.0166924 0.0386909,-0.0201412 0.0367882,-0.0234367 0.0346056,-0.0265538 0.0321596,-0.0294688 45,-45 0.0284653,-0.0309674 0.0257617,-0.0332503 0.0228759,-0.035298 0.0198281,-0.0370958 0.01664,-0.0386311 0.0133342,-0.039893 0.00993398,-0.0408726 0.00646346,-0.0415629 0.00294721,-0.0419591 -0.000589906,-0.0420584 -0.00412284,-0.0418599 -0.00762661,-0.0413653 -0.0110764,-0.0405779 -0.0144478,-0.0395033 -0.0177169,-0.0381492 -0.0208607,-0.0365251 -0.0238569,-0.0346425 -0.0266842,-0.0325147 -0.0293226,-0.0301569 -0.0317536,-0.0275856 -0.0339598,-0.0248191 -0.0359257,-0.0218769 -0.0376373,-0.0187799 -0.0390826,-0.01555 -0.0402513,-0.0122101 -0.0411351,-0.00878375 -0.0417278,-0.00529524 -0.0420253,-0.00176925 -45,0 0,0.5 z "/>
<path d="M 91,91 l 43.2929,0 -43.2929,43.2929 0,-43.2929 z M 90.5,90.5 l -0.5,0 0,45 0.00190265,0.0435779 0.00569347,0.0432462 0.00944096,0.0425854 0.0131166,0.0416005 0.0166924,0.0402991 0.0201412,0.0386909 0.0234367,0.0367882 0.0265538,0.0346056 0.0294688,0.0321596 0.0321596,0.0294688 0.0346056,0.0265538 0.0367882,0.0234367 0.0386909,0.0201412 0.0402991,0.0166924 0.0416005,0.0131166 0.0425854,0.00944096 0.0432462,0.00569347 0.0435779,0.00190265 0.0435779,-0.00190265 0.0432462,-0.00569347 0.0425854,-0.00944096 0.0416005,-0.0131166 0.0402991,-0.0166924 0.0386909,-0.0201412 0.0367882,-0.0234367 0.0346056,-0.0265538 0.0321596,-0.0294688 45,-45 0.0294688,-0.0321596 0.0265538,-0.0346056 0.0234367,-0.0367882 0.0201412,-0.0386909 0.0166924,-0.0402991 0.0131166,-0.0416005 0.00944096,-0.0425854 0.00569347,-0.0432462 0.00190265,-0.0435779 -0.00190265,-0.0435779 -0.00569347,-0.0432462 -0.00944096,-0.0425854 -0.0131166,-0.0416005 -0.0166924,-0.0402991 -0.0201412,-0.0386909 -0.0234367,-0.0367882 -0.0265538,-0.0346056 -0.0294688,-0.0321596 -0.0321596,-0.0294688 -0.0346056,-0.0265538 -0.0367882,-0.0234367 -0.0386909,-0.0201412 -0.0402991,-0.0166924 -0.0416005,-0.0131166 -0.0425854,-0.00944096 -0.0432462,-0.00569347 -0.0435779,-0.00190265 -45,0 0,0.5 z "/>
<path d="M 292.5,113 l -0.340575,7.80044 -1.01913,7.74107 -1.68993,7.62279 -2.34787,7.4465 -2.98794,7.21353 -3.60527,6.92567 -4.19517,6.58509 -4.75313,6.1944 -5.27492,5.75657 -5.75657,5.27492 -6.1944,4.75313 -6.58509,4.19517 -6.92567,3.60527 -7.21353,2.98794 -7.4465,2.34787 -7.62279,1.68993 -7.74107,1.01913 -7.80044,0.340575 0,1 7.88759,-0.34438 7.82757,-1.03052 7.70796,-1.70881 7.5297,-2.37411 7.29413,-3.02133 7.00305,-3.64556 6.65867,-4.24204 6.26361,-4.80624 5.82089,-5.33386 5.33386,-5.82089 4.80624,-6.26361 4.24204,-6.65867 3.64556,-7.00305 3.02133,-7.29413 2.37411,-7.5297 1.70881,-7.70796 1.03052,-7.82757 0.34438,-7.88759 -1,0 z "/>
<path d="M 271,91 l 43.2929,0 -43.2929,43.2929 0,-43.2929 z M 270.5,90.5 l -0.5,0 0,45 0.00190265,0.0435779 0.00569347,0.0432462 0.00944096,0.0425854 0.0131166,0.0416005 0.0166924,0.0402991 0.0201412,0.0386909 0.0234367,0.0367882 0.0265538,0.0346056 0.0294688,0.0321596 0.0321596,0.0294688 0.0346056,0.0265538 0.0367882,0.0234367 0.0386909,0.0201412 0.0402991,0.0166924 0.0416005,0.0131166 0.0425854,0.00944096 0.0432462,0.00569347 0.0435779,0.00190265 0.0435779,-0.00190265 0.0432462,-0.00569347 0.0425854,-0.00944096 0.0416005,-0.0131166 0.0402991,-0.0166924 0.0386909,-0.0201412 0.0367882,-0.0234367 0.0346056,-0.0265538 0.0321596,-0.0294688 45,-45 0.0294688,-0.0321596 0.0265538,-0.0346056 0.0234367,-0.0367882 0.0201412,-0.0386909 0.0166924,-0.0402991 0.0131166,-0.0416005 0.00944096,-0.0425854 0.00569347,-0.0432462 0.00190265,-0.0435779 -0.00190265,-0.0435779 -0.00569347,-0.0432462 -0.00944096,-0.0425854 -0.0131166,-0.0416005 -0.0166924,-0.0402991 -0.0201412,-0.0386909 -0.0234367,-0.0367882 -0.0265538,-0.0346056 -0.0294688,-0.0321596 -0.0321596,-0.0294688 -0.0346056,-0.0265538 -0.0367882,-0.0234367 -0.0386909,-0.0201412 -0.0402991,-0.0166924 -0.0416005,-0.0131166 -0.0425854,-0.00944096 -0.0432462,-0.00569347 -0.0435779,-0.00190265 -45,0 0,0.5 z "/>
<path d="M 472.5,113 l -0.340575,7.80044 -1.01913,7.74107 -1.68993,7.62279 -2.34787,7.4465 -2.98794,7.21353 -3.60527,6.92567 -4.19517,6.58509 -4.75313,6.1944 -5.27492,5.75657 -5.75657,5.27492 -6.1944,4.75313 -6.58509,4.19517 -6.92567,3.60527 -7.21353,2.98794 -7.4465,2.34787 -7.62279,1.68993 -7.74107,1.01913 -7.80044,0.340575 0,1 7.88759,-0.34438 7.82757,-1.03052 7.70796,-1.70881 7.5297,-2.37411 7.29413,-3.02133 7.00305,-3.64556 6.65867,-4.24204 6.26361,-4.80624 5.82089,-5.33386 5.33386,-5.82089 4.80624,-6.26361 4.24204,-6.65867 3.64556,-7.00305 3.02133,-7.29413 2.37411,-7.5297 1.70881,-7.70796 1.03052,-7.82757 0.34438,-7.88759 -1,0 z "/>
<path d="M 562.5,113 l -0.340575,7.80044 -1.01913,7.74107 -1.68993,7.62279 -2.34787,7.4465 -2.98794,7.21353 -3.60527,6.92567 -4.19517,6.58509 -4.75313,6.1944 -5.27492,5.75657 -5.75657,5.27492 -6.1944,4.75313 -6.58509,4.19517 -6.92567,3.60527 -7.21353,2.98794 -7.4465,2.34787 -7.62279,1.68993 -7.74107,1.01913 -7.80044,0.340575 0,1 7.88759,-0.34438 7.82757,-1.03052 7.70796,-1.70881 7.5297,-2.37411 7.29413,-3.02133 7.00305,-3.64556 6.65867,-4.24204 6.26361,-4.80624 5.82089,-5.33386 5.33386,-5.82089 4.80624,-6.26361 4.24204,-6.65867 3.64556,-7.00305 3.02133,-7.29413 2.37411,-7.5297 1.70881,-7.70796 1.03052,-7.82757 0.34438,-7.88759 -1,0 z "/>
<path d="M 541,91 l 43.2929,0 -43.2929,43.2929 0,-43.2929 z M 540.5,90.5 l -0.5,0 0,45 0.00190265,0.0435779 0.00569347,0.0432462 0.00944096,0.0425854 0.0131166,0.0416005 0.0166924,0.0402991 0.0201412,0.0386909 0.0234367,0.0367882 0.0265538,0.0346056 0.0294688,0.0321596 0.0321596,0.0294688 0.0346056,0.0265538 0.0367882,0.0234367 0.0386909,0.0201412 0.0402991,0.0166924 0.0416005,0.0131166 0.0425854,0.00944096 0.0432462,0.00569347 0.0435779,0.00190265 0.0435779,-0.00190265 0.0432462,-0.00569347 0.0425854,-0.00944096 0.0416005,-0.0131166 0.0402991,-0.0166924 0.0386909,-0.0201412 0.0367882,-0.0234367 0.0346056,-0.0265538 0.0321596,-0.0294688 45,-45 0.0284653,-0.0309674 0.0257617,-0.0332503 0.0228759,-0.035298 0.0198281,-0.0370958 0.01664,-0.0386311 0.0133342,-0.039893 0.00993398,-0.0408726 0.00646346,-0.0415629 0.00294721,-0.0419591 -0.000589906,-0.0420584 -0.00412284,-0.0418599 -0.00762661,-0.0413653 -0.0110764,-0.0405779 -0.0144478,-0.0395033 -0.0177169,-0.0381492 -0.0208607,-0.0365251 -0.0238569,-0.0346425 -0.0266842,-0.0325147 -0.0293226,-0.0301569 -0.0317536,-0.0275856 -0.0339598,-0.0248191 -0.0359257,-0.0218769 -0.0376373,-0.0187799 -0.0390826,-0.01555 -0.0402513,-0.0122101 -0.0411351,-0.00878375 -0.0417278,-0.00529524 -0.0420253,-0.00176925 -45,0 0,0.5 z "/>
<path d="M 631,91 l 43.2929,0 -43.2929,43.2929 0,-43.2929 z M 630.5,90.5 l -0.5,0 0,45 0.00190265,0.0435779 0.00569347,0.0432462 0.00944096,0.0425854 0.0131166,0.0416005 0.0166924,0.0402991 0.0201412,0.0386909 0.0234367,0.0367882 0.0265538,0.0346056 0.0294688,0.0321596 0.0321596,0.0294688 0.0346056,0.0265538 0.0367882,0.0234367 0.0386909,0.0201412 0.0402991,0.0166924 0.0416005,0.0131166 0.0425854,0.00944096 0.0432462,0.00569347 0.0435779,0.00190265 0.0435779,-0.00190265 0.0432462,-0.00569347 0.0425854,-0.00944096 0.0416005,-0.0131166 0.0402991,-0.0166924 0.0386909,-0.0201412 0.0367882,-0.0234367 0.0346056,-0.0265538 0.0321596,-0.0294688 45,-45 0.0284653,-0.0309674 0.0257617,-0.0332503 0.0228759,-0.035298 0.0198281,-0.0370958 0.01664,-0.0386311 0.0133342,-0.039893 0.00993398,-0.0408726 0.00646346,-0.0415629 0.00294721,-0.0419591 -0.000589906,-0.0420584 -0.00412284,-0.0418599 -0.00762661,-0.0413653 -0.0110764,-0.0405779 -0.0144478,-0.0395033 -0.0177169,-0.0381492 -0.0208607,-0.0365251 -0.0238569,-0.0346425 -0.0266842,-0.0325147 -0.0293226,-0.0301569 -0.0317536,-0.0275856 -0.0339598,-0.0248191 -0.0359257,-0.0218769 -0.0376373,-0.0187799 -0.0390826,-0.01555 -0.0402513,-0.0122101 -0.0411351,-0.00878375 -0.0417278,-0.00529524 -0.0420253,-0.00176925 -45,0 0,0.5 z "/>
<path d="M 112.5,203 l -0.340575,7.80044 -1.01913,7.74107 -1.68993,7.62279 -2.34787,7.4465 -2.98794,7.21353 -3.60527,6.92567 -4.19517,6.58509 -4.75313,6.1944 -5.27492,5.75657 -5.75657,5.27492 -6.1944,4.75313 -6.58509,4.19517 -6.92567,3.60527 -7.21353,2.98794 -7.4465,2.34787 -7.62279,1.68993 -7.74107,1.01913 -7.80044,0.340575 0,1 7.88759,-0.34438 7.82757,-1.03052 7.70796,-1.70881 7.5297,-2.37411 7.29413,-3.02133 7.00305,-3.64556 6.65867,-4.24204 6.26361,-4.80624 5.82089,-5.33386 5.33386,-5.82089 4.80624,-6.26361 4.24204,-6.65867 3.64556,-7.00305 3.02133,-7.29413 2.37411,-7.5297 1.70881,-7.70796 1.03052,-7.82757 0.34438,-7.88759 -1,0 z "/>
<path d="M 202.5,203 l -0.340575,7.80044 -1.01913,7.74107 -1.68993,7.62279 -2.34787,7.4465 -2.98794,7.21353 -3.60527,6.92567 -4.19517,6.58509 -4.75313,6.1944 -5.27492,5.75657 -5.75657,5.27492 -6.1944,4.75313 -6.58509,4.19517 -6.92567,3.60527 -7.21353,2.98794 -7.4465,2.34787 -7.62279,1.68993 -7.74107,1.01913 -7.80044,0.340575 0,1 7.88759,-0.34438 7.82757,-1.03052 7.70796,-1.70881 7.5297,-2.37411 7.29413,-3.02133 7.00305,-3.64556 6.65867,-4.24204 6.26361,-4.80624 5.82089,-5.33386 5.33386,-5.82089 4.80624,-6.26361 4.24204,-6.65867 3.64556,-7.00305 3.02133,-7.29413 2.37411,-7.5297 1.70881,-7.70796 1.03052,-7.82757 0.34438,-7.88759 -1,0 z "/>
<path d="M 181,181 l 43.2929,0 -43.2929,43.2929 0,-43.2929 z M 180.5,180.5 l -0.5,0 0,45 0.00190265,0.0435779 0.00569347,0.0432462 0.00944096,0.0425854 0.0131166,0.0416005 0.0166924,0.0402991 0.0201412,0.0386909 0.0234367,0.0367882 0.0265538,0.0346056 0.0294688,0.0321596 0.0321596,0.0294688 0.0346056,0.0265538 0.0367882,0.0234367 0.0386909,0.0201412 0.0402991,0.0166924 0.0416005,0.0131166 0.0425854,0.00944096 0.0432462,0.00569347 0.0435779,0.00190265 0.0435779,-0.00190265 0.0432462,-0.00569347 0.0425854,-0.00944096 0.0416005,-0.0131166 0.0402991,-0.0166924 0.0386909,-0.0201412 0.0367882,-0.0234367 0.0346056,-0.0265538 0.0321596,-0.0294688 45,-45 0.0294688,-0.0321596 0.0265538,-0.0346056 0.0234367,-0.0367882 0.0201412,-0.0386909 0.0166924,-0.0402991 0.0131166,-0.0416005 0.00944096,-0.0425854 0.00569347,-0.0432462 0.00190265,-0.0435779 -0.00190265,-0.0435779 -0.00569347,-0.0432462 -0.00944096,-0.0425854 -0.0131166,-0.0416005 -0.0166924,-0.0402991 -0.0201412,-0.0386909 -0.0234367,-0.0367882 -0.0265538,-0.0346056 -0.0294688,-0.0321596 -0.0321596,-0.0294688 -0.0346056,-0.0265538 -0.0367882,-0.0234367 -0.0386909,-0.0201412 -0.0402991,-0.0166924 -0.0416005,-0.0131166 -0.0425854,-0.00944096 -0.0432462,-0.00569347 -0.0435779,-0.00190265 -45,0 0,0.5 z "/>
<path d="M 271,181 l 43.2929,0 -43.2929,43.2929 0,-43.2929 z M 270.5,180.5 l -0.5,0 0,45 0.00190265,0.0435779 0.00569347,0.0432462 0.00944096,0.0425854 0.0131166,0.0416005 0.0166924,0.0402991 0.0201412,0.0386909 0.0234367,0.0367882 0.0265538,0.0346056 0.0294688,0.0321596 0.0321596,0.0294688 0.0346056,0.0265538 0.0367882,0.0234367 0.0386909,0.0201412 0.0402991,0.0166924 0.0416005,0.0131166 0.0425854,0.00944096 0.0432462,0.00569347 0.0435779,0.00190265 0.0435779,-0.00190265 0.0432462,-0.00569347 0.0425854,-0.00944096 0.0416005,-0.0131166 0.0402991,-0.0166924 0.0386909,-0.0201412 0.0367882,-0.0234367 0.0346056,-0.0265538 0.0321596,-0.0294688 45,-45 0.0294688,-0.0321596 0.0265538,-0.0346056 0.0234367,-0.0367882 0.0201412,-0.0386909 0.0166924,-0.0402991 0.0131166,-0.0416005 0.00944096,-0.0425854 0.00569347,-0.0432462 0.00190265,-0.0435779 -0.00190265,-0.0435779 -0.00569347,-0.0432462 -0.00944096,-0.0425854 -0.0131166,-0.0416005 -0.0166924,-0.0402991 -0.0201412,-0.0386909 -0.0234367,-0.0367882 -0.0265538,-0.0346056 -0.0294688,-0.0321596 -0.0321596,-0.0294688 -0.0346056,-0.0265538 -0.0367882,-0.0234367 -0.0386909,-0.0201412 -0.0402991,-0.0166924 -0.0416005,-0.0131166 -0.0425854,-0.00944096 -0.0432462,-0.00569347 -0.0435779,-0.00190265 -45,0 0,0.5 z "/>
<path d="M 361,181 l 43.2929,0 -43.2929,43.2929 0,-43.2929 z M 360.5,180.5 l -0.5,0 0,45 0.00190265,0.0435779 0.00569347,0.0432462 0.00944096,0.0425854 0.0131166,0.0416005 0.0166924,0.0402991 0.0201412,0.0386909 0.0234367,0.0367882 0.0265538,0.0346056 0.0294688,0.0321596 0.0321596,0.0294688 0.0346056,0.0265538 0.0367882,0.0234367 0.0386909,0.0201412 0.0402991,0.0166924 0.0416005,0.0131166 0.0425854,0.00944096 0.0432462,0.00569347 0.0435779,0.00190265 0.0435779,-0.00190265 0.0432462,-0.00569347 0.0425854,-0.00944096 0.0416005,-0.0131166 0.0402991,-0.0166924 0.0386909,-0.0201412 0.0367882,-0.0234367 0.0346056,-0.0265538 0.0321596,-0.0294688 45,-45 0.0294688,-0.0321596 0.0265538,-0.0346056 0.0234367,-0.0367882 0.0201412,-0.0386909 0.0166924,-0.0402991 0.0131166,-0.0416005 0.00944096,-0.0425854 0.00569347,-0.0432462 0.00190265,-0.0435779 -0.00190265,-0.0435779 -0.00569347,-0.0432462 -0.00944096,-0.0425854 -0.0131166,-0.0416005 -0.0166924,-0.0402991 -0.0201412,-0.0386909 -0.0234367,-0.0367882 -0.0265538,-0.0346056 -0.0294688,-0.0321596 -0.0321596,-0.0294688 -0.0346056,-0.0265538 -0.0367882,-0.0234367 -0.0386909,-0.0201412 -0.0402991,-0.0166924 -0.0416005,-0.0131166 -0.0425854,-0.00944096 -0.0432462,-0.00569347 -0.0435779,-0.00190265 -45,0 0,0.5 z "/>
<path d="M 562.5,203 l -0.340575,7.80044 -1.01913,7.74107 -1.68993,7.62279 -2.34787,7.4465 -2.98794,7.21353 -3.60527,6.92567 -4.19517,6.58509 -4.75313,6.1944 -5.27492,5.75657 -5.75657,5.27492 -6.1944,4.75313 -6.58509,4.19517 -6.92567,3.60527 -7.21353,2.98794 -7.4465,2.34787 -7.62279,1.68993 -7.74107,1.01913 -7.80044,0.340575 0,1 7.88759,-0.34438 7.82757,-1.03052 7.70796,-1.70881 7.5297,-2.37411 7.29413,-3.02133 7.00305,-3.64556 6.65867,-4.24204 6.26361,-4.80624 5.82089,-5.33386 5.33386,-5.82089 4.80624,-6.26361 4.24204,-6.65867 3.64556,-7.00305 3.02133,-7.29413 2.37411,-7.5297 1.70881,-7.70796 1.03052,-7.82757 0.34438,-7.88759 -1,0 z "/>
<path d="M 541,181 l 43.2929,0 -43.2929,43.2929 0,-43.2929 z M 540.5,180.5 l -0.5,0 0,45 0.00190265,0.0435779 0.00569347,0.0432462 0.00944096,0.0425854 0.0131166,0.0416005 0.0166924,0.0402991 0.0201412,0.0386909 0.0234367,0.0367882 0.0265538,0.0346056 0.0294688,0.0321596 0.0321596,0.0294688 0.0346056,0.0265538 0.0367882,0.0234367 0.0386909,0.0201412 0.0402991,0.0166924 0.0416005,0.0131166 0.0425854,0.00944096 0.0432462,0.00569347 0.0435779,0.00190265 0.0435779,-0.00190265 0.0432462,-0.00569347 0.0425854,-0.00944096 0.0416005,-0.0131166 0.0402991,-0.0166924 0.0386909,-0.0201412 0.0367882,-0.0234367 0.0346056,-0.0265538 0.0321596,-0.0294688 45,-45 0.0284653,-0.0309674 0.0257617,-0.0332503 0.0228759,-0.035298 0.0198281,-0.0370958 0.01664,-0.0386311 0.0133342,-0.039893 0.00993398,-0.0408726 0.00646346,-0.0415629 0.00294721,-0.0419591 -0.000589906,-0.0420584 -0.00412284,-0.0418599 -0.00762661,-0.0413653 -0.0110764,-0.0405779 -0.0144478,-0.0395033 -0.0177169,-0.0381492 -0.0208607,-0.0365251 -0.0238569,-0.0346425 -0.0266842,-0.0325147 -0.0293226,-0.0301569 -0.0317536,-0.0275856 -0.0339598,-0.0248191 -0.0359257,-0.0218769 -0.0376373,-0.0187799 -0.0390826,-0.01555 -0.0402513,-0.0122101 -0.0411351,-0.00878375 -0.0417278,-0.00529524 -0.0420253,-0.00176925 -45,0 0,0.5 z "/>
<path d="M 742.5,203 l -0.340575,7.80044 -1.01913,7.74107 -1.68993,7.62279 -2.34787,7.4465 -2.98794,7.21353 -3.60527,6.92567 -4.19517,6.58509 -4.75313,6.1944 -5.27492,5.75657 -5.75657,5.27492 -6.1944,4.75313 -6.58509,4.19517 -6.92567,3.60527 -7.21353,2.98794 -7.4465,2.34787 -7.62279,1.68993 -7.74107,1.01913 -7.80044,0.340575 0,1 7.88759,-0.34438 7.82757,-1.03052 7.70796,-1.70881 7.5297,-2.37411 7.29413,-3.02133 7.00305,-3.64556 6.65867,-4.24204 6.26361,-4.80624 5.82089,-5.33386 5.33386,-5.82089 4.80624,-6.26361 4.24204,-6.65867 3.64556,-7.00305 3.02133,-7.29413 2.37411,-7.5297 1.70881,-7.70796 1.03052,-7.82757 0.34438,-7.88759 -1,0 z "/>
<path d="M 1,271 l 43.2929,0 -43.2929,43.2929 0,-43.2929 z M 0.5,270.5 l -0.5,0 0,45 0.00190265,0.0435779 0.00569347,0.0432462 0.00944096,0.0425854 0.0131166,0.0416005 0.0166924,0.0402991 0.0201412,0.0386909 0.0234367,0.0367882 0.0265538,0.0346056 0.0294688,0.0321596 0.0321596,0.0294688 0.0346056,0.0265538 0.0367882,0.0234367 0.0386909,0.0201412 0.0402991,0.0166924 0.0416005,0.0131166 0.0425854,0.00944096 0.0432462,0.00569347 0.0435779,0.00190265 0.0435779,-0.00190265 0.0432462,-0.00569347 0.0425854,-0.00944096 0.0416005,-0.0131166 0.0402991,-0.0166924 0.0386909,-0.0201412 0.0367882,-0.0234367 0.0346056,-0.0265538 0.0321596,-0.0294688 45,-45 0.0284653,-0.0309674 0.0257617,-0.0332503 0.0228759,-0.035298 0.0198281,-0.0370958 0.01664,-0.0386311 0.0133342,-0.039893 0.00993398,-0.0408726 0.00646346,-0.0415629 0.00294721,-0.0419591 -0.000589906,-0.0420584 -0.00412284,-0.0418599 -0.00762661,-0.0413653 -0.0110764,-0.0405779 -0.0144478,-0.0395033 -0.0177169,-0.0381492 -0.0208607,-0.0365251 -0.0238569,-0.0346425 -0.0266842,-0.0325147 -0.0293226,-0.0301569 -0.0317536,-0.0275856 -0.0339598,-0.0248191 -0.0359257,-0.0218769 -0.0376373,-0.0187799 -0.0390826,-0.01555 -0.0402513,-0.0122101 -0.0411351,-0.00878375 -0.0417278,-0.00529524 -0.0420253,-0.00176925 -45,0 0,0.5 z "/>
<path d="M 91,271 l 43.2929,0 -43.2929,43.2929 0,-43.2929 z M 90.5,270.5 l -0.5,0 0,45 0.00190265,0.0435779 0.00569347,0.0432462 0.00944096,0.0425854 0.0131166,0.0416005 0.0166924,0.0402991 0.0201412,0.0386909 0.0234367,0.0367882 0.0265538,0.0346056 0.0294688,0.0321596 0.0321596,0.0294688 0.0346056,0.0265538 0.0367882,0.0234367 0.0386909,0.0201412 0.0402991,0.0166924 0.0416005,0.0131166 0.0425854,0.00944096 0.0432462,0.00569347 0.0435779,0.00190265 0.0435779,-0.00190265 0.0432462,-0.00569347 0.0425854,-0.00944096 0.0416005,-0.0131166 0.0402991,-0.0166924 0.0386909,-0.0201412 0.0367882,-0.0234367 0.0346056,-0.0265538 0.0321596,-0.0294688 45,-45 0.0294688,-0.0321596 0.0265538,-0.0346056 0.0234367,-0.0367882 0.0201412,-0.0386909 0.0166924,-0.0402991 0.0131166,-0.0416005 0.00944096,-0.0425854 0.00569347,-0.0432462 0.00190265,-0.0435779 -0.00190265,-0.0435779 -0.00569347,-0.0432462 -0.00944096,-0.0425854 -0.0131166,-0.0416005 -0.0166924,-0.0402991 -0.0201412,-0.0386909 -0.0234367,-0.0367882 -0.0265538,-0.0346056 -0.0294688,-0.0321596 -0.0321596,-0.0294688 -0.0346056,-0.0265538 -0.0367882,-0.0234367 -0.0386909,-0.0201412 -0.0402991,-0.0166924 -0.0416005,-0.0131166 -0.0425854,-0.00944096 -0.0432462,-0.00569347 -0.0435779,-0.00190265 -45,0 0,0.5 z "/>
<path d="M 181,271 l 43.2929,0 -43.2929,43.2929 0,-43.2929 z M 180.5,270.5 l -0.5,0 0,45 0.00190265,0.0435779 0.00569347,0.0432462 0.00944096,0.0425854 0.0131166,0.0416005 0.0166924,0.0402991 0.0201412,0.0386909 0.0234367,0.0367882 0.0265538,0.0346056 0.0294688,0.0321596 0.0321596,0.0294688 0.0346056,0.0265538 0.0367882,0.0234367 0.0386909,0.0201412 0.0402991,0.0166924 0.0416005,0.0131166 0.0425854,0.00944096 0.0432462,0.00569347 0.0435779,0.00190265 0.0435779,-0.00190265 0.0432462,-0.00569347 0.0425854,-0.00944096 0.0416005,-0.0131166 0.0402991,-0.0166924 0.0386909,-0.0201412 0.0367882,-0.0234367 0.0346056,-0.0265538 0.0321596,-0.0294688 45,-45 0.0294688,-0.0321596 0.0265538,-0.0346056 0.0234367,-0.0367882 0.0201412,-0.0386909 0.0166924,-0.0402991 0.0131166,-0.0416005 0.00944096,-0.0425854 0.00569347,-0.0432462 0.00190265,-0.0435779 -0.00190265,-0.0435779 -0.00569347,-0.0432462 -0.00944096,-0.0425854 -0.0131166,-0.0416005 -0.0166924,-0.0402991 -0.0201412,-0.0386909 -0.0234367,-0.0367882 -0.0265538,-0.0346056 -0.0294688,-0.0321596 -0.0321596,-0.0294688 -0.0346056,-0.0265538 -0.0367882,-0.0234367 -0.0386909,-0.0201412 -0.0402991,-0.0166924 -0.0416005,-0.0131166 -0.0425854,-0.00944096 -0.0432462,-0.00569347 -0.0435779,-0.00190265 -45,0 0,0.5 z "/>
<path d="M 382.5,293 l -0.340575,7.80044 -1.01913,7.74107 -1.68993,7.62279 -2.34787,7.4465 -2.98794,7.21353 -3.60527,6.92567 -4.19517,6.58509 -4.75313,6.1944 -5.27492,5.75657 -5.75657,5.27492 -6.1944,4.75313 -6.58509,4.19517 -6.92567,3.60527 -7.21353,2.98794 -7.4465,2.34787 -7.62279,1.68993 -7.74107,1.01913 -7.80044,0.340575 0,1 7.88759,-0.34438 7.82757,-1.03052 7.70796,-1.70881 7.5297,-2.37411 7.29413,-3.02133 7.00305,-3.64556 6.65867,-4.24204 6.26361,-4.80624 5.82089,-5.33386 5.33386,-5.82089 4.80624,-6.26361 4.24204,-6.65867 3.64556,-7.00305 3.02133,-7.29413 2.37411,-7.5297 1.70881,-7.70796 1.03052,-7.82757 0.34438,-7.88759 -1,0 z "/>
<path d="M 472.5,293 l -0.340575,7.80044 -1.01913,7.74107 -1.68993,7.62279 -2.34787,7.4465 -2.98794,7.21353 -3.60527,6.92567 -4.19517,6.58509 -4.75313,6.1944 -5.27492,5.75657 -5.75657,5.27492 -6.1944,4.75313 -6.58509,4.19517 -6.92567,3.60527 -7.21353,2.98794 -7.4465,2.34787 -7.62279,1.68993 -7.74107,1.01913 -7.80044,0.340575 0,1 7.88759,-0.34438 7.82757,-1.03052 7.70796,-1.70881 7.5297,-2.37411 7.29413,-3.02133 7.00305,-3.64556 6.65867,-4.24204 6.26361,-4.80624 5.82089,-5.33386 5.33386,-5.82089 4.80624,-6.26361 4.24204,-6.65867 3.64556,-7.00305 3.02133,-7.29413 2.37411,-7.5297 1.70881,-7.70796 1.03052,-7.82757 0.34438,-7.88759 -1,0 z "/>
<path d="M 562.5,293 l -0.340575,7.80044 -1.01913,7.74107 -1.68993,7.62279 -2.34787,7.4465 -2.98794,7.21353 -3.60527,6.92567 -4.19517,6.58509 -4.75313,6.1944 -5.27492,5.75657 -5.75657,5.27492 -6.1944,4.75313 -6.58509,4.19517 -6.92567,3.60527 -7.21353,2.98794 -7.4465,2.34787 -7.62279,1.68993 -7.74107,1.01913 -7.80044,0.340575 0,1 7.88759,-0.34438 7.82757,-1.03052 7.70796,-1.70881 7.5297,-2.37411 7.29413,-3.02133 7.00305,-3.64556 6.65867,-4.24204 6.26361,-4.80624 5.82089,-5.33386 5.33386,-5.82089 4.80624,-6.26361 4.24204,-6.65867 3.64556,-7.00305 3.02133,-7.29413 2.37411,-7.5297 1.70881,-7.70796 1.03052,-7.82757 0.34438,-7.88759 -1,0 z "/>
<path d="M 652.5,293 l -0.340575,7.80044 -1.01913,7.74107 -1.68993,7.62279 -2.34787,7.4465 -2.98794,7.21353 -3.60527,6.92567 -4.19517,6.58509 -4.75313,6.1944 -5.27492,5.75657 -5.75657,5.27492 -6.1944,4.75313 -6.58509,4.19517 -6.92567,3.60527 -7.21353,2.98794 -7.4465,2.34787 -7.62279,1.68993 -7.74107,1.01913 -7.80044,0.340575 0,1 7.88759,-0.34438 7.82757,-1.03052 7.70796,-1.70881 7.5297,-2.37411 7.29413,-3.02133 7.00305,-3.64556 6.65867,-4.24204 6.26361,-4.80624 5.82089,-5.33386 5.33386,-5.82089 4.80624,-6.26361 4.24204,-6.65867 3.64556,-7.00305 3.02133,-7.29413 2.37411,-7.5297 1.70881,-7.70796 1.03052,-7.82757 0.34438,-7.88759 -1,0 z "/>
<path d="M 742.5,293 l -0.340575,7.80044 -1.01913,7.74107 -1.68993,7.62279 -2.34787,7.4465 -2.98794,7.21353 -3.60527,6.92567 -4.19517,6.58509 -4.75313,6.1944 -5.27492,5.75657 -5.75657,5.27492 -6.1944,4.75313 -6.58509,4.19517 -6.92567,3.60527 -7.21353,2.98794 -7.4465,2.34787 -7.62279,1.68993 -7.74107,1.01913 -7.80044,0.340575 0,1 7.88759,-0.34438 7.82757,-1.03052 7.70796,-1.70881 7.5297,-2.37411 7.29413,-3.02133 7.00305,-3.64556 6.65867,-4.24204 6.26361,-4.80624 5.82089,-5.33386 5.33386,-5.82089 4.80624,-6.26361 4.24204,-6.65867 3.64556,-7.00305 3.02133,-7.29413 2.37411,-7.5297 1.70881,-7.70796 1.03052,-7.82757 0.34438,-7.88759 -1,0 z "/>
<path d="M 1,361 l 43.2929,0 -43.2929,43.2929 0,-43.2929 z M 0.5,360.5 l -0.5,0 0,45 0.00190265,0.0435779 0.00569347,0.0432462 0.00944096,0.0425854 0.0131166,0.0416005 0.0166924,0.0402991 0.0201412,0.0386909 0.0234367,0.0367882 0.0265538,0.0346056 0.0294688,0.0321596 0.0321596,0.0294688 0.0346056,0.0265538 0.0367882,0.0234367 0.0386909,0.0201412 0.0402991,0.0166924 0.0416005,0.0131166 0.0425854,0.00944096 0.0432462,0.00569347 0.0435779,0.00190265 0.0435779,-0.00190265 0.0432462,-0.00569347 0.0425854,-0.00944096 0.0416005,-0.0131166 0.0402991,-0.0166924 0.0386909,-0.0201412 0.0367882,-0.0234367 0.0346056,-0.0265538 0.0321596,-0.0294688 45,-45 0.0284653,-0.0309674 0.0257617,-0.0332503 0.0228759,-0.035298 0.0198281,-0.0370958 0.01664,-0.0386311 0.0133342,-0.039893 0.00993398,-0.0408726 0.00646346,-0.0415629 0.00294721,-0.0419591 -0.000589906,-0.0420584 -0.00412284,-0.0418599 -0.00762661,-0.0413653 -0.0110764,-0.0405779 -0.0144478,-0.0395033 -0.0177169,-0.0381492 -0.0208607,-0.0365251 -0.0238569,-0.0346425 -0.0266842,-0.0325147 -0.0293226,-0.0301569 -0.0317536,-0.0275856 -0.0339598,-0.0248191 -0.0359257,-0.0218769 -0.0376373,-0.0187799 -0.0390826,-0.01555 -0.0402513,-0.0122101 -0.0411351,-0.00878375 -0.0417278,-0.00529524 -0.0420253,-0.00176925 -45,0 0,0.5 z "/>
<path d="M 202.5,383 l -0.340575,7.80044 -1.01913,7.74107 -1.68993,7.62279 -2.34787,7.4465 -2.98794,7.21353 -3.60527,6.92567 -4.19517,6.58509 -4.75313,6.1944 -5.27492,5.75657 -5.75657,5.27492 -6.1944,4.75313 -6.58509,4.19517 -6.92567,3.60527 -7.21353,2.98794 -7.4465,2.34787 -7.62279,1.68993 -7.74107,1.01913 -7.80044,0.340575 0,1 7.88759,-0.34438 7.82757,-1.03052 7.70796,-1.70881 7.5297,-2.37411 7.29413,-3.02133 7.00305,-3.64556 6.65867,-4.24204 6.26361,-4.80624 5.82089,-5.33386 5.33386,-5.82089 4.80624,-6.26361 4.24204,-6.65867 3.64556,-7.00305 3.02133,-7.29413 2.37411,-7.5297 1.70881,-7.70796 1.03052,-7.82757 0.34438,-7.88759 -1,0 z "/>
<path d="M 181,361 l 43.2929,0 -43.2929,43.2929 0,-43.2929 z M 180.5,360.5 l -0.5,0 0,45 0.00190265,0.0435779 0.00569347,0.0432462 0.00944096,0.0425854 0.0131166,0.0416005 0.0166924,0.0402991 0.0201412,0.0386909 0.0234367,0.0367882 0.0265538,0.0346056 0.0294688,0.0321596 0.0321596,0.0294688 0.0346056,0.0265538 0.0367882,0.0234367 0.0386909,0.0201412 0.0402991,0.0166924 0.0416005,0.0131166 0.0425854,0.00944096 0.0432462,0.00569347 0.0435779,0.00190265 0.0435779,-0.00190265 0.0432462,-0.00569347 0.0425854,-0.00944096 0.0416005,-0.0131166 0.0402991,-0.0166924 0.0386909,-0.0201412 0.0367882,-0.0234367 0.0346056,-0.0265538 0.0321596,-0.0294688 45,-45 0.0294688,-0.0321596 0.0265538,-0.0346056 0.0234367,-0.0367882 0.0201412,-0.0386909 0.0166924,-0.0402991 0.0131166,-0.0416005 0.00944096,-0.0425854 0.00569347,-0.0432462 0.00190265,-0.0435779 -0.00190265,-0.0435779 -0.00569347,-0.0432462 -0.00944096,-0.0425854 -0.0131166,-0.0416005 -0.0166924,-0.0402991 -0.0201412,-0.0386909 -0.0234367,-0.0367882 -0.0265538,-0.0346056 -0.0294688,-0.0321596 -0.0321596,-0.0294688 -0.0346056,-0.0265538 -0.0367882,-0.0234367 -0.0386909,-0.0201412 -0.0402991,-0.0166924 -0.0416005,-0.0131166 -0.0425854,-0.00944096 -0.0432462,-0.00569347 -0.0435779,-0.00190265 -45,0 0,0.5 z "/>
<path d="M 382.5,383 l -0.340575,7.80044 -1.01913,7.74107 -1.68993,7.62279 -2.34787,7.4465 -2.98794,7.21353 -3.60527,6.92567 -4.19517,6.58509 -4.75313,6.1944 -5.27492,5.75657 -5.75657,5.27492 -6.1944,4.75313 -6.58509,4.19517 -6.92567,3.60527 -7.21353,2.98794 -7.4465,2.34787 -7.62279,1.68993 -7.74107,1.01913 -7.80044,0.340575 0,1 7.88759,-0.34438 7.82757,-1.03052 7.70796,-1.70881 7.5297,-2.37411 7.29413,-3.02133 7.00305,-3.64556 6.65867,-4.24204 6.26361,-4.80624 5.82089,-5.33386 5.33386,-5.82089 4.80624,-6.26361 4.24204,-6.65867 3.64556,-7.00305 3.02133,-7.29413 2.37411,-7.5297 1.70881,-7.70796 1.03052,-7.82757 0.34438,-7.88759 -1,0 z "/>
<path d="M 361,361 l 43.2929,0 -43.2929,43.2929 0,-43.2929 z M 360.5,360.5 l -0.5,0 0,45 0.00190265,0.0435779 0.00569347,0.0432462 0.00944096,0.0425854 0.0131166,0.0416005 0.0166924,0.0402991 0.0201412,0.0386909 0.0234367,0.0367882 0.0265538,0.0346056 0.0294688,0.0321596 0.0321596,0.0294688 0.0346056,0.0265538 0.0367882,0.0234367 0.0386909,0.0201412 0.0402991,0.0166924 0.0416005,0.0131166 0.0425854,0.00944096 0.0432462,0.00569347 0.0435779,0.00190265 0.0435779,-0.00190265 0.0432462,-0.00569347 0.0425854,-0.00944096 0.0416005,-0.0131166 0.0402991,-0.0166924 0.0386909,-0.0201412 0.0367882,-0.0234367 0.0346056,-0.0265538 0.0321596,-0.0294688 45,-45 0.0294688,-0.0321596 0.0265538,-0.0346056 0.0234367,-0.0367882 0.0201412,-0.0386909 0.0166924,-0.0402991 0.0131166,-0.0416005 0.00944096,-0.0425854 0.00569347,-0.0432462 0.00190265,-0.0435779 -0.00190265,-0.0435779 -0.00569347,-0.0432462 -0.00944096,-0.0425854 -0.0131166,-0.0416005 -0.0166924,-0.0402991 -0.0201412,-0.0386909 -0.0234367,-0.0367882 -0.0265538,-0.0346056 -0.0294688,-0.0321596 -0.0321596,-0.0294688 -0.0346056,-0.0265538 -0.0367882,-0.0234367 -0.0386909,-0.0201412 -0.0402991,-0.0166924 -0.0416005,-0.0131166 -0.0425854,-0.00944096 -0.0432462,-0.00569347 -0.0435779,-0.00190265 -45,0 0,0.5 z "/>
<path d="M 451,361 l 43.2929,0 -43.2929,43.2929 0,-43.2929 z M 450.5,360.5 l -0.5,0 0,45 0.00190265,0.0435779 0.00569347,0.0432462 0.00944096,0.0425854 0.0131166,0.0416005 0.0166924,0.0402991 0.0201412,0.0386909 0.0234367,0.0367882 0.0265538,0.0346056 0.0294688,0.0321596 0.0321596,0.0294688 0.0346056,0.0265538 0.0367882,0.0234367 0.0386909,0.0201412 0.0402991,0.0166924 0.0416005,0.0131166 0.0425854,0.00944096 0.0432462,0.00569347 0.0435779,0.00190265 0.0435779,-0.00190265 0.0432462,-0.00569347 0.0425854,-0.00944096 0.0416005,-0.0131166 0.0402991,-0.0166924 0.0386909,-0.0201412 0.0367882,-0.0234367 0.0346056,-0.0265538 0.0321596,-0.0294688 45,-45 0.0294688,-0.0321596 0.0265538,-0.0346056 0.0234367,-0.0367882 0.0201412,-0.0386909 0.0166924,-0.0402991 0.0131166,-0.0416005 0.00944096,-0.0425854 0.00569347,-0.0432462 0.00190265,-0.0435779 -0.00190265,-0.0435779 -0.00569347,-0.0432462 -0.00944096,-0.0425854 -0.0131166,-0.0416005 -0.0166924,-0.0402991 -0.0201412,-0.0386909 -0.0234367,-0.0367882 -0.0265538,-0.0346056 -0.0294688,-0.0321596 -0.0321596,-0.0294688 -0.0346056,-0.0265538 -0.0367882,-0.0234367 -0.0386909,-0.0201412 -0.0402991,-0.0166924 -0.0416005,-0.0131166 -0.0425854,-0.00944096 -0.0432462,-0.00569347 -0.0435779,-0.00190265 -45,0 0,0.5 z "/>
<path d="M 652.5,383 l -0.340575,7.80044 -1.01913,7.74107 -1.68993,7.62279 -2.34787,7.4465 -2.98794,7.21353 -3.60527,6.92567 -4.19517,6.58509 -4.75313,6.1944 -5.27492,5.75657 -5.75657,5.27492 -6.1944,4.75313 -6.58509,4.19517 -6.92567,3.60527 -7.21353,2.98794 -7.4465,2.34787 -7.62279,1.68993 -7.74107,1.01913 -7.80044,0.340575 0,1 7.88759,-0.34438 7.82757,-1.03052 7.70796,-1.70881 7.5297,-2.37411 7.29413,-3.02133 7.00305,-3.64556 6.65867,-4.24204 6.26361,-4.80624 5.82089,-5.33386 5.33386,-5.82089 4.80624,-6.26361 4.24204,-6.65867 3.64556,-7.00305 3.02133,-7.29413 2.37411,-7.5297 1.70881,-7.70796 1.03052,-7.82757 0.34438,-7.88759 -1,0 z "/>
<path d="M 631,361 l 43.2929,0 -43.2929,43.2929 0,-43.2929 z M 630.5,360.5 l -0.5,0 0,45 0.00190265,0.0435779 0.00569347,0.0432462 0.00944096,0.0425854 0.0131166,0.0416005 0.0166924,0.0402991 0.0201412,0.0386909 0.0234367,0.0367882 0.0265538,0.0346056 0.0294688,0.0321596 0.0321596,0.0294688 0.0346056,0.0265538 0.0367882,0.0234367 0.0386909,0.0201412 0.0402991,0.0166924 0.0416005,0.0131166 0.0425854,0.00944096 0.0432462,0.00569347 0.0435779,0.00190265 0.0435779,-0.00190265 0.0432462,-0.00569347 0.0425854,-0.00944096 0.0416005,-0.0131166 0.0402991,-0.0166924 0.0386909,-0.0201412 0.0367882,-0.0234367 0.0346056,-0.0265538 0.0321596,-0.0294688 45,-45 0.0284653,-0.0309674 0.0257617,-0.0332503 0.0228759,-0.035298 0.0198281,-0.0370958 0.01664,-0.0386311 0.0133342,-0.039893 0.00993398,-0.0408726 0.00646346,-0.0415629 0.00294721,-0.0419591 -0.000589906,-0.0420584 -0.00412284,-0.0418599 -0.00762661,-0.0413653 -0.0110764,-0.0405779 -0.0144478,-0.0395033 -0.0177169,-0.0381492 -0.0208607,-0.0365251 -0.0238569,-0.0346425 -0.0266842,-0.0325147 -0.0293226,-0.0301569 -0.0317536,-0.0275856 -0.0339598,-0.0248191 -0.0359257,-0.0218769 -0.0376373,-0.0187799 -0.0390826,-0.01555 -0.0402513,-0.0122101 -0.0411351,-0.00878375 -0.0417278,-0.00529524 -0.0420253,-0.00176925 -45,0 0,0.5 z "/>
<path d="M 112.5,473 l -0.340575,7.80044 -1.01913,7.74107 -1.68993,7.62279 -2.34787,7.4465 -2.98794,7.21353 -3.60527,6.92567 -4.19517,6.58509 -4.75313,6.1944 -5.27492,5.75657 -5.75657,5.27492 -6.1944,4.75313 -6.58509,4.19517 -6.92567,3.60527 -7.21353,2.98794 -7.4465,2.34787 -7.62279,1.68993 -7.74107,1.01913 -7.80044,0.340575 0,1 7.88759,-0.34438 7.82757,-1.03052 7.70796,-1.70881 7.5297,-2.37411 7.29413,-3.02133 7.00305,-3.64556 6.65867,-4.24204 6.26361,-4.80624 5.82089,-5.33386 5.33386,-5.82089 4.80624,-6.26361 4.24204,-6.65867 3.64556,-7.00305 3.02133,-7.29413 2.37411,-7.5297 1.70881,-7.70796 1.03052,-7.82757 0.34438,-7.88759 -1,0 z "/>
<path d="M 91,451 l 43.2929,0 -43.2929,43.2929 0,-43.2929 z M 90.5,450.5 l -0.5,0 0,45 0.00190265,0.0435779 0.00569347,0.0432462 0.00944096,0.0425854 0.0131166,0.0416005 0.0166924,0.0402991 0.0201412,0.0386909 0.0234367,0.0367882 0.0265538,0.0346056 0.0294688,0.0321596 0.0321596,0.0294688 0.0346056,0.0265538 0.0367882,0.0234367 0.0386909,0.0201412 0.0402991,0.0166924 0.0416005,0.0131166 0.0425854,0.00944096 0.0432462,0.00569347 0.0435779,0.00190265 0.0435779,-0.00190265 0.0432462,-0.00569347 0.0425854,-0.00944096 0.0416005,-0.0131166 0.0402991,-0.0166924 0.0386909,-0.0201412 0.0367882,-0.0234367 0.0346056,-0.0265538 0.0321596,-0.0294688 45,-45 0.0294688,-0.0321596 0.0265538,-0.0346056 0.0234367,-0.0367882 0.0201412,-0.0386909 0.0166924,-0.0402991 0.0131166,-0.0416005 0.00944096,-0.0425854 0.00569347,-0.0432462 0.00190265,-0.0435779 -0.00190265,-0.0435779 -0.00569347,-0.0432462 -0.00944096,-0.0425854 -0.0131166,-0.0416005 -0.0166924,-0.0402991 -0.0201412,-0.0386909 -0.0234367,-0.0367882 -0.0265538,-0.0346056 -0.0294688,-0.0321596 -0.0321596,-0.0294688 -0.0346056,-0.0265538 -0.0367882,-0.0234367 -0.0386909,-0.0201412 -0.0402991,-0.0166924 -0.0416005,-0.0131166 -0.0425854,-0.00944096 -0.0432462,-0.00569347 -0.0435779,-0.00190265 -45,0 0,0.5 z "/>
<path d="M 292.5,473 l -0.340575,7.80044 -1.01913,7.74107 -1.68993,7.62279 -2.34787,7.4465 -2.98794,7.21353 -3.60527,6.92567 -4.19517,6.58509 -4.75313,6.1944 -5.27492,5.75657 -5.75657,5.27492 -6.1944,4.75313 -6.58509,4.19517 -6.92567,3.60527 -7.21353,2.98794 -7.4465,2.34787 -7.62279,1.68993 -7.74107,1.01913 -7.80044,0.340575 0,1 7.88759,-0.34438 7.82757,-1.03052 7.70796,-1.70881 7.5297,-2.37411 7.29413,-3.02133 7.00305,-3.64556 6.65867,-4.24204 6.26361,-4.80624 5.82089,-5.33386 5.33386,-5.82089 4.80624,-6.26361 4.24204,-6.65867 3.64556,-7.00305 3.02133,-7.29413 2.37411,-7.5297 1.70881,-7.70796 1.03052,-7.82757 0.34438,-7.88759 -1,0 z "/>
<path d="M 271,451 l 43.2929,0 -43.2929,43.2929 0,-43.2929 z M 270.5,450.5 l -0.5,0 0,45 0.00190265,0.0435779 0.00569347,0.0432462 0.00944096,0.0425854 0.0131166,0.0416005 0.0166924,0.0402991 0.0201412,0.0386909 0.0234367,0.0367882 0.0265538,0.0346056 0.0294688,0.0321596 0.0321596,0.0294688 0.0346056,0.0265538 0.0367882,0.0234367 0.0386909,0.0201412 0.0402991,0.0166924 0.0416005,0.0131166 0.0425854,0.00944096 0.0432462,0.00569347 0.0435779,0.00190265 0.0435779,-0.00190265 0.0432462,-0.00569347 0.0425854,-0.00944096 0.0416005,-0.0131166 0.0402991,-0.0166924 0.0386909,-0.0201412 0.0367882,-0.0234367 0.0346056,-0.0265538 0.0321596,-0.0294688 45,-45 0.0294688,-0.0321596 0.0265538,-0.0346056 0.0234367,-0.0367882 0.0201412,-0.0386909 0.0166924,-0.0402991 0.0131166,-0.0416005 0.00944096,-0.0425854 0.00569347,-0.0432462 0.00190265,-0.0435779 -0.00190265,-0.0435779 -0.00569347,-0.0432462 -0.00944096,-0.0425854 -0.0131166,-0.0416005 -0.0166924,-0.0402991 -0.0201412,-0.0386909 -0.0234367,-0.0367882 -0.0265538,-0.0346056 -0.0294688,-0.0321596 -0.0321596,-0.0294688 -0.0346056,-0.0265538 -0.0367882,-0.0234367 -0.0386909,-0.0201412 -0.0402991,-0.0166924 -0.0416005,-0.0131166 -0.0425854,-0.00944096 -0.0432462,-0.00569347 -0.0435779,-0.00190265 -45,0 0,0.5 z "/>
<path d="M 361,451 l 43.2929,0 -43.2929,43.2929 0,-43.2929 z M 360.5,450.5 l -0.5,0 0,45 0.00190265,0.0435779 0.00569347,0.0432462 0.00944096,0.0425854 0.0131166,0.0416005 0.0166924,0.0402991 0.0201412,0.0386909 0.0234367,0.0367882 0.0265538,0.0346056 0.0294688,0.0321596 0.0321596,0.0294688 0.0346056,0.0265538 0.0367882,0.0234367 0.0386909,0.0201412 0.0402991,0.0166924 0.0416005,0.0131166 0.0425854,0.00944096 0.0432462,0.00569347 0.0435779,0.00190265 0.0435779,-0.00190265 0.0432462,-0.00569347 0.0425854,-0.00944096 0.0416005,-0.0131166 0.0402991,-0.0166924 0.0386909,-0.0201412 0.0367882,-0.0234367 0.0346056,-0.0265538 0.0321596,-0.0294688 45,-45 0.0294688,-0.0321596 0.0265538,-0.0346056 0.0234367,-0.0367882 0.0201412,-0.0386909 0.0166924,-0.0402991 0.0131166,-0.0416005 0.00944096,-0.0425854 0.00569347,-0.0432462 0.00190265,-0.0435779 -0.00190265,-0.0435779 -0.00569347,-0.0432462 -0.00944096,-0.0425854 -0.0131166,-0.0416005 -0.0166924,-0.0402991 -0.0201412,-0.0386909 -0.0234367,-0.0367882 -0.0265538,-0.0346056 -0.0294688,-0.0321596 -0.0321596,-0.0294688 -0.0346056,-0.0265538 -0.0367882,-0.0234367 -0.0386909,-0.0201412 -0.0402991,-0.0166924 -0.0416005,-0.0131166 -0.0425854,-0.00944096 -0.0432462,-0.00569347 -0.0435779,-0.00190265 -45,0 0,0.5 z "/>
<path d="M 451,451 l 43.2929,0 -43.2929,43.2929 0,-43.2929 z M 450.5,450.5 l -0.5,0 0,45 0.00190265,0.0435779 0.00569347,0.0432462 0.00944096,0.0425854 0.0131166,0.0416005 0.0166924,0.0402991 0.0201412,0.0386909 0.0234367,0.0367882 0.0265538,0.0346056 0.0294688,0.0321596 0.0321596,0.0294688 0.0346056,0.0265538 0.0367882,0.0234367 0.0386909,0.0201412 0.0402991,0.0166924 0.0416005,0.0131166 0.0425854,0.00944096 0.0432462,0.00569347 0.0435779,0.00190265 0.0435779,-0.00190265 0.0432462,-0.00569347 0.0425854,-0.00944096 0.0416005,-0.0131166 0.0402991,-0.0166924 0.0386909,-0.0201412 0.0367882,-0.0234367 0.0346056,-0.0265538 0.0321596,-0.0294688 45,-45 0.0294688,-0.0321596 0.0265538,-0.0346056 0.0234367,-0.0367882 0.0201412,-0.0386909 0.0166924,-0.0402991 0.0131166,-0.0416005 0.00944096,-0.0425854 0.00569347,-0.0432462 0.00190265,-0.0435779 -0.00190265,-0.0435779 -0.00569347,-0.0432462 -0.00944096,-0.0425854 -0.0131166,-0.0416005 -0.0166924,-0.0402991 -0.0201412,-0.0386909 -0.0234367,-0.0367882 -0.0265538,-0.0346056 -0.0294688,-0.0321596 -0.0321596,-0.0294688 -0.0346056,-0.0265538 -0.0367882,-0.0234367 -0.0386909,-0.0201412 -0.0402991,-0.0166924 -0.0416005,-0.0131166 -0.0425854,-0.00944096 -0.0432462,-0.00569347 -0.0435779,-0.00190265 -45,0 0,0.5 z "/>
<path d="M 541,451 l 43.2929,0 -43.2929,43.2929 0,-43.2929 z M 540.5,450.5 l -0.5,0 0,45 0.00190265,0.0435779 0.00569347,0.0432462 0.00944096,0.0425854 0.0131166,0.0416005 0.0166924,0.0402991 0.0201412,0.0386909 0.0234367,0.0367882 0.0265538,0.0346056 0.0294688,0.0321596 0.0321596,0.0294688 0.0346056,0.0265538 0.0367882,0.0234367 0.0386909,0.0201412 0.0402991,0.0166924 0.0416005,0.0131166 0.0425854,0.00944096 0.0432462,0.00569347 0.0435779,0.00190265 0.0435779,-0.00190265 0.0432462,-0.00569347 0.0425854,-0.00944096 0.0416005,-0.0131166 0.0402991,-0.0166924 0.0386909,-0.0201412 0.0367882,-0.0234367 0.0346056,-0.0265538 0.0321596,-0.0294688 45,-45 0.0284653,-0.0309674 0.0257617,-0.0332503 0.0228759,-0.035298 0.0198281,-0.0370958 0.01664,-0.0386311 0.0133342,-0.039893 0.00993398,-0.0408726 0.00646346,-0.0415629 0.00294721,-0.0419591 -0.000589906,-0.0420584 -0.00412284,-0.0418599 -0.00762661,-0.0413653 -0.0110764,-0.0405779 -0.0144478,-0.0395033 -0.0177169,-0.0381492 -0.0208607,-0.0365251 -0.0238569,-0.0346425 -0.0266842,-0.0325147 -0.0293226,-0.0301569 -0.0317536,-0.0275856 -0.0339598,-0.0248191 -0.0359257,-0.0218769 -0.0376373,-0.0187799 -0.0390826,-0.01555 -0.0402513,-0.0122101 -0.0411351,-0.00878375 -0.0417278,-0.00529524 -0.0420253,-0.00176925 -45,0 0,0.5 z "/>
<path d="M 631,451 l 43.2929,0 -43.2929,43.2929 0,-43.2929 z M 630.5,450.5 l -0.5,0 0,45 0.00190265,0.0435779 0.00569347,0.0432462 0.00944096,0.0425854 0.0131166,0.0416005 0.0166924,0.0402991 0.0201412,0.0386909 0.0234367,0.0367882 0.0265538,0.0346056 0.0294688,0.0321596 0.0321596,0.0294688 0.0346056,0.0265538 0.0367882,0.0234367 0.0386909,0.0201412 0.0402991,0.0166924 0.0416005,0.0131166 0.0425854,0.00944096 0.0432462,0.00569347 0.0435779,0.00190265 0.0435779,-0.00190265 0.0432462,-0.00569347 0.0425854,-0.00944096 0.0416005,-0.0131166 0.0402991,-0.0166924 0.0386909,-0.0201412 0.0367882,-0.0234367 0.0346056,-0.0265538 0.0321596,-0.0294688 45,-45 0.0284653,-0.0309674 0.0257617,-0.0332503 0.0228759,-0.035298 0.0198281,-0.0370958 0.01664,-0.0386311 0.0133342,-0.039893 0.00993398,-0.0408726 0.00646346,-0.0415629 0.00294721,-0.0419591 -0.000589906,-0.0420584 -0.00412284,-0.0418599 -0.00762661,-0.0413653 -0.0110764,-0.0405779 -0.0144478,-0.0395033 -0.0177169,-0.0381492 -0.0208607,-0.0365251 -0.0238569,-0.0346425 -0.0266842,-0.0325147 -0.0293226,-0.0301569 -0.0317536,-0.0275856 -0.0339598,-0.0248191 -0.0359257,-0.0218769 -0.0376373,-0.0187799 -0.0390826,-0.01555 -0.0402513,-0.0122101 -0.0411351,-0.00878375 -0.0417278,-0.00529524 -0.0420253,-0.00176925 -45,0 0,0.5 z "/>
<path d="M 112.5,563 l -0.340575,7.80044 -1.01913,7.74107 -1.68993,7.62279 -2.34787,7.4465 -2.98794,7.21353 -3.60527,6.92567 -4.19517,6.58509 -4.75313,6.1944 -5.27492,5.75657 -5.75657,5.27492 -6.1944,4.75313 -6.58509,4.19517 -6.92567,3.60527 -7.21353,2.98794 -7.4465,2.34787 -7.62279,1.68993 -7.74107,1.01913 -7.80044,0.340575 0,1 7.88759,-0.34438 7.82757,-1.03052 7.70796,-1.70881 7.5297,-2.37411 7.29413,-3.02133 7.00305,-3.64556 6.65867,-4.24204 6.26361,-4.80624 5.82089,-5.33386 5.33386,-5.82089 4.80624,-6.26361 4.24204,-6.65867 3.64556,-7.00305 3.02133,-7.29413 2.37411,-7.5297 1.70881,-7.70796 1.03052,-7.82757 0.34438,-7.88759 -1,0 z "/>
<path d="M 91,541 l 43.2929,0 -43.2929,43.2929 0,-43.2929 z M 90.5,540.5 l -0.5,0 0,45 0.00176925,0.0420253 0.00529524,0.0417278 0.00878375,0.0411351 0.0122101,0.0402513 0.01555,0.0390826 0.0187799,0.0376373 0.0218769,0.0359257 0.0248191,0.0339598 0.0275856,0.0317536 0.0301569,0.0293226 0.0325147,0.0266842 0.0346425,0.0238569 0.0365251,0.0208607 0.0381492,0.0177169 0.0395033,0.0144478 0.0405779,0.0110764 0.0413653,0.00762661 0.0418599,0.00412284 0.0420584,0.000589906 0.0419591,-0.00294721 0.0415629,-0.00646346 0.0408726,-0.00993398 0.039893,-0.0133342 0.0386311,-0.01664 0.0370958,-0.0198281 0.035298,-0.0228759 0.0332503,-0.0257617 0.0309674,-0.0284653 45,-45 0.0294688,-0.0321596 0.0265538,-0.0346056 0.0234367,-0.0367882 0.0201412,-0.0386909 0.0166924,-0.0402991 0.0131166,-0.0416005 0.00944096,-0.0425854 0.00569347,-0.0432462 0.00190265,-0.0435779 -0.00190265,-0.0435779 -0.00569347,-0.0432462 -0.00944096,-0.0425854 -0.0131166,-0.0416005 -0.0166924,-0.0402991 -0.0201412,-0.0386909 -0.0234367,-0.0367882 -0.0265538,-0.0346056 -0.0294688,-0.0321596 -0.0321596,-0.0294688 -0.0346056,-0.0265538 -0.0367882,-0.0234367 -0.0386909,-0.0201412 -0.0402991,-0.0166924 -0.0416005,-0.0131166 -0.0425854,-0.00944096 -0.0432462,-0.00569347 -0.0435779,-0.00190265 -45,0 0,0.5 z "/>
<path d="M 181,541 l 43.2929,0 -43.2929,43.2929 0,-43.2929 z M 180.5,540.5 l -0.5,0 0,45 0.00176925,0.0420253 0.00529524,0.0417278 0.00878375,0.0411351 0.0122101,0.0402513 0.01555,0.0390826 0.0187799,0.0376373 0.0218769,0.0359257 0.0248191,0.0339598 0.0275856,0.0317536 0.0301569,0.0293226 0.0325147,0.0266842 0.0346425,0.0238569 0.0365251,0.0208607 0.0381492,0.0177169 0.0395033,0.0144478 0.0405779,0.0110764 0.0413653,0.00762661 0.0418599,0.00412284 0.0420584,0.000589906 0.0419591,-0.00294721 0.0415629,-0.00646346 0.0408726,-0.00993398 0.039893,-0.0133342 0.0386311,-0.01664 0.0370958,-0.0198281 0.035298,-0.0228759 0.0332503,-0.0257617 0.0309674,-0.0284653 45,-45 0.0294688,-0.0321596 0.0265538,-0.0346056 0.0234367,-0.0367882 0.0201412,-0.0386909 0.0166924,-0.0402991 0.0131166,-0.0416005 0.00944096,-0.0425854 0.00569347,-0.0432462 0.00190265,-0.0435779 -0.00190265,-0.0435779 -0.00569347,-0.0432462 -0.00944096,-0.0425854 -0.0131166,-0.0416005 -0.0166924,-0.0402991 -0.0201412,-0.0386909 -0.0234367,-0.0367882 -0.0265538,-0.0346056 -0.0294688,-0.0321596 -0.0321596,-0.0294688 -0.0346056,-0.0265538 -0.0367882,-0.0234367 -0.0386909,-0.0201412 -0.0402991,-0.0166924 -0.0416005,-0.0131166 -0.0425854,-0.00944096 -0.0432462,-0.00569347 -0.0435779,-0.00190265 -45,0 0,0.5 z "/>
<path d="M 271,541 l 43.2929,0 -43.2929,43.2929 0,-43.2929 z M 270.5,540.5 l -0.5,0 0,45 0.00176925,0.0420253 0.00529524,0.0417278 0.00878375,0.0411351 0.0122101,0.0402513 0.01555,0.0390826 0.0187799,0.0376373 0.0218769,0.0359257 0.0248191,0.0339598 0.0275856,0.0317536 0.0301569,0.0293226 0.0325147,0.0266842 0.0346425,0.0238569 0.0365251,0.0208607 0.0381492,0.0177169 0.0395033,0.0144478 0.0405779,0.0110764 0.0413653,0.00762661 0.0418599,0.00412284 0.0420584,0.000589906 0.0419591,-0.00294721 0.0415629,-0.00646346 0.0408726,-0.00993398 0.039893,-0.0133342 0.0386311,-0.01664 0.0370958,-0.0198281 0.035298,-0.0228759 0.0332503,-0.0257617 0.0309674,-0.0284653 45,-45 0.0294688,-0.0321596 0.0265538,-0.0346056 0.0234367,-0.0367882 0.0201412,-0.0386909 0.0166924,-0.0402991 0.0131166,-0.0416005 0.00944096,-0.0425854 0.00569347,-0.0432462 0.00190265,-0.0435779 -0.00190265,-0.0435779 -0.00569347,-0.0432462 -0.00944096,-0.0425854 -0.0131166,-0.0416005 -0.0166924,-0.0402991 -0.0201412,-0.0386909 -0.0234367,-0.0367882 -0.0265538,-0.0346056 -0.0294688,-0.0321596 -0.0321596,-0.0294688 -0.0346056,-0.0265538 -0.0367882,-0.0234367 -0.0386909,-0.0201412 -0.0402991,-0.0166924 -0.0416005,-0.0131166 -0.0425854,-0.00944096 -0.0432462,-0.00569347 -0.0435779,-0.00190265 -45,0 0,0.5 z "/>
<path d="M 472.5,563 l -0.340575,7.80044 -1.01913,7.74107 -1.68993,7.62279 -2.34787,7.4465 -2.98794,7.21353 -3.60527,6.92567 -4.19517,6.58509 -4.75313,6.1944 -5.27492,5.75657 -5.75657,5.27492 -6.1944,4.75313 -6.58509,4.19517 -6.92567,3.60527 -7.21353,2.98794 -7.4465,2.34787 -7.62279,1.68993 -7.74107,1.01913 -7.80044,0.340575 0,1 7.88759,-0.34438 7.82757,-1.03052 7.70796,-1.70881 7.5297,-2.37411 7.29413,-3.02133 7.00305,-3.64556 6.65867,-4.24204 6.26361,-4.80624 5.82089,-5.33386 5.33386,-5.82089 4.80624,-6.26361 4.24204,-6.65867 3.64556,-7.00305 3.02133,-7.29413 2.37411,-7.5297 1.70881,-7.70796 1.03052,-7.82757 0.34438,-7.88759 -1,0 z "/>
<path d="M 451,541 l 43.2929,0 -43.2929,43.2929 0,-43.2929 z M 450.5,540.5 l -0.5,0 0,45 0.00176925,0.0420253 0.00529524,0.0417278 0.00878375,0.0411351 0.0122101,0.0402513 0.01555,0.0390826 0.0187799,0.0376373 0.0218769,0.0359257 0.0248191,0.0339598 0.0275856,0.0317536 0.0301569,0.0293226 0.0325147,0.0266842 0.0346425,0.0238569 0.0365251,0.0208607 0.0381492,0.0177169 0.0395033,0.0144478 0.0405779,0.0110764 0.0413653,0.00762661 0.0418599,0.00412284 0.0420584,0.000589906 0.0419591,-0.00294721 0.0415629,-0.00646346 0.0408726,-0.00993398 0.039893,-0.0133342 0.0386311,-0.01664 0.0370958,-0.0198281 0.035298,-0.0228759 0.0332503,-0.0257617 0.0309674,-0.0284653 45,-45 0.0294688,-0.0321596 0.0265538,-0.0346056 0.0234367,-0.0367882 0.0201412,-0.0386909 0.0166924,-0.0402991 0.0131166,-0.0416005 0.00944096,-0.0425854 0.00569347,-0.0432462 0.00190265,-0.0435779 -0.00190265,-0.0435779 -0.00569347,-0.0432462 -0.00944096,-0.0425854 -0.0131166,-0.0416005 -0.0166924,-0.0402991 -0.0201412,-0.0386909 -0.0234367,-0.0367882 -0.0265538,-0.0346056 -0.0294688,-0.0321596 -0.0321596,-0.0294688 -0.0346056,-0.0265538 -0.0367882,-0.0234367 -0.0386909,-0.0201412 -0.0402991,-0.0166924 -0.0416005,-0.0131166 -0.0425854,-0.00944096 -0.0432462,-0.00569347 -0.0435779,-0.00190265 -45,0 0,0.5 z "/>
<path d="M 541,541 l 43.2929,0 -43.2929,43.2929 0,-43.2929 z M 540.5,540.5 l -0.5,0 0,45 0.00190265,0.0435779 0.00569347,0.0432462 0.00944096,0.0425854 0.0131166,0.0416005 0.0166924,0.0402991 0.0201412,0.0386909 0.0234367,0.0367882 0.0265538,0.0346056 0.0294688,0.0321596 0.0321596,0.0294688 0.0346056,0.0265538 0.0367882,0.0234367 0.0386909,0.0201412 0.0402991,0.0166924 0.0416005,0.0131166 0.0425854,0.00944096 0.0432462,0.00569347 0.0435779,0.00190265 0.0435779,-0.00190265 0.0432462,-0.00569347 0.0425854,-0.00944096 0.0416005,-0.0131166 0.0402991,-0.0166924 0.0386909,-0.0201412 0.0367882,-0.0234367 0.0346056,-0.0265538 0.0321596,-0.0294688 45,-45 0.0294688,-0.0321596 0.0265538,-0.0346056 0.0234367,-0.0367882 0.0201412,-0.0386909 0.0166924,-0.0402991 0.0131166,-0.0416005 0.00944096,-0.0425854 0.00569347,-0.0432462 0.00190265,-0.0435779 -0.00190265,-0.0435779 -0.00569347,-0.0432462 -0.00944096,-0.0425854 -0.0131166,-0.0416005 -0.0166924,-0.0402991 -0.0201412,-0.0386909 -0.0234367,-0.0367882 -0.0265538,-0.0346056 -0.0294688,-0.0321596 -0.0321596,-0.0294688 -0.0346056,-0.0265538 -0.0367882,-0.0234367 -0.0386909,-0.0201412 -0.0402991,-0.0166924 -0.0416005,-0.0131166 -0.0425854,-0.00944096 -0.0432462,-0.00569347 -0.0435779,-0.00190265 -45,0 0,0.5 z "/>
<path d="M 742.5,563 l -0.340575,7.80044 -1.01913,7.74107 -1.68993,7.62279 -2.34787,7.4465 -2.98794,7.21353 -3.60527,6.92567 -4.19517,6.58509 -4.75313,6.1944 -5.27492,5.75657 -5.75657,5.27492 -6.1944,4.75313 -6.58509,4.19517 -6.92567,3.60527 -7.21353,2.98794 -7.4465,2.34787 -7.62279,1.68993 -7.74107,1.01913 -7.80044,0.340575 0,1 7.88759,-0.34438 7.82757,-1.03052 7.70796,-1.70881 7.5297,-2.37411 7.29413,-3.02133 7.00305,-3.64556 6.65867,-4.24204 6.26361,-4.80624 5.82089,-5.33386 5.33386,-5.82089 4.80624,-6.26361 4.24204,-6.65867 3.64556,-7.00305 3.02133,-7.29413 2.37411,-7.5297 1.70881,-7.70796 1.03052,-7.82757 0.34438,-7.88759 -1,0 z "/>
<path d="M 112.5,653 l -0.340575,7.80044 -1.01913,7.74107 -1.68993,7.62279 -2.34787,7.4465 -2.98794,7.21353 -3.60527,6.92567 -4.19517,6.58509 -4.75313,6.1944 -5.27492,5.75657 -5.75657,5.27492 -6.1944,4.75313 -6.58509,4.19517 -6.92567,3.60527 -7.21353,2.98794 -7.4465,2.34787 -7.62279,1.68993 -7.74107,1.01913 -7.80044,0.340575 0,1 7.88759,-0.34438 7.82757,-1.03052 7.70796,-1.70881 7.5297,-2.37411 7.29413,-3.02133 7.00305,-3.64556 6.65867,-4.24204 6.26361,-4.80624 5.82089,-5.33386 5.33386,-5.82089 4.80624,-6.26361 4.24204,-6.65867 3.64556,-7.00305 3.02133,-7.29413 2.37411,-7.5297 1.70881,-7.70796 1.03052,-7.82757 0.34438,-7.88759 -1,0 z "/>
<path d="M 91,631 l 43.2929,0 -43.2929,43.2929 0,-43.2929 z M 90.5,630.5 l -0.5,0 0,45 0.00176925,0.0420253 0.00529524,0.0417278 0.00878375,0.0411351 0.0122101,0.0402513 0.01555,0.0390826 0.0187799,0.0376373 0.0218769,0.0359257 0.0248191,0.0339598 0.0275856,0.0317536 0.0301569,0.0293226 0.0325147,0.0266842 0.0346425,0.0238569 0.0365251,0.0208607 0.0381492,0.0177169 0.0395033,0.0144478 0.0405779,0.0110764 0.0413653,0.00762661 0.0418599,0.00412284 0.0420584,0.000589906 0.0419591,-0.00294721 0.0415629,-0.00646346 0.0408726,-0.00993398 0.039893,-0.0133342 0.0386311,-0.01664 0.0370958,-0.0198281 0.035298,-0.0228759 0.0332503,-0.0257617 0.0309674,-0.0284653 45,-45 0.0294688,-0.0321596 0.0265538,-0.0346056 0.0234367,-0.0367882 0.0201412,-0.0386909 0.0166924,-0.0402991 0.0131166,-0.0416005 0.00944096,-0.0425854 0.00569347,-0.0432462 0.00190265,-0.0435779 -0.00190265,-0.0435779 -0.00569347,-0.0432462 -0.00944096,-0.0425854 -0.0131166,-0.0416005 -0.0166924,-0.0402991 -0.0201412,-0.0386909 -0.0234367,-0.0367882 -0.0265538,-0.0346056 -0.0294688,-0.0321596 -0.0321596,-0.0294688 -0.0346056,-0.0265538 -0.0367882,-0.0234367 -0.0386909,-0.0201412 -0.0402991,-0.0166924 -0.0416005,-0.0131166 -0.0425854,-0.00944096 -0.0432462,-0.00569347 -0.0435779,-0.00190265 -45,0 0,0.5 z "/>
<path d="M 292.5,653 l -0.340575,7.80044 -1.01913,7.74107 -1.68993,7.62279 -2.34787,7.4465 -2.98794,7.21353 -3.60527,6.92567 -4.19517,6.58509 -4.75313,6.1944 -5.27492,5.75657 -5.75657,5.27492 -6.1944,4.75313 -6.58509,4.19517 -6.92567,3.60527 -7.21353,2.98794 -7.4465,2.34787 -7.62279,1.68993 -7.74107,1.01913 -7.80044,0.340575 0,1 7.88759,-0.34438 7.82757,-1.03052 7.70796,-1.70881 7.5297,-2.37411 7.29413,-3.02133 7.00305,-3.64556 6.65867,-4.24204 6.26361,-4.80624 5.82089,-5.33386 5.33386,-5.82089 4.80624,-6.26361 4.24204,-6.65867 3.64556,-7.00305 3.02133,-7.29413 2.37411,-7.5297 1.70881,-7.70796 1.03052,-7.82757 0.34438,-7.88759 -1,0 z "/>
<path d="M 271,631 l 43.2929,0 -43.2929,43.2929 0,-43.2929 z M 270.5,630.5 l -0.5,0 0,45 0.00176925,0.0420253 0.00529524,0.0417278 0.00878375,0.0411351 0.0122101,0.0402513 0.01555,0.0390826 0.0187799,0.0376373 0.0218769,0.0359257 0.0248191,0.0339598 0.0275856,0.0317536 0.0301569,0.0293226 0.0325147,0.0266842 0.0346425,0.0238569 0.0365251,0.0208607 0.0381492,0.0177169 0.0395033,0.0144478 0.0405779,0.0110764 0.0413653,0.00762661 0.0418599,0.00412284 0.0420584,0.000589906 0.0419591,-0.00294721 0.0415629,-0.00646346 0.0408726,-0.00993398 0.039893,-0.0133342 0.0386311,-0.01664 0.0370958,-0.0198281 0.035298,-0.0228759 0.0332503,-0.0257617 0.0309674,-0.0284653 45,-45 0.0294688,-0.0321596 0.0265538,-0.0346056 0.0234367,-0.0367882 0.0201412,-0.0386909 0.0166924,-0.0402991 0.0131166,-0.0416005 0.00944096,-0.0425854 0.00569347,-0.0432462 0.00190265,-0.0435779 -0.00190265,-0.0435779 -0.00569347,-0.0432462 -0.00944096,-0.0425854 -0.0131166,-0.0416005 -0.0166924,-0.0402991 -0.0201412,-0.0386909 -0.0234367,-0.0367882 -0.0265538,-0.0346056 -0.0294688,-0.0321596 -0.0321596,-0.0294688 -0.0346056,-0.0265538 -0.0367882,-0.0234367 -0.0386909,-0.0201412 -0.0402991,-0.0166924 -0.0416005,-0.0131166 -0.0425854,-0.00944096 -0.0432462,-0.00569347 -0.0435779,-0.00190265 -45,0 0,0.5 z "/>
<path d="M 472.5,653 l -0.340575,7.80044 -1.01913,7.74107 -1.68993,7.62279 -2.34787,7.4465 -2.98794,7.21353 -3.60527,6.92567 -4.19517,6.58509 -4.75313,6.1944 -5.27492,5.75657 -5.75657,5.27492 -6.1944,4.75313 -6.58509,4.19517 -6.92567,3.60527 -7.21353,2.98794 -7.4465,2.34787 -7.62279,1.68993 -7.74107,1.01913 -7.80044,0.340575 0,1 7.88759,-0.34438 7.82757,-1.03052 7.70796,-1.70881 7.5297,-2.37411 7.29413,-3.02133 7.00305,-3.64556 6.65867,-4.24204 6.26361,-4.80624 5.82089,-5.33386 5.33386,-5.82089 4.80624,-6.26361 4.24204,-6.65867 3.64556,-7.00305 3.02133,-7.29413 2.37411,-7.5297 1.70881,-7.70796 1.03052,-7.82757 0.34438,-7.88759 -1,0 z "/>
<path d="M 562.5,653 l -0.340575,7.80044 -1.01913,7.74107 -1.68993,7.62279 -2.34787,7.4465 -2.98794,7.21353 -3.60527,6.92567 -4.19517,6.58509 -4.75313,6.1944 -5.27492,5.75657 -5.75657,5.27492 -6.1944,4.75313 -6.58509,4.19517 -6.92567,3.60527 -7.21353,2.98794 -7.4465,2.34787 -7.62279,1.68993 -7.74107,1.01913 -7.80044,0.340575 0,1 7.88759,-0.34438 7.82757,-1.03052 7.70796,-1.70881 7.5297,-2.37411 7.29413,-3.02133 7.00305,-3.64556 6.65867,-4.24204 6.26361,-4.80624 5.82089,-5.33386 5.33386,-5.82089 4.80624,-6.26361 4.24204,-6.65867 3.64556,-7.00305 3.02133,-7.29413 2.37411,-7.5297 1.70881,-7.70796 1.03052,-7.82757 0.34438,-7.88759 -1,0 z "/>
<path d="M 652.5,653 l -0.340575,7.80044 -1.01913,7.74107 -1.68993,7.62279 -2.34787,7.4465 -2.98794,7.21353 -3.60527,6.92567 -4.19517,6.58509 -4.75313,6.1944 -5.27492,5.75657 -5.75657,5.27492 -6.1944,4.75313 -6.58509,4.19517 -6.92567,3.60527 -7.21353,2.98794 -7.4465,2.34787 -7.62279,1.68993 -7.74107,1.01913 -7.80044,0.340575 0,1 7.88759,-0.34438 7.82757,-1.03052 7.70796,-1.70881 7.5297,-2.37411 7.29413,-3.02133 7.00305,-3.64556 6.65867,-4.24204 6.26361,-4.80624 5.82089,-5.33386 5.33386,-5.82089 4.80624,-6.26361 4.24204,-6.65867 3.64556,-7.00305 3.02133,-7.29413 2.37411,-7.5297 1.70881,-7.70796 1.03052,-7.82757 0.34438,-7.88759 -1,0 z "/>
<path d="M 742.5,653 l -0.340575,7.80044 -1.01913,7.74107 -1.68993,7.62279 -2.34787,7.4465 -2.98794,7.21353 -3.60527,6.92567 -4.19517,6.58509 -4.75313,6.1944 -5.27492,5.75657 -5.75657,5.27492 -6.1944,4.75313 -6.58509,4.19517 -6.92567,3.60527 -7.21353,2.98794 -7.4465,2.34787 -7.62279,1.68993 -7.74107,1.01913 -7.80044,0.340575 0,1 7.88759,-0.34438 7.82757,-1.03052 7.70796,-1.70881 7.5297,-2.37411 7.29413,-3.02133 7.00305,-3.64556 6.65867,-4.24204 6.26361,-4.80624 5.82089,-5.33386 5.33386,-5.82089 4.80624,-6.26361 4.24204,-6.65867 3.64556,-7.00305 3.02133,-7.29413 2.37411,-7.5297 1.70881,-7.70796 1.03052,-7.82757 0.34438,-7.88759 -1,0 z "/>
</g></g></svg>