<?xml version="1.0" encoding="UTF-8" standalone="no"?>
<!DOCTYPE svg PUBLIC "-//W3C//DTD SVG 1.1//EN" "http://www.w3.org/Graphics/SVG/1.1/DTD/svg11-flat.dtd"
[
<!ATTLIST g xmlns:fme CDATA #FIXED "http://www.safe.com/fme" >
<!ATTLIST path fme:_creation_instance CDATA #IMPLIED >
<!ATTLIST ellipse fme:_creation_instance CDATA #IMPLIED >
<!ATTLIST text fme:_creation_instance CDATA #IMPLIED >
<!ATTLIST use fme:_creation_instance CDATA #IMPLIED >
]>
<svg xmlns="http://www.w3.org/2000/svg"  viewBox="-12.2756 -12.2756 1006.6 2487.68"><g xmlns:fme="http://www.safe.com/fme" fill="none" stroke="black" stroke-width="0.122755896517465" transform="translate(0,2463.13) scale(1, -1)">
<g id="asset" >
<path d="M 166.027,1000.76 m -0.613779,-0.613779 l 0,1.22756 1.22756,0 0,-1.22756 z "/>
<path d="M 314.709,963.387 m -0.613779,-0.613779 l 0,1.22756 1.22756,0 0,-1.22756 z "/>
<path d="M 519.888,1011.41 m -0.613779,-0.613779 l 0,1.22756 1.22756,0 0,-1.22756 z "/>
<path d="M 796.191,969.252 m -0.613779,-0.613779 l 0,1.22756 1.22756,0 0,-1.22756 z "/>
<path d="M 958.923,1046.34 m -0.613779,-0.613779 l 0,1.22756 1.22756,0 0,-1.22756 z "/>
<path d="M 166.793,1235.54 m -0.613779,-0.613779 l 0,1.22756 1.22756,0 0,-1.22756 z "/>
<path d="M 314.889,1190.11 m -0.613779,-0.613779 l 0,1.22756 1.22756,0 0,-1.22756 z "/>
<path d="M 539.515,1206.26 m -0.613779,-0.613779 l 0,1.22756 1.22756,0 0,-1.22756 z "/>
<path d="M 786.819,1259.98 m -0.613779,-0.613779 l 0,1.22756 1.22756,0 0,-1.22756 z "/>
<path d="M 902.602,1172.65 m -0.613779,-0.613779 l 0,1.22756 1.22756,0 0,-1.22756 z "/>
<path d="M 174.001,1412.19 m -0.613779,-0.613779 l 0,1.22756 1.22756,0 0,-1.22756 z "/>
<path d="M 393.79,1444.33 m -0.613779,-0.613779 l 0,1.22756 1.22756,0 0,-1.22756 z "/>
<path d="M 552.22,1409.22 m -0.613779,-0.613779 l 0,1.22756 1.22756,0 0,-1.22756 z "/>
<path d="M 762.157,1398.18 m -0.613779,-0.613779 l 0,1.22756 1.22756,0 0,-1.22756 z "/>
<path d="M 974.315,1420.84 m -0.613779,-0.613779 l 0,1.22756 1.22756,0 0,-1.22756 z "/>
<path d="M 152.769,1615.72 m -0.613779,-0.613779 l 0,1.22756 1.22756,0 0,-1.22756 z "/>
<path d="M 345.463,1582.3 m -0.613779,-0.613779 l 0,1.22756 1.22756,0 0,-1.22756 z "/>
<path d="M 542.113,1591.7 m -0.613779,-0.613779 l 0,1.22756 1.22756,0 0,-1.22756 z "/>
<path d="M 788.644,1598.61 m -0.613779,-0.613779 l 0,1.22756 1.22756,0 0,-1.22756 z "/>
<path d="M 946.05,1661.12 m -0.613779,-0.613779 l 0,1.22756 1.22756,0 0,-1.22756 z "/>
<path d="M 166.027,1000.76 l 148.681,-37.3769 "/>
<path d="M 166.027,1000.76 l 148.681,-37.3769 "/>
<path d="M 314.709,963.387 l 205.18,48.0273 "/>
<path d="M 314.709,963.387 l 205.18,48.0273 "/>
<path d="M 519.888,1011.41 l 276.303,-42.1616 "/>
<path d="M 519.888,1011.41 l 276.303,-42.1616 "/>
<path d="M 796.191,969.252 l 162.732,77.0881 "/>
<path d="M 796.191,969.252 l 162.732,77.0881 "/>
<path d="M 958.923,1046.34 l -792.13,189.195 "/>
<path d="M 958.923,1046.34 l -792.13,189.195 "/>
<path d="M 166.793,1235.54 l 148.096,-45.4281 "/>
<path d="M 166.793,1235.54 l 148.096,-45.4281 "/>
<path d="M 314.889,1190.11 l 224.625,16.1522 "/>
<path d="M 314.889,1190.11 l 224.625,16.1522 "/>
<path d="M 539.515,1206.26 l 247.305,53.7178 "/>
<path d="M 539.515,1206.26 l 247.305,53.7178 "/>
<path d="M 786.819,1259.98 l 115.782,-87.3312 "/>
<path d="M 786.819,1259.98 l 115.782,-87.3312 "/>
<path d="M 902.602,1172.65 l -728.601,239.545 "/>
<path d="M 902.602,1172.65 l -728.601,239.545 "/>
<path d="M 174.001,1412.19 l 219.789,32.1398 "/>
<path d="M 174.001,1412.19 l 219.789,32.1398 "/>
<path d="M 393.79,1444.33 l 158.429,-35.1074 "/>
<path d="M 393.79,1444.33 l 158.429,-35.1074 "/>
<path d="M 552.22,1409.22 l 209.938,-11.0424 "/>
<path d="M 552.22,1409.22 l 209.938,-11.0424 "/>
<path d="M 762.157,1398.18 l 212.158,22.6591 "/>
<path d="M 762.157,1398.18 l 212.158,22.6591 "/>
<path d="M 974.315,1420.84 l -821.546,194.876 "/>
<path d="M 974.315,1420.84 l -821.546,194.876 "/>
<path d="M 152.769,1615.72 l 192.694,-33.4143 "/>
<path d="M 152.769,1615.72 l 192.694,-33.4143 "/>
<path d="M 345.463,1582.3 l 196.651,9.39922 "/>
<path d="M 345.463,1582.3 l 196.651,9.39922 "/>
<path d="M 542.113,1591.7 l 246.53,6.90995 "/>
<path d="M 542.113,1591.7 l 246.53,6.90995 "/>
<path d="M 788.644,1598.61 l 157.406,62.5104 "/>
<path d="M 788.644,1598.61 l 157.406,62.5104 "/>
<path d="M 0,1863.13 m -0.613779,-0.613779 l 0,1.22756 1.22756,0 0,-1.22756 z "/>
<path d="M 200,1863.13 m -0.613779,-0.613779 l 0,1.22756 1.22756,0 0,-1.22756 z "/>
<path d="M 400,1863.13 m -0.613779,-0.613779 l 0,1.22756 1.22756,0 0,-1.22756 z "/>
<path d="M 600,1863.13 m -0.613779,-0.613779 l 0,1.22756 1.22756,0 0,-1.22756 z "/>
<path d="M 800,1863.13 m -0.613779,-0.613779 l 0,1.22756 1.22756,0 0,-1.22756 z "/>
<path d="M 0,2063.13 m -0.613779,-0.613779 l 0,1.22756 1.22756,0 0,-1.22756 z "/>
<path d="M 200,2063.13 m -0.613779,-0.613779 l 0,1.22756 1.22756,0 0,-1.22756 z "/>
<path d="M 400,2063.13 m -0.613779,-0.613779 l 0,1.22756 1.22756,0 0,-1.22756 z "/>
<path d="M 600,2063.13 m -0.613779,-0.613779 l 0,1.22756 1.22756,0 0,-1.22756 z "/>
<path d="M 800,2063.13 m -0.613779,-0.613779 l 0,1.22756 1.22756,0 0,-1.22756 z "/>
<path d="M 0,2263.13 m -0.613779,-0.613779 l 0,1.22756 1.22756,0 0,-1.22756 z "/>
<path d="M 200,2263.13 m -0.613779,-0.613779 l 0,1.22756 1.22756,0 0,-1.22756 z "/>
<path d="M 400,2263.13 m -0.613779,-0.613779 l 0,1.22756 1.22756,0 0,-1.22756 z "/>
<path d="M 600,2263.13 m -0.613779,-0.613779 l 0,1.22756 1.22756,0 0,-1.22756 z "/>
<path d="M 800,2263.13 m -0.613779,-0.613779 l 0,1.22756 1.22756,0 0,-1.22756 z "/>
<path d="M 0,2463.13 m -0.613779,-0.613779 l 0,1.22756 1.22756,0 0,-1.22756 z "/>
<path d="M 200,2463.13 m -0.613779,-0.613779 l 0,1.22756 1.22756,0 0,-1.22756 z "/>
<path d="M 400,2463.13 m -0.613779,-0.613779 l 0,1.22756 1.22756,0 0,-1.22756 z "/>
<path d="M 600,2463.13 m -0.613779,-0.613779 l 0,1.22756 1.22756,0 0,-1.22756 z "/>
<path d="M 800,2463.13 m -0.613779,-0.613779 l 0,1.22756 1.22756,0 0,-1.22756 z "/>
<path d="M 0,1863.13 l 200,0 "/>
<path d="M 0,1863.13 l 200,0 "/>
<path d="M 200,1863.13 l 200,0 "/>
<path d="M 200,1863.13 l 200,0 "/>
<path d="M 400,1863.13 l 200,0 "/>
<path d="M 400,1863.13 l 200,0 "/>
<path d="M 600,1863.13 l 200,0 "/>
<path d="M 600,1863.13 l 200,0 "/>
<path d="M 800,1863.13 l -800,200 "/>
<path d="M 800,1863.13 l -800,200 "/>
<path d="M 0,2063.13 l 200,0 "/>
<path d="M 0,2063.13 l 200,0 "/>
<path d="M 200,2063.13 l 200,0 "/>
<path d="M 200,2063.13 l 200,0 "/>
<path d="M 400,2063.13 l 200,0 "/>
<path d="M 400,2063.13 l 200,0 "/>
<path d="M 600,2063.13 l 200,0 "/>
<path d="M 600,2063.13 l 200,0 "/>
<path d="M 800,2063.13 l -800,200 "/>
<path d="M 800,2063.13 l -800,200 "/>
<path d="M 0,2263.13 l 200,0 "/>
<path d="M 0,2263.13 l 200,0 "/>
<path d="M 200,2263.13 l 200,0 "/>
<path d="M 200,2263.13 l 200,0 "/>
<path d="M 400,2263.13 l 200,0 "/>
<path d="M 400,2263.13 l 200,0 "/>
<path d="M 600,2263.13 l 200,0 "/>
<path d="M 600,2263.13 l 200,0 "/>
<path d="M 800,2263.13 l -800,200 "/>
<path d="M 800,2263.13 l -800,200 "/>
<path d="M 0,2463.13 l 200,0 "/>
<path d="M 0,2463.13 l 200,0 "/>
<path d="M 200,2463.13 l 200,0 "/>
<path d="M 200,2463.13 l 200,0 "/>
<path d="M 400,2463.13 l 200,0 "/>
<path d="M 400,2463.13 l 200,0 "/>
<path d="M 600,2463.13 l 200,0 "/>
<path d="M 600,2463.13 l 200,0 "/>
<path d="M 198.687,20.158 m -0.613779,-0.613779 l 0,1.22756 1.22756,0 0,-1.22756 z "/>
<path d="M 350.41,21.5382 m -0.613779,-0.613779 l 0,1.22756 1.22756,0 0,-1.22756 z "/>
<path d="M 511.616,5.95907 m -0.613779,-0.613779 l 0,1.22756 1.22756,0 0,-1.22756 z "/>
<path d="M 787.159,0 m -0.613779,-0.613779 l 0,1.22756 1.22756,0 0,-1.22756 z "/>
<path d="M 931.462,24.1369 m -0.613779,-0.613779 l 0,1.22756 1.22756,0 0,-1.22756 z "/>
<path d="M 136.145,181.483 m -0.613779,-0.613779 l 0,1.22756 1.22756,0 0,-1.22756 z "/>
<path d="M 390.666,173.307 m -0.613779,-0.613779 l 0,1.22756 1.22756,0 0,-1.22756 z "/>
<path d="M 527.343,191.727 m -0.613779,-0.613779 l 0,1.22756 1.22756,0 0,-1.22756 z "/>
<path d="M 743.711,252.678 m -0.613779,-0.613779 l 0,1.22756 1.22756,0 0,-1.22756 z "/>
<path d="M 959.459,251.344 m -0.613779,-0.613779 l 0,1.22756 1.22756,0 0,-1.22756 z "/>
<path d="M 141.503,377.954 m -0.613779,-0.613779 l 0,1.22756 1.22756,0 0,-1.22756 z "/>
<path d="M 321.621,429.851 m -0.613779,-0.613779 l 0,1.22756 1.22756,0 0,-1.22756 z "/>
<path d="M 556.1,413.365 m -0.613779,-0.613779 l 0,1.22756 1.22756,0 0,-1.22756 z "/>
<path d="M 764.948,425.13 m -0.613779,-0.613779 l 0,1.22756 1.22756,0 0,-1.22756 z "/>
<path d="M 982.047,415.263 m -0.613779,-0.613779 l 0,1.22756 1.22756,0 0,-1.22756 z "/>
<path d="M 186.242,596.769 m -0.613779,-0.613779 l 0,1.22756 1.22756,0 0,-1.22756 z "/>
<path d="M 335.454,578.563 m -0.613779,-0.613779 l 0,1.22756 1.22756,0 0,-1.22756 z "/>
<path d="M 525.964,576.576 m -0.613779,-0.613779 l 0,1.22756 1.22756,0 0,-1.22756 z "/>
<path d="M 737.226,640.976 m -0.613779,-0.613779 l 0,1.22756 1.22756,0 0,-1.22756 z "/>
<path d="M 956.665,601.128 m -0.613779,-0.613779 l 0,1.22756 1.22756,0 0,-1.22756 z "/>
<path d="M 198.687,20.158 l 312.928,-14.1989 "/>
<path d="M 198.687,20.158 l 312.928,-14.1989 "/>
<path d="M 350.41,21.5382 l 436.75,-21.5382 "/>
<path d="M 350.41,21.5382 l 436.75,-21.5382 "/>
<path d="M 511.616,5.95907 l 419.847,18.1779 "/>
<path d="M 511.616,5.95907 l 419.847,18.1779 "/>
<path d="M 787.159,0 l -651.015,181.483 "/>
<path d="M 787.159,0 l -651.015,181.483 "/>
<path d="M 931.462,24.1369 l -540.796,149.17 "/>
<path d="M 931.462,24.1369 l -540.796,149.17 "/>
<path d="M 136.145,181.483 l 391.198,10.244 "/>
<path d="M 136.145,181.483 l 391.198,10.244 "/>
<path d="M 390.666,173.307 l 353.045,79.3712 "/>
<path d="M 390.666,173.307 l 353.045,79.3712 "/>
<path d="M 527.343,191.727 l 432.117,59.6175 "/>
<path d="M 527.343,191.727 l 432.117,59.6175 "/>
<path d="M 743.711,252.678 l -602.208,125.276 "/>
<path d="M 743.711,252.678 l -602.208,125.276 "/>
<path d="M 959.459,251.344 l -637.838,178.507 "/>
<path d="M 959.459,251.344 l -637.838,178.507 "/>
<path d="M 141.503,377.954 l 414.597,35.411 "/>
<path d="M 141.503,377.954 l 414.597,35.411 "/>
<path d="M 321.621,429.851 l 443.326,-4.72113 "/>
<path d="M 321.621,429.851 l 443.326,-4.72113 "/>
<path d="M 556.1,413.365 l 425.947,1.89813 "/>
<path d="M 556.1,413.365 l 425.947,1.89813 "/>
<path d="M 764.948,425.13 l -578.706,171.64 "/>
<path d="M 764.948,425.13 l -578.706,171.64 "/>
<path d="M 982.047,415.263 l -646.593,163.3 "/>
<path d="M 982.047,415.263 l -646.593,163.3 "/>
<path d="M 186.242,596.769 l 339.722,-20.1937 "/>
<path d="M 186.242,596.769 l 339.722,-20.1937 "/>
<path d="M 335.454,578.563 l 401.772,62.4135 "/>
<path d="M 335.454,578.563 l 401.772,62.4135 "/>
<path d="M 525.964,576.576 l 430.7,24.5522 "/>
<path d="M 525.964,576.576 l 430.7,24.5522 "/>
</g></g></svg>