<?xml version="1.0" encoding="UTF-8" standalone="no"?>
<!DOCTYPE svg PUBLIC "-//W3C//DTD SVG 1.1//EN" "http://www.w3.org/Graphics/SVG/1.1/DTD/svg11-flat.dtd"
[
<!ATTLIST g xmlns:fme CDATA #FIXED "http://www.safe.com/fme" >
<!ATTLIST path fme:_creation_instance CDATA #IMPLIED fme:i CDATA #IMPLIED >
<!ATTLIST ellipse fme:_creation_instance CDATA #IMPLIED fme:i CDATA #IMPLIED >
<!ATTLIST text fme:_creation_instance CDATA #IMPLIED fme:i CDATA #IMPLIED >
<!ATTLIST use fme:_creation_instance CDATA #IMPLIED fme:i CDATA #IMPLIED >
]>
<svg xmlns="http://www.w3.org/2000/svg"  viewBox="-8.125 -8.125 666.25 666.25"><g xmlns:fme="http://www.safe.com/fme" fill="none" stroke="black" stroke-width="0.08125" transform="translate(0,650) scale(1, -1)">
<g id="test" >
<path fme:_creation_instance="0" d="M 640.019,324.564 l -4.86152,55.5674 -0.0190265,0.435779 0.0190265,0.435779 0.0569347,0.432462 0.0944096,0.425854 0.131166,0.416005 0.166924,0.402991 0.201412,0.386909 0.234367,0.367882 0.265538,0.346056 0.294688,0.321596 0.321596,0.294688 0.346056,0.265538 0.367882,0.234367 0.386909,0.201412 0.402991,0.166924 0.416005,0.131166 0.425854,0.0944096 0.432462,0.0569347 0.435779,0.0190265 0.435779,-0.0190265 0.432462,-0.0569347 0.425854,-0.0944096 0.416005,-0.131166 0.402991,-0.166924 0.386909,-0.201412 0.367882,-0.234367 0.346056,-0.265538 0.321596,-0.294688 0.294688,-0.321596 0.265538,-0.346056 0.234367,-0.367882 0.201412,-0.386909 0.166924,-0.402991 0.131166,-0.416005 0.0944096,-0.425854 0.0569347,-0.432462 4.86152,-55.5674 0.0190265,-0.435779 -0.0190265,-0.435779 -0.0569347,-0.432462 -0.0944096,-0.425854 -0.131166,-0.416005 -0.166924,-0.402991 -0.201412,-0.386909 -0.234367,-0.367882 -0.265538,-0.346056 -0.294688,-0.321596 -0.321596,-0.294688 -0.346056,-0.265538 -0.367882,-0.234367 -0.386909,-0.201412 -0.402991,-0.166924 -0.416005,-0.131166 -0.425854,-0.0944096 -0.432462,-0.0569347 -0.435779,-0.0190265 -0.435779,0.0190265 -0.432462,0.0569347 -0.425854,0.0944096 -0.416005,0.131166 -0.402991,0.166924 -0.386909,0.201412 -0.367882,0.234367 -0.346056,0.265538 -0.321596,0.294688 -0.294688,0.321596 -0.265538,0.346056 -0.234367,0.367882 -0.201412,0.386909 -0.166924,0.402991 -0.131166,0.416005 -0.0944096,0.425854 -0.0569347,0.432462 z "/>
<path fme:_creation_instance="0" d="M 645,325 l -4.86152,55.5674 "/>
<path fme:_creation_instance="0" d="M 635.309,379.273 l -14.4368,53.879 -0.0944096,0.425854 -0.0569347,0.432462 -0.0190265,0.435779 0.0190265,0.435779 0.0569347,0.432462 0.0944096,0.425854 0.131166,0.416005 0.166924,0.402991 0.201412,0.386909 0.234367,0.367882 0.265538,0.346056 0.294688,0.321596 0.321596,0.294688 0.346056,0.265538 0.367882,0.234367 0.386909,0.201412 0.402991,0.166924 0.416005,0.131166 0.425854,0.0944096 0.432462,0.0569347 0.435779,0.0190265 0.435779,-0.0190265 0.432462,-0.0569347 0.425854,-0.0944096 0.416005,-0.131166 0.402991,-0.166924 0.386909,-0.201412 0.367882,-0.234367 0.346056,-0.265538 0.321596,-0.294688 0.294688,-0.321596 0.265538,-0.346056 0.234367,-0.367882 0.201412,-0.386909 0.166924,-0.402991 0.131166,-0.416005 14.4368,-53.879 0.0944096,-0.425854 0.0569347,-0.432462 0.0190265,-0.435779 -0.0190265,-0.435779 -0.0569347,-0.432462 -0.0944096,-0.425854 -0.131166,-0.416005 -0.166924,-0.402991 -0.201412,-0.386909 -0.234367,-0.367882 -0.265538,-0.346056 -0.294688,-0.321596 -0.321596,-0.294688 -0.346056,-0.265538 -0.367882,-0.234367 -0.386909,-0.201412 -0.402991,-0.166924 -0.416005,-0.131166 -0.425854,-0.0944096 -0.432462,-0.0569347 -0.435779,-0.0190265 -0.435779,0.0190265 -0.432462,0.0569347 -0.425854,0.0944096 -0.416005,0.131166 -0.402991,0.166924 -0.386909,0.201412 -0.367882,0.234367 -0.346056,0.265538 -0.321596,0.294688 -0.294688,0.321596 -0.265538,0.346056 -0.234367,0.367882 -0.201412,0.386909 -0.166924,0.402991 -0.131166,0.416005 z "/>
<path fme:_creation_instance="0" d="M 640.138,380.567 l -14.4368,53.879 "/>
<path fme:_creation_instance="0" d="M 621.17,432.333 l -23.5735,50.5536 -0.166924,0.402991 -0.131166,0.416005 -0.0944096,0.425854 -0.0569347,0.432462 -0.0190265,0.435779 0.0190265,0.435779 0.0569347,0.432462 0.0944096,0.425854 0.131166,0.416005 0.166924,0.402991 0.201412,0.386909 0.234367,0.367882 0.265538,0.346056 0.294688,0.321596 0.321596,0.294688 0.346056,0.265538 0.367882,0.234367 0.386909,0.201412 0.402991,0.166924 0.416005,0.131166 0.425854,0.0944096 0.432462,0.0569347 0.435779,0.0190265 0.435779,-0.0190265 0.432462,-0.0569347 0.425854,-0.0944096 0.416005,-0.131166 0.402991,-0.166924 0.386909,-0.201412 0.367882,-0.234367 0.346056,-0.265538 0.321596,-0.294688 0.294688,-0.321596 0.265538,-0.346056 0.234367,-0.367882 0.201412,-0.386909 23.5735,-50.5536 0.166924,-0.402991 0.131166,-0.416005 0.0944096,-0.425854 0.0569347,-0.432462 0.0190265,-0.435779 -0.0190265,-0.435779 -0.0569347,-0.432462 -0.0944096,-0.425854 -0.131166,-0.416005 -0.166924,-0.402991 -0.201412,-0.386909 -0.234367,-0.367882 -0.265538,-0.346056 -0.294688,-0.321596 -0.321596,-0.294688 -0.346056,-0.265538 -0.367882,-0.234367 -0.386909,-0.201412 -0.402991,-0.166924 -0.416005,-0.131166 -0.425854,-0.0944096 -0.432462,-0.0569347 -0.435779,-0.0190265 -0.435779,0.0190265 -0.432462,0.0569347 -0.425854,0.0944096 -0.416005,0.131166 -0.402991,0.166924 -0.386909,0.201412 -0.367882,0.234367 -0.346056,0.265538 -0.321596,0.294688 -0.294688,0.321596 -0.265538,0.346056 -0.234367,0.367882 -0.201412,0.386909 z "/>
<path fme:_creation_instance="0" d="M 625.702,434.446 l -23.5735,50.5536 "/>
<path fme:_creation_instance="0" d="M 598.032,482.132 l -31.9939,45.692 -0.234367,0.367882 -0.201412,0.386909 -0.166924,0.402991 -0.131166,0.416005 -0.0944096,0.425854 -0.0569347,0.432462 -0.0190265,0.435779 0.0190265,0.435779 0.0569347,0.432462 0.0944096,0.425854 0.131166,0.416005 0.166924,0.402991 0.201412,0.386909 0.234367,0.367882 0.265538,0.346056 0.294688,0.321596 0.321596,0.294688 0.346056,0.265538 0.367882,0.234367 0.386909,0.201412 0.402991,0.166924 0.416005,0.131166 0.425854,0.0944096 0.432462,0.0569347 0.435779,0.0190265 0.435779,-0.0190265 0.432462,-0.0569347 0.425854,-0.0944096 0.416005,-0.131166 0.402991,-0.166924 0.386909,-0.201412 0.367882,-0.234367 0.346056,-0.265538 0.321596,-0.294688 0.294688,-0.321596 0.265538,-0.346056 31.9939,-45.692 0.234367,-0.367882 0.201412,-0.386909 0.166924,-0.402991 0.131166,-0.416005 0.0944096,-0.425854 0.0569347,-0.432462 0.0190265,-0.435779 -0.0190265,-0.435779 -0.0569347,-0.432462 -0.0944096,-0.425854 -0.131166,-0.416005 -0.166924,-0.402991 -0.201412,-0.386909 -0.234367,-0.367882 -0.265538,-0.346056 -0.294688,-0.321596 -0.321596,-0.294688 -0.346056,-0.265538 -0.367882,-0.234367 -0.386909,-0.201412 -0.402991,-0.166924 -0.416005,-0.131166 -0.425854,-0.0944096 -0.432462,-0.0569347 -0.435779,-0.0190265 -0.435779,0.0190265 -0.432462,0.0569347 -0.425854,0.0944096 -0.416005,0.131166 -0.402991,0.166924 -0.386909,0.201412 -0.367882,0.234367 -0.346056,0.265538 -0.321596,0.294688 -0.294688,0.321596 -0.265538,0.346056 z "/>
<path fme:_creation_instance="0" d="M 602.128,485 l -31.9939,45.692 "/>
<path fme:_creation_instance="0" d="M 566.599,527.157 l -39.4422,39.4422 -0.294688,0.321596 -0.265538,0.346056 -0.234367,0.367882 -0.201412,0.386909 -0.166924,0.402991 -0.131166,0.416005 -0.0944096,0.425854 -0.0569347,0.432462 -0.0190265,0.435779 0.0190265,0.435779 0.0569347,0.432462 0.0944096,0.425854 0.131166,0.416005 0.166924,0.402991 0.201412,0.386909 0.234367,0.367882 0.265538,0.346056 0.294688,0.321596 0.321596,0.294688 0.346056,0.265538 0.367882,0.234367 0.386909,0.201412 0.402991,0.166924 0.416005,0.131166 0.425854,0.0944096 0.432462,0.0569347 0.435779,0.0190265 0.435779,-0.0190265 0.432462,-0.0569347 0.425854,-0.0944096 0.416005,-0.131166 0.402991,-0.166924 0.386909,-0.201412 0.367882,-0.234367 0.346056,-0.265538 0.321596,-0.294688 39.4422,-39.4422 0.294688,-0.321596 0.265538,-0.346056 0.234367,-0.367882 0.201412,-0.386909 0.166924,-0.402991 0.131166,-0.416005 0.0944096,-0.425854 0.0569347,-0.432462 0.0190265,-0.435779 -0.0190265,-0.435779 -0.0569347,-0.432462 -0.0944096,-0.425854 -0.131166,-0.416005 -0.166924,-0.402991 -0.201412,-0.386909 -0.234367,-0.367882 -0.265538,-0.346056 -0.294688,-0.321596 -0.321596,-0.294688 -0.346056,-0.265538 -0.367882,-0.234367 -0.386909,-0.201412 -0.402991,-0.166924 -0.416005,-0.131166 -0.425854,-0.0944096 -0.432462,-0.0569347 -0.435779,-0.0190265 -0.435779,0.0190265 -0.432462,0.0569347 -0.425854,0.0944096 -0.416005,0.131166 -0.402991,0.166924 -0.386909,0.201412 -0.367882,0.234367 -0.346056,0.265538 -0.321596,0.294688 z "/>
<path fme:_creation_instance="0" d="M 570.134,530.692 l -39.4422,39.4422 "/>
<path fme:_creation_instance="0" d="M 527.824,566.038 l -45.692,31.9939 -0.346056,0.265538 -0.321596,0.294688 -0.294688,0.321596 -0.265538,0.346056 -0.234367,0.367882 -0.201412,0.386909 -0.166924,0.402991 -0.131166,0.416005 -0.0944096,0.425854 -0.0569347,0.432462 -0.0190265,0.435779 0.0190265,0.435779 0.0569347,0.432462 0.0944096,0.425854 0.131166,0.416005 0.166924,0.402991 0.201412,0.386909 0.234367,0.367882 0.265538,0.346056 0.294688,0.321596 0.321596,0.294688 0.346056,0.265538 0.367882,0.234367 0.386909,0.201412 0.402991,0.166924 0.416005,0.131166 0.425854,0.0944096 0.432462,0.0569347 0.435779,0.0190265 0.435779,-0.0190265 0.432462,-0.0569347 0.425854,-0.0944096 0.416005,-0.131166 0.402991,-0.166924 0.386909,-0.201412 0.367882,-0.234367 45.692,-31.9939 0.337013,-0.257968 0.313922,-0.28562 0.288569,-0.311213 0.261136,-0.334564 0.231823,-0.355505 0.200838,-0.373884 0.168407,-0.38957 0.134763,-0.402448 0.100147,-0.412427 0.0648103,-0.419434 0.0290063,-0.42342 -0.00700667,-0.424354 -0.0429692,-0.422231 -0.0786221,-0.417066 -0.113709,-0.408896 -0.147976,-0.39778 -0.181177,-0.383798 -0.213072,-0.36705 -0.243433,-0.347658 -0.272039,-0.325761 -0.298686,-0.301517 -0.32318,-0.2751 -0.345346,-0.246702 -0.365024,-0.216526 -0.382071,-0.184789 -0.396366,-0.151722 -0.407805,-0.117561 -0.416306,-0.0825532 -0.421807,-0.0469506 -0.424269,-0.0110097 -0.423674,0.0250105 -0.420027,0.0608505 -0.413354,0.096252 -0.403702,0.13096 -0.391141,0.164725 -0.375762,0.197302 -0.357676,0.228458 z "/>
<path fme:_creation_instance="0" d="M 530.692,570.134 l -45.692,31.9939 "/>
<path fme:_creation_instance="0" d="M 482.887,597.597 l -50.5536,23.5735 -0.386909,0.201412 -0.367882,0.234367 -0.346056,0.265538 -0.321596,0.294688 -0.294688,0.321596 -0.265538,0.346056 -0.234367,0.367882 -0.201412,0.386909 -0.166924,0.402991 -0.131166,0.416005 -0.0944096,0.425854 -0.0569347,0.432462 -0.0190265,0.435779 0.0190265,0.435779 0.0569347,0.432462 0.0944096,0.425854 0.131166,0.416005 0.166924,0.402991 0.201412,0.386909 0.234367,0.367882 0.265538,0.346056 0.294688,0.321596 0.321596,0.294688 0.346056,0.265538 0.367882,0.234367 0.386909,0.201412 0.402991,0.166924 0.416005,0.131166 0.425854,0.0944096 0.432462,0.0569347 0.435779,0.0190265 0.435779,-0.0190265 0.432462,-0.0569347 0.425854,-0.0944096 0.416005,-0.131166 0.402991,-0.166924 50.5536,-23.5735 0.376689,-0.195528 0.35875,-0.226769 0.338226,-0.256376 0.315266,-0.284136 0.290033,-0.309849 0.262712,-0.333329 0.233497,-0.354408 0.2026,-0.372933 0.170243,-0.388771 0.13666,-0.401808 0.102092,-0.41195 0.0667881,-0.419124 0.0310033,-0.423278 -0.00500488,-0.424383 -0.040977,-0.422429 -0.0766539,-0.417432 -0.111778,-0.409428 -0.146098,-0.398473 -0.179364,-0.384648 -0.211339,-0.368051 -0.24179,-0.348802 -0.2705,-0.327041 -0.29726,-0.302922 -0.321879,-0.276622 -0.344178,-0.248328 -0.363998,-0.218245 -0.381195,-0.18659 -0.395646,-0.15359 -0.407246,-0.119483 -0.415912,-0.0845161 -0.421581,-0.0489398 -0.424213,-0.0130109 -0.423788,0.0230117 -0.420309,0.0588685 -0.413803,0.0943011 -0.404315,0.129054 -0.391914,0.162878 z "/>
<path fme:_creation_instance="0" d="M 485,602.128 l -50.5536,23.5735 "/>
<path fme:_creation_instance="0" d="M 433.152,620.872 l -53.879,14.4368 -0.416005,0.131166 -0.402991,0.166924 -0.386909,0.201412 -0.367882,0.234367 -0.346056,0.265538 -0.321596,0.294688 -0.294688,0.321596 -0.265538,0.346056 -0.234367,0.367882 -0.201412,0.386909 -0.166924,0.402991 -0.131166,0.416005 -0.0944096,0.425854 -0.0569347,0.432462 -0.0190265,0.435779 0.0190265,0.435779 0.0569347,0.432462 0.0944096,0.425854 0.131166,0.416005 0.166924,0.402991 0.201412,0.386909 0.234367,0.367882 0.265538,0.346056 0.294688,0.321596 0.321596,0.294688 0.346056,0.265538 0.367882,0.234367 0.386909,0.201412 0.402991,0.166924 0.416005,0.131166 0.425854,0.0944096 0.432462,0.0569347 0.435779,0.0190265 0.435779,-0.0190265 0.432462,-0.0569347 0.425854,-0.0944096 53.879,-14.4368 0.404919,-0.127146 0.392678,-0.161027 0.377607,-0.193749 0.359816,-0.225074 0.339432,-0.254778 0.316602,-0.282646 0.291492,-0.308477 0.264281,-0.332086 0.235166,-0.353302 0.204357,-0.371973 0.172075,-0.387964 0.138554,-0.401159 0.104034,-0.411464 0.0687644,-0.418804 0.0329996,-0.423127 -0.00300297,-0.424401 -0.0389839,-0.422618 -0.074684,-0.417789 -0.109846,-0.409951 -0.144216,-0.399158 -0.177548,-0.38549 -0.2096,-0.369044 -0.240142,-0.349939 -0.268954,-0.328313 -0.295828,-0.304321 -0.32057,-0.278137 -0.343003,-0.249949 -0.362965,-0.21996 -0.380311,-0.188386 -0.394917,-0.155454 -0.406678,-0.121403 -0.415508,-0.086477 -0.421345,-0.0509279 -0.424146,-0.0150118 -0.423892,0.0210124 -0.420583,0.0568852 -0.414243,0.0923481 z "/>
<path fme:_creation_instance="0" d="M 434.446,625.702 l -53.879,14.4368 "/>
<path fme:_creation_instance="0" d="M 380.132,635.158 l -55.5674,4.86152 -0.432462,0.0569347 -0.425854,0.0944096 -0.416005,0.131166 -0.402991,0.166924 -0.386909,0.201412 -0.367882,0.234367 -0.346056,0.265538 -0.321596,0.294688 -0.294688,0.321596 -0.265538,0.346056 -0.234367,0.367882 -0.201412,0.386909 -0.166924,0.402991 -0.131166,0.416005 -0.0944096,0.425854 -0.0569347,0.432462 -0.0190265,0.435779 0.0190265,0.435779 0.0569347,0.432462 0.0944096,0.425854 0.131166,0.416005 0.166924,0.402991 0.201412,0.386909 0.234367,0.367882 0.265538,0.346056 0.294688,0.321596 0.321596,0.294688 0.346056,0.265538 0.367882,0.234367 0.386909,0.201412 0.402991,0.166924 0.416005,0.131166 0.425854,0.0944096 0.432462,0.0569347 0.435779,0.0190265 0.435779,-0.0190265 55.5674,-4.86152 0.432462,-0.0569347 0.425854,-0.0944096 0.416005,-0.131166 0.402991,-0.166924 0.386909,-0.201412 0.367882,-0.234367 0.346056,-0.265538 0.321596,-0.294688 0.294688,-0.321596 0.265538,-0.346056 0.234367,-0.367882 0.201412,-0.386909 0.166924,-0.402991 0.131166,-0.416005 0.0944096,-0.425854 0.0569347,-0.432462 0.0190265,-0.435779 -0.0190265,-0.435779 -0.0569347,-0.432462 -0.0944096,-0.425854 -0.131166,-0.416005 -0.166924,-0.402991 -0.201412,-0.386909 -0.234367,-0.367882 -0.265538,-0.346056 -0.294688,-0.321596 -0.321596,-0.294688 -0.346056,-0.265538 -0.367882,-0.234367 -0.386909,-0.201412 -0.402991,-0.166924 -0.416005,-0.131166 -0.425854,-0.0944096 -0.432462,-0.0569347 -0.435779,-0.0190265 -0.435779,0.0190265 z "/>
<path fme:_creation_instance="0" d="M 380.567,640.138 l -55.5674,4.86152 "/>
<path fme:_creation_instance="0" d="M 325.436,640.019 l -55.5674,-4.86152 -0.435779,-0.0190265 -0.435779,0.0190265 -0.432462,0.0569347 -0.425854,0.0944096 -0.416005,0.131166 -0.402991,0.166924 -0.386909,0.201412 -0.367882,0.234367 -0.346056,0.265538 -0.321596,0.294688 -0.294688,0.321596 -0.265538,0.346056 -0.234367,0.367882 -0.201412,0.386909 -0.166924,0.402991 -0.131166,0.416005 -0.0944096,0.425854 -0.0569347,0.432462 -0.0190265,0.435779 0.0190265,0.435779 0.0569347,0.432462 0.0944096,0.425854 0.131166,0.416005 0.166924,0.402991 0.201412,0.386909 0.234367,0.367882 0.265538,0.346056 0.294688,0.321596 0.321596,0.294688 0.346056,0.265538 0.367882,0.234367 0.386909,0.201412 0.402991,0.166924 0.416005,0.131166 0.425854,0.0944096 0.432462,0.0569347 55.5674,4.86152 0.423986,0.0190126 0.424071,-0.0170124 0.4211,-0.0529149 0.415096,-0.088436 0.406101,-0.12332 0.394179,-0.157316 0.379418,-0.190178 0.361923,-0.221669 0.34182,-0.251564 0.319255,-0.279646 0.294389,-0.305713 0.267402,-0.329578 0.238489,-0.351068 0.207857,-0.370028 0.175727,-0.386323 0.142332,-0.399834 0.107911,-0.410464 0.0727124,-0.418137 0.0369899,-0.422797 0.001001,-0.424411 -0.0349952,-0.422967 -0.0707392,-0.418475 -0.105974,-0.410969 -0.140444,-0.400501 -0.173903,-0.387148 -0.206109,-0.371005 -0.23683,-0.352189 -0.265845,-0.330836 -0.292944,-0.307099 -0.317932,-0.281149 -0.34063,-0.253174 -0.360873,-0.223374 -0.378517,-0.191965 -0.393433,-0.159173 -0.405514,-0.125234 -0.414674,-0.0903931 -0.420846,-0.0549006 z "/>
<path fme:_creation_instance="0" d="M 325,645 l -55.5674,-4.86152 "/>
<path fme:_creation_instance="0" d="M 270.727,635.309 l -53.879,-14.4368 -0.425854,-0.0944096 -0.432462,-0.0569347 -0.435779,-0.0190265 -0.435779,0.0190265 -0.432462,0.0569347 -0.425854,0.0944096 -0.416005,0.131166 -0.402991,0.166924 -0.386909,0.201412 -0.367882,0.234367 -0.346056,0.265538 -0.321596,0.294688 -0.294688,0.321596 -0.265538,0.346056 -0.234367,0.367882 -0.201412,0.386909 -0.166924,0.402991 -0.131166,0.416005 -0.0944096,0.425854 -0.0569347,0.432462 -0.0190265,0.435779 0.0190265,0.435779 0.0569347,0.432462 0.0944096,0.425854 0.131166,0.416005 0.166924,0.402991 0.201412,0.386909 0.234367,0.367882 0.265538,0.346056 0.294688,0.321596 0.321596,0.294688 0.346056,0.265538 0.367882,0.234367 0.386909,0.201412 0.402991,0.166924 0.416005,0.131166 53.879,14.4368 0.414243,0.0923481 0.420583,0.0568852 0.423892,0.0210124 0.424146,-0.0150118 0.421345,-0.0509279 0.415508,-0.086477 0.406678,-0.121403 0.394917,-0.155454 0.380311,-0.188386 0.362965,-0.21996 0.343003,-0.249949 0.32057,-0.278137 0.295828,-0.304321 0.268954,-0.328313 0.240142,-0.349939 0.2096,-0.369044 0.177548,-0.38549 0.144216,-0.399158 0.109846,-0.409951 0.074684,-0.417789 0.0389839,-0.422618 0.00300297,-0.424401 -0.0329996,-0.423127 -0.0687644,-0.418804 -0.104034,-0.411464 -0.138554,-0.401159 -0.172075,-0.387964 -0.204357,-0.371973 -0.235166,-0.353302 -0.264281,-0.332086 -0.291492,-0.308477 -0.316602,-0.282646 -0.339432,-0.254778 -0.359816,-0.225074 -0.377607,-0.193749 -0.392678,-0.161027 -0.404919,-0.127146 z "/>
<path fme:_creation_instance="0" d="M 269.433,640.138 l -53.879,-14.4368 "/>
<path fme:_creation_instance="0" d="M 217.667,621.17 l -50.5536,-23.5735 -0.391914,-0.162878 -0.404315,-0.129054 -0.413803,-0.0943011 -0.420309,-0.0588685 -0.423788,-0.0230117 -0.424213,0.0130109 -0.421581,0.0489398 -0.415912,0.0845161 -0.407246,0.119483 -0.395646,0.15359 -0.381195,0.18659 -0.363998,0.218245 -0.344178,0.248328 -0.321879,0.276622 -0.29726,0.302922 -0.2705,0.327041 -0.24179,0.348802 -0.211339,0.368051 -0.179364,0.384648 -0.146098,0.398473 -0.111778,0.409428 -0.0766539,0.417432 -0.040977,0.422429 -0.00500488,0.424383 0.0310033,0.423278 0.0667881,0.419124 0.102092,0.41195 0.13666,0.401808 0.170243,0.388771 0.2026,0.372933 0.233497,0.354408 0.262712,0.333329 0.290033,0.309849 0.315266,0.284136 0.338226,0.256376 0.35875,0.226769 0.376689,0.195528 50.5536,23.5735 0.391914,0.162878 0.404315,0.129054 0.413803,0.0943011 0.420309,0.0588685 0.423788,0.0230117 0.424213,-0.0130109 0.421581,-0.0489398 0.415912,-0.0845161 0.407246,-0.119483 0.395646,-0.15359 0.381195,-0.18659 0.363998,-0.218245 0.344178,-0.248328 0.321879,-0.276622 0.29726,-0.302922 0.2705,-0.327041 0.24179,-0.348802 0.211339,-0.368051 0.179364,-0.384648 0.146098,-0.398473 0.111778,-0.409428 0.0766539,-0.417432 0.040977,-0.422429 0.00500488,-0.424383 -0.0310033,-0.423278 -0.0667881,-0.419124 -0.102092,-0.41195 -0.13666,-0.401808 -0.170243,-0.388771 -0.2026,-0.372933 -0.233497,-0.354408 -0.262712,-0.333329 -0.290033,-0.309849 -0.315266,-0.284136 -0.338226,-0.256376 -0.35875,-0.226769 -0.376689,-0.195528 z "/>
<path fme:_creation_instance="0" d="M 215.554,625.702 l -50.5536,-23.5735 "/>
<path fme:_creation_instance="0" d="M 167.868,598.032 l -45.692,-31.9939 -0.367882,-0.234367 -0.386909,-0.201412 -0.402991,-0.166924 -0.416005,-0.131166 -0.425854,-0.0944096 -0.432462,-0.0569347 -0.435779,-0.0190265 -0.435779,0.0190265 -0.432462,0.0569347 -0.425854,0.0944096 -0.416005,0.131166 -0.402991,0.166924 -0.386909,0.201412 -0.367882,0.234367 -0.346056,0.265538 -0.321596,0.294688 -0.294688,0.321596 -0.265538,0.346056 -0.234367,0.367882 -0.201412,0.386909 -0.166924,0.402991 -0.131166,0.416005 -0.0944096,0.425854 -0.0569347,0.432462 -0.0190265,0.435779 0.0190265,0.435779 0.0569347,0.432462 0.0944096,0.425854 0.131166,0.416005 0.166924,0.402991 0.201412,0.386909 0.234367,0.367882 0.265538,0.346056 0.294688,0.321596 0.321596,0.294688 0.346056,0.265538 45.692,31.9939 0.367882,0.234367 0.386909,0.201412 0.402991,0.166924 0.416005,0.131166 0.425854,0.0944096 0.432462,0.0569347 0.435779,0.0190265 0.435779,-0.0190265 0.432462,-0.0569347 0.425854,-0.0944096 0.416005,-0.131166 0.402991,-0.166924 0.386909,-0.201412 0.367882,-0.234367 0.346056,-0.265538 0.321596,-0.294688 0.294688,-0.321596 0.265538,-0.346056 0.234367,-0.367882 0.201412,-0.386909 0.166924,-0.402991 0.131166,-0.416005 0.0944096,-0.425854 0.0569347,-0.432462 0.0190265,-0.435779 -0.0190265,-0.435779 -0.0569347,-0.432462 -0.0944096,-0.425854 -0.131166,-0.416005 -0.166924,-0.402991 -0.201412,-0.386909 -0.234367,-0.367882 -0.265538,-0.346056 -0.294688,-0.321596 -0.321596,-0.294688 -0.346056,-0.265538 z "/>
<path fme:_creation_instance="0" d="M 165,602.128 l -45.692,-31.9939 "/>
<path fme:_creation_instance="0" d="M 122.843,566.599 l -39.4422,-39.4422 -0.321596,-0.294688 -0.346056,-0.265538 -0.367882,-0.234367 -0.386909,-0.201412 -0.402991,-0.166924 -0.416005,-0.131166 -0.425854,-0.0944096 -0.432462,-0.0569347 -0.435779,-0.0190265 -0.435779,0.0190265 -0.432462,0.0569347 -0.425854,0.0944096 -0.416005,0.131166 -0.402991,0.166924 -0.386909,0.201412 -0.367882,0.234367 -0.346056,0.265538 -0.321596,0.294688 -0.294688,0.321596 -0.265538,0.346056 -0.234367,0.367882 -0.201412,0.386909 -0.166924,0.402991 -0.131166,0.416005 -0.0944096,0.425854 -0.0569347,0.432462 -0.0190265,0.435779 0.0190265,0.435779 0.0569347,0.432462 0.0944096,0.425854 0.131166,0.416005 0.166924,0.402991 0.201412,0.386909 0.234367,0.367882 0.265538,0.346056 0.294688,0.321596 39.4422,39.4422 0.321596,0.294688 0.346056,0.265538 0.367882,0.234367 0.386909,0.201412 0.402991,0.166924 0.416005,0.131166 0.425854,0.0944096 0.432462,0.0569347 0.435779,0.0190265 0.435779,-0.0190265 0.432462,-0.0569347 0.425854,-0.0944096 0.416005,-0.131166 0.402991,-0.166924 0.386909,-0.201412 0.367882,-0.234367 0.346056,-0.265538 0.321596,-0.294688 0.294688,-0.321596 0.265538,-0.346056 0.234367,-0.367882 0.201412,-0.386909 0.166924,-0.402991 0.131166,-0.416005 0.0944096,-0.425854 0.0569347,-0.432462 0.0190265,-0.435779 -0.0190265,-0.435779 -0.0569347,-0.432462 -0.0944096,-0.425854 -0.131166,-0.416005 -0.166924,-0.402991 -0.201412,-0.386909 -0.234367,-0.367882 -0.265538,-0.346056 -0.294688,-0.321596 z "/>
<path fme:_creation_instance="0" d="M 119.308,570.134 l -39.4422,-39.4422 "/>
<path fme:_creation_instance="0" d="M 83.9615,527.824 l -31.9939,-45.692 -0.265538,-0.346056 -0.294688,-0.321596 -0.321596,-0.294688 -0.346056,-0.265538 -0.367882,-0.234367 -0.386909,-0.201412 -0.402991,-0.166924 -0.416005,-0.131166 -0.425854,-0.0944096 -0.432462,-0.0569347 -0.435779,-0.0190265 -0.435779,0.0190265 -0.432462,0.0569347 -0.425854,0.0944096 -0.416005,0.131166 -0.402991,0.166924 -0.386909,0.201412 -0.367882,0.234367 -0.346056,0.265538 -0.321596,0.294688 -0.294688,0.321596 -0.265538,0.346056 -0.234367,0.367882 -0.201412,0.386909 -0.166924,0.402991 -0.131166,0.416005 -0.0944096,0.425854 -0.0569347,0.432462 -0.0190265,0.435779 0.0190265,0.435779 0.0569347,0.432462 0.0944096,0.425854 0.131166,0.416005 0.166924,0.402991 0.201412,0.386909 0.234367,0.367882 31.9939,45.692 0.257968,0.337013 0.28562,0.313922 0.311213,0.288569 0.334564,0.261136 0.355505,0.231823 0.373884,0.200838 0.38957,0.168407 0.402448,0.134763 0.412427,0.100147 0.419434,0.0648103 0.42342,0.0290063 0.424354,-0.00700667 0.422231,-0.0429692 0.417066,-0.0786221 0.408896,-0.113709 0.39778,-0.147976 0.383798,-0.181177 0.36705,-0.213072 0.347658,-0.243433 0.325761,-0.272039 0.301517,-0.298686 0.2751,-0.32318 0.246702,-0.345346 0.216526,-0.365024 0.184789,-0.382071 0.151722,-0.396366 0.117561,-0.407805 0.0825532,-0.416306 0.0469506,-0.421807 0.0110097,-0.424269 -0.0250105,-0.423674 -0.0608505,-0.420027 -0.096252,-0.413354 -0.13096,-0.403702 -0.164725,-0.391141 -0.197302,-0.375762 -0.228458,-0.357676 z "/>
<path fme:_creation_instance="0" d="M 79.8658,530.692 l -31.9939,-45.692 "/>
<path fme:_creation_instance="0" d="M 52.4034,482.887 l -23.5735,-50.5536 -0.201412,-0.386909 -0.234367,-0.367882 -0.265538,-0.346056 -0.294688,-0.321596 -0.321596,-0.294688 -0.346056,-0.265538 -0.367882,-0.234367 -0.386909,-0.201412 -0.402991,-0.166924 -0.416005,-0.131166 -0.425854,-0.0944096 -0.432462,-0.0569347 -0.435779,-0.0190265 -0.435779,0.0190265 -0.432462,0.0569347 -0.425854,0.0944096 -0.416005,0.131166 -0.402991,0.166924 -0.386909,0.201412 -0.367882,0.234367 -0.346056,0.265538 -0.321596,0.294688 -0.294688,0.321596 -0.265538,0.346056 -0.234367,0.367882 -0.201412,0.386909 -0.166924,0.402991 -0.131166,0.416005 -0.0944096,0.425854 -0.0569347,0.432462 -0.0190265,0.435779 0.0190265,0.435779 0.0569347,0.432462 0.0944096,0.425854 0.131166,0.416005 0.166924,0.402991 23.5735,50.5536 0.195528,0.376689 0.226769,0.35875 0.256376,0.338226 0.284136,0.315266 0.309849,0.290033 0.333329,0.262712 0.354408,0.233497 0.372933,0.2026 0.388771,0.170243 0.401808,0.13666 0.41195,0.102092 0.419124,0.0667881 0.423278,0.0310033 0.424383,-0.00500488 0.422429,-0.040977 0.417432,-0.0766539 0.409428,-0.111778 0.398473,-0.146098 0.384648,-0.179364 0.368051,-0.211339 0.348802,-0.24179 0.327041,-0.2705 0.302922,-0.29726 0.276622,-0.321879 0.248328,-0.344178 0.218245,-0.363998 0.18659,-0.381195 0.15359,-0.395646 0.119483,-0.407246 0.0845161,-0.415912 0.0489398,-0.421581 0.0130109,-0.424213 -0.0230117,-0.423788 -0.0588685,-0.420309 -0.0943011,-0.413803 -0.129054,-0.404315 -0.162878,-0.391914 z "/>
<path fme:_creation_instance="0" d="M 47.8719,485 l -23.5735,-50.5536 "/>
<path fme:_creation_instance="0" d="M 29.128,433.152 l -14.4368,-53.879 -0.131166,-0.416005 -0.166924,-0.402991 -0.201412,-0.386909 -0.234367,-0.367882 -0.265538,-0.346056 -0.294688,-0.321596 -0.321596,-0.294688 -0.346056,-0.265538 -0.367882,-0.234367 -0.386909,-0.201412 -0.402991,-0.166924 -0.416005,-0.131166 -0.425854,-0.0944096 -0.432462,-0.0569347 -0.435779,-0.0190265 -0.435779,0.0190265 -0.432462,0.0569347 -0.425854,0.0944096 -0.416005,0.131166 -0.402991,0.166924 -0.386909,0.201412 -0.367882,0.234367 -0.346056,0.265538 -0.321596,0.294688 -0.294688,0.321596 -0.265538,0.346056 -0.234367,0.367882 -0.201412,0.386909 -0.166924,0.402991 -0.131166,0.416005 -0.0944096,0.425854 -0.0569347,0.432462 -0.0190265,0.435779 0.0190265,0.435779 0.0569347,0.432462 0.0944096,0.425854 14.4368,53.879 0.127146,0.404919 0.161027,0.392678 0.193749,0.377607 0.225074,0.359816 0.254778,0.339432 0.282646,0.316602 0.308477,0.291492 0.332086,0.264281 0.353302,0.235166 0.371973,0.204357 0.387964,0.172075 0.401159,0.138554 0.411464,0.104034 0.418804,0.0687644 0.423127,0.0329996 0.424401,-0.00300297 0.422618,-0.0389839 0.417789,-0.074684 0.409951,-0.109846 0.399158,-0.144216 0.38549,-0.177548 0.369044,-0.2096 0.349939,-0.240142 0.328313,-0.268954 0.304321,-0.295828 0.278137,-0.32057 0.249949,-0.343003 0.21996,-0.362965 0.188386,-0.380311 0.155454,-0.394917 0.121403,-0.406678 0.086477,-0.415508 0.0509279,-0.421345 0.0150118,-0.424146 -0.0210124,-0.423892 -0.0568852,-0.420583 -0.0923481,-0.414243 z "/>
<path fme:_creation_instance="0" d="M 24.2984,434.446 l -14.4368,-53.879 "/>
<path fme:_creation_instance="0" d="M 14.8425,380.132 l -4.86152,-55.5674 -0.0569347,-0.432462 -0.0944096,-0.425854 -0.131166,-0.416005 -0.166924,-0.402991 -0.201412,-0.386909 -0.234367,-0.367882 -0.265538,-0.346056 -0.294688,-0.321596 -0.321596,-0.294688 -0.346056,-0.265538 -0.367882,-0.234367 -0.386909,-0.201412 -0.402991,-0.166924 -0.416005,-0.131166 -0.425854,-0.0944096 -0.432462,-0.0569347 -0.435779,-0.0190265 -0.435779,0.0190265 -0.432462,0.0569347 -0.425854,0.0944096 -0.416005,0.131166 -0.402991,0.166924 -0.386909,0.201412 -0.367882,0.234367 -0.346056,0.265538 -0.321596,0.294688 -0.294688,0.321596 -0.265538,0.346056 -0.234367,0.367882 -0.201412,0.386909 -0.166924,0.402991 -0.131166,0.416005 -0.0944096,0.425854 -0.0569347,0.432462 -0.0190265,0.435779 0.0190265,0.435779 4.86152,55.5674 0.0569347,0.432462 0.0944096,0.425854 0.131166,0.416005 0.166924,0.402991 0.201412,0.386909 0.234367,0.367882 0.265538,0.346056 0.294688,0.321596 0.321596,0.294688 0.346056,0.265538 0.367882,0.234367 0.386909,0.201412 0.402991,0.166924 0.416005,0.131166 0.425854,0.0944096 0.432462,0.0569347 0.435779,0.0190265 0.435779,-0.0190265 0.432462,-0.0569347 0.425854,-0.0944096 0.416005,-0.131166 0.402991,-0.166924 0.386909,-0.201412 0.367882,-0.234367 0.346056,-0.265538 0.321596,-0.294688 0.294688,-0.321596 0.265538,-0.346056 0.234367,-0.367882 0.201412,-0.386909 0.166924,-0.402991 0.131166,-0.416005 0.0944096,-0.425854 0.0569347,-0.432462 0.0190265,-0.435779 -0.0190265,-0.435779 z "/>
<path fme:_creation_instance="0" d="M 9.86152,380.567 l -4.86152,-55.5674 "/>
<path fme:_creation_instance="0" d="M 9.98097,325.436 l 4.86152,-55.5674 0.0190126,-0.423986 -0.0170124,-0.424071 -0.0529149,-0.4211 -0.088436,-0.415096 -0.12332,-0.406101 -0.157316,-0.394179 -0.190178,-0.379418 -0.221669,-0.361923 -0.251564,-0.34182 -0.279646,-0.319255 -0.305713,-0.294389 -0.329578,-0.267402 -0.351068,-0.238489 -0.370028,-0.207857 -0.386323,-0.175727 -0.399834,-0.142332 -0.410464,-0.107911 -0.418137,-0.0727124 -0.422797,-0.0369899 -0.424411,-0.001001 -0.422967,0.0349952 -0.418475,0.0707392 -0.410969,0.105974 -0.400501,0.140444 -0.387148,0.173903 -0.371005,0.206109 -0.352189,0.23683 -0.330836,0.265845 -0.307099,0.292944 -0.281149,0.317932 -0.253174,0.34063 -0.223374,0.360873 -0.191965,0.378517 -0.159173,0.393433 -0.125234,0.405514 -0.0903931,0.414674 -0.0549006,0.420846 -4.86152,55.5674 -0.0190265,0.435779 0.0190265,0.435779 0.0569347,0.432462 0.0944096,0.425854 0.131166,0.416005 0.166924,0.402991 0.201412,0.386909 0.234367,0.367882 0.265538,0.346056 0.294688,0.321596 0.321596,0.294688 0.346056,0.265538 0.367882,0.234367 0.386909,0.201412 0.402991,0.166924 0.416005,0.131166 0.425854,0.0944096 0.432462,0.0569347 0.435779,0.0190265 0.435779,-0.0190265 0.432462,-0.0569347 0.425854,-0.0944096 0.416005,-0.131166 0.402991,-0.166924 0.386909,-0.201412 0.367882,-0.234367 0.346056,-0.265538 0.321596,-0.294688 0.294688,-0.321596 0.265538,-0.346056 0.234367,-0.367882 0.201412,-0.386909 0.166924,-0.402991 0.131166,-0.416005 0.0944096,-0.425854 0.0569347,-0.432462 z "/>
<path fme:_creation_instance="0" d="M 5,325 l 4.86152,-55.5674 "/>
<path fme:_creation_instance="0" d="M 14.6911,270.727 l 14.4368,-53.879 0.0944096,-0.425854 0.0569347,-0.432462 0.0190265,-0.435779 -0.0190265,-0.435779 -0.0569347,-0.432462 -0.0944096,-0.425854 -0.131166,-0.416005 -0.166924,-0.402991 -0.201412,-0.386909 -0.234367,-0.367882 -0.265538,-0.346056 -0.294688,-0.321596 -0.321596,-0.294688 -0.346056,-0.265538 -0.367882,-0.234367 -0.386909,-0.201412 -0.402991,-0.166924 -0.416005,-0.131166 -0.425854,-0.0944096 -0.432462,-0.0569347 -0.435779,-0.0190265 -0.435779,0.0190265 -0.432462,0.0569347 -0.425854,0.0944096 -0.416005,0.131166 -0.402991,0.166924 -0.386909,0.201412 -0.367882,0.234367 -0.346056,0.265538 -0.321596,0.294688 -0.294688,0.321596 -0.265538,0.346056 -0.234367,0.367882 -0.201412,0.386909 -0.166924,0.402991 -0.131166,0.416005 -14.4368,53.879 -0.0944096,0.425854 -0.0569347,0.432462 -0.0190265,0.435779 0.0190265,0.435779 0.0569347,0.432462 0.0944096,0.425854 0.131166,0.416005 0.166924,0.402991 0.201412,0.386909 0.234367,0.367882 0.265538,0.346056 0.294688,0.321596 0.321596,0.294688 0.346056,0.265538 0.367882,0.234367 0.386909,0.201412 0.402991,0.166924 0.416005,0.131166 0.425854,0.0944096 0.432462,0.0569347 0.435779,0.0190265 0.435779,-0.0190265 0.432462,-0.0569347 0.425854,-0.0944096 0.416005,-0.131166 0.402991,-0.166924 0.386909,-0.201412 0.367882,-0.234367 0.346056,-0.265538 0.321596,-0.294688 0.294688,-0.321596 0.265538,-0.346056 0.234367,-0.367882 0.201412,-0.386909 0.166924,-0.402991 0.131166,-0.416005 z "/>
<path fme:_creation_instance="0" d="M 9.86152,269.433 l 14.4368,-53.879 "/>
<path fme:_creation_instance="0" d="M 28.8299,217.667 l 23.5735,-50.5536 0.166924,-0.402991 0.131166,-0.416005 0.0944096,-0.425854 0.0569347,-0.432462 0.0190265,-0.435779 -0.0190265,-0.435779 -0.0569347,-0.432462 -0.0944096,-0.425854 -0.131166,-0.416005 -0.166924,-0.402991 -0.201412,-0.386909 -0.234367,-0.367882 -0.265538,-0.346056 -0.294688,-0.321596 -0.321596,-0.294688 -0.346056,-0.265538 -0.367882,-0.234367 -0.386909,-0.201412 -0.402991,-0.166924 -0.416005,-0.131166 -0.425854,-0.0944096 -0.432462,-0.0569347 -0.435779,-0.0190265 -0.435779,0.0190265 -0.432462,0.0569347 -0.425854,0.0944096 -0.416005,0.131166 -0.402991,0.166924 -0.386909,0.201412 -0.367882,0.234367 -0.346056,0.265538 -0.321596,0.294688 -0.294688,0.321596 -0.265538,0.346056 -0.234367,0.367882 -0.201412,0.386909 -23.5735,50.5536 -0.166924,0.402991 -0.131166,0.416005 -0.0944096,0.425854 -0.0569347,0.432462 -0.0190265,0.435779 0.0190265,0.435779 0.0569347,0.432462 0.0944096,0.425854 0.131166,0.416005 0.166924,0.402991 0.201412,0.386909 0.234367,0.367882 0.265538,0.346056 0.294688,0.321596 0.321596,0.294688 0.346056,0.265538 0.367882,0.234367 0.386909,0.201412 0.402991,0.166924 0.416005,0.131166 0.425854,0.0944096 0.432462,0.0569347 0.435779,0.0190265 0.435779,-0.0190265 0.432462,-0.0569347 0.425854,-0.0944096 0.416005,-0.131166 0.402991,-0.166924 0.386909,-0.201412 0.367882,-0.234367 0.346056,-0.265538 0.321596,-0.294688 0.294688,-0.321596 0.265538,-0.346056 0.234367,-0.367882 0.201412,-0.386909 z "/>
<path fme:_creation_instance="0" d="M 24.2984,215.554 l 23.5735,-50.5536 "/>
<path fme:_creation_instance="0" d="M 51.9676,167.868 l 31.9939,-45.692 0.234367,-0.367882 0.201412,-0.386909 0.166924,-0.402991 0.131166,-0.416005 0.0944096,-0.425854 0.0569347,-0.432462 0.0190265,-0.435779 -0.0190265,-0.435779 -0.0569347,-0.432462 -0.0944096,-0.425854 -0.131166,-0.416005 -0.166924,-0.402991 -0.201412,-0.386909 -0.234367,-0.367882 -0.265538,-0.346056 -0.294688,-0.321596 -0.321596,-0.294688 -0.346056,-0.265538 -0.367882,-0.234367 -0.386909,-0.201412 -0.402991,-0.166924 -0.416005,-0.131166 -0.425854,-0.0944096 -0.432462,-0.0569347 -0.435779,-0.0190265 -0.435779,0.0190265 -0.432462,0.0569347 -0.425854,0.0944096 -0.416005,0.131166 -0.402991,0.166924 -0.386909,0.201412 -0.367882,0.234367 -0.346056,0.265538 -0.321596,0.294688 -0.294688,0.321596 -0.265538,0.346056 -31.9939,45.692 -0.234367,0.367882 -0.201412,0.386909 -0.166924,0.402991 -0.131166,0.416005 -0.0944096,0.425854 -0.0569347,0.432462 -0.0190265,0.435779 0.0190265,0.435779 0.0569347,0.432462 0.0944096,0.425854 0.131166,0.416005 0.166924,0.402991 0.201412,0.386909 0.234367,0.367882 0.265538,0.346056 0.294688,0.321596 0.321596,0.294688 0.346056,0.265538 0.367882,0.234367 0.386909,0.201412 0.402991,0.166924 0.416005,0.131166 0.425854,0.0944096 0.432462,0.0569347 0.435779,0.0190265 0.435779,-0.0190265 0.432462,-0.0569347 0.425854,-0.0944096 0.416005,-0.131166 0.402991,-0.166924 0.386909,-0.201412 0.367882,-0.234367 0.346056,-0.265538 0.321596,-0.294688 0.294688,-0.321596 0.265538,-0.346056 z "/>
<path fme:_creation_instance="0" d="M 47.8719,165 l 31.9939,-45.692 "/>
<path fme:_creation_instance="0" d="M 83.4013,122.843 l 39.4422,-39.4422 0.294688,-0.321596 0.265538,-0.346056 0.234367,-0.367882 0.201412,-0.386909 0.166924,-0.402991 0.131166,-0.416005 0.0944096,-0.425854 0.0569347,-0.432462 0.0190265,-0.435779 -0.0190265,-0.435779 -0.0569347,-0.432462 -0.0944096,-0.425854 -0.131166,-0.416005 -0.166924,-0.402991 -0.201412,-0.386909 -0.234367,-0.367882 -0.265538,-0.346056 -0.294688,-0.321596 -0.321596,-0.294688 -0.346056,-0.265538 -0.367882,-0.234367 -0.386909,-0.201412 -0.402991,-0.166924 -0.416005,-0.131166 -0.425854,-0.0944096 -0.432462,-0.0569347 -0.435779,-0.0190265 -0.435779,0.0190265 -0.432462,0.0569347 -0.425854,0.0944096 -0.416005,0.131166 -0.402991,0.166924 -0.386909,0.201412 -0.367882,0.234367 -0.346056,0.265538 -0.321596,0.294688 -39.4422,39.4422 -0.294688,0.321596 -0.265538,0.346056 -0.234367,0.367882 -0.201412,0.386909 -0.166924,0.402991 -0.131166,0.416005 -0.0944096,0.425854 -0.0569347,0.432462 -0.0190265,0.435779 0.0190265,0.435779 0.0569347,0.432462 0.0944096,0.425854 0.131166,0.416005 0.166924,0.402991 0.201412,0.386909 0.234367,0.367882 0.265538,0.346056 0.294688,0.321596 0.321596,0.294688 0.346056,0.265538 0.367882,0.234367 0.386909,0.201412 0.402991,0.166924 0.416005,0.131166 0.425854,0.0944096 0.432462,0.0569347 0.435779,0.0190265 0.435779,-0.0190265 0.432462,-0.0569347 0.425854,-0.0944096 0.416005,-0.131166 0.402991,-0.166924 0.386909,-0.201412 0.367882,-0.234367 0.346056,-0.265538 0.321596,-0.294688 z "/>
<path fme:_creation_instance="0" d="M 79.8658,119.308 l 39.4422,-39.4422 "/>
<path fme:_creation_instance="0" d="M 122.176,83.9615 l 45.692,-31.9939 0.337013,-0.257968 0.313922,-0.28562 0.288569,-0.311213 0.261136,-0.334564 0.231823,-0.355505 0.200838,-0.373884 0.168407,-0.38957 0.134763,-0.402448 0.100147,-0.412427 0.0648103,-0.419434 0.0290063,-0.42342 -0.00700667,-0.424354 -0.0429692,-0.422231 -0.0786221,-0.417066 -0.113709,-0.408896 -0.147976,-0.39778 -0.181177,-0.383798 -0.213072,-0.36705 -0.243433,-0.347658 -0.272039,-0.325761 -0.298686,-0.301517 -0.32318,-0.2751 -0.345346,-0.246702 -0.365024,-0.216526 -0.382071,-0.184789 -0.396366,-0.151722 -0.407805,-0.117561 -0.416306,-0.0825532 -0.421807,-0.0469506 -0.424269,-0.0110097 -0.423674,0.0250105 -0.420027,0.0608505 -0.413354,0.096252 -0.403702,0.13096 -0.391141,0.164725 -0.375762,0.197302 -0.357676,0.228458 -45.692,31.9939 -0.346056,0.265538 -0.321596,0.294688 -0.294688,0.321596 -0.265538,0.346056 -0.234367,0.367882 -0.201412,0.386909 -0.166924,0.402991 -0.131166,0.416005 -0.0944096,0.425854 -0.0569347,0.432462 -0.0190265,0.435779 0.0190265,0.435779 0.0569347,0.432462 0.0944096,0.425854 0.131166,0.416005 0.166924,0.402991 0.201412,0.386909 0.234367,0.367882 0.265538,0.346056 0.294688,0.321596 0.321596,0.294688 0.346056,0.265538 0.367882,0.234367 0.386909,0.201412 0.402991,0.166924 0.416005,0.131166 0.425854,0.0944096 0.432462,0.0569347 0.435779,0.0190265 0.435779,-0.0190265 0.432462,-0.0569347 0.425854,-0.0944096 0.416005,-0.131166 0.402991,-0.166924 0.386909,-0.201412 0.367882,-0.234367 z "/>
<path fme:_creation_instance="0" d="M 119.308,79.8658 l 45.692,-31.9939 "/>
<path fme:_creation_instance="0" d="M 167.113,52.4034 l 50.5536,-23.5735 0.386909,-0.201412 0.367882,-0.234367 0.346056,-0.265538 0.321596,-0.294688 0.294688,-0.321596 0.265538,-0.346056 0.234367,-0.367882 0.201412,-0.386909 0.166924,-0.402991 0.131166,-0.416005 0.0944096,-0.425854 0.0569347,-0.432462 0.0190265,-0.435779 -0.0190265,-0.435779 -0.0569347,-0.432462 -0.0944096,-0.425854 -0.131166,-0.416005 -0.166924,-0.402991 -0.201412,-0.386909 -0.234367,-0.367882 -0.265538,-0.346056 -0.294688,-0.321596 -0.321596,-0.294688 -0.346056,-0.265538 -0.367882,-0.234367 -0.386909,-0.201412 -0.402991,-0.166924 -0.416005,-0.131166 -0.425854,-0.0944096 -0.432462,-0.0569347 -0.435779,-0.0190265 -0.435779,0.0190265 -0.432462,0.0569347 -0.425854,0.0944096 -0.416005,0.131166 -0.402991,0.166924 -50.5536,23.5735 -0.386909,0.201412 -0.367882,0.234367 -0.346056,0.265538 -0.321596,0.294688 -0.294688,0.321596 -0.265538,0.346056 -0.234367,0.367882 -0.201412,0.386909 -0.166924,0.402991 -0.131166,0.416005 -0.0944096,0.425854 -0.0569347,0.432462 -0.0190265,0.435779 0.0190265,0.435779 0.0569347,0.432462 0.0944096,0.425854 0.131166,0.416005 0.166924,0.402991 0.201412,0.386909 0.234367,0.367882 0.265538,0.346056 0.294688,0.321596 0.321596,0.294688 0.346056,0.265538 0.367882,0.234367 0.386909,0.201412 0.402991,0.166924 0.416005,0.131166 0.425854,0.0944096 0.432462,0.0569347 0.435779,0.0190265 0.435779,-0.0190265 0.432462,-0.0569347 0.425854,-0.0944096 0.416005,-0.131166 0.402991,-0.166924 z "/>
<path fme:_creation_instance="0" d="M 165,47.8719 l 50.5536,-23.5735 "/>
<path fme:_creation_instance="0" d="M 216.848,29.128 l 53.879,-14.4368 0.404919,-0.127146 0.392678,-0.161027 0.377607,-0.193749 0.359816,-0.225074 0.339432,-0.254778 0.316602,-0.282646 0.291492,-0.308477 0.264281,-0.332086 0.235166,-0.353302 0.204357,-0.371973 0.172075,-0.387964 0.138554,-0.401159 0.104034,-0.411464 0.0687644,-0.418804 0.0329996,-0.423127 -0.00300297,-0.424401 -0.0389839,-0.422618 -0.074684,-0.417789 -0.109846,-0.409951 -0.144216,-0.399158 -0.177548,-0.38549 -0.2096,-0.369044 -0.240142,-0.349939 -0.268954,-0.328313 -0.295828,-0.304321 -0.32057,-0.278137 -0.343003,-0.249949 -0.362965,-0.21996 -0.380311,-0.188386 -0.394917,-0.155454 -0.406678,-0.121403 -0.415508,-0.086477 -0.421345,-0.0509279 -0.424146,-0.0150118 -0.423892,0.0210124 -0.420583,0.0568852 -0.414243,0.0923481 -53.879,14.4368 -0.416005,0.131166 -0.402991,0.166924 -0.386909,0.201412 -0.367882,0.234367 -0.346056,0.265538 -0.321596,0.294688 -0.294688,0.321596 -0.265538,0.346056 -0.234367,0.367882 -0.201412,0.386909 -0.166924,0.402991 -0.131166,0.416005 -0.0944096,0.425854 -0.0569347,0.432462 -0.0190265,0.435779 0.0190265,0.435779 0.0569347,0.432462 0.0944096,0.425854 0.131166,0.416005 0.166924,0.402991 0.201412,0.386909 0.234367,0.367882 0.265538,0.346056 0.294688,0.321596 0.321596,0.294688 0.346056,0.265538 0.367882,0.234367 0.386909,0.201412 0.402991,0.166924 0.416005,0.131166 0.425854,0.0944096 0.432462,0.0569347 0.435779,0.0190265 0.435779,-0.0190265 0.432462,-0.0569347 0.425854,-0.0944096 z "/>
<path fme:_creation_instance="0" d="M 215.554,24.2984 l 53.879,-14.4368 "/>
<path fme:_creation_instance="0" d="M 269.868,14.8425 l 55.5674,-4.86152 0.432462,-0.0569347 0.425854,-0.0944096 0.416005,-0.131166 0.402991,-0.166924 0.386909,-0.201412 0.367882,-0.234367 0.346056,-0.265538 0.321596,-0.294688 0.294688,-0.321596 0.265538,-0.346056 0.234367,-0.367882 0.201412,-0.386909 0.166924,-0.402991 0.131166,-0.416005 0.0944096,-0.425854 0.0569347,-0.432462 0.0190265,-0.435779 -0.0190265,-0.435779 -0.0569347,-0.432462 -0.0944096,-0.425854 -0.131166,-0.416005 -0.166924,-0.402991 -0.201412,-0.386909 -0.234367,-0.367882 -0.265538,-0.346056 -0.294688,-0.321596 -0.321596,-0.294688 -0.346056,-0.265538 -0.367882,-0.234367 -0.386909,-0.201412 -0.402991,-0.166924 -0.416005,-0.131166 -0.425854,-0.0944096 -0.432462,-0.0569347 -0.435779,-0.0190265 -0.435779,0.0190265 -55.5674,4.86152 -0.432462,0.0569347 -0.425854,0.0944096 -0.416005,0.131166 -0.402991,0.166924 -0.386909,0.201412 -0.367882,0.234367 -0.346056,0.265538 -0.321596,0.294688 -0.294688,0.321596 -0.265538,0.346056 -0.234367,0.367882 -0.201412,0.386909 -0.166924,0.402991 -0.131166,0.416005 -0.0944096,0.425854 -0.0569347,0.432462 -0.0190265,0.435779 0.0190265,0.435779 0.0569347,0.432462 0.0944096,0.425854 0.131166,0.416005 0.166924,0.402991 0.201412,0.386909 0.234367,0.367882 0.265538,0.346056 0.294688,0.321596 0.321596,0.294688 0.346056,0.265538 0.367882,0.234367 0.386909,0.201412 0.402991,0.166924 0.416005,0.131166 0.425854,0.0944096 0.432462,0.0569347 0.435779,0.0190265 0.435779,-0.0190265 z "/>
<path fme:_creation_instance="0" d="M 269.433,9.86152 l 55.5674,-4.86152 "/>
<path fme:_creation_instance="0" d="M 324.564,9.98097 l 55.5674,4.86152 0.423986,0.0190126 0.424071,-0.0170124 0.4211,-0.0529149 0.415096,-0.088436 0.406101,-0.12332 0.394179,-0.157316 0.379418,-0.190178 0.361923,-0.221669 0.34182,-0.251564 0.319255,-0.279646 0.294389,-0.305713 0.267402,-0.329578 0.238489,-0.351068 0.207857,-0.370028 0.175727,-0.386323 0.142332,-0.399834 0.107911,-0.410464 0.0727124,-0.418137 0.0369899,-0.422797 0.001001,-0.424411 -0.0349952,-0.422967 -0.0707392,-0.418475 -0.105974,-0.410969 -0.140444,-0.400501 -0.173903,-0.387148 -0.206109,-0.371005 -0.23683,-0.352189 -0.265845,-0.330836 -0.292944,-0.307099 -0.317932,-0.281149 -0.34063,-0.253174 -0.360873,-0.223374 -0.378517,-0.191965 -0.393433,-0.159173 -0.405514,-0.125234 -0.414674,-0.0903931 -0.420846,-0.0549006 -55.5674,-4.86152 -0.435779,-0.0190265 -0.435779,0.0190265 -0.432462,0.0569347 -0.425854,0.0944096 -0.416005,0.131166 -0.402991,0.166924 -0.386909,0.201412 -0.367882,0.234367 -0.346056,0.265538 -0.321596,0.294688 -0.294688,0.321596 -0.265538,0.346056 -0.234367,0.367882 -0.201412,0.386909 -0.166924,0.402991 -0.131166,0.416005 -0.0944096,0.425854 -0.0569347,0.432462 -0.0190265,0.435779 0.0190265,0.435779 0.0569347,0.432462 0.0944096,0.425854 0.131166,0.416005 0.166924,0.402991 0.201412,0.386909 0.234367,0.367882 0.265538,0.346056 0.294688,0.321596 0.321596,0.294688 0.346056,0.265538 0.367882,0.234367 0.386909,0.201412 0.402991,0.166924 0.416005,0.131166 0.425854,0.0944096 0.432462,0.0569347 z "/>
<path fme:_creation_instance="0" d="M 325,5 l 55.5674,4.86152 "/>
<path fme:_creation_instance="0" d="M 379.273,14.6911 l 53.879,14.4368 0.425854,0.0944096 0.432462,0.0569347 0.435779,0.0190265 0.435779,-0.0190265 0.432462,-0.0569347 0.425854,-0.0944096 0.416005,-0.131166 0.402991,-0.166924 0.386909,-0.201412 0.367882,-0.234367 0.346056,-0.265538 0.321596,-0.294688 0.294688,-0.321596 0.265538,-0.346056 0.234367,-0.367882 0.201412,-0.386909 0.166924,-0.402991 0.131166,-0.416005 0.0944096,-0.425854 0.0569347,-0.432462 0.0190265,-0.435779 -0.0190265,-0.435779 -0.0569347,-0.432462 -0.0944096,-0.425854 -0.131166,-0.416005 -0.166924,-0.402991 -0.201412,-0.386909 -0.234367,-0.367882 -0.265538,-0.346056 -0.294688,-0.321596 -0.321596,-0.294688 -0.346056,-0.265538 -0.367882,-0.234367 -0.386909,-0.201412 -0.402991,-0.166924 -0.416005,-0.131166 -53.879,-14.4368 -0.425854,-0.0944096 -0.432462,-0.0569347 -0.435779,-0.0190265 -0.435779,0.0190265 -0.432462,0.0569347 -0.425854,0.0944096 -0.416005,0.131166 -0.402991,0.166924 -0.386909,0.201412 -0.367882,0.234367 -0.346056,0.265538 -0.321596,0.294688 -0.294688,0.321596 -0.265538,0.346056 -0.234367,0.367882 -0.201412,0.386909 -0.166924,0.402991 -0.131166,0.416005 -0.0944096,0.425854 -0.0569347,0.432462 -0.0190265,0.435779 0.0190265,0.435779 0.0569347,0.432462 0.0944096,0.425854 0.131166,0.416005 0.166924,0.402991 0.201412,0.386909 0.234367,0.367882 0.265538,0.346056 0.294688,0.321596 0.321596,0.294688 0.346056,0.265538 0.367882,0.234367 0.386909,0.201412 0.402991,0.166924 0.416005,0.131166 z "/>
<path fme:_creation_instance="0" d="M 380.567,9.86152 l 53.879,14.4368 "/>
<path fme:_creation_instance="0" d="M 432.333,28.8299 l 50.5536,23.5735 0.402991,0.166924 0.416005,0.131166 0.425854,0.0944096 0.432462,0.0569347 0.435779,0.0190265 0.435779,-0.0190265 0.432462,-0.0569347 0.425854,-0.0944096 0.416005,-0.131166 0.402991,-0.166924 0.386909,-0.201412 0.367882,-0.234367 0.346056,-0.265538 0.321596,-0.294688 0.294688,-0.321596 0.265538,-0.346056 0.234367,-0.367882 0.201412,-0.386909 0.166924,-0.402991 0.131166,-0.416005 0.0944096,-0.425854 0.0569347,-0.432462 0.0190265,-0.435779 -0.0190265,-0.435779 -0.0569347,-0.432462 -0.0944096,-0.425854 -0.131166,-0.416005 -0.166924,-0.402991 -0.201412,-0.386909 -0.234367,-0.367882 -0.265538,-0.346056 -0.294688,-0.321596 -0.321596,-0.294688 -0.346056,-0.265538 -0.367882,-0.234367 -0.386909,-0.201412 -50.5536,-23.5735 -0.391914,-0.162878 -0.404315,-0.129054 -0.413803,-0.0943011 -0.420309,-0.0588685 -0.423788,-0.0230117 -0.424213,0.0130109 -0.421581,0.0489398 -0.415912,0.0845161 -0.407246,0.119483 -0.395646,0.15359 -0.381195,0.18659 -0.363998,0.218245 -0.344178,0.248328 -0.321879,0.276622 -0.29726,0.302922 -0.2705,0.327041 -0.24179,0.348802 -0.211339,0.368051 -0.179364,0.384648 -0.146098,0.398473 -0.111778,0.409428 -0.0766539,0.417432 -0.040977,0.422429 -0.00500488,0.424383 0.0310033,0.423278 0.0667881,0.419124 0.102092,0.41195 0.13666,0.401808 0.170243,0.388771 0.2026,0.372933 0.233497,0.354408 0.262712,0.333329 0.290033,0.309849 0.315266,0.284136 0.338226,0.256376 0.35875,0.226769 0.376689,0.195528 z "/>
<path fme:_creation_instance="0" d="M 434.446,24.2984 l 50.5536,23.5735 "/>
<path fme:_creation_instance="0" d="M 482.132,51.9676 l 45.692,31.9939 0.367882,0.234367 0.386909,0.201412 0.402991,0.166924 0.416005,0.131166 0.425854,0.0944096 0.432462,0.0569347 0.435779,0.0190265 0.435779,-0.0190265 0.432462,-0.0569347 0.425854,-0.0944096 0.416005,-0.131166 0.402991,-0.166924 0.386909,-0.201412 0.367882,-0.234367 0.346056,-0.265538 0.321596,-0.294688 0.294688,-0.321596 0.265538,-0.346056 0.234367,-0.367882 0.201412,-0.386909 0.166924,-0.402991 0.131166,-0.416005 0.0944096,-0.425854 0.0569347,-0.432462 0.0190265,-0.435779 -0.0190265,-0.435779 -0.0569347,-0.432462 -0.0944096,-0.425854 -0.131166,-0.416005 -0.166924,-0.402991 -0.201412,-0.386909 -0.234367,-0.367882 -0.265538,-0.346056 -0.294688,-0.321596 -0.321596,-0.294688 -0.346056,-0.265538 -45.692,-31.9939 -0.367882,-0.234367 -0.386909,-0.201412 -0.402991,-0.166924 -0.416005,-0.131166 -0.425854,-0.0944096 -0.432462,-0.0569347 -0.435779,-0.0190265 -0.435779,0.0190265 -0.432462,0.0569347 -0.425854,0.0944096 -0.416005,0.131166 -0.402991,0.166924 -0.386909,0.201412 -0.367882,0.234367 -0.346056,0.265538 -0.321596,0.294688 -0.294688,0.321596 -0.265538,0.346056 -0.234367,0.367882 -0.201412,0.386909 -0.166924,0.402991 -0.131166,0.416005 -0.0944096,0.425854 -0.0569347,0.432462 -0.0190265,0.435779 0.0190265,0.435779 0.0569347,0.432462 0.0944096,0.425854 0.131166,0.416005 0.166924,0.402991 0.201412,0.386909 0.234367,0.367882 0.265538,0.346056 0.294688,0.321596 0.321596,0.294688 0.346056,0.265538 z "/>
<path fme:_creation_instance="0" d="M 485,47.8719 l 45.692,31.9939 "/>
<path fme:_creation_instance="0" d="M 527.157,83.4013 l 39.4422,39.4422 0.321596,0.294688 0.346056,0.265538 0.367882,0.234367 0.386909,0.201412 0.402991,0.166924 0.416005,0.131166 0.425854,0.0944096 0.432462,0.0569347 0.435779,0.0190265 0.435779,-0.0190265 0.432462,-0.0569347 0.425854,-0.0944096 0.416005,-0.131166 0.402991,-0.166924 0.386909,-0.201412 0.367882,-0.234367 0.346056,-0.265538 0.321596,-0.294688 0.294688,-0.321596 0.265538,-0.346056 0.234367,-0.367882 0.201412,-0.386909 0.166924,-0.402991 0.131166,-0.416005 0.0944096,-0.425854 0.0569347,-0.432462 0.0190265,-0.435779 -0.0190265,-0.435779 -0.0569347,-0.432462 -0.0944096,-0.425854 -0.131166,-0.416005 -0.166924,-0.402991 -0.201412,-0.386909 -0.234367,-0.367882 -0.265538,-0.346056 -0.294688,-0.321596 -39.4422,-39.4422 -0.321596,-0.294688 -0.346056,-0.265538 -0.367882,-0.234367 -0.386909,-0.201412 -0.402991,-0.166924 -0.416005,-0.131166 -0.425854,-0.0944096 -0.432462,-0.0569347 -0.435779,-0.0190265 -0.435779,0.0190265 -0.432462,0.0569347 -0.425854,0.0944096 -0.416005,0.131166 -0.402991,0.166924 -0.386909,0.201412 -0.367882,0.234367 -0.346056,0.265538 -0.321596,0.294688 -0.294688,0.321596 -0.265538,0.346056 -0.234367,0.367882 -0.201412,0.386909 -0.166924,0.402991 -0.131166,0.416005 -0.0944096,0.425854 -0.0569347,0.432462 -0.0190265,0.435779 0.0190265,0.435779 0.0569347,0.432462 0.0944096,0.425854 0.131166,0.416005 0.166924,0.402991 0.201412,0.386909 0.234367,0.367882 0.265538,0.346056 0.294688,0.321596 z "/>
<path fme:_creation_instance="0" d="M 530.692,79.8658 l 39.4422,39.4422 "/>
<path fme:_creation_instance="0" d="M 566.038,122.176 l 31.9939,45.692 0.257968,0.337013 0.28562,0.313922 0.311213,0.288569 0.334564,0.261136 0.355505,0.231823 0.373884,0.200838 0.38957,0.168407 0.402448,0.134763 0.412427,0.100147 0.419434,0.0648103 0.42342,0.0290063 0.424354,-0.00700667 0.422231,-0.0429692 0.417066,-0.0786221 0.408896,-0.113709 0.39778,-0.147976 0.383798,-0.181177 0.36705,-0.213072 0.347658,-0.243433 0.325761,-0.272039 0.301517,-0.298686 0.2751,-0.32318 0.246702,-0.345346 0.216526,-0.365024 0.184789,-0.382071 0.151722,-0.396366 0.117561,-0.407805 0.0825532,-0.416306 0.0469506,-0.421807 0.0110097,-0.424269 -0.0250105,-0.423674 -0.0608505,-0.420027 -0.096252,-0.413354 -0.13096,-0.403702 -0.164725,-0.391141 -0.197302,-0.375762 -0.228458,-0.357676 -31.9939,-45.692 -0.265538,-0.346056 -0.294688,-0.321596 -0.321596,-0.294688 -0.346056,-0.265538 -0.367882,-0.234367 -0.386909,-0.201412 -0.402991,-0.166924 -0.416005,-0.131166 -0.425854,-0.0944096 -0.432462,-0.0569347 -0.435779,-0.0190265 -0.435779,0.0190265 -0.432462,0.0569347 -0.425854,0.0944096 -0.416005,0.131166 -0.402991,0.166924 -0.386909,0.201412 -0.367882,0.234367 -0.346056,0.265538 -0.321596,0.294688 -0.294688,0.321596 -0.265538,0.346056 -0.234367,0.367882 -0.201412,0.386909 -0.166924,0.402991 -0.131166,0.416005 -0.0944096,0.425854 -0.0569347,0.432462 -0.0190265,0.435779 0.0190265,0.435779 0.0569347,0.432462 0.0944096,0.425854 0.131166,0.416005 0.166924,0.402991 0.201412,0.386909 0.234367,0.367882 z "/>
<path fme:_creation_instance="0" d="M 570.134,119.308 l 31.9939,45.692 "/>
<path fme:_creation_instance="0" d="M 597.597,167.113 l 23.5735,50.5536 0.195528,0.376689 0.226769,0.35875 0.256376,0.338226 0.284136,0.315266 0.309849,0.290033 0.333329,0.262712 0.354408,0.233497 0.372933,0.2026 0.388771,0.170243 0.401808,0.13666 0.41195,0.102092 0.419124,0.0667881 0.423278,0.0310033 0.424383,-0.00500488 0.422429,-0.040977 0.417432,-0.0766539 0.409428,-0.111778 0.398473,-0.146098 0.384648,-0.179364 0.368051,-0.211339 0.348802,-0.24179 0.327041,-0.2705 0.302922,-0.29726 0.276622,-0.321879 0.248328,-0.344178 0.218245,-0.363998 0.18659,-0.381195 0.15359,-0.395646 0.119483,-0.407246 0.0845161,-0.415912 0.0489398,-0.421581 0.0130109,-0.424213 -0.0230117,-0.423788 -0.0588685,-0.420309 -0.0943011,-0.413803 -0.129054,-0.404315 -0.162878,-0.391914 -23.5735,-50.5536 -0.201412,-0.386909 -0.234367,-0.367882 -0.265538,-0.346056 -0.294688,-0.321596 -0.321596,-0.294688 -0.346056,-0.265538 -0.367882,-0.234367 -0.386909,-0.201412 -0.402991,-0.166924 -0.416005,-0.131166 -0.425854,-0.0944096 -0.432462,-0.0569347 -0.435779,-0.0190265 -0.435779,0.0190265 -0.432462,0.0569347 -0.425854,0.0944096 -0.416005,0.131166 -0.402991,0.166924 -0.386909,0.201412 -0.367882,0.234367 -0.346056,0.265538 -0.321596,0.294688 -0.294688,0.321596 -0.265538,0.346056 -0.234367,0.367882 -0.201412,0.386909 -0.166924,0.402991 -0.131166,0.416005 -0.0944096,0.425854 -0.0569347,0.432462 -0.0190265,0.435779 0.0190265,0.435779 0.0569347,0.432462 0.0944096,0.425854 0.131166,0.416005 0.166924,0.402991 z "/>
<path fme:_creation_instance="0" d="M 602.128,165 l 23.5735,50.5536 "/>
<path fme:_creation_instance="0" d="M 620.872,216.848 l 14.4368,53.879 0.131166,0.416005 0.166924,0.402991 0.201412,0.386909 0.234367,0.367882 0.265538,0.346056 0.294688,0.321596 0.321596,0.294688 0.346056,0.265538 0.367882,0.234367 0.386909,0.201412 0.402991,0.166924 0.416005,0.131166 0.425854,0.0944096 0.432462,0.0569347 0.435779,0.0190265 0.435779,-0.0190265 0.432462,-0.0569347 0.425854,-0.0944096 0.416005,-0.131166 0.402991,-0.166924 0.386909,-0.201412 0.367882,-0.234367 0.346056,-0.265538 0.321596,-0.294688 0.294688,-0.321596 0.265538,-0.346056 0.234367,-0.367882 0.201412,-0.386909 0.166924,-0.402991 0.131166,-0.416005 0.0944096,-0.425854 0.0569347,-0.432462 0.0190265,-0.435779 -0.0190265,-0.435779 -0.0569347,-0.432462 -0.0944096,-0.425854 -14.4368,-53.879 -0.131166,-0.416005 -0.166924,-0.402991 -0.201412,-0.386909 -0.234367,-0.367882 -0.265538,-0.346056 -0.294688,-0.321596 -0.321596,-0.294688 -0.346056,-0.265538 -0.367882,-0.234367 -0.386909,-0.201412 -0.402991,-0.166924 -0.416005,-0.131166 -0.425854,-0.0944096 -0.432462,-0.0569347 -0.435779,-0.0190265 -0.435779,0.0190265 -0.432462,0.0569347 -0.425854,0.0944096 -0.416005,0.131166 -0.402991,0.166924 -0.386909,0.201412 -0.367882,0.234367 -0.346056,0.265538 -0.321596,0.294688 -0.294688,0.321596 -0.265538,0.346056 -0.234367,0.367882 -0.201412,0.386909 -0.166924,0.402991 -0.131166,0.416005 -0.0944096,0.425854 -0.0569347,0.432462 -0.0190265,0.435779 0.0190265,0.435779 0.0569347,0.432462 0.0944096,0.425854 z "/>
<path fme:_creation_instance="0" d="M 625.702,215.554 l 14.4368,53.879 "/>
<path fme:_creation_instance="0" d="M 635.158,269.868 l 4.86152,55.5674 0.0549006,0.420846 0.0903931,0.414674 0.125234,0.405514 0.159173,0.393433 0.191965,0.378517 0.223374,0.360873 0.253174,0.34063 0.281149,0.317932 0.307099,0.292944 0.330836,0.265845 0.352189,0.23683 0.371005,0.206109 0.387148,0.173903 0.400501,0.140444 0.410969,0.105974 0.418475,0.0707392 0.422967,0.0349952 0.424411,-0.001001 0.422797,-0.0369899 0.418137,-0.0727124 0.410464,-0.107911 0.399834,-0.142332 0.386323,-0.175727 0.370028,-0.207857 0.351068,-0.238489 0.329578,-0.267402 0.305713,-0.294389 0.279646,-0.319255 0.251564,-0.34182 0.221669,-0.361923 0.190178,-0.379418 0.157316,-0.394179 0.12332,-0.406101 0.088436,-0.415096 0.0529149,-0.4211 0.0170124,-0.424071 -0.0190126,-0.423986 -4.86152,-55.5674 -0.0569347,-0.432462 -0.0944096,-0.425854 -0.131166,-0.416005 -0.166924,-0.402991 -0.201412,-0.386909 -0.234367,-0.367882 -0.265538,-0.346056 -0.294688,-0.321596 -0.321596,-0.294688 -0.346056,-0.265538 -0.367882,-0.234367 -0.386909,-0.201412 -0.402991,-0.166924 -0.416005,-0.131166 -0.425854,-0.0944096 -0.432462,-0.0569347 -0.435779,-0.0190265 -0.435779,0.0190265 -0.432462,0.0569347 -0.425854,0.0944096 -0.416005,0.131166 -0.402991,0.166924 -0.386909,0.201412 -0.367882,0.234367 -0.346056,0.265538 -0.321596,0.294688 -0.294688,0.321596 -0.265538,0.346056 -0.234367,0.367882 -0.201412,0.386909 -0.166924,0.402991 -0.131166,0.416005 -0.0944096,0.425854 -0.0569347,0.432462 -0.0190265,0.435779 0.0190265,0.435779 z "/>
<path fme:_creation_instance="0" d="M 640.138,269.433 l 4.86152,55.5674 "/>
<path fme:_creation_instance="0" d="M 629.981,324.564 l -4.55767,-52.0945 -0.0569347,-0.432462 -0.0944096,-0.425854 -0.131166,-0.416005 -0.166924,-0.402991 -0.201412,-0.386909 -0.234367,-0.367882 -0.265538,-0.346056 -0.294688,-0.321596 -0.321596,-0.294688 -0.346056,-0.265538 -0.367882,-0.234367 -0.386909,-0.201412 -0.402991,-0.166924 -0.416005,-0.131166 -0.425854,-0.0944096 -0.432462,-0.0569347 -0.435779,-0.0190265 -0.435779,0.0190265 -0.432462,0.0569347 -0.425854,0.0944096 -0.416005,0.131166 -0.402991,0.166924 -0.386909,0.201412 -0.367882,0.234367 -0.346056,0.265538 -0.321596,0.294688 -0.294688,0.321596 -0.265538,0.346056 -0.234367,0.367882 -0.201412,0.386909 -0.166924,0.402991 -0.131166,0.416005 -0.0944096,0.425854 -0.0569347,0.432462 -0.0190265,0.435779 0.0190265,0.435779 4.55767,52.0945 0.0569347,0.432462 0.0944096,0.425854 0.131166,0.416005 0.166924,0.402991 0.201412,0.386909 0.234367,0.367882 0.265538,0.346056 0.294688,0.321596 0.321596,0.294688 0.346056,0.265538 0.367882,0.234367 0.386909,0.201412 0.402991,0.166924 0.416005,0.131166 0.425854,0.0944096 0.432462,0.0569347 0.435779,0.0190265 0.435779,-0.0190265 0.432462,-0.0569347 0.425854,-0.0944096 0.416005,-0.131166 0.402991,-0.166924 0.386909,-0.201412 0.367882,-0.234367 0.346056,-0.265538 0.321596,-0.294688 0.294688,-0.321596 0.265538,-0.346056 0.234367,-0.367882 0.201412,-0.386909 0.166924,-0.402991 0.131166,-0.416005 0.0944096,-0.425854 0.0569347,-0.432462 0.0190265,-0.435779 -0.0190265,-0.435779 z "/>
<path fme:_creation_instance="0" d="M 625,325 l -4.55767,-52.0945 "/>
<path fme:_creation_instance="0" d="M 625.423,376.659 l -13.5345,-154.7 -0.0569347,-0.432462 -0.0944096,-0.425854 -0.131166,-0.416005 -0.166924,-0.402991 -0.201412,-0.386909 -0.234367,-0.367882 -0.265538,-0.346056 -0.294688,-0.321596 -0.321596,-0.294688 -0.346056,-0.265538 -0.367882,-0.234367 -0.386909,-0.201412 -0.402991,-0.166924 -0.416005,-0.131166 -0.425854,-0.0944096 -0.432462,-0.0569347 -0.435779,-0.0190265 -0.435779,0.0190265 -0.432462,0.0569347 -0.425854,0.0944096 -0.416005,0.131166 -0.402991,0.166924 -0.386909,0.201412 -0.367882,0.234367 -0.346056,0.265538 -0.321596,0.294688 -0.294688,0.321596 -0.265538,0.346056 -0.234367,0.367882 -0.201412,0.386909 -0.166924,0.402991 -0.131166,0.416005 -0.0944096,0.425854 -0.0569347,0.432462 -0.0190265,0.435779 0.0190265,0.435779 13.5345,154.7 0.0569347,0.432462 0.0944096,0.425854 0.131166,0.416005 0.166924,0.402991 0.201412,0.386909 0.234367,0.367882 0.265538,0.346056 0.294688,0.321596 0.321596,0.294688 0.346056,0.265538 0.367882,0.234367 0.386909,0.201412 0.402991,0.166924 0.416005,0.131166 0.425854,0.0944096 0.432462,0.0569347 0.435779,0.0190265 0.435779,-0.0190265 0.432462,-0.0569347 0.425854,-0.0944096 0.416005,-0.131166 0.402991,-0.166924 0.386909,-0.201412 0.367882,-0.234367 0.346056,-0.265538 0.321596,-0.294688 0.294688,-0.321596 0.265538,-0.346056 0.234367,-0.367882 0.201412,-0.386909 0.166924,-0.402991 0.131166,-0.416005 0.0944096,-0.425854 0.0569347,-0.432462 0.0190265,-0.435779 -0.0190265,-0.435779 z "/>
<path fme:_creation_instance="0" d="M 620.442,377.094 l -13.5345,-154.7 "/>
<path fme:_creation_instance="0" d="M 611.889,427.17 l -22.1002,-252.606 -0.0569347,-0.432462 -0.0944096,-0.425854 -0.131166,-0.416005 -0.166924,-0.402991 -0.201412,-0.386909 -0.234367,-0.367882 -0.265538,-0.346056 -0.294688,-0.321596 -0.321596,-0.294688 -0.346056,-0.265538 -0.367882,-0.234367 -0.386909,-0.201412 -0.402991,-0.166924 -0.416005,-0.131166 -0.425854,-0.0944096 -0.432462,-0.0569347 -0.435779,-0.0190265 -0.435779,0.0190265 -0.432462,0.0569347 -0.425854,0.0944096 -0.416005,0.131166 -0.402991,0.166924 -0.386909,0.201412 -0.367882,0.234367 -0.346056,0.265538 -0.321596,0.294688 -0.294688,0.321596 -0.265538,0.346056 -0.234367,0.367882 -0.201412,0.386909 -0.166924,0.402991 -0.131166,0.416005 -0.0944096,0.425854 -0.0569347,0.432462 -0.0190265,0.435779 0.0190265,0.435779 22.1002,252.606 0.0569347,0.432462 0.0944096,0.425854 0.131166,0.416005 0.166924,0.402991 0.201412,0.386909 0.234367,0.367882 0.265538,0.346056 0.294688,0.321596 0.321596,0.294688 0.346056,0.265538 0.367882,0.234367 0.386909,0.201412 0.402991,0.166924 0.416005,0.131166 0.425854,0.0944096 0.432462,0.0569347 0.435779,0.0190265 0.435779,-0.0190265 0.432462,-0.0569347 0.425854,-0.0944096 0.416005,-0.131166 0.402991,-0.166924 0.386909,-0.201412 0.367882,-0.234367 0.346056,-0.265538 0.321596,-0.294688 0.294688,-0.321596 0.265538,-0.346056 0.234367,-0.367882 0.201412,-0.386909 0.166924,-0.402991 0.131166,-0.416005 0.0944096,-0.425854 0.0569347,-0.432462 0.0190265,-0.435779 -0.0190265,-0.435779 z "/>
<path fme:_creation_instance="0" d="M 606.908,427.606 l -22.1002,-252.606 "/>
<path fme:_creation_instance="0" d="M 589.789,474.564 l -29.9943,-342.836 -0.0569347,-0.432462 -0.0944096,-0.425854 -0.131166,-0.416005 -0.166924,-0.402991 -0.201412,-0.386909 -0.234367,-0.367882 -0.265538,-0.346056 -0.294688,-0.321596 -0.321596,-0.294688 -0.346056,-0.265538 -0.367882,-0.234367 -0.386909,-0.201412 -0.402991,-0.166924 -0.416005,-0.131166 -0.425854,-0.0944096 -0.432462,-0.0569347 -0.435779,-0.0190265 -0.435779,0.0190265 -0.432462,0.0569347 -0.425854,0.0944096 -0.416005,0.131166 -0.402991,0.166924 -0.386909,0.201412 -0.367882,0.234367 -0.346056,0.265538 -0.321596,0.294688 -0.294688,0.321596 -0.265538,0.346056 -0.234367,0.367882 -0.201412,0.386909 -0.166924,0.402991 -0.131166,0.416005 -0.0944096,0.425854 -0.0569347,0.432462 -0.0190265,0.435779 0.0190265,0.435779 29.9943,342.836 0.0569347,0.432462 0.0944096,0.425854 0.131166,0.416005 0.166924,0.402991 0.201412,0.386909 0.234367,0.367882 0.265538,0.346056 0.294688,0.321596 0.321596,0.294688 0.346056,0.265538 0.367882,0.234367 0.386909,0.201412 0.402991,0.166924 0.416005,0.131166 0.425854,0.0944096 0.432462,0.0569347 0.435779,0.0190265 0.435779,-0.0190265 0.432462,-0.0569347 0.425854,-0.0944096 0.416005,-0.131166 0.402991,-0.166924 0.386909,-0.201412 0.367882,-0.234367 0.346056,-0.265538 0.321596,-0.294688 0.294688,-0.321596 0.265538,-0.346056 0.234367,-0.367882 0.201412,-0.386909 0.166924,-0.402991 0.131166,-0.416005 0.0944096,-0.425854 0.0569347,-0.432462 0.0190265,-0.435779 -0.0190265,-0.435779 z "/>
<path fme:_creation_instance="0" d="M 584.808,475 l -29.9943,-342.836 "/>
<path fme:_creation_instance="0" d="M 559.794,517.401 l -36.9771,-422.65 -0.0569347,-0.432462 -0.0944096,-0.425854 -0.131166,-0.416005 -0.166924,-0.402991 -0.201412,-0.386909 -0.234367,-0.367882 -0.265538,-0.346056 -0.294688,-0.321596 -0.321596,-0.294688 -0.346056,-0.265538 -0.367882,-0.234367 -0.386909,-0.201412 -0.402991,-0.166924 -0.416005,-0.131166 -0.425854,-0.0944096 -0.432462,-0.0569347 -0.435779,-0.0190265 -0.435779,0.0190265 -0.432462,0.0569347 -0.425854,0.0944096 -0.416005,0.131166 -0.402991,0.166924 -0.386909,0.201412 -0.367882,0.234367 -0.346056,0.265538 -0.321596,0.294688 -0.294688,0.321596 -0.265538,0.346056 -0.234367,0.367882 -0.201412,0.386909 -0.166924,0.402991 -0.131166,0.416005 -0.0944096,0.425854 -0.0569347,0.432462 -0.0190265,0.435779 0.0190265,0.435779 36.9771,422.65 0.0569347,0.432462 0.0944096,0.425854 0.131166,0.416005 0.166924,0.402991 0.201412,0.386909 0.234367,0.367882 0.265538,0.346056 0.294688,0.321596 0.321596,0.294688 0.346056,0.265538 0.367882,0.234367 0.386909,0.201412 0.402991,0.166924 0.416005,0.131166 0.425854,0.0944096 0.432462,0.0569347 0.435779,0.0190265 0.435779,-0.0190265 0.432462,-0.0569347 0.425854,-0.0944096 0.416005,-0.131166 0.402991,-0.166924 0.386909,-0.201412 0.367882,-0.234367 0.346056,-0.265538 0.321596,-0.294688 0.294688,-0.321596 0.265538,-0.346056 0.234367,-0.367882 0.201412,-0.386909 0.166924,-0.402991 0.131166,-0.416005 0.0944096,-0.425854 0.0569347,-0.432462 0.0190265,-0.435779 -0.0190265,-0.435779 z "/>
<path fme:_creation_instance="0" d="M 554.813,517.836 l -36.9771,-422.65 "/>
<path fme:_creation_instance="0" d="M 522.817,554.378 l -42.8363,-489.621 -0.0549006,-0.420846 -0.0903931,-0.414674 -0.125234,-0.405514 -0.159173,-0.393433 -0.191965,-0.378517 -0.223374,-0.360873 -0.253174,-0.34063 -0.281149,-0.317932 -0.307099,-0.292944 -0.330836,-0.265845 -0.352189,-0.23683 -0.371005,-0.206109 -0.387148,-0.173903 -0.400501,-0.140444 -0.410969,-0.105974 -0.418475,-0.0707392 -0.422967,-0.0349952 -0.424411,0.001001 -0.422797,0.0369899 -0.418137,0.0727124 -0.410464,0.107911 -0.399834,0.142332 -0.386323,0.175727 -0.370028,0.207857 -0.351068,0.238489 -0.329578,0.267402 -0.305713,0.294389 -0.279646,0.319255 -0.251564,0.34182 -0.221669,0.361923 -0.190178,0.379418 -0.157316,0.394179 -0.12332,0.406101 -0.088436,0.415096 -0.0529149,0.4211 -0.0170124,0.424071 0.0190126,0.423986 42.8363,489.621 0.0569347,0.432462 0.0944096,0.425854 0.131166,0.416005 0.166924,0.402991 0.201412,0.386909 0.234367,0.367882 0.265538,0.346056 0.294688,0.321596 0.321596,0.294688 0.346056,0.265538 0.367882,0.234367 0.386909,0.201412 0.402991,0.166924 0.416005,0.131166 0.425854,0.0944096 0.432462,0.0569347 0.435779,0.0190265 0.435779,-0.0190265 0.432462,-0.0569347 0.425854,-0.0944096 0.416005,-0.131166 0.402991,-0.166924 0.386909,-0.201412 0.367882,-0.234367 0.346056,-0.265538 0.321596,-0.294688 0.294688,-0.321596 0.265538,-0.346056 0.234367,-0.367882 0.201412,-0.386909 0.166924,-0.402991 0.131166,-0.416005 0.0944096,-0.425854 0.0569347,-0.432462 0.0190265,-0.435779 -0.0190265,-0.435779 z "/>
<path fme:_creation_instance="0" d="M 517.836,554.813 l -42.8363,-489.621 "/>
<path fme:_creation_instance="0" d="M 479.981,584.372 l -47.394,-541.715 -0.0549006,-0.420846 -0.0903931,-0.414674 -0.125234,-0.405514 -0.159173,-0.393433 -0.191965,-0.378517 -0.223374,-0.360873 -0.253174,-0.34063 -0.281149,-0.317932 -0.307099,-0.292944 -0.330836,-0.265845 -0.352189,-0.23683 -0.371005,-0.206109 -0.387148,-0.173903 -0.400501,-0.140444 -0.410969,-0.105974 -0.418475,-0.0707392 -0.422967,-0.0349952 -0.424411,0.001001 -0.422797,0.0369899 -0.418137,0.0727124 -0.410464,0.107911 -0.399834,0.142332 -0.386323,0.175727 -0.370028,0.207857 -0.351068,0.238489 -0.329578,0.267402 -0.305713,0.294389 -0.279646,0.319255 -0.251564,0.34182 -0.221669,0.361923 -0.190178,0.379418 -0.157316,0.394179 -0.12332,0.406101 -0.088436,0.415096 -0.0529149,0.4211 -0.0170124,0.424071 0.0190126,0.423986 47.394,541.715 0.0569347,0.432462 0.0944096,0.425854 0.131166,0.416005 0.166924,0.402991 0.201412,0.386909 0.234367,0.367882 0.265538,0.346056 0.294688,0.321596 0.321596,0.294688 0.346056,0.265538 0.367882,0.234367 0.386909,0.201412 0.402991,0.166924 0.416005,0.131166 0.425854,0.0944096 0.432462,0.0569347 0.435779,0.0190265 0.435779,-0.0190265 0.432462,-0.0569347 0.425854,-0.0944096 0.416005,-0.131166 0.402991,-0.166924 0.386909,-0.201412 0.367882,-0.234367 0.346056,-0.265538 0.321596,-0.294688 0.294688,-0.321596 0.265538,-0.346056 0.234367,-0.367882 0.201412,-0.386909 0.166924,-0.402991 0.131166,-0.416005 0.0944096,-0.425854 0.0569347,-0.432462 0.0190265,-0.435779 -0.0190265,-0.435779 z "/>
<path fme:_creation_instance="0" d="M 475,584.808 l -47.394,-541.715 "/>
<path fme:_creation_instance="0" d="M 432.587,606.472 l -50.5116,-577.35 -0.0549006,-0.420846 -0.0903931,-0.414674 -0.125234,-0.405514 -0.159173,-0.393433 -0.191965,-0.378517 -0.223374,-0.360873 -0.253174,-0.34063 -0.281149,-0.317932 -0.307099,-0.292944 -0.330836,-0.265845 -0.352189,-0.23683 -0.371005,-0.206109 -0.387148,-0.173903 -0.400501,-0.140444 -0.410969,-0.105974 -0.418475,-0.0707392 -0.422967,-0.0349952 -0.424411,0.001001 -0.422797,0.0369899 -0.418137,0.0727124 -0.410464,0.107911 -0.399834,0.142332 -0.386323,0.175727 -0.370028,0.207857 -0.351068,0.238489 -0.329578,0.267402 -0.305713,0.294389 -0.279646,0.319255 -0.251564,0.34182 -0.221669,0.361923 -0.190178,0.379418 -0.157316,0.394179 -0.12332,0.406101 -0.088436,0.415096 -0.0529149,0.4211 -0.0170124,0.424071 0.0190126,0.423986 50.5116,577.35 0.0569347,0.432462 0.0944096,0.425854 0.131166,0.416005 0.166924,0.402991 0.201412,0.386909 0.234367,0.367882 0.265538,0.346056 0.294688,0.321596 0.321596,0.294688 0.346056,0.265538 0.367882,0.234367 0.386909,0.201412 0.402991,0.166924 0.416005,0.131166 0.425854,0.0944096 0.432462,0.0569347 0.435779,0.0190265 0.435779,-0.0190265 0.432462,-0.0569347 0.425854,-0.0944096 0.416005,-0.131166 0.402991,-0.166924 0.386909,-0.201412 0.367882,-0.234367 0.346056,-0.265538 0.321596,-0.294688 0.294688,-0.321596 0.265538,-0.346056 0.234367,-0.367882 0.201412,-0.386909 0.166924,-0.402991 0.131166,-0.416005 0.0944096,-0.425854 0.0569347,-0.432462 0.0190265,-0.435779 -0.0190265,-0.435779 z "/>
<path fme:_creation_instance="0" d="M 427.606,606.908 l -50.5116,-577.35 "/>
<path fme:_creation_instance="0" d="M 382.075,620.007 l -52.0945,-595.442 -0.0549006,-0.420846 -0.0903931,-0.414674 -0.125234,-0.405514 -0.159173,-0.393433 -0.191965,-0.378517 -0.223374,-0.360873 -0.253174,-0.34063 -0.281149,-0.317932 -0.307099,-0.292944 -0.330836,-0.265845 -0.352189,-0.23683 -0.371005,-0.206109 -0.387148,-0.173903 -0.400501,-0.140444 -0.410969,-0.105974 -0.418475,-0.0707392 -0.422967,-0.0349952 -0.424411,0.001001 -0.422797,0.0369899 -0.418137,0.0727124 -0.410464,0.107911 -0.399834,0.142332 -0.386323,0.175727 -0.370028,0.207857 -0.351068,0.238489 -0.329578,0.267402 -0.305713,0.294389 -0.279646,0.319255 -0.251564,0.34182 -0.221669,0.361923 -0.190178,0.379418 -0.157316,0.394179 -0.12332,0.406101 -0.088436,0.415096 -0.0529149,0.4211 -0.0170124,0.424071 0.0190126,0.423986 52.0945,595.442 0.0569347,0.432462 0.0944096,0.425854 0.131166,0.416005 0.166924,0.402991 0.201412,0.386909 0.234367,0.367882 0.265538,0.346056 0.294688,0.321596 0.321596,0.294688 0.346056,0.265538 0.367882,0.234367 0.386909,0.201412 0.402991,0.166924 0.416005,0.131166 0.425854,0.0944096 0.432462,0.0569347 0.435779,0.0190265 0.435779,-0.0190265 0.432462,-0.0569347 0.425854,-0.0944096 0.416005,-0.131166 0.402991,-0.166924 0.386909,-0.201412 0.367882,-0.234367 0.346056,-0.265538 0.321596,-0.294688 0.294688,-0.321596 0.265538,-0.346056 0.234367,-0.367882 0.201412,-0.386909 0.166924,-0.402991 0.131166,-0.416005 0.0944096,-0.425854 0.0569347,-0.432462 0.0190265,-0.435779 -0.0190265,-0.435779 z "/>
<path fme:_creation_instance="0" d="M 377.094,620.442 l -52.0945,-595.442 "/>
<path fme:_creation_instance="0" d="M 329.981,624.564 l -52.0945,-595.442 -0.0549006,-0.420846 -0.0903931,-0.414674 -0.125234,-0.405514 -0.159173,-0.393433 -0.191965,-0.378517 -0.223374,-0.360873 -0.253174,-0.34063 -0.281149,-0.317932 -0.307099,-0.292944 -0.330836,-0.265845 -0.352189,-0.23683 -0.371005,-0.206109 -0.387148,-0.173903 -0.400501,-0.140444 -0.410969,-0.105974 -0.418475,-0.0707392 -0.422967,-0.0349952 -0.424411,0.001001 -0.422797,0.0369899 -0.418137,0.0727124 -0.410464,0.107911 -0.399834,0.142332 -0.386323,0.175727 -0.370028,0.207857 -0.351068,0.238489 -0.329578,0.267402 -0.305713,0.294389 -0.279646,0.319255 -0.251564,0.34182 -0.221669,0.361923 -0.190178,0.379418 -0.157316,0.394179 -0.12332,0.406101 -0.088436,0.415096 -0.0529149,0.4211 -0.0170124,0.424071 0.0190126,0.423986 52.0945,595.442 0.0569347,0.432462 0.0944096,0.425854 0.131166,0.416005 0.166924,0.402991 0.201412,0.386909 0.234367,0.367882 0.265538,0.346056 0.294688,0.321596 0.321596,0.294688 0.346056,0.265538 0.367882,0.234367 0.386909,0.201412 0.402991,0.166924 0.416005,0.131166 0.425854,0.0944096 0.432462,0.0569347 0.435779,0.0190265 0.435779,-0.0190265 0.432462,-0.0569347 0.425854,-0.0944096 0.416005,-0.131166 0.402991,-0.166924 0.386909,-0.201412 0.367882,-0.234367 0.346056,-0.265538 0.321596,-0.294688 0.294688,-0.321596 0.265538,-0.346056 0.234367,-0.367882 0.201412,-0.386909 0.166924,-0.402991 0.131166,-0.416005 0.0944096,-0.425854 0.0569347,-0.432462 0.0190265,-0.435779 -0.0190265,-0.435779 z "/>
<path fme:_creation_instance="0" d="M 325,625 l -52.0945,-595.442 "/>
<path fme:_creation_instance="0" d="M 277.887,620.007 l -50.5116,-577.35 -0.0549006,-0.420846 -0.0903931,-0.414674 -0.125234,-0.405514 -0.159173,-0.393433 -0.191965,-0.378517 -0.223374,-0.360873 -0.253174,-0.34063 -0.281149,-0.317932 -0.307099,-0.292944 -0.330836,-0.265845 -0.352189,-0.23683 -0.371005,-0.206109 -0.387148,-0.173903 -0.400501,-0.140444 -0.410969,-0.105974 -0.418475,-0.0707392 -0.422967,-0.0349952 -0.424411,0.001001 -0.422797,0.0369899 -0.418137,0.0727124 -0.410464,0.107911 -0.399834,0.142332 -0.386323,0.175727 -0.370028,0.207857 -0.351068,0.238489 -0.329578,0.267402 -0.305713,0.294389 -0.279646,0.319255 -0.251564,0.34182 -0.221669,0.361923 -0.190178,0.379418 -0.157316,0.394179 -0.12332,0.406101 -0.088436,0.415096 -0.0529149,0.4211 -0.0170124,0.424071 0.0190126,0.423986 50.5116,577.35 0.0569347,0.432462 0.0944096,0.425854 0.131166,0.416005 0.166924,0.402991 0.201412,0.386909 0.234367,0.367882 0.265538,0.346056 0.294688,0.321596 0.321596,0.294688 0.346056,0.265538 0.367882,0.234367 0.386909,0.201412 0.402991,0.166924 0.416005,0.131166 0.425854,0.0944096 0.432462,0.0569347 0.435779,0.0190265 0.435779,-0.0190265 0.432462,-0.0569347 0.425854,-0.0944096 0.416005,-0.131166 0.402991,-0.166924 0.386909,-0.201412 0.367882,-0.234367 0.346056,-0.265538 0.321596,-0.294688 0.294688,-0.321596 0.265538,-0.346056 0.234367,-0.367882 0.201412,-0.386909 0.166924,-0.402991 0.131166,-0.416005 0.0944096,-0.425854 0.0569347,-0.432462 0.0190265,-0.435779 -0.0190265,-0.435779 z "/>
<path fme:_creation_instance="0" d="M 272.906,620.442 l -50.5116,-577.35 "/>
<path fme:_creation_instance="0" d="M 227.375,606.472 l -47.394,-541.715 -0.0549006,-0.420846 -0.0903931,-0.414674 -0.125234,-0.405514 -0.159173,-0.393433 -0.191965,-0.378517 -0.223374,-0.360873 -0.253174,-0.34063 -0.281149,-0.317932 -0.307099,-0.292944 -0.330836,-0.265845 -0.352189,-0.23683 -0.371005,-0.206109 -0.387148,-0.173903 -0.400501,-0.140444 -0.410969,-0.105974 -0.418475,-0.0707392 -0.422967,-0.0349952 -0.424411,0.001001 -0.422797,0.0369899 -0.418137,0.0727124 -0.410464,0.107911 -0.399834,0.142332 -0.386323,0.175727 -0.370028,0.207857 -0.351068,0.238489 -0.329578,0.267402 -0.305713,0.294389 -0.279646,0.319255 -0.251564,0.34182 -0.221669,0.361923 -0.190178,0.379418 -0.157316,0.394179 -0.12332,0.406101 -0.088436,0.415096 -0.0529149,0.4211 -0.0170124,0.424071 0.0190126,0.423986 47.394,541.715 0.0569347,0.432462 0.0944096,0.425854 0.131166,0.416005 0.166924,0.402991 0.201412,0.386909 0.234367,0.367882 0.265538,0.346056 0.294688,0.321596 0.321596,0.294688 0.346056,0.265538 0.367882,0.234367 0.386909,0.201412 0.402991,0.166924 0.416005,0.131166 0.425854,0.0944096 0.432462,0.0569347 0.435779,0.0190265 0.435779,-0.0190265 0.432462,-0.0569347 0.425854,-0.0944096 0.416005,-0.131166 0.402991,-0.166924 0.386909,-0.201412 0.367882,-0.234367 0.346056,-0.265538 0.321596,-0.294688 0.294688,-0.321596 0.265538,-0.346056 0.234367,-0.367882 0.201412,-0.386909 0.166924,-0.402991 0.131166,-0.416005 0.0944096,-0.425854 0.0569347,-0.432462 0.0190265,-0.435779 -0.0190265,-0.435779 z "/>
<path fme:_creation_instance="0" d="M 222.394,606.908 l -47.394,-541.715 "/>
<path fme:_creation_instance="0" d="M 179.981,584.372 l -42.8363,-489.621 -0.0569347,-0.432462 -0.0944096,-0.425854 -0.131166,-0.416005 -0.166924,-0.402991 -0.201412,-0.386909 -0.234367,-0.367882 -0.265538,-0.346056 -0.294688,-0.321596 -0.321596,-0.294688 -0.346056,-0.265538 -0.367882,-0.234367 -0.386909,-0.201412 -0.402991,-0.166924 -0.416005,-0.131166 -0.425854,-0.0944096 -0.432462,-0.0569347 -0.435779,-0.0190265 -0.435779,0.0190265 -0.432462,0.0569347 -0.425854,0.0944096 -0.416005,0.131166 -0.402991,0.166924 -0.386909,0.201412 -0.367882,0.234367 -0.346056,0.265538 -0.321596,0.294688 -0.294688,0.321596 -0.265538,0.346056 -0.234367,0.367882 -0.201412,0.386909 -0.166924,0.402991 -0.131166,0.416005 -0.0944096,0.425854 -0.0569347,0.432462 -0.0190265,0.435779 0.0190265,0.435779 42.8363,489.621 0.0569347,0.432462 0.0944096,0.425854 0.131166,0.416005 0.166924,0.402991 0.201412,0.386909 0.234367,0.367882 0.265538,0.346056 0.294688,0.321596 0.321596,0.294688 0.346056,0.265538 0.367882,0.234367 0.386909,0.201412 0.402991,0.166924 0.416005,0.131166 0.425854,0.0944096 0.432462,0.0569347 0.435779,0.0190265 0.435779,-0.0190265 0.432462,-0.0569347 0.425854,-0.0944096 0.416005,-0.131166 0.402991,-0.166924 0.386909,-0.201412 0.367882,-0.234367 0.346056,-0.265538 0.321596,-0.294688 0.294688,-0.321596 0.265538,-0.346056 0.234367,-0.367882 0.201412,-0.386909 0.166924,-0.402991 0.131166,-0.416005 0.0944096,-0.425854 0.0569347,-0.432462 0.0190265,-0.435779 -0.0190265,-0.435779 z "/>
<path fme:_creation_instance="0" d="M 175,584.808 l -42.8363,-489.621 "/>
<path fme:_creation_instance="0" d="M 137.145,554.378 l -36.9771,-422.65 -0.0569347,-0.432462 -0.0944096,-0.425854 -0.131166,-0.416005 -0.166924,-0.402991 -0.201412,-0.386909 -0.234367,-0.367882 -0.265538,-0.346056 -0.294688,-0.321596 -0.321596,-0.294688 -0.346056,-0.265538 -0.367882,-0.234367 -0.386909,-0.201412 -0.402991,-0.166924 -0.416005,-0.131166 -0.425854,-0.0944096 -0.432462,-0.0569347 -0.435779,-0.0190265 -0.435779,0.0190265 -0.432462,0.0569347 -0.425854,0.0944096 -0.416005,0.131166 -0.402991,0.166924 -0.386909,0.201412 -0.367882,0.234367 -0.346056,0.265538 -0.321596,0.294688 -0.294688,0.321596 -0.265538,0.346056 -0.234367,0.367882 -0.201412,0.386909 -0.166924,0.402991 -0.131166,0.416005 -0.0944096,0.425854 -0.0569347,0.432462 -0.0190265,0.435779 0.0190265,0.435779 36.9771,422.65 0.0569347,0.432462 0.0944096,0.425854 0.131166,0.416005 0.166924,0.402991 0.201412,0.386909 0.234367,0.367882 0.265538,0.346056 0.294688,0.321596 0.321596,0.294688 0.346056,0.265538 0.367882,0.234367 0.386909,0.201412 0.402991,0.166924 0.416005,0.131166 0.425854,0.0944096 0.432462,0.0569347 0.435779,0.0190265 0.435779,-0.0190265 0.432462,-0.0569347 0.425854,-0.0944096 0.416005,-0.131166 0.402991,-0.166924 0.386909,-0.201412 0.367882,-0.234367 0.346056,-0.265538 0.321596,-0.294688 0.294688,-0.321596 0.265538,-0.346056 0.234367,-0.367882 0.201412,-0.386909 0.166924,-0.402991 0.131166,-0.416005 0.0944096,-0.425854 0.0569347,-0.432462 0.0190265,-0.435779 -0.0190265,-0.435779 z "/>
<path fme:_creation_instance="0" d="M 132.164,554.813 l -36.9771,-422.65 "/>
<path fme:_creation_instance="0" d="M 100.168,517.401 l -29.9943,-342.836 -0.0569347,-0.432462 -0.0944096,-0.425854 -0.131166,-0.416005 -0.166924,-0.402991 -0.201412,-0.386909 -0.234367,-0.367882 -0.265538,-0.346056 -0.294688,-0.321596 -0.321596,-0.294688 -0.346056,-0.265538 -0.367882,-0.234367 -0.386909,-0.201412 -0.402991,-0.166924 -0.416005,-0.131166 -0.425854,-0.0944096 -0.432462,-0.0569347 -0.435779,-0.0190265 -0.435779,0.0190265 -0.432462,0.0569347 -0.425854,0.0944096 -0.416005,0.131166 -0.402991,0.166924 -0.386909,0.201412 -0.367882,0.234367 -0.346056,0.265538 -0.321596,0.294688 -0.294688,0.321596 -0.265538,0.346056 -0.234367,0.367882 -0.201412,0.386909 -0.166924,0.402991 -0.131166,0.416005 -0.0944096,0.425854 -0.0569347,0.432462 -0.0190265,0.435779 0.0190265,0.435779 29.9943,342.836 0.0569347,0.432462 0.0944096,0.425854 0.131166,0.416005 0.166924,0.402991 0.201412,0.386909 0.234367,0.367882 0.265538,0.346056 0.294688,0.321596 0.321596,0.294688 0.346056,0.265538 0.367882,0.234367 0.386909,0.201412 0.402991,0.166924 0.416005,0.131166 0.425854,0.0944096 0.432462,0.0569347 0.435779,0.0190265 0.435779,-0.0190265 0.432462,-0.0569347 0.425854,-0.0944096 0.416005,-0.131166 0.402991,-0.166924 0.386909,-0.201412 0.367882,-0.234367 0.346056,-0.265538 0.321596,-0.294688 0.294688,-0.321596 0.265538,-0.346056 0.234367,-0.367882 0.201412,-0.386909 0.166924,-0.402991 0.131166,-0.416005 0.0944096,-0.425854 0.0569347,-0.432462 0.0190265,-0.435779 -0.0190265,-0.435779 z "/>
<path fme:_creation_instance="0" d="M 95.1867,517.836 l -29.9943,-342.836 "/>
<path fme:_creation_instance="0" d="M 70.1734,474.564 l -22.1002,-252.606 -0.0569347,-0.432462 -0.0944096,-0.425854 -0.131166,-0.416005 -0.166924,-0.402991 -0.201412,-0.386909 -0.234367,-0.367882 -0.265538,-0.346056 -0.294688,-0.321596 -0.321596,-0.294688 -0.346056,-0.265538 -0.367882,-0.234367 -0.386909,-0.201412 -0.402991,-0.166924 -0.416005,-0.131166 -0.425854,-0.0944096 -0.432462,-0.0569347 -0.435779,-0.0190265 -0.435779,0.0190265 -0.432462,0.0569347 -0.425854,0.0944096 -0.416005,0.131166 -0.402991,0.166924 -0.386909,0.201412 -0.367882,0.234367 -0.346056,0.265538 -0.321596,0.294688 -0.294688,0.321596 -0.265538,0.346056 -0.234367,0.367882 -0.201412,0.386909 -0.166924,0.402991 -0.131166,0.416005 -0.0944096,0.425854 -0.0569347,0.432462 -0.0190265,0.435779 0.0190265,0.435779 22.1002,252.606 0.0569347,0.432462 0.0944096,0.425854 0.131166,0.416005 0.166924,0.402991 0.201412,0.386909 0.234367,0.367882 0.265538,0.346056 0.294688,0.321596 0.321596,0.294688 0.346056,0.265538 0.367882,0.234367 0.386909,0.201412 0.402991,0.166924 0.416005,0.131166 0.425854,0.0944096 0.432462,0.0569347 0.435779,0.0190265 0.435779,-0.0190265 0.432462,-0.0569347 0.425854,-0.0944096 0.416005,-0.131166 0.402991,-0.166924 0.386909,-0.201412 0.367882,-0.234367 0.346056,-0.265538 0.321596,-0.294688 0.294688,-0.321596 0.265538,-0.346056 0.234367,-0.367882 0.201412,-0.386909 0.166924,-0.402991 0.131166,-0.416005 0.0944096,-0.425854 0.0569347,-0.432462 0.0190265,-0.435779 -0.0190265,-0.435779 z "/>
<path fme:_creation_instance="0" d="M 65.1924,475 l -22.1002,-252.606 "/>
<path fme:_creation_instance="0" d="M 48.0732,427.17 l -13.5345,-154.7 -0.0569347,-0.432462 -0.0944096,-0.425854 -0.131166,-0.416005 -0.166924,-0.402991 -0.201412,-0.386909 -0.234367,-0.367882 -0.265538,-0.346056 -0.294688,-0.321596 -0.321596,-0.294688 -0.346056,-0.265538 -0.367882,-0.234367 -0.386909,-0.201412 -0.402991,-0.166924 -0.416005,-0.131166 -0.425854,-0.0944096 -0.432462,-0.0569347 -0.435779,-0.0190265 -0.435779,0.0190265 -0.432462,0.0569347 -0.425854,0.0944096 -0.416005,0.131166 -0.402991,0.166924 -0.386909,0.201412 -0.367882,0.234367 -0.346056,0.265538 -0.321596,0.294688 -0.294688,0.321596 -0.265538,0.346056 -0.234367,0.367882 -0.201412,0.386909 -0.166924,0.402991 -0.131166,0.416005 -0.0944096,0.425854 -0.0569347,0.432462 -0.0190265,0.435779 0.0190265,0.435779 13.5345,154.7 0.0569347,0.432462 0.0944096,0.425854 0.131166,0.416005 0.166924,0.402991 0.201412,0.386909 0.234367,0.367882 0.265538,0.346056 0.294688,0.321596 0.321596,0.294688 0.346056,0.265538 0.367882,0.234367 0.386909,0.201412 0.402991,0.166924 0.416005,0.131166 0.425854,0.0944096 0.432462,0.0569347 0.435779,0.0190265 0.435779,-0.0190265 0.432462,-0.0569347 0.425854,-0.0944096 0.416005,-0.131166 0.402991,-0.166924 0.386909,-0.201412 0.367882,-0.234367 0.346056,-0.265538 0.321596,-0.294688 0.294688,-0.321596 0.265538,-0.346056 0.234367,-0.367882 0.201412,-0.386909 0.166924,-0.402991 0.131166,-0.416005 0.0944096,-0.425854 0.0569347,-0.432462 0.0190265,-0.435779 -0.0190265,-0.435779 z "/>
<path fme:_creation_instance="0" d="M 43.0922,427.606 l -13.5345,-154.7 "/>
<path fme:_creation_instance="0" d="M 34.5386,376.659 l -4.55767,-52.0945 -0.0569347,-0.432462 -0.0944096,-0.425854 -0.131166,-0.416005 -0.166924,-0.402991 -0.201412,-0.386909 -0.234367,-0.367882 -0.265538,-0.346056 -0.294688,-0.321596 -0.321596,-0.294688 -0.346056,-0.265538 -0.367882,-0.234367 -0.386909,-0.201412 -0.402991,-0.166924 -0.416005,-0.131166 -0.425854,-0.0944096 -0.432462,-0.0569347 -0.435779,-0.0190265 -0.435779,0.0190265 -0.432462,0.0569347 -0.425854,0.0944096 -0.416005,0.131166 -0.402991,0.166924 -0.386909,0.201412 -0.367882,0.234367 -0.346056,0.265538 -0.321596,0.294688 -0.294688,0.321596 -0.265538,0.346056 -0.234367,0.367882 -0.201412,0.386909 -0.166924,0.402991 -0.131166,0.416005 -0.0944096,0.425854 -0.0569347,0.432462 -0.0190265,0.435779 0.0190265,0.435779 4.55767,52.0945 0.0569347,0.432462 0.0944096,0.425854 0.131166,0.416005 0.166924,0.402991 0.201412,0.386909 0.234367,0.367882 0.265538,0.346056 0.294688,0.321596 0.321596,0.294688 0.346056,0.265538 0.367882,0.234367 0.386909,0.201412 0.402991,0.166924 0.416005,0.131166 0.425854,0.0944096 0.432462,0.0569347 0.435779,0.0190265 0.435779,-0.0190265 0.432462,-0.0569347 0.425854,-0.0944096 0.416005,-0.131166 0.402991,-0.166924 0.386909,-0.201412 0.367882,-0.234367 0.346056,-0.265538 0.321596,-0.294688 0.294688,-0.321596 0.265538,-0.346056 0.234367,-0.367882 0.201412,-0.386909 0.166924,-0.402991 0.131166,-0.416005 0.0944096,-0.425854 0.0569347,-0.432462 0.0190265,-0.435779 -0.0190265,-0.435779 z "/>
<path fme:_creation_instance="0" d="M 29.5577,377.094 l -4.55767,-52.0945 "/>
</g></g></svg>