<?xml version="1.0" encoding="UTF-8" standalone="no"?>
<!DOCTYPE svg PUBLIC "-//W3C//DTD SVG 1.1//EN" "http://www.w3.org/Graphics/SVG/1.1/DTD/svg11-flat.dtd"
[
<!ATTLIST g xmlns:fme CDATA #FIXED "http://www.safe.com/fme" >
<!ATTLIST path fme:ID CDATA #IMPLIED fme:angle CDATA #IMPLIED fme:segment_size CDATA #IMPLIED >
<!ATTLIST ellipse fme:ID CDATA #IMPLIED fme:angle CDATA #IMPLIED fme:segment_size CDATA #IMPLIED >
<!ATTLIST text fme:ID CDATA #IMPLIED fme:angle CDATA #IMPLIED fme:segment_size CDATA #IMPLIED >
<!ATTLIST use fme:ID CDATA #IMPLIED fme:angle CDATA #IMPLIED fme:segment_size CDATA #IMPLIED >
]>
<svg xmlns="http://www.w3.org/2000/svg"  viewBox="-36.3186 -36.3186 10838.2 2251.76"><g xmlns:fme="http://www.safe.com/fme" fill="none" stroke="black" stroke-width="0.363186342597032" transform="translate(0,2179.12) scale(1, -1)">
<g id="test" >
<path fme:angle="30" fme:segment_size="1000" fme:ID="0" d="M 0,1179.12 l 100,0 100,0 100,0 100,0 100,0 100,0 100,0 100,0 100,0 100,0 "/>
<path fme:ID="0" d="M 1000,1179.12 l 866.025,-500 "/>
<path fme:angle="30" fme:segment_size="1000" fme:ID="0" d="M 0,1179.12 l 100,0 100,0 100,0 100,0 100,0 100,0 100,0 100,0 100,0 100,0 "/>
<path fme:ID="0" d="M 1000,1179.12 l 866.025,500 "/>
<path fme:angle="60" fme:segment_size="1000" fme:ID="0" d="M 0,1179.12 l 100,0 100,0 100,0 100,0 100,0 100,0 100,0 100,0 100,0 100,0 "/>
<path fme:ID="0" d="M 1000,1179.12 l 500,-866.025 "/>
<path fme:angle="60" fme:segment_size="1000" fme:ID="0" d="M 0,1179.12 l 100,0 100,0 100,0 100,0 100,0 100,0 100,0 100,0 100,0 100,0 "/>
<path fme:ID="0" d="M 1000,1179.12 l 500,866.025 "/>
<path fme:angle="90" fme:segment_size="1000" fme:ID="0" d="M 0,1179.12 l 100,0 100,0 100,0 100,0 100,0 100,0 100,0 100,0 100,0 100,0 "/>
<path fme:ID="0" d="M 1000,1179.12 l 1.13687e-13,-1000 "/>
<path fme:angle="90" fme:segment_size="1000" fme:ID="0" d="M 0,1179.12 l 100,0 100,0 100,0 100,0 100,0 100,0 100,0 100,0 100,0 100,0 "/>
<path fme:ID="0" d="M 1000,1179.12 l 0,1000 "/>
<path fme:angle="30" fme:segment_size="1000" fme:ID="1" d="M 1000,1179.12 l 100,0 100,0 100,0 100,0 100,0 100,0 100,0 100,0 100,0 100,0 "/>
<path fme:ID="1" d="M 2000,1179.12 l 866.025,-500 "/>
<path fme:angle="30" fme:segment_size="1000" fme:ID="1" d="M 1000,1179.12 l 100,0 100,0 100,0 100,0 100,0 100,0 100,0 100,0 100,0 100,0 "/>
<path fme:ID="1" d="M 2000,1179.12 l 866.025,500 "/>
<path fme:angle="60" fme:segment_size="1000" fme:ID="1" d="M 1000,1179.12 l 100,0 100,0 100,0 100,0 100,0 100,0 100,0 100,0 100,0 100,0 "/>
<path fme:ID="1" d="M 2000,1179.12 l 500,-866.025 "/>
<path fme:angle="60" fme:segment_size="1000" fme:ID="1" d="M 1000,1179.12 l 100,0 100,0 100,0 100,0 100,0 100,0 100,0 100,0 100,0 100,0 "/>
<path fme:ID="1" d="M 2000,1179.12 l 500,866.025 "/>
<path fme:angle="90" fme:segment_size="1000" fme:ID="1" d="M 1000,1179.12 l 100,0 100,0 100,0 100,0 100,0 100,0 100,0 100,0 100,0 100,0 "/>
<path fme:ID="1" d="M 2000,1179.12 l 2.27374e-13,-1000 "/>
<path fme:angle="90" fme:segment_size="1000" fme:ID="1" d="M 1000,1179.12 l 100,0 100,0 100,0 100,0 100,0 100,0 100,0 100,0 100,0 100,0 "/>
<path fme:ID="1" d="M 2000,1179.12 l 0,1000 "/>
<path fme:angle="30" fme:segment_size="1000" fme:ID="2" d="M 2000,1179.12 l 100,0 100,0 100,0 100,0 100,0 100,0 100,0 100,0 100,0 100,0 "/>
<path fme:ID="2" d="M 3000,1179.12 l 866.025,-500 "/>
<path fme:angle="30" fme:segment_size="1000" fme:ID="2" d="M 2000,1179.12 l 100,0 100,0 100,0 100,0 100,0 100,0 100,0 100,0 100,0 100,0 "/>
<path fme:ID="2" d="M 3000,1179.12 l 866.025,500 "/>
<path fme:angle="60" fme:segment_size="1000" fme:ID="2" d="M 2000,1179.12 l 100,0 100,0 100,0 100,0 100,0 100,0 100,0 100,0 100,0 100,0 "/>
<path fme:ID="2" d="M 3000,1179.12 l 500,-866.025 "/>
<path fme:angle="60" fme:segment_size="1000" fme:ID="2" d="M 2000,1179.12 l 100,0 100,0 100,0 100,0 100,0 100,0 100,0 100,0 100,0 100,0 "/>
<path fme:ID="2" d="M 3000,1179.12 l 500,866.025 "/>
<path fme:angle="90" fme:segment_size="1000" fme:ID="2" d="M 2000,1179.12 l 100,0 100,0 100,0 100,0 100,0 100,0 100,0 100,0 100,0 100,0 "/>
<path fme:ID="2" d="M 3000,1179.12 l 0,-1000 "/>
<path fme:angle="90" fme:segment_size="1000" fme:ID="2" d="M 2000,1179.12 l 100,0 100,0 100,0 100,0 100,0 100,0 100,0 100,0 100,0 100,0 "/>
<path fme:ID="2" d="M 3000,1179.12 l 0,1000 "/>
<path fme:angle="30" fme:segment_size="1000" fme:ID="3" d="M 3000,1179.12 l 100,0 100,0 100,0 100,0 100,0 100,0 100,0 100,0 100,0 100,0 "/>
<path fme:ID="3" d="M 4000,1179.12 l 866.025,-500 "/>
<path fme:angle="30" fme:segment_size="1000" fme:ID="3" d="M 3000,1179.12 l 100,0 100,0 100,0 100,0 100,0 100,0 100,0 100,0 100,0 100,0 "/>
<path fme:ID="3" d="M 4000,1179.12 l 866.025,500 "/>
<path fme:angle="60" fme:segment_size="1000" fme:ID="3" d="M 3000,1179.12 l 100,0 100,0 100,0 100,0 100,0 100,0 100,0 100,0 100,0 100,0 "/>
<path fme:ID="3" d="M 4000,1179.12 l 500,-866.025 "/>
<path fme:angle="60" fme:segment_size="1000" fme:ID="3" d="M 3000,1179.12 l 100,0 100,0 100,0 100,0 100,0 100,0 100,0 100,0 100,0 100,0 "/>
<path fme:ID="3" d="M 4000,1179.12 l 500,866.025 "/>
<path fme:angle="90" fme:segment_size="1000" fme:ID="3" d="M 3000,1179.12 l 100,0 100,0 100,0 100,0 100,0 100,0 100,0 100,0 100,0 100,0 "/>
<path fme:ID="3" d="M 4000,1179.12 l 0,-1000 "/>
<path fme:angle="90" fme:segment_size="1000" fme:ID="3" d="M 3000,1179.12 l 100,0 100,0 100,0 100,0 100,0 100,0 100,0 100,0 100,0 100,0 "/>
<path fme:ID="3" d="M 4000,1179.12 l 0,1000 "/>
<path fme:angle="30" fme:segment_size="1000" fme:ID="4" d="M 4000,1179.12 l 100,0 100,0 100,0 100,0 100,0 100,0 100,0 100,0 100,0 100,0 "/>
<path fme:ID="4" d="M 5000,1179.12 l 866.025,-500 "/>
<path fme:angle="30" fme:segment_size="1000" fme:ID="4" d="M 4000,1179.12 l 100,0 100,0 100,0 100,0 100,0 100,0 100,0 100,0 100,0 100,0 "/>
<path fme:ID="4" d="M 5000,1179.12 l 866.025,500 "/>
<path fme:angle="60" fme:segment_size="1000" fme:ID="4" d="M 4000,1179.12 l 100,0 100,0 100,0 100,0 100,0 100,0 100,0 100,0 100,0 100,0 "/>
<path fme:ID="4" d="M 5000,1179.12 l 500,-866.025 "/>
<path fme:angle="60" fme:segment_size="1000" fme:ID="4" d="M 4000,1179.12 l 100,0 100,0 100,0 100,0 100,0 100,0 100,0 100,0 100,0 100,0 "/>
<path fme:ID="4" d="M 5000,1179.12 l 500,866.025 "/>
<path fme:angle="90" fme:segment_size="1000" fme:ID="4" d="M 4000,1179.12 l 100,0 100,0 100,0 100,0 100,0 100,0 100,0 100,0 100,0 100,0 "/>
<path fme:ID="4" d="M 5000,1179.12 l 0,-1000 "/>
<path fme:angle="90" fme:segment_size="1000" fme:ID="4" d="M 4000,1179.12 l 100,0 100,0 100,0 100,0 100,0 100,0 100,0 100,0 100,0 100,0 "/>
<path fme:ID="4" d="M 5000,1179.12 l 0,1000 "/>
<path fme:angle="30" fme:segment_size="1000" fme:ID="5" d="M 5000,1179.12 l 100,-1.712 100,-9.872 100,-21.032 100,-30.872 100,-36.512 100,-36.512 100,-30.872 100,-21.032 100,-9.872 72.3987,-1.23947 "/>
<path fme:ID="5" d="M 5972.4,979.591 l 747.849,-663.869 "/>
<path fme:angle="30" fme:segment_size="1000" fme:ID="5" d="M 5000,1179.12 l 100,-1.712 100,-9.872 100,-21.032 100,-30.872 100,-36.512 100,-36.512 100,-30.872 100,-21.032 100,-9.872 72.3987,-1.23947 "/>
<path fme:ID="5" d="M 5972.4,979.591 l 948.852,315.721 "/>
<path fme:angle="60" fme:segment_size="1000" fme:ID="5" d="M 5000,1179.12 l 100,-1.712 100,-9.872 100,-21.032 100,-30.872 100,-36.512 100,-36.512 100,-30.872 100,-21.032 100,-9.872 72.3987,-1.23947 "/>
<path fme:ID="5" d="M 5972.4,979.591 l 315.721,-948.852 "/>
<path fme:angle="60" fme:segment_size="1000" fme:ID="5" d="M 5000,1179.12 l 100,-1.712 100,-9.872 100,-21.032 100,-30.872 100,-36.512 100,-36.512 100,-30.872 100,-21.032 100,-9.872 72.3987,-1.23947 "/>
<path fme:ID="5" d="M 5972.4,979.591 l 663.869,747.849 "/>
<path fme:angle="90" fme:segment_size="1000" fme:ID="5" d="M 5000,1179.12 l 100,-1.712 100,-9.872 100,-21.032 100,-30.872 100,-36.512 100,-36.512 100,-30.872 100,-21.032 100,-9.872 72.3987,-1.23947 "/>
<path fme:ID="5" d="M 5972.4,979.591 l -201.003,-979.591 "/>
<path fme:angle="90" fme:segment_size="1000" fme:ID="5" d="M 5000,1179.12 l 100,-1.712 100,-9.872 100,-21.032 100,-30.872 100,-36.512 100,-36.512 100,-30.872 100,-21.032 100,-9.872 72.3987,-1.23947 "/>
<path fme:ID="5" d="M 5972.4,979.591 l 201.003,979.591 "/>
<path fme:angle="30" fme:segment_size="1000" fme:ID="6" d="M 5972.4,979.591 l 27.6013,-0.472534 100,1.712 100,9.872 100,21.032 100,30.872 100,36.512 100,36.512 100,30.872 100,21.032 100,9.872 44.7974,0.766932 "/>
<path fme:ID="6" d="M 6944.8,1178.17 l 948.557,-316.606 "/>
<path fme:angle="30" fme:segment_size="1000" fme:ID="6" d="M 5972.4,979.591 l 27.6013,-0.472534 100,1.712 100,9.872 100,21.032 100,30.872 100,36.512 100,36.512 100,30.872 100,21.032 100,9.872 44.7974,0.766932 "/>
<path fme:ID="6" d="M 6944.8,1178.17 l 748.468,663.171 "/>
<path fme:angle="60" fme:segment_size="1000" fme:ID="6" d="M 5972.4,979.591 l 27.6013,-0.472534 100,1.712 100,9.872 100,21.032 100,30.872 100,36.512 100,36.512 100,30.872 100,21.032 100,9.872 44.7974,0.766932 "/>
<path fme:ID="6" d="M 6944.8,1178.17 l 663.171,-748.468 "/>
<path fme:angle="60" fme:segment_size="1000" fme:ID="6" d="M 5972.4,979.591 l 27.6013,-0.472534 100,1.712 100,9.872 100,21.032 100,30.872 100,36.512 100,36.512 100,30.872 100,21.032 100,9.872 44.7974,0.766932 "/>
<path fme:ID="6" d="M 6944.8,1178.17 l 316.606,948.557 "/>
<path fme:angle="90" fme:segment_size="1000" fme:ID="6" d="M 5972.4,979.591 l 27.6013,-0.472534 100,1.712 100,9.872 100,21.032 100,30.872 100,36.512 100,36.512 100,30.872 100,21.032 100,9.872 44.7974,0.766932 "/>
<path fme:ID="6" d="M 6944.8,1178.17 l 200.089,-979.778 "/>
<path fme:angle="90" fme:segment_size="1000" fme:ID="6" d="M 5972.4,979.591 l 27.6013,-0.472534 100,1.712 100,9.872 100,21.032 100,30.872 100,36.512 100,36.512 100,30.872 100,21.032 100,9.872 44.7974,0.766932 "/>
<path fme:ID="6" d="M 6944.8,1178.17 l -200.089,979.778 "/>
<path fme:angle="30" fme:segment_size="1000" fme:ID="7" d="M 6944.8,1178.17 l 55.2026,0.945068 100,-1.712 100,-9.872 100,-21.032 100,-30.872 100,-36.512 100,-36.512 100,-30.872 100,-21.032 100,-9.872 17.1961,-0.294398 "/>
<path fme:ID="7" d="M 7917.2,980.536 l 749.086,-662.473 "/>
<path fme:angle="30" fme:segment_size="1000" fme:ID="7" d="M 6944.8,1178.17 l 55.2026,0.945068 100,-1.712 100,-9.872 100,-21.032 100,-30.872 100,-36.512 100,-36.512 100,-30.872 100,-21.032 100,-9.872 17.1961,-0.294398 "/>
<path fme:ID="7" d="M 7917.2,980.536 l 948.261,317.491 "/>
<path fme:angle="60" fme:segment_size="1000" fme:ID="7" d="M 6944.8,1178.17 l 55.2026,0.945068 100,-1.712 100,-9.872 100,-21.032 100,-30.872 100,-36.512 100,-36.512 100,-30.872 100,-21.032 100,-9.872 17.1961,-0.294398 "/>
<path fme:ID="7" d="M 7917.2,980.536 l 317.491,-948.261 "/>
<path fme:angle="60" fme:segment_size="1000" fme:ID="7" d="M 6944.8,1178.17 l 55.2026,0.945068 100,-1.712 100,-9.872 100,-21.032 100,-30.872 100,-36.512 100,-36.512 100,-30.872 100,-21.032 100,-9.872 17.1961,-0.294398 "/>
<path fme:ID="7" d="M 7917.2,980.536 l 662.473,749.086 "/>
<path fme:angle="90" fme:segment_size="1000" fme:ID="7" d="M 6944.8,1178.17 l 55.2026,0.945068 100,-1.712 100,-9.872 100,-21.032 100,-30.872 100,-36.512 100,-36.512 100,-30.872 100,-21.032 100,-9.872 17.1961,-0.294398 "/>
<path fme:ID="7" d="M 7917.2,980.536 l -199.175,-979.964 "/>
<path fme:angle="90" fme:segment_size="1000" fme:ID="7" d="M 6944.8,1178.17 l 55.2026,0.945068 100,-1.712 100,-9.872 100,-21.032 100,-30.872 100,-36.512 100,-36.512 100,-30.872 100,-21.032 100,-9.872 17.1961,-0.294398 "/>
<path fme:ID="7" d="M 7917.2,980.536 l 199.175,979.964 "/>
<path fme:angle="30" fme:segment_size="1000" fme:ID="8" d="M 7917.2,980.536 l 82.8039,-1.4176 100,1.712 100,9.872 100,21.032 100,30.872 100,36.512 100,36.512 100,30.872 100,21.032 89.6436,8.84962 "/>
<path fme:ID="8" d="M 8889.64,1176.38 l 947.695,-319.176 "/>
<path fme:angle="30" fme:segment_size="1000" fme:ID="8" d="M 7917.2,980.536 l 82.8039,-1.4176 100,1.712 100,9.872 100,21.032 100,30.872 100,36.512 100,36.512 100,30.872 100,21.032 89.6436,8.84962 "/>
<path fme:ID="8" d="M 8889.64,1176.38 l 750.263,661.14 "/>
<path fme:angle="60" fme:segment_size="1000" fme:ID="8" d="M 7917.2,980.536 l 82.8039,-1.4176 100,1.712 100,9.872 100,21.032 100,30.872 100,36.512 100,36.512 100,30.872 100,21.032 89.6436,8.84962 "/>
<path fme:ID="8" d="M 8889.64,1176.38 l 661.14,-750.263 "/>
<path fme:angle="60" fme:segment_size="1000" fme:ID="8" d="M 7917.2,980.536 l 82.8039,-1.4176 100,1.712 100,9.872 100,21.032 100,30.872 100,36.512 100,36.512 100,30.872 100,21.032 89.6436,8.84962 "/>
<path fme:ID="8" d="M 8889.64,1176.38 l 319.176,947.695 "/>
<path fme:angle="90" fme:segment_size="1000" fme:ID="8" d="M 7917.2,980.536 l 82.8039,-1.4176 100,1.712 100,9.872 100,21.032 100,30.872 100,36.512 100,36.512 100,30.872 100,21.032 89.6436,8.84962 "/>
<path fme:ID="8" d="M 8889.64,1176.38 l 197.433,-980.316 "/>
<path fme:angle="90" fme:segment_size="1000" fme:ID="8" d="M 7917.2,980.536 l 82.8039,-1.4176 100,1.712 100,9.872 100,21.032 100,30.872 100,36.512 100,36.512 100,30.872 100,21.032 89.6436,8.84962 "/>
<path fme:ID="8" d="M 8889.64,1176.38 l -197.433,980.316 "/>
<path fme:angle="30" fme:segment_size="1000" fme:ID="9" d="M 8889.64,1176.38 l 10.3564,1.02238 100,1.712 100,0 100,0 100,0 100,0 100,0 100,0 100,0 100,0 89.5787,0 "/>
<path fme:ID="9" d="M 9889.58,1179.12 l 867.389,-497.63 "/>
<path fme:angle="30" fme:segment_size="1000" fme:ID="9" d="M 8889.64,1176.38 l 10.3564,1.02238 100,1.712 100,0 100,0 100,0 100,0 100,0 100,0 100,0 100,0 89.5787,0 "/>
<path fme:ID="9" d="M 9889.58,1179.12 l 864.655,502.366 "/>
<path fme:angle="60" fme:segment_size="1000" fme:ID="9" d="M 8889.64,1176.38 l 10.3564,1.02238 100,1.712 100,0 100,0 100,0 100,0 100,0 100,0 100,0 100,0 89.5787,0 "/>
<path fme:ID="9" d="M 9889.58,1179.12 l 502.366,-864.655 "/>
<path fme:angle="60" fme:segment_size="1000" fme:ID="9" d="M 8889.64,1176.38 l 10.3564,1.02238 100,1.712 100,0 100,0 100,0 100,0 100,0 100,0 100,0 100,0 89.5787,0 "/>
<path fme:ID="9" d="M 9889.58,1179.12 l 497.63,867.389 "/>
<path fme:angle="90" fme:segment_size="1000" fme:ID="9" d="M 8889.64,1176.38 l 10.3564,1.02238 100,1.712 100,0 100,0 100,0 100,0 100,0 100,0 100,0 100,0 89.5787,0 "/>
<path fme:ID="9" d="M 9889.58,1179.12 l 2.73455,-999.996 "/>
<path fme:angle="90" fme:segment_size="1000" fme:ID="9" d="M 8889.64,1176.38 l 10.3564,1.02238 100,1.712 100,0 100,0 100,0 100,0 100,0 100,0 100,0 100,0 89.5787,0 "/>
<path fme:ID="9" d="M 9889.58,1179.12 l -2.73455,999.996 "/>
<path fme:angle="30" fme:segment_size="1000" fme:ID="10" d="M 9889.58,1179.12 l 10,0 "/>
<path fme:ID="10" d="M 9899.58,1179.12 l 866.025,-500 "/>
<path fme:angle="30" fme:segment_size="1000" fme:ID="10" d="M 9889.58,1179.12 l 10,0 "/>
<path fme:ID="10" d="M 9899.58,1179.12 l 866.025,500 "/>
<path fme:angle="60" fme:segment_size="1000" fme:ID="10" d="M 9889.58,1179.12 l 10,0 "/>
<path fme:ID="10" d="M 9899.58,1179.12 l 500,-866.025 "/>
<path fme:angle="60" fme:segment_size="1000" fme:ID="10" d="M 9889.58,1179.12 l 10,0 "/>
<path fme:ID="10" d="M 9899.58,1179.12 l 500,866.025 "/>
<path fme:angle="90" fme:segment_size="1000" fme:ID="10" d="M 9889.58,1179.12 l 10,0 "/>
<path fme:ID="10" d="M 9899.58,1179.12 l 0,-1000 "/>
<path fme:angle="90" fme:segment_size="1000" fme:ID="10" d="M 9889.58,1179.12 l 10,0 "/>
<path fme:ID="10" d="M 9899.58,1179.12 l 0,1000 "/>
</g></g></svg>