<?xml version="1.0" encoding="UTF-8" standalone="no"?>
<!DOCTYPE svg PUBLIC "-//W3C//DTD SVG 1.1//EN" "http://www.w3.org/Graphics/SVG/1.1/DTD/svg11-flat.dtd"
[
<!ATTLIST g xmlns:fme CDATA #FIXED "http://www.safe.com/fme" >
<!ATTLIST path fme:_creation_instance CDATA #IMPLIED fme:i CDATA #IMPLIED >
<!ATTLIST ellipse fme:_creation_instance CDATA #IMPLIED fme:i CDATA #IMPLIED >
<!ATTLIST text fme:_creation_instance CDATA #IMPLIED fme:i CDATA #IMPLIED >
<!ATTLIST use fme:_creation_instance CDATA #IMPLIED fme:i CDATA #IMPLIED >
]>
<svg xmlns="http://www.w3.org/2000/svg"  viewBox="-4.725 -4.725 387.45 387.45"><g xmlns:fme="http://www.safe.com/fme" fill="none" stroke="black" stroke-width="0.04725" transform="translate(0,378) scale(1, -1)">
<g id="test" >
<path d="M 0,0 l 36,0 0,36 -36,0 0,-36 "/>
<path d="M 18,18 l 36,0 0,36 -36,0 0,-36 "/>
<path d="M 36,0 l 36,0 0,36 -36,0 0,-36 "/>
<path d="M 54,18 l 36,0 0,36 -36,0 0,-36 "/>
<path d="M 72,0 l 36,0 0,36 -36,0 0,-36 "/>
<path d="M 90,18 l 36,0 0,36 -36,0 0,-36 "/>
<path d="M 108,0 l 36,0 0,36 -36,0 0,-36 "/>
<path d="M 126,18 l 36,0 0,36 -36,0 0,-36 "/>
<path d="M 144,0 l 36,0 0,36 -36,0 0,-36 "/>
<path d="M 162,18 l 36,0 0,36 -36,0 0,-36 "/>
<path d="M 180,0 l 36,0 0,36 -36,0 0,-36 "/>
<path d="M 198,18 l 36,0 0,36 -36,0 0,-36 "/>
<path d="M 216,0 l 36,0 0,36 -36,0 0,-36 "/>
<path d="M 234,18 l 36,0 0,36 -36,0 0,-36 "/>
<path d="M 252,0 l 36,0 0,36 -36,0 0,-36 "/>
<path d="M 270,18 l 36,0 0,36 -36,0 0,-36 "/>
<path d="M 288,0 l 36,0 0,36 -36,0 0,-36 "/>
<path d="M 306,18 l 36,0 0,36 -36,0 0,-36 "/>
<path d="M 324,0 l 36,0 0,36 -36,0 0,-36 "/>
<path d="M 342,18 l 36,0 0,36 -36,0 0,-36 "/>
<path d="M 0,36 l 36,0 0,36 -36,0 0,-36 "/>
<path d="M 18,54 l 36,0 0,36 -36,0 0,-36 "/>
<path d="M 36,36 l 36,0 0,36 -36,0 0,-36 "/>
<path d="M 54,54 l 36,0 0,36 -36,0 0,-36 "/>
<path d="M 72,36 l 36,0 0,36 -36,0 0,-36 "/>
<path d="M 90,54 l 36,0 0,36 -36,0 0,-36 "/>
<path d="M 108,36 l 36,0 0,36 -36,0 0,-36 "/>
<path d="M 126,54 l 36,0 0,36 -36,0 0,-36 "/>
<path d="M 144,36 l 36,0 0,36 -36,0 0,-36 "/>
<path d="M 162,54 l 36,0 0,36 -36,0 0,-36 "/>
<path d="M 180,36 l 36,0 0,36 -36,0 0,-36 "/>
<path d="M 198,54 l 36,0 0,36 -36,0 0,-36 "/>
<path d="M 216,36 l 36,0 0,36 -36,0 0,-36 "/>
<path d="M 234,54 l 36,0 0,36 -36,0 0,-36 "/>
<path d="M 252,36 l 36,0 0,36 -36,0 0,-36 "/>
<path d="M 270,54 l 36,0 0,36 -36,0 0,-36 "/>
<path d="M 288,36 l 36,0 0,36 -36,0 0,-36 "/>
<path d="M 306,54 l 36,0 0,36 -36,0 0,-36 "/>
<path d="M 324,36 l 36,0 0,36 -36,0 0,-36 "/>
<path d="M 342,54 l 36,0 0,36 -36,0 0,-36 "/>
<path d="M 0,72 l 36,0 0,36 -36,0 0,-36 "/>
<path d="M 18,90 l 36,0 0,36 -36,0 0,-36 "/>
<path d="M 36,72 l 36,0 0,36 -36,0 0,-36 "/>
<path d="M 54,90 l 36,0 0,36 -36,0 0,-36 "/>
<path d="M 72,72 l 36,0 0,36 -36,0 0,-36 "/>
<path d="M 90,90 l 36,0 0,36 -36,0 0,-36 "/>
<path d="M 108,72 l 36,0 0,36 -36,0 0,-36 "/>
<path d="M 126,90 l 36,0 0,36 -36,0 0,-36 "/>
<path d="M 144,72 l 36,0 0,36 -36,0 0,-36 "/>
<path d="M 162,90 l 36,0 0,36 -36,0 0,-36 "/>
<path d="M 180,72 l 36,0 0,36 -36,0 0,-36 "/>
<path d="M 198,90 l 36,0 0,36 -36,0 0,-36 "/>
<path d="M 216,72 l 36,0 0,36 -36,0 0,-36 "/>
<path d="M 234,90 l 36,0 0,36 -36,0 0,-36 "/>
<path d="M 252,72 l 36,0 0,36 -36,0 0,-36 "/>
<path d="M 270,90 l 36,0 0,36 -36,0 0,-36 "/>
<path d="M 288,72 l 36,0 0,36 -36,0 0,-36 "/>
<path d="M 306,90 l 36,0 0,36 -36,0 0,-36 "/>
<path d="M 324,72 l 36,0 0,36 -36,0 0,-36 "/>
<path d="M 342,90 l 36,0 0,36 -36,0 0,-36 "/>
<path d="M 0,108 l 36,0 0,36 -36,0 0,-36 "/>
<path d="M 18,126 l 36,0 0,36 -36,0 0,-36 "/>
<path d="M 36,108 l 36,0 0,36 -36,0 0,-36 "/>
<path d="M 54,126 l 36,0 0,36 -36,0 0,-36 "/>
<path d="M 72,108 l 36,0 0,36 -36,0 0,-36 "/>
<path d="M 90,126 l 36,0 0,36 -36,0 0,-36 "/>
<path d="M 108,108 l 36,0 0,36 -36,0 0,-36 "/>
<path d="M 126,126 l 36,0 0,36 -36,0 0,-36 "/>
<path d="M 144,108 l 36,0 0,36 -36,0 0,-36 "/>
<path d="M 162,126 l 36,0 0,36 -36,0 0,-36 "/>
<path d="M 180,108 l 36,0 0,36 -36,0 0,-36 "/>
<path d="M 198,126 l 36,0 0,36 -36,0 0,-36 "/>
<path d="M 216,108 l 36,0 0,36 -36,0 0,-36 "/>
<path d="M 234,126 l 36,0 0,36 -36,0 0,-36 "/>
<path d="M 252,108 l 36,0 0,36 -36,0 0,-36 "/>
<path d="M 270,126 l 36,0 0,36 -36,0 0,-36 "/>
<path d="M 288,108 l 36,0 0,36 -36,0 0,-36 "/>
<path d="M 306,126 l 36,0 0,36 -36,0 0,-36 "/>
<path d="M 324,108 l 36,0 0,36 -36,0 0,-36 "/>
<path d="M 342,126 l 36,0 0,36 -36,0 0,-36 "/>
<path d="M 0,144 l 36,0 0,36 -36,0 0,-36 "/>
<path d="M 18,162 l 36,0 0,36 -36,0 0,-36 "/>
<path d="M 36,144 l 36,0 0,36 -36,0 0,-36 "/>
<path d="M 54,162 l 36,0 0,36 -36,0 0,-36 "/>
<path d="M 72,144 l 36,0 0,36 -36,0 0,-36 "/>
<path d="M 90,162 l 36,0 0,36 -36,0 0,-36 "/>
<path d="M 108,144 l 36,0 0,36 -36,0 0,-36 "/>
<path d="M 126,162 l 36,0 0,36 -36,0 0,-36 "/>
<path d="M 144,144 l 36,0 0,36 -36,0 0,-36 "/>
<path d="M 162,162 l 36,0 0,36 -36,0 0,-36 "/>
<path d="M 180,144 l 36,0 0,36 -36,0 0,-36 "/>
<path d="M 198,162 l 36,0 0,36 -36,0 0,-36 "/>
<path d="M 216,144 l 36,0 0,36 -36,0 0,-36 "/>
<path d="M 234,162 l 36,0 0,36 -36,0 0,-36 "/>
<path d="M 252,144 l 36,0 0,36 -36,0 0,-36 "/>
<path d="M 270,162 l 36,0 0,36 -36,0 0,-36 "/>
<path d="M 288,144 l 36,0 0,36 -36,0 0,-36 "/>
<path d="M 306,162 l 36,0 0,36 -36,0 0,-36 "/>
<path d="M 324,144 l 36,0 0,36 -36,0 0,-36 "/>
<path d="M 342,162 l 36,0 0,36 -36,0 0,-36 "/>
<path d="M 0,180 l 36,0 0,36 -36,0 0,-36 "/>
<path d="M 18,198 l 36,0 0,36 -36,0 0,-36 "/>
<path d="M 36,180 l 36,0 0,36 -36,0 0,-36 "/>
<path d="M 54,198 l 36,0 0,36 -36,0 0,-36 "/>
<path d="M 72,180 l 36,0 0,36 -36,0 0,-36 "/>
<path d="M 90,198 l 36,0 0,36 -36,0 0,-36 "/>
<path d="M 108,180 l 36,0 0,36 -36,0 0,-36 "/>
<path d="M 126,198 l 36,0 0,36 -36,0 0,-36 "/>
<path d="M 144,180 l 36,0 0,36 -36,0 0,-36 "/>
<path d="M 162,198 l 36,0 0,36 -36,0 0,-36 "/>
<path d="M 180,180 l 36,0 0,36 -36,0 0,-36 "/>
<path d="M 198,198 l 36,0 0,36 -36,0 0,-36 "/>
<path d="M 216,180 l 36,0 0,36 -36,0 0,-36 "/>
<path d="M 234,198 l 36,0 0,36 -36,0 0,-36 "/>
<path d="M 252,180 l 36,0 0,36 -36,0 0,-36 "/>
<path d="M 270,198 l 36,0 0,36 -36,0 0,-36 "/>
<path d="M 288,180 l 36,0 0,36 -36,0 0,-36 "/>
<path d="M 306,198 l 36,0 0,36 -36,0 0,-36 "/>
<path d="M 324,180 l 36,0 0,36 -36,0 0,-36 "/>
<path d="M 342,198 l 36,0 0,36 -36,0 0,-36 "/>
<path d="M 0,216 l 36,0 0,36 -36,0 0,-36 "/>
<path d="M 18,234 l 36,0 0,36 -36,0 0,-36 "/>
<path d="M 36,216 l 36,0 0,36 -36,0 0,-36 "/>
<path d="M 54,234 l 36,0 0,36 -36,0 0,-36 "/>
<path d="M 72,216 l 36,0 0,36 -36,0 0,-36 "/>
<path d="M 90,234 l 36,0 0,36 -36,0 0,-36 "/>
<path d="M 108,216 l 36,0 0,36 -36,0 0,-36 "/>
<path d="M 126,234 l 36,0 0,36 -36,0 0,-36 "/>
<path d="M 144,216 l 36,0 0,36 -36,0 0,-36 "/>
<path d="M 162,234 l 36,0 0,36 -36,0 0,-36 "/>
<path d="M 180,216 l 36,0 0,36 -36,0 0,-36 "/>
<path d="M 198,234 l 36,0 0,36 -36,0 0,-36 "/>
<path d="M 216,216 l 36,0 0,36 -36,0 0,-36 "/>
<path d="M 234,234 l 36,0 0,36 -36,0 0,-36 "/>
<path d="M 252,216 l 36,0 0,36 -36,0 0,-36 "/>
<path d="M 270,234 l 36,0 0,36 -36,0 0,-36 "/>
<path d="M 288,216 l 36,0 0,36 -36,0 0,-36 "/>
<path d="M 306,234 l 36,0 0,36 -36,0 0,-36 "/>
<path d="M 324,216 l 36,0 0,36 -36,0 0,-36 "/>
<path d="M 342,234 l 36,0 0,36 -36,0 0,-36 "/>
<path d="M 0,252 l 36,0 0,36 -36,0 0,-36 "/>
<path d="M 18,270 l 36,0 0,36 -36,0 0,-36 "/>
<path d="M 36,252 l 36,0 0,36 -36,0 0,-36 "/>
<path d="M 54,270 l 36,0 0,36 -36,0 0,-36 "/>
<path d="M 72,252 l 36,0 0,36 -36,0 0,-36 "/>
<path d="M 90,270 l 36,0 0,36 -36,0 0,-36 "/>
<path d="M 108,252 l 36,0 0,36 -36,0 0,-36 "/>
<path d="M 126,270 l 36,0 0,36 -36,0 0,-36 "/>
<path d="M 144,252 l 36,0 0,36 -36,0 0,-36 "/>
<path d="M 162,270 l 36,0 0,36 -36,0 0,-36 "/>
<path d="M 180,252 l 36,0 0,36 -36,0 0,-36 "/>
<path d="M 198,270 l 36,0 0,36 -36,0 0,-36 "/>
<path d="M 216,252 l 36,0 0,36 -36,0 0,-36 "/>
<path d="M 234,270 l 36,0 0,36 -36,0 0,-36 "/>
<path d="M 252,252 l 36,0 0,36 -36,0 0,-36 "/>
<path d="M 270,270 l 36,0 0,36 -36,0 0,-36 "/>
<path d="M 288,252 l 36,0 0,36 -36,0 0,-36 "/>
<path d="M 306,270 l 36,0 0,36 -36,0 0,-36 "/>
<path d="M 324,252 l 36,0 0,36 -36,0 0,-36 "/>
<path d="M 342,270 l 36,0 0,36 -36,0 0,-36 "/>
<path d="M 0,288 l 36,0 0,36 -36,0 0,-36 "/>
<path d="M 18,306 l 36,0 0,36 -36,0 0,-36 "/>
<path d="M 36,288 l 36,0 0,36 -36,0 0,-36 "/>
<path d="M 54,306 l 36,0 0,36 -36,0 0,-36 "/>
<path d="M 72,288 l 36,0 0,36 -36,0 0,-36 "/>
<path d="M 90,306 l 36,0 0,36 -36,0 0,-36 "/>
<path d="M 108,288 l 36,0 0,36 -36,0 0,-36 "/>
<path d="M 126,306 l 36,0 0,36 -36,0 0,-36 "/>
<path d="M 144,288 l 36,0 0,36 -36,0 0,-36 "/>
<path d="M 162,306 l 36,0 0,36 -36,0 0,-36 "/>
<path d="M 180,288 l 36,0 0,36 -36,0 0,-36 "/>
<path d="M 198,306 l 36,0 0,36 -36,0 0,-36 "/>
<path d="M 216,288 l 36,0 0,36 -36,0 0,-36 "/>
<path d="M 234,306 l 36,0 0,36 -36,0 0,-36 "/>
<path d="M 252,288 l 36,0 0,36 -36,0 0,-36 "/>
<path d="M 270,306 l 36,0 0,36 -36,0 0,-36 "/>
<path d="M 288,288 l 36,0 0,36 -36,0 0,-36 "/>
<path d="M 306,306 l 36,0 0,36 -36,0 0,-36 "/>
<path d="M 324,288 l 36,0 0,36 -36,0 0,-36 "/>
<path d="M 342,306 l 36,0 0,36 -36,0 0,-36 "/>
<path d="M 0,324 l 36,0 0,36 -36,0 0,-36 "/>
<path d="M 18,342 l 36,0 0,36 -36,0 0,-36 "/>
<path d="M 36,324 l 36,0 0,36 -36,0 0,-36 "/>
<path d="M 54,342 l 36,0 0,36 -36,0 0,-36 "/>
<path d="M 72,324 l 36,0 0,36 -36,0 0,-36 "/>
<path d="M 90,342 l 36,0 0,36 -36,0 0,-36 "/>
<path d="M 108,324 l 36,0 0,36 -36,0 0,-36 "/>
<path d="M 126,342 l 36,0 0,36 -36,0 0,-36 "/>
<path d="M 144,324 l 36,0 0,36 -36,0 0,-36 "/>
<path d="M 162,342 l 36,0 0,36 -36,0 0,-36 "/>
<path d="M 180,324 l 36,0 0,36 -36,0 0,-36 "/>
<path d="M 198,342 l 36,0 0,36 -36,0 0,-36 "/>
<path d="M 216,324 l 36,0 0,36 -36,0 0,-36 "/>
<path d="M 234,342 l 36,0 0,36 -36,0 0,-36 "/>
<path d="M 252,324 l 36,0 0,36 -36,0 0,-36 "/>
<path d="M 270,342 l 36,0 0,36 -36,0 0,-36 "/>
<path d="M 288,324 l 36,0 0,36 -36,0 0,-36 "/>
<path d="M 306,342 l 36,0 0,36 -36,0 0,-36 "/>
<path d="M 324,324 l 36,0 0,36 -36,0 0,-36 "/>
<path d="M 342,342 l 36,0 0,36 -36,0 0,-36 "/>
</g></g></svg>