<?xml version="1.0" encoding="UTF-8" standalone="no"?>
<!DOCTYPE svg PUBLIC "-//W3C//DTD SVG 1.1//EN" "http://www.w3.org/Graphics/SVG/1.1/DTD/svg11-flat.dtd"
[
<!ATTLIST g xmlns:fme CDATA #FIXED "http://www.safe.com/fme" >
<!ATTLIST path fme:_creation_instance CDATA #IMPLIED fme:i CDATA #IMPLIED >
<!ATTLIST ellipse fme:_creation_instance CDATA #IMPLIED fme:i CDATA #IMPLIED >
<!ATTLIST text fme:_creation_instance CDATA #IMPLIED fme:i CDATA #IMPLIED >
<!ATTLIST use fme:_creation_instance CDATA #IMPLIED fme:i CDATA #IMPLIED >
]>
<svg xmlns="http://www.w3.org/2000/svg"  viewBox="-7.14471 -7.14471 585.866 481.61"><g xmlns:fme="http://www.safe.com/fme" fill="none" stroke="black" stroke-width="0.071447095812216" transform="translate(0,467.321) scale(1, -1)">
<g id="test" >
<path d="M 77.9423,62.3205 m -0.357235,-0.357235 l 0,0.714471 0.714471,0 0,-0.714471 z "/>
<path d="M 51.9615,17.3205 m -0.357235,-0.357235 l 0,0.714471 0.714471,0 0,-0.714471 z "/>
<path d="M 25.9808,62.3205 m -0.357235,-0.357235 l 0,0.714471 0.714471,0 0,-0.714471 z "/>
<path d="M 103.923,45 m -0.357235,-0.357235 l 0,0.714471 0.714471,0 0,-0.714471 z "/>
<path d="M 77.9423,0 m -0.357235,-0.357235 l 0,0.714471 0.714471,0 0,-0.714471 z "/>
<path d="M 51.9615,45 m -0.357235,-0.357235 l 0,0.714471 0.714471,0 0,-0.714471 z "/>
<path d="M 129.904,62.3205 m -0.357235,-0.357235 l 0,0.714471 0.714471,0 0,-0.714471 z "/>
<path d="M 103.923,17.3205 m -0.357235,-0.357235 l 0,0.714471 0.714471,0 0,-0.714471 z "/>
<path d="M 77.9423,62.3205 m -0.357235,-0.357235 l 0,0.714471 0.714471,0 0,-0.714471 z "/>
<path d="M 155.885,45 m -0.357235,-0.357235 l 0,0.714471 0.714471,0 0,-0.714471 z "/>
<path d="M 129.904,0 m -0.357235,-0.357235 l 0,0.714471 0.714471,0 0,-0.714471 z "/>
<path d="M 103.923,45 m -0.357235,-0.357235 l 0,0.714471 0.714471,0 0,-0.714471 z "/>
<path d="M 181.865,62.3205 m -0.357235,-0.357235 l 0,0.714471 0.714471,0 0,-0.714471 z "/>
<path d="M 155.885,17.3205 m -0.357235,-0.357235 l 0,0.714471 0.714471,0 0,-0.714471 z "/>
<path d="M 129.904,62.3205 m -0.357235,-0.357235 l 0,0.714471 0.714471,0 0,-0.714471 z "/>
<path d="M 207.846,45 m -0.357235,-0.357235 l 0,0.714471 0.714471,0 0,-0.714471 z "/>
<path d="M 181.865,0 m -0.357235,-0.357235 l 0,0.714471 0.714471,0 0,-0.714471 z "/>
<path d="M 155.885,45 m -0.357235,-0.357235 l 0,0.714471 0.714471,0 0,-0.714471 z "/>
<path d="M 233.827,62.3205 m -0.357235,-0.357235 l 0,0.714471 0.714471,0 0,-0.714471 z "/>
<path d="M 207.846,17.3205 m -0.357235,-0.357235 l 0,0.714471 0.714471,0 0,-0.714471 z "/>
<path d="M 181.865,62.3205 m -0.357235,-0.357235 l 0,0.714471 0.714471,0 0,-0.714471 z "/>
<path d="M 259.808,45 m -0.357235,-0.357235 l 0,0.714471 0.714471,0 0,-0.714471 z "/>
<path d="M 233.827,0 m -0.357235,-0.357235 l 0,0.714471 0.714471,0 0,-0.714471 z "/>
<path d="M 207.846,45 m -0.357235,-0.357235 l 0,0.714471 0.714471,0 0,-0.714471 z "/>
<path d="M 285.788,62.3205 m -0.357235,-0.357235 l 0,0.714471 0.714471,0 0,-0.714471 z "/>
<path d="M 259.808,17.3205 m -0.357235,-0.357235 l 0,0.714471 0.714471,0 0,-0.714471 z "/>
<path d="M 233.827,62.3205 m -0.357235,-0.357235 l 0,0.714471 0.714471,0 0,-0.714471 z "/>
<path d="M 311.769,45 m -0.357235,-0.357235 l 0,0.714471 0.714471,0 0,-0.714471 z "/>
<path d="M 285.788,0 m -0.357235,-0.357235 l 0,0.714471 0.714471,0 0,-0.714471 z "/>
<path d="M 259.808,45 m -0.357235,-0.357235 l 0,0.714471 0.714471,0 0,-0.714471 z "/>
<path d="M 337.75,62.3205 m -0.357235,-0.357235 l 0,0.714471 0.714471,0 0,-0.714471 z "/>
<path d="M 311.769,17.3205 m -0.357235,-0.357235 l 0,0.714471 0.714471,0 0,-0.714471 z "/>
<path d="M 285.788,62.3205 m -0.357235,-0.357235 l 0,0.714471 0.714471,0 0,-0.714471 z "/>
<path d="M 363.731,45 m -0.357235,-0.357235 l 0,0.714471 0.714471,0 0,-0.714471 z "/>
<path d="M 337.75,0 m -0.357235,-0.357235 l 0,0.714471 0.714471,0 0,-0.714471 z "/>
<path d="M 311.769,45 m -0.357235,-0.357235 l 0,0.714471 0.714471,0 0,-0.714471 z "/>
<path d="M 389.711,62.3205 m -0.357235,-0.357235 l 0,0.714471 0.714471,0 0,-0.714471 z "/>
<path d="M 363.731,17.3205 m -0.357235,-0.357235 l 0,0.714471 0.714471,0 0,-0.714471 z "/>
<path d="M 337.75,62.3205 m -0.357235,-0.357235 l 0,0.714471 0.714471,0 0,-0.714471 z "/>
<path d="M 415.692,45 m -0.357235,-0.357235 l 0,0.714471 0.714471,0 0,-0.714471 z "/>
<path d="M 389.711,0 m -0.357235,-0.357235 l 0,0.714471 0.714471,0 0,-0.714471 z "/>
<path d="M 363.731,45 m -0.357235,-0.357235 l 0,0.714471 0.714471,0 0,-0.714471 z "/>
<path d="M 441.673,62.3205 m -0.357235,-0.357235 l 0,0.714471 0.714471,0 0,-0.714471 z "/>
<path d="M 415.692,17.3205 m -0.357235,-0.357235 l 0,0.714471 0.714471,0 0,-0.714471 z "/>
<path d="M 389.711,62.3205 m -0.357235,-0.357235 l 0,0.714471 0.714471,0 0,-0.714471 z "/>
<path d="M 467.654,45 m -0.357235,-0.357235 l 0,0.714471 0.714471,0 0,-0.714471 z "/>
<path d="M 441.673,0 m -0.357235,-0.357235 l 0,0.714471 0.714471,0 0,-0.714471 z "/>
<path d="M 415.692,45 m -0.357235,-0.357235 l 0,0.714471 0.714471,0 0,-0.714471 z "/>
<path d="M 493.634,62.3205 m -0.357235,-0.357235 l 0,0.714471 0.714471,0 0,-0.714471 z "/>
<path d="M 467.654,17.3205 m -0.357235,-0.357235 l 0,0.714471 0.714471,0 0,-0.714471 z "/>
<path d="M 441.673,62.3205 m -0.357235,-0.357235 l 0,0.714471 0.714471,0 0,-0.714471 z "/>
<path d="M 519.615,45 m -0.357235,-0.357235 l 0,0.714471 0.714471,0 0,-0.714471 z "/>
<path d="M 493.634,0 m -0.357235,-0.357235 l 0,0.714471 0.714471,0 0,-0.714471 z "/>
<path d="M 467.654,45 m -0.357235,-0.357235 l 0,0.714471 0.714471,0 0,-0.714471 z "/>
<path d="M 545.596,62.3205 m -0.357235,-0.357235 l 0,0.714471 0.714471,0 0,-0.714471 z "/>
<path d="M 519.615,17.3205 m -0.357235,-0.357235 l 0,0.714471 0.714471,0 0,-0.714471 z "/>
<path d="M 493.634,62.3205 m -0.357235,-0.357235 l 0,0.714471 0.714471,0 0,-0.714471 z "/>
<path d="M 571.577,45 m -0.357235,-0.357235 l 0,0.714471 0.714471,0 0,-0.714471 z "/>
<path d="M 545.596,0 m -0.357235,-0.357235 l 0,0.714471 0.714471,0 0,-0.714471 z "/>
<path d="M 519.615,45 m -0.357235,-0.357235 l 0,0.714471 0.714471,0 0,-0.714471 z "/>
<path d="M 51.9615,107.321 m -0.357235,-0.357235 l 0,0.714471 0.714471,0 0,-0.714471 z "/>
<path d="M 25.9808,62.3205 m -0.357235,-0.357235 l 0,0.714471 0.714471,0 0,-0.714471 z "/>
<path d="M 0,107.321 m -0.357235,-0.357235 l 0,0.714471 0.714471,0 0,-0.714471 z "/>
<path d="M 77.9423,90 m -0.357235,-0.357235 l 0,0.714471 0.714471,0 0,-0.714471 z "/>
<path d="M 51.9615,45 m -0.357235,-0.357235 l 0,0.714471 0.714471,0 0,-0.714471 z "/>
<path d="M 25.9808,90 m -0.357235,-0.357235 l 0,0.714471 0.714471,0 0,-0.714471 z "/>
<path d="M 103.923,107.321 m -0.357235,-0.357235 l 0,0.714471 0.714471,0 0,-0.714471 z "/>
<path d="M 77.9423,62.3205 m -0.357235,-0.357235 l 0,0.714471 0.714471,0 0,-0.714471 z "/>
<path d="M 51.9615,107.321 m -0.357235,-0.357235 l 0,0.714471 0.714471,0 0,-0.714471 z "/>
<path d="M 129.904,90 m -0.357235,-0.357235 l 0,0.714471 0.714471,0 0,-0.714471 z "/>
<path d="M 103.923,45 m -0.357235,-0.357235 l 0,0.714471 0.714471,0 0,-0.714471 z "/>
<path d="M 77.9423,90 m -0.357235,-0.357235 l 0,0.714471 0.714471,0 0,-0.714471 z "/>
<path d="M 155.885,107.321 m -0.357235,-0.357235 l 0,0.714471 0.714471,0 0,-0.714471 z "/>
<path d="M 129.904,62.3205 m -0.357235,-0.357235 l 0,0.714471 0.714471,0 0,-0.714471 z "/>
<path d="M 103.923,107.321 m -0.357235,-0.357235 l 0,0.714471 0.714471,0 0,-0.714471 z "/>
<path d="M 181.865,90 m -0.357235,-0.357235 l 0,0.714471 0.714471,0 0,-0.714471 z "/>
<path d="M 155.885,45 m -0.357235,-0.357235 l 0,0.714471 0.714471,0 0,-0.714471 z "/>
<path d="M 129.904,90 m -0.357235,-0.357235 l 0,0.714471 0.714471,0 0,-0.714471 z "/>
<path d="M 207.846,107.321 m -0.357235,-0.357235 l 0,0.714471 0.714471,0 0,-0.714471 z "/>
<path d="M 181.865,62.3205 m -0.357235,-0.357235 l 0,0.714471 0.714471,0 0,-0.714471 z "/>
<path d="M 155.885,107.321 m -0.357235,-0.357235 l 0,0.714471 0.714471,0 0,-0.714471 z "/>
<path d="M 233.827,90 m -0.357235,-0.357235 l 0,0.714471 0.714471,0 0,-0.714471 z "/>
<path d="M 207.846,45 m -0.357235,-0.357235 l 0,0.714471 0.714471,0 0,-0.714471 z "/>
<path d="M 181.865,90 m -0.357235,-0.357235 l 0,0.714471 0.714471,0 0,-0.714471 z "/>
<path d="M 259.808,107.321 m -0.357235,-0.357235 l 0,0.714471 0.714471,0 0,-0.714471 z "/>
<path d="M 233.827,62.3205 m -0.357235,-0.357235 l 0,0.714471 0.714471,0 0,-0.714471 z "/>
<path d="M 207.846,107.321 m -0.357235,-0.357235 l 0,0.714471 0.714471,0 0,-0.714471 z "/>
<path d="M 285.788,90 m -0.357235,-0.357235 l 0,0.714471 0.714471,0 0,-0.714471 z "/>
<path d="M 259.808,45 m -0.357235,-0.357235 l 0,0.714471 0.714471,0 0,-0.714471 z "/>
<path d="M 233.827,90 m -0.357235,-0.357235 l 0,0.714471 0.714471,0 0,-0.714471 z "/>
<path d="M 311.769,107.321 m -0.357235,-0.357235 l 0,0.714471 0.714471,0 0,-0.714471 z "/>
<path d="M 285.788,62.3205 m -0.357235,-0.357235 l 0,0.714471 0.714471,0 0,-0.714471 z "/>
<path d="M 259.808,107.321 m -0.357235,-0.357235 l 0,0.714471 0.714471,0 0,-0.714471 z "/>
<path d="M 337.75,90 m -0.357235,-0.357235 l 0,0.714471 0.714471,0 0,-0.714471 z "/>
<path d="M 311.769,45 m -0.357235,-0.357235 l 0,0.714471 0.714471,0 0,-0.714471 z "/>
<path d="M 285.788,90 m -0.357235,-0.357235 l 0,0.714471 0.714471,0 0,-0.714471 z "/>
<path d="M 363.731,107.321 m -0.357235,-0.357235 l 0,0.714471 0.714471,0 0,-0.714471 z "/>
<path d="M 337.75,62.3205 m -0.357235,-0.357235 l 0,0.714471 0.714471,0 0,-0.714471 z "/>
<path d="M 311.769,107.321 m -0.357235,-0.357235 l 0,0.714471 0.714471,0 0,-0.714471 z "/>
<path d="M 389.711,90 m -0.357235,-0.357235 l 0,0.714471 0.714471,0 0,-0.714471 z "/>
<path d="M 363.731,45 m -0.357235,-0.357235 l 0,0.714471 0.714471,0 0,-0.714471 z "/>
<path d="M 337.75,90 m -0.357235,-0.357235 l 0,0.714471 0.714471,0 0,-0.714471 z "/>
<path d="M 415.692,107.321 m -0.357235,-0.357235 l 0,0.714471 0.714471,0 0,-0.714471 z "/>
<path d="M 389.711,62.3205 m -0.357235,-0.357235 l 0,0.714471 0.714471,0 0,-0.714471 z "/>
<path d="M 363.731,107.321 m -0.357235,-0.357235 l 0,0.714471 0.714471,0 0,-0.714471 z "/>
<path d="M 441.673,90 m -0.357235,-0.357235 l 0,0.714471 0.714471,0 0,-0.714471 z "/>
<path d="M 415.692,45 m -0.357235,-0.357235 l 0,0.714471 0.714471,0 0,-0.714471 z "/>
<path d="M 389.711,90 m -0.357235,-0.357235 l 0,0.714471 0.714471,0 0,-0.714471 z "/>
<path d="M 467.654,107.321 m -0.357235,-0.357235 l 0,0.714471 0.714471,0 0,-0.714471 z "/>
<path d="M 441.673,62.3205 m -0.357235,-0.357235 l 0,0.714471 0.714471,0 0,-0.714471 z "/>
<path d="M 415.692,107.321 m -0.357235,-0.357235 l 0,0.714471 0.714471,0 0,-0.714471 z "/>
<path d="M 493.634,90 m -0.357235,-0.357235 l 0,0.714471 0.714471,0 0,-0.714471 z "/>
<path d="M 467.654,45 m -0.357235,-0.357235 l 0,0.714471 0.714471,0 0,-0.714471 z "/>
<path d="M 441.673,90 m -0.357235,-0.357235 l 0,0.714471 0.714471,0 0,-0.714471 z "/>
<path d="M 519.615,107.321 m -0.357235,-0.357235 l 0,0.714471 0.714471,0 0,-0.714471 z "/>
<path d="M 493.634,62.3205 m -0.357235,-0.357235 l 0,0.714471 0.714471,0 0,-0.714471 z "/>
<path d="M 467.654,107.321 m -0.357235,-0.357235 l 0,0.714471 0.714471,0 0,-0.714471 z "/>
<path d="M 545.596,90 m -0.357235,-0.357235 l 0,0.714471 0.714471,0 0,-0.714471 z "/>
<path d="M 519.615,45 m -0.357235,-0.357235 l 0,0.714471 0.714471,0 0,-0.714471 z "/>
<path d="M 493.634,90 m -0.357235,-0.357235 l 0,0.714471 0.714471,0 0,-0.714471 z "/>
<path d="M 77.9423,152.321 m -0.357235,-0.357235 l 0,0.714471 0.714471,0 0,-0.714471 z "/>
<path d="M 51.9615,107.321 m -0.357235,-0.357235 l 0,0.714471 0.714471,0 0,-0.714471 z "/>
<path d="M 25.9808,152.321 m -0.357235,-0.357235 l 0,0.714471 0.714471,0 0,-0.714471 z "/>
<path d="M 103.923,135 m -0.357235,-0.357235 l 0,0.714471 0.714471,0 0,-0.714471 z "/>
<path d="M 77.9423,90 m -0.357235,-0.357235 l 0,0.714471 0.714471,0 0,-0.714471 z "/>
<path d="M 51.9615,135 m -0.357235,-0.357235 l 0,0.714471 0.714471,0 0,-0.714471 z "/>
<path d="M 129.904,152.321 m -0.357235,-0.357235 l 0,0.714471 0.714471,0 0,-0.714471 z "/>
<path d="M 103.923,107.321 m -0.357235,-0.357235 l 0,0.714471 0.714471,0 0,-0.714471 z "/>
<path d="M 77.9423,152.321 m -0.357235,-0.357235 l 0,0.714471 0.714471,0 0,-0.714471 z "/>
<path d="M 155.885,135 m -0.357235,-0.357235 l 0,0.714471 0.714471,0 0,-0.714471 z "/>
<path d="M 129.904,90 m -0.357235,-0.357235 l 0,0.714471 0.714471,0 0,-0.714471 z "/>
<path d="M 103.923,135 m -0.357235,-0.357235 l 0,0.714471 0.714471,0 0,-0.714471 z "/>
<path d="M 181.865,152.321 m -0.357235,-0.357235 l 0,0.714471 0.714471,0 0,-0.714471 z "/>
<path d="M 155.885,107.321 m -0.357235,-0.357235 l 0,0.714471 0.714471,0 0,-0.714471 z "/>
<path d="M 129.904,152.321 m -0.357235,-0.357235 l 0,0.714471 0.714471,0 0,-0.714471 z "/>
<path d="M 207.846,135 m -0.357235,-0.357235 l 0,0.714471 0.714471,0 0,-0.714471 z "/>
<path d="M 181.865,90 m -0.357235,-0.357235 l 0,0.714471 0.714471,0 0,-0.714471 z "/>
<path d="M 155.885,135 m -0.357235,-0.357235 l 0,0.714471 0.714471,0 0,-0.714471 z "/>
<path d="M 233.827,152.321 m -0.357235,-0.357235 l 0,0.714471 0.714471,0 0,-0.714471 z "/>
<path d="M 207.846,107.321 m -0.357235,-0.357235 l 0,0.714471 0.714471,0 0,-0.714471 z "/>
<path d="M 181.865,152.321 m -0.357235,-0.357235 l 0,0.714471 0.714471,0 0,-0.714471 z "/>
<path d="M 259.808,135 m -0.357235,-0.357235 l 0,0.714471 0.714471,0 0,-0.714471 z "/>
<path d="M 233.827,90 m -0.357235,-0.357235 l 0,0.714471 0.714471,0 0,-0.714471 z "/>
<path d="M 207.846,135 m -0.357235,-0.357235 l 0,0.714471 0.714471,0 0,-0.714471 z "/>
<path d="M 285.788,152.321 m -0.357235,-0.357235 l 0,0.714471 0.714471,0 0,-0.714471 z "/>
<path d="M 259.808,107.321 m -0.357235,-0.357235 l 0,0.714471 0.714471,0 0,-0.714471 z "/>
<path d="M 233.827,152.321 m -0.357235,-0.357235 l 0,0.714471 0.714471,0 0,-0.714471 z "/>
<path d="M 311.769,135 m -0.357235,-0.357235 l 0,0.714471 0.714471,0 0,-0.714471 z "/>
<path d="M 285.788,90 m -0.357235,-0.357235 l 0,0.714471 0.714471,0 0,-0.714471 z "/>
<path d="M 259.808,135 m -0.357235,-0.357235 l 0,0.714471 0.714471,0 0,-0.714471 z "/>
<path d="M 337.75,152.321 m -0.357235,-0.357235 l 0,0.714471 0.714471,0 0,-0.714471 z "/>
<path d="M 311.769,107.321 m -0.357235,-0.357235 l 0,0.714471 0.714471,0 0,-0.714471 z "/>
<path d="M 285.788,152.321 m -0.357235,-0.357235 l 0,0.714471 0.714471,0 0,-0.714471 z "/>
<path d="M 363.731,135 m -0.357235,-0.357235 l 0,0.714471 0.714471,0 0,-0.714471 z "/>
<path d="M 337.75,90 m -0.357235,-0.357235 l 0,0.714471 0.714471,0 0,-0.714471 z "/>
<path d="M 311.769,135 m -0.357235,-0.357235 l 0,0.714471 0.714471,0 0,-0.714471 z "/>
<path d="M 389.711,152.321 m -0.357235,-0.357235 l 0,0.714471 0.714471,0 0,-0.714471 z "/>
<path d="M 363.731,107.321 m -0.357235,-0.357235 l 0,0.714471 0.714471,0 0,-0.714471 z "/>
<path d="M 337.75,152.321 m -0.357235,-0.357235 l 0,0.714471 0.714471,0 0,-0.714471 z "/>
<path d="M 415.692,135 m -0.357235,-0.357235 l 0,0.714471 0.714471,0 0,-0.714471 z "/>
<path d="M 389.711,90 m -0.357235,-0.357235 l 0,0.714471 0.714471,0 0,-0.714471 z "/>
<path d="M 363.731,135 m -0.357235,-0.357235 l 0,0.714471 0.714471,0 0,-0.714471 z "/>
<path d="M 441.673,152.321 m -0.357235,-0.357235 l 0,0.714471 0.714471,0 0,-0.714471 z "/>
<path d="M 415.692,107.321 m -0.357235,-0.357235 l 0,0.714471 0.714471,0 0,-0.714471 z "/>
<path d="M 389.711,152.321 m -0.357235,-0.357235 l 0,0.714471 0.714471,0 0,-0.714471 z "/>
<path d="M 467.654,135 m -0.357235,-0.357235 l 0,0.714471 0.714471,0 0,-0.714471 z "/>
<path d="M 441.673,90 m -0.357235,-0.357235 l 0,0.714471 0.714471,0 0,-0.714471 z "/>
<path d="M 415.692,135 m -0.357235,-0.357235 l 0,0.714471 0.714471,0 0,-0.714471 z "/>
<path d="M 493.634,152.321 m -0.357235,-0.357235 l 0,0.714471 0.714471,0 0,-0.714471 z "/>
<path d="M 467.654,107.321 m -0.357235,-0.357235 l 0,0.714471 0.714471,0 0,-0.714471 z "/>
<path d="M 441.673,152.321 m -0.357235,-0.357235 l 0,0.714471 0.714471,0 0,-0.714471 z "/>
<path d="M 519.615,135 m -0.357235,-0.357235 l 0,0.714471 0.714471,0 0,-0.714471 z "/>
<path d="M 493.634,90 m -0.357235,-0.357235 l 0,0.714471 0.714471,0 0,-0.714471 z "/>
<path d="M 467.654,135 m -0.357235,-0.357235 l 0,0.714471 0.714471,0 0,-0.714471 z "/>
<path d="M 545.596,152.321 m -0.357235,-0.357235 l 0,0.714471 0.714471,0 0,-0.714471 z "/>
<path d="M 519.615,107.321 m -0.357235,-0.357235 l 0,0.714471 0.714471,0 0,-0.714471 z "/>
<path d="M 493.634,152.321 m -0.357235,-0.357235 l 0,0.714471 0.714471,0 0,-0.714471 z "/>
<path d="M 571.577,135 m -0.357235,-0.357235 l 0,0.714471 0.714471,0 0,-0.714471 z "/>
<path d="M 545.596,90 m -0.357235,-0.357235 l 0,0.714471 0.714471,0 0,-0.714471 z "/>
<path d="M 519.615,135 m -0.357235,-0.357235 l 0,0.714471 0.714471,0 0,-0.714471 z "/>
<path d="M 51.9615,197.321 m -0.357235,-0.357235 l 0,0.714471 0.714471,0 0,-0.714471 z "/>
<path d="M 25.9808,152.321 m -0.357235,-0.357235 l 0,0.714471 0.714471,0 0,-0.714471 z "/>
<path d="M 0,197.321 m -0.357235,-0.357235 l 0,0.714471 0.714471,0 0,-0.714471 z "/>
<path d="M 77.9423,180 m -0.357235,-0.357235 l 0,0.714471 0.714471,0 0,-0.714471 z "/>
<path d="M 51.9615,135 m -0.357235,-0.357235 l 0,0.714471 0.714471,0 0,-0.714471 z "/>
<path d="M 25.9808,180 m -0.357235,-0.357235 l 0,0.714471 0.714471,0 0,-0.714471 z "/>
<path d="M 103.923,197.321 m -0.357235,-0.357235 l 0,0.714471 0.714471,0 0,-0.714471 z "/>
<path d="M 77.9423,152.321 m -0.357235,-0.357235 l 0,0.714471 0.714471,0 0,-0.714471 z "/>
<path d="M 51.9615,197.321 m -0.357235,-0.357235 l 0,0.714471 0.714471,0 0,-0.714471 z "/>
<path d="M 129.904,180 m -0.357235,-0.357235 l 0,0.714471 0.714471,0 0,-0.714471 z "/>
<path d="M 103.923,135 m -0.357235,-0.357235 l 0,0.714471 0.714471,0 0,-0.714471 z "/>
<path d="M 77.9423,180 m -0.357235,-0.357235 l 0,0.714471 0.714471,0 0,-0.714471 z "/>
<path d="M 155.885,197.321 m -0.357235,-0.357235 l 0,0.714471 0.714471,0 0,-0.714471 z "/>
<path d="M 129.904,152.321 m -0.357235,-0.357235 l 0,0.714471 0.714471,0 0,-0.714471 z "/>
<path d="M 103.923,197.321 m -0.357235,-0.357235 l 0,0.714471 0.714471,0 0,-0.714471 z "/>
<path d="M 181.865,180 m -0.357235,-0.357235 l 0,0.714471 0.714471,0 0,-0.714471 z "/>
<path d="M 155.885,135 m -0.357235,-0.357235 l 0,0.714471 0.714471,0 0,-0.714471 z "/>
<path d="M 129.904,180 m -0.357235,-0.357235 l 0,0.714471 0.714471,0 0,-0.714471 z "/>
<path d="M 207.846,197.321 m -0.357235,-0.357235 l 0,0.714471 0.714471,0 0,-0.714471 z "/>
<path d="M 181.865,152.321 m -0.357235,-0.357235 l 0,0.714471 0.714471,0 0,-0.714471 z "/>
<path d="M 155.885,197.321 m -0.357235,-0.357235 l 0,0.714471 0.714471,0 0,-0.714471 z "/>
<path d="M 233.827,180 m -0.357235,-0.357235 l 0,0.714471 0.714471,0 0,-0.714471 z "/>
<path d="M 207.846,135 m -0.357235,-0.357235 l 0,0.714471 0.714471,0 0,-0.714471 z "/>
<path d="M 181.865,180 m -0.357235,-0.357235 l 0,0.714471 0.714471,0 0,-0.714471 z "/>
<path d="M 259.808,197.321 m -0.357235,-0.357235 l 0,0.714471 0.714471,0 0,-0.714471 z "/>
<path d="M 233.827,152.321 m -0.357235,-0.357235 l 0,0.714471 0.714471,0 0,-0.714471 z "/>
<path d="M 207.846,197.321 m -0.357235,-0.357235 l 0,0.714471 0.714471,0 0,-0.714471 z "/>
<path d="M 285.788,180 m -0.357235,-0.357235 l 0,0.714471 0.714471,0 0,-0.714471 z "/>
<path d="M 259.808,135 m -0.357235,-0.357235 l 0,0.714471 0.714471,0 0,-0.714471 z "/>
<path d="M 233.827,180 m -0.357235,-0.357235 l 0,0.714471 0.714471,0 0,-0.714471 z "/>
<path d="M 311.769,197.321 m -0.357235,-0.357235 l 0,0.714471 0.714471,0 0,-0.714471 z "/>
<path d="M 285.788,152.321 m -0.357235,-0.357235 l 0,0.714471 0.714471,0 0,-0.714471 z "/>
<path d="M 259.808,197.321 m -0.357235,-0.357235 l 0,0.714471 0.714471,0 0,-0.714471 z "/>
<path d="M 337.75,180 m -0.357235,-0.357235 l 0,0.714471 0.714471,0 0,-0.714471 z "/>
<path d="M 311.769,135 m -0.357235,-0.357235 l 0,0.714471 0.714471,0 0,-0.714471 z "/>
<path d="M 285.788,180 m -0.357235,-0.357235 l 0,0.714471 0.714471,0 0,-0.714471 z "/>
<path d="M 363.731,197.321 m -0.357235,-0.357235 l 0,0.714471 0.714471,0 0,-0.714471 z "/>
<path d="M 337.75,152.321 m -0.357235,-0.357235 l 0,0.714471 0.714471,0 0,-0.714471 z "/>
<path d="M 311.769,197.321 m -0.357235,-0.357235 l 0,0.714471 0.714471,0 0,-0.714471 z "/>
<path d="M 389.711,180 m -0.357235,-0.357235 l 0,0.714471 0.714471,0 0,-0.714471 z "/>
<path d="M 363.731,135 m -0.357235,-0.357235 l 0,0.714471 0.714471,0 0,-0.714471 z "/>
<path d="M 337.75,180 m -0.357235,-0.357235 l 0,0.714471 0.714471,0 0,-0.714471 z "/>
<path d="M 415.692,197.321 m -0.357235,-0.357235 l 0,0.714471 0.714471,0 0,-0.714471 z "/>
<path d="M 389.711,152.321 m -0.357235,-0.357235 l 0,0.714471 0.714471,0 0,-0.714471 z "/>
<path d="M 363.731,197.321 m -0.357235,-0.357235 l 0,0.714471 0.714471,0 0,-0.714471 z "/>
<path d="M 441.673,180 m -0.357235,-0.357235 l 0,0.714471 0.714471,0 0,-0.714471 z "/>
<path d="M 415.692,135 m -0.357235,-0.357235 l 0,0.714471 0.714471,0 0,-0.714471 z "/>
<path d="M 389.711,180 m -0.357235,-0.357235 l 0,0.714471 0.714471,0 0,-0.714471 z "/>
<path d="M 467.654,197.321 m -0.357235,-0.357235 l 0,0.714471 0.714471,0 0,-0.714471 z "/>
<path d="M 441.673,152.321 m -0.357235,-0.357235 l 0,0.714471 0.714471,0 0,-0.714471 z "/>
<path d="M 415.692,197.321 m -0.357235,-0.357235 l 0,0.714471 0.714471,0 0,-0.714471 z "/>
<path d="M 493.634,180 m -0.357235,-0.357235 l 0,0.714471 0.714471,0 0,-0.714471 z "/>
<path d="M 467.654,135 m -0.357235,-0.357235 l 0,0.714471 0.714471,0 0,-0.714471 z "/>
<path d="M 441.673,180 m -0.357235,-0.357235 l 0,0.714471 0.714471,0 0,-0.714471 z "/>
<path d="M 519.615,197.321 m -0.357235,-0.357235 l 0,0.714471 0.714471,0 0,-0.714471 z "/>
<path d="M 493.634,152.321 m -0.357235,-0.357235 l 0,0.714471 0.714471,0 0,-0.714471 z "/>
<path d="M 467.654,197.321 m -0.357235,-0.357235 l 0,0.714471 0.714471,0 0,-0.714471 z "/>
<path d="M 545.596,180 m -0.357235,-0.357235 l 0,0.714471 0.714471,0 0,-0.714471 z "/>
<path d="M 519.615,135 m -0.357235,-0.357235 l 0,0.714471 0.714471,0 0,-0.714471 z "/>
<path d="M 493.634,180 m -0.357235,-0.357235 l 0,0.714471 0.714471,0 0,-0.714471 z "/>
<path d="M 77.9423,242.321 m -0.357235,-0.357235 l 0,0.714471 0.714471,0 0,-0.714471 z "/>
<path d="M 51.9615,197.321 m -0.357235,-0.357235 l 0,0.714471 0.714471,0 0,-0.714471 z "/>
<path d="M 25.9808,242.321 m -0.357235,-0.357235 l 0,0.714471 0.714471,0 0,-0.714471 z "/>
<path d="M 103.923,225 m -0.357235,-0.357235 l 0,0.714471 0.714471,0 0,-0.714471 z "/>
<path d="M 77.9423,180 m -0.357235,-0.357235 l 0,0.714471 0.714471,0 0,-0.714471 z "/>
<path d="M 51.9615,225 m -0.357235,-0.357235 l 0,0.714471 0.714471,0 0,-0.714471 z "/>
<path d="M 129.904,242.321 m -0.357235,-0.357235 l 0,0.714471 0.714471,0 0,-0.714471 z "/>
<path d="M 103.923,197.321 m -0.357235,-0.357235 l 0,0.714471 0.714471,0 0,-0.714471 z "/>
<path d="M 77.9423,242.321 m -0.357235,-0.357235 l 0,0.714471 0.714471,0 0,-0.714471 z "/>
<path d="M 155.885,225 m -0.357235,-0.357235 l 0,0.714471 0.714471,0 0,-0.714471 z "/>
<path d="M 129.904,180 m -0.357235,-0.357235 l 0,0.714471 0.714471,0 0,-0.714471 z "/>
<path d="M 103.923,225 m -0.357235,-0.357235 l 0,0.714471 0.714471,0 0,-0.714471 z "/>
<path d="M 181.865,242.321 m -0.357235,-0.357235 l 0,0.714471 0.714471,0 0,-0.714471 z "/>
<path d="M 155.885,197.321 m -0.357235,-0.357235 l 0,0.714471 0.714471,0 0,-0.714471 z "/>
<path d="M 129.904,242.321 m -0.357235,-0.357235 l 0,0.714471 0.714471,0 0,-0.714471 z "/>
<path d="M 207.846,225 m -0.357235,-0.357235 l 0,0.714471 0.714471,0 0,-0.714471 z "/>
<path d="M 181.865,180 m -0.357235,-0.357235 l 0,0.714471 0.714471,0 0,-0.714471 z "/>
<path d="M 155.885,225 m -0.357235,-0.357235 l 0,0.714471 0.714471,0 0,-0.714471 z "/>
<path d="M 233.827,242.321 m -0.357235,-0.357235 l 0,0.714471 0.714471,0 0,-0.714471 z "/>
<path d="M 207.846,197.321 m -0.357235,-0.357235 l 0,0.714471 0.714471,0 0,-0.714471 z "/>
<path d="M 181.865,242.321 m -0.357235,-0.357235 l 0,0.714471 0.714471,0 0,-0.714471 z "/>
<path d="M 259.808,225 m -0.357235,-0.357235 l 0,0.714471 0.714471,0 0,-0.714471 z "/>
<path d="M 233.827,180 m -0.357235,-0.357235 l 0,0.714471 0.714471,0 0,-0.714471 z "/>
<path d="M 207.846,225 m -0.357235,-0.357235 l 0,0.714471 0.714471,0 0,-0.714471 z "/>
<path d="M 285.788,242.321 m -0.357235,-0.357235 l 0,0.714471 0.714471,0 0,-0.714471 z "/>
<path d="M 259.808,197.321 m -0.357235,-0.357235 l 0,0.714471 0.714471,0 0,-0.714471 z "/>
<path d="M 233.827,242.321 m -0.357235,-0.357235 l 0,0.714471 0.714471,0 0,-0.714471 z "/>
<path d="M 311.769,225 m -0.357235,-0.357235 l 0,0.714471 0.714471,0 0,-0.714471 z "/>
<path d="M 285.788,180 m -0.357235,-0.357235 l 0,0.714471 0.714471,0 0,-0.714471 z "/>
<path d="M 259.808,225 m -0.357235,-0.357235 l 0,0.714471 0.714471,0 0,-0.714471 z "/>
<path d="M 337.75,242.321 m -0.357235,-0.357235 l 0,0.714471 0.714471,0 0,-0.714471 z "/>
<path d="M 311.769,197.321 m -0.357235,-0.357235 l 0,0.714471 0.714471,0 0,-0.714471 z "/>
<path d="M 285.788,242.321 m -0.357235,-0.357235 l 0,0.714471 0.714471,0 0,-0.714471 z "/>
<path d="M 363.731,225 m -0.357235,-0.357235 l 0,0.714471 0.714471,0 0,-0.714471 z "/>
<path d="M 337.75,180 m -0.357235,-0.357235 l 0,0.714471 0.714471,0 0,-0.714471 z "/>
<path d="M 311.769,225 m -0.357235,-0.357235 l 0,0.714471 0.714471,0 0,-0.714471 z "/>
<path d="M 389.711,242.321 m -0.357235,-0.357235 l 0,0.714471 0.714471,0 0,-0.714471 z "/>
<path d="M 363.731,197.321 m -0.357235,-0.357235 l 0,0.714471 0.714471,0 0,-0.714471 z "/>
<path d="M 337.75,242.321 m -0.357235,-0.357235 l 0,0.714471 0.714471,0 0,-0.714471 z "/>
<path d="M 415.692,225 m -0.357235,-0.357235 l 0,0.714471 0.714471,0 0,-0.714471 z "/>
<path d="M 389.711,180 m -0.357235,-0.357235 l 0,0.714471 0.714471,0 0,-0.714471 z "/>
<path d="M 363.731,225 m -0.357235,-0.357235 l 0,0.714471 0.714471,0 0,-0.714471 z "/>
<path d="M 441.673,242.321 m -0.357235,-0.357235 l 0,0.714471 0.714471,0 0,-0.714471 z "/>
<path d="M 415.692,197.321 m -0.357235,-0.357235 l 0,0.714471 0.714471,0 0,-0.714471 z "/>
<path d="M 389.711,242.321 m -0.357235,-0.357235 l 0,0.714471 0.714471,0 0,-0.714471 z "/>
<path d="M 467.654,225 m -0.357235,-0.357235 l 0,0.714471 0.714471,0 0,-0.714471 z "/>
<path d="M 441.673,180 m -0.357235,-0.357235 l 0,0.714471 0.714471,0 0,-0.714471 z "/>
<path d="M 415.692,225 m -0.357235,-0.357235 l 0,0.714471 0.714471,0 0,-0.714471 z "/>
<path d="M 493.634,242.321 m -0.357235,-0.357235 l 0,0.714471 0.714471,0 0,-0.714471 z "/>
<path d="M 467.654,197.321 m -0.357235,-0.357235 l 0,0.714471 0.714471,0 0,-0.714471 z "/>
<path d="M 441.673,242.321 m -0.357235,-0.357235 l 0,0.714471 0.714471,0 0,-0.714471 z "/>
<path d="M 519.615,225 m -0.357235,-0.357235 l 0,0.714471 0.714471,0 0,-0.714471 z "/>
<path d="M 493.634,180 m -0.357235,-0.357235 l 0,0.714471 0.714471,0 0,-0.714471 z "/>
<path d="M 467.654,225 m -0.357235,-0.357235 l 0,0.714471 0.714471,0 0,-0.714471 z "/>
<path d="M 545.596,242.321 m -0.357235,-0.357235 l 0,0.714471 0.714471,0 0,-0.714471 z "/>
<path d="M 519.615,197.321 m -0.357235,-0.357235 l 0,0.714471 0.714471,0 0,-0.714471 z "/>
<path d="M 493.634,242.321 m -0.357235,-0.357235 l 0,0.714471 0.714471,0 0,-0.714471 z "/>
<path d="M 571.577,225 m -0.357235,-0.357235 l 0,0.714471 0.714471,0 0,-0.714471 z "/>
<path d="M 545.596,180 m -0.357235,-0.357235 l 0,0.714471 0.714471,0 0,-0.714471 z "/>
<path d="M 519.615,225 m -0.357235,-0.357235 l 0,0.714471 0.714471,0 0,-0.714471 z "/>
<path d="M 51.9615,287.321 m -0.357235,-0.357235 l 0,0.714471 0.714471,0 0,-0.714471 z "/>
<path d="M 25.9808,242.321 m -0.357235,-0.357235 l 0,0.714471 0.714471,0 0,-0.714471 z "/>
<path d="M 0,287.321 m -0.357235,-0.357235 l 0,0.714471 0.714471,0 0,-0.714471 z "/>
<path d="M 77.9423,270 m -0.357235,-0.357235 l 0,0.714471 0.714471,0 0,-0.714471 z "/>
<path d="M 51.9615,225 m -0.357235,-0.357235 l 0,0.714471 0.714471,0 0,-0.714471 z "/>
<path d="M 25.9808,270 m -0.357235,-0.357235 l 0,0.714471 0.714471,0 0,-0.714471 z "/>
<path d="M 103.923,287.321 m -0.357235,-0.357235 l 0,0.714471 0.714471,0 0,-0.714471 z "/>
<path d="M 77.9423,242.321 m -0.357235,-0.357235 l 0,0.714471 0.714471,0 0,-0.714471 z "/>
<path d="M 51.9615,287.321 m -0.357235,-0.357235 l 0,0.714471 0.714471,0 0,-0.714471 z "/>
<path d="M 129.904,270 m -0.357235,-0.357235 l 0,0.714471 0.714471,0 0,-0.714471 z "/>
<path d="M 103.923,225 m -0.357235,-0.357235 l 0,0.714471 0.714471,0 0,-0.714471 z "/>
<path d="M 77.9423,270 m -0.357235,-0.357235 l 0,0.714471 0.714471,0 0,-0.714471 z "/>
<path d="M 155.885,287.321 m -0.357235,-0.357235 l 0,0.714471 0.714471,0 0,-0.714471 z "/>
<path d="M 129.904,242.321 m -0.357235,-0.357235 l 0,0.714471 0.714471,0 0,-0.714471 z "/>
<path d="M 103.923,287.321 m -0.357235,-0.357235 l 0,0.714471 0.714471,0 0,-0.714471 z "/>
<path d="M 181.865,270 m -0.357235,-0.357235 l 0,0.714471 0.714471,0 0,-0.714471 z "/>
<path d="M 155.885,225 m -0.357235,-0.357235 l 0,0.714471 0.714471,0 0,-0.714471 z "/>
<path d="M 129.904,270 m -0.357235,-0.357235 l 0,0.714471 0.714471,0 0,-0.714471 z "/>
<path d="M 207.846,287.321 m -0.357235,-0.357235 l 0,0.714471 0.714471,0 0,-0.714471 z "/>
<path d="M 181.865,242.321 m -0.357235,-0.357235 l 0,0.714471 0.714471,0 0,-0.714471 z "/>
<path d="M 155.885,287.321 m -0.357235,-0.357235 l 0,0.714471 0.714471,0 0,-0.714471 z "/>
<path d="M 233.827,270 m -0.357235,-0.357235 l 0,0.714471 0.714471,0 0,-0.714471 z "/>
<path d="M 207.846,225 m -0.357235,-0.357235 l 0,0.714471 0.714471,0 0,-0.714471 z "/>
<path d="M 181.865,270 m -0.357235,-0.357235 l 0,0.714471 0.714471,0 0,-0.714471 z "/>
<path d="M 259.808,287.321 m -0.357235,-0.357235 l 0,0.714471 0.714471,0 0,-0.714471 z "/>
<path d="M 233.827,242.321 m -0.357235,-0.357235 l 0,0.714471 0.714471,0 0,-0.714471 z "/>
<path d="M 207.846,287.321 m -0.357235,-0.357235 l 0,0.714471 0.714471,0 0,-0.714471 z "/>
<path d="M 285.788,270 m -0.357235,-0.357235 l 0,0.714471 0.714471,0 0,-0.714471 z "/>
<path d="M 259.808,225 m -0.357235,-0.357235 l 0,0.714471 0.714471,0 0,-0.714471 z "/>
<path d="M 233.827,270 m -0.357235,-0.357235 l 0,0.714471 0.714471,0 0,-0.714471 z "/>
<path d="M 311.769,287.321 m -0.357235,-0.357235 l 0,0.714471 0.714471,0 0,-0.714471 z "/>
<path d="M 285.788,242.321 m -0.357235,-0.357235 l 0,0.714471 0.714471,0 0,-0.714471 z "/>
<path d="M 259.808,287.321 m -0.357235,-0.357235 l 0,0.714471 0.714471,0 0,-0.714471 z "/>
<path d="M 337.75,270 m -0.357235,-0.357235 l 0,0.714471 0.714471,0 0,-0.714471 z "/>
<path d="M 311.769,225 m -0.357235,-0.357235 l 0,0.714471 0.714471,0 0,-0.714471 z "/>
<path d="M 285.788,270 m -0.357235,-0.357235 l 0,0.714471 0.714471,0 0,-0.714471 z "/>
<path d="M 363.731,287.321 m -0.357235,-0.357235 l 0,0.714471 0.714471,0 0,-0.714471 z "/>
<path d="M 337.75,242.321 m -0.357235,-0.357235 l 0,0.714471 0.714471,0 0,-0.714471 z "/>
<path d="M 311.769,287.321 m -0.357235,-0.357235 l 0,0.714471 0.714471,0 0,-0.714471 z "/>
<path d="M 389.711,270 m -0.357235,-0.357235 l 0,0.714471 0.714471,0 0,-0.714471 z "/>
<path d="M 363.731,225 m -0.357235,-0.357235 l 0,0.714471 0.714471,0 0,-0.714471 z "/>
<path d="M 337.75,270 m -0.357235,-0.357235 l 0,0.714471 0.714471,0 0,-0.714471 z "/>
<path d="M 415.692,287.321 m -0.357235,-0.357235 l 0,0.714471 0.714471,0 0,-0.714471 z "/>
<path d="M 389.711,242.321 m -0.357235,-0.357235 l 0,0.714471 0.714471,0 0,-0.714471 z "/>
<path d="M 363.731,287.321 m -0.357235,-0.357235 l 0,0.714471 0.714471,0 0,-0.714471 z "/>
<path d="M 441.673,270 m -0.357235,-0.357235 l 0,0.714471 0.714471,0 0,-0.714471 z "/>
<path d="M 415.692,225 m -0.357235,-0.357235 l 0,0.714471 0.714471,0 0,-0.714471 z "/>
<path d="M 389.711,270 m -0.357235,-0.357235 l 0,0.714471 0.714471,0 0,-0.714471 z "/>
<path d="M 467.654,287.321 m -0.357235,-0.357235 l 0,0.714471 0.714471,0 0,-0.714471 z "/>
<path d="M 441.673,242.321 m -0.357235,-0.357235 l 0,0.714471 0.714471,0 0,-0.714471 z "/>
<path d="M 415.692,287.321 m -0.357235,-0.357235 l 0,0.714471 0.714471,0 0,-0.714471 z "/>
<path d="M 493.634,270 m -0.357235,-0.357235 l 0,0.714471 0.714471,0 0,-0.714471 z "/>
<path d="M 467.654,225 m -0.357235,-0.357235 l 0,0.714471 0.714471,0 0,-0.714471 z "/>
<path d="M 441.673,270 m -0.357235,-0.357235 l 0,0.714471 0.714471,0 0,-0.714471 z "/>
<path d="M 519.615,287.321 m -0.357235,-0.357235 l 0,0.714471 0.714471,0 0,-0.714471 z "/>
<path d="M 493.634,242.321 m -0.357235,-0.357235 l 0,0.714471 0.714471,0 0,-0.714471 z "/>
<path d="M 467.654,287.321 m -0.357235,-0.357235 l 0,0.714471 0.714471,0 0,-0.714471 z "/>
<path d="M 545.596,270 m -0.357235,-0.357235 l 0,0.714471 0.714471,0 0,-0.714471 z "/>
<path d="M 519.615,225 m -0.357235,-0.357235 l 0,0.714471 0.714471,0 0,-0.714471 z "/>
<path d="M 493.634,270 m -0.357235,-0.357235 l 0,0.714471 0.714471,0 0,-0.714471 z "/>
<path d="M 77.9423,332.321 m -0.357235,-0.357235 l 0,0.714471 0.714471,0 0,-0.714471 z "/>
<path d="M 51.9615,287.321 m -0.357235,-0.357235 l 0,0.714471 0.714471,0 0,-0.714471 z "/>
<path d="M 25.9808,332.321 m -0.357235,-0.357235 l 0,0.714471 0.714471,0 0,-0.714471 z "/>
<path d="M 103.923,315 m -0.357235,-0.357235 l 0,0.714471 0.714471,0 0,-0.714471 z "/>
<path d="M 77.9423,270 m -0.357235,-0.357235 l 0,0.714471 0.714471,0 0,-0.714471 z "/>
<path d="M 51.9615,315 m -0.357235,-0.357235 l 0,0.714471 0.714471,0 0,-0.714471 z "/>
<path d="M 129.904,332.321 m -0.357235,-0.357235 l 0,0.714471 0.714471,0 0,-0.714471 z "/>
<path d="M 103.923,287.321 m -0.357235,-0.357235 l 0,0.714471 0.714471,0 0,-0.714471 z "/>
<path d="M 77.9423,332.321 m -0.357235,-0.357235 l 0,0.714471 0.714471,0 0,-0.714471 z "/>
<path d="M 155.885,315 m -0.357235,-0.357235 l 0,0.714471 0.714471,0 0,-0.714471 z "/>
<path d="M 129.904,270 m -0.357235,-0.357235 l 0,0.714471 0.714471,0 0,-0.714471 z "/>
<path d="M 103.923,315 m -0.357235,-0.357235 l 0,0.714471 0.714471,0 0,-0.714471 z "/>
<path d="M 181.865,332.321 m -0.357235,-0.357235 l 0,0.714471 0.714471,0 0,-0.714471 z "/>
<path d="M 155.885,287.321 m -0.357235,-0.357235 l 0,0.714471 0.714471,0 0,-0.714471 z "/>
<path d="M 129.904,332.321 m -0.357235,-0.357235 l 0,0.714471 0.714471,0 0,-0.714471 z "/>
<path d="M 207.846,315 m -0.357235,-0.357235 l 0,0.714471 0.714471,0 0,-0.714471 z "/>
<path d="M 181.865,270 m -0.357235,-0.357235 l 0,0.714471 0.714471,0 0,-0.714471 z "/>
<path d="M 155.885,315 m -0.357235,-0.357235 l 0,0.714471 0.714471,0 0,-0.714471 z "/>
<path d="M 233.827,332.321 m -0.357235,-0.357235 l 0,0.714471 0.714471,0 0,-0.714471 z "/>
<path d="M 207.846,287.321 m -0.357235,-0.357235 l 0,0.714471 0.714471,0 0,-0.714471 z "/>
<path d="M 181.865,332.321 m -0.357235,-0.357235 l 0,0.714471 0.714471,0 0,-0.714471 z "/>
<path d="M 259.808,315 m -0.357235,-0.357235 l 0,0.714471 0.714471,0 0,-0.714471 z "/>
<path d="M 233.827,270 m -0.357235,-0.357235 l 0,0.714471 0.714471,0 0,-0.714471 z "/>
<path d="M 207.846,315 m -0.357235,-0.357235 l 0,0.714471 0.714471,0 0,-0.714471 z "/>
<path d="M 285.788,332.321 m -0.357235,-0.357235 l 0,0.714471 0.714471,0 0,-0.714471 z "/>
<path d="M 259.808,287.321 m -0.357235,-0.357235 l 0,0.714471 0.714471,0 0,-0.714471 z "/>
<path d="M 233.827,332.321 m -0.357235,-0.357235 l 0,0.714471 0.714471,0 0,-0.714471 z "/>
<path d="M 311.769,315 m -0.357235,-0.357235 l 0,0.714471 0.714471,0 0,-0.714471 z "/>
<path d="M 285.788,270 m -0.357235,-0.357235 l 0,0.714471 0.714471,0 0,-0.714471 z "/>
<path d="M 259.808,315 m -0.357235,-0.357235 l 0,0.714471 0.714471,0 0,-0.714471 z "/>
<path d="M 337.75,332.321 m -0.357235,-0.357235 l 0,0.714471 0.714471,0 0,-0.714471 z "/>
<path d="M 311.769,287.321 m -0.357235,-0.357235 l 0,0.714471 0.714471,0 0,-0.714471 z "/>
<path d="M 285.788,332.321 m -0.357235,-0.357235 l 0,0.714471 0.714471,0 0,-0.714471 z "/>
<path d="M 363.731,315 m -0.357235,-0.357235 l 0,0.714471 0.714471,0 0,-0.714471 z "/>
<path d="M 337.75,270 m -0.357235,-0.357235 l 0,0.714471 0.714471,0 0,-0.714471 z "/>
<path d="M 311.769,315 m -0.357235,-0.357235 l 0,0.714471 0.714471,0 0,-0.714471 z "/>
<path d="M 389.711,332.321 m -0.357235,-0.357235 l 0,0.714471 0.714471,0 0,-0.714471 z "/>
<path d="M 363.731,287.321 m -0.357235,-0.357235 l 0,0.714471 0.714471,0 0,-0.714471 z "/>
<path d="M 337.75,332.321 m -0.357235,-0.357235 l 0,0.714471 0.714471,0 0,-0.714471 z "/>
<path d="M 415.692,315 m -0.357235,-0.357235 l 0,0.714471 0.714471,0 0,-0.714471 z "/>
<path d="M 389.711,270 m -0.357235,-0.357235 l 0,0.714471 0.714471,0 0,-0.714471 z "/>
<path d="M 363.731,315 m -0.357235,-0.357235 l 0,0.714471 0.714471,0 0,-0.714471 z "/>
<path d="M 441.673,332.321 m -0.357235,-0.357235 l 0,0.714471 0.714471,0 0,-0.714471 z "/>
<path d="M 415.692,287.321 m -0.357235,-0.357235 l 0,0.714471 0.714471,0 0,-0.714471 z "/>
<path d="M 389.711,332.321 m -0.357235,-0.357235 l 0,0.714471 0.714471,0 0,-0.714471 z "/>
<path d="M 467.654,315 m -0.357235,-0.357235 l 0,0.714471 0.714471,0 0,-0.714471 z "/>
<path d="M 441.673,270 m -0.357235,-0.357235 l 0,0.714471 0.714471,0 0,-0.714471 z "/>
<path d="M 415.692,315 m -0.357235,-0.357235 l 0,0.714471 0.714471,0 0,-0.714471 z "/>
<path d="M 493.634,332.321 m -0.357235,-0.357235 l 0,0.714471 0.714471,0 0,-0.714471 z "/>
<path d="M 467.654,287.321 m -0.357235,-0.357235 l 0,0.714471 0.714471,0 0,-0.714471 z "/>
<path d="M 441.673,332.321 m -0.357235,-0.357235 l 0,0.714471 0.714471,0 0,-0.714471 z "/>
<path d="M 519.615,315 m -0.357235,-0.357235 l 0,0.714471 0.714471,0 0,-0.714471 z "/>
<path d="M 493.634,270 m -0.357235,-0.357235 l 0,0.714471 0.714471,0 0,-0.714471 z "/>
<path d="M 467.654,315 m -0.357235,-0.357235 l 0,0.714471 0.714471,0 0,-0.714471 z "/>
<path d="M 545.596,332.321 m -0.357235,-0.357235 l 0,0.714471 0.714471,0 0,-0.714471 z "/>
<path d="M 519.615,287.321 m -0.357235,-0.357235 l 0,0.714471 0.714471,0 0,-0.714471 z "/>
<path d="M 493.634,332.321 m -0.357235,-0.357235 l 0,0.714471 0.714471,0 0,-0.714471 z "/>
<path d="M 571.577,315 m -0.357235,-0.357235 l 0,0.714471 0.714471,0 0,-0.714471 z "/>
<path d="M 545.596,270 m -0.357235,-0.357235 l 0,0.714471 0.714471,0 0,-0.714471 z "/>
<path d="M 519.615,315 m -0.357235,-0.357235 l 0,0.714471 0.714471,0 0,-0.714471 z "/>
<path d="M 51.9615,377.321 m -0.357235,-0.357235 l 0,0.714471 0.714471,0 0,-0.714471 z "/>
<path d="M 25.9808,332.321 m -0.357235,-0.357235 l 0,0.714471 0.714471,0 0,-0.714471 z "/>
<path d="M 0,377.321 m -0.357235,-0.357235 l 0,0.714471 0.714471,0 0,-0.714471 z "/>
<path d="M 77.9423,360 m -0.357235,-0.357235 l 0,0.714471 0.714471,0 0,-0.714471 z "/>
<path d="M 51.9615,315 m -0.357235,-0.357235 l 0,0.714471 0.714471,0 0,-0.714471 z "/>
<path d="M 25.9808,360 m -0.357235,-0.357235 l 0,0.714471 0.714471,0 0,-0.714471 z "/>
<path d="M 103.923,377.321 m -0.357235,-0.357235 l 0,0.714471 0.714471,0 0,-0.714471 z "/>
<path d="M 77.9423,332.321 m -0.357235,-0.357235 l 0,0.714471 0.714471,0 0,-0.714471 z "/>
<path d="M 51.9615,377.321 m -0.357235,-0.357235 l 0,0.714471 0.714471,0 0,-0.714471 z "/>
<path d="M 129.904,360 m -0.357235,-0.357235 l 0,0.714471 0.714471,0 0,-0.714471 z "/>
<path d="M 103.923,315 m -0.357235,-0.357235 l 0,0.714471 0.714471,0 0,-0.714471 z "/>
<path d="M 77.9423,360 m -0.357235,-0.357235 l 0,0.714471 0.714471,0 0,-0.714471 z "/>
<path d="M 155.885,377.321 m -0.357235,-0.357235 l 0,0.714471 0.714471,0 0,-0.714471 z "/>
<path d="M 129.904,332.321 m -0.357235,-0.357235 l 0,0.714471 0.714471,0 0,-0.714471 z "/>
<path d="M 103.923,377.321 m -0.357235,-0.357235 l 0,0.714471 0.714471,0 0,-0.714471 z "/>
<path d="M 181.865,360 m -0.357235,-0.357235 l 0,0.714471 0.714471,0 0,-0.714471 z "/>
<path d="M 155.885,315 m -0.357235,-0.357235 l 0,0.714471 0.714471,0 0,-0.714471 z "/>
<path d="M 129.904,360 m -0.357235,-0.357235 l 0,0.714471 0.714471,0 0,-0.714471 z "/>
<path d="M 207.846,377.321 m -0.357235,-0.357235 l 0,0.714471 0.714471,0 0,-0.714471 z "/>
<path d="M 181.865,332.321 m -0.357235,-0.357235 l 0,0.714471 0.714471,0 0,-0.714471 z "/>
<path d="M 155.885,377.321 m -0.357235,-0.357235 l 0,0.714471 0.714471,0 0,-0.714471 z "/>
<path d="M 233.827,360 m -0.357235,-0.357235 l 0,0.714471 0.714471,0 0,-0.714471 z "/>
<path d="M 207.846,315 m -0.357235,-0.357235 l 0,0.714471 0.714471,0 0,-0.714471 z "/>
<path d="M 181.865,360 m -0.357235,-0.357235 l 0,0.714471 0.714471,0 0,-0.714471 z "/>
<path d="M 259.808,377.321 m -0.357235,-0.357235 l 0,0.714471 0.714471,0 0,-0.714471 z "/>
<path d="M 233.827,332.321 m -0.357235,-0.357235 l 0,0.714471 0.714471,0 0,-0.714471 z "/>
<path d="M 207.846,377.321 m -0.357235,-0.357235 l 0,0.714471 0.714471,0 0,-0.714471 z "/>
<path d="M 285.788,360 m -0.357235,-0.357235 l 0,0.714471 0.714471,0 0,-0.714471 z "/>
<path d="M 259.808,315 m -0.357235,-0.357235 l 0,0.714471 0.714471,0 0,-0.714471 z "/>
<path d="M 233.827,360 m -0.357235,-0.357235 l 0,0.714471 0.714471,0 0,-0.714471 z "/>
<path d="M 311.769,377.321 m -0.357235,-0.357235 l 0,0.714471 0.714471,0 0,-0.714471 z "/>
<path d="M 285.788,332.321 m -0.357235,-0.357235 l 0,0.714471 0.714471,0 0,-0.714471 z "/>
<path d="M 259.808,377.321 m -0.357235,-0.357235 l 0,0.714471 0.714471,0 0,-0.714471 z "/>
<path d="M 337.75,360 m -0.357235,-0.357235 l 0,0.714471 0.714471,0 0,-0.714471 z "/>
<path d="M 311.769,315 m -0.357235,-0.357235 l 0,0.714471 0.714471,0 0,-0.714471 z "/>
<path d="M 285.788,360 m -0.357235,-0.357235 l 0,0.714471 0.714471,0 0,-0.714471 z "/>
<path d="M 363.731,377.321 m -0.357235,-0.357235 l 0,0.714471 0.714471,0 0,-0.714471 z "/>
<path d="M 337.75,332.321 m -0.357235,-0.357235 l 0,0.714471 0.714471,0 0,-0.714471 z "/>
<path d="M 311.769,377.321 m -0.357235,-0.357235 l 0,0.714471 0.714471,0 0,-0.714471 z "/>
<path d="M 389.711,360 m -0.357235,-0.357235 l 0,0.714471 0.714471,0 0,-0.714471 z "/>
<path d="M 363.731,315 m -0.357235,-0.357235 l 0,0.714471 0.714471,0 0,-0.714471 z "/>
<path d="M 337.75,360 m -0.357235,-0.357235 l 0,0.714471 0.714471,0 0,-0.714471 z "/>
<path d="M 415.692,377.321 m -0.357235,-0.357235 l 0,0.714471 0.714471,0 0,-0.714471 z "/>
<path d="M 389.711,332.321 m -0.357235,-0.357235 l 0,0.714471 0.714471,0 0,-0.714471 z "/>
<path d="M 363.731,377.321 m -0.357235,-0.357235 l 0,0.714471 0.714471,0 0,-0.714471 z "/>
<path d="M 441.673,360 m -0.357235,-0.357235 l 0,0.714471 0.714471,0 0,-0.714471 z "/>
<path d="M 415.692,315 m -0.357235,-0.357235 l 0,0.714471 0.714471,0 0,-0.714471 z "/>
<path d="M 389.711,360 m -0.357235,-0.357235 l 0,0.714471 0.714471,0 0,-0.714471 z "/>
<path d="M 467.654,377.321 m -0.357235,-0.357235 l 0,0.714471 0.714471,0 0,-0.714471 z "/>
<path d="M 441.673,332.321 m -0.357235,-0.357235 l 0,0.714471 0.714471,0 0,-0.714471 z "/>
<path d="M 415.692,377.321 m -0.357235,-0.357235 l 0,0.714471 0.714471,0 0,-0.714471 z "/>
<path d="M 493.634,360 m -0.357235,-0.357235 l 0,0.714471 0.714471,0 0,-0.714471 z "/>
<path d="M 467.654,315 m -0.357235,-0.357235 l 0,0.714471 0.714471,0 0,-0.714471 z "/>
<path d="M 441.673,360 m -0.357235,-0.357235 l 0,0.714471 0.714471,0 0,-0.714471 z "/>
<path d="M 519.615,377.321 m -0.357235,-0.357235 l 0,0.714471 0.714471,0 0,-0.714471 z "/>
<path d="M 493.634,332.321 m -0.357235,-0.357235 l 0,0.714471 0.714471,0 0,-0.714471 z "/>
<path d="M 467.654,377.321 m -0.357235,-0.357235 l 0,0.714471 0.714471,0 0,-0.714471 z "/>
<path d="M 545.596,360 m -0.357235,-0.357235 l 0,0.714471 0.714471,0 0,-0.714471 z "/>
<path d="M 519.615,315 m -0.357235,-0.357235 l 0,0.714471 0.714471,0 0,-0.714471 z "/>
<path d="M 493.634,360 m -0.357235,-0.357235 l 0,0.714471 0.714471,0 0,-0.714471 z "/>
<path d="M 77.9423,422.321 m -0.357235,-0.357235 l 0,0.714471 0.714471,0 0,-0.714471 z "/>
<path d="M 51.9615,377.321 m -0.357235,-0.357235 l 0,0.714471 0.714471,0 0,-0.714471 z "/>
<path d="M 25.9808,422.321 m -0.357235,-0.357235 l 0,0.714471 0.714471,0 0,-0.714471 z "/>
<path d="M 103.923,405 m -0.357235,-0.357235 l 0,0.714471 0.714471,0 0,-0.714471 z "/>
<path d="M 77.9423,360 m -0.357235,-0.357235 l 0,0.714471 0.714471,0 0,-0.714471 z "/>
<path d="M 51.9615,405 m -0.357235,-0.357235 l 0,0.714471 0.714471,0 0,-0.714471 z "/>
<path d="M 129.904,422.321 m -0.357235,-0.357235 l 0,0.714471 0.714471,0 0,-0.714471 z "/>
<path d="M 103.923,377.321 m -0.357235,-0.357235 l 0,0.714471 0.714471,0 0,-0.714471 z "/>
<path d="M 77.9423,422.321 m -0.357235,-0.357235 l 0,0.714471 0.714471,0 0,-0.714471 z "/>
<path d="M 155.885,405 m -0.357235,-0.357235 l 0,0.714471 0.714471,0 0,-0.714471 z "/>
<path d="M 129.904,360 m -0.357235,-0.357235 l 0,0.714471 0.714471,0 0,-0.714471 z "/>
<path d="M 103.923,405 m -0.357235,-0.357235 l 0,0.714471 0.714471,0 0,-0.714471 z "/>
<path d="M 181.865,422.321 m -0.357235,-0.357235 l 0,0.714471 0.714471,0 0,-0.714471 z "/>
<path d="M 155.885,377.321 m -0.357235,-0.357235 l 0,0.714471 0.714471,0 0,-0.714471 z "/>
<path d="M 129.904,422.321 m -0.357235,-0.357235 l 0,0.714471 0.714471,0 0,-0.714471 z "/>
<path d="M 207.846,405 m -0.357235,-0.357235 l 0,0.714471 0.714471,0 0,-0.714471 z "/>
<path d="M 181.865,360 m -0.357235,-0.357235 l 0,0.714471 0.714471,0 0,-0.714471 z "/>
<path d="M 155.885,405 m -0.357235,-0.357235 l 0,0.714471 0.714471,0 0,-0.714471 z "/>
<path d="M 233.827,422.321 m -0.357235,-0.357235 l 0,0.714471 0.714471,0 0,-0.714471 z "/>
<path d="M 207.846,377.321 m -0.357235,-0.357235 l 0,0.714471 0.714471,0 0,-0.714471 z "/>
<path d="M 181.865,422.321 m -0.357235,-0.357235 l 0,0.714471 0.714471,0 0,-0.714471 z "/>
<path d="M 259.808,405 m -0.357235,-0.357235 l 0,0.714471 0.714471,0 0,-0.714471 z "/>
<path d="M 233.827,360 m -0.357235,-0.357235 l 0,0.714471 0.714471,0 0,-0.714471 z "/>
<path d="M 207.846,405 m -0.357235,-0.357235 l 0,0.714471 0.714471,0 0,-0.714471 z "/>
<path d="M 285.788,422.321 m -0.357235,-0.357235 l 0,0.714471 0.714471,0 0,-0.714471 z "/>
<path d="M 259.808,377.321 m -0.357235,-0.357235 l 0,0.714471 0.714471,0 0,-0.714471 z "/>
<path d="M 233.827,422.321 m -0.357235,-0.357235 l 0,0.714471 0.714471,0 0,-0.714471 z "/>
<path d="M 311.769,405 m -0.357235,-0.357235 l 0,0.714471 0.714471,0 0,-0.714471 z "/>
<path d="M 285.788,360 m -0.357235,-0.357235 l 0,0.714471 0.714471,0 0,-0.714471 z "/>
<path d="M 259.808,405 m -0.357235,-0.357235 l 0,0.714471 0.714471,0 0,-0.714471 z "/>
<path d="M 337.75,422.321 m -0.357235,-0.357235 l 0,0.714471 0.714471,0 0,-0.714471 z "/>
<path d="M 311.769,377.321 m -0.357235,-0.357235 l 0,0.714471 0.714471,0 0,-0.714471 z "/>
<path d="M 285.788,422.321 m -0.357235,-0.357235 l 0,0.714471 0.714471,0 0,-0.714471 z "/>
<path d="M 363.731,405 m -0.357235,-0.357235 l 0,0.714471 0.714471,0 0,-0.714471 z "/>
<path d="M 337.75,360 m -0.357235,-0.357235 l 0,0.714471 0.714471,0 0,-0.714471 z "/>
<path d="M 311.769,405 m -0.357235,-0.357235 l 0,0.714471 0.714471,0 0,-0.714471 z "/>
<path d="M 389.711,422.321 m -0.357235,-0.357235 l 0,0.714471 0.714471,0 0,-0.714471 z "/>
<path d="M 363.731,377.321 m -0.357235,-0.357235 l 0,0.714471 0.714471,0 0,-0.714471 z "/>
<path d="M 337.75,422.321 m -0.357235,-0.357235 l 0,0.714471 0.714471,0 0,-0.714471 z "/>
<path d="M 415.692,405 m -0.357235,-0.357235 l 0,0.714471 0.714471,0 0,-0.714471 z "/>
<path d="M 389.711,360 m -0.357235,-0.357235 l 0,0.714471 0.714471,0 0,-0.714471 z "/>
<path d="M 363.731,405 m -0.357235,-0.357235 l 0,0.714471 0.714471,0 0,-0.714471 z "/>
<path d="M 441.673,422.321 m -0.357235,-0.357235 l 0,0.714471 0.714471,0 0,-0.714471 z "/>
<path d="M 415.692,377.321 m -0.357235,-0.357235 l 0,0.714471 0.714471,0 0,-0.714471 z "/>
<path d="M 389.711,422.321 m -0.357235,-0.357235 l 0,0.714471 0.714471,0 0,-0.714471 z "/>
<path d="M 467.654,405 m -0.357235,-0.357235 l 0,0.714471 0.714471,0 0,-0.714471 z "/>
<path d="M 441.673,360 m -0.357235,-0.357235 l 0,0.714471 0.714471,0 0,-0.714471 z "/>
<path d="M 415.692,405 m -0.357235,-0.357235 l 0,0.714471 0.714471,0 0,-0.714471 z "/>
<path d="M 493.634,422.321 m -0.357235,-0.357235 l 0,0.714471 0.714471,0 0,-0.714471 z "/>
<path d="M 467.654,377.321 m -0.357235,-0.357235 l 0,0.714471 0.714471,0 0,-0.714471 z "/>
<path d="M 441.673,422.321 m -0.357235,-0.357235 l 0,0.714471 0.714471,0 0,-0.714471 z "/>
<path d="M 519.615,405 m -0.357235,-0.357235 l 0,0.714471 0.714471,0 0,-0.714471 z "/>
<path d="M 493.634,360 m -0.357235,-0.357235 l 0,0.714471 0.714471,0 0,-0.714471 z "/>
<path d="M 467.654,405 m -0.357235,-0.357235 l 0,0.714471 0.714471,0 0,-0.714471 z "/>
<path d="M 545.596,422.321 m -0.357235,-0.357235 l 0,0.714471 0.714471,0 0,-0.714471 z "/>
<path d="M 519.615,377.321 m -0.357235,-0.357235 l 0,0.714471 0.714471,0 0,-0.714471 z "/>
<path d="M 493.634,422.321 m -0.357235,-0.357235 l 0,0.714471 0.714471,0 0,-0.714471 z "/>
<path d="M 571.577,405 m -0.357235,-0.357235 l 0,0.714471 0.714471,0 0,-0.714471 z "/>
<path d="M 545.596,360 m -0.357235,-0.357235 l 0,0.714471 0.714471,0 0,-0.714471 z "/>
<path d="M 519.615,405 m -0.357235,-0.357235 l 0,0.714471 0.714471,0 0,-0.714471 z "/>
<path d="M 51.9615,467.321 m -0.357235,-0.357235 l 0,0.714471 0.714471,0 0,-0.714471 z "/>
<path d="M 25.9808,422.321 m -0.357235,-0.357235 l 0,0.714471 0.714471,0 0,-0.714471 z "/>
<path d="M 0,467.321 m -0.357235,-0.357235 l 0,0.714471 0.714471,0 0,-0.714471 z "/>
<path d="M 77.9423,450 m -0.357235,-0.357235 l 0,0.714471 0.714471,0 0,-0.714471 z "/>
<path d="M 51.9615,405 m -0.357235,-0.357235 l 0,0.714471 0.714471,0 0,-0.714471 z "/>
<path d="M 25.9808,450 m -0.357235,-0.357235 l 0,0.714471 0.714471,0 0,-0.714471 z "/>
<path d="M 103.923,467.321 m -0.357235,-0.357235 l 0,0.714471 0.714471,0 0,-0.714471 z "/>
<path d="M 77.9423,422.321 m -0.357235,-0.357235 l 0,0.714471 0.714471,0 0,-0.714471 z "/>
<path d="M 51.9615,467.321 m -0.357235,-0.357235 l 0,0.714471 0.714471,0 0,-0.714471 z "/>
<path d="M 129.904,450 m -0.357235,-0.357235 l 0,0.714471 0.714471,0 0,-0.714471 z "/>
<path d="M 103.923,405 m -0.357235,-0.357235 l 0,0.714471 0.714471,0 0,-0.714471 z "/>
<path d="M 77.9423,450 m -0.357235,-0.357235 l 0,0.714471 0.714471,0 0,-0.714471 z "/>
<path d="M 155.885,467.321 m -0.357235,-0.357235 l 0,0.714471 0.714471,0 0,-0.714471 z "/>
<path d="M 129.904,422.321 m -0.357235,-0.357235 l 0,0.714471 0.714471,0 0,-0.714471 z "/>
<path d="M 103.923,467.321 m -0.357235,-0.357235 l 0,0.714471 0.714471,0 0,-0.714471 z "/>
<path d="M 181.865,450 m -0.357235,-0.357235 l 0,0.714471 0.714471,0 0,-0.714471 z "/>
<path d="M 155.885,405 m -0.357235,-0.357235 l 0,0.714471 0.714471,0 0,-0.714471 z "/>
<path d="M 129.904,450 m -0.357235,-0.357235 l 0,0.714471 0.714471,0 0,-0.714471 z "/>
<path d="M 207.846,467.321 m -0.357235,-0.357235 l 0,0.714471 0.714471,0 0,-0.714471 z "/>
<path d="M 181.865,422.321 m -0.357235,-0.357235 l 0,0.714471 0.714471,0 0,-0.714471 z "/>
<path d="M 155.885,467.321 m -0.357235,-0.357235 l 0,0.714471 0.714471,0 0,-0.714471 z "/>
<path d="M 233.827,450 m -0.357235,-0.357235 l 0,0.714471 0.714471,0 0,-0.714471 z "/>
<path d="M 207.846,405 m -0.357235,-0.357235 l 0,0.714471 0.714471,0 0,-0.714471 z "/>
<path d="M 181.865,450 m -0.357235,-0.357235 l 0,0.714471 0.714471,0 0,-0.714471 z "/>
<path d="M 259.808,467.321 m -0.357235,-0.357235 l 0,0.714471 0.714471,0 0,-0.714471 z "/>
<path d="M 233.827,422.321 m -0.357235,-0.357235 l 0,0.714471 0.714471,0 0,-0.714471 z "/>
<path d="M 207.846,467.321 m -0.357235,-0.357235 l 0,0.714471 0.714471,0 0,-0.714471 z "/>
<path d="M 285.788,450 m -0.357235,-0.357235 l 0,0.714471 0.714471,0 0,-0.714471 z "/>
<path d="M 259.808,405 m -0.357235,-0.357235 l 0,0.714471 0.714471,0 0,-0.714471 z "/>
<path d="M 233.827,450 m -0.357235,-0.357235 l 0,0.714471 0.714471,0 0,-0.714471 z "/>
<path d="M 311.769,467.321 m -0.357235,-0.357235 l 0,0.714471 0.714471,0 0,-0.714471 z "/>
<path d="M 285.788,422.321 m -0.357235,-0.357235 l 0,0.714471 0.714471,0 0,-0.714471 z "/>
<path d="M 259.808,467.321 m -0.357235,-0.357235 l 0,0.714471 0.714471,0 0,-0.714471 z "/>
<path d="M 337.75,450 m -0.357235,-0.357235 l 0,0.714471 0.714471,0 0,-0.714471 z "/>
<path d="M 311.769,405 m -0.357235,-0.357235 l 0,0.714471 0.714471,0 0,-0.714471 z "/>
<path d="M 285.788,450 m -0.357235,-0.357235 l 0,0.714471 0.714471,0 0,-0.714471 z "/>
<path d="M 363.731,467.321 m -0.357235,-0.357235 l 0,0.714471 0.714471,0 0,-0.714471 z "/>
<path d="M 337.75,422.321 m -0.357235,-0.357235 l 0,0.714471 0.714471,0 0,-0.714471 z "/>
<path d="M 311.769,467.321 m -0.357235,-0.357235 l 0,0.714471 0.714471,0 0,-0.714471 z "/>
<path d="M 389.711,450 m -0.357235,-0.357235 l 0,0.714471 0.714471,0 0,-0.714471 z "/>
<path d="M 363.731,405 m -0.357235,-0.357235 l 0,0.714471 0.714471,0 0,-0.714471 z "/>
<path d="M 337.75,450 m -0.357235,-0.357235 l 0,0.714471 0.714471,0 0,-0.714471 z "/>
<path d="M 415.692,467.321 m -0.357235,-0.357235 l 0,0.714471 0.714471,0 0,-0.714471 z "/>
<path d="M 389.711,422.321 m -0.357235,-0.357235 l 0,0.714471 0.714471,0 0,-0.714471 z "/>
<path d="M 363.731,467.321 m -0.357235,-0.357235 l 0,0.714471 0.714471,0 0,-0.714471 z "/>
<path d="M 441.673,450 m -0.357235,-0.357235 l 0,0.714471 0.714471,0 0,-0.714471 z "/>
<path d="M 415.692,405 m -0.357235,-0.357235 l 0,0.714471 0.714471,0 0,-0.714471 z "/>
<path d="M 389.711,450 m -0.357235,-0.357235 l 0,0.714471 0.714471,0 0,-0.714471 z "/>
<path d="M 467.654,467.321 m -0.357235,-0.357235 l 0,0.714471 0.714471,0 0,-0.714471 z "/>
<path d="M 441.673,422.321 m -0.357235,-0.357235 l 0,0.714471 0.714471,0 0,-0.714471 z "/>
<path d="M 415.692,467.321 m -0.357235,-0.357235 l 0,0.714471 0.714471,0 0,-0.714471 z "/>
<path d="M 493.634,450 m -0.357235,-0.357235 l 0,0.714471 0.714471,0 0,-0.714471 z "/>
<path d="M 467.654,405 m -0.357235,-0.357235 l 0,0.714471 0.714471,0 0,-0.714471 z "/>
<path d="M 441.673,450 m -0.357235,-0.357235 l 0,0.714471 0.714471,0 0,-0.714471 z "/>
<path d="M 519.615,467.321 m -0.357235,-0.357235 l 0,0.714471 0.714471,0 0,-0.714471 z "/>
<path d="M 493.634,422.321 m -0.357235,-0.357235 l 0,0.714471 0.714471,0 0,-0.714471 z "/>
<path d="M 467.654,467.321 m -0.357235,-0.357235 l 0,0.714471 0.714471,0 0,-0.714471 z "/>
<path d="M 545.596,450 m -0.357235,-0.357235 l 0,0.714471 0.714471,0 0,-0.714471 z "/>
<path d="M 519.615,405 m -0.357235,-0.357235 l 0,0.714471 0.714471,0 0,-0.714471 z "/>
<path d="M 493.634,450 m -0.357235,-0.357235 l 0,0.714471 0.714471,0 0,-0.714471 z "/>
<path d="M 77.9423,62.3205 l -25.9808,-45 -25.9808,45 51.9615,2.84217e-14 "/>
<path d="M 103.923,45 l -25.9808,-45 -25.9808,45 51.9615,2.13163e-14 "/>
<path d="M 129.904,62.3205 l -25.9808,-45 -25.9808,45 51.9615,2.84217e-14 "/>
<path d="M 155.885,45 l -25.9808,-45 -25.9808,45 51.9615,2.13163e-14 "/>
<path d="M 181.865,62.3205 l -25.9808,-45 -25.9808,45 51.9615,2.84217e-14 "/>
<path d="M 207.846,45 l -25.9808,-45 -25.9808,45 51.9615,2.13163e-14 "/>
<path d="M 233.827,62.3205 l -25.9808,-45 -25.9808,45 51.9615,2.84217e-14 "/>
<path d="M 259.808,45 l -25.9808,-45 -25.9808,45 51.9615,2.13163e-14 "/>
<path d="M 285.788,62.3205 l -25.9808,-45 -25.9808,45 51.9615,2.84217e-14 "/>
<path d="M 311.769,45 l -25.9808,-45 -25.9808,45 51.9615,2.13163e-14 "/>
<path d="M 337.75,62.3205 l -25.9808,-45 -25.9808,45 51.9615,2.84217e-14 "/>
<path d="M 363.731,45 l -25.9808,-45 -25.9808,45 51.9615,2.13163e-14 "/>
<path d="M 389.711,62.3205 l -25.9808,-45 -25.9808,45 51.9615,2.84217e-14 "/>
<path d="M 415.692,45 l -25.9808,-45 -25.9808,45 51.9615,2.13163e-14 "/>
<path d="M 441.673,62.3205 l -25.9808,-45 -25.9808,45 51.9615,2.84217e-14 "/>
<path d="M 467.654,45 l -25.9808,-45 -25.9808,45 51.9615,2.13163e-14 "/>
<path d="M 493.634,62.3205 l -25.9808,-45 -25.9808,45 51.9615,2.84217e-14 "/>
<path d="M 519.615,45 l -25.9808,-45 -25.9808,45 51.9615,2.13163e-14 "/>
<path d="M 545.596,62.3205 l -25.9808,-45 -25.9808,45 51.9615,2.84217e-14 "/>
<path d="M 571.577,45 l -25.9808,-45 -25.9808,45 51.9615,2.13163e-14 "/>
<path d="M 51.9615,107.321 l -25.9808,-45 -25.9808,45 51.9615,1.42109e-14 "/>
<path d="M 77.9423,90 l -25.9808,-45 -25.9808,45 51.9615,2.84217e-14 "/>
<path d="M 103.923,107.321 l -25.9808,-45 -25.9808,45 51.9615,1.42109e-14 "/>
<path d="M 129.904,90 l -25.9808,-45 -25.9808,45 51.9615,2.84217e-14 "/>
<path d="M 155.885,107.321 l -25.9808,-45 -25.9808,45 51.9615,1.42109e-14 "/>
<path d="M 181.865,90 l -25.9808,-45 -25.9808,45 51.9615,2.84217e-14 "/>
<path d="M 207.846,107.321 l -25.9808,-45 -25.9808,45 51.9615,1.42109e-14 "/>
<path d="M 233.827,90 l -25.9808,-45 -25.9808,45 51.9615,2.84217e-14 "/>
<path d="M 259.808,107.321 l -25.9808,-45 -25.9808,45 51.9615,1.42109e-14 "/>
<path d="M 285.788,90 l -25.9808,-45 -25.9808,45 51.9615,2.84217e-14 "/>
<path d="M 311.769,107.321 l -25.9808,-45 -25.9808,45 51.9615,1.42109e-14 "/>
<path d="M 337.75,90 l -25.9808,-45 -25.9808,45 51.9615,2.84217e-14 "/>
<path d="M 363.731,107.321 l -25.9808,-45 -25.9808,45 51.9615,1.42109e-14 "/>
<path d="M 389.711,90 l -25.9808,-45 -25.9808,45 51.9615,2.84217e-14 "/>
<path d="M 415.692,107.321 l -25.9808,-45 -25.9808,45 51.9615,1.42109e-14 "/>
<path d="M 441.673,90 l -25.9808,-45 -25.9808,45 51.9615,2.84217e-14 "/>
<path d="M 467.654,107.321 l -25.9808,-45 -25.9808,45 51.9615,1.42109e-14 "/>
<path d="M 493.634,90 l -25.9808,-45 -25.9808,45 51.9615,2.84217e-14 "/>
<path d="M 519.615,107.321 l -25.9808,-45 -25.9808,45 51.9615,1.42109e-14 "/>
<path d="M 545.596,90 l -25.9808,-45 -25.9808,45 51.9615,2.84217e-14 "/>
<path d="M 77.9423,152.321 l -25.9808,-45 -25.9808,45 51.9615,0 "/>
<path d="M 103.923,135 l -25.9808,-45 -25.9808,45 51.9615,0 "/>
<path d="M 129.904,152.321 l -25.9808,-45 -25.9808,45 51.9615,0 "/>
<path d="M 155.885,135 l -25.9808,-45 -25.9808,45 51.9615,0 "/>
<path d="M 181.865,152.321 l -25.9808,-45 -25.9808,45 51.9615,0 "/>
<path d="M 207.846,135 l -25.9808,-45 -25.9808,45 51.9615,0 "/>
<path d="M 233.827,152.321 l -25.9808,-45 -25.9808,45 51.9615,0 "/>
<path d="M 259.808,135 l -25.9808,-45 -25.9808,45 51.9615,0 "/>
<path d="M 285.788,152.321 l -25.9808,-45 -25.9808,45 51.9615,0 "/>
<path d="M 311.769,135 l -25.9808,-45 -25.9808,45 51.9615,0 "/>
<path d="M 337.75,152.321 l -25.9808,-45 -25.9808,45 51.9615,0 "/>
<path d="M 363.731,135 l -25.9808,-45 -25.9808,45 51.9615,0 "/>
<path d="M 389.711,152.321 l -25.9808,-45 -25.9808,45 51.9615,0 "/>
<path d="M 415.692,135 l -25.9808,-45 -25.9808,45 51.9615,0 "/>
<path d="M 441.673,152.321 l -25.9808,-45 -25.9808,45 51.9615,0 "/>
<path d="M 467.654,135 l -25.9808,-45 -25.9808,45 51.9615,0 "/>
<path d="M 493.634,152.321 l -25.9808,-45 -25.9808,45 51.9615,0 "/>
<path d="M 519.615,135 l -25.9808,-45 -25.9808,45 51.9615,0 "/>
<path d="M 545.596,152.321 l -25.9808,-45 -25.9808,45 51.9615,0 "/>
<path d="M 571.577,135 l -25.9808,-45 -25.9808,45 51.9615,0 "/>
<path d="M 51.9615,197.321 l -25.9808,-45 -25.9808,45 51.9615,2.84217e-14 "/>
<path d="M 77.9423,180 l -25.9808,-45 -25.9808,45 51.9615,2.84217e-14 "/>
<path d="M 103.923,197.321 l -25.9808,-45 -25.9808,45 51.9615,2.84217e-14 "/>
<path d="M 129.904,180 l -25.9808,-45 -25.9808,45 51.9615,2.84217e-14 "/>
<path d="M 155.885,197.321 l -25.9808,-45 -25.9808,45 51.9615,2.84217e-14 "/>
<path d="M 181.865,180 l -25.9808,-45 -25.9808,45 51.9615,2.84217e-14 "/>
<path d="M 207.846,197.321 l -25.9808,-45 -25.9808,45 51.9615,2.84217e-14 "/>
<path d="M 233.827,180 l -25.9808,-45 -25.9808,45 51.9615,2.84217e-14 "/>
<path d="M 259.808,197.321 l -25.9808,-45 -25.9808,45 51.9615,2.84217e-14 "/>
<path d="M 285.788,180 l -25.9808,-45 -25.9808,45 51.9615,2.84217e-14 "/>
<path d="M 311.769,197.321 l -25.9808,-45 -25.9808,45 51.9615,2.84217e-14 "/>
<path d="M 337.75,180 l -25.9808,-45 -25.9808,45 51.9615,2.84217e-14 "/>
<path d="M 363.731,197.321 l -25.9808,-45 -25.9808,45 51.9615,2.84217e-14 "/>
<path d="M 389.711,180 l -25.9808,-45 -25.9808,45 51.9615,2.84217e-14 "/>
<path d="M 415.692,197.321 l -25.9808,-45 -25.9808,45 51.9615,2.84217e-14 "/>
<path d="M 441.673,180 l -25.9808,-45 -25.9808,45 51.9615,2.84217e-14 "/>
<path d="M 467.654,197.321 l -25.9808,-45 -25.9808,45 51.9615,2.84217e-14 "/>
<path d="M 493.634,180 l -25.9808,-45 -25.9808,45 51.9615,2.84217e-14 "/>
<path d="M 519.615,197.321 l -25.9808,-45 -25.9808,45 51.9615,2.84217e-14 "/>
<path d="M 545.596,180 l -25.9808,-45 -25.9808,45 51.9615,2.84217e-14 "/>
<path d="M 77.9423,242.321 l -25.9808,-45 -25.9808,45 51.9615,2.84217e-14 "/>
<path d="M 103.923,225 l -25.9808,-45 -25.9808,45 51.9615,2.84217e-14 "/>
<path d="M 129.904,242.321 l -25.9808,-45 -25.9808,45 51.9615,2.84217e-14 "/>
<path d="M 155.885,225 l -25.9808,-45 -25.9808,45 51.9615,2.84217e-14 "/>
<path d="M 181.865,242.321 l -25.9808,-45 -25.9808,45 51.9615,2.84217e-14 "/>
<path d="M 207.846,225 l -25.9808,-45 -25.9808,45 51.9615,2.84217e-14 "/>
<path d="M 233.827,242.321 l -25.9808,-45 -25.9808,45 51.9615,2.84217e-14 "/>
<path d="M 259.808,225 l -25.9808,-45 -25.9808,45 51.9615,2.84217e-14 "/>
<path d="M 285.788,242.321 l -25.9808,-45 -25.9808,45 51.9615,2.84217e-14 "/>
<path d="M 311.769,225 l -25.9808,-45 -25.9808,45 51.9615,2.84217e-14 "/>
<path d="M 337.75,242.321 l -25.9808,-45 -25.9808,45 51.9615,2.84217e-14 "/>
<path d="M 363.731,225 l -25.9808,-45 -25.9808,45 51.9615,2.84217e-14 "/>
<path d="M 389.711,242.321 l -25.9808,-45 -25.9808,45 51.9615,2.84217e-14 "/>
<path d="M 415.692,225 l -25.9808,-45 -25.9808,45 51.9615,2.84217e-14 "/>
<path d="M 441.673,242.321 l -25.9808,-45 -25.9808,45 51.9615,2.84217e-14 "/>
<path d="M 467.654,225 l -25.9808,-45 -25.9808,45 51.9615,2.84217e-14 "/>
<path d="M 493.634,242.321 l -25.9808,-45 -25.9808,45 51.9615,2.84217e-14 "/>
<path d="M 519.615,225 l -25.9808,-45 -25.9808,45 51.9615,2.84217e-14 "/>
<path d="M 545.596,242.321 l -25.9808,-45 -25.9808,45 51.9615,2.84217e-14 "/>
<path d="M 571.577,225 l -25.9808,-45 -25.9808,45 51.9615,2.84217e-14 "/>
<path d="M 51.9615,287.321 l -25.9808,-45 -25.9808,45 51.9615,5.68434e-14 "/>
<path d="M 77.9423,270 l -25.9808,-45 -25.9808,45 51.9615,0 "/>
<path d="M 103.923,287.321 l -25.9808,-45 -25.9808,45 51.9615,5.68434e-14 "/>
<path d="M 129.904,270 l -25.9808,-45 -25.9808,45 51.9615,0 "/>
<path d="M 155.885,287.321 l -25.9808,-45 -25.9808,45 51.9615,5.68434e-14 "/>
<path d="M 181.865,270 l -25.9808,-45 -25.9808,45 51.9615,0 "/>
<path d="M 207.846,287.321 l -25.9808,-45 -25.9808,45 51.9615,5.68434e-14 "/>
<path d="M 233.827,270 l -25.9808,-45 -25.9808,45 51.9615,0 "/>
<path d="M 259.808,287.321 l -25.9808,-45 -25.9808,45 51.9615,5.68434e-14 "/>
<path d="M 285.788,270 l -25.9808,-45 -25.9808,45 51.9615,0 "/>
<path d="M 311.769,287.321 l -25.9808,-45 -25.9808,45 51.9615,5.68434e-14 "/>
<path d="M 337.75,270 l -25.9808,-45 -25.9808,45 51.9615,0 "/>
<path d="M 363.731,287.321 l -25.9808,-45 -25.9808,45 51.9615,5.68434e-14 "/>
<path d="M 389.711,270 l -25.9808,-45 -25.9808,45 51.9615,0 "/>
<path d="M 415.692,287.321 l -25.9808,-45 -25.9808,45 51.9615,5.68434e-14 "/>
<path d="M 441.673,270 l -25.9808,-45 -25.9808,45 51.9615,0 "/>
<path d="M 467.654,287.321 l -25.9808,-45 -25.9808,45 51.9615,5.68434e-14 "/>
<path d="M 493.634,270 l -25.9808,-45 -25.9808,45 51.9615,0 "/>
<path d="M 519.615,287.321 l -25.9808,-45 -25.9808,45 51.9615,5.68434e-14 "/>
<path d="M 545.596,270 l -25.9808,-45 -25.9808,45 51.9615,0 "/>
<path d="M 77.9423,332.321 l -25.9808,-45 -25.9808,45 51.9615,0 "/>
<path d="M 103.923,315 l -25.9808,-45 -25.9808,45 51.9615,5.68434e-14 "/>
<path d="M 129.904,332.321 l -25.9808,-45 -25.9808,45 51.9615,0 "/>
<path d="M 155.885,315 l -25.9808,-45 -25.9808,45 51.9615,5.68434e-14 "/>
<path d="M 181.865,332.321 l -25.9808,-45 -25.9808,45 51.9615,0 "/>
<path d="M 207.846,315 l -25.9808,-45 -25.9808,45 51.9615,5.68434e-14 "/>
<path d="M 233.827,332.321 l -25.9808,-45 -25.9808,45 51.9615,0 "/>
<path d="M 259.808,315 l -25.9808,-45 -25.9808,45 51.9615,5.68434e-14 "/>
<path d="M 285.788,332.321 l -25.9808,-45 -25.9808,45 51.9615,0 "/>
<path d="M 311.769,315 l -25.9808,-45 -25.9808,45 51.9615,5.68434e-14 "/>
<path d="M 337.75,332.321 l -25.9808,-45 -25.9808,45 51.9615,0 "/>
<path d="M 363.731,315 l -25.9808,-45 -25.9808,45 51.9615,5.68434e-14 "/>
<path d="M 389.711,332.321 l -25.9808,-45 -25.9808,45 51.9615,0 "/>
<path d="M 415.692,315 l -25.9808,-45 -25.9808,45 51.9615,5.68434e-14 "/>
<path d="M 441.673,332.321 l -25.9808,-45 -25.9808,45 51.9615,0 "/>
<path d="M 467.654,315 l -25.9808,-45 -25.9808,45 51.9615,5.68434e-14 "/>
<path d="M 493.634,332.321 l -25.9808,-45 -25.9808,45 51.9615,0 "/>
<path d="M 519.615,315 l -25.9808,-45 -25.9808,45 51.9615,5.68434e-14 "/>
<path d="M 545.596,332.321 l -25.9808,-45 -25.9808,45 51.9615,0 "/>
<path d="M 571.577,315 l -25.9808,-45 -25.9808,45 51.9615,5.68434e-14 "/>
<path d="M 51.9615,377.321 l -25.9808,-45 -25.9808,45 51.9615,0 "/>
<path d="M 77.9423,360 l -25.9808,-45 -25.9808,45 51.9615,0 "/>
<path d="M 103.923,377.321 l -25.9808,-45 -25.9808,45 51.9615,0 "/>
<path d="M 129.904,360 l -25.9808,-45 -25.9808,45 51.9615,0 "/>
<path d="M 155.885,377.321 l -25.9808,-45 -25.9808,45 51.9615,0 "/>
<path d="M 181.865,360 l -25.9808,-45 -25.9808,45 51.9615,0 "/>
<path d="M 207.846,377.321 l -25.9808,-45 -25.9808,45 51.9615,0 "/>
<path d="M 233.827,360 l -25.9808,-45 -25.9808,45 51.9615,0 "/>
<path d="M 259.808,377.321 l -25.9808,-45 -25.9808,45 51.9615,0 "/>
<path d="M 285.788,360 l -25.9808,-45 -25.9808,45 51.9615,0 "/>
<path d="M 311.769,377.321 l -25.9808,-45 -25.9808,45 51.9615,0 "/>
<path d="M 337.75,360 l -25.9808,-45 -25.9808,45 51.9615,0 "/>
<path d="M 363.731,377.321 l -25.9808,-45 -25.9808,45 51.9615,0 "/>
<path d="M 389.711,360 l -25.9808,-45 -25.9808,45 51.9615,0 "/>
<path d="M 415.692,377.321 l -25.9808,-45 -25.9808,45 51.9615,0 "/>
<path d="M 441.673,360 l -25.9808,-45 -25.9808,45 51.9615,0 "/>
<path d="M 467.654,377.321 l -25.9808,-45 -25.9808,45 51.9615,0 "/>
<path d="M 493.634,360 l -25.9808,-45 -25.9808,45 51.9615,0 "/>
<path d="M 519.615,377.321 l -25.9808,-45 -25.9808,45 51.9615,0 "/>
<path d="M 545.596,360 l -25.9808,-45 -25.9808,45 51.9615,0 "/>
<path d="M 77.9423,422.321 l -25.9808,-45 -25.9808,45 51.9615,0 "/>
<path d="M 103.923,405 l -25.9808,-45 -25.9808,45 51.9615,0 "/>
<path d="M 129.904,422.321 l -25.9808,-45 -25.9808,45 51.9615,0 "/>
<path d="M 155.885,405 l -25.9808,-45 -25.9808,45 51.9615,0 "/>
<path d="M 181.865,422.321 l -25.9808,-45 -25.9808,45 51.9615,0 "/>
<path d="M 207.846,405 l -25.9808,-45 -25.9808,45 51.9615,0 "/>
<path d="M 233.827,422.321 l -25.9808,-45 -25.9808,45 51.9615,0 "/>
<path d="M 259.808,405 l -25.9808,-45 -25.9808,45 51.9615,0 "/>
<path d="M 285.788,422.321 l -25.9808,-45 -25.9808,45 51.9615,0 "/>
<path d="M 311.769,405 l -25.9808,-45 -25.9808,45 51.9615,0 "/>
<path d="M 337.75,422.321 l -25.9808,-45 -25.9808,45 51.9615,0 "/>
<path d="M 363.731,405 l -25.9808,-45 -25.9808,45 51.9615,0 "/>
<path d="M 389.711,422.321 l -25.9808,-45 -25.9808,45 51.9615,0 "/>
<path d="M 415.692,405 l -25.9808,-45 -25.9808,45 51.9615,0 "/>
<path d="M 441.673,422.321 l -25.9808,-45 -25.9808,45 51.9615,0 "/>
<path d="M 467.654,405 l -25.9808,-45 -25.9808,45 51.9615,0 "/>
<path d="M 493.634,422.321 l -25.9808,-45 -25.9808,45 51.9615,0 "/>
<path d="M 519.615,405 l -25.9808,-45 -25.9808,45 51.9615,0 "/>
<path d="M 545.596,422.321 l -25.9808,-45 -25.9808,45 51.9615,0 "/>
<path d="M 571.577,405 l -25.9808,-45 -25.9808,45 51.9615,0 "/>
<path d="M 51.9615,467.321 l -25.9808,-45 -25.9808,45 51.9615,0 "/>
<path d="M 77.9423,450 l -25.9808,-45 -25.9808,45 51.9615,0 "/>
<path d="M 103.923,467.321 l -25.9808,-45 -25.9808,45 51.9615,0 "/>
<path d="M 129.904,450 l -25.9808,-45 -25.9808,45 51.9615,0 "/>
<path d="M 155.885,467.321 l -25.9808,-45 -25.9808,45 51.9615,0 "/>
<path d="M 181.865,450 l -25.9808,-45 -25.9808,45 51.9615,0 "/>
<path d="M 207.846,467.321 l -25.9808,-45 -25.9808,45 51.9615,0 "/>
<path d="M 233.827,450 l -25.9808,-45 -25.9808,45 51.9615,0 "/>
<path d="M 259.808,467.321 l -25.9808,-45 -25.9808,45 51.9615,0 "/>
<path d="M 285.788,450 l -25.9808,-45 -25.9808,45 51.9615,0 "/>
<path d="M 311.769,467.321 l -25.9808,-45 -25.9808,45 51.9615,0 "/>
<path d="M 337.75,450 l -25.9808,-45 -25.9808,45 51.9615,0 "/>
<path d="M 363.731,467.321 l -25.9808,-45 -25.9808,45 51.9615,0 "/>
<path d="M 389.711,450 l -25.9808,-45 -25.9808,45 51.9615,0 "/>
<path d="M 415.692,467.321 l -25.9808,-45 -25.9808,45 51.9615,0 "/>
<path d="M 441.673,450 l -25.9808,-45 -25.9808,45 51.9615,0 "/>
<path d="M 467.654,467.321 l -25.9808,-45 -25.9808,45 51.9615,0 "/>
<path d="M 493.634,450 l -25.9808,-45 -25.9808,45 51.9615,0 "/>
<path d="M 519.615,467.321 l -25.9808,-45 -25.9808,45 51.9615,0 "/>
<path d="M 545.596,450 l -25.9808,-45 -25.9808,45 51.9615,0 "/>
</g></g></svg>