<?xml version="1.0" encoding="UTF-8" standalone="no"?>
<!DOCTYPE svg PUBLIC "-//W3C//DTD SVG 1.1//EN" "http://www.w3.org/Graphics/SVG/1.1/DTD/svg11-flat.dtd"
[
<!ATTLIST g xmlns:fme CDATA #FIXED "http://www.safe.com/fme" >
<!ATTLIST path fme:_creation_instance CDATA #IMPLIED fme:i CDATA #IMPLIED >
<!ATTLIST ellipse fme:_creation_instance CDATA #IMPLIED fme:i CDATA #IMPLIED >
<!ATTLIST text fme:_creation_instance CDATA #IMPLIED fme:i CDATA #IMPLIED >
<!ATTLIST use fme:_creation_instance CDATA #IMPLIED fme:i CDATA #IMPLIED >
]>
<svg xmlns="http://www.w3.org/2000/svg"  viewBox="-4.5 -4.5 369 369"><g xmlns:fme="http://www.safe.com/fme" fill="none" stroke="black" stroke-width="0.045" transform="translate(0,360) scale(1, -1)">
<g id="test" >
<path d="M 18,3.55271e-15 l 18,18 -18,18 -18,-18 18,-18 "/>
<path d="M 18,9 l 9,9 -9,9 -9,-9 9,-9 "/>
<path d="M 18,36 l 18,18 -18,18 -18,-18 18,-18 "/>
<path d="M 18,45 l 9,9 -9,9 -9,-9 9,-9 "/>
<path d="M 18,72 l 18,18 -18,18 -18,-18 18,-18 "/>
<path d="M 18,81 l 9,9 -9,9 -9,-9 9,-9 "/>
<path d="M 18,108 l 18,18 -18,18 -18,-18 18,-18 "/>
<path d="M 18,117 l 9,9 -9,9 -9,-9 9,-9 "/>
<path d="M 18,144 l 18,18 -18,18 -18,-18 18,-18 "/>
<path d="M 18,153 l 9,9 -9,9 -9,-9 9,-9 "/>
<path d="M 18,180 l 18,18 -18,18 -18,-18 18,-18 "/>
<path d="M 18,189 l 9,9 -9,9 -9,-9 9,-9 "/>
<path d="M 18,216 l 18,18 -18,18 -18,-18 18,-18 "/>
<path d="M 18,225 l 9,9 -9,9 -9,-9 9,-9 "/>
<path d="M 18,252 l 18,18 -18,18 -18,-18 18,-18 "/>
<path d="M 18,261 l 9,9 -9,9 -9,-9 9,-9 "/>
<path d="M 18,288 l 18,18 -18,18 -18,-18 18,-18 "/>
<path d="M 18,297 l 9,9 -9,9 -9,-9 9,-9 "/>
<path d="M 18,324 l 18,18 -18,18 -18,-18 18,-18 "/>
<path d="M 18,333 l 9,9 -9,9 -9,-9 9,-9 "/>
<path d="M 54,0 l 18,18 -18,18 -18,-18 18,-18 "/>
<path d="M 54,9 l 9,9 -9,9 -9,-9 9,-9 "/>
<path d="M 54,36 l 18,18 -18,18 -18,-18 18,-18 "/>
<path d="M 54,45 l 9,9 -9,9 -9,-9 9,-9 "/>
<path d="M 54,72 l 18,18 -18,18 -18,-18 18,-18 "/>
<path d="M 54,81 l 9,9 -9,9 -9,-9 9,-9 "/>
<path d="M 54,108 l 18,18 -18,18 -18,-18 18,-18 "/>
<path d="M 54,117 l 9,9 -9,9 -9,-9 9,-9 "/>
<path d="M 54,144 l 18,18 -18,18 -18,-18 18,-18 "/>
<path d="M 54,153 l 9,9 -9,9 -9,-9 9,-9 "/>
<path d="M 54,180 l 18,18 -18,18 -18,-18 18,-18 "/>
<path d="M 54,189 l 9,9 -9,9 -9,-9 9,-9 "/>
<path d="M 54,216 l 18,18 -18,18 -18,-18 18,-18 "/>
<path d="M 54,225 l 9,9 -9,9 -9,-9 9,-9 "/>
<path d="M 54,252 l 18,18 -18,18 -18,-18 18,-18 "/>
<path d="M 54,261 l 9,9 -9,9 -9,-9 9,-9 "/>
<path d="M 54,288 l 18,18 -18,18 -18,-18 18,-18 "/>
<path d="M 54,297 l 9,9 -9,9 -9,-9 9,-9 "/>
<path d="M 54,324 l 18,18 -18,18 -18,-18 18,-18 "/>
<path d="M 54,333 l 9,9 -9,9 -9,-9 9,-9 "/>
<path d="M 90,0 l 18,18 -18,18 -18,-18 18,-18 "/>
<path d="M 90,9 l 9,9 -9,9 -9,-9 9,-9 "/>
<path d="M 90,36 l 18,18 -18,18 -18,-18 18,-18 "/>
<path d="M 90,45 l 9,9 -9,9 -9,-9 9,-9 "/>
<path d="M 90,72 l 18,18 -18,18 -18,-18 18,-18 "/>
<path d="M 90,81 l 9,9 -9,9 -9,-9 9,-9 "/>
<path d="M 90,108 l 18,18 -18,18 -18,-18 18,-18 "/>
<path d="M 90,117 l 9,9 -9,9 -9,-9 9,-9 "/>
<path d="M 90,144 l 18,18 -18,18 -18,-18 18,-18 "/>
<path d="M 90,153 l 9,9 -9,9 -9,-9 9,-9 "/>
<path d="M 90,180 l 18,18 -18,18 -18,-18 18,-18 "/>
<path d="M 90,189 l 9,9 -9,9 -9,-9 9,-9 "/>
<path d="M 90,216 l 18,18 -18,18 -18,-18 18,-18 "/>
<path d="M 90,225 l 9,9 -9,9 -9,-9 9,-9 "/>
<path d="M 90,252 l 18,18 -18,18 -18,-18 18,-18 "/>
<path d="M 90,261 l 9,9 -9,9 -9,-9 9,-9 "/>
<path d="M 90,288 l 18,18 -18,18 -18,-18 18,-18 "/>
<path d="M 90,297 l 9,9 -9,9 -9,-9 9,-9 "/>
<path d="M 90,324 l 18,18 -18,18 -18,-18 18,-18 "/>
<path d="M 90,333 l 9,9 -9,9 -9,-9 9,-9 "/>
<path d="M 126,1.06581e-14 l 18,18 -18,18 -18,-18 18,-18 "/>
<path d="M 126,9 l 9,9 -9,9 -9,-9 9,-9 "/>
<path d="M 126,36 l 18,18 -18,18 -18,-18 18,-18 "/>
<path d="M 126,45 l 9,9 -9,9 -9,-9 9,-9 "/>
<path d="M 126,72 l 18,18 -18,18 -18,-18 18,-18 "/>
<path d="M 126,81 l 9,9 -9,9 -9,-9 9,-9 "/>
<path d="M 126,108 l 18,18 -18,18 -18,-18 18,-18 "/>
<path d="M 126,117 l 9,9 -9,9 -9,-9 9,-9 "/>
<path d="M 126,144 l 18,18 -18,18 -18,-18 18,-18 "/>
<path d="M 126,153 l 9,9 -9,9 -9,-9 9,-9 "/>
<path d="M 126,180 l 18,18 -18,18 -18,-18 18,-18 "/>
<path d="M 126,189 l 9,9 -9,9 -9,-9 9,-9 "/>
<path d="M 126,216 l 18,18 -18,18 -18,-18 18,-18 "/>
<path d="M 126,225 l 9,9 -9,9 -9,-9 9,-9 "/>
<path d="M 126,252 l 18,18 -18,18 -18,-18 18,-18 "/>
<path d="M 126,261 l 9,9 -9,9 -9,-9 9,-9 "/>
<path d="M 126,288 l 18,18 -18,18 -18,-18 18,-18 "/>
<path d="M 126,297 l 9,9 -9,9 -9,-9 9,-9 "/>
<path d="M 126,324 l 18,18 -18,18 -18,-18 18,-18 "/>
<path d="M 126,333 l 9,9 -9,9 -9,-9 9,-9 "/>
<path d="M 162,1.06581e-14 l 18,18 -18,18 -18,-18 18,-18 "/>
<path d="M 162,9 l 9,9 -9,9 -9,-9 9,-9 "/>
<path d="M 162,36 l 18,18 -18,18 -18,-18 18,-18 "/>
<path d="M 162,45 l 9,9 -9,9 -9,-9 9,-9 "/>
<path d="M 162,72 l 18,18 -18,18 -18,-18 18,-18 "/>
<path d="M 162,81 l 9,9 -9,9 -9,-9 9,-9 "/>
<path d="M 162,108 l 18,18 -18,18 -18,-18 18,-18 "/>
<path d="M 162,117 l 9,9 -9,9 -9,-9 9,-9 "/>
<path d="M 162,144 l 18,18 -18,18 -18,-18 18,-18 "/>
<path d="M 162,153 l 9,9 -9,9 -9,-9 9,-9 "/>
<path d="M 162,180 l 18,18 -18,18 -18,-18 18,-18 "/>
<path d="M 162,189 l 9,9 -9,9 -9,-9 9,-9 "/>
<path d="M 162,216 l 18,18 -18,18 -18,-18 18,-18 "/>
<path d="M 162,225 l 9,9 -9,9 -9,-9 9,-9 "/>
<path d="M 162,252 l 18,18 -18,18 -18,-18 18,-18 "/>
<path d="M 162,261 l 9,9 -9,9 -9,-9 9,-9 "/>
<path d="M 162,288 l 18,18 -18,18 -18,-18 18,-18 "/>
<path d="M 162,297 l 9,9 -9,9 -9,-9 9,-9 "/>
<path d="M 162,324 l 18,18 -18,18 -18,-18 18,-18 "/>
<path d="M 162,333 l 9,9 -9,9 -9,-9 9,-9 "/>
<path d="M 198,1.06581e-14 l 18,18 -18,18 -18,-18 18,-18 "/>
<path d="M 198,9 l 9,9 -9,9 -9,-9 9,-9 "/>
<path d="M 198,36 l 18,18 -18,18 -18,-18 18,-18 "/>
<path d="M 198,45 l 9,9 -9,9 -9,-9 9,-9 "/>
<path d="M 198,72 l 18,18 -18,18 -18,-18 18,-18 "/>
<path d="M 198,81 l 9,9 -9,9 -9,-9 9,-9 "/>
<path d="M 198,108 l 18,18 -18,18 -18,-18 18,-18 "/>
<path d="M 198,117 l 9,9 -9,9 -9,-9 9,-9 "/>
<path d="M 198,144 l 18,18 -18,18 -18,-18 18,-18 "/>
<path d="M 198,153 l 9,9 -9,9 -9,-9 9,-9 "/>
<path d="M 198,180 l 18,18 -18,18 -18,-18 18,-18 "/>
<path d="M 198,189 l 9,9 -9,9 -9,-9 9,-9 "/>
<path d="M 198,216 l 18,18 -18,18 -18,-18 18,-18 "/>
<path d="M 198,225 l 9,9 -9,9 -9,-9 9,-9 "/>
<path d="M 198,252 l 18,18 -18,18 -18,-18 18,-18 "/>
<path d="M 198,261 l 9,9 -9,9 -9,-9 9,-9 "/>
<path d="M 198,288 l 18,18 -18,18 -18,-18 18,-18 "/>
<path d="M 198,297 l 9,9 -9,9 -9,-9 9,-9 "/>
<path d="M 198,324 l 18,18 -18,18 -18,-18 18,-18 "/>
<path d="M 198,333 l 9,9 -9,9 -9,-9 9,-9 "/>
<path d="M 234,1.06581e-14 l 18,18 -18,18 -18,-18 18,-18 "/>
<path d="M 234,9 l 9,9 -9,9 -9,-9 9,-9 "/>
<path d="M 234,36 l 18,18 -18,18 -18,-18 18,-18 "/>
<path d="M 234,45 l 9,9 -9,9 -9,-9 9,-9 "/>
<path d="M 234,72 l 18,18 -18,18 -18,-18 18,-18 "/>
<path d="M 234,81 l 9,9 -9,9 -9,-9 9,-9 "/>
<path d="M 234,108 l 18,18 -18,18 -18,-18 18,-18 "/>
<path d="M 234,117 l 9,9 -9,9 -9,-9 9,-9 "/>
<path d="M 234,144 l 18,18 -18,18 -18,-18 18,-18 "/>
<path d="M 234,153 l 9,9 -9,9 -9,-9 9,-9 "/>
<path d="M 234,180 l 18,18 -18,18 -18,-18 18,-18 "/>
<path d="M 234,189 l 9,9 -9,9 -9,-9 9,-9 "/>
<path d="M 234,216 l 18,18 -18,18 -18,-18 18,-18 "/>
<path d="M 234,225 l 9,9 -9,9 -9,-9 9,-9 "/>
<path d="M 234,252 l 18,18 -18,18 -18,-18 18,-18 "/>
<path d="M 234,261 l 9,9 -9,9 -9,-9 9,-9 "/>
<path d="M 234,288 l 18,18 -18,18 -18,-18 18,-18 "/>
<path d="M 234,297 l 9,9 -9,9 -9,-9 9,-9 "/>
<path d="M 234,324 l 18,18 -18,18 -18,-18 18,-18 "/>
<path d="M 234,333 l 9,9 -9,9 -9,-9 9,-9 "/>
<path d="M 270,1.06581e-14 l 18,18 -18,18 -18,-18 18,-18 "/>
<path d="M 270,9 l 9,9 -9,9 -9,-9 9,-9 "/>
<path d="M 270,36 l 18,18 -18,18 -18,-18 18,-18 "/>
<path d="M 270,45 l 9,9 -9,9 -9,-9 9,-9 "/>
<path d="M 270,72 l 18,18 -18,18 -18,-18 18,-18 "/>
<path d="M 270,81 l 9,9 -9,9 -9,-9 9,-9 "/>
<path d="M 270,108 l 18,18 -18,18 -18,-18 18,-18 "/>
<path d="M 270,117 l 9,9 -9,9 -9,-9 9,-9 "/>
<path d="M 270,144 l 18,18 -18,18 -18,-18 18,-18 "/>
<path d="M 270,153 l 9,9 -9,9 -9,-9 9,-9 "/>
<path d="M 270,180 l 18,18 -18,18 -18,-18 18,-18 "/>
<path d="M 270,189 l 9,9 -9,9 -9,-9 9,-9 "/>
<path d="M 270,216 l 18,18 -18,18 -18,-18 18,-18 "/>
<path d="M 270,225 l 9,9 -9,9 -9,-9 9,-9 "/>
<path d="M 270,252 l 18,18 -18,18 -18,-18 18,-18 "/>
<path d="M 270,261 l 9,9 -9,9 -9,-9 9,-9 "/>
<path d="M 270,288 l 18,18 -18,18 -18,-18 18,-18 "/>
<path d="M 270,297 l 9,9 -9,9 -9,-9 9,-9 "/>
<path d="M 270,324 l 18,18 -18,18 -18,-18 18,-18 "/>
<path d="M 270,333 l 9,9 -9,9 -9,-9 9,-9 "/>
<path d="M 306,1.06581e-14 l 18,18 -18,18 -18,-18 18,-18 "/>
<path d="M 306,9 l 9,9 -9,9 -9,-9 9,-9 "/>
<path d="M 306,36 l 18,18 -18,18 -18,-18 18,-18 "/>
<path d="M 306,45 l 9,9 -9,9 -9,-9 9,-9 "/>
<path d="M 306,72 l 18,18 -18,18 -18,-18 18,-18 "/>
<path d="M 306,81 l 9,9 -9,9 -9,-9 9,-9 "/>
<path d="M 306,108 l 18,18 -18,18 -18,-18 18,-18 "/>
<path d="M 306,117 l 9,9 -9,9 -9,-9 9,-9 "/>
<path d="M 306,144 l 18,18 -18,18 -18,-18 18,-18 "/>
<path d="M 306,153 l 9,9 -9,9 -9,-9 9,-9 "/>
<path d="M 306,180 l 18,18 -18,18 -18,-18 18,-18 "/>
<path d="M 306,189 l 9,9 -9,9 -9,-9 9,-9 "/>
<path d="M 306,216 l 18,18 -18,18 -18,-18 18,-18 "/>
<path d="M 306,225 l 9,9 -9,9 -9,-9 9,-9 "/>
<path d="M 306,252 l 18,18 -18,18 -18,-18 18,-18 "/>
<path d="M 306,261 l 9,9 -9,9 -9,-9 9,-9 "/>
<path d="M 306,288 l 18,18 -18,18 -18,-18 18,-18 "/>
<path d="M 306,297 l 9,9 -9,9 -9,-9 9,-9 "/>
<path d="M 306,324 l 18,18 -18,18 -18,-18 18,-18 "/>
<path d="M 306,333 l 9,9 -9,9 -9,-9 9,-9 "/>
<path d="M 342,1.06581e-14 l 18,18 -18,18 -18,-18 18,-18 "/>
<path d="M 342,9 l 9,9 -9,9 -9,-9 9,-9 "/>
<path d="M 342,36 l 18,18 -18,18 -18,-18 18,-18 "/>
<path d="M 342,45 l 9,9 -9,9 -9,-9 9,-9 "/>
<path d="M 342,72 l 18,18 -18,18 -18,-18 18,-18 "/>
<path d="M 342,81 l 9,9 -9,9 -9,-9 9,-9 "/>
<path d="M 342,108 l 18,18 -18,18 -18,-18 18,-18 "/>
<path d="M 342,117 l 9,9 -9,9 -9,-9 9,-9 "/>
<path d="M 342,144 l 18,18 -18,18 -18,-18 18,-18 "/>
<path d="M 342,153 l 9,9 -9,9 -9,-9 9,-9 "/>
<path d="M 342,180 l 18,18 -18,18 -18,-18 18,-18 "/>
<path d="M 342,189 l 9,9 -9,9 -9,-9 9,-9 "/>
<path d="M 342,216 l 18,18 -18,18 -18,-18 18,-18 "/>
<path d="M 342,225 l 9,9 -9,9 -9,-9 9,-9 "/>
<path d="M 342,252 l 18,18 -18,18 -18,-18 18,-18 "/>
<path d="M 342,261 l 9,9 -9,9 -9,-9 9,-9 "/>
<path d="M 342,288 l 18,18 -18,18 -18,-18 18,-18 "/>
<path d="M 342,297 l 9,9 -9,9 -9,-9 9,-9 "/>
<path d="M 342,324 l 18,18 -18,18 -18,-18 18,-18 "/>
<path d="M 342,333 l 9,9 -9,9 -9,-9 9,-9 "/>
</g></g></svg>