<?xml version="1.0" encoding="UTF-8" standalone="no"?>
<!DOCTYPE svg PUBLIC "-//W3C//DTD SVG 1.1//EN" "http://www.w3.org/Graphics/SVG/1.1/DTD/svg11-flat.dtd"
[
<!ATTLIST g xmlns:fme CDATA #FIXED "http://www.safe.com/fme" >
<!ATTLIST path fme:_creation_instance CDATA #IMPLIED fme:i CDATA #IMPLIED >
<!ATTLIST ellipse fme:_creation_instance CDATA #IMPLIED fme:i CDATA #IMPLIED >
<!ATTLIST text fme:_creation_instance CDATA #IMPLIED fme:i CDATA #IMPLIED >
<!ATTLIST use fme:_creation_instance CDATA #IMPLIED fme:i CDATA #IMPLIED >
]>
<svg xmlns="http://www.w3.org/2000/svg"  viewBox="-0.0813318 -0.0813318 10.9164 5.04257"><g xmlns:fme="http://www.safe.com/fme" fill="none" stroke="black" stroke-width="0.000813318299171" transform="translate(0,4.87991) scale(1, -1)">
<g id="test" >
<path fme:_creation_instance="0" d="M 1.55281,4.45722 l -0.435134,0.42123 -0.413403,-1.37779 0.848537,0.956559 z "/>
<path fme:_creation_instance="0" d="M 2.9331,4.87991 l 0.0632598,-1.5924 0.333835,-0.337889 -0.397095,1.93028 z "/>
<path fme:_creation_instance="0" d="M 2.99636,3.28751 l -0.110207,-0.612205 0.444042,0.274316 -0.333835,0.337889 z "/>
<path fme:_creation_instance="0" d="M 1.11767,4.87845 l 0.544655,-0.0403734 1.27077,0.0418351 -1.81542,-0.00146169 z "/>
<path fme:_creation_instance="0" d="M 1.55281,4.45722 l 0.109522,0.380856 -0.544655,0.0403734 0.435134,-0.42123 z "/>
<path fme:_creation_instance="0" d="M 2.31483,4.74953 l 0.681525,-1.46201 -0.0632598,1.5924 -0.618265,-0.130381 z "/>
<path fme:_creation_instance="0" d="M 2.99636,3.28751 l -0.681525,1.46201 -0.762025,-0.292311 1.44355,-1.1697 z "/>
<path fme:_creation_instance="0" d="M 1.66233,4.83807 l 0.652503,-0.0885456 0.618265,0.130381 -1.27077,-0.0418351 z "/>
<path fme:_creation_instance="0" d="M 2.31483,4.74953 l -0.652503,0.0885456 -0.109522,-0.380856 0.762025,0.292311 z "/>
<path fme:_creation_instance="0" d="M 2.17983,2.74936 l -0.627027,1.70786 -0.848537,-0.956559 1.47556,-0.751302 z "/>
<path fme:_creation_instance="0" d="M 2.17983,2.74936 l 0.816523,0.538158 -1.44355,1.1697 0.627027,-1.70786 z "/>
<path fme:_creation_instance="0" d="M 2.99636,3.28751 l -0.816523,-0.538158 0.706316,-0.0740473 0.110207,0.612205 z "/>
<path fme:_creation_instance="0" d="M 3.89224,2.22976 l -0.382559,-1.0177 0.784862,0.131849 -0.402304,0.885853 z M 7.80293,2.33446 l -0.0861092,-0.0887278 0.085994,-0.643721 0.000115193,0.732449 z M 7.71206,2.528 l -0.432753,0.677917 -0.135836,-1.12149 -0.110549,-1.77585 -0.000906141,-0.00857403 -0.00164132,-0.0084641 -0.0023643,-0.00829127 -0.0030697,-0.0080568 -0.00375228,-0.00776243 -0.00440697,-0.00741037 -0.0050289,-0.00700322 -0.00561345,-0.00654401 -0.00615628,-0.00603616 -0.00665334,-0.00548344 -0.00710094,-0.00488996 -0.00749575,-0.00426013 -0.00783485,-0.00359863 -0.00811571,-0.00291038 -0.00833624,-0.00220049 -0.0084948,-0.00147425 -0.00859021,-0.000737048 -0.00862177,5.6322e-06 -0.00858924,0.00074827 -0.00849286,0.00148535 -0.00833335,0.00221138 -0.0081119,0.00292098 -0.00783014,0.00360886 -0.00749018,0.00426992 -2.21576,1.393 -0.00689918,0.00475187 -0.00647725,0.00531265 -0.00600985,0.00583615 -0.00550028,0.00631869 -0.00495211,0.00675689 -0.00436919,0.00714767 -0.0037556,0.00748829 -0.00311566,0.00777635 -0.00245385,0.00800984 -0.00177482,0.00818712 -0.00108333,0.00830695 -0.000384247,0.00836847 0.000317538,0.00837127 0.00101709,0.00831532 0.00170951,0.00820101 0.00238993,0.00802915 0.00305358,0.00780094 0.0036958,0.00751798 0.00431208,0.00718227 0.0048981,0.00679614 0.00544975,0.00636233 0.00596315,0.00588386 0.0064347,0.00536411 0.00686109,0.0048067 0.99726,0.638105 -1.69248,0.115947 0.562183,-1.2379 0.00325433,-0.0080842 0.00253813,-0.00833684 0.00180266,-0.00852616 0.0010535,-0.00865073 0.000296333,-0.0087096 -0.000463082,-0.00870233 -0.00121898,-0.00862897 -0.00196562,-0.00849007 -0.00269733,-0.0082867 -0.00340856,-0.00802039 -0.0040939,-0.00769317 -0.00474815,-0.00730753 -0.00536634,-0.00686639 -0.00594378,-0.0063731 -0.00647607,-0.00583142 -0.00695919,-0.00524544 -0.00738945,-0.00461963 -0.00776359,-0.00395874 -0.00807877,-0.00326778 -0.0083326,-0.00255201 -0.00852315,-0.00181685 -1.08441,-0.18217 -0.00831983,-0.0010412 -0.00837781,-0.000340562 -0.00837689,0.000362473 -0.00831707,0.00106296 -0.00819879,0.00175597 -0.00802287,0.00243664 -0.00779054,0.00310018 -0.00750344,0.00374193 -0.00716359,0.00435736 -0.00677338,0.00494216 -0.00633554,0.00549222 -0.00585317,0.00600367 -0.00532965,0.0064729 -0.00476866,0.00689663 -0.00417414,0.00727188 -0.00355027,0.007596 -0.00290145,0.00786671 -0.00223223,0.00808213 -0.00154731,0.00824072 -0.000851521,0.00834137 -0.000149741,0.00838339 0.000553091,0.00836646 0.00125203,0.00829072 0.00194218,0.00815669 0.00261866,0.00796531 0.443989,1.18112 -0.790903,0.167447 -0.915801,-1.76355 -0.00430188,-0.00747681 -0.00493023,-0.00707825 -0.00552189,-0.00662703 -0.00607247,-0.0061265 -0.00657786,-0.00558038 -0.0070343,-0.00499273 -0.00743841,-0.00436794 -0.00778717,-0.00371064 -0.00807798,-0.00302574 -0.00830868,-0.00231832 -0.00847756,-0.00159365 -0.00858337,-0.000857122 -0.0086253,-0.000114216 -0.00860305,0.000629539 -0.00851679,0.00136861 -0.00836716,0.0020975 -0.00815527,0.00281078 -0.00788269,0.00350314 -0.00755146,0.00416944 -0.00716404,0.00480472 -0.00672332,0.00540424 -0.00623256,0.00596355 -0.00569544,0.00647849 -0.00511593,0.00694522 -0.00449835,0.00736027 -0.00384731,0.00772056 -0.00316763,0.0080234 -0.00246439,0.00826654 -0.00174281,0.00844816 -0.00100826,0.00856693 -0.000266209,0.00862195 0.00777268,0.633038 -1.60211,1.91972 0.0937224,-1.78873 7.60264e-05,-0.00872355 -0.00068457,-0.00869698 -0.00143996,-0.00860422 -0.00218438,-0.00844598 -0.00291219,-0.00822345 -0.00361783,-0.00793835 -0.00429593,-0.00759283 -0.00494134,-0.00718952 -0.00554915,-0.00673149 -0.00611472,-0.00622224 -0.00663376,-0.00566563 -0.0071023,-0.0050659 -0.0075168,-0.00442761 -0.00787409,-0.00375563 -0.00817145,-0.00305507 -0.00840662,-0.00233126 -0.00857781,-0.0015897 -0.00868372,-0.000836044 -0.00872355,-7.60264e-05 -0.00869698,0.00068457 -0.00860422,0.00143996 -0.00844598,0.00218438 -0.00822345,0.00291219 -0.00793835,0.00361783 -0.00759283,0.00429593 -0.00718952,0.00494134 -0.00673149,0.00554915 -0.00622224,0.00611472 -0.00566563,0.00663376 -0.0050659,0.0071023 -0.00442761,0.0075168 -0.00375563,0.00787409 -0.00305507,0.00817145 -0.00233126,0.00840662 -0.0015897,0.00857781 -0.000836044,0.00868372 -0.10943,2.08852 -7.98462e-05,0.00861243 0.000661533,0.00858735 0.001398,0.00849858 0.00212411,0.00834676 0.00283445,0.00813303 0.00352377,0.00785896 0.00418695,0.0075266 0.00481907,0.00713841 0.00541544,0.00669726 0.00597164,0.00620643 0.00648354,0.00566956 0.00694735,0.00509064 0.00735962,0.00447395 0.0077173,0.00382408 0.00801773,0.00314583 0.00825869,0.00244426 0.00843838,0.00172455 0.00855547,0.000992044 0.0086091,0.000252182 0.00859887,-0.00048955 0.00852485,-0.00122765 0.0083876,-0.00195664 0.00818812,-0.00267112 0.00792791,-0.00336579 0.00760888,-0.00403549 0.00723342,-0.00467525 0.00680429,-0.00528033 0.00632469,-0.00584624 0.00579818,-0.00636878 1.81812,-2.17856 0.00479612,-0.00622924 0.00429195,-0.00658676 0.00376126,-0.00690356 0.00320732,-0.0071777 0.00263355,-0.00740747 0.00204351,-0.00759146 0.00144084,-0.00772853 0.000829263,-0.00781784 0.000212561,-0.00785882 -0.00306053,-0.249261 0.756947,1.45765 0.00432388,0.00751148 0.00495805,0.00710886 0.00555498,0.00665285 0.00611019,0.00614686 0.00661949,0.00559469 0.00707907,0.0050005 0.00748547,0.00436875 0.00783564,0.00370418 0.00812695,0.00301178 0.00835722,0.00229676 0.0085247,0.00156449 0.00862815,0.000820467 0.00866679,7.0279e-05 0.00864032,-0.000680437 0.00854895,-0.00142604 0.892161,-0.188886 -0.0567685,0.125002 -0.00321728,0.00797936 -0.0025195,0.00822637 -0.00180307,0.00841249 -0.0010733,0.00853634 -0.000335575,0.00859701 0.00040463,0.00859403 0.00114184,0.00852745 0.0018706,0.00839774 0.00258551,0.00820587 0.00328128,0.00795326 0.00395277,0.00764178 0.004595,0.00727373 0.00520321,0.00685184 0.00577291,0.00637924 0.00629988,0.00585941 0.00678021,0.00529621 0.00721036,0.00469381 0.00758713,0.00405667 0.00790775,0.0033895 0.00816983,0.00269723 0.00837143,0.00198501 0.00851107,0.00125809 0.00858771,0.000521853 0.00860079,-0.000218243 2.16191,-0.148107 0.00857806,-0.000961067 0.00846323,-0.00169723 0.00828533,-0.00242075 0.00804571,-0.00312623 0.00774614,-0.00380842 0.00738886,-0.00446224 0.00697652,-0.00508281 0.00651221,-0.00566551 0.00599937,-0.00620599 0.00544183,-0.00670024 0.00484375,-0.00714457 0.00420958,-0.00753566 0.00354405,-0.00787061 0.00285211,-0.00814692 0.00213892,-0.00836252 0.00140979,-0.00851582 0.000670164,-0.00860568 -7.44597e-05,-0.00863141 -0.000818528,-0.00859283 -0.0015565,-0.00849024 -0.00228287,-0.00832438 -0.00299224,-0.0080965 -0.00367931,-0.0078083 -0.00433896,-0.00746192 -0.00496629,-0.00705994 -0.00555662,-0.00660536 -0.00610554,-0.00610157 -0.00660898,-0.00555232 -0.00706317,-0.00496169 -1.11965,-0.71642 1.93971,-1.21946 0.100268,1.61068 0.000139752,0.00194038 0.000177472,0.0019373 0.000215125,0.00193348 0.169716,1.4012 0.00137075,0.00834395 0.00207076,0.00819831 0.00275597,0.00799406 0.00342148,0.00773265 0.00406252,0.00741595 0.00467451,0.00704623 0.00525308,0.00662613 0.00579409,0.00615865 0.00629367,0.00564713 0.00674826,0.00509524 0.00715459,0.00450691 0.00750977,0.00388636 0.00781125,0.00323803 0.00805688,0.00256654 0.0082449,0.0018767 0.00837397,0.00117344 0.00844317,0.000461796 0.008452,-0.000253154 0.0084004,-0.000966293 0.00828873,-0.00167252 0.0081178,-0.0023668 0.00788883,-0.00304414 0.00760345,-0.00369973 0.0072637,-0.00432886 0.00687202,-0.00492704 0.00643121,-0.00548999 0.00594441,-0.00601368 0.00541511,-0.00649438 0.00484709,-0.00692865 0.557339,-0.873082 0.843022,0.868659 0.00596673,0.00566239 0.00641192,0.00515284 0.00681374,0.00460841 0.00716944,0.00403281 0.00747664,0.00342992 0.00773325,0.00280382 0.00793753,0.00215874 0.0080881,0.00149907 0.00818394,0.000829243 0.0082244,0.000153809 0.00820922,-0.000522666 0.00813849,-0.0011956 0.00801269,-0.00186045 0.00783267,-0.00251271 0.00759966,-0.00314797 0.00731522,-0.00376192 1.10033,-0.624366 0.00676781,-0.00420528 0.00641152,-0.00473076 0.00601453,-0.0052262 0.00557934,-0.00568847 0.00510874,-0.00611461 0.0046057,-0.00650194 0.00407342,-0.00684799 0.00351529,-0.00715056 0.00293483,-0.00740773 0.432004,-1.23158 -0.143935,0.955235 -0.000922324,0.00867498 -0.000162739,0.00872236 0.000598084,0.00870335 0.00135436,0.00861811 0.00210032,0.00846727 0.0028303,0.008252 0.00353874,0.00797392 0.00422024,0.00763515 0.00486963,0.00723828 0.00548196,0.00678632 0.00605257,0.00628271 0.00657711,0.00573129 0.0070516,0.00513625 0.00747242,0.00450212 0.00783637,0.00383372 0.00814068,0.00313615 0.00838303,0.00241471 0.00856159,0.00167489 0.00867498,0.000922324 0.00872236,0.000162739 0.00870335,-0.000598084 0.00861811,-0.00135436 0.00846727,-0.00210032 0.008252,-0.0028303 0.00797392,-0.00353874 0.00763515,-0.00422024 0.00723828,-0.00486963 0.00678632,-0.00548196 0.00628271,-0.00605257 0.00573129,-0.00657711 0.00513625,-0.0070516 0.00450212,-0.00747242 0.00383372,-0.00783637 0.00313615,-0.00814068 0.00241471,-0.00838303 0.00167489,-0.00856159 0.30214,-2.00517 0.000919886,-0.00863602 0.000167097,-0.00868326 -0.000586952,-0.00866502 -0.00133657,-0.00858141 -0.00207612,-0.00843307 -0.0028,-0.00822113 -0.00350276,-0.00794718 -0.0041791,-0.00761329 -0.00482392,-0.00722197 -0.00543235,-0.00677617 -0.00599981,-0.00627927 -0.00652202,-0.00573501 -0.00699503,-0.00514748 -0.00741528,-0.00452113 -0.0077796,-0.00386068 -0.00808524,-0.00317111 -0.00832989,-0.00245762 -0.00851172,-0.0017256 -0.00862934,-0.000980553 -0.00868188,-0.000228115 -0.00866893,0.000526044 -0.00859059,0.00127623 -0.00844746,0.0020168 -0.00824061,0.00274215 -0.0079716,0.00344682 -0.00764247,0.00412549 -0.00725569,0.00477305 -0.00681418,0.0053846 -0.00632128,0.00595554 -0.0057807,0.00648155 -0.00519651,0.00695868 -0.00457313,0.00738332 -0.00391526,0.00775227 -0.00322785,0.00806275 -0.771048,2.19814 -1.00047,0.567702 -0.822106,-0.847107 0.0214614,-0.0336196 0.00408598,-0.00701291 0.00350379,-0.00732117 0.00289852,-0.0075812 0.00227416,-0.0077913 0.00163482,-0.00795006 0.000984704,-0.00805645 0.000328105,-0.00810977 -0.000364056,-2.31483 -0.000370587,-0.00858545 -0.00110632,-0.00852194 -0.00183389,-0.00839549 -0.00254791,-0.00820704 -0.00324312,-0.00795798 -0.00391438,-0.00765016 -0.00455673,-0.00728584 -0.00516543,-0.00686772 -0.00573599,-0.00639889 -0.00626419,-0.00588279 -0.00674613,-0.00532326 -0.00717825,-0.00472442 -0.00755736,-0.00409068 -0.00788066,-0.00342674 -0.00814576,-0.00273749 -0.00835071,-0.00202803 -0.008494,-0.00130359 -0.00857455,-0.000569523 -0.00859179,0.000168749 -0.00854558,0.000905775 -0.00843626,0.00163611 -0.00826464,0.00235437 -0.00803199,0.00305524 -0.00774003,0.00373354 -0.0073909,0.00438428 -0.0069872,0.00500264 -0.0065319,0.00558405 -0.00602836,0.00612423 -0.00548031,0.00661918 -0.00489178,0.00706525 -0.00426713,0.00745915 -0.00361097,0.00779796 -0.00292814,0.00807919 -0.00222369,0.00830076 -0.00150282,0.00846102 -0.2913,2.18057 -0.000752079,0.0081743 -7.9097e-05,0.00820844 0.000594418,0.00818727 0.00126393,0.00811093 0.00192492,0.00797994 0.00257294,0.00779517 0.00320363,0.00755788 0.00381272,0.00726966 0.00439613,0.00693245 0.00494991,0.00654852 0.00547033,0.00612047 0.172542,0.177789 z "/>
</g></g></svg>