<?xml version="1.0" encoding="UTF-8" standalone="no"?>
<!DOCTYPE svg PUBLIC "-//W3C//DTD SVG 1.1//EN" "http://www.w3.org/Graphics/SVG/1.1/DTD/svg11-flat.dtd"
[
<!ATTLIST g xmlns:fme CDATA #FIXED "http://www.safe.com/fme" >
<!ATTLIST path fme:_creation_instance CDATA #IMPLIED fme:i CDATA #IMPLIED >
<!ATTLIST ellipse fme:_creation_instance CDATA #IMPLIED fme:i CDATA #IMPLIED >
<!ATTLIST text fme:_creation_instance CDATA #IMPLIED fme:i CDATA #IMPLIED >
<!ATTLIST use fme:_creation_instance CDATA #IMPLIED fme:i CDATA #IMPLIED >
]>
<svg xmlns="http://www.w3.org/2000/svg"  viewBox="-9.00625 -9.00625 738.513 738.513"><g xmlns:fme="http://www.safe.com/fme" fill="none" stroke="black" stroke-width="0.0900625" transform="translate(0,720.5) scale(1, -1)">
<g id="test" >
<path d="M 89.5,0 l -0.340575,7.80044 -1.01913,7.74107 -1.68993,7.62279 -2.34787,7.4465 -2.98794,7.21353 -3.60527,6.92567 -4.19517,6.58509 -4.75313,6.1944 -5.27492,5.75657 -5.75657,5.27492 -6.1944,4.75313 -6.58509,4.19517 -6.92567,3.60527 -7.21353,2.98794 -7.4465,2.34787 -7.62279,1.68993 -7.74107,1.01913 -7.80044,0.340575 0,1 7.88759,-0.34438 7.82757,-1.03052 7.70796,-1.70881 7.5297,-2.37411 7.29413,-3.02133 7.00305,-3.64556 6.65867,-4.24204 6.26361,-4.80624 5.82089,-5.33386 5.33386,-5.82089 4.80624,-6.26361 4.24204,-6.65867 3.64556,-7.00305 3.02133,-7.29413 2.37411,-7.5297 1.70881,-7.70796 1.03052,-7.82757 0.34438,-7.88759 -1,0 z "/>
<path d="M 179.5,0 l -0.340575,7.80044 -1.01913,7.74107 -1.68993,7.62279 -2.34787,7.4465 -2.98794,7.21353 -3.60527,6.92567 -4.19517,6.58509 -4.75313,6.1944 -5.27492,5.75657 -5.75657,5.27492 -6.1944,4.75313 -6.58509,4.19517 -6.92567,3.60527 -7.21353,2.98794 -7.4465,2.34787 -7.62279,1.68993 -7.74107,1.01913 -7.80044,0.340575 0,1 7.88759,-0.34438 7.82757,-1.03052 7.70796,-1.70881 7.5297,-2.37411 7.29413,-3.02133 7.00305,-3.64556 6.65867,-4.24204 6.26361,-4.80624 5.82089,-5.33386 5.33386,-5.82089 4.80624,-6.26361 4.24204,-6.65867 3.64556,-7.00305 3.02133,-7.29413 2.37411,-7.5297 1.70881,-7.70796 1.03052,-7.82757 0.34438,-7.88759 -1,0 z "/>
<path d="M 269.5,0 l -0.340575,7.80044 -1.01913,7.74107 -1.68993,7.62279 -2.34787,7.4465 -2.98794,7.21353 -3.60527,6.92567 -4.19517,6.58509 -4.75313,6.1944 -5.27492,5.75657 -5.75657,5.27492 -6.1944,4.75313 -6.58509,4.19517 -6.92567,3.60527 -7.21353,2.98794 -7.4465,2.34787 -7.62279,1.68993 -7.74107,1.01913 -7.80044,0.340575 0,1 7.88759,-0.34438 7.82757,-1.03052 7.70796,-1.70881 7.5297,-2.37411 7.29413,-3.02133 7.00305,-3.64556 6.65867,-4.24204 6.26361,-4.80624 5.82089,-5.33386 5.33386,-5.82089 4.80624,-6.26361 4.24204,-6.65867 3.64556,-7.00305 3.02133,-7.29413 2.37411,-7.5297 1.70881,-7.70796 1.03052,-7.82757 0.34438,-7.88759 -1,0 z "/>
<path d="M 359.5,0 l -0.340575,7.80044 -1.01913,7.74107 -1.68993,7.62279 -2.34787,7.4465 -2.98794,7.21353 -3.60527,6.92567 -4.19517,6.58509 -4.75313,6.1944 -5.27492,5.75657 -5.75657,5.27492 -6.1944,4.75313 -6.58509,4.19517 -6.92567,3.60527 -7.21353,2.98794 -7.4465,2.34787 -7.62279,1.68993 -7.74107,1.01913 -7.80044,0.340575 0,1 7.88759,-0.34438 7.82757,-1.03052 7.70796,-1.70881 7.5297,-2.37411 7.29413,-3.02133 7.00305,-3.64556 6.65867,-4.24204 6.26361,-4.80624 5.82089,-5.33386 5.33386,-5.82089 4.80624,-6.26361 4.24204,-6.65867 3.64556,-7.00305 3.02133,-7.29413 2.37411,-7.5297 1.70881,-7.70796 1.03052,-7.82757 0.34438,-7.88759 -1,0 z "/>
<path d="M 449.5,0 l -0.340575,7.80044 -1.01913,7.74107 -1.68993,7.62279 -2.34787,7.4465 -2.98794,7.21353 -3.60527,6.92567 -4.19517,6.58509 -4.75313,6.1944 -5.27492,5.75657 -5.75657,5.27492 -6.1944,4.75313 -6.58509,4.19517 -6.92567,3.60527 -7.21353,2.98794 -7.4465,2.34787 -7.62279,1.68993 -7.74107,1.01913 -7.80044,0.340575 0,1 7.88759,-0.34438 7.82757,-1.03052 7.70796,-1.70881 7.5297,-2.37411 7.29413,-3.02133 7.00305,-3.64556 6.65867,-4.24204 6.26361,-4.80624 5.82089,-5.33386 5.33386,-5.82089 4.80624,-6.26361 4.24204,-6.65867 3.64556,-7.00305 3.02133,-7.29413 2.37411,-7.5297 1.70881,-7.70796 1.03052,-7.82757 0.34438,-7.88759 -1,0 z "/>
<path d="M 539.5,0 l -0.340575,7.80044 -1.01913,7.74107 -1.68993,7.62279 -2.34787,7.4465 -2.98794,7.21353 -3.60527,6.92567 -4.19517,6.58509 -4.75313,6.1944 -5.27492,5.75657 -5.75657,5.27492 -6.1944,4.75313 -6.58509,4.19517 -6.92567,3.60527 -7.21353,2.98794 -7.4465,2.34787 -7.62279,1.68993 -7.74107,1.01913 -7.80044,0.340575 0,1 7.88759,-0.34438 7.82757,-1.03052 7.70796,-1.70881 7.5297,-2.37411 7.29413,-3.02133 7.00305,-3.64556 6.65867,-4.24204 6.26361,-4.80624 5.82089,-5.33386 5.33386,-5.82089 4.80624,-6.26361 4.24204,-6.65867 3.64556,-7.00305 3.02133,-7.29413 2.37411,-7.5297 1.70881,-7.70796 1.03052,-7.82757 0.34438,-7.88759 -1,0 z "/>
<path d="M 629.5,0 l -0.340575,7.80044 -1.01913,7.74107 -1.68993,7.62279 -2.34787,7.4465 -2.98794,7.21353 -3.60527,6.92567 -4.19517,6.58509 -4.75313,6.1944 -5.27492,5.75657 -5.75657,5.27492 -6.1944,4.75313 -6.58509,4.19517 -6.92567,3.60527 -7.21353,2.98794 -7.4465,2.34787 -7.62279,1.68993 -7.74107,1.01913 -7.80044,0.340575 0,1 7.88759,-0.34438 7.82757,-1.03052 7.70796,-1.70881 7.5297,-2.37411 7.29413,-3.02133 7.00305,-3.64556 6.65867,-4.24204 6.26361,-4.80624 5.82089,-5.33386 5.33386,-5.82089 4.80624,-6.26361 4.24204,-6.65867 3.64556,-7.00305 3.02133,-7.29413 2.37411,-7.5297 1.70881,-7.70796 1.03052,-7.82757 0.34438,-7.88759 -1,0 z "/>
<path d="M 719.5,0 l -0.340575,7.80044 -1.01913,7.74107 -1.68993,7.62279 -2.34787,7.4465 -2.98794,7.21353 -3.60527,6.92567 -4.19517,6.58509 -4.75313,6.1944 -5.27492,5.75657 -5.75657,5.27492 -6.1944,4.75313 -6.58509,4.19517 -6.92567,3.60527 -7.21353,2.98794 -7.4465,2.34787 -7.62279,1.68993 -7.74107,1.01913 -7.80044,0.340575 0,1 7.88759,-0.34438 7.82757,-1.03052 7.70796,-1.70881 7.5297,-2.37411 7.29413,-3.02133 7.00305,-3.64556 6.65867,-4.24204 6.26361,-4.80624 5.82089,-5.33386 5.33386,-5.82089 4.80624,-6.26361 4.24204,-6.65867 3.64556,-7.00305 3.02133,-7.29413 2.37411,-7.5297 1.70881,-7.70796 1.03052,-7.82757 0.34438,-7.88759 -1,0 z "/>
<path d="M 89.5,90 l -0.340575,7.80044 -1.01913,7.74107 -1.68993,7.62279 -2.34787,7.4465 -2.98794,7.21353 -3.60527,6.92567 -4.19517,6.58509 -4.75313,6.1944 -5.27492,5.75657 -5.75657,5.27492 -6.1944,4.75313 -6.58509,4.19517 -6.92567,3.60527 -7.21353,2.98794 -7.4465,2.34787 -7.62279,1.68993 -7.74107,1.01913 -7.80044,0.340575 0,1 7.88759,-0.34438 7.82757,-1.03052 7.70796,-1.70881 7.5297,-2.37411 7.29413,-3.02133 7.00305,-3.64556 6.65867,-4.24204 6.26361,-4.80624 5.82089,-5.33386 5.33386,-5.82089 4.80624,-6.26361 4.24204,-6.65867 3.64556,-7.00305 3.02133,-7.29413 2.37411,-7.5297 1.70881,-7.70796 1.03052,-7.82757 0.34438,-7.88759 -1,0 z "/>
<path d="M 179.5,90 l -0.340575,7.80044 -1.01913,7.74107 -1.68993,7.62279 -2.34787,7.4465 -2.98794,7.21353 -3.60527,6.92567 -4.19517,6.58509 -4.75313,6.1944 -5.27492,5.75657 -5.75657,5.27492 -6.1944,4.75313 -6.58509,4.19517 -6.92567,3.60527 -7.21353,2.98794 -7.4465,2.34787 -7.62279,1.68993 -7.74107,1.01913 -7.80044,0.340575 0,1 7.88759,-0.34438 7.82757,-1.03052 7.70796,-1.70881 7.5297,-2.37411 7.29413,-3.02133 7.00305,-3.64556 6.65867,-4.24204 6.26361,-4.80624 5.82089,-5.33386 5.33386,-5.82089 4.80624,-6.26361 4.24204,-6.65867 3.64556,-7.00305 3.02133,-7.29413 2.37411,-7.5297 1.70881,-7.70796 1.03052,-7.82757 0.34438,-7.88759 -1,0 z "/>
<path d="M 269.5,90 l -0.340575,7.80044 -1.01913,7.74107 -1.68993,7.62279 -2.34787,7.4465 -2.98794,7.21353 -3.60527,6.92567 -4.19517,6.58509 -4.75313,6.1944 -5.27492,5.75657 -5.75657,5.27492 -6.1944,4.75313 -6.58509,4.19517 -6.92567,3.60527 -7.21353,2.98794 -7.4465,2.34787 -7.62279,1.68993 -7.74107,1.01913 -7.80044,0.340575 0,1 7.88759,-0.34438 7.82757,-1.03052 7.70796,-1.70881 7.5297,-2.37411 7.29413,-3.02133 7.00305,-3.64556 6.65867,-4.24204 6.26361,-4.80624 5.82089,-5.33386 5.33386,-5.82089 4.80624,-6.26361 4.24204,-6.65867 3.64556,-7.00305 3.02133,-7.29413 2.37411,-7.5297 1.70881,-7.70796 1.03052,-7.82757 0.34438,-7.88759 -1,0 z "/>
<path d="M 359.5,90 l -0.340575,7.80044 -1.01913,7.74107 -1.68993,7.62279 -2.34787,7.4465 -2.98794,7.21353 -3.60527,6.92567 -4.19517,6.58509 -4.75313,6.1944 -5.27492,5.75657 -5.75657,5.27492 -6.1944,4.75313 -6.58509,4.19517 -6.92567,3.60527 -7.21353,2.98794 -7.4465,2.34787 -7.62279,1.68993 -7.74107,1.01913 -7.80044,0.340575 0,1 7.88759,-0.34438 7.82757,-1.03052 7.70796,-1.70881 7.5297,-2.37411 7.29413,-3.02133 7.00305,-3.64556 6.65867,-4.24204 6.26361,-4.80624 5.82089,-5.33386 5.33386,-5.82089 4.80624,-6.26361 4.24204,-6.65867 3.64556,-7.00305 3.02133,-7.29413 2.37411,-7.5297 1.70881,-7.70796 1.03052,-7.82757 0.34438,-7.88759 -1,0 z "/>
<path d="M 449.5,90 l -0.340575,7.80044 -1.01913,7.74107 -1.68993,7.62279 -2.34787,7.4465 -2.98794,7.21353 -3.60527,6.92567 -4.19517,6.58509 -4.75313,6.1944 -5.27492,5.75657 -5.75657,5.27492 -6.1944,4.75313 -6.58509,4.19517 -6.92567,3.60527 -7.21353,2.98794 -7.4465,2.34787 -7.62279,1.68993 -7.74107,1.01913 -7.80044,0.340575 0,1 7.88759,-0.34438 7.82757,-1.03052 7.70796,-1.70881 7.5297,-2.37411 7.29413,-3.02133 7.00305,-3.64556 6.65867,-4.24204 6.26361,-4.80624 5.82089,-5.33386 5.33386,-5.82089 4.80624,-6.26361 4.24204,-6.65867 3.64556,-7.00305 3.02133,-7.29413 2.37411,-7.5297 1.70881,-7.70796 1.03052,-7.82757 0.34438,-7.88759 -1,0 z "/>
<path d="M 539.5,90 l -0.340575,7.80044 -1.01913,7.74107 -1.68993,7.62279 -2.34787,7.4465 -2.98794,7.21353 -3.60527,6.92567 -4.19517,6.58509 -4.75313,6.1944 -5.27492,5.75657 -5.75657,5.27492 -6.1944,4.75313 -6.58509,4.19517 -6.92567,3.60527 -7.21353,2.98794 -7.4465,2.34787 -7.62279,1.68993 -7.74107,1.01913 -7.80044,0.340575 0,1 7.88759,-0.34438 7.82757,-1.03052 7.70796,-1.70881 7.5297,-2.37411 7.29413,-3.02133 7.00305,-3.64556 6.65867,-4.24204 6.26361,-4.80624 5.82089,-5.33386 5.33386,-5.82089 4.80624,-6.26361 4.24204,-6.65867 3.64556,-7.00305 3.02133,-7.29413 2.37411,-7.5297 1.70881,-7.70796 1.03052,-7.82757 0.34438,-7.88759 -1,0 z "/>
<path d="M 629.5,90 l -0.340575,7.80044 -1.01913,7.74107 -1.68993,7.62279 -2.34787,7.4465 -2.98794,7.21353 -3.60527,6.92567 -4.19517,6.58509 -4.75313,6.1944 -5.27492,5.75657 -5.75657,5.27492 -6.1944,4.75313 -6.58509,4.19517 -6.92567,3.60527 -7.21353,2.98794 -7.4465,2.34787 -7.62279,1.68993 -7.74107,1.01913 -7.80044,0.340575 0,1 7.88759,-0.34438 7.82757,-1.03052 7.70796,-1.70881 7.5297,-2.37411 7.29413,-3.02133 7.00305,-3.64556 6.65867,-4.24204 6.26361,-4.80624 5.82089,-5.33386 5.33386,-5.82089 4.80624,-6.26361 4.24204,-6.65867 3.64556,-7.00305 3.02133,-7.29413 2.37411,-7.5297 1.70881,-7.70796 1.03052,-7.82757 0.34438,-7.88759 -1,0 z "/>
<path d="M 719.5,90 l -0.340575,7.80044 -1.01913,7.74107 -1.68993,7.62279 -2.34787,7.4465 -2.98794,7.21353 -3.60527,6.92567 -4.19517,6.58509 -4.75313,6.1944 -5.27492,5.75657 -5.75657,5.27492 -6.1944,4.75313 -6.58509,4.19517 -6.92567,3.60527 -7.21353,2.98794 -7.4465,2.34787 -7.62279,1.68993 -7.74107,1.01913 -7.80044,0.340575 0,1 7.88759,-0.34438 7.82757,-1.03052 7.70796,-1.70881 7.5297,-2.37411 7.29413,-3.02133 7.00305,-3.64556 6.65867,-4.24204 6.26361,-4.80624 5.82089,-5.33386 5.33386,-5.82089 4.80624,-6.26361 4.24204,-6.65867 3.64556,-7.00305 3.02133,-7.29413 2.37411,-7.5297 1.70881,-7.70796 1.03052,-7.82757 0.34438,-7.88759 -1,0 z "/>
<path d="M 89.5,180 l -0.340575,7.80044 -1.01913,7.74107 -1.68993,7.62279 -2.34787,7.4465 -2.98794,7.21353 -3.60527,6.92567 -4.19517,6.58509 -4.75313,6.1944 -5.27492,5.75657 -5.75657,5.27492 -6.1944,4.75313 -6.58509,4.19517 -6.92567,3.60527 -7.21353,2.98794 -7.4465,2.34787 -7.62279,1.68993 -7.74107,1.01913 -7.80044,0.340575 0,1 7.88759,-0.34438 7.82757,-1.03052 7.70796,-1.70881 7.5297,-2.37411 7.29413,-3.02133 7.00305,-3.64556 6.65867,-4.24204 6.26361,-4.80624 5.82089,-5.33386 5.33386,-5.82089 4.80624,-6.26361 4.24204,-6.65867 3.64556,-7.00305 3.02133,-7.29413 2.37411,-7.5297 1.70881,-7.70796 1.03052,-7.82757 0.34438,-7.88759 -1,0 z "/>
<path d="M 179.5,180 l -0.340575,7.80044 -1.01913,7.74107 -1.68993,7.62279 -2.34787,7.4465 -2.98794,7.21353 -3.60527,6.92567 -4.19517,6.58509 -4.75313,6.1944 -5.27492,5.75657 -5.75657,5.27492 -6.1944,4.75313 -6.58509,4.19517 -6.92567,3.60527 -7.21353,2.98794 -7.4465,2.34787 -7.62279,1.68993 -7.74107,1.01913 -7.80044,0.340575 0,1 7.88759,-0.34438 7.82757,-1.03052 7.70796,-1.70881 7.5297,-2.37411 7.29413,-3.02133 7.00305,-3.64556 6.65867,-4.24204 6.26361,-4.80624 5.82089,-5.33386 5.33386,-5.82089 4.80624,-6.26361 4.24204,-6.65867 3.64556,-7.00305 3.02133,-7.29413 2.37411,-7.5297 1.70881,-7.70796 1.03052,-7.82757 0.34438,-7.88759 -1,0 z "/>
<path d="M 269.5,180 l -0.340575,7.80044 -1.01913,7.74107 -1.68993,7.62279 -2.34787,7.4465 -2.98794,7.21353 -3.60527,6.92567 -4.19517,6.58509 -4.75313,6.1944 -5.27492,5.75657 -5.75657,5.27492 -6.1944,4.75313 -6.58509,4.19517 -6.92567,3.60527 -7.21353,2.98794 -7.4465,2.34787 -7.62279,1.68993 -7.74107,1.01913 -7.80044,0.340575 0,1 7.88759,-0.34438 7.82757,-1.03052 7.70796,-1.70881 7.5297,-2.37411 7.29413,-3.02133 7.00305,-3.64556 6.65867,-4.24204 6.26361,-4.80624 5.82089,-5.33386 5.33386,-5.82089 4.80624,-6.26361 4.24204,-6.65867 3.64556,-7.00305 3.02133,-7.29413 2.37411,-7.5297 1.70881,-7.70796 1.03052,-7.82757 0.34438,-7.88759 -1,0 z "/>
<path d="M 359.5,180 l -0.340575,7.80044 -1.01913,7.74107 -1.68993,7.62279 -2.34787,7.4465 -2.98794,7.21353 -3.60527,6.92567 -4.19517,6.58509 -4.75313,6.1944 -5.27492,5.75657 -5.75657,5.27492 -6.1944,4.75313 -6.58509,4.19517 -6.92567,3.60527 -7.21353,2.98794 -7.4465,2.34787 -7.62279,1.68993 -7.74107,1.01913 -7.80044,0.340575 0,1 7.88759,-0.34438 7.82757,-1.03052 7.70796,-1.70881 7.5297,-2.37411 7.29413,-3.02133 7.00305,-3.64556 6.65867,-4.24204 6.26361,-4.80624 5.82089,-5.33386 5.33386,-5.82089 4.80624,-6.26361 4.24204,-6.65867 3.64556,-7.00305 3.02133,-7.29413 2.37411,-7.5297 1.70881,-7.70796 1.03052,-7.82757 0.34438,-7.88759 -1,0 z "/>
<path d="M 449.5,180 l -0.340575,7.80044 -1.01913,7.74107 -1.68993,7.62279 -2.34787,7.4465 -2.98794,7.21353 -3.60527,6.92567 -4.19517,6.58509 -4.75313,6.1944 -5.27492,5.75657 -5.75657,5.27492 -6.1944,4.75313 -6.58509,4.19517 -6.92567,3.60527 -7.21353,2.98794 -7.4465,2.34787 -7.62279,1.68993 -7.74107,1.01913 -7.80044,0.340575 0,1 7.88759,-0.34438 7.82757,-1.03052 7.70796,-1.70881 7.5297,-2.37411 7.29413,-3.02133 7.00305,-3.64556 6.65867,-4.24204 6.26361,-4.80624 5.82089,-5.33386 5.33386,-5.82089 4.80624,-6.26361 4.24204,-6.65867 3.64556,-7.00305 3.02133,-7.29413 2.37411,-7.5297 1.70881,-7.70796 1.03052,-7.82757 0.34438,-7.88759 -1,0 z "/>
<path d="M 539.5,180 l -0.340575,7.80044 -1.01913,7.74107 -1.68993,7.62279 -2.34787,7.4465 -2.98794,7.21353 -3.60527,6.92567 -4.19517,6.58509 -4.75313,6.1944 -5.27492,5.75657 -5.75657,5.27492 -6.1944,4.75313 -6.58509,4.19517 -6.92567,3.60527 -7.21353,2.98794 -7.4465,2.34787 -7.62279,1.68993 -7.74107,1.01913 -7.80044,0.340575 0,1 7.88759,-0.34438 7.82757,-1.03052 7.70796,-1.70881 7.5297,-2.37411 7.29413,-3.02133 7.00305,-3.64556 6.65867,-4.24204 6.26361,-4.80624 5.82089,-5.33386 5.33386,-5.82089 4.80624,-6.26361 4.24204,-6.65867 3.64556,-7.00305 3.02133,-7.29413 2.37411,-7.5297 1.70881,-7.70796 1.03052,-7.82757 0.34438,-7.88759 -1,0 z "/>
<path d="M 629.5,180 l -0.340575,7.80044 -1.01913,7.74107 -1.68993,7.62279 -2.34787,7.4465 -2.98794,7.21353 -3.60527,6.92567 -4.19517,6.58509 -4.75313,6.1944 -5.27492,5.75657 -5.75657,5.27492 -6.1944,4.75313 -6.58509,4.19517 -6.92567,3.60527 -7.21353,2.98794 -7.4465,2.34787 -7.62279,1.68993 -7.74107,1.01913 -7.80044,0.340575 0,1 7.88759,-0.34438 7.82757,-1.03052 7.70796,-1.70881 7.5297,-2.37411 7.29413,-3.02133 7.00305,-3.64556 6.65867,-4.24204 6.26361,-4.80624 5.82089,-5.33386 5.33386,-5.82089 4.80624,-6.26361 4.24204,-6.65867 3.64556,-7.00305 3.02133,-7.29413 2.37411,-7.5297 1.70881,-7.70796 1.03052,-7.82757 0.34438,-7.88759 -1,0 z "/>
<path d="M 719.5,180 l -0.340575,7.80044 -1.01913,7.74107 -1.68993,7.62279 -2.34787,7.4465 -2.98794,7.21353 -3.60527,6.92567 -4.19517,6.58509 -4.75313,6.1944 -5.27492,5.75657 -5.75657,5.27492 -6.1944,4.75313 -6.58509,4.19517 -6.92567,3.60527 -7.21353,2.98794 -7.4465,2.34787 -7.62279,1.68993 -7.74107,1.01913 -7.80044,0.340575 0,1 7.88759,-0.34438 7.82757,-1.03052 7.70796,-1.70881 7.5297,-2.37411 7.29413,-3.02133 7.00305,-3.64556 6.65867,-4.24204 6.26361,-4.80624 5.82089,-5.33386 5.33386,-5.82089 4.80624,-6.26361 4.24204,-6.65867 3.64556,-7.00305 3.02133,-7.29413 2.37411,-7.5297 1.70881,-7.70796 1.03052,-7.82757 0.34438,-7.88759 -1,0 z "/>
<path d="M 89.5,270 l -0.340575,7.80044 -1.01913,7.74107 -1.68993,7.62279 -2.34787,7.4465 -2.98794,7.21353 -3.60527,6.92567 -4.19517,6.58509 -4.75313,6.1944 -5.27492,5.75657 -5.75657,5.27492 -6.1944,4.75313 -6.58509,4.19517 -6.92567,3.60527 -7.21353,2.98794 -7.4465,2.34787 -7.62279,1.68993 -7.74107,1.01913 -7.80044,0.340575 0,1 7.88759,-0.34438 7.82757,-1.03052 7.70796,-1.70881 7.5297,-2.37411 7.29413,-3.02133 7.00305,-3.64556 6.65867,-4.24204 6.26361,-4.80624 5.82089,-5.33386 5.33386,-5.82089 4.80624,-6.26361 4.24204,-6.65867 3.64556,-7.00305 3.02133,-7.29413 2.37411,-7.5297 1.70881,-7.70796 1.03052,-7.82757 0.34438,-7.88759 -1,0 z "/>
<path d="M 179.5,270 l -0.340575,7.80044 -1.01913,7.74107 -1.68993,7.62279 -2.34787,7.4465 -2.98794,7.21353 -3.60527,6.92567 -4.19517,6.58509 -4.75313,6.1944 -5.27492,5.75657 -5.75657,5.27492 -6.1944,4.75313 -6.58509,4.19517 -6.92567,3.60527 -7.21353,2.98794 -7.4465,2.34787 -7.62279,1.68993 -7.74107,1.01913 -7.80044,0.340575 0,1 7.88759,-0.34438 7.82757,-1.03052 7.70796,-1.70881 7.5297,-2.37411 7.29413,-3.02133 7.00305,-3.64556 6.65867,-4.24204 6.26361,-4.80624 5.82089,-5.33386 5.33386,-5.82089 4.80624,-6.26361 4.24204,-6.65867 3.64556,-7.00305 3.02133,-7.29413 2.37411,-7.5297 1.70881,-7.70796 1.03052,-7.82757 0.34438,-7.88759 -1,0 z "/>
<path d="M 269.5,270 l -0.340575,7.80044 -1.01913,7.74107 -1.68993,7.62279 -2.34787,7.4465 -2.98794,7.21353 -3.60527,6.92567 -4.19517,6.58509 -4.75313,6.1944 -5.27492,5.75657 -5.75657,5.27492 -6.1944,4.75313 -6.58509,4.19517 -6.92567,3.60527 -7.21353,2.98794 -7.4465,2.34787 -7.62279,1.68993 -7.74107,1.01913 -7.80044,0.340575 0,1 7.88759,-0.34438 7.82757,-1.03052 7.70796,-1.70881 7.5297,-2.37411 7.29413,-3.02133 7.00305,-3.64556 6.65867,-4.24204 6.26361,-4.80624 5.82089,-5.33386 5.33386,-5.82089 4.80624,-6.26361 4.24204,-6.65867 3.64556,-7.00305 3.02133,-7.29413 2.37411,-7.5297 1.70881,-7.70796 1.03052,-7.82757 0.34438,-7.88759 -1,0 z "/>
<path d="M 359.5,270 l -0.340575,7.80044 -1.01913,7.74107 -1.68993,7.62279 -2.34787,7.4465 -2.98794,7.21353 -3.60527,6.92567 -4.19517,6.58509 -4.75313,6.1944 -5.27492,5.75657 -5.75657,5.27492 -6.1944,4.75313 -6.58509,4.19517 -6.92567,3.60527 -7.21353,2.98794 -7.4465,2.34787 -7.62279,1.68993 -7.74107,1.01913 -7.80044,0.340575 0,1 7.88759,-0.34438 7.82757,-1.03052 7.70796,-1.70881 7.5297,-2.37411 7.29413,-3.02133 7.00305,-3.64556 6.65867,-4.24204 6.26361,-4.80624 5.82089,-5.33386 5.33386,-5.82089 4.80624,-6.26361 4.24204,-6.65867 3.64556,-7.00305 3.02133,-7.29413 2.37411,-7.5297 1.70881,-7.70796 1.03052,-7.82757 0.34438,-7.88759 -1,0 z "/>
<path d="M 449.5,270 l -0.340575,7.80044 -1.01913,7.74107 -1.68993,7.62279 -2.34787,7.4465 -2.98794,7.21353 -3.60527,6.92567 -4.19517,6.58509 -4.75313,6.1944 -5.27492,5.75657 -5.75657,5.27492 -6.1944,4.75313 -6.58509,4.19517 -6.92567,3.60527 -7.21353,2.98794 -7.4465,2.34787 -7.62279,1.68993 -7.74107,1.01913 -7.80044,0.340575 0,1 7.88759,-0.34438 7.82757,-1.03052 7.70796,-1.70881 7.5297,-2.37411 7.29413,-3.02133 7.00305,-3.64556 6.65867,-4.24204 6.26361,-4.80624 5.82089,-5.33386 5.33386,-5.82089 4.80624,-6.26361 4.24204,-6.65867 3.64556,-7.00305 3.02133,-7.29413 2.37411,-7.5297 1.70881,-7.70796 1.03052,-7.82757 0.34438,-7.88759 -1,0 z "/>
<path d="M 539.5,270 l -0.340575,7.80044 -1.01913,7.74107 -1.68993,7.62279 -2.34787,7.4465 -2.98794,7.21353 -3.60527,6.92567 -4.19517,6.58509 -4.75313,6.1944 -5.27492,5.75657 -5.75657,5.27492 -6.1944,4.75313 -6.58509,4.19517 -6.92567,3.60527 -7.21353,2.98794 -7.4465,2.34787 -7.62279,1.68993 -7.74107,1.01913 -7.80044,0.340575 0,1 7.88759,-0.34438 7.82757,-1.03052 7.70796,-1.70881 7.5297,-2.37411 7.29413,-3.02133 7.00305,-3.64556 6.65867,-4.24204 6.26361,-4.80624 5.82089,-5.33386 5.33386,-5.82089 4.80624,-6.26361 4.24204,-6.65867 3.64556,-7.00305 3.02133,-7.29413 2.37411,-7.5297 1.70881,-7.70796 1.03052,-7.82757 0.34438,-7.88759 -1,0 z "/>
<path d="M 629.5,270 l -0.340575,7.80044 -1.01913,7.74107 -1.68993,7.62279 -2.34787,7.4465 -2.98794,7.21353 -3.60527,6.92567 -4.19517,6.58509 -4.75313,6.1944 -5.27492,5.75657 -5.75657,5.27492 -6.1944,4.75313 -6.58509,4.19517 -6.92567,3.60527 -7.21353,2.98794 -7.4465,2.34787 -7.62279,1.68993 -7.74107,1.01913 -7.80044,0.340575 0,1 7.88759,-0.34438 7.82757,-1.03052 7.70796,-1.70881 7.5297,-2.37411 7.29413,-3.02133 7.00305,-3.64556 6.65867,-4.24204 6.26361,-4.80624 5.82089,-5.33386 5.33386,-5.82089 4.80624,-6.26361 4.24204,-6.65867 3.64556,-7.00305 3.02133,-7.29413 2.37411,-7.5297 1.70881,-7.70796 1.03052,-7.82757 0.34438,-7.88759 -1,0 z "/>
<path d="M 719.5,270 l -0.340575,7.80044 -1.01913,7.74107 -1.68993,7.62279 -2.34787,7.4465 -2.98794,7.21353 -3.60527,6.92567 -4.19517,6.58509 -4.75313,6.1944 -5.27492,5.75657 -5.75657,5.27492 -6.1944,4.75313 -6.58509,4.19517 -6.92567,3.60527 -7.21353,2.98794 -7.4465,2.34787 -7.62279,1.68993 -7.74107,1.01913 -7.80044,0.340575 0,1 7.88759,-0.34438 7.82757,-1.03052 7.70796,-1.70881 7.5297,-2.37411 7.29413,-3.02133 7.00305,-3.64556 6.65867,-4.24204 6.26361,-4.80624 5.82089,-5.33386 5.33386,-5.82089 4.80624,-6.26361 4.24204,-6.65867 3.64556,-7.00305 3.02133,-7.29413 2.37411,-7.5297 1.70881,-7.70796 1.03052,-7.82757 0.34438,-7.88759 -1,0 z "/>
<path d="M 89.5,360 l -0.340575,7.80044 -1.01913,7.74107 -1.68993,7.62279 -2.34787,7.4465 -2.98794,7.21353 -3.60527,6.92567 -4.19517,6.58509 -4.75313,6.1944 -5.27492,5.75657 -5.75657,5.27492 -6.1944,4.75313 -6.58509,4.19517 -6.92567,3.60527 -7.21353,2.98794 -7.4465,2.34787 -7.62279,1.68993 -7.74107,1.01913 -7.80044,0.340575 0,1 7.88759,-0.34438 7.82757,-1.03052 7.70796,-1.70881 7.5297,-2.37411 7.29413,-3.02133 7.00305,-3.64556 6.65867,-4.24204 6.26361,-4.80624 5.82089,-5.33386 5.33386,-5.82089 4.80624,-6.26361 4.24204,-6.65867 3.64556,-7.00305 3.02133,-7.29413 2.37411,-7.5297 1.70881,-7.70796 1.03052,-7.82757 0.34438,-7.88759 -1,0 z "/>
<path d="M 179.5,360 l -0.340575,7.80044 -1.01913,7.74107 -1.68993,7.62279 -2.34787,7.4465 -2.98794,7.21353 -3.60527,6.92567 -4.19517,6.58509 -4.75313,6.1944 -5.27492,5.75657 -5.75657,5.27492 -6.1944,4.75313 -6.58509,4.19517 -6.92567,3.60527 -7.21353,2.98794 -7.4465,2.34787 -7.62279,1.68993 -7.74107,1.01913 -7.80044,0.340575 0,1 7.88759,-0.34438 7.82757,-1.03052 7.70796,-1.70881 7.5297,-2.37411 7.29413,-3.02133 7.00305,-3.64556 6.65867,-4.24204 6.26361,-4.80624 5.82089,-5.33386 5.33386,-5.82089 4.80624,-6.26361 4.24204,-6.65867 3.64556,-7.00305 3.02133,-7.29413 2.37411,-7.5297 1.70881,-7.70796 1.03052,-7.82757 0.34438,-7.88759 -1,0 z "/>
<path d="M 269.5,360 l -0.340575,7.80044 -1.01913,7.74107 -1.68993,7.62279 -2.34787,7.4465 -2.98794,7.21353 -3.60527,6.92567 -4.19517,6.58509 -4.75313,6.1944 -5.27492,5.75657 -5.75657,5.27492 -6.1944,4.75313 -6.58509,4.19517 -6.92567,3.60527 -7.21353,2.98794 -7.4465,2.34787 -7.62279,1.68993 -7.74107,1.01913 -7.80044,0.340575 0,1 7.88759,-0.34438 7.82757,-1.03052 7.70796,-1.70881 7.5297,-2.37411 7.29413,-3.02133 7.00305,-3.64556 6.65867,-4.24204 6.26361,-4.80624 5.82089,-5.33386 5.33386,-5.82089 4.80624,-6.26361 4.24204,-6.65867 3.64556,-7.00305 3.02133,-7.29413 2.37411,-7.5297 1.70881,-7.70796 1.03052,-7.82757 0.34438,-7.88759 -1,0 z "/>
<path d="M 359.5,360 l -0.340575,7.80044 -1.01913,7.74107 -1.68993,7.62279 -2.34787,7.4465 -2.98794,7.21353 -3.60527,6.92567 -4.19517,6.58509 -4.75313,6.1944 -5.27492,5.75657 -5.75657,5.27492 -6.1944,4.75313 -6.58509,4.19517 -6.92567,3.60527 -7.21353,2.98794 -7.4465,2.34787 -7.62279,1.68993 -7.74107,1.01913 -7.80044,0.340575 0,1 7.88759,-0.34438 7.82757,-1.03052 7.70796,-1.70881 7.5297,-2.37411 7.29413,-3.02133 7.00305,-3.64556 6.65867,-4.24204 6.26361,-4.80624 5.82089,-5.33386 5.33386,-5.82089 4.80624,-6.26361 4.24204,-6.65867 3.64556,-7.00305 3.02133,-7.29413 2.37411,-7.5297 1.70881,-7.70796 1.03052,-7.82757 0.34438,-7.88759 -1,0 z "/>
<path d="M 449.5,360 l -0.340575,7.80044 -1.01913,7.74107 -1.68993,7.62279 -2.34787,7.4465 -2.98794,7.21353 -3.60527,6.92567 -4.19517,6.58509 -4.75313,6.1944 -5.27492,5.75657 -5.75657,5.27492 -6.1944,4.75313 -6.58509,4.19517 -6.92567,3.60527 -7.21353,2.98794 -7.4465,2.34787 -7.62279,1.68993 -7.74107,1.01913 -7.80044,0.340575 0,1 7.88759,-0.34438 7.82757,-1.03052 7.70796,-1.70881 7.5297,-2.37411 7.29413,-3.02133 7.00305,-3.64556 6.65867,-4.24204 6.26361,-4.80624 5.82089,-5.33386 5.33386,-5.82089 4.80624,-6.26361 4.24204,-6.65867 3.64556,-7.00305 3.02133,-7.29413 2.37411,-7.5297 1.70881,-7.70796 1.03052,-7.82757 0.34438,-7.88759 -1,0 z "/>
<path d="M 539.5,360 l -0.340575,7.80044 -1.01913,7.74107 -1.68993,7.62279 -2.34787,7.4465 -2.98794,7.21353 -3.60527,6.92567 -4.19517,6.58509 -4.75313,6.1944 -5.27492,5.75657 -5.75657,5.27492 -6.1944,4.75313 -6.58509,4.19517 -6.92567,3.60527 -7.21353,2.98794 -7.4465,2.34787 -7.62279,1.68993 -7.74107,1.01913 -7.80044,0.340575 0,1 7.88759,-0.34438 7.82757,-1.03052 7.70796,-1.70881 7.5297,-2.37411 7.29413,-3.02133 7.00305,-3.64556 6.65867,-4.24204 6.26361,-4.80624 5.82089,-5.33386 5.33386,-5.82089 4.80624,-6.26361 4.24204,-6.65867 3.64556,-7.00305 3.02133,-7.29413 2.37411,-7.5297 1.70881,-7.70796 1.03052,-7.82757 0.34438,-7.88759 -1,0 z "/>
<path d="M 629.5,360 l -0.340575,7.80044 -1.01913,7.74107 -1.68993,7.62279 -2.34787,7.4465 -2.98794,7.21353 -3.60527,6.92567 -4.19517,6.58509 -4.75313,6.1944 -5.27492,5.75657 -5.75657,5.27492 -6.1944,4.75313 -6.58509,4.19517 -6.92567,3.60527 -7.21353,2.98794 -7.4465,2.34787 -7.62279,1.68993 -7.74107,1.01913 -7.80044,0.340575 0,1 7.88759,-0.34438 7.82757,-1.03052 7.70796,-1.70881 7.5297,-2.37411 7.29413,-3.02133 7.00305,-3.64556 6.65867,-4.24204 6.26361,-4.80624 5.82089,-5.33386 5.33386,-5.82089 4.80624,-6.26361 4.24204,-6.65867 3.64556,-7.00305 3.02133,-7.29413 2.37411,-7.5297 1.70881,-7.70796 1.03052,-7.82757 0.34438,-7.88759 -1,0 z "/>
<path d="M 719.5,360 l -0.340575,7.80044 -1.01913,7.74107 -1.68993,7.62279 -2.34787,7.4465 -2.98794,7.21353 -3.60527,6.92567 -4.19517,6.58509 -4.75313,6.1944 -5.27492,5.75657 -5.75657,5.27492 -6.1944,4.75313 -6.58509,4.19517 -6.92567,3.60527 -7.21353,2.98794 -7.4465,2.34787 -7.62279,1.68993 -7.74107,1.01913 -7.80044,0.340575 0,1 7.88759,-0.34438 7.82757,-1.03052 7.70796,-1.70881 7.5297,-2.37411 7.29413,-3.02133 7.00305,-3.64556 6.65867,-4.24204 6.26361,-4.80624 5.82089,-5.33386 5.33386,-5.82089 4.80624,-6.26361 4.24204,-6.65867 3.64556,-7.00305 3.02133,-7.29413 2.37411,-7.5297 1.70881,-7.70796 1.03052,-7.82757 0.34438,-7.88759 -1,0 z "/>
<path d="M 89.5,450 l -0.340575,7.80044 -1.01913,7.74107 -1.68993,7.62279 -2.34787,7.4465 -2.98794,7.21353 -3.60527,6.92567 -4.19517,6.58509 -4.75313,6.1944 -5.27492,5.75657 -5.75657,5.27492 -6.1944,4.75313 -6.58509,4.19517 -6.92567,3.60527 -7.21353,2.98794 -7.4465,2.34787 -7.62279,1.68993 -7.74107,1.01913 -7.80044,0.340575 0,1 7.88759,-0.34438 7.82757,-1.03052 7.70796,-1.70881 7.5297,-2.37411 7.29413,-3.02133 7.00305,-3.64556 6.65867,-4.24204 6.26361,-4.80624 5.82089,-5.33386 5.33386,-5.82089 4.80624,-6.26361 4.24204,-6.65867 3.64556,-7.00305 3.02133,-7.29413 2.37411,-7.5297 1.70881,-7.70796 1.03052,-7.82757 0.34438,-7.88759 -1,0 z "/>
<path d="M 179.5,450 l -0.340575,7.80044 -1.01913,7.74107 -1.68993,7.62279 -2.34787,7.4465 -2.98794,7.21353 -3.60527,6.92567 -4.19517,6.58509 -4.75313,6.1944 -5.27492,5.75657 -5.75657,5.27492 -6.1944,4.75313 -6.58509,4.19517 -6.92567,3.60527 -7.21353,2.98794 -7.4465,2.34787 -7.62279,1.68993 -7.74107,1.01913 -7.80044,0.340575 0,1 7.88759,-0.34438 7.82757,-1.03052 7.70796,-1.70881 7.5297,-2.37411 7.29413,-3.02133 7.00305,-3.64556 6.65867,-4.24204 6.26361,-4.80624 5.82089,-5.33386 5.33386,-5.82089 4.80624,-6.26361 4.24204,-6.65867 3.64556,-7.00305 3.02133,-7.29413 2.37411,-7.5297 1.70881,-7.70796 1.03052,-7.82757 0.34438,-7.88759 -1,0 z "/>
<path d="M 269.5,450 l -0.340575,7.80044 -1.01913,7.74107 -1.68993,7.62279 -2.34787,7.4465 -2.98794,7.21353 -3.60527,6.92567 -4.19517,6.58509 -4.75313,6.1944 -5.27492,5.75657 -5.75657,5.27492 -6.1944,4.75313 -6.58509,4.19517 -6.92567,3.60527 -7.21353,2.98794 -7.4465,2.34787 -7.62279,1.68993 -7.74107,1.01913 -7.80044,0.340575 0,1 7.88759,-0.34438 7.82757,-1.03052 7.70796,-1.70881 7.5297,-2.37411 7.29413,-3.02133 7.00305,-3.64556 6.65867,-4.24204 6.26361,-4.80624 5.82089,-5.33386 5.33386,-5.82089 4.80624,-6.26361 4.24204,-6.65867 3.64556,-7.00305 3.02133,-7.29413 2.37411,-7.5297 1.70881,-7.70796 1.03052,-7.82757 0.34438,-7.88759 -1,0 z "/>
<path d="M 359.5,450 l -0.340575,7.80044 -1.01913,7.74107 -1.68993,7.62279 -2.34787,7.4465 -2.98794,7.21353 -3.60527,6.92567 -4.19517,6.58509 -4.75313,6.1944 -5.27492,5.75657 -5.75657,5.27492 -6.1944,4.75313 -6.58509,4.19517 -6.92567,3.60527 -7.21353,2.98794 -7.4465,2.34787 -7.62279,1.68993 -7.74107,1.01913 -7.80044,0.340575 0,1 7.88759,-0.34438 7.82757,-1.03052 7.70796,-1.70881 7.5297,-2.37411 7.29413,-3.02133 7.00305,-3.64556 6.65867,-4.24204 6.26361,-4.80624 5.82089,-5.33386 5.33386,-5.82089 4.80624,-6.26361 4.24204,-6.65867 3.64556,-7.00305 3.02133,-7.29413 2.37411,-7.5297 1.70881,-7.70796 1.03052,-7.82757 0.34438,-7.88759 -1,0 z "/>
<path d="M 449.5,450 l -0.340575,7.80044 -1.01913,7.74107 -1.68993,7.62279 -2.34787,7.4465 -2.98794,7.21353 -3.60527,6.92567 -4.19517,6.58509 -4.75313,6.1944 -5.27492,5.75657 -5.75657,5.27492 -6.1944,4.75313 -6.58509,4.19517 -6.92567,3.60527 -7.21353,2.98794 -7.4465,2.34787 -7.62279,1.68993 -7.74107,1.01913 -7.80044,0.340575 0,1 7.88759,-0.34438 7.82757,-1.03052 7.70796,-1.70881 7.5297,-2.37411 7.29413,-3.02133 7.00305,-3.64556 6.65867,-4.24204 6.26361,-4.80624 5.82089,-5.33386 5.33386,-5.82089 4.80624,-6.26361 4.24204,-6.65867 3.64556,-7.00305 3.02133,-7.29413 2.37411,-7.5297 1.70881,-7.70796 1.03052,-7.82757 0.34438,-7.88759 -1,0 z "/>
<path d="M 539.5,450 l -0.340575,7.80044 -1.01913,7.74107 -1.68993,7.62279 -2.34787,7.4465 -2.98794,7.21353 -3.60527,6.92567 -4.19517,6.58509 -4.75313,6.1944 -5.27492,5.75657 -5.75657,5.27492 -6.1944,4.75313 -6.58509,4.19517 -6.92567,3.60527 -7.21353,2.98794 -7.4465,2.34787 -7.62279,1.68993 -7.74107,1.01913 -7.80044,0.340575 0,1 7.88759,-0.34438 7.82757,-1.03052 7.70796,-1.70881 7.5297,-2.37411 7.29413,-3.02133 7.00305,-3.64556 6.65867,-4.24204 6.26361,-4.80624 5.82089,-5.33386 5.33386,-5.82089 4.80624,-6.26361 4.24204,-6.65867 3.64556,-7.00305 3.02133,-7.29413 2.37411,-7.5297 1.70881,-7.70796 1.03052,-7.82757 0.34438,-7.88759 -1,0 z "/>
<path d="M 629.5,450 l -0.340575,7.80044 -1.01913,7.74107 -1.68993,7.62279 -2.34787,7.4465 -2.98794,7.21353 -3.60527,6.92567 -4.19517,6.58509 -4.75313,6.1944 -5.27492,5.75657 -5.75657,5.27492 -6.1944,4.75313 -6.58509,4.19517 -6.92567,3.60527 -7.21353,2.98794 -7.4465,2.34787 -7.62279,1.68993 -7.74107,1.01913 -7.80044,0.340575 0,1 7.88759,-0.34438 7.82757,-1.03052 7.70796,-1.70881 7.5297,-2.37411 7.29413,-3.02133 7.00305,-3.64556 6.65867,-4.24204 6.26361,-4.80624 5.82089,-5.33386 5.33386,-5.82089 4.80624,-6.26361 4.24204,-6.65867 3.64556,-7.00305 3.02133,-7.29413 2.37411,-7.5297 1.70881,-7.70796 1.03052,-7.82757 0.34438,-7.88759 -1,0 z "/>
<path d="M 719.5,450 l -0.340575,7.80044 -1.01913,7.74107 -1.68993,7.62279 -2.34787,7.4465 -2.98794,7.21353 -3.60527,6.92567 -4.19517,6.58509 -4.75313,6.1944 -5.27492,5.75657 -5.75657,5.27492 -6.1944,4.75313 -6.58509,4.19517 -6.92567,3.60527 -7.21353,2.98794 -7.4465,2.34787 -7.62279,1.68993 -7.74107,1.01913 -7.80044,0.340575 0,1 7.88759,-0.34438 7.82757,-1.03052 7.70796,-1.70881 7.5297,-2.37411 7.29413,-3.02133 7.00305,-3.64556 6.65867,-4.24204 6.26361,-4.80624 5.82089,-5.33386 5.33386,-5.82089 4.80624,-6.26361 4.24204,-6.65867 3.64556,-7.00305 3.02133,-7.29413 2.37411,-7.5297 1.70881,-7.70796 1.03052,-7.82757 0.34438,-7.88759 -1,0 z "/>
<path d="M 89.5,540 l -0.340575,7.80044 -1.01913,7.74107 -1.68993,7.62279 -2.34787,7.4465 -2.98794,7.21353 -3.60527,6.92567 -4.19517,6.58509 -4.75313,6.1944 -5.27492,5.75657 -5.75657,5.27492 -6.1944,4.75313 -6.58509,4.19517 -6.92567,3.60527 -7.21353,2.98794 -7.4465,2.34787 -7.62279,1.68993 -7.74107,1.01913 -7.80044,0.340575 0,1 7.88759,-0.34438 7.82757,-1.03052 7.70796,-1.70881 7.5297,-2.37411 7.29413,-3.02133 7.00305,-3.64556 6.65867,-4.24204 6.26361,-4.80624 5.82089,-5.33386 5.33386,-5.82089 4.80624,-6.26361 4.24204,-6.65867 3.64556,-7.00305 3.02133,-7.29413 2.37411,-7.5297 1.70881,-7.70796 1.03052,-7.82757 0.34438,-7.88759 -1,0 z "/>
<path d="M 179.5,540 l -0.340575,7.80044 -1.01913,7.74107 -1.68993,7.62279 -2.34787,7.4465 -2.98794,7.21353 -3.60527,6.92567 -4.19517,6.58509 -4.75313,6.1944 -5.27492,5.75657 -5.75657,5.27492 -6.1944,4.75313 -6.58509,4.19517 -6.92567,3.60527 -7.21353,2.98794 -7.4465,2.34787 -7.62279,1.68993 -7.74107,1.01913 -7.80044,0.340575 0,1 7.88759,-0.34438 7.82757,-1.03052 7.70796,-1.70881 7.5297,-2.37411 7.29413,-3.02133 7.00305,-3.64556 6.65867,-4.24204 6.26361,-4.80624 5.82089,-5.33386 5.33386,-5.82089 4.80624,-6.26361 4.24204,-6.65867 3.64556,-7.00305 3.02133,-7.29413 2.37411,-7.5297 1.70881,-7.70796 1.03052,-7.82757 0.34438,-7.88759 -1,0 z "/>
<path d="M 269.5,540 l -0.340575,7.80044 -1.01913,7.74107 -1.68993,7.62279 -2.34787,7.4465 -2.98794,7.21353 -3.60527,6.92567 -4.19517,6.58509 -4.75313,6.1944 -5.27492,5.75657 -5.75657,5.27492 -6.1944,4.75313 -6.58509,4.19517 -6.92567,3.60527 -7.21353,2.98794 -7.4465,2.34787 -7.62279,1.68993 -7.74107,1.01913 -7.80044,0.340575 0,1 7.88759,-0.34438 7.82757,-1.03052 7.70796,-1.70881 7.5297,-2.37411 7.29413,-3.02133 7.00305,-3.64556 6.65867,-4.24204 6.26361,-4.80624 5.82089,-5.33386 5.33386,-5.82089 4.80624,-6.26361 4.24204,-6.65867 3.64556,-7.00305 3.02133,-7.29413 2.37411,-7.5297 1.70881,-7.70796 1.03052,-7.82757 0.34438,-7.88759 -1,0 z "/>
<path d="M 359.5,540 l -0.340575,7.80044 -1.01913,7.74107 -1.68993,7.62279 -2.34787,7.4465 -2.98794,7.21353 -3.60527,6.92567 -4.19517,6.58509 -4.75313,6.1944 -5.27492,5.75657 -5.75657,5.27492 -6.1944,4.75313 -6.58509,4.19517 -6.92567,3.60527 -7.21353,2.98794 -7.4465,2.34787 -7.62279,1.68993 -7.74107,1.01913 -7.80044,0.340575 0,1 7.88759,-0.34438 7.82757,-1.03052 7.70796,-1.70881 7.5297,-2.37411 7.29413,-3.02133 7.00305,-3.64556 6.65867,-4.24204 6.26361,-4.80624 5.82089,-5.33386 5.33386,-5.82089 4.80624,-6.26361 4.24204,-6.65867 3.64556,-7.00305 3.02133,-7.29413 2.37411,-7.5297 1.70881,-7.70796 1.03052,-7.82757 0.34438,-7.88759 -1,0 z "/>
<path d="M 449.5,540 l -0.340575,7.80044 -1.01913,7.74107 -1.68993,7.62279 -2.34787,7.4465 -2.98794,7.21353 -3.60527,6.92567 -4.19517,6.58509 -4.75313,6.1944 -5.27492,5.75657 -5.75657,5.27492 -6.1944,4.75313 -6.58509,4.19517 -6.92567,3.60527 -7.21353,2.98794 -7.4465,2.34787 -7.62279,1.68993 -7.74107,1.01913 -7.80044,0.340575 0,1 7.88759,-0.34438 7.82757,-1.03052 7.70796,-1.70881 7.5297,-2.37411 7.29413,-3.02133 7.00305,-3.64556 6.65867,-4.24204 6.26361,-4.80624 5.82089,-5.33386 5.33386,-5.82089 4.80624,-6.26361 4.24204,-6.65867 3.64556,-7.00305 3.02133,-7.29413 2.37411,-7.5297 1.70881,-7.70796 1.03052,-7.82757 0.34438,-7.88759 -1,0 z "/>
<path d="M 539.5,540 l -0.340575,7.80044 -1.01913,7.74107 -1.68993,7.62279 -2.34787,7.4465 -2.98794,7.21353 -3.60527,6.92567 -4.19517,6.58509 -4.75313,6.1944 -5.27492,5.75657 -5.75657,5.27492 -6.1944,4.75313 -6.58509,4.19517 -6.92567,3.60527 -7.21353,2.98794 -7.4465,2.34787 -7.62279,1.68993 -7.74107,1.01913 -7.80044,0.340575 0,1 7.88759,-0.34438 7.82757,-1.03052 7.70796,-1.70881 7.5297,-2.37411 7.29413,-3.02133 7.00305,-3.64556 6.65867,-4.24204 6.26361,-4.80624 5.82089,-5.33386 5.33386,-5.82089 4.80624,-6.26361 4.24204,-6.65867 3.64556,-7.00305 3.02133,-7.29413 2.37411,-7.5297 1.70881,-7.70796 1.03052,-7.82757 0.34438,-7.88759 -1,0 z "/>
<path d="M 629.5,540 l -0.340575,7.80044 -1.01913,7.74107 -1.68993,7.62279 -2.34787,7.4465 -2.98794,7.21353 -3.60527,6.92567 -4.19517,6.58509 -4.75313,6.1944 -5.27492,5.75657 -5.75657,5.27492 -6.1944,4.75313 -6.58509,4.19517 -6.92567,3.60527 -7.21353,2.98794 -7.4465,2.34787 -7.62279,1.68993 -7.74107,1.01913 -7.80044,0.340575 0,1 7.88759,-0.34438 7.82757,-1.03052 7.70796,-1.70881 7.5297,-2.37411 7.29413,-3.02133 7.00305,-3.64556 6.65867,-4.24204 6.26361,-4.80624 5.82089,-5.33386 5.33386,-5.82089 4.80624,-6.26361 4.24204,-6.65867 3.64556,-7.00305 3.02133,-7.29413 2.37411,-7.5297 1.70881,-7.70796 1.03052,-7.82757 0.34438,-7.88759 -1,0 z "/>
<path d="M 719.5,540 l -0.340575,7.80044 -1.01913,7.74107 -1.68993,7.62279 -2.34787,7.4465 -2.98794,7.21353 -3.60527,6.92567 -4.19517,6.58509 -4.75313,6.1944 -5.27492,5.75657 -5.75657,5.27492 -6.1944,4.75313 -6.58509,4.19517 -6.92567,3.60527 -7.21353,2.98794 -7.4465,2.34787 -7.62279,1.68993 -7.74107,1.01913 -7.80044,0.340575 0,1 7.88759,-0.34438 7.82757,-1.03052 7.70796,-1.70881 7.5297,-2.37411 7.29413,-3.02133 7.00305,-3.64556 6.65867,-4.24204 6.26361,-4.80624 5.82089,-5.33386 5.33386,-5.82089 4.80624,-6.26361 4.24204,-6.65867 3.64556,-7.00305 3.02133,-7.29413 2.37411,-7.5297 1.70881,-7.70796 1.03052,-7.82757 0.34438,-7.88759 -1,0 z "/>
<path d="M 89.5,630 l -0.340575,7.80044 -1.01913,7.74107 -1.68993,7.62279 -2.34787,7.4465 -2.98794,7.21353 -3.60527,6.92567 -4.19517,6.58509 -4.75313,6.1944 -5.27492,5.75657 -5.75657,5.27492 -6.1944,4.75313 -6.58509,4.19517 -6.92567,3.60527 -7.21353,2.98794 -7.4465,2.34787 -7.62279,1.68993 -7.74107,1.01913 -7.80044,0.340575 0,1 7.88759,-0.34438 7.82757,-1.03052 7.70796,-1.70881 7.5297,-2.37411 7.29413,-3.02133 7.00305,-3.64556 6.65867,-4.24204 6.26361,-4.80624 5.82089,-5.33386 5.33386,-5.82089 4.80624,-6.26361 4.24204,-6.65867 3.64556,-7.00305 3.02133,-7.29413 2.37411,-7.5297 1.70881,-7.70796 1.03052,-7.82757 0.34438,-7.88759 -1,0 z "/>
<path d="M 179.5,630 l -0.340575,7.80044 -1.01913,7.74107 -1.68993,7.62279 -2.34787,7.4465 -2.98794,7.21353 -3.60527,6.92567 -4.19517,6.58509 -4.75313,6.1944 -5.27492,5.75657 -5.75657,5.27492 -6.1944,4.75313 -6.58509,4.19517 -6.92567,3.60527 -7.21353,2.98794 -7.4465,2.34787 -7.62279,1.68993 -7.74107,1.01913 -7.80044,0.340575 0,1 7.88759,-0.34438 7.82757,-1.03052 7.70796,-1.70881 7.5297,-2.37411 7.29413,-3.02133 7.00305,-3.64556 6.65867,-4.24204 6.26361,-4.80624 5.82089,-5.33386 5.33386,-5.82089 4.80624,-6.26361 4.24204,-6.65867 3.64556,-7.00305 3.02133,-7.29413 2.37411,-7.5297 1.70881,-7.70796 1.03052,-7.82757 0.34438,-7.88759 -1,0 z "/>
<path d="M 269.5,630 l -0.340575,7.80044 -1.01913,7.74107 -1.68993,7.62279 -2.34787,7.4465 -2.98794,7.21353 -3.60527,6.92567 -4.19517,6.58509 -4.75313,6.1944 -5.27492,5.75657 -5.75657,5.27492 -6.1944,4.75313 -6.58509,4.19517 -6.92567,3.60527 -7.21353,2.98794 -7.4465,2.34787 -7.62279,1.68993 -7.74107,1.01913 -7.80044,0.340575 0,1 7.88759,-0.34438 7.82757,-1.03052 7.70796,-1.70881 7.5297,-2.37411 7.29413,-3.02133 7.00305,-3.64556 6.65867,-4.24204 6.26361,-4.80624 5.82089,-5.33386 5.33386,-5.82089 4.80624,-6.26361 4.24204,-6.65867 3.64556,-7.00305 3.02133,-7.29413 2.37411,-7.5297 1.70881,-7.70796 1.03052,-7.82757 0.34438,-7.88759 -1,0 z "/>
<path d="M 359.5,630 l -0.340575,7.80044 -1.01913,7.74107 -1.68993,7.62279 -2.34787,7.4465 -2.98794,7.21353 -3.60527,6.92567 -4.19517,6.58509 -4.75313,6.1944 -5.27492,5.75657 -5.75657,5.27492 -6.1944,4.75313 -6.58509,4.19517 -6.92567,3.60527 -7.21353,2.98794 -7.4465,2.34787 -7.62279,1.68993 -7.74107,1.01913 -7.80044,0.340575 0,1 7.88759,-0.34438 7.82757,-1.03052 7.70796,-1.70881 7.5297,-2.37411 7.29413,-3.02133 7.00305,-3.64556 6.65867,-4.24204 6.26361,-4.80624 5.82089,-5.33386 5.33386,-5.82089 4.80624,-6.26361 4.24204,-6.65867 3.64556,-7.00305 3.02133,-7.29413 2.37411,-7.5297 1.70881,-7.70796 1.03052,-7.82757 0.34438,-7.88759 -1,0 z "/>
<path d="M 449.5,630 l -0.340575,7.80044 -1.01913,7.74107 -1.68993,7.62279 -2.34787,7.4465 -2.98794,7.21353 -3.60527,6.92567 -4.19517,6.58509 -4.75313,6.1944 -5.27492,5.75657 -5.75657,5.27492 -6.1944,4.75313 -6.58509,4.19517 -6.92567,3.60527 -7.21353,2.98794 -7.4465,2.34787 -7.62279,1.68993 -7.74107,1.01913 -7.80044,0.340575 0,1 7.88759,-0.34438 7.82757,-1.03052 7.70796,-1.70881 7.5297,-2.37411 7.29413,-3.02133 7.00305,-3.64556 6.65867,-4.24204 6.26361,-4.80624 5.82089,-5.33386 5.33386,-5.82089 4.80624,-6.26361 4.24204,-6.65867 3.64556,-7.00305 3.02133,-7.29413 2.37411,-7.5297 1.70881,-7.70796 1.03052,-7.82757 0.34438,-7.88759 -1,0 z "/>
<path d="M 539.5,630 l -0.340575,7.80044 -1.01913,7.74107 -1.68993,7.62279 -2.34787,7.4465 -2.98794,7.21353 -3.60527,6.92567 -4.19517,6.58509 -4.75313,6.1944 -5.27492,5.75657 -5.75657,5.27492 -6.1944,4.75313 -6.58509,4.19517 -6.92567,3.60527 -7.21353,2.98794 -7.4465,2.34787 -7.62279,1.68993 -7.74107,1.01913 -7.80044,0.340575 0,1 7.88759,-0.34438 7.82757,-1.03052 7.70796,-1.70881 7.5297,-2.37411 7.29413,-3.02133 7.00305,-3.64556 6.65867,-4.24204 6.26361,-4.80624 5.82089,-5.33386 5.33386,-5.82089 4.80624,-6.26361 4.24204,-6.65867 3.64556,-7.00305 3.02133,-7.29413 2.37411,-7.5297 1.70881,-7.70796 1.03052,-7.82757 0.34438,-7.88759 -1,0 z "/>
<path d="M 629.5,630 l -0.340575,7.80044 -1.01913,7.74107 -1.68993,7.62279 -2.34787,7.4465 -2.98794,7.21353 -3.60527,6.92567 -4.19517,6.58509 -4.75313,6.1944 -5.27492,5.75657 -5.75657,5.27492 -6.1944,4.75313 -6.58509,4.19517 -6.92567,3.60527 -7.21353,2.98794 -7.4465,2.34787 -7.62279,1.68993 -7.74107,1.01913 -7.80044,0.340575 0,1 7.88759,-0.34438 7.82757,-1.03052 7.70796,-1.70881 7.5297,-2.37411 7.29413,-3.02133 7.00305,-3.64556 6.65867,-4.24204 6.26361,-4.80624 5.82089,-5.33386 5.33386,-5.82089 4.80624,-6.26361 4.24204,-6.65867 3.64556,-7.00305 3.02133,-7.29413 2.37411,-7.5297 1.70881,-7.70796 1.03052,-7.82757 0.34438,-7.88759 -1,0 z "/>
<path d="M 719.5,630 l -0.340575,7.80044 -1.01913,7.74107 -1.68993,7.62279 -2.34787,7.4465 -2.98794,7.21353 -3.60527,6.92567 -4.19517,6.58509 -4.75313,6.1944 -5.27492,5.75657 -5.75657,5.27492 -6.1944,4.75313 -6.58509,4.19517 -6.92567,3.60527 -7.21353,2.98794 -7.4465,2.34787 -7.62279,1.68993 -7.74107,1.01913 -7.80044,0.340575 0,1 7.88759,-0.34438 7.82757,-1.03052 7.70796,-1.70881 7.5297,-2.37411 7.29413,-3.02133 7.00305,-3.64556 6.65867,-4.24204 6.26361,-4.80624 5.82089,-5.33386 5.33386,-5.82089 4.80624,-6.26361 4.24204,-6.65867 3.64556,-7.00305 3.02133,-7.29413 2.37411,-7.5297 1.70881,-7.70796 1.03052,-7.82757 0.34438,-7.88759 -1,0 z "/>
</g></g></svg>