<?xml version="1.0" encoding="UTF-8" standalone="no"?>
<!DOCTYPE svg PUBLIC "-//W3C//DTD SVG 1.1//EN" "http://www.w3.org/Graphics/SVG/1.1/DTD/svg11-flat.dtd"
[
<!ATTLIST g xmlns:fme CDATA #FIXED "http://www.safe.com/fme" >
<!ATTLIST path fme:_creation_instance CDATA #IMPLIED fme:i CDATA #IMPLIED >
<!ATTLIST ellipse fme:_creation_instance CDATA #IMPLIED fme:i CDATA #IMPLIED >
<!ATTLIST text fme:_creation_instance CDATA #IMPLIED fme:i CDATA #IMPLIED >
<!ATTLIST use fme:_creation_instance CDATA #IMPLIED fme:i CDATA #IMPLIED >
]>
<svg xmlns="http://www.w3.org/2000/svg"  viewBox="-4.98714 -4.98714 408.945 617.041"><g xmlns:fme="http://www.safe.com/fme" fill="none" stroke="black" stroke-width="0.049871392896287" transform="translate(0,607.067) scale(1, -1)">
<g id="test" >
<path d="M 38.9711,22.5 l -38.9711,-22.5 "/>
<path d="M 38.9711,100.442 l -38.9711,-22.5 "/>
<path d="M 38.9711,178.385 l -38.9711,-22.5 "/>
<path d="M 38.9711,256.327 l -38.9711,-22.5 "/>
<path d="M 38.9711,334.269 l -38.9711,-22.5 "/>
<path d="M 38.9711,412.211 l -38.9711,-22.5 "/>
<path d="M 38.9711,490.154 l -38.9711,-22.5 "/>
<path d="M 38.9711,568.096 l -38.9711,-22.5 "/>
<path d="M 61.4711,61.4711 l -38.9711,-22.5 "/>
<path d="M 61.4711,139.413 l -38.9711,-22.5 "/>
<path d="M 61.4711,217.356 l -38.9711,-22.5 "/>
<path d="M 61.4711,295.298 l -38.9711,-22.5 "/>
<path d="M 61.4711,373.24 l -38.9711,-22.5 "/>
<path d="M 61.4711,451.183 l -38.9711,-22.5 "/>
<path d="M 61.4711,529.125 l -38.9711,-22.5 "/>
<path d="M 61.4711,607.067 l -38.9711,-22.5 "/>
<path d="M 83.9711,22.5 l -38.9711,-22.5 "/>
<path d="M 83.9711,100.442 l -38.9711,-22.5 "/>
<path d="M 83.9711,178.385 l -38.9711,-22.5 "/>
<path d="M 83.9711,256.327 l -38.9711,-22.5 "/>
<path d="M 83.9711,334.269 l -38.9711,-22.5 "/>
<path d="M 83.9711,412.211 l -38.9711,-22.5 "/>
<path d="M 83.9711,490.154 l -38.9711,-22.5 "/>
<path d="M 83.9711,568.096 l -38.9711,-22.5 "/>
<path d="M 106.471,61.4711 l -38.9711,-22.5 "/>
<path d="M 106.471,139.413 l -38.9711,-22.5 "/>
<path d="M 106.471,217.356 l -38.9711,-22.5 "/>
<path d="M 106.471,295.298 l -38.9711,-22.5 "/>
<path d="M 106.471,373.24 l -38.9711,-22.5 "/>
<path d="M 106.471,451.183 l -38.9711,-22.5 "/>
<path d="M 106.471,529.125 l -38.9711,-22.5 "/>
<path d="M 106.471,607.067 l -38.9711,-22.5 "/>
<path d="M 128.971,22.5 l -38.9711,-22.5 "/>
<path d="M 128.971,100.442 l -38.9711,-22.5 "/>
<path d="M 128.971,178.385 l -38.9711,-22.5 "/>
<path d="M 128.971,256.327 l -38.9711,-22.5 "/>
<path d="M 128.971,334.269 l -38.9711,-22.5 "/>
<path d="M 128.971,412.211 l -38.9711,-22.5 "/>
<path d="M 128.971,490.154 l -38.9711,-22.5 "/>
<path d="M 128.971,568.096 l -38.9711,-22.5 "/>
<path d="M 151.471,61.4711 l -38.9711,-22.5 "/>
<path d="M 151.471,139.413 l -38.9711,-22.5 "/>
<path d="M 151.471,217.356 l -38.9711,-22.5 "/>
<path d="M 151.471,295.298 l -38.9711,-22.5 "/>
<path d="M 151.471,373.24 l -38.9711,-22.5 "/>
<path d="M 151.471,451.183 l -38.9711,-22.5 "/>
<path d="M 151.471,529.125 l -38.9711,-22.5 "/>
<path d="M 151.471,607.067 l -38.9711,-22.5 "/>
<path d="M 173.971,22.5 l -38.9711,-22.5 "/>
<path d="M 173.971,100.442 l -38.9711,-22.5 "/>
<path d="M 173.971,178.385 l -38.9711,-22.5 "/>
<path d="M 173.971,256.327 l -38.9711,-22.5 "/>
<path d="M 173.971,334.269 l -38.9711,-22.5 "/>
<path d="M 173.971,412.211 l -38.9711,-22.5 "/>
<path d="M 173.971,490.154 l -38.9711,-22.5 "/>
<path d="M 173.971,568.096 l -38.9711,-22.5 "/>
<path d="M 196.471,61.4711 l -38.9711,-22.5 "/>
<path d="M 196.471,139.413 l -38.9711,-22.5 "/>
<path d="M 196.471,217.356 l -38.9711,-22.5 "/>
<path d="M 196.471,295.298 l -38.9711,-22.5 "/>
<path d="M 196.471,373.24 l -38.9711,-22.5 "/>
<path d="M 196.471,451.183 l -38.9711,-22.5 "/>
<path d="M 196.471,529.125 l -38.9711,-22.5 "/>
<path d="M 196.471,607.067 l -38.9711,-22.5 "/>
<path d="M 218.971,22.5 l -38.9711,-22.5 "/>
<path d="M 218.971,100.442 l -38.9711,-22.5 "/>
<path d="M 218.971,178.385 l -38.9711,-22.5 "/>
<path d="M 218.971,256.327 l -38.9711,-22.5 "/>
<path d="M 218.971,334.269 l -38.9711,-22.5 "/>
<path d="M 218.971,412.211 l -38.9711,-22.5 "/>
<path d="M 218.971,490.154 l -38.9711,-22.5 "/>
<path d="M 218.971,568.096 l -38.9711,-22.5 "/>
<path d="M 241.471,61.4711 l -38.9711,-22.5 "/>
<path d="M 241.471,139.413 l -38.9711,-22.5 "/>
<path d="M 241.471,217.356 l -38.9711,-22.5 "/>
<path d="M 241.471,295.298 l -38.9711,-22.5 "/>
<path d="M 241.471,373.24 l -38.9711,-22.5 "/>
<path d="M 241.471,451.183 l -38.9711,-22.5 "/>
<path d="M 241.471,529.125 l -38.9711,-22.5 "/>
<path d="M 241.471,607.067 l -38.9711,-22.5 "/>
<path d="M 263.971,22.5 l -38.9711,-22.5 "/>
<path d="M 263.971,100.442 l -38.9711,-22.5 "/>
<path d="M 263.971,178.385 l -38.9711,-22.5 "/>
<path d="M 263.971,256.327 l -38.9711,-22.5 "/>
<path d="M 263.971,334.269 l -38.9711,-22.5 "/>
<path d="M 263.971,412.211 l -38.9711,-22.5 "/>
<path d="M 263.971,490.154 l -38.9711,-22.5 "/>
<path d="M 263.971,568.096 l -38.9711,-22.5 "/>
<path d="M 286.471,61.4711 l -38.9711,-22.5 "/>
<path d="M 286.471,139.413 l -38.9711,-22.5 "/>
<path d="M 286.471,217.356 l -38.9711,-22.5 "/>
<path d="M 286.471,295.298 l -38.9711,-22.5 "/>
<path d="M 286.471,373.24 l -38.9711,-22.5 "/>
<path d="M 286.471,451.183 l -38.9711,-22.5 "/>
<path d="M 286.471,529.125 l -38.9711,-22.5 "/>
<path d="M 286.471,607.067 l -38.9711,-22.5 "/>
<path d="M 308.971,22.5 l -38.9711,-22.5 "/>
<path d="M 308.971,100.442 l -38.9711,-22.5 "/>
<path d="M 308.971,178.385 l -38.9711,-22.5 "/>
<path d="M 308.971,256.327 l -38.9711,-22.5 "/>
<path d="M 308.971,334.269 l -38.9711,-22.5 "/>
<path d="M 308.971,412.211 l -38.9711,-22.5 "/>
<path d="M 308.971,490.154 l -38.9711,-22.5 "/>
<path d="M 308.971,568.096 l -38.9711,-22.5 "/>
<path d="M 331.471,61.4711 l -38.9711,-22.5 "/>
<path d="M 331.471,139.413 l -38.9711,-22.5 "/>
<path d="M 331.471,217.356 l -38.9711,-22.5 "/>
<path d="M 331.471,295.298 l -38.9711,-22.5 "/>
<path d="M 331.471,373.24 l -38.9711,-22.5 "/>
<path d="M 331.471,451.183 l -38.9711,-22.5 "/>
<path d="M 331.471,529.125 l -38.9711,-22.5 "/>
<path d="M 331.471,607.067 l -38.9711,-22.5 "/>
<path d="M 353.971,22.5 l -38.9711,-22.5 "/>
<path d="M 353.971,100.442 l -38.9711,-22.5 "/>
<path d="M 353.971,178.385 l -38.9711,-22.5 "/>
<path d="M 353.971,256.327 l -38.9711,-22.5 "/>
<path d="M 353.971,334.269 l -38.9711,-22.5 "/>
<path d="M 353.971,412.211 l -38.9711,-22.5 "/>
<path d="M 353.971,490.154 l -38.9711,-22.5 "/>
<path d="M 353.971,568.096 l -38.9711,-22.5 "/>
<path d="M 376.471,61.4711 l -38.9711,-22.5 "/>
<path d="M 376.471,139.413 l -38.9711,-22.5 "/>
<path d="M 376.471,217.356 l -38.9711,-22.5 "/>
<path d="M 376.471,295.298 l -38.9711,-22.5 "/>
<path d="M 376.471,373.24 l -38.9711,-22.5 "/>
<path d="M 376.471,451.183 l -38.9711,-22.5 "/>
<path d="M 376.471,529.125 l -38.9711,-22.5 "/>
<path d="M 376.471,607.067 l -38.9711,-22.5 "/>
<path d="M 398.971,22.5 l -38.9711,-22.5 "/>
<path d="M 398.971,100.442 l -38.9711,-22.5 "/>
<path d="M 398.971,178.385 l -38.9711,-22.5 "/>
<path d="M 398.971,256.327 l -38.9711,-22.5 "/>
<path d="M 398.971,334.269 l -38.9711,-22.5 "/>
<path d="M 398.971,412.211 l -38.9711,-22.5 "/>
<path d="M 398.971,490.154 l -38.9711,-22.5 "/>
<path d="M 398.971,568.096 l -38.9711,-22.5 "/>
</g></g></svg>