<?xml version="1.0" encoding="UTF-8" standalone="no"?>
<!DOCTYPE svg PUBLIC "-//W3C//DTD SVG 1.1//EN" "http://www.w3.org/Graphics/SVG/1.1/DTD/svg11-flat.dtd"
[
<!ATTLIST g xmlns:fme CDATA #FIXED "http://www.safe.com/fme" >
<!ATTLIST path fme:buf_int CDATA #IMPLIED fme:_creation_instance CDATA #IMPLIED fme:i CDATA #IMPLIED fme:label CDATA #IMPLIED fme:seq_num CDATA #IMPLIED >
<!ATTLIST ellipse fme:buf_int CDATA #IMPLIED fme:_creation_instance CDATA #IMPLIED fme:i CDATA #IMPLIED fme:label CDATA #IMPLIED fme:seq_num CDATA #IMPLIED >
<!ATTLIST text fme:buf_int CDATA #IMPLIED fme:_creation_instance CDATA #IMPLIED fme:i CDATA #IMPLIED fme:label CDATA #IMPLIED fme:seq_num CDATA #IMPLIED >
<!ATTLIST use fme:buf_int CDATA #IMPLIED fme:_creation_instance CDATA #IMPLIED fme:i CDATA #IMPLIED fme:label CDATA #IMPLIED fme:seq_num CDATA #IMPLIED >
]>
<svg xmlns="http://www.w3.org/2000/svg"  viewBox="-0.352612 -0.352612 37.0732 21.862"><g xmlns:fme="http://www.safe.com/fme" fill="none" stroke="black" stroke-width="0.00352612299214" transform="translate(0,21.1567) scale(1, -1)">
<g id="test" >
<path fme:_creation_instance="0" d="M 35.368,15.635 l -0.0727482,-0.210724 -0.075533,-0.210634 -0.0783316,-0.210499 -0.0811429,-0.210318 -0.0839661,-0.210091 -0.0868001,-0.209817 -0.0896441,-0.209497 -0.092497,-0.209129 -0.0953579,-0.208714 -0.0982256,-0.208251 -0.101099,-0.20774 -0.103978,-0.207181 -0.10686,-0.206573 -0.109745,-0.205916 -0.112631,-0.20521 -0.115519,-0.204455 -0.118405,-0.203651 -0.12129,-0.202797 -0.124172,-0.201893 -0.12705,-0.200939 -0.129923,-0.199936 -0.13279,-0.198882 -0.13565,-0.197779 -0.138501,-0.196625 -0.141342,-0.195422 -0.144172,-0.194168 -0.146991,-0.192864 -0.149796,-0.191511 -0.152586,-0.190107 -0.155361,-0.188653 -0.158119,-0.18715 -0.16086,-0.185597 -0.16358,-0.183995 -0.166281,-0.182343 -0.168959,-0.180642 -0.171615,-0.178892 -0.174247,-0.177094 -0.176854,-0.175247 -0.179434,-0.173353 -0.181986,-0.17141 -0.18451,-0.16942 -0.187004,-0.167383 -0.189466,-0.165299 -0.191896,-0.163168 -0.194292,-0.160992 -0.196654,-0.15877 -0.19898,-0.156503 -0.201269,-0.154192 -0.203519,-0.151836 -0.20573,-0.149436 -0.207901,-0.146994 -0.210031,-0.144509 -0.212117,-0.141982 -0.21416,-0.139414 -0.216159,-0.136805 -0.218111,-0.134156 -0.220017,-0.131467 -0.221874,-0.12874 -0.223683,-0.125974 -0.225442,-0.123171 -0.227149,-0.120331 -0.228806,-0.117456 -0.230409,-0.114545 -0.231958,-0.1116 -0.233453,-0.108621 -0.234892,-0.105609 -0.236275,-0.102566 -0.237601,-0.0994909 -0.238869,-0.0963858 -0.240078,-0.0932514 -0.241227,-0.0900884 -0.242316,-0.0868978 -0.243344,-0.0836805 -0.24431,-0.0804374 -0.245213,-0.0771694 -0.246054,-0.0738776 -0.246831,-0.0705628 -0.247543,-0.0672261 -0.24819,-0.0638684 -0.248772,-0.0604907 -0.249288,-0.057094 -0.249738,-0.0536794 -0.25012,-0.0502479 -0.250435,-0.0468005 -0.250683,-0.0433382 -0.250862,-0.0398622 -0.250973,-0.0363733 -0.251015,-0.0328728 -0.250988,-0.0293617 -0.250892,-0.0258411 -0.250726,-0.022312 -0.25049,-0.0187755 -0.250184,-0.0152327 -0.249809,-0.0116847 -0.249363,-0.00813265 -0.248847,-0.00457756 -0.248261,-0.00102055 -0.247605,0.00253728 -0.246879,0.00609483 -0.246082,0.009651 -0.245216,0.0132047 -0.24428,0.0167548 -0.243274,0.0203003 -0.242198,0.02384 -0.241053,0.0273728 -0.23984,0.0308977 -0.238557,0.0344136 -0.237207,0.0379194 -0.235788,0.041414 -0.234301,0.0448964 -0.232748,0.0483655 -0.231128,0.0518202 -0.229441,0.0552596 -0.227689,0.0586825 -0.225872,0.0620879 -0.22399,0.0654749 -0.222044,0.0688423 -0.220035,0.0721892 -0.217963,0.0755146 -0.21583,0.0788175 -0.213635,0.082097 -0.21138,0.085352 -0.209065,0.0885817 -0.206691,0.091785 -0.204259,0.0949611 -0.20177,0.0981091 -0.199226,0.101228 -0.196625,0.104317 -0.193971,0.107375 -0.191263,0.110402 -0.188503,0.113396 -0.185691,0.116357 -0.18283,0.119283 -0.179919,0.122175 -0.17696,0.125031 -0.173954,0.127851 -0.170903,0.130634 -0.167807,0.133378 -0.164667,0.136084 -0.161485,0.138751 -0.158263,0.141378 -0.155,0.143964 -0.151699,0.146509 -0.148361,0.149013 -0.144986,0.151474 -0.141577,0.153892 -0.138135,0.156266 -0.134661,0.158596 -0.131156,0.160882 -0.127622,0.163123 -0.12406,0.165318 -0.120471,0.167468 -0.116857,0.169571 -0.11322,0.171627 -0.10956,0.173636 -0.10588,0.175597 -0.102179,0.177511 -0.0984611,0.179377 -0.0947262,0.181194 -0.0909761,0.182962 -0.0872122,0.184681 -0.0834361,0.186351 -0.0796491,0.187972 -0.0758526,0.189543 -0.0720482,0.191064 -0.0682372,0.192536 -0.0644212,0.193957 -0.0606015,0.195328 -0.0567795,0.196649 -0.0529568,0.197919 -0.0491348,0.19914 -0.0453148,0.200309 -0.0414983,0.201429 -0.0376867,0.202498 -0.0338814,0.203517 -0.0300838,0.204485 -0.0262953,0.205404 -0.0225172,0.206272 -0.018751,0.207091 -0.0149979,0.207859 -0.0112592,0.208578 -0.00753646,0.209248 -0.00383081,0.209868 -0.000143592,0.21044 0.00352391,0.210962 0.00717044,0.211436 0.0107947,0.211862 0.0143956,0.21224 0.0179717,0.21257 0.021522,0.212853 0.0250453,0.213089 0.0285403,0.213278 0.032006,0.213421 0.0354412,0.213518 0.0388449,0.213569 0.0422159,0.213576 0.0455533,0.213537 0.0488559,0.213455 0.0521228,0.213329 "/>
<path fme:_creation_instance="0" fme:seq_num="0" d="M 35.368,15.635 l -0.0727482,-0.210724 -0.075533,-0.210634 -0.0783316,-0.210499 -0.0811429,-0.210318 -0.0383278,-0.0958997 "/>
<path fme:_creation_instance="0" fme:seq_num="1" d="M 35.0219,14.697 l -0.0456383,-0.114191 -0.0868001,-0.209817 -0.0896441,-0.209497 -0.092497,-0.209129 -0.080379,-0.175929 "/>
<path fme:_creation_instance="0" fme:seq_num="2" d="M 34.627,13.7784 l -0.0149789,-0.0327849 -0.0982256,-0.208251 -0.101099,-0.20774 -0.103978,-0.207181 -0.10686,-0.206573 -0.0180056,-0.0337843 "/>
<path fme:_creation_instance="0" fme:seq_num="3" d="M 34.1838,12.8821 l -0.0917393,-0.172132 -0.112631,-0.20521 -0.115519,-0.204455 -0.118405,-0.203651 -0.0515634,-0.0862138 "/>
<path fme:_creation_instance="0" fme:seq_num="4" d="M 33.694,12.0104 l -0.0697267,-0.116583 -0.124172,-0.201893 -0.12705,-0.200939 -0.129923,-0.199936 -0.0838241,-0.125545 "/>
<path fme:_creation_instance="0" fme:seq_num="5" d="M 33.1593,11.1655 l -0.0489662,-0.0733376 -0.13565,-0.197779 -0.138501,-0.196625 -0.141342,-0.195422 -0.113448,-0.15279 "/>
<path fme:_creation_instance="0" fme:seq_num="6" d="M 32.5814,10.3496 l -0.030724,-0.0413784 -0.146991,-0.192864 -0.149796,-0.191511 -0.152586,-0.190107 -0.139261,-0.169102 "/>
<path fme:_creation_instance="0" fme:seq_num="7" d="M 31.962,9.5646 l -0.0161008,-0.019551 -0.158119,-0.18715 -0.16086,-0.185597 -0.16358,-0.183995 -0.160278,-0.17576 "/>
<path fme:_creation_instance="0" fme:seq_num="8" d="M 31.3031,8.81255 l -0.00600281,-0.00658267 -0.168959,-0.180642 -0.171615,-0.178892 -0.174247,-0.177094 -0.175737,-0.174141 "/>
<path fme:_creation_instance="0" fme:seq_num="9" d="M 30.6065,8.0952 l -0.0011167,-0.00110656 -0.179434,-0.173353 -0.181986,-0.17141 -0.18451,-0.16942 -0.185115,-0.165693 "/>
<path fme:_creation_instance="0" fme:seq_num="10" d="M 29.8743,7.41422 l -0.00188819,-0.00169008 -0.189466,-0.165299 -0.191896,-0.163168 -0.194292,-0.160992 -0.188148,-0.151903 "/>
<path fme:_creation_instance="0" fme:seq_num="11" d="M 29.1086,6.77117 l -0.00850601,-0.0068674 -0.19898,-0.156503 -0.201269,-0.154192 -0.203519,-0.151836 -0.184839,-0.134261 "/>
<path fme:_creation_instance="0" fme:seq_num="12" d="M 28.3115,6.16751 l -0.0208917,-0.0151751 -0.207901,-0.146994 -0.210031,-0.144509 -0.212117,-0.141982 -0.175465,-0.114224 "/>
<path fme:_creation_instance="0" fme:seq_num="13" d="M 27.4851,5.60462 l -0.0386959,-0.0251902 -0.216159,-0.136805 -0.218111,-0.134156 -0.220017,-0.131467 -0.160573,-0.0931702 "/>
<path fme:_creation_instance="0" fme:seq_num="14" d="M 26.6316,5.08383 l -0.0613014,-0.0355693 -0.223683,-0.125974 -0.225442,-0.123171 -0.227149,-0.120331 -0.140972,-0.0723669 "/>
<path fme:_creation_instance="0" fme:seq_num="15" d="M 25.753,4.60642 l -0.0878337,-0.0450888 -0.230409,-0.114545 -0.231958,-0.1116 -0.233453,-0.108621 -0.117714,-0.0529251 "/>
<path fme:_creation_instance="0" fme:seq_num="16" d="M 24.8517,4.17364 l -0.117178,-0.0526841 -0.236275,-0.102566 -0.237601,-0.0994909 -0.238869,-0.0963858 -0.0920721,-0.0357628 "/>
<path fme:_creation_instance="0" fme:seq_num="17" d="M 23.9297,3.78675 l -0.148006,-0.0574886 -0.241227,-0.0900884 -0.242316,-0.0868978 -0.243344,-0.0836805 -0.0655059,-0.0215674 "/>
<path fme:_creation_instance="0" fme:seq_num="18" d="M 22.9893,3.44703 l -0.178804,-0.05887 -0.245213,-0.0771694 -0.246054,-0.0738776 -0.246831,-0.0705628 -0.0396254,-0.0107612 "/>
<path fme:_creation_instance="0" fme:seq_num="19" d="M 22.0327,3.15579 l -0.207917,-0.0564649 -0.24819,-0.0638684 -0.248772,-0.0604907 -0.249288,-0.057094 -0.0161429,-0.00346982 "/>
<path fme:_creation_instance="0" fme:seq_num="20" d="M 21.0624,2.9144 l -0.233595,-0.0502096 -0.25012,-0.0502479 -0.250435,-0.0468005 -0.24751,-0.0427897 "/>
<path fme:_creation_instance="0" fme:seq_num="21" d="M 20.0808,2.72435 l -0.00317291,-0.000548534 -0.250862,-0.0398622 -0.250973,-0.0363733 -0.251015,-0.0328728 -0.234418,-0.0274233 "/>
<path fme:_creation_instance="0" fme:seq_num="22" d="M 19.0903,2.58727 l -0.0165696,-0.00193838 -0.250892,-0.0258411 -0.250726,-0.022312 -0.25049,-0.0187755 -0.227768,-0.0138678 "/>
<path fme:_creation_instance="0" fme:seq_num="23" d="M 18.0939,2.50454 l -0.0224168,-0.00136487 -0.249809,-0.0116847 -0.249363,-0.00813265 -0.248847,-0.00457756 -0.229072,-0.000941666 "/>
<path fme:_creation_instance="0" fme:seq_num="24" d="M 17.0944,2.47784 l -0.0191889,-7.88813e-05 -0.247605,0.00253728 -0.246879,0.00609483 -0.246082,0.009651 -0.23962,0.0129034 "/>
<path fme:_creation_instance="0" fme:seq_num="25" d="M 16.095,2.50895 l -0.00559558,0.000301318 -0.24428,0.0167548 -0.243274,0.0203003 -0.242198,0.02384 -0.241053,0.0273728 -0.0192932,0.00248548 "/>
<path fme:_creation_instance="0" fme:seq_num="26" d="M 15.0993,2.6 l -0.220546,0.0284122 -0.238557,0.0344136 -0.237207,0.0379194 -0.235788,0.041414 -0.0559705,0.010725 "/>
<path fme:_creation_instance="0" fme:seq_num="27" d="M 14.1112,2.75288 l -0.178331,0.0341714 -0.232748,0.0483655 -0.231128,0.0518202 -0.229441,0.0552596 -0.104424,0.0269133 "/>
<path fme:_creation_instance="0" fme:seq_num="28" d="M 13.1352,2.96941 l -0.123265,0.0317691 -0.225872,0.0620879 -0.22399,0.0654749 -0.222044,0.0688423 -0.164021,0.0538119 "/>
<path fme:_creation_instance="0" fme:seq_num="29" d="M 12.176,3.2514 l -0.0560145,0.0183773 -0.217963,0.0755146 -0.21583,0.0788175 -0.213635,0.082097 -0.21138,0.085352 -0.0218916,0.00927559 "/>
<path fme:_creation_instance="0" fme:seq_num="30" d="M 11.2393,3.60083 l -0.187173,0.0793061 -0.206691,0.091785 -0.204259,0.0949611 -0.20177,0.0981091 -0.107831,0.0547897 "/>
<path fme:_creation_instance="0" fme:seq_num="31" d="M 10.3315,4.01979 l -0.0913946,0.0464383 -0.196625,0.104317 -0.193971,0.107375 -0.191263,0.110402 -0.188503,0.113396 -0.0104835,0.0065691 "/>
<path fme:_creation_instance="0" fme:seq_num="32" d="M 9.45929,4.50828 l -0.175208,0.109788 -0.18283,0.119283 -0.179919,0.122175 -0.17696,0.125031 -0.113438,0.0833733 "/>
<path fme:_creation_instance="0" fme:seq_num="33" d="M 8.63094,5.06793 l -0.0605166,0.0444778 -0.170903,0.130634 -0.167807,0.133378 -0.164667,0.136084 -0.161485,0.138751 -0.0513829,0.045901 "/>
<path fme:_creation_instance="0" fme:seq_num="34" d="M 7.85417,5.69716 l -0.10688,0.095477 -0.155,0.143964 -0.151699,0.146509 -0.148361,0.149013 -0.144986,0.151474 -0.00967527,0.0105168 "/>
<path fme:_creation_instance="0" fme:seq_num="35" d="M 7.13757,6.39411 l -0.131902,0.143375 -0.138135,0.156266 -0.134661,0.158596 -0.131156,0.160882 -0.111525,0.142548 "/>
<path fme:_creation_instance="0" fme:seq_num="36" d="M 6.49019,7.15578 l -0.0160973,0.0205752 -0.12406,0.165318 -0.120471,0.167468 -0.116857,0.169571 -0.11322,0.171627 -0.0796941,0.126303 "/>
<path fme:_creation_instance="0" fme:seq_num="37" d="M 5.9198,7.97664 l -0.0298661,0.0473332 -0.10588,0.175597 -0.102179,0.177511 -0.0984611,0.179377 -0.0947262,0.181194 -0.0556903,0.111999 "/>
<path fme:_creation_instance="0" fme:seq_num="38" d="M 5.43299,8.84965 l -0.0352857,0.0709632 -0.0872122,0.184681 -0.0834361,0.186351 -0.0796491,0.187972 -0.0758526,0.189543 -0.0367036,0.0973343 "/>
<path fme:_creation_instance="0" fme:seq_num="39" d="M 5.03485,9.7665 l -0.0353446,0.0937302 -0.0682372,0.192536 -0.0644212,0.193957 -0.0606015,0.195328 -0.0567795,0.196649 -0.0211914,0.0792003 "/>
<path fme:_creation_instance="0" fme:seq_num="40" d="M 4.72828,10.7179 l -0.0317654,0.118719 -0.0491348,0.19914 -0.0453148,0.200309 -0.0414983,0.201429 -0.0376867,0.202498 -0.00903003,0.054241 "/>
<path fme:_creation_instance="0" fme:seq_num="41" d="M 4.51385,11.6942 l -0.0248514,0.149276 -0.0300838,0.204485 -0.0262953,0.205404 -0.0225172,0.206272 -0.018751,0.207091 -0.00140102,0.0194171 "/>
<path fme:_creation_instance="0" fme:seq_num="42" d="M 4.38995,12.6862 l -0.0135968,0.188442 -0.0112592,0.208578 -0.00753646,0.209248 -0.00383081,0.209868 -0.0001248,0.182899 "/>
<path fme:_creation_instance="0" fme:seq_num="43" d="M 4.3536,13.6852 l -1.87924e-05,0.0275409 0.00352391,0.210962 0.00717044,0.211436 0.0107947,0.211862 0.0143956,0.21224 0.0105344,0.124601 "/>
<path fme:_creation_instance="0" fme:seq_num="44" d="M 4.4,14.6839 l 0.00743735,0.0879691 0.021522,0.212853 0.0250453,0.213089 0.0285403,0.213278 0.032006,0.213421 0.00855376,0.0515326 "/>
<path fme:_creation_instance="0" fme:seq_num="45" d="M 4.5231,15.676 l 0.0268875,0.161985 0.0388449,0.213569 0.0422159,0.213576 0.0455533,0.213537 0.0407571,0.178071 "/>
<path fme:buf_int="1" fme:_creation_instance="0" d="M 16.2942,1.49686 l -1.20542,0.092795 -1.19493,0.183802 -1.17759,0.273754 -1.15348,0.362135 -1.12275,0.448436 -0.876556,0.430094 -0.84015,0.497473 -0.798575,0.561791 -0.752087,0.622653 -0.700972,0.679684 -0.645543,0.732534 -0.00192246,0.00236956 -0.00191522,0.00237542 -0.00190797,0.00238125 -0.554154,0.756812 -0.488784,0.800588 -0.419975,0.838733 -0.348211,0.870976 -0.273999,0.897093 -0.197858,0.916899 -0.000412294,0.00241111 -0.000406395,0.00241212 -0.000400493,0.0024131 -0.138309,1.13815 -0.0416052,1.14576 0.0553961,1.14518 0.152001,1.1364 0.247518,1.11948 0.0252765,0.0810316 0.0320574,0.0785961 0.0386073,0.0755943 0.0448791,0.0720478 0.0508275,0.0679823 0.0564097,0.0634269 0.0615855,0.0584145 0.0663175,0.0529813 0.0705717,0.0471663 0.0743174,0.0410115 0.0775277,0.0345612 0.0801794,0.0278618 0.0822534,0.0209618 0.0837348,0.0139107 0.0846128,0.00675936 0.0848813,-0.000440659 0.0845381,-0.00763751 0.0835859,-0.0147793 0.0820314,-0.0218147 0.0798858,-0.0286928 0.0771647,-0.0353642 0.0738876,-0.0417809 0.0700782,-0.0478965 0.0657638,-0.053667 0.0609756,-0.0590508 0.0557481,-0.0640091 0.0501189,-0.0685063 0.0441286,-0.0725099 0.0378204,-0.0759911 0.0312396,-0.0789247 0.0244338,-0.0812897 0.017452,-0.083069 0.0103443,-0.0842497 0.0031622,-0.0848235 -0.00404272,-0.0847861 -0.0112185,-0.0841378 -0.0183135,-0.0828833 -0.210858,-0.953534 -0.129562,-0.967937 -0.0473404,-0.975422 0.0352199,-0.975934 0.117529,-0.969472 0.162428,-0.751535 0.224726,-0.735314 0.285449,-0.713938 0.344171,-0.687557 0.40048,-0.656357 0.453981,-0.620556 0.541617,-0.6141 0.588045,-0.569799 0.630861,-0.521999 0.669802,-0.470992 0.704629,-0.417093 0.735128,-0.360632 0.000319053,-0.000141354 0.000319004,-0.000141466 0.000318954,-0.000141577 0.98235,-0.392382 1.00925,-0.316846 1.03035,-0.239488 1.04553,-0.160755 1.0547,-0.0810986 0.00107977,-4.2535e-05 0.00107972,-4.37018e-05 0.00107968,-4.48685e-05 1.43141,-0.00108009 1.42662,0.117079 1.41208,0.234438 1.38791,0.350198 0.000769101,0.000227901 0.000769284,0.000227284 0.000769466,0.000226667 1.44367,0.488848 1.39948,0.603838 1.34615,0.714883 1.28402,0.821258 0.00110537,0.000770553 0.0011064,0.000769063 0.00110744,0.000767572 1.16279,0.875045 1.0897,0.964547 1.00973,1.04797 0.923395,1.12478 0.831238,1.1945 0.73384,1.25669 0.631815,1.31095 0.525806,1.35695 0.0308859,0.0790638 0.0374797,0.0761596 0.0438035,0.0727068 0.0498117,0.06873 0.0554609,0.0642581 0.0607106,0.0593232 0.0655229,0.0539609 0.069863,0.0482098 0.0736998,0.0421113 0.0770056,0.0357094 0.0797566,0.0290502 0.0819329,0.0221817 0.0835188,0.0151534 0.0845031,0.00801596 0.0848784,0.000820721 0.0846423,-0.00638043 0.0837962,-0.0135356 0.0823465,-0.0205933 0.0803034,-0.0275025 0.0776817,-0.0342137 0.0745003,-0.0406783 0.0707822,-0.0468498 0.0665541,-0.0526838 0.0618464,-0.0581382 0.0566931,-0.0631737 0.0511314,-0.067754 0.0452013,-0.0718462 0.0389454,-0.0754207 0.032409,-0.0784518 0.0256391,-0.0809176 0.0186844,-0.0828005 0.0115951,-0.0840867 0.00442232,-0.0847671 -0.00278236,-0.0848368 -0.009967,-0.0842952 -0.0170798,-0.0831463 -0.0240696,-0.0813983 -0.583088,-1.5048 -0.700629,-1.4538 -0.813755,-1.39364 -0.92175,-1.32469 -1.02394,-1.24739 -1.11967,-1.16223 -1.20834,-1.06974 -1.2894,-0.970508 -1.41958,-0.907811 -1.48823,-0.790262 -1.54716,-0.667557 -1.596,-0.540495 -1.54745,-0.390381 -1.57439,-0.261372 -1.59059,-0.130581 -1.59594,0.00109989 z "/>
<path fme:buf_int="0.1" fme:_creation_instance="0" fme:seq_num="1" d="M 34.7177,13.7364 l -0.00400717,-0.0077491 -0.0046673,-0.00737037 -0.00529191,-0.00693554 -0.00587625,-0.00644793 -0.00641586,-0.00591124 -0.00690664,-0.00532957 -0.00734486,-0.00470733 -0.00772719,-0.00404927 -0.0080507,-0.0033604 -0.00831294,-0.00264594 -0.00851192,-0.00191136 -0.00864611,-0.00116222 -0.00871451,-0.000404239 -0.00871658,0.000356819 -0.00865231,0.00111516 -0.00852219,0.00186502 -0.00832722,0.00260068 -0.00806886,0.00331655 -0.0077491,0.00400717 -0.00737037,0.0046673 -0.00693554,0.00529191 -0.00644793,0.00587625 -0.00591124,0.00641586 -0.00532957,0.00690664 -0.00470733,0.00734486 -0.00404927,0.00772719 -0.0033604,0.0080507 -0.00264594,0.00831294 -0.00191136,0.00851192 -0.00116222,0.00864611 -0.000404239,0.00871451 0.000356819,0.00871658 0.00111516,0.00865231 0.00186502,0.00852219 0.00260068,0.00832722 0.00331655,0.00806886 0.136511,0.302081 0.130943,0.304536 0.12533,0.306888 0.00346887,0.00774707 0.00411338,0.00742498 0.00472824,0.0070494 0.00530904,0.00662302 0.00585158,0.00614892 0.00635197,0.00563052 0.00680658,0.00507155 0.00721216,0.00447604 0.00756577,0.00384828 0.00786488,0.0031928 0.00810731,0.00251431 0.00829133,0.0018177 0.00841561,0.001108 0.00847926,0.000390313 0.00848182,-0.000330185 0.00842326,-0.0010483 0.00830401,-0.00175887 0.00812493,-0.00245676 0.00788732,-0.00313695 0.00759287,-0.00379454 0.00724372,-0.00442479 0.00684237,-0.00502316 0.00639173,-0.00558534 0.00589503,-0.00610728 0.00535586,-0.00658521 0.0047781,-0.00701569 0.00416592,-0.00739563 0.00352371,-0.00772228 0.00285613,-0.0079933 0.00216796,-0.00820672 0.00146417,-0.00836101 0.000749831,-0.00845506 3.00913e-05,-0.00848819 -0.000689866,-0.00846016 -0.00140485,-0.00837118 -0.00210972,-0.00822188 -0.00279938,-0.00801334 -0.126718,-0.310287 -0.132393,-0.307909 -0.138022,-0.305427 z "/>
<path fme:buf_int="0.2" fme:_creation_instance="0" fme:seq_num="2" d="M 34.3619,12.791 l -0.00861352,-0.0151734 -0.00990319,-0.0143649 -0.0111175,-0.0134471 -0.0122472,-0.012427 -0.0132837,-0.0113123 -0.014219,-0.0101115 -0.0150462,-0.00883377 -0.0157589,-0.00748879 -0.0163516,-0.00608682 -0.0168199,-0.00463852 -0.0171601,-0.00315492 -0.0173698,-0.00164731 -0.0174473,-0.000127164 -0.017392,0.00139395 -0.0172043,0.00290446 -0.0168857,0.00439286 -0.0164386,0.00584783 -0.0158664,0.00725829 -0.0151734,0.00861352 -0.0143649,0.00990319 -0.0134471,0.0111175 -0.012427,0.0122472 -0.0113123,0.0132837 -0.0101115,0.014219 -0.00883377,0.0150462 -0.00748879,0.0157589 -0.00608682,0.0163516 -0.00463852,0.0168199 -0.00315492,0.0171601 -0.00164731,0.0173698 -0.000127164,0.0174473 0.00139395,0.017392 0.00290446,0.0172043 0.00439286,0.0168857 0.00584783,0.0164386 0.00725829,0.0158664 0.227606,0.445119 0.213133,0.446324 0.00795906,0.0149951 0.00920206,0.0142661 0.0103788,0.0134344 0.0114807,0.0125058 0.0124999,0.0114871 0.013429,0.0103857 0.0142614,0.00920938 0.0149911,0.00796675 0.0156127,0.00666672 0.0161218,0.00531866 0.0165148,0.00393227 0.0167888,0.00251755 0.0169418,0.00108469 0.0169727,-0.000355977 0.0168814,-0.00179408 0.0166685,-0.00321927 0.0163354,-0.00462125 0.0158846,-0.00598994 0.0153194,-0.00731547 0.0146438,-0.0085883 0.0138627,-0.00979924 0.0129818,-0.0109396 0.0120073,-0.0120011 0.0109462,-0.0129762 0.00980635,-0.0138577 0.00859581,-0.0146394 0.00732333,-0.0153157 0.00599809,-0.0158816 0.00462963,-0.016333 0.00322782,-0.0166668 0.00180275,-0.0168805 0.000364687,-0.0169726 -0.001076,-0.0169423 -0.00250894,-0.0167901 -0.00392379,-0.0165168 -0.00531038,-0.0161245 -0.00665871,-0.0156161 -0.214304,-0.448776 -0.000787848,-0.00163081 -0.000802584,-0.00162361 -0.000817254,-0.00161628 -0.228843,-0.447538 z "/>
<path fme:buf_int="0.3" fme:_creation_instance="0" fme:seq_num="3" d="M 33.9537,11.8604 l -0.0136598,-0.0214909 -0.0154332,-0.0202551 -0.0170953,-0.0188733 -0.0186343,-0.0173555 -0.020039,-0.0157127 -0.0212994,-0.0139567 -0.0224063,-0.0121001 -0.0233517,-0.0101563 -0.0241289,-0.00813934 -0.0247322,-0.00606375 -0.0251574,-0.00394446 -0.0254013,-0.00179676 -0.0254621,0.000363891 -0.0253395,0.00252192 -0.0250344,0.00466178 -0.0245488,0.00676805 -0.0238864,0.00882555 -0.0230519,0.0108195 -0.0220513,0.0127354 -0.0208918,0.0145596 -0.0195818,0.0162789 -0.0181307,0.0178809 -0.016549,0.0193541 -0.0148481,0.0206879 -0.0130401,0.0218725 -0.0111382,0.0228996 -0.00915607,0.0237617 -0.00710795,0.0244526 -0.00500862,0.0249673 -0.0028732,0.0253021 -0.00071708,0.0254546 0.00144421,0.0254237 0.00359509,0.0252097 0.00572006,0.024814 0.00780383,0.0242395 0.00983137,0.0234903 0.0117881,0.022572 0.283434,0.490765 0.202416,0.373733 0.013456,0.0224475 0.0153612,0.0211893 0.0171495,0.0197699 0.0188073,0.0182 0.020322,0.0164915 0.021682,0.0146576 0.022877,0.0127121 0.0238979,0.0106699 0.0247369,0.00854645 0.0253876,0.00635797 0.0258451,0.0041211 0.026106,0.00185286 0.0261681,-0.000429473 0.0260311,-0.00270854 0.025696,-0.00496699 0.0251653,-0.00718764 0.0244431,-0.00935359 0.0235349,-0.0114484 0.0224475,-0.013456 0.0211893,-0.0153612 0.0197699,-0.0171495 0.0182,-0.0188073 0.0164915,-0.020322 0.0146576,-0.021682 0.0127121,-0.022877 0.0106699,-0.0238979 0.00854645,-0.0247369 0.00635797,-0.0253876 0.0041211,-0.0258451 0.00185286,-0.026106 -0.000429473,-0.0261681 -0.00270854,-0.0260311 -0.00496699,-0.025696 -0.00718764,-0.0251653 -0.00935359,-0.0244431 -0.0114484,-0.0235349 -0.204371,-0.377342 -0.00131404,-0.00239999 -0.00133587,-0.0023879 -0.0013576,-0.00237562 -0.285487,-0.494319 z "/>
<path fme:buf_int="0.4" fme:_creation_instance="0" fme:seq_num="4" d="M 33.4936,10.946 l -0.0204092,-0.0283048 -0.0227984,-0.0264183 -0.0250142,-0.0243308 -0.0270396,-0.0220581 -0.0288592,-0.0196175 -0.0304591,-0.0170276 -0.0318273,-0.0143081 -0.0329532,-0.0114797 -0.0338283,-0.008564 -0.034446,-0.00558308 -0.0348015,-0.00255967 -0.0348922,0.000483224 -0.0347173,0.00352244 -0.0342782,0.00653484 -0.0335782,0.00949751 -0.0326226,0.0123879 -0.0314188,0.015184 -0.0299759,0.0178646 -0.0283048,0.0204092 -0.0264183,0.0227984 -0.0243308,0.0250142 -0.0220581,0.0270396 -0.0196175,0.0288592 -0.0170276,0.0304591 -0.0143081,0.0318273 -0.0114797,0.0329532 -0.008564,0.0338283 -0.00558308,0.034446 -0.00255967,0.0348015 0.000483224,0.0348922 0.00352244,0.0347173 0.00653484,0.0342782 0.00949751,0.0335782 0.0123879,0.0326226 0.015184,0.0314188 0.0178646,0.0299759 0.210717,0.320867 0.318048,0.514719 0.0196203,0.0288572 0.0220607,0.0270374 0.0243332,0.0250118 0.0264206,0.0227958 0.0283068,0.0204064 0.0299776,0.0178616 0.0314203,0.015181 0.0326238,0.0123847 0.0335791,0.00949424 0.0342788,0.0065315 0.0347176,0.00351906 0.0348922,0.000479825 0.0348013,-0.00256306 0.0344454,-0.00558643 0.0338275,-0.00856729 0.0329521,-0.011483 0.0318259,-0.0143112 0.0304575,-0.0170306 0.0288572,-0.0196203 0.0270374,-0.0220607 0.0250118,-0.0243332 0.0227958,-0.0264206 0.0204064,-0.0283068 0.0178616,-0.0299776 0.015181,-0.0314203 0.0123847,-0.0326238 0.00949424,-0.0335791 0.0065315,-0.0342788 0.00351906,-0.0347176 0.000479825,-0.0348922 -0.00256306,-0.0348013 -0.00558643,-0.0344454 -0.00856729,-0.0338275 -0.011483,-0.0329521 -0.0143112,-0.0318259 -0.0170306,-0.0304575 -0.320949,-0.519415 -0.0019487,-0.00312152 -0.00197733,-0.00310346 -0.0020058,-0.00308513 -0.213748,-0.325481 z "/>
<path fme:buf_int="0.5" fme:_creation_instance="0" fme:seq_num="5" d="M 32.9849,10.0543 l -0.0272688,-0.0340451 -0.0301322,-0.0315389 -0.0327663,-0.0287927 -0.0351511,-0.0258273 -0.0372683,-0.0226654 -0.039102,-0.019331 -0.040638,-0.0158495 -0.0418647,-0.0122474 -0.0427728,-0.008552 -0.0433554,-0.00479156 -0.043608,-0.000994654 -0.0435288,0.00280982 -0.0431183,0.00659291 -0.0423796,0.0103258 -0.0413184,0.0139802 -0.0399427,0.0175281 -0.038263,0.0209426 -0.0362921,0.0241978 -0.0340451,0.0272688 -0.0315389,0.0301322 -0.0287927,0.0327663 -0.0258273,0.0351511 -0.0226654,0.0372683 -0.019331,0.039102 -0.0158495,0.040638 -0.0122474,0.0418647 -0.008552,0.0427728 -0.00479156,0.0433554 -0.000994654,0.043608 0.00280982,0.0435288 0.00659291,0.0431183 0.0103258,0.0423796 0.0139802,0.0413184 0.0175281,0.0399427 0.0209426,0.038263 0.0241978,0.0362921 0.25078,0.34273 0.319256,0.462154 0.0255827,0.0338642 0.0283624,0.0315726 0.0309378,0.0290536 0.0332902,0.0263252 0.0354028,0.0234072 0.0372604,0.0203205 0.0388494,0.0170874 0.0401586,0.0137311 0.0411784,0.010276 0.0419015,0.0067468 0.0423227,0.003169 0.042439,-0.000431634 0.0422495,-0.00402916 0.0417556,-0.00759765 0.0409609,-0.0111114 0.039871,-0.0145451 0.0384938,-0.017874 0.0368393,-0.0210741 0.0349194,-0.0241224 0.0327479,-0.0269969 0.0303404,-0.0296768 0.0277144,-0.032143 0.0248886,-0.0343775 0.0218835,-0.0363644 0.0187208,-0.0380892 0.0154232,-0.0395396 0.0120144,-0.0407052 0.00851907,-0.0415774 0.00496237,-0.0421501 0.00136992,-0.0424191 -0.00223241,-0.0423825 -0.00581865,-0.0420404 -0.00936297,-0.0413955 -0.0128398,-0.0404524 -0.0162242,-0.0392178 -0.0194916,-0.0377006 -0.0226186,-0.0359117 -0.323117,-0.467742 -0.0025904,-0.00371377 -0.00262392,-0.00369016 -0.00265723,-0.00366625 -0.254791,-0.348212 z "/>
<path fme:buf_int="0.6" fme:_creation_instance="0" fme:seq_num="6" d="M 32.4277,9.18626 l -0.0347472,-0.0391465 -0.0380268,-0.0359692 -0.041017,-0.032518 -0.0436951,-0.0288194 -0.0460406,-0.0249015 -0.0480357,-0.020794 -0.0496652,-0.0165283 -0.0509167,-0.0121368 -0.0517808,-0.00765293 -0.0522507,-0.00311082 -0.052323,0.00145497 -0.0519971,0.00600969 -0.0512755,0.0105187 -0.0501636,0.0149476 -0.0486699,0.0192628 -0.0468059,0.0234313 -0.0445856,0.0274216 -0.042026,0.0312031 -0.0391465,0.0347472 -0.0359692,0.0380268 -0.032518,0.041017 -0.0288194,0.0436951 -0.0249015,0.0460406 -0.020794,0.0480357 -0.0165283,0.0496652 -0.0121368,0.0509167 -0.00765293,0.0517808 -0.00311082,0.0522507 0.00145497,0.052323 0.00600969,0.0519971 0.0105187,0.0512755 0.0149476,0.0501636 0.0192628,0.0486699 0.0234313,0.0468059 0.0274216,0.0445856 0.0312031,0.042026 0.286816,0.353017 0.322646,0.41943 0.032738,0.0390132 0.0359286,0.0360963 0.0388603,0.0329193 0.0415121,0.0295052 0.0438648,0.0258784 0.0459014,0.0220652 0.0476073,0.018093 0.0489702,0.0139904 0.0499802,0.00978706 0.0506302,0.00551318 0.0509153,0.00119958 0.0508336,-0.00312266 0.0503857,-0.0074224 0.0495747,-0.0116687 0.0484065,-0.0158309 0.0468896,-0.019879 0.0450348,-0.0237839 0.0428556,-0.0275174 0.0403675,-0.0310527 0.0375887,-0.0343642 0.034539,-0.0374282 0.0312404,-0.0402225 0.0277167,-0.0427269 0.0239934,-0.0449235 0.0200972,-0.0467965 0.0160562,-0.0483323 0.0118995,-0.0495198 0.00765702,-0.0503506 0.00335941,-0.0508185 -0.000962407,-0.0509203 -0.00527729,-0.0506553 -0.00955414,-0.0500253 -0.0137622,-0.0490348 -0.017871,-0.047691 -0.0218511,-0.0460037 -0.0256738,-0.0439848 -0.0293115,-0.0416491 -0.327511,-0.425753 -0.00326132,-0.00420095 -0.00329842,-0.00417188 -0.00333527,-0.00414248 -0.291847,-0.359209 z "/>
<path fme:buf_int="0.7" fme:_creation_instance="0" fme:seq_num="7" d="M 32.4885,9.1033 l -0.658938,-0.752053 -0.042209,-0.0441316 -0.0458947,-0.0402849 -0.0492311,-0.0361316 -0.0521929,-0.0317033 -0.0547574,-0.0270338 -0.0569052,-0.0221585 -0.0586199,-0.0171146 -0.0598884,-0.0119404 -0.0607012,-0.00667533 -0.061052,-0.00135947 -0.0609382,0.00396673 -0.0603606,0.00926275 -0.0593236,0.0144883 -0.0578351,0.0196035 -0.0559064,0.0245696 -0.0535523,0.0293487 -0.0507906,0.0339044 -0.0476424,0.0382021 -0.0441316,0.042209 -0.0402849,0.0458947 -0.0361316,0.0492311 -0.0317033,0.0521929 -0.0270338,0.0547574 -0.0221585,0.0569052 -0.0171146,0.0586199 -0.0119404,0.0598884 -0.00667533,0.0607012 -0.00135947,0.061052 0.00396673,0.0609382 0.00926275,0.0603606 0.0144883,0.0593236 0.0196035,0.0578351 0.0245696,0.0559064 0.0293487,0.0535523 0.0339044,0.0507906 0.0382021,0.0476424 0.658938,0.752053 0.042209,0.0441316 0.0458947,0.0402849 0.0492311,0.0361316 0.0521929,0.0317033 0.0547574,0.0270338 0.0569052,0.0221585 0.0586199,0.0171146 0.0598884,0.0119404 0.0607012,0.00667533 0.061052,0.00135947 0.0609382,-0.00396673 0.0603606,-0.00926275 0.0593236,-0.0144883 0.0578351,-0.0196035 0.0559064,-0.0245696 0.0535523,-0.0293487 0.0507906,-0.0339044 0.0476424,-0.0382021 0.0441316,-0.042209 0.0402849,-0.0458947 0.0361316,-0.0492311 0.0317033,-0.0521929 0.0270338,-0.0547574 0.0221585,-0.0569052 0.0171146,-0.0586199 0.0119404,-0.0598884 0.00667533,-0.0607012 0.00135947,-0.061052 -0.00396673,-0.0609382 -0.00926275,-0.0603606 -0.0144883,-0.0593236 -0.0196035,-0.0578351 -0.0245696,-0.0559064 -0.0293487,-0.0535523 -0.0339044,-0.0507906 -0.0382021,-0.0476424 z "/>
<path fme:buf_int="0.8" fme:_creation_instance="0" fme:seq_num="8" d="M 31.877,8.25524 l -0.696562,-0.717352 -0.0493306,-0.0466659 -0.0531104,-0.0423143 -0.0565076,-0.0376578 -0.0594976,-0.0327299 -0.062059,-0.0275663 -0.0641732,-0.022204 -0.065825,-0.0166817 -0.0670026,-0.0110393 -0.0676974,-0.00531729 -0.0679045,0.000443003 -0.0676223,0.00620011 -0.0668529,0.0119125 -0.0656018,0.0175391 -0.063878,0.0230394 -0.061694,0.0283736 -0.0590655,0.0335034 -0.0560114,0.0383918 -0.0525538,0.0430036 -0.0487175,0.0473056 -0.0445302,0.0512667 -0.0400221,0.0548584 -0.0352256,0.0580549 -0.0301753,0.0608331 -0.0249076,0.063173 -0.0194604,0.0650577 -0.013873,0.0664737 -0.00818566,0.0674108 -0.00243934,0.0678621 0.00332455,0.0678245 0.00906449,0.0672982 0.0147391,0.066287 0.0203076,0.0647983 0.0257297,0.0628426 0.0309664,0.0604342 0.03598,0.0575904 0.0407344,0.0543316 0.0451953,0.0506813 0.696562,0.717352 0.0507565,0.0479016 0.0547383,0.0432956 0.0583035,0.03836 0.0614249,0.0331326 0.0640788,0.027653 0.0662451,0.0219629 0.0679072,0.0161057 0.0690525,0.0101259 0.0696723,0.00406905 0.0697618,-0.00201878 0.0693204,-0.00809124 0.0683514,-0.0141021 0.0668622,-0.0200057 0.0648642,-0.025757 0.0623725,-0.0313123 0.0594061,-0.0366292 0.0559876,-0.0416674 0.052143,-0.0463885 0.0479016,-0.0507565 0.0432956,-0.0547383 0.03836,-0.0583035 0.0331326,-0.0614249 0.027653,-0.0640788 0.0219629,-0.0662451 0.0161057,-0.0679072 0.0101259,-0.0690525 0.00406905,-0.0696723 -0.00201878,-0.0697618 -0.00809124,-0.0693204 -0.0141021,-0.0683514 -0.0200057,-0.0668622 -0.025757,-0.0648642 -0.0313123,-0.0623725 -0.0366292,-0.0594061 -0.0416674,-0.0559876 -0.0463885,-0.052143 z "/>
<path fme:buf_int="0.9" fme:_creation_instance="0" fme:seq_num="9" d="M 31.2194,7.43619 l -0.732162,-0.680982 -0.0597692,-0.050914 -0.0639792,-0.045511 -0.0677023,-0.0397617 -0.0709101,-0.0337097 -0.0735783,-0.0274012 -0.0756865,-0.0208842 -0.0772186,-0.0142082 -0.0781631,-0.00742411 -0.0785127,-0.000583495 -0.0782648,0.00626156 -0.0774213,0.013059 -0.0759885,0.019757 -0.0739774,0.0263046 -0.0714033,0.0326521 -0.0682858,0.038751 -0.0646485,0.0445551 -0.0605193,0.05002 -0.0559295,0.0551043 -0.050914,0.0597692 -0.045511,0.0639792 -0.0397617,0.0677023 -0.0337097,0.0709101 -0.0274012,0.0735783 -0.0208842,0.0756865 -0.0142082,0.0772186 -0.00742411,0.0781631 -0.000583495,0.0785127 0.00626156,0.0782648 0.013059,0.0774213 0.019757,0.0759885 0.0263046,0.0739774 0.0326521,0.0714033 0.038751,0.0682858 0.0445551,0.0646485 0.05002,0.0605193 0.0551043,0.0559295 0.732162,0.680982 0.0597692,0.050914 0.0639792,0.045511 0.0677023,0.0397617 0.0709101,0.0337097 0.0735783,0.0274012 0.0756865,0.0208842 0.0772186,0.0142082 0.0781631,0.00742411 0.0785127,0.000583495 0.0782648,-0.00626156 0.0774213,-0.013059 0.0759885,-0.019757 0.0739774,-0.0263046 0.0714033,-0.0326521 0.0682858,-0.038751 0.0646485,-0.0445551 0.0605193,-0.05002 0.0559295,-0.0551043 0.050914,-0.0597692 0.045511,-0.0639792 0.0397617,-0.0677023 0.0337097,-0.0709101 0.0274012,-0.0735783 0.0208842,-0.0756865 0.0142082,-0.0772186 0.00742411,-0.0781631 0.000583495,-0.0785127 -0.00626156,-0.0782648 -0.013059,-0.0774213 -0.019757,-0.0759885 -0.0263046,-0.0739774 -0.0326521,-0.0714033 -0.038751,-0.0682858 -0.0445551,-0.0646485 -0.05002,-0.0605193 -0.0551043,-0.0559295 z "/>
<path fme:buf_int="1" fme:_creation_instance="0" fme:seq_num="10" d="M 30.5175,6.64845 l -0.76569,-0.643052 -0.0672585,-0.0517815 -0.0714076,-0.045891 -0.0750421,-0.0396699 -0.078136,-0.033163 -0.080667,-0.0264171 -0.0826167,-0.0194809 -0.0839712,-0.0124043 -0.0847206,-0.00523838 -0.0848597,0.0019653 -0.0843873,0.00915483 -0.0833069,0.0162784 -0.0816263,0.0232847 -0.0793575,0.0301232 -0.076517,0.0367446 -0.0731252,0.0431014 -0.0692065,0.0491475 -0.0647892,0.0548396 -0.0599051,0.0601366 -0.0545893,0.0650002 -0.0488803,0.0693956 -0.042819,0.0732909 -0.0364493,0.0766582 -0.0298169,0.0794731 -0.0229697,0.0817155 -0.015957,0.083369 -0.0088293,0.084422 -0.00163801,0.0848666 0.00556508,0.0846998 0.0127281,0.0839227 0.0197994,0.0825409 0.026728,0.0805645 0.0334641,0.0780076 0.039959,0.0748886 0.046166,0.07123 0.0520405,0.0670583 0.0575399,0.0624034 0.0626248,0.0572988 0.76569,0.643052 0.0691883,0.0531374 0.0735563,0.046905 0.0773644,0.0403157 0.0805837,0.0334195 0.0831898,0.026269 0.0851627,0.0189186 0.0864875,0.0114242 0.0871541,0.0038428 0.0871574,-0.00376781 0.0864973,-0.0113497 0.085179,-0.0188453 0.0832124,-0.0261974 0.0806125,-0.0333502 0.0773991,-0.0402491 0.0735966,-0.0468417 0.069234,-0.0530778 0.0643445,-0.05891 0.0589653,-0.0642938 0.0531374,-0.0691883 0.046905,-0.0735563 0.0403157,-0.0773644 0.0334195,-0.0805837 0.026269,-0.0831898 0.0189186,-0.0851627 0.0114242,-0.0864875 0.0038428,-0.0871541 -0.00376781,-0.0871574 -0.0113497,-0.0864973 -0.0188453,-0.085179 -0.0261974,-0.0832124 -0.0333502,-0.0806125 -0.0402491,-0.0773991 -0.0468417,-0.0735966 -0.0530778,-0.069234 -0.05891,-0.0643445 -0.0642938,-0.0589653 z "/>
<path fme:buf_int="1.1" fme:_creation_instance="0" fme:seq_num="11" d="M 29.7727,5.89425 l -0.797112,-0.603659 -0.0789552,-0.0545427 -0.0834085,-0.0474537 -0.0872269,-0.0400036 -0.0903816,-0.0322491 -0.0928483,-0.0242491 -0.0946085,-0.0160646 -0.0956486,-0.00775775 -0.0959607,0.000608093 -0.0955426,0.00896931 -0.0943973,0.0172623 -0.0925336,0.0254238 -0.0899656,0.0333919 -0.086713,0.0411059 -0.0828004,0.048507 -0.0782576,0.0555389 -0.0731193,0.0621482 -0.0674245,0.0682845 -0.0612165,0.0739011 -0.0545427,0.0789552 -0.0474537,0.0834085 -0.0400036,0.0872269 -0.0322491,0.0903816 -0.0242491,0.0928483 -0.0160646,0.0946085 -0.00775775,0.0956486 0.000608093,0.0959607 0.00896931,0.0955426 0.0172623,0.0943973 0.0254238,0.0925336 0.0333919,0.0899656 0.0411059,0.086713 0.048507,0.0828004 0.0555389,0.0782576 0.0621482,0.0731193 0.0682845,0.0674245 0.0739011,0.0612165 0.797112,0.603659 0.0789552,0.0545427 0.0834085,0.0474537 0.0872269,0.0400036 0.0903816,0.0322491 0.0928483,0.0242491 0.0946085,0.0160646 0.0956486,0.00775775 0.0959607,-0.000608093 0.0955426,-0.00896931 0.0943973,-0.0172623 0.0925336,-0.0254238 0.0899656,-0.0333919 0.086713,-0.0411059 0.0828004,-0.048507 0.0782576,-0.0555389 0.0731193,-0.0621482 0.0674245,-0.0682845 0.0612165,-0.0739011 0.0545427,-0.0789552 0.0474537,-0.0834085 0.0400036,-0.0872269 0.0322491,-0.0903816 0.0242491,-0.0928483 0.0160646,-0.0946085 0.00775775,-0.0956486 -0.000608093,-0.0959607 -0.00896931,-0.0955426 -0.0172623,-0.0943973 -0.0254238,-0.0925336 -0.0333919,-0.0899656 -0.0411059,-0.086713 -0.048507,-0.0828004 -0.0555389,-0.0782576 -0.0621482,-0.0731193 -0.0682845,-0.0674245 -0.0739011,-0.0612165 z "/>
<path fme:buf_int="1.2" fme:_creation_instance="0" fme:seq_num="12" d="M 28.9871,5.17571 l -0.826406,-0.562884 -0.0890111,-0.0551026 -0.0934749,-0.047135 -0.0972273,-0.0388088 -0.10024,-0.0301872 -0.102489,-0.0213359 -0.103959,-0.0123221 -0.104637,-0.00321465 -0.104519,0.00591731 -0.103606,0.0150042 -0.101904,0.023977 -0.0994262,0.0327672 -0.096192,0.0413081 -0.0922258,0.0495346 -0.0875576,0.0573841 -0.0822231,0.0647969 -0.0762627,0.0717165 -0.069722,0.0780904 -0.0626507,0.0838699 -0.0551026,0.0890111 -0.047135,0.0934749 -0.0388088,0.0972273 -0.0301872,0.10024 -0.0213359,0.102489 -0.0123221,0.103959 -0.00321465,0.104637 0.00591731,0.104519 0.0150042,0.103606 0.023977,0.101904 0.0327672,0.0994262 0.0413081,0.096192 0.0495346,0.0922258 0.0573841,0.0875576 0.0647969,0.0822231 0.0717165,0.0762627 0.0780904,0.069722 0.0838699,0.0626507 0.826406,0.562884 0.0865436,0.0537163 0.0907873,0.0461834 0.0943768,0.0383177 0.0972864,0.0301759 0.099495,0.0218168 0.100987,0.0133004 0.101751,0.00468822 0.101782,-0.00395776 0.10108,-0.0125752 0.0996491,-0.0211021 0.0975005,-0.0294769 0.0946494,-0.0376393 0.0911164,-0.0455305 0.0869269,-0.0530937 0.0821111,-0.0602744 0.0767037,-0.0670207 0.0707436,-0.0732842 0.0642738,-0.0790197 0.0573409,-0.0841858 0.0499949,-0.0887454 0.0422886,-0.0926655 0.0342777,-0.095918 0.0260198,-0.0984795 0.0175744,-0.100331 0.00900242,-0.10146 0.000365559,-0.101858 -0.00827394,-0.101522 -0.0168538,-0.100455 -0.0253123,-0.0986637 -0.0335884,-0.0961616 -0.0416224,-0.0929667 -0.0493566,-0.089102 -0.0567352,-0.0845952 -0.063705,-0.079479 -0.0702158,-0.0737901 -0.0762206,-0.0675696 -0.0816764,-0.0608622 z "/>
<path fme:buf_int="1.3" fme:_creation_instance="0" fme:seq_num="13" d="M 28.1622,4.49488 l -0.853555,-0.520788 -0.0992973,-0.0547902 -0.103695,-0.0459274 -0.107303,-0.0367151 -0.110095,-0.0272233 -0.112048,-0.0175243 -0.113149,-0.00769197 -0.113389,0.00219891 -0.112766,0.0120731 -0.111285,0.0218553 -0.108956,0.0314712 -0.105799,0.0408476 -0.101836,0.0499132 -0.0970984,0.0585989 -0.0916217,0.0668385 -0.0854476,0.0745696 -0.0786233,0.0817331 -0.0712006,0.0882745 -0.0632361,0.0941441 -0.0547902,0.0992973 -0.0459274,0.103695 -0.0367151,0.107303 -0.0272233,0.110095 -0.0175243,0.112048 -0.00769197,0.113149 0.00219891,0.113389 0.0120731,0.112766 0.0218553,0.111285 0.0314712,0.108956 0.0408476,0.105799 0.0499132,0.101836 0.0585989,0.0970984 0.0668385,0.0916217 0.0745696,0.0854476 0.0817331,0.0786233 0.0882745,0.0712006 0.0941441,0.0632361 0.853555,0.520788 0.0992973,0.0547902 0.103695,0.0459274 0.107303,0.0367151 0.110095,0.0272233 0.112048,0.0175243 0.113149,0.00769197 0.113389,-0.00219891 0.112766,-0.0120731 0.111285,-0.0218553 0.108956,-0.0314712 0.105799,-0.0408476 0.101836,-0.0499132 0.0970984,-0.0585989 0.0916217,-0.0668385 0.0854476,-0.0745696 0.0786233,-0.0817331 0.0712006,-0.0882745 0.0632361,-0.0941441 0.0547902,-0.0992973 0.0459274,-0.103695 0.0367151,-0.107303 0.0272233,-0.110095 0.0175243,-0.112048 0.00769197,-0.113149 -0.00219891,-0.113389 -0.0120731,-0.112766 -0.0218553,-0.111285 -0.0314712,-0.108956 -0.0408476,-0.105799 -0.0499132,-0.101836 -0.0585989,-0.0970984 -0.0668385,-0.0916217 -0.0745696,-0.0854476 -0.0817331,-0.0786233 -0.0882745,-0.0712006 -0.0941441,-0.0632361 z "/>
<path fme:buf_int="1.4" fme:_creation_instance="0" fme:seq_num="14" d="M 27.3,3.85373 l -0.878547,-0.477412 -0.109755,-0.0535788 -0.114007,-0.0438091 -0.117391,-0.0337061 -0.119882,-0.0233465 -0.121461,-0.0128092 -0.122115,-0.00217449 -0.12184,0.0084768 -0.120637,0.0190636 -0.118517,0.0295053 -0.115494,0.0397224 -0.111593,0.0496372 -0.106842,0.0591743 -0.101278,0.068261 -0.0949432,0.0768282 -0.0878859,0.0848107 -0.0801597,0.0921477 -0.0718235,0.0987835 -0.0629406,0.104667 -0.0535788,0.109755 -0.0438091,0.114007 -0.0337061,0.117391 -0.0233465,0.119882 -0.0128092,0.121461 -0.00217449,0.122115 0.0084768,0.12184 0.0190636,0.120637 0.0295053,0.118517 0.0397224,0.115494 0.0496372,0.111593 0.0591743,0.106842 0.068261,0.101278 0.0768282,0.0949432 0.0848107,0.0878859 0.0921477,0.0801597 0.0987835,0.0718235 0.104667,0.0629406 0.878547,0.477412 0.109755,0.0535788 0.114007,0.0438091 0.117391,0.0337061 0.119882,0.0233465 0.121461,0.0128092 0.122115,0.00217449 0.12184,-0.0084768 0.120637,-0.0190636 0.118517,-0.0295053 0.115494,-0.0397224 0.111593,-0.0496372 0.106842,-0.0591743 0.101278,-0.068261 0.0949432,-0.0768282 0.0878859,-0.0848107 0.0801597,-0.0921477 0.0718235,-0.0987835 0.0629406,-0.104667 0.0535788,-0.109755 0.0438091,-0.114007 0.0337061,-0.117391 0.0233465,-0.119882 0.0128092,-0.121461 0.00217449,-0.122115 -0.0084768,-0.12184 -0.0190636,-0.120637 -0.0295053,-0.118517 -0.0397224,-0.115494 -0.0496372,-0.111593 -0.0591743,-0.106842 -0.068261,-0.101278 -0.0768282,-0.0949432 -0.0848107,-0.0878859 -0.0921477,-0.0801597 -0.0987835,-0.0718235 -0.104667,-0.0629406 z "/>
<path fme:buf_int="1.5" fme:_creation_instance="0" fme:seq_num="15" d="M 26.4023,3.25421 l -0.901368,-0.432779 -0.120324,-0.05144 -0.124349,-0.0407573 -0.127428,-0.0297645 -0.129537,-0.0185451 -0.130661,-0.00718463 -0.13079,0.00423055 -0.129923,0.0156135 -0.128068,0.0268777 -0.125238,0.0379373 -0.121455,0.0487081 -0.116748,0.0591083 -0.111152,0.0690586 -0.10471,0.0784834 -0.0974714,0.0873108 -0.0894909,0.0954738 -0.0808292,0.10291 -0.0715525,0.109563 -0.0617311,0.115383 -0.05144,0.120324 -0.0407573,0.124349 -0.0297645,0.127428 -0.0185451,0.129537 -0.00718463,0.130661 0.00423055,0.13079 0.0156135,0.129923 0.0268777,0.128068 0.0379373,0.125238 0.0487081,0.121455 0.0591083,0.116748 0.0690586,0.111152 0.0784834,0.10471 0.0873108,0.0974714 0.0954738,0.0894909 0.10291,0.0808292 0.109563,0.0715525 0.115383,0.0617311 0.901368,0.432779 0.117015,0.0501886 0.120849,0.0400842 0.123813,0.0296911 0.125885,0.019084 0.12705,0.00833946 0.1273,-0.0024652 0.126632,-0.0132521 0.125052,-0.0239435 0.122571,-0.0344624 0.119207,-0.044733 0.114984,-0.0546813 0.109932,-0.0642356 0.104089,-0.0733271 0.0974951,-0.0818903 0.0901991,-0.0898634 0.0822532,-0.0971891 0.0737146,-0.103815 0.064645,-0.109692 0.0551096,-0.114779 0.0451771,-0.119039 0.0349191,-0.122442 0.0244096,-0.124962 0.0137241,-0.126582 0.00293978,-0.12729 -0.00786573,-0.12708 -0.0186146,-0.125956 -0.0292293,-0.123923 -0.0396334,-0.120998 -0.049752,-0.117201 -0.0595121,-0.112559 -0.0688434,-0.107107 -0.0776787,-0.100883 -0.0859543,-0.0939317 -0.0936106,-0.0863039 -0.100592,-0.0780542 -0.10685,-0.0692422 -0.112337,-0.0599313 z "/>
<path fme:buf_int="1.6" fme:_creation_instance="0" fme:seq_num="16" d="M 25.4708,2.69827 l -0.921996,-0.386889 -0.130943,-0.0483436 -0.134658,-0.0367473 -0.137348,-0.0248712 -0.138993,-0.0128059 -0.139581,-0.000643064 -0.139105,0.0115246 -0.137572,0.0236046 -0.134991,0.035505 -0.131383,0.0471351 -0.126775,0.0584065 -0.121202,0.0692334 -0.114707,0.0795334 -0.107338,0.089228 -0.0991531,0.0982436 -0.0902133,0.106512 -0.0805869,0.113969 -0.0703472,0.120559 -0.0595721,0.126231 -0.0483436,0.130943 -0.0367473,0.134658 -0.0248712,0.137348 -0.0128059,0.138993 -0.000643064,0.139581 0.0115246,0.139105 0.0236046,0.137572 0.035505,0.134991 0.0471351,0.131383 0.0584065,0.126775 0.0692334,0.121202 0.0795334,0.114707 0.089228,0.107338 0.0982436,0.0991531 0.106512,0.0902133 0.113969,0.0805869 0.120559,0.0703472 0.126231,0.0595721 0.921996,0.386889 0.130943,0.0483436 0.134658,0.0367473 0.137348,0.0248712 0.138993,0.0128059 0.139581,0.000643064 0.139105,-0.0115246 0.137572,-0.0236046 0.134991,-0.035505 0.131383,-0.0471351 0.126775,-0.0584065 0.121202,-0.0692334 0.114707,-0.0795334 0.107338,-0.089228 0.0991531,-0.0982436 0.0902133,-0.106512 0.0805869,-0.113969 0.0703472,-0.120559 0.0595721,-0.126231 0.0483436,-0.130943 0.0367473,-0.134658 0.0248712,-0.137348 0.0128059,-0.138993 0.000643064,-0.139581 -0.0115246,-0.139105 -0.0236046,-0.137572 -0.035505,-0.134991 -0.0471351,-0.131383 -0.0584065,-0.126775 -0.0692334,-0.121202 -0.0795334,-0.114707 -0.089228,-0.107338 -0.0982436,-0.0991531 -0.106512,-0.0902133 -0.113969,-0.0805869 -0.120559,-0.0703472 -0.126231,-0.0595721 z "/>
<path fme:buf_int="1.7" fme:_creation_instance="0" fme:seq_num="17" d="M 24.5073,2.18788 l -0.940399,-0.339723 -0.141549,-0.0442568 -0.144867,-0.0317516 -0.147083,-0.0190048 -0.14818,-0.00611331 -0.148149,0.00682468 -0.14699,0.0197107 -0.144713,0.0324468 -0.141334,0.0449359 -0.13688,0.057083 -0.131384,0.0687957 -0.124888,0.0799847 -0.117442,0.0905651 -0.109102,0.100456 -0.0999312,0.109583 -0.0900002,0.117875 -0.0793842,0.125271 -0.0681641,0.131713 -0.0564251,0.137153 -0.0442568,0.141549 -0.0317516,0.144867 -0.0190048,0.147083 -0.00611331,0.14818 0.00682468,0.148149 0.0197107,0.14699 0.0324468,0.144713 0.0449359,0.141334 0.057083,0.13688 0.0687957,0.131384 0.0799847,0.124888 0.0905651,0.117442 0.100456,0.109102 0.109583,0.0999312 0.117875,0.0900002 0.125271,0.0793842 0.131713,0.0681641 0.137153,0.0564251 0.940399,0.339723 0.137674,0.0432238 0.140844,0.0313924 0.142999,0.019335 0.144123,0.00713814 0.14421,-0.00511009 0.143257,-0.0173215 0.141272,-0.0294081 0.138269,-0.0412829 0.13427,-0.0528601 0.129303,-0.0640566 0.123405,-0.0747915 0.116618,-0.0849875 0.10899,-0.0945712 0.100577,-0.103473 0.0914396,-0.11163 0.0816433,-0.118983 0.0712587,-0.125478 0.0603608,-0.131069 0.0490279,-0.135716 0.0373417,-0.139385 0.0253866,-0.142049 0.0132485,-0.143691 0.00101494,-0.144297 -0.0112259,-0.143863 -0.0233859,-0.142392 -0.0353774,-0.139896 -0.0471139,-0.136392 -0.0585111,-0.131905 -0.0694866,-0.126468 -0.0799615,-0.120119 -0.0898603,-0.112905 -0.0991116,-0.104878 -0.107649,-0.096095 -0.11541,-0.0866195 -0.122341,-0.07652 -0.128389,-0.0658691 -0.133513,-0.0547436 z "/>
<path fme:buf_int="1.8" fme:_creation_instance="0" fme:seq_num="18" d="M 23.5136,1.72508 l -0.956527,-0.291241 -0.152073,-0.0391428 -0.154906,-0.0257398 -0.15656,-0.0121409 -0.157022,0.00155034 -0.15629,0.0152298 -0.154367,0.0287934 -0.15127,0.0421378 -0.147022,0.0551616 -0.141655,0.0677655 -0.13521,0.0798537 -0.127736,0.0913342 -0.119289,0.10212 -0.109935,0.112128 -0.0997443,0.121282 -0.0887942,0.129514 -0.0771684,0.13676 -0.0649553,0.142966 -0.0522479,0.148083 -0.0391428,0.152073 -0.0257398,0.154906 -0.0121409,0.15656 0.00155034,0.157022 0.0152298,0.15629 0.0287934,0.154367 0.0421378,0.15127 0.0551616,0.147022 0.0677655,0.141655 0.0798537,0.13521 0.0913342,0.127736 0.10212,0.119289 0.112128,0.109935 0.121282,0.0997443 0.129514,0.0887942 0.13676,0.0771684 0.142966,0.0649553 0.148083,0.0522479 0.956527,0.291241 0.152073,0.0391428 0.154906,0.0257398 0.15656,0.0121409 0.157022,-0.00155034 0.15629,-0.0152298 0.154367,-0.0287934 0.15127,-0.0421378 0.147022,-0.0551616 0.141655,-0.0677655 0.13521,-0.0798537 0.127736,-0.0913342 0.119289,-0.10212 0.109935,-0.112128 0.0997443,-0.121282 0.0887942,-0.129514 0.0771684,-0.13676 0.0649553,-0.142966 0.0522479,-0.148083 0.0391428,-0.152073 0.0257398,-0.154906 0.0121409,-0.15656 -0.00155034,-0.157022 -0.0152298,-0.15629 -0.0287934,-0.154367 -0.0421378,-0.15127 -0.0551616,-0.147022 -0.0677655,-0.141655 -0.0798537,-0.13521 -0.0913342,-0.127736 -0.10212,-0.119289 -0.112128,-0.109935 -0.121282,-0.0997443 -0.129514,-0.0887942 -0.13676,-0.0771684 -0.142966,-0.0649553 -0.148083,-0.0522479 z "/>
<path fme:buf_int="1.9" fme:_creation_instance="0" fme:seq_num="19" d="M 22.4914,1.31199 l -0.970311,-0.241388 -0.162443,-0.0329612 -0.164698,-0.0186779 -0.165699,-0.00425242 -0.165439,0.0102054 -0.16392,0.0245855 -0.161154,0.0387786 -0.157161,0.0526765 -0.151972,0.0661735 -0.145626,0.0791669 -0.138172,0.0915577 -0.129666,0.103252 -0.120174,0.11416 -0.109767,0.124199 -0.0985245,0.133294 -0.0865323,0.141373 -0.0738815,0.148377 -0.0606684,0.154252 -0.0469936,0.158952 -0.0329612,0.162443 -0.0186779,0.164698 -0.00425242,0.165699 0.0102054,0.165439 0.0245855,0.16392 0.0387786,0.161154 0.0526765,0.157161 0.0661735,0.151972 0.0791669,0.145626 0.0915577,0.138172 0.103252,0.129666 0.11416,0.120174 0.124199,0.109767 0.133294,0.0985245 0.141373,0.0865323 0.148377,0.0738815 0.154252,0.0606684 0.158952,0.0469936 0.970311,0.241388 0.162443,0.0329612 0.164698,0.0186779 0.165699,0.00425242 0.165439,-0.0102054 0.16392,-0.0245855 0.161154,-0.0387786 0.157161,-0.0526765 0.151972,-0.0661735 0.145626,-0.0791669 0.138172,-0.0915577 0.129666,-0.103252 0.120174,-0.11416 0.109767,-0.124199 0.0985245,-0.133294 0.0865323,-0.141373 0.0738815,-0.148377 0.0606684,-0.154252 0.0469936,-0.158952 0.0329612,-0.162443 0.0186779,-0.164698 0.00425242,-0.165699 -0.0102054,-0.165439 -0.0245855,-0.16392 -0.0387786,-0.161154 -0.0526765,-0.157161 -0.0661735,-0.151972 -0.0791669,-0.145626 -0.0915577,-0.138172 -0.103252,-0.129666 -0.11416,-0.120174 -0.124199,-0.109767 -0.133294,-0.0985245 -0.141373,-0.0865323 -0.148377,-0.0738815 -0.154252,-0.0606684 -0.158952,-0.0469936 z "/>
<path fme:buf_int="2" fme:_creation_instance="0" fme:seq_num="20" d="M 21.4426,0.950861 l -0.981661,-0.190048 -0.17258,-0.0256593 -0.17416,-0.0105203 -0.174414,0.00469876 -0.173341,0.0198821 -0.170949,0.0349141 -0.167255,0.0496804 -0.162289,0.0640686 -0.156087,0.0779692 -0.148698,0.0912764 -0.140177,0.103889 -0.130589,0.115711 -0.120007,0.126652 -0.108512,0.136629 -0.0961909,0.145567 -0.0831379,0.153397 -0.0694521,0.160059 -0.0552378,0.165503 -0.0406031,0.169687 -0.0256593,0.17258 -0.0105203,0.17416 0.00469876,0.174414 0.0198821,0.173341 0.0349141,0.170949 0.0496804,0.167255 0.0640686,0.162289 0.0779692,0.156087 0.0912764,0.148698 0.103889,0.140177 0.115711,0.130589 0.126652,0.120007 0.136629,0.108512 0.145567,0.0961909 0.153397,0.0831379 0.160059,0.0694521 0.165503,0.0552378 0.169687,0.0406031 0.981661,0.190048 0.17258,0.0256593 0.17416,0.0105203 0.174414,-0.00469876 0.173341,-0.0198821 0.170949,-0.0349141 0.167255,-0.0496804 0.162289,-0.0640686 0.156087,-0.0779692 0.148698,-0.0912764 0.140177,-0.103889 0.130589,-0.115711 0.120007,-0.126652 0.108512,-0.136629 0.0961909,-0.145567 0.0831379,-0.153397 0.0694521,-0.160059 0.0552378,-0.165503 0.0406031,-0.169687 0.0256593,-0.17258 0.0105203,-0.17416 -0.00469876,-0.174414 -0.0198821,-0.173341 -0.0349141,-0.170949 -0.0496804,-0.167255 -0.0640686,-0.162289 -0.0779692,-0.156087 -0.0912764,-0.148698 -0.103889,-0.140177 -0.115711,-0.130589 -0.126652,-0.120007 -0.136629,-0.108512 -0.145567,-0.0961909 -0.153397,-0.0831379 -0.160059,-0.0694521 -0.165503,-0.0552378 -0.169687,-0.0406031 z "/>
<path fme:buf_int="2.1" fme:_creation_instance="0" fme:seq_num="21" d="M 20.3687,0.644183 l -0.990442,-0.13708 -0.182394,-0.0171767 -0.183197,-0.00121457 -0.182606,0.0147568 -0.180625,0.0306158 -0.177269,0.0462418 -0.172565,0.0615159 -0.166547,0.0763218 -0.159261,0.0905469 -0.150763,0.104083 -0.141118,0.116827 -0.130399,0.128681 -0.118687,0.139557 -0.106073,0.14937 -0.0926505,0.158046 -0.0785233,0.16552 -0.0637985,0.171734 -0.0485882,0.176641 -0.033008,0.180203 -0.0171767,0.182394 -0.00121457,0.183197 0.0147568,0.182606 0.0306158,0.180625 0.0462418,0.177269 0.0615159,0.172565 0.0763218,0.166547 0.0905469,0.159261 0.104083,0.150763 0.116827,0.141118 0.128681,0.130399 0.139557,0.118687 0.14937,0.106073 0.158046,0.0926505 0.16552,0.0785233 0.171734,0.0637985 0.176641,0.0485882 0.180203,0.033008 0.990442,0.13708 0.182394,0.0171767 0.183197,0.00121457 0.182606,-0.0147568 0.180625,-0.0306158 0.177269,-0.0462418 0.172565,-0.0615159 0.166547,-0.0763218 0.159261,-0.0905469 0.150763,-0.104083 0.141118,-0.116827 0.130399,-0.128681 0.118687,-0.139557 0.106073,-0.14937 0.0926505,-0.158046 0.0785233,-0.16552 0.0637985,-0.171734 0.0485882,-0.176641 0.033008,-0.180203 0.0171767,-0.182394 0.00121457,-0.183197 -0.0147568,-0.182606 -0.0306158,-0.180625 -0.0462418,-0.177269 -0.0615159,-0.172565 -0.0763218,-0.166547 -0.0905469,-0.159261 -0.104083,-0.150763 -0.116827,-0.141118 -0.128681,-0.130399 -0.139557,-0.118687 -0.14937,-0.106073 -0.158046,-0.0926505 -0.16552,-0.0785233 -0.171734,-0.0637985 -0.176641,-0.0485882 -0.180203,-0.033008 z "/>
<path fme:buf_int="2.2" fme:_creation_instance="0" fme:seq_num="22" d="M 19.2724,0.394818 l -0.996444,-0.0827348 -0.191778,-0.00752284 -0.191704,0.00922033 -0.190171,0.0258933 -0.18719,0.0423692 -0.182785,0.0585227 -0.176989,0.0742308 -0.169846,0.0893739 -0.16141,0.103837 -0.151746,0.11751 -0.140927,0.130288 -0.129035,0.142075 -0.116162,0.15278 -0.102404,0.162323 -0.0878668,0.17063 -0.072661,0.177639 -0.0569023,0.183296 -0.0407104,0.187558 -0.0242087,0.190392 -0.00752284,0.191778 0.00922033,0.191704 0.0258933,0.190171 0.0423692,0.18719 0.0585227,0.182785 0.0742308,0.176989 0.0893739,0.169846 0.103837,0.16141 0.11751,0.151746 0.130288,0.140927 0.142075,0.129035 0.15278,0.116162 0.162323,0.102404 0.17063,0.0878668 0.177639,0.072661 0.183296,0.0569023 0.187558,0.0407104 0.190392,0.0242087 0.996444,0.0827348 0.186589,0.00753969 0.186556,-0.00831133 0.185179,-0.0241025 0.182468,-0.0397199 0.178442,-0.0550512 0.173131,-0.0699859 0.166572,-0.0844163 0.158813,-0.0982384 0.14991,-0.111353 0.139926,-0.123665 0.128934,-0.135086 0.117014,-0.145534 0.10425,-0.154933 0.0907355,-0.163216 0.0765669,-0.170323 0.0618467,-0.176202 0.0466809,-0.180813 0.0311788,-0.18412 0.015452,-0.186101 -0.000386168,-0.186741 -0.0162215,-0.186035 -0.03194,-0.18399 -0.0474283,-0.180618 -0.0625749,-0.175945 -0.0772707,-0.170005 -0.0914097,-0.162839 -0.10489,-0.1545 -0.117615,-0.145048 -0.129492,-0.134552 -0.140436,-0.123085 -0.150369,-0.110732 -0.159218,-0.0975808 -0.16692,-0.0837266 -0.173419,-0.0692692 -0.178669,-0.0543127 -0.182631,-0.0389649 -0.185277,-0.0233364 z "/>
<path fme:buf_int="2.3" fme:_creation_instance="0" fme:seq_num="23" d="M 18.1553,0.20536 l -0.999509,-0.0267015 -0.20062,0.00339582 -0.199561,0.0208681 -0.196983,0.0381816 -0.192906,0.0552045 -0.18736,0.0718073 -0.180389,0.0878635 -0.172044,0.103251 -0.162391,0.117853 -0.151501,0.131558 -0.139459,0.144261 -0.126355,0.155867 -0.112289,0.166286 -0.0973694,0.17544 -0.0817082,0.183259 -0.0654252,0.189683 -0.0486443,0.194663 -0.0314931,0.198162 -0.0141023,0.200153 0.00339582,0.20062 0.0208681,0.199561 0.0381816,0.196983 0.0552045,0.192906 0.0718073,0.18736 0.0878635,0.180389 0.103251,0.172044 0.117853,0.162391 0.131558,0.151501 0.144261,0.139459 0.155867,0.126355 0.166286,0.112289 0.17544,0.0973694 0.183259,0.0817082 0.189683,0.0654252 0.194663,0.0486443 0.198162,0.0314931 0.200153,0.0141023 0.999509,0.0267015 0.20062,-0.00339582 0.199561,-0.0208681 0.196983,-0.0381816 0.192906,-0.0552045 0.18736,-0.0718073 0.180389,-0.0878635 0.172044,-0.103251 0.162391,-0.117853 0.151501,-0.131558 0.139459,-0.144261 0.126355,-0.155867 0.112289,-0.166286 0.0973694,-0.17544 0.0817082,-0.183259 0.0654252,-0.189683 0.0486443,-0.194663 0.0314931,-0.198162 0.0141023,-0.200153 -0.00339582,-0.20062 -0.0208681,-0.199561 -0.0381816,-0.196983 -0.0552045,-0.192906 -0.0718073,-0.18736 -0.0878635,-0.180389 -0.103251,-0.172044 -0.117853,-0.162391 -0.131558,-0.151501 -0.144261,-0.139459 -0.155867,-0.126355 -0.166286,-0.112289 -0.17544,-0.0973694 -0.183259,-0.0817082 -0.189683,-0.0654252 -0.194663,-0.0486443 -0.198162,-0.0314931 -0.200153,-0.0141023 z "/>
<path fme:buf_int="2.4" fme:_creation_instance="0" fme:seq_num="24" d="M 17.0197,0.0789996 l -0.999375,0.0311076 -0.208788,0.0156361 -0.206631,0.0337737 -0.202901,0.0516543 -0.197627,0.0691417 -0.190849,0.086103 -0.182618,0.102409 -0.172998,0.117935 -0.162061,0.132564 -0.14989,0.146185 -0.136579,0.158692 -0.122229,0.169992 -0.106948,0.179998 -0.0908529,0.188634 -0.0740667,0.195835 -0.0567167,0.201545 -0.0389351,0.205721 -0.0208572,0.208332 -0.00262049,0.209357 0.0156361,0.208788 0.0337737,0.206631 0.0516543,0.202901 0.0691417,0.197627 0.086103,0.190849 0.102409,0.182618 0.117935,0.172998 0.132564,0.162061 0.146185,0.14989 0.158692,0.136579 0.169992,0.122229 0.179998,0.106948 0.188634,0.0908529 0.195835,0.0740667 0.201545,0.0567167 0.205721,0.0389351 0.208332,0.0208572 0.209357,0.00262049 0.999375,-0.0311076 0.208788,-0.0156361 0.206631,-0.0337737 0.202901,-0.0516543 0.197627,-0.0691417 0.190849,-0.086103 0.182618,-0.102409 0.172998,-0.117935 0.162061,-0.132564 0.14989,-0.146185 0.136579,-0.158692 0.122229,-0.169992 0.106948,-0.179998 0.0908529,-0.188634 0.0740667,-0.195835 0.0567167,-0.201545 0.0389351,-0.205721 0.0208572,-0.208332 0.00262049,-0.209357 -0.0156361,-0.208788 -0.0337737,-0.206631 -0.0516543,-0.202901 -0.0691417,-0.197627 -0.086103,-0.190849 -0.102409,-0.182618 -0.117935,-0.172998 -0.132564,-0.162061 -0.146185,-0.14989 -0.158692,-0.136579 -0.169992,-0.122229 -0.179998,-0.106948 -0.188634,-0.0908529 -0.195835,-0.0740667 -0.201545,-0.0567167 -0.205721,-0.0389351 -0.208332,-0.0208572 -0.209357,-0.00262049 z "/>
<path fme:buf_int="2.5" fme:_creation_instance="0" fme:seq_num="25" d="M 15.8673,0.0193338 l -0.995693,0.0910546 -0.216118,0.0293166 -0.21274,0.0480409 -0.207744,0.0663996 -0.201166,0.084253 -0.193057,0.101465 -0.183479,0.117905 -0.172505,0.133448 -0.160218,0.147975 -0.146711,0.161376 -0.132088,0.173548 -0.11646,0.1844 -0.0999452,0.193848 -0.0826699,0.201822 -0.0647654,0.208259 -0.046368,0.213111 -0.0276177,0.216341 -0.00865724,0.217925 0.0103691,0.21785 0.0293166,0.216118 0.0480409,0.21274 0.0663996,0.207744 0.084253,0.201166 0.101465,0.193057 0.117905,0.183479 0.133448,0.172505 0.147975,0.160218 0.161376,0.146711 0.173548,0.132088 0.1844,0.11646 0.193848,0.0999452 0.201822,0.0826699 0.208259,0.0647654 0.213111,0.046368 0.216341,0.0276177 0.217925,0.00865724 0.21785,-0.0103691 0.995693,-0.0910546 0.210314,-0.0282767 0.207158,-0.0460107 0.20251,-0.0634132 0.196402,-0.0803587 0.18888,-0.0967253 0.179997,-0.112395 0.169816,-0.127255 0.158413,-0.141198 0.145868,-0.154124 0.132271,-0.165939 0.117722,-0.176558 0.102325,-0.185906 0.0861905,-0.193914 0.069435,-0.200525 0.0521791,-0.205691 0.0345474,-0.209375 0.0166667,-0.211551 -0.00133411,-0.212202 -0.0193253,-0.211324 -0.0371772,-0.208924 -0.0547613,-0.205019 -0.0719508,-0.199636 -0.0886219,-0.192815 -0.104654,-0.184605 -0.119933,-0.175064 -0.134347,-0.164262 -0.147794,-0.152277 -0.160175,-0.139195 -0.171403,-0.12511 -0.181396,-0.110123 -0.190081,-0.0943428 -0.197397,-0.0778829 -0.203291,-0.0608619 -0.20772,-0.0434024 -0.210653,-0.0256301 -0.212067,-0.0076732 -0.211954,0.010339 z "/>
<path fme:buf_int="2.6" fme:_creation_instance="0" fme:seq_num="26" d="M 14.7017,0.030576 l -0.988069,0.152884 -0.222427,0.0444278 -0.217709,0.0636445 -0.211333,0.0823769 -0.203349,0.100482 -0.193818,0.117823 -0.182812,0.134267 -0.170414,0.149689 -0.156719,0.163972 -0.141832,0.177007 -0.125865,0.188695 -0.10894,0.198947 -0.0911859,0.207684 -0.072738,0.214841 -0.0537366,0.220363 -0.0343262,0.224208 -0.0146545,0.226347 0.00512872,0.226763 0.0248729,0.225453 0.0444278,0.222427 0.0636445,0.217709 0.0823769,0.211333 0.100482,0.203349 0.117823,0.193818 0.134267,0.182812 0.149689,0.170414 0.163972,0.156719 0.177007,0.141832 0.188695,0.125865 0.198947,0.10894 0.207684,0.0911859 0.214841,0.072738 0.220363,0.0537366 0.224208,0.0343262 0.226347,0.0146545 0.226763,-0.00512872 0.225453,-0.0248729 0.988069,-0.152884 0.222427,-0.0444278 0.217709,-0.0636445 0.211333,-0.0823769 0.203349,-0.100482 0.193818,-0.117823 0.182812,-0.134267 0.170414,-0.149689 0.156719,-0.163972 0.141832,-0.177007 0.125865,-0.188695 0.10894,-0.198947 0.0911859,-0.207684 0.072738,-0.214841 0.0537366,-0.220363 0.0343262,-0.224208 0.0146545,-0.226347 -0.00512872,-0.226763 -0.0248729,-0.225453 -0.0444278,-0.222427 -0.0636445,-0.217709 -0.0823769,-0.211333 -0.100482,-0.203349 -0.117823,-0.193818 -0.134267,-0.182812 -0.149689,-0.170414 -0.163972,-0.156719 -0.177007,-0.141832 -0.188695,-0.125865 -0.198947,-0.10894 -0.207684,-0.0911859 -0.214841,-0.072738 -0.220363,-0.0537366 -0.224208,-0.0343262 -0.226347,-0.0146545 -0.226763,0.00512872 -0.225453,0.0248729 z "/>
<path fme:buf_int="2.7" fme:_creation_instance="0" fme:seq_num="27" d="M 13.5265,0.116965 l -0.976072,0.21653 -0.22751,0.0609946 -0.221329,0.0805913 -0.213462,0.0995747 -0.203972,0.1178 -0.192928,0.135129 -0.180417,0.15143 -0.166532,0.166578 -0.151381,0.180458 -0.135076,0.192965 -0.117744,0.204004 -0.0995163,0.21349 -0.0805308,0.221351 -0.0609323,0.227527 -0.0408702,0.231972 -0.020497,0.234651 3.22144e-05,0.235545 0.0205612,0.234646 0.0409336,0.231961 0.0609946,0.22751 0.0805913,0.221329 0.0995747,0.213462 0.1178,0.203972 0.135129,0.192928 0.15143,0.180417 0.166578,0.166532 0.180458,0.151381 0.192965,0.135076 0.204004,0.117744 0.21349,0.0995163 0.221351,0.0805308 0.227527,0.0609323 0.231972,0.0408702 0.234651,0.020497 0.235545,-3.22144e-05 0.234646,-0.0205612 0.231961,-0.0409336 0.976072,-0.21653 0.22751,-0.0609946 0.221329,-0.0805913 0.213462,-0.0995747 0.203972,-0.1178 0.192928,-0.135129 0.180417,-0.15143 0.166532,-0.166578 0.151381,-0.180458 0.135076,-0.192965 0.117744,-0.204004 0.0995163,-0.21349 0.0805308,-0.221351 0.0609323,-0.227527 0.0408702,-0.231972 0.020497,-0.234651 -3.22144e-05,-0.235545 -0.0205612,-0.234646 -0.0409336,-0.231961 -0.0609946,-0.22751 -0.0805913,-0.221329 -0.0995747,-0.213462 -0.1178,-0.203972 -0.135129,-0.192928 -0.15143,-0.180417 -0.166578,-0.166532 -0.180458,-0.151381 -0.192965,-0.135076 -0.204004,-0.117744 -0.21349,-0.0995163 -0.221351,-0.0805308 -0.227527,-0.0609323 -0.231972,-0.0408702 -0.234651,-0.020497 -0.235545,3.22144e-05 -0.234646,0.0205612 -0.231961,0.0409336 z "/>
<path fme:buf_int="2.8" fme:_creation_instance="0" fme:seq_num="28" d="M 12.3454,0.283093 l -0.959192,0.281986 -0.231123,0.079052 -0.223354,0.0988949 -0.213885,0.117985 -0.202788,0.136177 -0.190147,0.153333 -0.17606,0.169322 -0.160633,0.184023 -0.143983,0.197322 -0.126237,0.20912 -0.107531,0.219327 -0.0880057,0.227864 -0.0678112,0.234667 -0.0471005,0.239685 -0.0260314,0.242878 -0.00476416,0.244222 0.0165393,0.243708 0.0377169,0.241339 0.0586075,0.237133 0.079052,0.231123 0.0988949,0.223354 0.117985,0.213885 0.136177,0.202788 0.153333,0.190147 0.169322,0.17606 0.184023,0.160633 0.197322,0.143983 0.20912,0.126237 0.219327,0.107531 0.227864,0.0880057 0.234667,0.0678112 0.239685,0.0471005 0.242878,0.0260314 0.244222,0.00476416 0.243708,-0.0165393 0.241339,-0.0377169 0.237133,-0.0586075 0.959192,-0.281986 0.224971,-0.0766515 0.21766,-0.0954543 0.208781,-0.113569 0.198397,-0.130866 0.186584,-0.14722 0.173427,-0.162513 0.15902,-0.176635 0.143468,-0.189485 0.126881,-0.200969 0.109381,-0.211005 0.0910924,-0.219521 0.0721476,-0.226456 0.0526829,-0.231758 0.0328386,-0.235391 0.0127577,-0.237328 -0.00741504,-0.237555 -0.0275344,-0.23607 -0.0474554,-0.232885 -0.0670344,-0.228021 -0.0861305,-0.221515 -0.104606,-0.213413 -0.122328,-0.203773 -0.139168,-0.192664 -0.155006,-0.180168 -0.169727,-0.166374 -0.183225,-0.15138 -0.195403,-0.135296 -0.206173,-0.118238 -0.215457,-0.100327 -0.223189,-0.0816936 -0.229314,-0.0624715 -0.233785,-0.0427993 -0.236573,-0.0228187 -0.237656,-0.00267376 -0.237026,0.0174905 -0.234689,0.0375287 -0.230661,0.0572965 z "/>
<path fme:buf_int="2.9" fme:_creation_instance="0" fme:seq_num="29" d="M 11.1624,0.534301 l -0.936714,0.349434 -0.232954,0.0986799 -0.223467,0.118608 -0.212279,0.137633 -0.199476,0.15561 -0.185154,0.172404 -0.169424,0.187885 -0.152404,0.201936 -0.134224,0.214451 -0.115023,0.225333 -0.094946,0.2345 -0.0741466,0.241883 -0.052783,0.247425 -0.0310176,0.251084 -0.00901618,0.252832 0.0130539,0.252655 0.0350246,0.250556 0.0567287,0.24655 0.0780011,0.240668 0.0986799,0.232954 0.118608,0.223467 0.137633,0.212279 0.15561,0.199476 0.172404,0.185154 0.187885,0.169424 0.201936,0.152404 0.214451,0.134224 0.225333,0.115023 0.2345,0.094946 0.241883,0.0741466 0.247425,0.052783 0.251084,0.0310176 0.252832,0.00901618 0.252655,-0.0130539 0.250556,-0.0350246 0.24655,-0.0567287 0.240668,-0.0780011 0.936714,-0.349434 0.232954,-0.0986799 0.223467,-0.118608 0.212279,-0.137633 0.199476,-0.15561 0.185154,-0.172404 0.169424,-0.187885 0.152404,-0.201936 0.134224,-0.214451 0.115023,-0.225333 0.094946,-0.2345 0.0741466,-0.241883 0.052783,-0.247425 0.0310176,-0.251084 0.00901618,-0.252832 -0.0130539,-0.252655 -0.0350246,-0.250556 -0.0567287,-0.24655 -0.0780011,-0.240668 -0.0986799,-0.232954 -0.118608,-0.223467 -0.137633,-0.212279 -0.15561,-0.199476 -0.172404,-0.185154 -0.187885,-0.169424 -0.201936,-0.152404 -0.214451,-0.134224 -0.225333,-0.115023 -0.2345,-0.094946 -0.241883,-0.0741466 -0.247425,-0.052783 -0.251084,-0.0310176 -0.252832,-0.00901618 -0.252655,0.0130539 -0.250556,0.0350246 -0.24655,0.0567287 -0.240668,0.0780011 z "/>
<path fme:buf_int="3" fme:_creation_instance="0" fme:seq_num="30" d="M 9.98208,0.876958 l -0.907725,0.418951 -0.226472,0.116429 -0.215782,0.135216 -0.203538,0.153028 -0.189827,0.169738 -0.174748,0.185225 -0.15841,0.199377 -0.140931,0.212093 -0.122437,0.223281 -0.10306,0.23286 -0.0829411,0.240761 -0.0622243,0.246928 -0.0410592,0.251315 -0.0195982,0.253892 0.0020039,0.254639 0.0235916,0.253552 0.0450093,0.250638 0.0661028,0.245918 0.0867199,0.239426 0.106712,0.231209 0.125936,0.221326 0.144252,0.209849 0.161529,0.19686 0.177642,0.182452 0.192475,0.16673 0.205921,0.149806 0.217883,0.131803 0.228276,0.11285 0.237024,0.0930845 0.244064,0.0726481 0.249346,0.0516883 0.252831,0.0303561 0.254495,0.00880511 0.254325,-0.0128093 0.252322,-0.0343314 0.248502,-0.0556061 0.242891,-0.0764803 0.23553,-0.0968033 0.907725,-0.418951 0.232618,-0.119935 0.221279,-0.139753 0.208257,-0.158507 0.19365,-0.176055 0.177569,-0.192262 0.160136,-0.207007 0.141485,-0.220176 0.121757,-0.231669 0.101102,-0.2414 0.0796783,-0.249293 0.0576478,-0.255288 0.0351786,-0.259341 0.0124417,-0.26142 -0.01039,-0.26151 -0.0331425,-0.259609 -0.0556429,-0.255733 -0.0777197,-0.24991 -0.0992051,-0.242185 -0.119935,-0.232618 -0.139753,-0.221279 -0.158507,-0.208257 -0.176055,-0.19365 -0.192262,-0.177569 -0.207007,-0.160136 -0.220176,-0.141485 -0.231669,-0.121757 -0.2414,-0.101102 -0.249293,-0.0796783 -0.255288,-0.0576478 -0.259341,-0.0351786 -0.26142,-0.0124417 -0.26151,0.01039 -0.259609,0.0331425 -0.255733,0.0556429 -0.24991,0.0777197 -0.242185,0.0992051 z "/>
<path fme:buf_int="3.1" fme:_creation_instance="0" fme:seq_num="31" d="M 8.81676,1.31507 l -0.87224,0.488498 -0.229967,0.142313 -0.216688,0.161815 -0.201761,0.180085 -0.185298,0.196984 -0.167424,0.212384 -0.148277,0.226168 -0.128001,0.23823 -0.10675,0.24848 -0.0846877,0.256838 -0.0619805,0.263242 -0.0388016,0.267642 -0.0153274,0.270006 0.00826347,0.270314 0.0317914,0.268565 0.0550774,0.264772 0.0779443,0.258964 0.100218,0.251186 0.121729,0.241495 0.142313,0.229967 0.161815,0.216688 0.180085,0.201761 0.196984,0.185298 0.212384,0.167424 0.226168,0.148277 0.23823,0.128001 0.24848,0.10675 0.256838,0.0846877 0.263242,0.0619805 0.267642,0.0388016 0.270006,0.0153274 0.270314,-0.00826347 0.268565,-0.0317914 0.264772,-0.0550774 0.258964,-0.0779443 0.251186,-0.100218 0.241495,-0.121729 0.87224,-0.488498 0.229967,-0.142313 0.216688,-0.161815 0.201761,-0.180085 0.185298,-0.196984 0.167424,-0.212384 0.148277,-0.226168 0.128001,-0.23823 0.10675,-0.24848 0.0846877,-0.256838 0.0619805,-0.263242 0.0388016,-0.267642 0.0153274,-0.270006 -0.00826347,-0.270314 -0.0317914,-0.268565 -0.0550774,-0.264772 -0.0779443,-0.258964 -0.100218,-0.251186 -0.121729,-0.241495 -0.142313,-0.229967 -0.161815,-0.216688 -0.180085,-0.201761 -0.196984,-0.185298 -0.212384,-0.167424 -0.226168,-0.148277 -0.23823,-0.128001 -0.24848,-0.10675 -0.256838,-0.0846877 -0.263242,-0.0619805 -0.267642,-0.0388016 -0.270006,-0.0153274 -0.270314,0.00826347 -0.268565,0.0317914 -0.264772,0.0550774 -0.258964,0.0779443 -0.251186,0.100218 -0.241495,0.121729 z "/>
<path fme:buf_int="3.2" fme:_creation_instance="0" fme:seq_num="32" d="M 7.66785,1.85673 l -0.828355,0.559651 -0.224281,0.166224 -0.208941,0.185139 -0.19201,0.202645 -0.173617,0.218608 -0.153904,0.232908 -0.133019,0.245436 -0.111121,0.256095 -0.0883784,0.264805 -0.0649628,0.2715 -0.0410528,0.276129 -0.0168303,0.278656 0.00752023,0.279063 0.0318135,0.277345 0.0558647,0.273517 0.0794907,0.267608 0.102512,0.259661 0.124753,0.249739 0.146044,0.237915 0.166224,0.224281 0.185139,0.208941 0.202645,0.19201 0.218608,0.173617 0.232908,0.153904 0.245436,0.133019 0.256095,0.111121 0.264805,0.0883784 0.2715,0.0649628 0.276129,0.0410528 0.278656,0.0168303 0.279063,-0.00752023 0.277345,-0.0318135 0.273517,-0.0558647 0.267608,-0.0794907 0.259661,-0.102512 0.249739,-0.124753 0.237915,-0.146044 0.828355,-0.559651 0.218414,-0.161477 0.203933,-0.179418 0.187983,-0.196066 0.170678,-0.211302 0.152143,-0.225015 0.132513,-0.237107 0.111927,-0.247491 0.0905352,-0.256091 0.068491,-0.262847 0.0459533,-0.267708 0.0230845,-0.270641 4.93626e-05,-0.271624 -0.0229861,-0.270649 -0.045856,-0.267725 -0.0683954,-0.262872 -0.0904421,-0.256124 -0.111837,-0.247532 -0.132426,-0.237155 -0.152062,-0.22507 -0.170601,-0.211364 -0.187911,-0.196135 -0.203868,-0.179492 -0.218355,-0.161556 -0.23127,-0.142456 -0.242518,-0.12233 -0.252018,-0.101322 -0.259703,-0.0795848 -0.265517,-0.0572737 -0.269417,-0.03455 -0.271377,-0.0115774 -0.271381,0.0114787 -0.26943,0.0344521 -0.265538,0.0571772 -0.259732,0.0794904 -0.252055,0.101231 -0.242562,0.122242 -0.231321,0.142372 z "/>
<path fme:buf_int="3.3" fme:_creation_instance="0" fme:seq_num="33" d="M 6.55375,2.5037 l -0.776762,0.629226 -0.215583,0.190797 -0.198134,0.20886 -0.179176,0.225334 -0.158856,0.240092 -0.137326,0.253024 -0.114751,0.26403 -0.0913021,0.273026 -0.0671589,0.279945 -0.0425045,0.284733 -0.0175267,0.287354 0.00758457,0.287788 0.0326381,0.286032 0.0574432,0.282099 0.0818112,0.276019 0.105556,0.267838 0.128498,0.257619 0.150462,0.245439 0.171281,0.231392 0.190797,0.215583 0.20886,0.198134 0.225334,0.179176 0.240092,0.158856 0.253024,0.137326 0.26403,0.114751 0.273026,0.0913021 0.279945,0.0671589 0.284733,0.0425045 0.287354,0.0175267 0.287788,-0.00758457 0.286032,-0.0326381 0.282099,-0.0574432 0.276019,-0.0818112 0.267838,-0.105556 0.257619,-0.128498 0.245439,-0.150462 0.231392,-0.171281 0.776762,-0.629226 0.215583,-0.190797 0.198134,-0.20886 0.179176,-0.225334 0.158856,-0.240092 0.137326,-0.253024 0.114751,-0.26403 0.0913021,-0.273026 0.0671589,-0.279945 0.0425045,-0.284733 0.0175267,-0.287354 -0.00758457,-0.287788 -0.0326381,-0.286032 -0.0574432,-0.282099 -0.0818112,-0.276019 -0.105556,-0.267838 -0.128498,-0.257619 -0.150462,-0.245439 -0.171281,-0.231392 -0.190797,-0.215583 -0.20886,-0.198134 -0.225334,-0.179176 -0.240092,-0.158856 -0.253024,-0.137326 -0.26403,-0.114751 -0.273026,-0.0913021 -0.279945,-0.0671589 -0.284733,-0.0425045 -0.287354,-0.0175267 -0.287788,0.00758457 -0.286032,0.0326381 -0.282099,0.0574432 -0.276019,0.0818112 -0.267838,0.105556 -0.257619,0.128498 -0.245439,0.150462 -0.231392,0.171281 z "/>
<path fme:buf_int="3.4" fme:_creation_instance="0" fme:seq_num="34" d="M 5.48365,3.25982 l -0.7166,0.696954 -0.203408,0.215879 -0.183819,0.232786 -0.162831,0.247921 -0.140603,0.261169 -0.117306,0.27243 -0.0931156,0.281617 -0.0682167,0.288661 -0.0427987,0.293508 -0.0170549,0.296121 0.00881863,0.296481 0.0346251,0.294584 0.060168,0.290445 0.085253,0.284096 0.109689,0.275585 0.133291,0.264976 0.155878,0.252351 0.177278,0.237805 0.19733,0.221449 0.215879,0.203408 0.232786,0.183819 0.247921,0.162831 0.261169,0.140603 0.27243,0.117306 0.281617,0.0931156 0.288661,0.0682167 0.293508,0.0427987 0.296121,0.0170549 0.296481,-0.00881863 0.294584,-0.0346251 0.290445,-0.060168 0.284096,-0.085253 0.275585,-0.109689 0.264976,-0.133291 0.252351,-0.155878 0.237805,-0.177278 0.221449,-0.19733 0.7166,-0.696954 0.203408,-0.215879 0.183819,-0.232786 0.162831,-0.247921 0.140603,-0.261169 0.117306,-0.27243 0.0931156,-0.281617 0.0682167,-0.288661 0.0427987,-0.293508 0.0170549,-0.296121 -0.00881863,-0.296481 -0.0346251,-0.294584 -0.060168,-0.290445 -0.085253,-0.284096 -0.109689,-0.275585 -0.133291,-0.264976 -0.155878,-0.252351 -0.177278,-0.237805 -0.19733,-0.221449 -0.215879,-0.203408 -0.232786,-0.183819 -0.247921,-0.162831 -0.261169,-0.140603 -0.27243,-0.117306 -0.281617,-0.0931156 -0.288661,-0.0682167 -0.293508,-0.0427987 -0.296121,-0.0170549 -0.296481,0.00881863 -0.294584,0.0346251 -0.290445,0.060168 -0.284096,0.085253 -0.275585,0.109689 -0.264976,0.133291 -0.252351,0.155878 -0.237805,0.177278 -0.221449,0.19733 z "/>
<path fme:buf_int="3.5" fme:_creation_instance="0" fme:seq_num="35" d="M 4.47072,4.12742 l -0.647378,0.761667 -0.182621,0.234331 -0.162091,0.248974 -0.140392,0.261823 -0.117683,0.272786 -0.0941247,0.281784 -0.0698887,0.288751 -0.0451491,0.293638 -0.0200842,0.296409 0.00512533,0.297044 0.030298,0.295539 0.0552523,0.291905 0.0798086,0.286168 0.10379,0.278369 0.127023,0.268564 0.149341,0.256824 0.170584,0.243234 0.190597,0.227891 0.209237,0.210906 0.226369,0.192402 0.24187,0.172512 0.255629,0.151378 0.267546,0.129154 0.277535,0.105999 0.285525,0.0820806 0.291457,0.0575708 0.295289,0.0326461 0.296994,0.0074862 0.296559,-0.0177276 0.293987,-0.0428137 0.289297,-0.0675913 0.282523,-0.091882 0.273713,-0.115511 0.262931,-0.138307 0.250255,-0.160107 0.235775,-0.180753 0.219597,-0.200097 0.201836,-0.217999 0.647378,-0.761667 0.182621,-0.234331 0.162091,-0.248974 0.140392,-0.261823 0.117683,-0.272786 0.0941247,-0.281784 0.0698887,-0.288751 0.0451491,-0.293638 0.0200842,-0.296409 -0.00512533,-0.297044 -0.030298,-0.295539 -0.0552523,-0.291905 -0.0798086,-0.286168 -0.10379,-0.278369 -0.127023,-0.268564 -0.149341,-0.256824 -0.170584,-0.243234 -0.190597,-0.227891 -0.209237,-0.210906 -0.226369,-0.192402 -0.24187,-0.172512 -0.255629,-0.151378 -0.267546,-0.129154 -0.277535,-0.105999 -0.285525,-0.0820806 -0.291457,-0.0575708 -0.295289,-0.0326461 -0.296994,-0.0074862 -0.296559,0.0177276 -0.293987,0.0428137 -0.289297,0.0675913 -0.282523,0.091882 -0.273713,0.115511 -0.262931,0.138307 -0.250255,0.160107 -0.235775,0.180753 -0.219597,0.200097 -0.201836,0.217999 z "/>
<path fme:buf_int="3.6" fme:_creation_instance="0" fme:seq_num="36" d="M 3.53387,5.10149 l -0.5704,0.820861 -0.167794,0.265478 -0.144017,0.279092 -0.119145,0.290582 -0.0933654,0.299861 -0.0668756,0.306857 -0.0398768,0.311518 -0.0125745,0.313808 0.0148235,0.31371 0.0421087,0.311224 0.0690734,0.30637 0.0955124,0.299184 0.121225,0.289721 0.146014,0.278053 0.169692,0.264269 0.192079,0.248473 0.213004,0.230787 0.232308,0.211344 0.249844,0.190293 0.265478,0.167794 0.279092,0.144017 0.290582,0.119145 0.299861,0.0933654 0.306857,0.0668756 0.311518,0.0398768 0.313808,0.0125745 0.31371,-0.0148235 0.311224,-0.0421087 0.30637,-0.0690734 0.299184,-0.0955124 0.289721,-0.121225 0.278053,-0.146014 0.264269,-0.169692 0.248473,-0.192079 0.230787,-0.213004 0.211344,-0.232308 0.190293,-0.249844 0.5704,-0.820861 0.167794,-0.265478 0.144017,-0.279092 0.119145,-0.290582 0.0933654,-0.299861 0.0668756,-0.306857 0.0398768,-0.311518 0.0125745,-0.313808 -0.0148235,-0.31371 -0.0421087,-0.311224 -0.0690734,-0.30637 -0.0955124,-0.299184 -0.121225,-0.289721 -0.146014,-0.278053 -0.169692,-0.264269 -0.192079,-0.248473 -0.213004,-0.230787 -0.232308,-0.211344 -0.249844,-0.190293 -0.265478,-0.167794 -0.279092,-0.144017 -0.290582,-0.119145 -0.299861,-0.0933654 -0.306857,-0.0668756 -0.311518,-0.0398768 -0.313808,-0.0125745 -0.31371,0.0148235 -0.311224,0.0421087 -0.30637,0.0690734 -0.299184,0.0955124 -0.289721,0.121225 -0.278053,0.146014 -0.264269,0.169692 -0.248473,0.192079 -0.230787,0.213004 -0.211344,0.232308 -0.190293,0.249844 z "/>
<path fme:buf_int="3.7" fme:_creation_instance="0" fme:seq_num="37" d="M 2.68824,6.17469 l -0.486803,0.873011 -0.144754,0.288506 -0.119058,0.300024 -0.0924563,0.309259 -0.0651508,0.31614 -0.0373495,0.320615 -0.00926389,0.322651 0.0188922,0.32223 0.0469045,0.319357 0.0745599,0.314054 0.101648,0.306361 0.127962,0.296336 0.153302,0.284055 0.177476,0.269613 0.200299,0.253119 0.221598,0.234699 0.24121,0.214492 0.258986,0.192653 0.274792,0.169348 0.288506,0.144754 0.300024,0.119058 0.309259,0.0924563 0.31614,0.0651508 0.320615,0.0373495 0.322651,0.00926389 0.32223,-0.0188922 0.319357,-0.0469045 0.314054,-0.0745599 0.306361,-0.101648 0.296336,-0.127962 0.284055,-0.153302 0.269613,-0.177476 0.253119,-0.200299 0.234699,-0.221598 0.214492,-0.24121 0.192653,-0.258986 0.169348,-0.274792 0.486803,-0.873011 0.144754,-0.288506 0.119058,-0.300024 0.0924563,-0.309259 0.0651508,-0.31614 0.0373495,-0.320615 0.00926389,-0.322651 -0.0188922,-0.32223 -0.0469045,-0.319357 -0.0745599,-0.314054 -0.101648,-0.306361 -0.127962,-0.296336 -0.153302,-0.284055 -0.177476,-0.269613 -0.200299,-0.253119 -0.221598,-0.234699 -0.24121,-0.214492 -0.258986,-0.192653 -0.274792,-0.169348 -0.288506,-0.144754 -0.300024,-0.119058 -0.309259,-0.0924563 -0.31614,-0.0651508 -0.320615,-0.0373495 -0.322651,-0.00926389 -0.32223,0.0188922 -0.319357,0.0469045 -0.314054,0.0745599 -0.306361,0.101648 -0.296336,0.127962 -0.284055,0.153302 -0.269613,0.177476 -0.253119,0.200299 -0.234699,0.221598 -0.214492,0.24121 -0.192653,0.258986 -0.169348,0.274792 z "/>
<path fme:buf_int="3.8" fme:_creation_instance="0" fme:seq_num="38" d="M 1.94745,7.33606 l -0.398139,0.916846 -0.118655,0.309545 -0.0912248,0.318709 -0.0631004,0.325447 -0.0344957,0.329708 -0.00562854,0.33146 0.0232815,0.330689 0.0520143,0.327401 0.0803513,0.321622 0.108077,0.313395 0.13498,0.302783 0.160855,0.289867 0.185507,0.274744 0.208746,0.257531 0.230397,0.238357 0.250295,0.21737 0.268287,0.194728 0.284238,0.170604 0.298026,0.145182 0.309545,0.118655 0.318709,0.0912248 0.325447,0.0631004 0.329708,0.0344957 0.33146,0.00562854 0.330689,-0.0232815 0.327401,-0.0520143 0.321622,-0.0803513 0.313395,-0.108077 0.302783,-0.13498 0.289867,-0.160855 0.274744,-0.185507 0.257531,-0.208746 0.238357,-0.230397 0.21737,-0.250295 0.194728,-0.268287 0.170604,-0.284238 0.145182,-0.298026 0.398139,-0.916846 0.118655,-0.309545 0.0912248,-0.318709 0.0631004,-0.325447 0.0344957,-0.329708 0.00562854,-0.33146 -0.0232815,-0.330689 -0.0520143,-0.327401 -0.0803513,-0.321622 -0.108077,-0.313395 -0.13498,-0.302783 -0.160855,-0.289867 -0.185507,-0.274744 -0.208746,-0.257531 -0.230397,-0.238357 -0.250295,-0.21737 -0.268287,-0.194728 -0.284238,-0.170604 -0.298026,-0.145182 -0.309545,-0.118655 -0.318709,-0.0912248 -0.325447,-0.0631004 -0.329708,-0.0344957 -0.33146,-0.00562854 -0.330689,0.0232815 -0.327401,0.0520143 -0.321622,0.0803513 -0.313395,0.108077 -0.302783,0.13498 -0.289867,0.160855 -0.274744,0.185507 -0.257531,0.208746 -0.238357,0.230397 -0.21737,0.250295 -0.194728,0.268287 -0.170604,0.284238 -0.145182,0.298026 z "/>
<path fme:buf_int="3.9" fme:_creation_instance="0" fme:seq_num="39" d="M 1.32282,8.57035 l -0.306575,0.9514 -0.0901261,0.328077 -0.0611893,0.334684 -0.0317869,0.338743 -0.00214253,0.340224 0.0275181,0.339117 0.0569694,0.335428 0.0859871,0.329186 0.11435,0.320439 0.141843,0.309254 0.168257,0.295714 0.19339,0.279924 0.217051,0.262004 0.23906,0.24209 0.25925,0.220333 0.277467,0.1969 0.293572,0.171968 0.307443,0.145727 0.318974,0.118377 0.328077,0.0901261 0.334684,0.0611893 0.338743,0.0317869 0.340224,0.00214253 0.339117,-0.0275181 0.335428,-0.0569694 0.329186,-0.0859871 0.320439,-0.11435 0.309254,-0.141843 0.295714,-0.168257 0.279924,-0.19339 0.262004,-0.217051 0.24209,-0.23906 0.220333,-0.25925 0.1969,-0.277467 0.171968,-0.293572 0.145727,-0.307443 0.118377,-0.318974 0.306575,-0.9514 0.0901261,-0.328077 0.0611893,-0.334684 0.0317869,-0.338743 0.00214253,-0.340224 -0.0275181,-0.339117 -0.0569694,-0.335428 -0.0859871,-0.329186 -0.11435,-0.320439 -0.141843,-0.309254 -0.168257,-0.295714 -0.19339,-0.279924 -0.217051,-0.262004 -0.23906,-0.24209 -0.25925,-0.220333 -0.277467,-0.1969 -0.293572,-0.171968 -0.307443,-0.145727 -0.318974,-0.118377 -0.328077,-0.0901261 -0.334684,-0.0611893 -0.338743,-0.0317869 -0.340224,-0.00214253 -0.339117,0.0275181 -0.335428,0.0569694 -0.329186,0.0859871 -0.320439,0.11435 -0.309254,0.141843 -0.295714,0.168257 -0.279924,0.19339 -0.262004,0.217051 -0.24209,0.23906 -0.220333,0.25925 -0.1969,0.277467 -0.171968,0.293572 -0.145727,0.307443 -0.118377,0.318974 z "/>
<path fme:buf_int="4" fme:_creation_instance="0" fme:seq_num="40" d="M 0.821395,9.85984 l -0.21443,0.976336 -0.0599178,0.343772 -0.0297281,0.347686 0.000687901,0.348954 0.0310987,0.347567 0.0612727,0.343534 0.0909805,0.336886 0.119996,0.327675 0.148098,0.315969 0.175073,0.301859 0.200716,0.285452 0.224831,0.266872 0.247234,0.246262 0.267757,0.223777 0.286241,0.199589 0.302547,0.173881 0.316551,0.146851 0.328145,0.118703 0.337242,0.0896516 0.343772,0.0599178 0.347686,0.0297281 0.348954,-0.000687901 0.347567,-0.0310987 0.343534,-0.0612727 0.336886,-0.0909805 0.327675,-0.119996 0.315969,-0.148098 0.301859,-0.175073 0.285452,-0.200716 0.266872,-0.224831 0.246262,-0.247234 0.223777,-0.267757 0.199589,-0.286241 0.173881,-0.302547 0.146851,-0.316551 0.118703,-0.328145 0.0896516,-0.337242 0.21443,-0.976336 0.0586938,-0.334418 0.0301218,-0.338191 0.00133267,-0.339527 -0.027466,-0.338417 -0.0560668,-0.334868 -0.0842637,-0.328907 -0.111853,-0.320576 -0.138637,-0.309936 -0.164422,-0.297062 -0.189022,-0.282048 -0.212261,-0.265001 -0.23397,-0.246046 -0.253993,-0.225317 -0.272186,-0.202965 -0.288418,-0.179151 -0.302572,-0.154046 -0.314546,-0.127831 -0.324254,-0.100695 -0.331626,-0.0728341 -0.336608,-0.0444479 -0.339165,-0.0157414 -0.339278,0.0130785 -0.336946,0.0418041 -0.332187,0.0702285 -0.325035,0.098147 -0.31554,0.125358 -0.303772,0.151666 -0.289816,0.176882 -0.273771,0.200823 -0.255754,0.223317 -0.235894,0.244201 -0.214335,0.263327 -0.191231,0.280555 -0.166749,0.295762 -0.141066,0.308838 -0.114367,0.319688 -0.086843,0.328236 z "/>
<path fme:buf_int="4.1" fme:_creation_instance="0" fme:seq_num="41" d="M 0.445461,11.1861 l -0.1239,0.991945 -0.0288081,0.356517 0.00237402,0.357671 0.0335381,0.356103 0.0644469,0.351825 0.0948652,0.344869 0.124562,0.335289 0.15331,0.323157 0.180892,0.308565 0.207096,0.291625 0.231725,0.272466 0.25459,0.251233 0.275518,0.228088 0.294349,0.203207 0.310939,0.17678 0.325163,0.149007 0.336913,0.1201 0.346098,0.090279 0.35265,0.059771 0.356517,0.0288081 0.357671,-0.00237402 0.356103,-0.0335381 0.351825,-0.0644469 0.344869,-0.0948652 0.335289,-0.124562 0.323157,-0.15331 0.308565,-0.180892 0.291625,-0.207096 0.272466,-0.231725 0.251233,-0.25459 0.228088,-0.275518 0.203207,-0.294349 0.17678,-0.310939 0.149007,-0.325163 0.1201,-0.336913 0.090279,-0.346098 0.059771,-0.35265 0.1239,-0.991945 0.028439,-0.346854 -0.00107868,-0.348016 -0.0305886,-0.346671 -0.0598782,-0.342828 -0.0887363,-0.336515 -0.116955,-0.327777 -0.144331,-0.316678 -0.170667,-0.303297 -0.195774,-0.287731 -0.21947,-0.270091 -0.241585,-0.250506 -0.261959,-0.229116 -0.280445,-0.206075 -0.296911,-0.181549 -0.311238,-0.155715 -0.323323,-0.128759 -0.333077,-0.100876 -0.340432,-0.0722653 -0.345334,-0.0431343 -0.347748,-0.0136925 -0.347657,0.0158479 -0.34506,0.0452742 -0.339978,0.0743743 -0.332446,0.102938 -0.322518,0.130761 -0.310267,0.157641 -0.29578,0.183386 -0.279163,0.207809 -0.260533,0.230735 -0.240027,0.251999 -0.217791,0.271447 -0.193987,0.288939 -0.168784,0.304349 -0.142365,0.317567 -0.114921,0.328496 -0.0866486,0.337059 -0.0577519,0.343193 z "/>
<path fme:buf_int="4.2" fme:_creation_instance="0" fme:seq_num="42" d="M 0.192725,12.5335 l -0.0363482,0.999036 0.00266227,0.366393 0.0345854,0.364767 0.0662453,0.360365 0.0974011,0.35322 0.127816,0.343386 0.157257,0.33094 0.185502,0.315975 0.212335,0.298605 0.237552,0.278962 0.260962,0.257197 0.282385,0.233474 0.301659,0.207974 0.318637,0.180891 0.33319,0.152432 0.345208,0.122812 0.354598,0.092258 0.361289,0.0610017 0.365231,0.0292811 0.366393,-0.00266227 0.364767,-0.0345854 0.360365,-0.0662453 0.35322,-0.0974011 0.343386,-0.127816 0.33094,-0.157257 0.315975,-0.185502 0.298605,-0.212335 0.278962,-0.237552 0.257197,-0.260962 0.233474,-0.282385 0.207974,-0.301659 0.180891,-0.318637 0.152432,-0.33319 0.122812,-0.345208 0.092258,-0.354598 0.0610017,-0.361289 0.0292811,-0.365231 0.0363482,-0.999036 -0.00266227,-0.366393 -0.0345854,-0.364767 -0.0662453,-0.360365 -0.0974011,-0.35322 -0.127816,-0.343386 -0.157257,-0.33094 -0.185502,-0.315975 -0.212335,-0.298605 -0.237552,-0.278962 -0.260962,-0.257197 -0.282385,-0.233474 -0.301659,-0.207974 -0.318637,-0.180891 -0.33319,-0.152432 -0.345208,-0.122812 -0.354598,-0.092258 -0.361289,-0.0610017 -0.365231,-0.0292811 -0.366393,0.00266227 -0.364767,0.0345854 -0.360365,0.0662453 -0.35322,0.0974011 -0.343386,0.127816 -0.33094,0.157257 -0.315975,0.185502 -0.298605,0.212335 -0.278962,0.237552 -0.257197,0.260962 -0.233474,0.282385 -0.207974,0.301659 -0.180891,0.318637 -0.152432,0.33319 -0.122812,0.345208 -0.092258,0.354598 -0.0610017,0.361289 -0.0292811,0.365231 z "/>
<path fme:buf_int="4.3" fme:_creation_instance="0" fme:seq_num="43" d="M 0.0582338,13.8848 l 0.0464003,0.998642 0.0337395,0.373606 0.066173,0.369244 0.0981029,0.362072 0.129286,0.352144 0.159486,0.339536 0.188471,0.324343 0.216022,0.306683 0.24193,0.286688 0.265995,0.264512 0.288037,0.240322 0.307886,0.214304 0.325393,0.186654 0.340422,0.157584 0.352861,0.127315 0.362615,0.0960762 0.369608,0.0641066 0.373789,0.0316492 0.375125,-0.00104913 0.373606,-0.0337395 0.369244,-0.066173 0.362072,-0.0981029 0.352144,-0.129286 0.339536,-0.159486 0.324343,-0.188471 0.306683,-0.216022 0.286688,-0.24193 0.264512,-0.265995 0.240322,-0.288037 0.214304,-0.307886 0.186654,-0.325393 0.157584,-0.340422 0.127315,-0.352861 0.0960762,-0.362615 0.0641066,-0.369608 0.0316492,-0.373789 -0.00104913,-0.375125 -0.0464003,-0.998642 -0.0337395,-0.373606 -0.066173,-0.369244 -0.0981029,-0.362072 -0.129286,-0.352144 -0.159486,-0.339536 -0.188471,-0.324343 -0.216022,-0.306683 -0.24193,-0.286688 -0.265995,-0.264512 -0.288037,-0.240322 -0.307886,-0.214304 -0.325393,-0.186654 -0.340422,-0.157584 -0.352861,-0.127315 -0.362615,-0.0960762 -0.369608,-0.0641066 -0.373789,-0.0316492 -0.375125,0.00104913 -0.373606,0.0337395 -0.369244,0.066173 -0.362072,0.0981029 -0.352144,0.129286 -0.339536,0.159486 -0.324343,0.188471 -0.306683,0.216022 -0.286688,0.24193 -0.264512,0.265995 -0.240322,0.288037 -0.214304,0.307886 -0.186654,0.325393 -0.157584,0.340422 -0.127315,0.352861 -0.0960762,0.362615 -0.0641066,0.369608 -0.0316492,0.373789 0.00104913,0.375125 z "/>
<path fme:buf_int="4.4" fme:_creation_instance="0" fme:seq_num="44" d="M 0.0334846,15.2257 l 0.123105,0.992141 0.061678,0.368355 0.0926944,0.361797 0.123043,0.352632 0.152505,0.340927 0.180868,0.326766 0.207928,0.31025 0.23349,0.291499 0.25737,0.270647 0.279395,0.247846 0.299408,0.223258 0.317263,0.197063 0.332832,0.169447 0.346003,0.14061 0.356681,0.110761 0.364789,0.0801131 0.370269,0.0488882 0.373081,0.017311 0.373205,-0.0143908 0.37064,-0.045989 0.365405,-0.0772558 0.357537,-0.107966 0.347093,-0.137898 0.334148,-0.166837 0.318795,-0.194574 0.301146,-0.220908 0.281326,-0.245652 0.25948,-0.268625 0.235764,-0.289662 0.21035,-0.308613 0.18342,-0.32534 0.155168,-0.339723 0.125799,-0.351659 0.095523,-0.36106 0.0645588,-0.367861 0.0331295,-0.37201 0.00146143,-0.37348 -0.0302171,-0.372258 -0.123105,-0.992141 -0.0638366,-0.378505 -0.0965826,-0.371501 -0.128593,-0.36167 -0.159626,-0.349086 -0.189443,-0.333845 -0.217819,-0.316064 -0.244537,-0.295877 -0.269394,-0.273438 -0.2922,-0.248918 -0.312783,-0.222504 -0.330985,-0.194397 -0.346668,-0.16481 -0.359713,-0.133968 -0.370021,-0.102108 -0.377512,-0.0694696 -0.38213,-0.036303 -0.38384,-0.00285998 -0.382629,0.0306048 -0.378505,0.0638366 -0.371501,0.0965826 -0.36167,0.128593 -0.349086,0.159626 -0.333845,0.189443 -0.316064,0.217819 -0.295877,0.244537 -0.273438,0.269394 -0.248918,0.2922 -0.222504,0.312783 -0.194397,0.330985 -0.16481,0.346668 -0.133968,0.359713 -0.102108,0.370021 -0.0694696,0.377512 -0.036303,0.38213 -0.00285998,0.38384 0.0306048,0.382629 z "/>
<path fme:buf_int="4.5" fme:_creation_instance="0" fme:seq_num="45" d="M 0.108864,16.5503 l 0.194259,0.980738 0.0900521,0.371204 0.121208,0.36223 0.151491,0.350646 0.180682,0.336535 0.208571,0.32 0.234957,0.301159 0.259651,0.280148 0.282474,0.257119 0.303261,0.232237 0.321864,0.205682 0.338148,0.177645 0.351995,0.148329 0.363306,0.117943 0.371999,0.0867076 0.378013,0.0548474 0.381302,0.0225922 0.381844,-0.00982591 0.379636,-0.0421732 0.374691,-0.0742166 0.367048,-0.105725 0.356759,-0.136472 0.3439,-0.166236 0.328564,-0.194802 0.31086,-0.221964 0.290916,-0.247527 0.268876,-0.271307 0.244899,-0.293132 0.219157,-0.312845 0.191837,-0.330303 0.163134,-0.345382 0.133256,-0.357973 0.102418,-0.367984 0.0708413,-0.375344 0.0387547,-0.38 0.00638888,-0.381917 -0.026023,-0.381083 -0.0582474,-0.377504 -0.194259,-0.980738 -0.0930018,-0.381399 -0.125889,-0.371842 -0.157818,-0.359455 -0.188546,-0.344333 -0.217839,-0.32659 -0.245475,-0.306361 -0.271242,-0.283801 -0.294944,-0.25908 -0.316402,-0.232388 -0.335452,-0.203928 -0.351949,-0.173915 -0.365768,-0.142579 -0.376802,-0.110158 -0.384969,-0.076898 -0.390207,-0.0430531 -0.392474,-0.00888055 -0.391755,0.0253596 -0.388054,0.0594068 -0.381399,0.0930018 -0.371842,0.125889 -0.359455,0.157818 -0.344333,0.188546 -0.32659,0.217839 -0.306361,0.245475 -0.283801,0.271242 -0.25908,0.294944 -0.232388,0.316402 -0.203928,0.335452 -0.173915,0.351949 -0.142579,0.365768 -0.110158,0.376802 -0.076898,0.384969 -0.0430531,0.390207 -0.00888055,0.392474 0.0253596,0.391755 0.0594068,0.388054 z "/>
</g></g></svg>