<?xml version="1.0" encoding="UTF-8" standalone="no"?>
<!DOCTYPE svg PUBLIC "-//W3C//DTD SVG 1.1//EN" "http://www.w3.org/Graphics/SVG/1.1/DTD/svg11-flat.dtd"
[
<!ATTLIST g xmlns:fme CDATA #FIXED "http://www.safe.com/fme" >
<!ATTLIST path fme:_creation_instance CDATA #IMPLIED fme:i CDATA #IMPLIED >
<!ATTLIST ellipse fme:_creation_instance CDATA #IMPLIED fme:i CDATA #IMPLIED >
<!ATTLIST text fme:_creation_instance CDATA #IMPLIED fme:i CDATA #IMPLIED >
<!ATTLIST use fme:_creation_instance CDATA #IMPLIED fme:i CDATA #IMPLIED >
]>
<svg xmlns="http://www.w3.org/2000/svg"  viewBox="-0.0661004 -0.0661004 11.7322 4.09823"><g xmlns:fme="http://www.safe.com/fme" fill="none" stroke="black" stroke-width="0.000661004233964" transform="translate(0,3.96603) scale(1, -1)">
<g id="test" >
<path fme:_creation_instance="0" d="M 9.55,1.22016 l 0.440977,2.64586 -0.881954,0 0.440977,-2.64586 z M 8.55,1.22016 l 0.440977,2.64586 -0.881954,0 0.440977,-2.64586 z M 7.55,1.22016 l 0.440977,2.64586 -0.881954,0 0.440977,-2.64586 z M 6.55,1.22016 l 0.440977,2.64586 -0.881954,0 0.440977,-2.64586 z M 5.55,1.22016 l 0.440977,2.64586 -0.881954,0 0.440977,-2.64586 z M 4.55,1.22016 l 0.440977,2.64586 -0.881954,0 0.440977,-2.64586 z M 3.55,1.22016 l 0.440977,2.64586 -0.881954,0 0.440977,-2.64586 z M 2.55,1.22016 l 0.440977,2.64586 -0.881954,0 0.440977,-2.64586 z M 1.55,1.22016 l 0.440977,2.64586 -0.881954,0 0.440977,-2.64586 z M 0.55,1.22016 l 0.440977,2.64586 -0.881954,0 0.440977,-2.64586 z M 1.05,3.61189 l -0.440977,-2.64586 0.881954,0 -0.440977,2.64586 z M 2.05,3.61189 l -0.440977,-2.64586 0.881954,0 -0.440977,2.64586 z M 3.05,3.61189 l -0.440977,-2.64586 0.881954,0 -0.440977,2.64586 z M 4.05,3.61189 l -0.440977,-2.64586 0.881954,0 -0.440977,2.64586 z M 5.05,3.61189 l -0.440977,-2.64586 0.881954,0 -0.440977,2.64586 z M 6.05,3.61189 l -0.440977,-2.64586 0.881954,0 -0.440977,2.64586 z M 7.05,3.61189 l -0.440977,-2.64586 0.881954,0 -0.440977,2.64586 z M 8.05,3.61189 l -0.440977,-2.64586 0.881954,0 -0.440977,2.64586 z M 9.05,3.61189 l -0.440977,-2.64586 0.881954,0 -0.440977,2.64586 z M 10.05,3.61189 l -0.440977,-2.64586 0.881954,0 -0.440977,2.64586 z M 10.55,1.22016 l 0.440977,2.64586 -0.881954,0 0.440977,-2.64586 z M 10.55,0.866025 l -1,0 -1,0 -1,0 -1,0 -1,0 -1,0 -1,0 -1,0 -1,0 -1,0 -0.00412955,0.000170824 -0.00410133,0.000511303 -0.00404509,0.000848289 -0.00396121,0.00117948 -0.00385026,0.00150261 -0.00371301,0.00181547 -0.00355038,0.00211593 -0.00336349,0.00240193 -0.00315362,0.00267152 -0.00292221,0.00292285 -0.00267082,0.00315421 -0.00240119,0.00336402 -0.00211514,0.00355085 -0.00181465,0.00371341 -0.00150176,0.00385059 -0.0011786,0.00396147 -0.000847393,0.00404528 -0.5,3 -0.000526909,0.00430639 -0.000151612,0.00433585 0.000224826,0.00433267 0.000599572,0.00429687 0.000969803,0.00422872 0.00133273,0.00412873 0.00168563,0.00399765 0.00202583,0.00383648 0.00235078,0.00364642 0.00265804,0.00342891 0.00294528,0.00318558 0.00321034,0.00291827 0.00345124,0.00262898 0.00366615,0.0023199 0.00385345,0.00199336 0.00401175,0.00165181 0.00413984,0.00129782 0.00423676,0.000934054 0.00430178,0.00056326 0.00433442,0.000188226 1,0 1,0 1,0 1,0 1,0 1,0 1,0 1,0 1,0 1,0 1,0 0.00433442,-0.000188226 0.00430178,-0.00056326 0.00423676,-0.000934054 0.00413984,-0.00129782 0.00401175,-0.00165181 0.00385345,-0.00199336 0.00366615,-0.0023199 0.00345124,-0.00262898 0.00321034,-0.00291827 0.00294528,-0.00318558 0.00265804,-0.00342891 0.00235078,-0.00364642 0.00202583,-0.00383648 0.00168563,-0.00399765 0.00133273,-0.00412873 0.000969803,-0.00422872 0.000599572,-0.00429687 0.000224826,-0.00433267 -0.000151612,-0.00433585 -0.000526909,-0.00430639 -0.490297,-2.94178 0.940977,0 0.00435779,-0.000190265 0.00432462,-0.000569347 0.00425854,-0.000944096 0.00416005,-0.00131166 0.00402991,-0.00166924 0.00386909,-0.00201412 0.00367882,-0.00234367 0.00346056,-0.00265538 0.00321596,-0.00294688 0.00294688,-0.00321596 0.00265538,-0.00346056 0.00234367,-0.00367882 0.00201412,-0.00386909 0.00166924,-0.00402991 0.00131166,-0.00416005 0.000944096,-0.00425854 0.000569347,-0.00432462 0.000190265,-0.00435779 -0.000190265,-0.00435779 -0.000569347,-0.00432462 -0.000944096,-0.00425854 -0.00131166,-0.00416005 -0.00166924,-0.00402991 -0.00201412,-0.00386909 -0.00234367,-0.00367882 -0.00265538,-0.00346056 -0.00294688,-0.00321596 -0.00321596,-0.00294688 -0.00346056,-0.00265538 -0.00367882,-0.00234367 -0.00386909,-0.00201412 -0.00402991,-0.00166924 -0.00416005,-0.00131166 -0.00425854,-0.000944096 -0.00432462,-0.000569347 -0.00435779,-0.000190265 -1,0 z "/>
<path fme:_creation_instance="0" d="M 10.5933,0.891025 l -0.5,-0.866025 -0.00234367,-0.00367882 -0.00265538,-0.00346056 -0.00294688,-0.00321596 -0.00321596,-0.00294688 -0.00346056,-0.00265538 -0.00367882,-0.00234367 -0.00386909,-0.00201412 -0.00402991,-0.00166924 -0.00416005,-0.00131166 -0.00425854,-0.000944096 -0.00432462,-0.000569347 -0.00435779,-0.000190265 -0.00435779,0.000190265 -0.00432462,0.000569347 -0.00425854,0.000944096 -0.00416005,0.00131166 -0.00402991,0.00166924 -0.00386909,0.00201412 -0.00367882,0.00234367 -0.00346056,0.00265538 -0.00321596,0.00294688 -0.00294688,0.00321596 -0.00265538,0.00346056 -0.00234367,0.00367882 -0.956699,1.65705 -0.956699,-1.65705 -0.00234367,-0.00367882 -0.00265538,-0.00346056 -0.00294688,-0.00321596 -0.00321596,-0.00294688 -0.00346056,-0.00265538 -0.00367882,-0.00234367 -0.00386909,-0.00201412 -0.00402991,-0.00166924 -0.00416005,-0.00131166 -0.00425854,-0.000944096 -0.00432462,-0.000569347 -0.00435779,-0.000190265 -0.00435779,0.000190265 -0.00432462,0.000569347 -0.00425854,0.000944096 -0.00416005,0.00131166 -0.00402991,0.00166924 -0.00386909,0.00201412 -0.00367882,0.00234367 -0.00346056,0.00265538 -0.00321596,0.00294688 -0.00294688,0.00321596 -0.00265538,0.00346056 -0.00234367,0.00367882 -0.956699,1.65705 -0.956699,-1.65705 -0.00234367,-0.00367882 -0.00265538,-0.00346056 -0.00294688,-0.00321596 -0.00321596,-0.00294688 -0.00346056,-0.00265538 -0.00367882,-0.00234367 -0.00386909,-0.00201412 -0.00402991,-0.00166924 -0.00416005,-0.00131166 -0.00425854,-0.000944096 -0.00432462,-0.000569347 -0.00435779,-0.000190265 -0.00435779,0.000190265 -0.00432462,0.000569347 -0.00425854,0.000944096 -0.00416005,0.00131166 -0.00402991,0.00166924 -0.00386909,0.00201412 -0.00367882,0.00234367 -0.00346056,0.00265538 -0.00321596,0.00294688 -0.00294688,0.00321596 -0.00265538,0.00346056 -0.00234367,0.00367882 -0.956699,1.65705 -0.956699,-1.65705 -0.00234367,-0.00367882 -0.00265538,-0.00346056 -0.00294688,-0.00321596 -0.00321596,-0.00294688 -0.00346056,-0.00265538 -0.00367882,-0.00234367 -0.00386909,-0.00201412 -0.00402991,-0.00166924 -0.00416005,-0.00131166 -0.00425854,-0.000944096 -0.00432462,-0.000569347 -0.00435779,-0.000190265 -0.00435779,0.000190265 -0.00432462,0.000569347 -0.00425854,0.000944096 -0.00416005,0.00131166 -0.00402991,0.00166924 -0.00386909,0.00201412 -0.00367882,0.00234367 -0.00346056,0.00265538 -0.00321596,0.00294688 -0.00294688,0.00321596 -0.00265538,0.00346056 -0.00234367,0.00367882 -0.956699,1.65705 -0.956699,-1.65705 -0.00234367,-0.00367882 -0.00265538,-0.00346056 -0.00294688,-0.00321596 -0.00321596,-0.00294688 -0.00346056,-0.00265538 -0.00367882,-0.00234367 -0.00386909,-0.00201412 -0.00402991,-0.00166924 -0.00416005,-0.00131166 -0.00425854,-0.000944096 -0.00432462,-0.000569347 -0.00435779,-0.000190265 -0.00435779,0.000190265 -0.00432462,0.000569347 -0.00425854,0.000944096 -0.00416005,0.00131166 -0.00402991,0.00166924 -0.00386909,0.00201412 -0.00367882,0.00234367 -0.00346056,0.00265538 -0.00321596,0.00294688 -0.00294688,0.00321596 -0.00265538,0.00346056 -0.00234367,0.00367882 -0.956699,1.65705 -0.456699,-0.791025 -0.00234367,-0.00367882 -0.00265538,-0.00346056 -0.00294688,-0.00321596 -0.00321596,-0.00294688 -0.00346056,-0.00265538 -0.00367882,-0.00234367 -0.00386909,-0.00201412 -0.00402991,-0.00166924 -0.00416005,-0.00131166 -0.00425854,-0.000944096 -0.00432462,-0.000569347 -0.00435779,-0.000190265 -0.00435779,0.000190265 -0.00432462,0.000569347 -0.00425854,0.000944096 -0.00416005,0.00131166 -0.00402991,0.00166924 -0.00386909,0.00201412 -0.00367882,0.00234367 -0.00346056,0.00265538 -0.00321596,0.00294688 -0.00294688,0.00321596 -0.00265538,0.00346056 -0.00234367,0.00367882 -0.00201412,0.00386909 -0.00166924,0.00402991 -0.00131166,0.00416005 -0.000944096,0.00425854 -0.000569347,0.00432462 -0.000190265,0.00435779 0.000190265,0.00435779 0.000569347,0.00432462 0.000944096,0.00425854 0.00131166,0.00416005 0.00166924,0.00402991 0.00201412,0.00386909 0.5,0.866025 0.00234367,0.00367882 0.00265538,0.00346056 0.00294688,0.00321596 0.00321596,0.00294688 0.00346056,0.00265538 0.00367882,0.00234367 0.00386909,0.00201412 0.00402991,0.00166924 0.00416005,0.00131166 0.00425854,0.000944096 0.00432462,0.000569347 0.00435779,0.000190265 0.00435779,-0.000190265 0.00432462,-0.000569347 0.00425854,-0.000944096 0.00416005,-0.00131166 0.00402991,-0.00166924 0.00386909,-0.00201412 0.00367882,-0.00234367 0.00346056,-0.00265538 0.00321596,-0.00294688 0.00294688,-0.00321596 0.00265538,-0.00346056 0.00234367,-0.00367882 0.956699,-1.65705 0.956699,1.65705 0.00234367,0.00367882 0.00265538,0.00346056 0.00294688,0.00321596 0.00321596,0.00294688 0.00346056,0.00265538 0.00367882,0.00234367 0.00386909,0.00201412 0.00402991,0.00166924 0.00416005,0.00131166 0.00425854,0.000944096 0.00432462,0.000569347 0.00435779,0.000190265 0.00435779,-0.000190265 0.00432462,-0.000569347 0.00425854,-0.000944096 0.00416005,-0.00131166 0.00402991,-0.00166924 0.00386909,-0.00201412 0.00367882,-0.00234367 0.00346056,-0.00265538 0.00321596,-0.00294688 0.00294688,-0.00321596 0.00265538,-0.00346056 0.00234367,-0.00367882 0.956699,-1.65705 0.956699,1.65705 0.00234367,0.00367882 0.00265538,0.00346056 0.00294688,0.00321596 0.00321596,0.00294688 0.00346056,0.00265538 0.00367882,0.00234367 0.00386909,0.00201412 0.00402991,0.00166924 0.00416005,0.00131166 0.00425854,0.000944096 0.00432462,0.000569347 0.00435779,0.000190265 0.00435779,-0.000190265 0.00432462,-0.000569347 0.00425854,-0.000944096 0.00416005,-0.00131166 0.00402991,-0.00166924 0.00386909,-0.00201412 0.00367882,-0.00234367 0.00346056,-0.00265538 0.00321596,-0.00294688 0.00294688,-0.00321596 0.00265538,-0.00346056 0.00234367,-0.00367882 0.956699,-1.65705 0.956699,1.65705 0.00234367,0.00367882 0.00265538,0.00346056 0.00294688,0.00321596 0.00321596,0.00294688 0.00346056,0.00265538 0.00367882,0.00234367 0.00386909,0.00201412 0.00402991,0.00166924 0.00416005,0.00131166 0.00425854,0.000944096 0.00432462,0.000569347 0.00435779,0.000190265 0.00435779,-0.000190265 0.00432462,-0.000569347 0.00425854,-0.000944096 0.00416005,-0.00131166 0.00402991,-0.00166924 0.00386909,-0.00201412 0.00367882,-0.00234367 0.00346056,-0.00265538 0.00321596,-0.00294688 0.00294688,-0.00321596 0.00265538,-0.00346056 0.00234367,-0.00367882 0.956699,-1.65705 0.956699,1.65705 0.00234367,0.00367882 0.00265538,0.00346056 0.00294688,0.00321596 0.00321596,0.00294688 0.00346056,0.00265538 0.00367882,0.00234367 0.00386909,0.00201412 0.00402991,0.00166924 0.00416005,0.00131166 0.00425854,0.000944096 0.00432462,0.000569347 0.00435779,0.000190265 0.00435779,-0.000190265 0.00432462,-0.000569347 0.00425854,-0.000944096 0.00416005,-0.00131166 0.00402991,-0.00166924 0.00386909,-0.00201412 0.00367882,-0.00234367 0.00346056,-0.00265538 0.00321596,-0.00294688 0.00294688,-0.00321596 0.00265538,-0.00346056 0.00234367,-0.00367882 0.956699,-1.65705 0.456699,0.791025 0.00227614,0.00358214 0.00257173,0.00337621 0.00284879,0.00314595 0.00310532,0.00289302 0.00333948,0.00261925 0.00354957,0.0023266 0.0037341,0.0020172 0.00389171,0.00169326 0.00402129,0.00135712 0.0041219,0.0010112 0.0041928,0.000657994 0.0042335,0.000300049 0.0042437,-6.00579e-05 0.00422331,-0.000419732 0.0041725,-0.000776382 0.00409163,-0.00112744 0.00398128,-0.00147037 0.00384224,-0.00180271 0.00367552,-0.00212206 0.00348231,-0.00242612 0.00326402,-0.0027127 0.00302221,-0.00297974 0.00275862,-0.0032253 0.00247516,-0.00344763 0.00217386,-0.00364512 0.0018569,-0.00381634 0.00152656,-0.00396007 0.00118523,-0.00407527 0.000835349,-0.0041611 0.000479453,-0.00421695 0.000120104,-0.00424242 -0.000240111,-0.00423732 -0.000598596,-0.00420169 -0.000952769,-0.00413579 -0.00130008,-0.00404009 -0.00163802,-0.00391529 -0.00196415,-0.00376227 z "/>
</g></g></svg>