<?xml version="1.0" encoding="UTF-8" standalone="no"?>
<!DOCTYPE svg PUBLIC "-//W3C//DTD SVG 1.1//EN" "http://www.w3.org/Graphics/SVG/1.1/DTD/svg11-flat.dtd"
[
<!ATTLIST g xmlns:fme CDATA #FIXED "http://www.safe.com/fme" >
<!ATTLIST path fme:_creation_instance CDATA #IMPLIED fme:i CDATA #IMPLIED >
<!ATTLIST ellipse fme:_creation_instance CDATA #IMPLIED fme:i CDATA #IMPLIED >
<!ATTLIST text fme:_creation_instance CDATA #IMPLIED fme:i CDATA #IMPLIED >
<!ATTLIST use fme:_creation_instance CDATA #IMPLIED fme:i CDATA #IMPLIED >
]>
<svg xmlns="http://www.w3.org/2000/svg"  viewBox="-11.3676 -11.3676 932.143 1004.34"><g xmlns:fme="http://www.safe.com/fme" fill="none" stroke="black" stroke-width="0.113675945211761" transform="translate(0,981.606) scale(1, -1)">
<g id="test" >
<path d="M 91.6267,-3.55271e-14 a 90,90 0 0,1 -91.6267,126.113"/>
<path d="M 81.3493,4.57579 a 78.75,78.75 0 0,1 -80.1733,110.349"/>
<path d="M 71.0719,9.15157 a 67.5,67.5 0 0,1 -68.72,94.585"/>
<path d="M 60.7945,13.7274 a 56.25,56.25 0 0,1 -57.2667,78.8208"/>
<path d="M 50.5171,18.3031 a 45,45 0 0,1 -45.8133,63.0566"/>
<path d="M 40.2397,22.8789 a 33.75,33.75 0 0,1 -34.36,47.2925"/>
<path d="M 29.9623,27.4547 a 22.5,22.5 0 0,1 -22.9067,31.5283"/>
<path d="M 19.6849,32.0305 a 11.25,11.25 0 0,1 -11.4533,15.7642"/>
<path d="M 271.627,-3.55271e-14 a 90,90 0 0,1 -91.6267,126.113"/>
<path d="M 261.349,4.57579 a 78.75,78.75 0 0,1 -80.1733,110.349"/>
<path d="M 251.072,9.15157 a 67.5,67.5 0 0,1 -68.72,94.585"/>
<path d="M 240.794,13.7274 a 56.25,56.25 0 0,1 -57.2667,78.8208"/>
<path d="M 230.517,18.3031 a 45,45 0 0,1 -45.8133,63.0566"/>
<path d="M 220.24,22.8789 a 33.75,33.75 0 0,1 -34.36,47.2925"/>
<path d="M 209.962,27.4547 a 22.5,22.5 0 0,1 -22.9067,31.5283"/>
<path d="M 199.685,32.0305 a 11.25,11.25 0 0,1 -11.4533,15.7642"/>
<path d="M 451.627,-3.55271e-14 a 90,90 0 0,1 -91.6267,126.113"/>
<path d="M 441.349,4.57579 a 78.75,78.75 0 0,1 -80.1733,110.349"/>
<path d="M 431.072,9.15157 a 67.5,67.5 0 0,1 -68.72,94.585"/>
<path d="M 420.794,13.7274 a 56.25,56.25 0 0,1 -57.2667,78.8208"/>
<path d="M 410.517,18.3031 a 45,45 0 0,1 -45.8133,63.0566"/>
<path d="M 400.24,22.8789 a 33.75,33.75 0 0,1 -34.36,47.2925"/>
<path d="M 389.962,27.4547 a 22.5,22.5 0 0,1 -22.9067,31.5283"/>
<path d="M 379.685,32.0305 a 11.25,11.25 0 0,1 -11.4533,15.7642"/>
<path d="M 631.627,-3.55271e-14 a 90,90 0 0,1 -91.6267,126.113"/>
<path d="M 621.349,4.57579 a 78.75,78.75 0 0,1 -80.1733,110.349"/>
<path d="M 611.072,9.15157 a 67.5,67.5 0 0,1 -68.72,94.585"/>
<path d="M 600.794,13.7274 a 56.25,56.25 0 0,1 -57.2667,78.8208"/>
<path d="M 590.517,18.3031 a 45,45 0 0,1 -45.8133,63.0566"/>
<path d="M 580.24,22.8789 a 33.75,33.75 0 0,1 -34.36,47.2925"/>
<path d="M 569.962,27.4547 a 22.5,22.5 0 0,1 -22.9067,31.5283"/>
<path d="M 559.685,32.0305 a 11.25,11.25 0 0,1 -11.4533,15.7642"/>
<path d="M 811.627,-3.55271e-14 a 90,90 0 0,1 -91.6267,126.113"/>
<path d="M 801.349,4.57579 a 78.75,78.75 0 0,1 -80.1733,110.349"/>
<path d="M 791.072,9.15157 a 67.5,67.5 0 0,1 -68.72,94.585"/>
<path d="M 780.794,13.7274 a 56.25,56.25 0 0,1 -57.2667,78.8208"/>
<path d="M 770.517,18.3031 a 45,45 0 0,1 -45.8133,63.0566"/>
<path d="M 760.24,22.8789 a 33.75,33.75 0 0,1 -34.36,47.2925"/>
<path d="M 749.962,27.4547 a 22.5,22.5 0 0,1 -22.9067,31.5283"/>
<path d="M 739.685,32.0305 a 11.25,11.25 0 0,1 -11.4533,15.7642"/>
<path d="M 181.627,45 a 90,90 0 0,1 -91.6267,126.113"/>
<path d="M 171.349,49.5758 a 78.75,78.75 0 0,1 -80.1733,110.349"/>
<path d="M 161.072,54.1516 a 67.5,67.5 0 0,1 -68.72,94.585"/>
<path d="M 150.794,58.7274 a 56.25,56.25 0 0,1 -57.2667,78.8208"/>
<path d="M 140.517,63.3031 a 45,45 0 0,1 -45.8133,63.0566"/>
<path d="M 130.24,67.8789 a 33.75,33.75 0 0,1 -34.36,47.2925"/>
<path d="M 119.962,72.4547 a 22.5,22.5 0 0,1 -22.9067,31.5283"/>
<path d="M 109.685,77.0305 a 11.25,11.25 0 0,1 -11.4533,15.7642"/>
<path d="M 361.627,45 a 90,90 0 0,1 -91.6267,126.113"/>
<path d="M 351.349,49.5758 a 78.75,78.75 0 0,1 -80.1733,110.349"/>
<path d="M 341.072,54.1516 a 67.5,67.5 0 0,1 -68.72,94.585"/>
<path d="M 330.794,58.7274 a 56.25,56.25 0 0,1 -57.2667,78.8208"/>
<path d="M 320.517,63.3031 a 45,45 0 0,1 -45.8133,63.0566"/>
<path d="M 310.24,67.8789 a 33.75,33.75 0 0,1 -34.36,47.2925"/>
<path d="M 299.962,72.4547 a 22.5,22.5 0 0,1 -22.9067,31.5283"/>
<path d="M 289.685,77.0305 a 11.25,11.25 0 0,1 -11.4533,15.7642"/>
<path d="M 541.627,45 a 90,90 0 0,1 -91.6267,126.113"/>
<path d="M 531.349,49.5758 a 78.75,78.75 0 0,1 -80.1733,110.349"/>
<path d="M 521.072,54.1516 a 67.5,67.5 0 0,1 -68.72,94.585"/>
<path d="M 510.794,58.7274 a 56.25,56.25 0 0,1 -57.2667,78.8208"/>
<path d="M 500.517,63.3031 a 45,45 0 0,1 -45.8133,63.0566"/>
<path d="M 490.24,67.8789 a 33.75,33.75 0 0,1 -34.36,47.2925"/>
<path d="M 479.962,72.4547 a 22.5,22.5 0 0,1 -22.9067,31.5283"/>
<path d="M 469.685,77.0305 a 11.25,11.25 0 0,1 -11.4533,15.7642"/>
<path d="M 721.627,45 a 90,90 0 0,1 -91.6267,126.113"/>
<path d="M 711.349,49.5758 a 78.75,78.75 0 0,1 -80.1733,110.349"/>
<path d="M 701.072,54.1516 a 67.5,67.5 0 0,1 -68.72,94.585"/>
<path d="M 690.794,58.7274 a 56.25,56.25 0 0,1 -57.2667,78.8208"/>
<path d="M 680.517,63.3031 a 45,45 0 0,1 -45.8133,63.0566"/>
<path d="M 670.24,67.8789 a 33.75,33.75 0 0,1 -34.36,47.2925"/>
<path d="M 659.962,72.4547 a 22.5,22.5 0 0,1 -22.9067,31.5283"/>
<path d="M 649.685,77.0305 a 11.25,11.25 0 0,1 -11.4533,15.7642"/>
<path d="M 901.627,45 a 90,90 0 0,1 -91.6267,126.113"/>
<path d="M 891.349,49.5758 a 78.75,78.75 0 0,1 -80.1733,110.349"/>
<path d="M 881.072,54.1516 a 67.5,67.5 0 0,1 -68.72,94.585"/>
<path d="M 870.794,58.7274 a 56.25,56.25 0 0,1 -57.2667,78.8208"/>
<path d="M 860.517,63.3031 a 45,45 0 0,1 -45.8133,63.0566"/>
<path d="M 850.24,67.8789 a 33.75,33.75 0 0,1 -34.36,47.2925"/>
<path d="M 839.962,72.4547 a 22.5,22.5 0 0,1 -22.9067,31.5283"/>
<path d="M 829.685,77.0305 a 11.25,11.25 0 0,1 -11.4533,15.7642"/>
<path d="M 91.6267,90 a 90,90 0 0,1 -91.6267,126.113"/>
<path d="M 81.3493,94.5758 a 78.75,78.75 0 0,1 -80.1733,110.349"/>
<path d="M 71.0719,99.1516 a 67.5,67.5 0 0,1 -68.72,94.585"/>
<path d="M 60.7945,103.727 a 56.25,56.25 0 0,1 -57.2667,78.8208"/>
<path d="M 50.5171,108.303 a 45,45 0 0,1 -45.8133,63.0566"/>
<path d="M 40.2397,112.879 a 33.75,33.75 0 0,1 -34.36,47.2925"/>
<path d="M 29.9623,117.455 a 22.5,22.5 0 0,1 -22.9067,31.5283"/>
<path d="M 19.6849,122.031 a 11.25,11.25 0 0,1 -11.4533,15.7642"/>
<path d="M 271.627,90 a 90,90 0 0,1 -91.6267,126.113"/>
<path d="M 261.349,94.5758 a 78.75,78.75 0 0,1 -80.1733,110.349"/>
<path d="M 251.072,99.1516 a 67.5,67.5 0 0,1 -68.72,94.585"/>
<path d="M 240.794,103.727 a 56.25,56.25 0 0,1 -57.2667,78.8208"/>
<path d="M 230.517,108.303 a 45,45 0 0,1 -45.8133,63.0566"/>
<path d="M 220.24,112.879 a 33.75,33.75 0 0,1 -34.36,47.2925"/>
<path d="M 209.962,117.455 a 22.5,22.5 0 0,1 -22.9067,31.5283"/>
<path d="M 199.685,122.031 a 11.25,11.25 0 0,1 -11.4533,15.7642"/>
<path d="M 451.627,90 a 90,90 0 0,1 -91.6267,126.113"/>
<path d="M 441.349,94.5758 a 78.75,78.75 0 0,1 -80.1733,110.349"/>
<path d="M 431.072,99.1516 a 67.5,67.5 0 0,1 -68.72,94.585"/>
<path d="M 420.794,103.727 a 56.25,56.25 0 0,1 -57.2667,78.8208"/>
<path d="M 410.517,108.303 a 45,45 0 0,1 -45.8133,63.0566"/>
<path d="M 400.24,112.879 a 33.75,33.75 0 0,1 -34.36,47.2925"/>
<path d="M 389.962,117.455 a 22.5,22.5 0 0,1 -22.9067,31.5283"/>
<path d="M 379.685,122.031 a 11.25,11.25 0 0,1 -11.4533,15.7642"/>
<path d="M 631.627,90 a 90,90 0 0,1 -91.6267,126.113"/>
<path d="M 621.349,94.5758 a 78.75,78.75 0 0,1 -80.1733,110.349"/>
<path d="M 611.072,99.1516 a 67.5,67.5 0 0,1 -68.72,94.585"/>
<path d="M 600.794,103.727 a 56.25,56.25 0 0,1 -57.2667,78.8208"/>
<path d="M 590.517,108.303 a 45,45 0 0,1 -45.8133,63.0566"/>
<path d="M 580.24,112.879 a 33.75,33.75 0 0,1 -34.36,47.2925"/>
<path d="M 569.962,117.455 a 22.5,22.5 0 0,1 -22.9067,31.5283"/>
<path d="M 559.685,122.031 a 11.25,11.25 0 0,1 -11.4533,15.7642"/>
<path d="M 811.627,90 a 90,90 0 0,1 -91.6267,126.113"/>
<path d="M 801.349,94.5758 a 78.75,78.75 0 0,1 -80.1733,110.349"/>
<path d="M 791.072,99.1516 a 67.5,67.5 0 0,1 -68.72,94.585"/>
<path d="M 780.794,103.727 a 56.25,56.25 0 0,1 -57.2667,78.8208"/>
<path d="M 770.517,108.303 a 45,45 0 0,1 -45.8133,63.0566"/>
<path d="M 760.24,112.879 a 33.75,33.75 0 0,1 -34.36,47.2925"/>
<path d="M 749.962,117.455 a 22.5,22.5 0 0,1 -22.9067,31.5283"/>
<path d="M 739.685,122.031 a 11.25,11.25 0 0,1 -11.4533,15.7642"/>
<path d="M 181.627,135 a 90,90 0 0,1 -91.6267,126.113"/>
<path d="M 171.349,139.576 a 78.75,78.75 0 0,1 -80.1733,110.349"/>
<path d="M 161.072,144.152 a 67.5,67.5 0 0,1 -68.72,94.585"/>
<path d="M 150.794,148.727 a 56.25,56.25 0 0,1 -57.2667,78.8208"/>
<path d="M 140.517,153.303 a 45,45 0 0,1 -45.8133,63.0566"/>
<path d="M 130.24,157.879 a 33.75,33.75 0 0,1 -34.36,47.2925"/>
<path d="M 119.962,162.455 a 22.5,22.5 0 0,1 -22.9067,31.5283"/>
<path d="M 109.685,167.031 a 11.25,11.25 0 0,1 -11.4533,15.7642"/>
<path d="M 361.627,135 a 90,90 0 0,1 -91.6267,126.113"/>
<path d="M 351.349,139.576 a 78.75,78.75 0 0,1 -80.1733,110.349"/>
<path d="M 341.072,144.152 a 67.5,67.5 0 0,1 -68.72,94.585"/>
<path d="M 330.794,148.727 a 56.25,56.25 0 0,1 -57.2667,78.8208"/>
<path d="M 320.517,153.303 a 45,45 0 0,1 -45.8133,63.0566"/>
<path d="M 310.24,157.879 a 33.75,33.75 0 0,1 -34.36,47.2925"/>
<path d="M 299.962,162.455 a 22.5,22.5 0 0,1 -22.9067,31.5283"/>
<path d="M 289.685,167.031 a 11.25,11.25 0 0,1 -11.4533,15.7642"/>
<path d="M 541.627,135 a 90,90 0 0,1 -91.6267,126.113"/>
<path d="M 531.349,139.576 a 78.75,78.75 0 0,1 -80.1733,110.349"/>
<path d="M 521.072,144.152 a 67.5,67.5 0 0,1 -68.72,94.585"/>
<path d="M 510.794,148.727 a 56.25,56.25 0 0,1 -57.2667,78.8208"/>
<path d="M 500.517,153.303 a 45,45 0 0,1 -45.8133,63.0566"/>
<path d="M 490.24,157.879 a 33.75,33.75 0 0,1 -34.36,47.2925"/>
<path d="M 479.962,162.455 a 22.5,22.5 0 0,1 -22.9067,31.5283"/>
<path d="M 469.685,167.031 a 11.25,11.25 0 0,1 -11.4533,15.7642"/>
<path d="M 721.627,135 a 90,90 0 0,1 -91.6267,126.113"/>
<path d="M 711.349,139.576 a 78.75,78.75 0 0,1 -80.1733,110.349"/>
<path d="M 701.072,144.152 a 67.5,67.5 0 0,1 -68.72,94.585"/>
<path d="M 690.794,148.727 a 56.25,56.25 0 0,1 -57.2667,78.8208"/>
<path d="M 680.517,153.303 a 45,45 0 0,1 -45.8133,63.0566"/>
<path d="M 670.24,157.879 a 33.75,33.75 0 0,1 -34.36,47.2925"/>
<path d="M 659.962,162.455 a 22.5,22.5 0 0,1 -22.9067,31.5283"/>
<path d="M 649.685,167.031 a 11.25,11.25 0 0,1 -11.4533,15.7642"/>
<path d="M 901.627,135 a 90,90 0 0,1 -91.6267,126.113"/>
<path d="M 891.349,139.576 a 78.75,78.75 0 0,1 -80.1733,110.349"/>
<path d="M 881.072,144.152 a 67.5,67.5 0 0,1 -68.72,94.585"/>
<path d="M 870.794,148.727 a 56.25,56.25 0 0,1 -57.2667,78.8208"/>
<path d="M 860.517,153.303 a 45,45 0 0,1 -45.8133,63.0566"/>
<path d="M 850.24,157.879 a 33.75,33.75 0 0,1 -34.36,47.2925"/>
<path d="M 839.962,162.455 a 22.5,22.5 0 0,1 -22.9067,31.5283"/>
<path d="M 829.685,167.031 a 11.25,11.25 0 0,1 -11.4533,15.7642"/>
<path d="M 91.6267,180 a 90,90 0 0,1 -91.6267,126.113"/>
<path d="M 81.3493,184.576 a 78.75,78.75 0 0,1 -80.1733,110.349"/>
<path d="M 71.0719,189.152 a 67.5,67.5 0 0,1 -68.72,94.585"/>
<path d="M 60.7945,193.727 a 56.25,56.25 0 0,1 -57.2667,78.8208"/>
<path d="M 50.5171,198.303 a 45,45 0 0,1 -45.8133,63.0566"/>
<path d="M 40.2397,202.879 a 33.75,33.75 0 0,1 -34.36,47.2925"/>
<path d="M 29.9623,207.455 a 22.5,22.5 0 0,1 -22.9067,31.5283"/>
<path d="M 19.6849,212.031 a 11.25,11.25 0 0,1 -11.4533,15.7642"/>
<path d="M 271.627,180 a 90,90 0 0,1 -91.6267,126.113"/>
<path d="M 261.349,184.576 a 78.75,78.75 0 0,1 -80.1733,110.349"/>
<path d="M 251.072,189.152 a 67.5,67.5 0 0,1 -68.72,94.585"/>
<path d="M 240.794,193.727 a 56.25,56.25 0 0,1 -57.2667,78.8208"/>
<path d="M 230.517,198.303 a 45,45 0 0,1 -45.8133,63.0566"/>
<path d="M 220.24,202.879 a 33.75,33.75 0 0,1 -34.36,47.2925"/>
<path d="M 209.962,207.455 a 22.5,22.5 0 0,1 -22.9067,31.5283"/>
<path d="M 199.685,212.031 a 11.25,11.25 0 0,1 -11.4533,15.7642"/>
<path d="M 451.627,180 a 90,90 0 0,1 -91.6267,126.113"/>
<path d="M 441.349,184.576 a 78.75,78.75 0 0,1 -80.1733,110.349"/>
<path d="M 431.072,189.152 a 67.5,67.5 0 0,1 -68.72,94.585"/>
<path d="M 420.794,193.727 a 56.25,56.25 0 0,1 -57.2667,78.8208"/>
<path d="M 410.517,198.303 a 45,45 0 0,1 -45.8133,63.0566"/>
<path d="M 400.24,202.879 a 33.75,33.75 0 0,1 -34.36,47.2925"/>
<path d="M 389.962,207.455 a 22.5,22.5 0 0,1 -22.9067,31.5283"/>
<path d="M 379.685,212.031 a 11.25,11.25 0 0,1 -11.4533,15.7642"/>
<path d="M 631.627,180 a 90,90 0 0,1 -91.6267,126.113"/>
<path d="M 621.349,184.576 a 78.75,78.75 0 0,1 -80.1733,110.349"/>
<path d="M 611.072,189.152 a 67.5,67.5 0 0,1 -68.72,94.585"/>
<path d="M 600.794,193.727 a 56.25,56.25 0 0,1 -57.2667,78.8208"/>
<path d="M 590.517,198.303 a 45,45 0 0,1 -45.8133,63.0566"/>
<path d="M 580.24,202.879 a 33.75,33.75 0 0,1 -34.36,47.2925"/>
<path d="M 569.962,207.455 a 22.5,22.5 0 0,1 -22.9067,31.5283"/>
<path d="M 559.685,212.031 a 11.25,11.25 0 0,1 -11.4533,15.7642"/>
<path d="M 811.627,180 a 90,90 0 0,1 -91.6267,126.113"/>
<path d="M 801.349,184.576 a 78.75,78.75 0 0,1 -80.1733,110.349"/>
<path d="M 791.072,189.152 a 67.5,67.5 0 0,1 -68.72,94.585"/>
<path d="M 780.794,193.727 a 56.25,56.25 0 0,1 -57.2667,78.8208"/>
<path d="M 770.517,198.303 a 45,45 0 0,1 -45.8133,63.0566"/>
<path d="M 760.24,202.879 a 33.75,33.75 0 0,1 -34.36,47.2925"/>
<path d="M 749.962,207.455 a 22.5,22.5 0 0,1 -22.9067,31.5283"/>
<path d="M 739.685,212.031 a 11.25,11.25 0 0,1 -11.4533,15.7642"/>
<path d="M 181.627,225 a 90,90 0 0,1 -91.6267,126.113"/>
<path d="M 171.349,229.576 a 78.75,78.75 0 0,1 -80.1733,110.349"/>
<path d="M 161.072,234.152 a 67.5,67.5 0 0,1 -68.72,94.585"/>
<path d="M 150.794,238.727 a 56.25,56.25 0 0,1 -57.2667,78.8208"/>
<path d="M 140.517,243.303 a 45,45 0 0,1 -45.8133,63.0566"/>
<path d="M 130.24,247.879 a 33.75,33.75 0 0,1 -34.36,47.2925"/>
<path d="M 119.962,252.455 a 22.5,22.5 0 0,1 -22.9067,31.5283"/>
<path d="M 109.685,257.031 a 11.25,11.25 0 0,1 -11.4533,15.7642"/>
<path d="M 361.627,225 a 90,90 0 0,1 -91.6267,126.113"/>
<path d="M 351.349,229.576 a 78.75,78.75 0 0,1 -80.1733,110.349"/>
<path d="M 341.072,234.152 a 67.5,67.5 0 0,1 -68.72,94.585"/>
<path d="M 330.794,238.727 a 56.25,56.25 0 0,1 -57.2667,78.8208"/>
<path d="M 320.517,243.303 a 45,45 0 0,1 -45.8133,63.0566"/>
<path d="M 310.24,247.879 a 33.75,33.75 0 0,1 -34.36,47.2925"/>
<path d="M 299.962,252.455 a 22.5,22.5 0 0,1 -22.9067,31.5283"/>
<path d="M 289.685,257.031 a 11.25,11.25 0 0,1 -11.4533,15.7642"/>
<path d="M 541.627,225 a 90,90 0 0,1 -91.6267,126.113"/>
<path d="M 531.349,229.576 a 78.75,78.75 0 0,1 -80.1733,110.349"/>
<path d="M 521.072,234.152 a 67.5,67.5 0 0,1 -68.72,94.585"/>
<path d="M 510.794,238.727 a 56.25,56.25 0 0,1 -57.2667,78.8208"/>
<path d="M 500.517,243.303 a 45,45 0 0,1 -45.8133,63.0566"/>
<path d="M 490.24,247.879 a 33.75,33.75 0 0,1 -34.36,47.2925"/>
<path d="M 479.962,252.455 a 22.5,22.5 0 0,1 -22.9067,31.5283"/>
<path d="M 469.685,257.031 a 11.25,11.25 0 0,1 -11.4533,15.7642"/>
<path d="M 721.627,225 a 90,90 0 0,1 -91.6267,126.113"/>
<path d="M 711.349,229.576 a 78.75,78.75 0 0,1 -80.1733,110.349"/>
<path d="M 701.072,234.152 a 67.5,67.5 0 0,1 -68.72,94.585"/>
<path d="M 690.794,238.727 a 56.25,56.25 0 0,1 -57.2667,78.8208"/>
<path d="M 680.517,243.303 a 45,45 0 0,1 -45.8133,63.0566"/>
<path d="M 670.24,247.879 a 33.75,33.75 0 0,1 -34.36,47.2925"/>
<path d="M 659.962,252.455 a 22.5,22.5 0 0,1 -22.9067,31.5283"/>
<path d="M 649.685,257.031 a 11.25,11.25 0 0,1 -11.4533,15.7642"/>
<path d="M 901.627,225 a 90,90 0 0,1 -91.6267,126.113"/>
<path d="M 891.349,229.576 a 78.75,78.75 0 0,1 -80.1733,110.349"/>
<path d="M 881.072,234.152 a 67.5,67.5 0 0,1 -68.72,94.585"/>
<path d="M 870.794,238.727 a 56.25,56.25 0 0,1 -57.2667,78.8208"/>
<path d="M 860.517,243.303 a 45,45 0 0,1 -45.8133,63.0566"/>
<path d="M 850.24,247.879 a 33.75,33.75 0 0,1 -34.36,47.2925"/>
<path d="M 839.962,252.455 a 22.5,22.5 0 0,1 -22.9067,31.5283"/>
<path d="M 829.685,257.031 a 11.25,11.25 0 0,1 -11.4533,15.7642"/>
<path d="M 91.6267,270 a 90,90 0 0,1 -91.6267,126.113"/>
<path d="M 81.3493,274.576 a 78.75,78.75 0 0,1 -80.1733,110.349"/>
<path d="M 71.0719,279.152 a 67.5,67.5 0 0,1 -68.72,94.585"/>
<path d="M 60.7945,283.727 a 56.25,56.25 0 0,1 -57.2667,78.8208"/>
<path d="M 50.5171,288.303 a 45,45 0 0,1 -45.8133,63.0566"/>
<path d="M 40.2397,292.879 a 33.75,33.75 0 0,1 -34.36,47.2925"/>
<path d="M 29.9623,297.455 a 22.5,22.5 0 0,1 -22.9067,31.5283"/>
<path d="M 19.6849,302.031 a 11.25,11.25 0 0,1 -11.4533,15.7642"/>
<path d="M 271.627,270 a 90,90 0 0,1 -91.6267,126.113"/>
<path d="M 261.349,274.576 a 78.75,78.75 0 0,1 -80.1733,110.349"/>
<path d="M 251.072,279.152 a 67.5,67.5 0 0,1 -68.72,94.585"/>
<path d="M 240.794,283.727 a 56.25,56.25 0 0,1 -57.2667,78.8208"/>
<path d="M 230.517,288.303 a 45,45 0 0,1 -45.8133,63.0566"/>
<path d="M 220.24,292.879 a 33.75,33.75 0 0,1 -34.36,47.2925"/>
<path d="M 209.962,297.455 a 22.5,22.5 0 0,1 -22.9067,31.5283"/>
<path d="M 199.685,302.031 a 11.25,11.25 0 0,1 -11.4533,15.7642"/>
<path d="M 451.627,270 a 90,90 0 0,1 -91.6267,126.113"/>
<path d="M 441.349,274.576 a 78.75,78.75 0 0,1 -80.1733,110.349"/>
<path d="M 431.072,279.152 a 67.5,67.5 0 0,1 -68.72,94.585"/>
<path d="M 420.794,283.727 a 56.25,56.25 0 0,1 -57.2667,78.8208"/>
<path d="M 410.517,288.303 a 45,45 0 0,1 -45.8133,63.0566"/>
<path d="M 400.24,292.879 a 33.75,33.75 0 0,1 -34.36,47.2925"/>
<path d="M 389.962,297.455 a 22.5,22.5 0 0,1 -22.9067,31.5283"/>
<path d="M 379.685,302.031 a 11.25,11.25 0 0,1 -11.4533,15.7642"/>
<path d="M 631.627,270 a 90,90 0 0,1 -91.6267,126.113"/>
<path d="M 621.349,274.576 a 78.75,78.75 0 0,1 -80.1733,110.349"/>
<path d="M 611.072,279.152 a 67.5,67.5 0 0,1 -68.72,94.585"/>
<path d="M 600.794,283.727 a 56.25,56.25 0 0,1 -57.2667,78.8208"/>
<path d="M 590.517,288.303 a 45,45 0 0,1 -45.8133,63.0566"/>
<path d="M 580.24,292.879 a 33.75,33.75 0 0,1 -34.36,47.2925"/>
<path d="M 569.962,297.455 a 22.5,22.5 0 0,1 -22.9067,31.5283"/>
<path d="M 559.685,302.031 a 11.25,11.25 0 0,1 -11.4533,15.7642"/>
<path d="M 811.627,270 a 90,90 0 0,1 -91.6267,126.113"/>
<path d="M 801.349,274.576 a 78.75,78.75 0 0,1 -80.1733,110.349"/>
<path d="M 791.072,279.152 a 67.5,67.5 0 0,1 -68.72,94.585"/>
<path d="M 780.794,283.727 a 56.25,56.25 0 0,1 -57.2667,78.8208"/>
<path d="M 770.517,288.303 a 45,45 0 0,1 -45.8133,63.0566"/>
<path d="M 760.24,292.879 a 33.75,33.75 0 0,1 -34.36,47.2925"/>
<path d="M 749.962,297.455 a 22.5,22.5 0 0,1 -22.9067,31.5283"/>
<path d="M 739.685,302.031 a 11.25,11.25 0 0,1 -11.4533,15.7642"/>
<path d="M 181.627,315 a 90,90 0 0,1 -91.6267,126.113"/>
<path d="M 171.349,319.576 a 78.75,78.75 0 0,1 -80.1733,110.349"/>
<path d="M 161.072,324.152 a 67.5,67.5 0 0,1 -68.72,94.585"/>
<path d="M 150.794,328.727 a 56.25,56.25 0 0,1 -57.2667,78.8208"/>
<path d="M 140.517,333.303 a 45,45 0 0,1 -45.8133,63.0566"/>
<path d="M 130.24,337.879 a 33.75,33.75 0 0,1 -34.36,47.2925"/>
<path d="M 119.962,342.455 a 22.5,22.5 0 0,1 -22.9067,31.5283"/>
<path d="M 109.685,347.031 a 11.25,11.25 0 0,1 -11.4533,15.7642"/>
<path d="M 361.627,315 a 90,90 0 0,1 -91.6267,126.113"/>
<path d="M 351.349,319.576 a 78.75,78.75 0 0,1 -80.1733,110.349"/>
<path d="M 341.072,324.152 a 67.5,67.5 0 0,1 -68.72,94.585"/>
<path d="M 330.794,328.727 a 56.25,56.25 0 0,1 -57.2667,78.8208"/>
<path d="M 320.517,333.303 a 45,45 0 0,1 -45.8133,63.0566"/>
<path d="M 310.24,337.879 a 33.75,33.75 0 0,1 -34.36,47.2925"/>
<path d="M 299.962,342.455 a 22.5,22.5 0 0,1 -22.9067,31.5283"/>
<path d="M 289.685,347.031 a 11.25,11.25 0 0,1 -11.4533,15.7642"/>
<path d="M 541.627,315 a 90,90 0 0,1 -91.6267,126.113"/>
<path d="M 531.349,319.576 a 78.75,78.75 0 0,1 -80.1733,110.349"/>
<path d="M 521.072,324.152 a 67.5,67.5 0 0,1 -68.72,94.585"/>
<path d="M 510.794,328.727 a 56.25,56.25 0 0,1 -57.2667,78.8208"/>
<path d="M 500.517,333.303 a 45,45 0 0,1 -45.8133,63.0566"/>
<path d="M 490.24,337.879 a 33.75,33.75 0 0,1 -34.36,47.2925"/>
<path d="M 479.962,342.455 a 22.5,22.5 0 0,1 -22.9067,31.5283"/>
<path d="M 469.685,347.031 a 11.25,11.25 0 0,1 -11.4533,15.7642"/>
<path d="M 721.627,315 a 90,90 0 0,1 -91.6267,126.113"/>
<path d="M 711.349,319.576 a 78.75,78.75 0 0,1 -80.1733,110.349"/>
<path d="M 701.072,324.152 a 67.5,67.5 0 0,1 -68.72,94.585"/>
<path d="M 690.794,328.727 a 56.25,56.25 0 0,1 -57.2667,78.8208"/>
<path d="M 680.517,333.303 a 45,45 0 0,1 -45.8133,63.0566"/>
<path d="M 670.24,337.879 a 33.75,33.75 0 0,1 -34.36,47.2925"/>
<path d="M 659.962,342.455 a 22.5,22.5 0 0,1 -22.9067,31.5283"/>
<path d="M 649.685,347.031 a 11.25,11.25 0 0,1 -11.4533,15.7642"/>
<path d="M 901.627,315 a 90,90 0 0,1 -91.6267,126.113"/>
<path d="M 891.349,319.576 a 78.75,78.75 0 0,1 -80.1733,110.349"/>
<path d="M 881.072,324.152 a 67.5,67.5 0 0,1 -68.72,94.585"/>
<path d="M 870.794,328.727 a 56.25,56.25 0 0,1 -57.2667,78.8208"/>
<path d="M 860.517,333.303 a 45,45 0 0,1 -45.8133,63.0566"/>
<path d="M 850.24,337.879 a 33.75,33.75 0 0,1 -34.36,47.2925"/>
<path d="M 839.962,342.455 a 22.5,22.5 0 0,1 -22.9067,31.5283"/>
<path d="M 829.685,347.031 a 11.25,11.25 0 0,1 -11.4533,15.7642"/>
<path d="M 91.6267,360 a 90,90 0 0,1 -91.6267,126.113"/>
<path d="M 81.3493,364.576 a 78.75,78.75 0 0,1 -80.1733,110.349"/>
<path d="M 71.0719,369.152 a 67.5,67.5 0 0,1 -68.72,94.585"/>
<path d="M 60.7945,373.727 a 56.25,56.25 0 0,1 -57.2667,78.8208"/>
<path d="M 50.5171,378.303 a 45,45 0 0,1 -45.8133,63.0566"/>
<path d="M 40.2397,382.879 a 33.75,33.75 0 0,1 -34.36,47.2925"/>
<path d="M 29.9623,387.455 a 22.5,22.5 0 0,1 -22.9067,31.5283"/>
<path d="M 19.6849,392.031 a 11.25,11.25 0 0,1 -11.4533,15.7642"/>
<path d="M 271.627,360 a 90,90 0 0,1 -91.6267,126.113"/>
<path d="M 261.349,364.576 a 78.75,78.75 0 0,1 -80.1733,110.349"/>
<path d="M 251.072,369.152 a 67.5,67.5 0 0,1 -68.72,94.585"/>
<path d="M 240.794,373.727 a 56.25,56.25 0 0,1 -57.2667,78.8208"/>
<path d="M 230.517,378.303 a 45,45 0 0,1 -45.8133,63.0566"/>
<path d="M 220.24,382.879 a 33.75,33.75 0 0,1 -34.36,47.2925"/>
<path d="M 209.962,387.455 a 22.5,22.5 0 0,1 -22.9067,31.5283"/>
<path d="M 199.685,392.031 a 11.25,11.25 0 0,1 -11.4533,15.7642"/>
<path d="M 451.627,360 a 90,90 0 0,1 -91.6267,126.113"/>
<path d="M 441.349,364.576 a 78.75,78.75 0 0,1 -80.1733,110.349"/>
<path d="M 431.072,369.152 a 67.5,67.5 0 0,1 -68.72,94.585"/>
<path d="M 420.794,373.727 a 56.25,56.25 0 0,1 -57.2667,78.8208"/>
<path d="M 410.517,378.303 a 45,45 0 0,1 -45.8133,63.0566"/>
<path d="M 400.24,382.879 a 33.75,33.75 0 0,1 -34.36,47.2925"/>
<path d="M 389.962,387.455 a 22.5,22.5 0 0,1 -22.9067,31.5283"/>
<path d="M 379.685,392.031 a 11.25,11.25 0 0,1 -11.4533,15.7642"/>
<path d="M 631.627,360 a 90,90 0 0,1 -91.6267,126.113"/>
<path d="M 621.349,364.576 a 78.75,78.75 0 0,1 -80.1733,110.349"/>
<path d="M 611.072,369.152 a 67.5,67.5 0 0,1 -68.72,94.585"/>
<path d="M 600.794,373.727 a 56.25,56.25 0 0,1 -57.2667,78.8208"/>
<path d="M 590.517,378.303 a 45,45 0 0,1 -45.8133,63.0566"/>
<path d="M 580.24,382.879 a 33.75,33.75 0 0,1 -34.36,47.2925"/>
<path d="M 569.962,387.455 a 22.5,22.5 0 0,1 -22.9067,31.5283"/>
<path d="M 559.685,392.031 a 11.25,11.25 0 0,1 -11.4533,15.7642"/>
<path d="M 811.627,360 a 90,90 0 0,1 -91.6267,126.113"/>
<path d="M 801.349,364.576 a 78.75,78.75 0 0,1 -80.1733,110.349"/>
<path d="M 791.072,369.152 a 67.5,67.5 0 0,1 -68.72,94.585"/>
<path d="M 780.794,373.727 a 56.25,56.25 0 0,1 -57.2667,78.8208"/>
<path d="M 770.517,378.303 a 45,45 0 0,1 -45.8133,63.0566"/>
<path d="M 760.24,382.879 a 33.75,33.75 0 0,1 -34.36,47.2925"/>
<path d="M 749.962,387.455 a 22.5,22.5 0 0,1 -22.9067,31.5283"/>
<path d="M 739.685,392.031 a 11.25,11.25 0 0,1 -11.4533,15.7642"/>
<path d="M 181.627,405 a 90,90 0 0,1 -91.6267,126.113"/>
<path d="M 171.349,409.576 a 78.75,78.75 0 0,1 -80.1733,110.349"/>
<path d="M 161.072,414.152 a 67.5,67.5 0 0,1 -68.72,94.585"/>
<path d="M 150.794,418.727 a 56.25,56.25 0 0,1 -57.2667,78.8208"/>
<path d="M 140.517,423.303 a 45,45 0 0,1 -45.8133,63.0566"/>
<path d="M 130.24,427.879 a 33.75,33.75 0 0,1 -34.36,47.2925"/>
<path d="M 119.962,432.455 a 22.5,22.5 0 0,1 -22.9067,31.5283"/>
<path d="M 109.685,437.031 a 11.25,11.25 0 0,1 -11.4533,15.7642"/>
<path d="M 361.627,405 a 90,90 0 0,1 -91.6267,126.113"/>
<path d="M 351.349,409.576 a 78.75,78.75 0 0,1 -80.1733,110.349"/>
<path d="M 341.072,414.152 a 67.5,67.5 0 0,1 -68.72,94.585"/>
<path d="M 330.794,418.727 a 56.25,56.25 0 0,1 -57.2667,78.8208"/>
<path d="M 320.517,423.303 a 45,45 0 0,1 -45.8133,63.0566"/>
<path d="M 310.24,427.879 a 33.75,33.75 0 0,1 -34.36,47.2925"/>
<path d="M 299.962,432.455 a 22.5,22.5 0 0,1 -22.9067,31.5283"/>
<path d="M 289.685,437.031 a 11.25,11.25 0 0,1 -11.4533,15.7642"/>
<path d="M 541.627,405 a 90,90 0 0,1 -91.6267,126.113"/>
<path d="M 531.349,409.576 a 78.75,78.75 0 0,1 -80.1733,110.349"/>
<path d="M 521.072,414.152 a 67.5,67.5 0 0,1 -68.72,94.585"/>
<path d="M 510.794,418.727 a 56.25,56.25 0 0,1 -57.2667,78.8208"/>
<path d="M 500.517,423.303 a 45,45 0 0,1 -45.8133,63.0566"/>
<path d="M 490.24,427.879 a 33.75,33.75 0 0,1 -34.36,47.2925"/>
<path d="M 479.962,432.455 a 22.5,22.5 0 0,1 -22.9067,31.5283"/>
<path d="M 469.685,437.031 a 11.25,11.25 0 0,1 -11.4533,15.7642"/>
<path d="M 721.627,405 a 90,90 0 0,1 -91.6267,126.113"/>
<path d="M 711.349,409.576 a 78.75,78.75 0 0,1 -80.1733,110.349"/>
<path d="M 701.072,414.152 a 67.5,67.5 0 0,1 -68.72,94.585"/>
<path d="M 690.794,418.727 a 56.25,56.25 0 0,1 -57.2667,78.8208"/>
<path d="M 680.517,423.303 a 45,45 0 0,1 -45.8133,63.0566"/>
<path d="M 670.24,427.879 a 33.75,33.75 0 0,1 -34.36,47.2925"/>
<path d="M 659.962,432.455 a 22.5,22.5 0 0,1 -22.9067,31.5283"/>
<path d="M 649.685,437.031 a 11.25,11.25 0 0,1 -11.4533,15.7642"/>
<path d="M 901.627,405 a 90,90 0 0,1 -91.6267,126.113"/>
<path d="M 891.349,409.576 a 78.75,78.75 0 0,1 -80.1733,110.349"/>
<path d="M 881.072,414.152 a 67.5,67.5 0 0,1 -68.72,94.585"/>
<path d="M 870.794,418.727 a 56.25,56.25 0 0,1 -57.2667,78.8208"/>
<path d="M 860.517,423.303 a 45,45 0 0,1 -45.8133,63.0566"/>
<path d="M 850.24,427.879 a 33.75,33.75 0 0,1 -34.36,47.2925"/>
<path d="M 839.962,432.455 a 22.5,22.5 0 0,1 -22.9067,31.5283"/>
<path d="M 829.685,437.031 a 11.25,11.25 0 0,1 -11.4533,15.7642"/>
<path d="M 91.6267,450 a 90,90 0 0,1 -91.6267,126.113"/>
<path d="M 81.3493,454.576 a 78.75,78.75 0 0,1 -80.1733,110.349"/>
<path d="M 71.0719,459.152 a 67.5,67.5 0 0,1 -68.72,94.585"/>
<path d="M 60.7945,463.727 a 56.25,56.25 0 0,1 -57.2667,78.8208"/>
<path d="M 50.5171,468.303 a 45,45 0 0,1 -45.8133,63.0566"/>
<path d="M 40.2397,472.879 a 33.75,33.75 0 0,1 -34.36,47.2925"/>
<path d="M 29.9623,477.455 a 22.5,22.5 0 0,1 -22.9067,31.5283"/>
<path d="M 19.6849,482.031 a 11.25,11.25 0 0,1 -11.4533,15.7642"/>
<path d="M 271.627,450 a 90,90 0 0,1 -91.6267,126.113"/>
<path d="M 261.349,454.576 a 78.75,78.75 0 0,1 -80.1733,110.349"/>
<path d="M 251.072,459.152 a 67.5,67.5 0 0,1 -68.72,94.585"/>
<path d="M 240.794,463.727 a 56.25,56.25 0 0,1 -57.2667,78.8208"/>
<path d="M 230.517,468.303 a 45,45 0 0,1 -45.8133,63.0566"/>
<path d="M 220.24,472.879 a 33.75,33.75 0 0,1 -34.36,47.2925"/>
<path d="M 209.962,477.455 a 22.5,22.5 0 0,1 -22.9067,31.5283"/>
<path d="M 199.685,482.031 a 11.25,11.25 0 0,1 -11.4533,15.7642"/>
<path d="M 451.627,450 a 90,90 0 0,1 -91.6267,126.113"/>
<path d="M 441.349,454.576 a 78.75,78.75 0 0,1 -80.1733,110.349"/>
<path d="M 431.072,459.152 a 67.5,67.5 0 0,1 -68.72,94.585"/>
<path d="M 420.794,463.727 a 56.25,56.25 0 0,1 -57.2667,78.8208"/>
<path d="M 410.517,468.303 a 45,45 0 0,1 -45.8133,63.0566"/>
<path d="M 400.24,472.879 a 33.75,33.75 0 0,1 -34.36,47.2925"/>
<path d="M 389.962,477.455 a 22.5,22.5 0 0,1 -22.9067,31.5283"/>
<path d="M 379.685,482.031 a 11.25,11.25 0 0,1 -11.4533,15.7642"/>
<path d="M 631.627,450 a 90,90 0 0,1 -91.6267,126.113"/>
<path d="M 621.349,454.576 a 78.75,78.75 0 0,1 -80.1733,110.349"/>
<path d="M 611.072,459.152 a 67.5,67.5 0 0,1 -68.72,94.585"/>
<path d="M 600.794,463.727 a 56.25,56.25 0 0,1 -57.2667,78.8208"/>
<path d="M 590.517,468.303 a 45,45 0 0,1 -45.8133,63.0566"/>
<path d="M 580.24,472.879 a 33.75,33.75 0 0,1 -34.36,47.2925"/>
<path d="M 569.962,477.455 a 22.5,22.5 0 0,1 -22.9067,31.5283"/>
<path d="M 559.685,482.031 a 11.25,11.25 0 0,1 -11.4533,15.7642"/>
<path d="M 811.627,450 a 90,90 0 0,1 -91.6267,126.113"/>
<path d="M 801.349,454.576 a 78.75,78.75 0 0,1 -80.1733,110.349"/>
<path d="M 791.072,459.152 a 67.5,67.5 0 0,1 -68.72,94.585"/>
<path d="M 780.794,463.727 a 56.25,56.25 0 0,1 -57.2667,78.8208"/>
<path d="M 770.517,468.303 a 45,45 0 0,1 -45.8133,63.0566"/>
<path d="M 760.24,472.879 a 33.75,33.75 0 0,1 -34.36,47.2925"/>
<path d="M 749.962,477.455 a 22.5,22.5 0 0,1 -22.9067,31.5283"/>
<path d="M 739.685,482.031 a 11.25,11.25 0 0,1 -11.4533,15.7642"/>
<path d="M 181.627,495 a 90,90 0 0,1 -91.6267,126.113"/>
<path d="M 171.349,499.576 a 78.75,78.75 0 0,1 -80.1733,110.349"/>
<path d="M 161.072,504.152 a 67.5,67.5 0 0,1 -68.72,94.585"/>
<path d="M 150.794,508.727 a 56.25,56.25 0 0,1 -57.2667,78.8208"/>
<path d="M 140.517,513.303 a 45,45 0 0,1 -45.8133,63.0566"/>
<path d="M 130.24,517.879 a 33.75,33.75 0 0,1 -34.36,47.2925"/>
<path d="M 119.962,522.455 a 22.5,22.5 0 0,1 -22.9067,31.5283"/>
<path d="M 109.685,527.031 a 11.25,11.25 0 0,1 -11.4533,15.7642"/>
<path d="M 361.627,495 a 90,90 0 0,1 -91.6267,126.113"/>
<path d="M 351.349,499.576 a 78.75,78.75 0 0,1 -80.1733,110.349"/>
<path d="M 341.072,504.152 a 67.5,67.5 0 0,1 -68.72,94.585"/>
<path d="M 330.794,508.727 a 56.25,56.25 0 0,1 -57.2667,78.8208"/>
<path d="M 320.517,513.303 a 45,45 0 0,1 -45.8133,63.0566"/>
<path d="M 310.24,517.879 a 33.75,33.75 0 0,1 -34.36,47.2925"/>
<path d="M 299.962,522.455 a 22.5,22.5 0 0,1 -22.9067,31.5283"/>
<path d="M 289.685,527.031 a 11.25,11.25 0 0,1 -11.4533,15.7642"/>
<path d="M 541.627,495 a 90,90 0 0,1 -91.6267,126.113"/>
<path d="M 531.349,499.576 a 78.75,78.75 0 0,1 -80.1733,110.349"/>
<path d="M 521.072,504.152 a 67.5,67.5 0 0,1 -68.72,94.585"/>
<path d="M 510.794,508.727 a 56.25,56.25 0 0,1 -57.2667,78.8208"/>
<path d="M 500.517,513.303 a 45,45 0 0,1 -45.8133,63.0566"/>
<path d="M 490.24,517.879 a 33.75,33.75 0 0,1 -34.36,47.2925"/>
<path d="M 479.962,522.455 a 22.5,22.5 0 0,1 -22.9067,31.5283"/>
<path d="M 469.685,527.031 a 11.25,11.25 0 0,1 -11.4533,15.7642"/>
<path d="M 721.627,495 a 90,90 0 0,1 -91.6267,126.113"/>
<path d="M 711.349,499.576 a 78.75,78.75 0 0,1 -80.1733,110.349"/>
<path d="M 701.072,504.152 a 67.5,67.5 0 0,1 -68.72,94.585"/>
<path d="M 690.794,508.727 a 56.25,56.25 0 0,1 -57.2667,78.8208"/>
<path d="M 680.517,513.303 a 45,45 0 0,1 -45.8133,63.0566"/>
<path d="M 670.24,517.879 a 33.75,33.75 0 0,1 -34.36,47.2925"/>
<path d="M 659.962,522.455 a 22.5,22.5 0 0,1 -22.9067,31.5283"/>
<path d="M 649.685,527.031 a 11.25,11.25 0 0,1 -11.4533,15.7642"/>
<path d="M 901.627,495 a 90,90 0 0,1 -91.6267,126.113"/>
<path d="M 891.349,499.576 a 78.75,78.75 0 0,1 -80.1733,110.349"/>
<path d="M 881.072,504.152 a 67.5,67.5 0 0,1 -68.72,94.585"/>
<path d="M 870.794,508.727 a 56.25,56.25 0 0,1 -57.2667,78.8208"/>
<path d="M 860.517,513.303 a 45,45 0 0,1 -45.8133,63.0566"/>
<path d="M 850.24,517.879 a 33.75,33.75 0 0,1 -34.36,47.2925"/>
<path d="M 839.962,522.455 a 22.5,22.5 0 0,1 -22.9067,31.5283"/>
<path d="M 829.685,527.031 a 11.25,11.25 0 0,1 -11.4533,15.7642"/>
<path d="M 91.6267,540 a 90,90 0 0,1 -91.6267,126.113"/>
<path d="M 81.3493,544.576 a 78.75,78.75 0 0,1 -80.1733,110.349"/>
<path d="M 71.0719,549.152 a 67.5,67.5 0 0,1 -68.72,94.585"/>
<path d="M 60.7945,553.727 a 56.25,56.25 0 0,1 -57.2667,78.8208"/>
<path d="M 50.5171,558.303 a 45,45 0 0,1 -45.8133,63.0566"/>
<path d="M 40.2397,562.879 a 33.75,33.75 0 0,1 -34.36,47.2925"/>
<path d="M 29.9623,567.455 a 22.5,22.5 0 0,1 -22.9067,31.5283"/>
<path d="M 19.6849,572.031 a 11.25,11.25 0 0,1 -11.4533,15.7642"/>
<path d="M 271.627,540 a 90,90 0 0,1 -91.6267,126.113"/>
<path d="M 261.349,544.576 a 78.75,78.75 0 0,1 -80.1733,110.349"/>
<path d="M 251.072,549.152 a 67.5,67.5 0 0,1 -68.72,94.585"/>
<path d="M 240.794,553.727 a 56.25,56.25 0 0,1 -57.2667,78.8208"/>
<path d="M 230.517,558.303 a 45,45 0 0,1 -45.8133,63.0566"/>
<path d="M 220.24,562.879 a 33.75,33.75 0 0,1 -34.36,47.2925"/>
<path d="M 209.962,567.455 a 22.5,22.5 0 0,1 -22.9067,31.5283"/>
<path d="M 199.685,572.031 a 11.25,11.25 0 0,1 -11.4533,15.7642"/>
<path d="M 451.627,540 a 90,90 0 0,1 -91.6267,126.113"/>
<path d="M 441.349,544.576 a 78.75,78.75 0 0,1 -80.1733,110.349"/>
<path d="M 431.072,549.152 a 67.5,67.5 0 0,1 -68.72,94.585"/>
<path d="M 420.794,553.727 a 56.25,56.25 0 0,1 -57.2667,78.8208"/>
<path d="M 410.517,558.303 a 45,45 0 0,1 -45.8133,63.0566"/>
<path d="M 400.24,562.879 a 33.75,33.75 0 0,1 -34.36,47.2925"/>
<path d="M 389.962,567.455 a 22.5,22.5 0 0,1 -22.9067,31.5283"/>
<path d="M 379.685,572.031 a 11.25,11.25 0 0,1 -11.4533,15.7642"/>
<path d="M 631.627,540 a 90,90 0 0,1 -91.6267,126.113"/>
<path d="M 621.349,544.576 a 78.75,78.75 0 0,1 -80.1733,110.349"/>
<path d="M 611.072,549.152 a 67.5,67.5 0 0,1 -68.72,94.585"/>
<path d="M 600.794,553.727 a 56.25,56.25 0 0,1 -57.2667,78.8208"/>
<path d="M 590.517,558.303 a 45,45 0 0,1 -45.8133,63.0566"/>
<path d="M 580.24,562.879 a 33.75,33.75 0 0,1 -34.36,47.2925"/>
<path d="M 569.962,567.455 a 22.5,22.5 0 0,1 -22.9067,31.5283"/>
<path d="M 559.685,572.031 a 11.25,11.25 0 0,1 -11.4533,15.7642"/>
<path d="M 811.627,540 a 90,90 0 0,1 -91.6267,126.113"/>
<path d="M 801.349,544.576 a 78.75,78.75 0 0,1 -80.1733,110.349"/>
<path d="M 791.072,549.152 a 67.5,67.5 0 0,1 -68.72,94.585"/>
<path d="M 780.794,553.727 a 56.25,56.25 0 0,1 -57.2667,78.8208"/>
<path d="M 770.517,558.303 a 45,45 0 0,1 -45.8133,63.0566"/>
<path d="M 760.24,562.879 a 33.75,33.75 0 0,1 -34.36,47.2925"/>
<path d="M 749.962,567.455 a 22.5,22.5 0 0,1 -22.9067,31.5283"/>
<path d="M 739.685,572.031 a 11.25,11.25 0 0,1 -11.4533,15.7642"/>
<path d="M 181.627,585 a 90,90 0 0,1 -91.6267,126.113"/>
<path d="M 171.349,589.576 a 78.75,78.75 0 0,1 -80.1733,110.349"/>
<path d="M 161.072,594.152 a 67.5,67.5 0 0,1 -68.72,94.585"/>
<path d="M 150.794,598.727 a 56.25,56.25 0 0,1 -57.2667,78.8208"/>
<path d="M 140.517,603.303 a 45,45 0 0,1 -45.8133,63.0566"/>
<path d="M 130.24,607.879 a 33.75,33.75 0 0,1 -34.36,47.2925"/>
<path d="M 119.962,612.455 a 22.5,22.5 0 0,1 -22.9067,31.5283"/>
<path d="M 109.685,617.031 a 11.25,11.25 0 0,1 -11.4533,15.7642"/>
<path d="M 361.627,585 a 90,90 0 0,1 -91.6267,126.113"/>
<path d="M 351.349,589.576 a 78.75,78.75 0 0,1 -80.1733,110.349"/>
<path d="M 341.072,594.152 a 67.5,67.5 0 0,1 -68.72,94.585"/>
<path d="M 330.794,598.727 a 56.25,56.25 0 0,1 -57.2667,78.8208"/>
<path d="M 320.517,603.303 a 45,45 0 0,1 -45.8133,63.0566"/>
<path d="M 310.24,607.879 a 33.75,33.75 0 0,1 -34.36,47.2925"/>
<path d="M 299.962,612.455 a 22.5,22.5 0 0,1 -22.9067,31.5283"/>
<path d="M 289.685,617.031 a 11.25,11.25 0 0,1 -11.4533,15.7642"/>
<path d="M 541.627,585 a 90,90 0 0,1 -91.6267,126.113"/>
<path d="M 531.349,589.576 a 78.75,78.75 0 0,1 -80.1733,110.349"/>
<path d="M 521.072,594.152 a 67.5,67.5 0 0,1 -68.72,94.585"/>
<path d="M 510.794,598.727 a 56.25,56.25 0 0,1 -57.2667,78.8208"/>
<path d="M 500.517,603.303 a 45,45 0 0,1 -45.8133,63.0566"/>
<path d="M 490.24,607.879 a 33.75,33.75 0 0,1 -34.36,47.2925"/>
<path d="M 479.962,612.455 a 22.5,22.5 0 0,1 -22.9067,31.5283"/>
<path d="M 469.685,617.031 a 11.25,11.25 0 0,1 -11.4533,15.7642"/>
<path d="M 721.627,585 a 90,90 0 0,1 -91.6267,126.113"/>
<path d="M 711.349,589.576 a 78.75,78.75 0 0,1 -80.1733,110.349"/>
<path d="M 701.072,594.152 a 67.5,67.5 0 0,1 -68.72,94.585"/>
<path d="M 690.794,598.727 a 56.25,56.25 0 0,1 -57.2667,78.8208"/>
<path d="M 680.517,603.303 a 45,45 0 0,1 -45.8133,63.0566"/>
<path d="M 670.24,607.879 a 33.75,33.75 0 0,1 -34.36,47.2925"/>
<path d="M 659.962,612.455 a 22.5,22.5 0 0,1 -22.9067,31.5283"/>
<path d="M 649.685,617.031 a 11.25,11.25 0 0,1 -11.4533,15.7642"/>
<path d="M 901.627,585 a 90,90 0 0,1 -91.6267,126.113"/>
<path d="M 891.349,589.576 a 78.75,78.75 0 0,1 -80.1733,110.349"/>
<path d="M 881.072,594.152 a 67.5,67.5 0 0,1 -68.72,94.585"/>
<path d="M 870.794,598.727 a 56.25,56.25 0 0,1 -57.2667,78.8208"/>
<path d="M 860.517,603.303 a 45,45 0 0,1 -45.8133,63.0566"/>
<path d="M 850.24,607.879 a 33.75,33.75 0 0,1 -34.36,47.2925"/>
<path d="M 839.962,612.455 a 22.5,22.5 0 0,1 -22.9067,31.5283"/>
<path d="M 829.685,617.031 a 11.25,11.25 0 0,1 -11.4533,15.7642"/>
<path d="M 91.6267,630 a 90,90 0 0,1 -91.6267,126.113"/>
<path d="M 81.3493,634.576 a 78.75,78.75 0 0,1 -80.1733,110.349"/>
<path d="M 71.0719,639.152 a 67.5,67.5 0 0,1 -68.72,94.585"/>
<path d="M 60.7945,643.727 a 56.25,56.25 0 0,1 -57.2667,78.8208"/>
<path d="M 50.5171,648.303 a 45,45 0 0,1 -45.8133,63.0566"/>
<path d="M 40.2397,652.879 a 33.75,33.75 0 0,1 -34.36,47.2925"/>
<path d="M 29.9623,657.455 a 22.5,22.5 0 0,1 -22.9067,31.5283"/>
<path d="M 19.6849,662.031 a 11.25,11.25 0 0,1 -11.4533,15.7642"/>
<path d="M 271.627,630 a 90,90 0 0,1 -91.6267,126.113"/>
<path d="M 261.349,634.576 a 78.75,78.75 0 0,1 -80.1733,110.349"/>
<path d="M 251.072,639.152 a 67.5,67.5 0 0,1 -68.72,94.585"/>
<path d="M 240.794,643.727 a 56.25,56.25 0 0,1 -57.2667,78.8208"/>
<path d="M 230.517,648.303 a 45,45 0 0,1 -45.8133,63.0566"/>
<path d="M 220.24,652.879 a 33.75,33.75 0 0,1 -34.36,47.2925"/>
<path d="M 209.962,657.455 a 22.5,22.5 0 0,1 -22.9067,31.5283"/>
<path d="M 199.685,662.031 a 11.25,11.25 0 0,1 -11.4533,15.7642"/>
<path d="M 451.627,630 a 90,90 0 0,1 -91.6267,126.113"/>
<path d="M 441.349,634.576 a 78.75,78.75 0 0,1 -80.1733,110.349"/>
<path d="M 431.072,639.152 a 67.5,67.5 0 0,1 -68.72,94.585"/>
<path d="M 420.794,643.727 a 56.25,56.25 0 0,1 -57.2667,78.8208"/>
<path d="M 410.517,648.303 a 45,45 0 0,1 -45.8133,63.0566"/>
<path d="M 400.24,652.879 a 33.75,33.75 0 0,1 -34.36,47.2925"/>
<path d="M 389.962,657.455 a 22.5,22.5 0 0,1 -22.9067,31.5283"/>
<path d="M 379.685,662.031 a 11.25,11.25 0 0,1 -11.4533,15.7642"/>
<path d="M 631.627,630 a 90,90 0 0,1 -91.6267,126.113"/>
<path d="M 621.349,634.576 a 78.75,78.75 0 0,1 -80.1733,110.349"/>
<path d="M 611.072,639.152 a 67.5,67.5 0 0,1 -68.72,94.585"/>
<path d="M 600.794,643.727 a 56.25,56.25 0 0,1 -57.2667,78.8208"/>
<path d="M 590.517,648.303 a 45,45 0 0,1 -45.8133,63.0566"/>
<path d="M 580.24,652.879 a 33.75,33.75 0 0,1 -34.36,47.2925"/>
<path d="M 569.962,657.455 a 22.5,22.5 0 0,1 -22.9067,31.5283"/>
<path d="M 559.685,662.031 a 11.25,11.25 0 0,1 -11.4533,15.7642"/>
<path d="M 811.627,630 a 90,90 0 0,1 -91.6267,126.113"/>
<path d="M 801.349,634.576 a 78.75,78.75 0 0,1 -80.1733,110.349"/>
<path d="M 791.072,639.152 a 67.5,67.5 0 0,1 -68.72,94.585"/>
<path d="M 780.794,643.727 a 56.25,56.25 0 0,1 -57.2667,78.8208"/>
<path d="M 770.517,648.303 a 45,45 0 0,1 -45.8133,63.0566"/>
<path d="M 760.24,652.879 a 33.75,33.75 0 0,1 -34.36,47.2925"/>
<path d="M 749.962,657.455 a 22.5,22.5 0 0,1 -22.9067,31.5283"/>
<path d="M 739.685,662.031 a 11.25,11.25 0 0,1 -11.4533,15.7642"/>
<path d="M 181.627,675 a 90,90 0 0,1 -91.6267,126.113"/>
<path d="M 171.349,679.576 a 78.75,78.75 0 0,1 -80.1733,110.349"/>
<path d="M 161.072,684.152 a 67.5,67.5 0 0,1 -68.72,94.585"/>
<path d="M 150.794,688.727 a 56.25,56.25 0 0,1 -57.2667,78.8208"/>
<path d="M 140.517,693.303 a 45,45 0 0,1 -45.8133,63.0566"/>
<path d="M 130.24,697.879 a 33.75,33.75 0 0,1 -34.36,47.2925"/>
<path d="M 119.962,702.455 a 22.5,22.5 0 0,1 -22.9067,31.5283"/>
<path d="M 109.685,707.031 a 11.25,11.25 0 0,1 -11.4533,15.7642"/>
<path d="M 361.627,675 a 90,90 0 0,1 -91.6267,126.113"/>
<path d="M 351.349,679.576 a 78.75,78.75 0 0,1 -80.1733,110.349"/>
<path d="M 341.072,684.152 a 67.5,67.5 0 0,1 -68.72,94.585"/>
<path d="M 330.794,688.727 a 56.25,56.25 0 0,1 -57.2667,78.8208"/>
<path d="M 320.517,693.303 a 45,45 0 0,1 -45.8133,63.0566"/>
<path d="M 310.24,697.879 a 33.75,33.75 0 0,1 -34.36,47.2925"/>
<path d="M 299.962,702.455 a 22.5,22.5 0 0,1 -22.9067,31.5283"/>
<path d="M 289.685,707.031 a 11.25,11.25 0 0,1 -11.4533,15.7642"/>
<path d="M 541.627,675 a 90,90 0 0,1 -91.6267,126.113"/>
<path d="M 531.349,679.576 a 78.75,78.75 0 0,1 -80.1733,110.349"/>
<path d="M 521.072,684.152 a 67.5,67.5 0 0,1 -68.72,94.585"/>
<path d="M 510.794,688.727 a 56.25,56.25 0 0,1 -57.2667,78.8208"/>
<path d="M 500.517,693.303 a 45,45 0 0,1 -45.8133,63.0566"/>
<path d="M 490.24,697.879 a 33.75,33.75 0 0,1 -34.36,47.2925"/>
<path d="M 479.962,702.455 a 22.5,22.5 0 0,1 -22.9067,31.5283"/>
<path d="M 469.685,707.031 a 11.25,11.25 0 0,1 -11.4533,15.7642"/>
<path d="M 721.627,675 a 90,90 0 0,1 -91.6267,126.113"/>
<path d="M 711.349,679.576 a 78.75,78.75 0 0,1 -80.1733,110.349"/>
<path d="M 701.072,684.152 a 67.5,67.5 0 0,1 -68.72,94.585"/>
<path d="M 690.794,688.727 a 56.25,56.25 0 0,1 -57.2667,78.8208"/>
<path d="M 680.517,693.303 a 45,45 0 0,1 -45.8133,63.0566"/>
<path d="M 670.24,697.879 a 33.75,33.75 0 0,1 -34.36,47.2925"/>
<path d="M 659.962,702.455 a 22.5,22.5 0 0,1 -22.9067,31.5283"/>
<path d="M 649.685,707.031 a 11.25,11.25 0 0,1 -11.4533,15.7642"/>
<path d="M 901.627,675 a 90,90 0 0,1 -91.6267,126.113"/>
<path d="M 891.349,679.576 a 78.75,78.75 0 0,1 -80.1733,110.349"/>
<path d="M 881.072,684.152 a 67.5,67.5 0 0,1 -68.72,94.585"/>
<path d="M 870.794,688.727 a 56.25,56.25 0 0,1 -57.2667,78.8208"/>
<path d="M 860.517,693.303 a 45,45 0 0,1 -45.8133,63.0566"/>
<path d="M 850.24,697.879 a 33.75,33.75 0 0,1 -34.36,47.2925"/>
<path d="M 839.962,702.455 a 22.5,22.5 0 0,1 -22.9067,31.5283"/>
<path d="M 829.685,707.031 a 11.25,11.25 0 0,1 -11.4533,15.7642"/>
<path d="M 91.6267,720 a 90,90 0 0,1 -91.6267,126.113"/>
<path d="M 81.3493,724.576 a 78.75,78.75 0 0,1 -80.1733,110.349"/>
<path d="M 71.0719,729.152 a 67.5,67.5 0 0,1 -68.72,94.585"/>
<path d="M 60.7945,733.727 a 56.25,56.25 0 0,1 -57.2667,78.8208"/>
<path d="M 50.5171,738.303 a 45,45 0 0,1 -45.8133,63.0566"/>
<path d="M 40.2397,742.879 a 33.75,33.75 0 0,1 -34.36,47.2925"/>
<path d="M 29.9623,747.455 a 22.5,22.5 0 0,1 -22.9067,31.5283"/>
<path d="M 19.6849,752.031 a 11.25,11.25 0 0,1 -11.4533,15.7642"/>
<path d="M 271.627,720 a 90,90 0 0,1 -91.6267,126.113"/>
<path d="M 261.349,724.576 a 78.75,78.75 0 0,1 -80.1733,110.349"/>
<path d="M 251.072,729.152 a 67.5,67.5 0 0,1 -68.72,94.585"/>
<path d="M 240.794,733.727 a 56.25,56.25 0 0,1 -57.2667,78.8208"/>
<path d="M 230.517,738.303 a 45,45 0 0,1 -45.8133,63.0566"/>
<path d="M 220.24,742.879 a 33.75,33.75 0 0,1 -34.36,47.2925"/>
<path d="M 209.962,747.455 a 22.5,22.5 0 0,1 -22.9067,31.5283"/>
<path d="M 199.685,752.031 a 11.25,11.25 0 0,1 -11.4533,15.7642"/>
<path d="M 451.627,720 a 90,90 0 0,1 -91.6267,126.113"/>
<path d="M 441.349,724.576 a 78.75,78.75 0 0,1 -80.1733,110.349"/>
<path d="M 431.072,729.152 a 67.5,67.5 0 0,1 -68.72,94.585"/>
<path d="M 420.794,733.727 a 56.25,56.25 0 0,1 -57.2667,78.8208"/>
<path d="M 410.517,738.303 a 45,45 0 0,1 -45.8133,63.0566"/>
<path d="M 400.24,742.879 a 33.75,33.75 0 0,1 -34.36,47.2925"/>
<path d="M 389.962,747.455 a 22.5,22.5 0 0,1 -22.9067,31.5283"/>
<path d="M 379.685,752.031 a 11.25,11.25 0 0,1 -11.4533,15.7642"/>
<path d="M 631.627,720 a 90,90 0 0,1 -91.6267,126.113"/>
<path d="M 621.349,724.576 a 78.75,78.75 0 0,1 -80.1733,110.349"/>
<path d="M 611.072,729.152 a 67.5,67.5 0 0,1 -68.72,94.585"/>
<path d="M 600.794,733.727 a 56.25,56.25 0 0,1 -57.2667,78.8208"/>
<path d="M 590.517,738.303 a 45,45 0 0,1 -45.8133,63.0566"/>
<path d="M 580.24,742.879 a 33.75,33.75 0 0,1 -34.36,47.2925"/>
<path d="M 569.962,747.455 a 22.5,22.5 0 0,1 -22.9067,31.5283"/>
<path d="M 559.685,752.031 a 11.25,11.25 0 0,1 -11.4533,15.7642"/>
<path d="M 811.627,720 a 90,90 0 0,1 -91.6267,126.113"/>
<path d="M 801.349,724.576 a 78.75,78.75 0 0,1 -80.1733,110.349"/>
<path d="M 791.072,729.152 a 67.5,67.5 0 0,1 -68.72,94.585"/>
<path d="M 780.794,733.727 a 56.25,56.25 0 0,1 -57.2667,78.8208"/>
<path d="M 770.517,738.303 a 45,45 0 0,1 -45.8133,63.0566"/>
<path d="M 760.24,742.879 a 33.75,33.75 0 0,1 -34.36,47.2925"/>
<path d="M 749.962,747.455 a 22.5,22.5 0 0,1 -22.9067,31.5283"/>
<path d="M 739.685,752.031 a 11.25,11.25 0 0,1 -11.4533,15.7642"/>
<path d="M 181.627,765 a 90,90 0 0,1 -91.6267,126.113"/>
<path d="M 171.349,769.576 a 78.75,78.75 0 0,1 -80.1733,110.349"/>
<path d="M 161.072,774.152 a 67.5,67.5 0 0,1 -68.72,94.585"/>
<path d="M 150.794,778.727 a 56.25,56.25 0 0,1 -57.2667,78.8208"/>
<path d="M 140.517,783.303 a 45,45 0 0,1 -45.8133,63.0566"/>
<path d="M 130.24,787.879 a 33.75,33.75 0 0,1 -34.36,47.2925"/>
<path d="M 119.962,792.455 a 22.5,22.5 0 0,1 -22.9067,31.5283"/>
<path d="M 109.685,797.031 a 11.25,11.25 0 0,1 -11.4533,15.7642"/>
<path d="M 361.627,765 a 90,90 0 0,1 -91.6267,126.113"/>
<path d="M 351.349,769.576 a 78.75,78.75 0 0,1 -80.1733,110.349"/>
<path d="M 341.072,774.152 a 67.5,67.5 0 0,1 -68.72,94.585"/>
<path d="M 330.794,778.727 a 56.25,56.25 0 0,1 -57.2667,78.8208"/>
<path d="M 320.517,783.303 a 45,45 0 0,1 -45.8133,63.0566"/>
<path d="M 310.24,787.879 a 33.75,33.75 0 0,1 -34.36,47.2925"/>
<path d="M 299.962,792.455 a 22.5,22.5 0 0,1 -22.9067,31.5283"/>
<path d="M 289.685,797.031 a 11.25,11.25 0 0,1 -11.4533,15.7642"/>
<path d="M 541.627,765 a 90,90 0 0,1 -91.6267,126.113"/>
<path d="M 531.349,769.576 a 78.75,78.75 0 0,1 -80.1733,110.349"/>
<path d="M 521.072,774.152 a 67.5,67.5 0 0,1 -68.72,94.585"/>
<path d="M 510.794,778.727 a 56.25,56.25 0 0,1 -57.2667,78.8208"/>
<path d="M 500.517,783.303 a 45,45 0 0,1 -45.8133,63.0566"/>
<path d="M 490.24,787.879 a 33.75,33.75 0 0,1 -34.36,47.2925"/>
<path d="M 479.962,792.455 a 22.5,22.5 0 0,1 -22.9067,31.5283"/>
<path d="M 469.685,797.031 a 11.25,11.25 0 0,1 -11.4533,15.7642"/>
<path d="M 721.627,765 a 90,90 0 0,1 -91.6267,126.113"/>
<path d="M 711.349,769.576 a 78.75,78.75 0 0,1 -80.1733,110.349"/>
<path d="M 701.072,774.152 a 67.5,67.5 0 0,1 -68.72,94.585"/>
<path d="M 690.794,778.727 a 56.25,56.25 0 0,1 -57.2667,78.8208"/>
<path d="M 680.517,783.303 a 45,45 0 0,1 -45.8133,63.0566"/>
<path d="M 670.24,787.879 a 33.75,33.75 0 0,1 -34.36,47.2925"/>
<path d="M 659.962,792.455 a 22.5,22.5 0 0,1 -22.9067,31.5283"/>
<path d="M 649.685,797.031 a 11.25,11.25 0 0,1 -11.4533,15.7642"/>
<path d="M 901.627,765 a 90,90 0 0,1 -91.6267,126.113"/>
<path d="M 891.349,769.576 a 78.75,78.75 0 0,1 -80.1733,110.349"/>
<path d="M 881.072,774.152 a 67.5,67.5 0 0,1 -68.72,94.585"/>
<path d="M 870.794,778.727 a 56.25,56.25 0 0,1 -57.2667,78.8208"/>
<path d="M 860.517,783.303 a 45,45 0 0,1 -45.8133,63.0566"/>
<path d="M 850.24,787.879 a 33.75,33.75 0 0,1 -34.36,47.2925"/>
<path d="M 839.962,792.455 a 22.5,22.5 0 0,1 -22.9067,31.5283"/>
<path d="M 829.685,797.031 a 11.25,11.25 0 0,1 -11.4533,15.7642"/>
<path d="M 91.6267,810 a 90,90 0 0,1 -91.6267,126.113"/>
<path d="M 81.3493,814.576 a 78.75,78.75 0 0,1 -80.1733,110.349"/>
<path d="M 71.0719,819.152 a 67.5,67.5 0 0,1 -68.72,94.585"/>
<path d="M 60.7945,823.727 a 56.25,56.25 0 0,1 -57.2667,78.8208"/>
<path d="M 50.5171,828.303 a 45,45 0 0,1 -45.8133,63.0566"/>
<path d="M 40.2397,832.879 a 33.75,33.75 0 0,1 -34.36,47.2925"/>
<path d="M 29.9623,837.455 a 22.5,22.5 0 0,1 -22.9067,31.5283"/>
<path d="M 19.6849,842.031 a 11.25,11.25 0 0,1 -11.4533,15.7642"/>
<path d="M 271.627,810 a 90,90 0 0,1 -91.6267,126.113"/>
<path d="M 261.349,814.576 a 78.75,78.75 0 0,1 -80.1733,110.349"/>
<path d="M 251.072,819.152 a 67.5,67.5 0 0,1 -68.72,94.585"/>
<path d="M 240.794,823.727 a 56.25,56.25 0 0,1 -57.2667,78.8208"/>
<path d="M 230.517,828.303 a 45,45 0 0,1 -45.8133,63.0566"/>
<path d="M 220.24,832.879 a 33.75,33.75 0 0,1 -34.36,47.2925"/>
<path d="M 209.962,837.455 a 22.5,22.5 0 0,1 -22.9067,31.5283"/>
<path d="M 199.685,842.031 a 11.25,11.25 0 0,1 -11.4533,15.7642"/>
<path d="M 451.627,810 a 90,90 0 0,1 -91.6267,126.113"/>
<path d="M 441.349,814.576 a 78.75,78.75 0 0,1 -80.1733,110.349"/>
<path d="M 431.072,819.152 a 67.5,67.5 0 0,1 -68.72,94.585"/>
<path d="M 420.794,823.727 a 56.25,56.25 0 0,1 -57.2667,78.8208"/>
<path d="M 410.517,828.303 a 45,45 0 0,1 -45.8133,63.0566"/>
<path d="M 400.24,832.879 a 33.75,33.75 0 0,1 -34.36,47.2925"/>
<path d="M 389.962,837.455 a 22.5,22.5 0 0,1 -22.9067,31.5283"/>
<path d="M 379.685,842.031 a 11.25,11.25 0 0,1 -11.4533,15.7642"/>
<path d="M 631.627,810 a 90,90 0 0,1 -91.6267,126.113"/>
<path d="M 621.349,814.576 a 78.75,78.75 0 0,1 -80.1733,110.349"/>
<path d="M 611.072,819.152 a 67.5,67.5 0 0,1 -68.72,94.585"/>
<path d="M 600.794,823.727 a 56.25,56.25 0 0,1 -57.2667,78.8208"/>
<path d="M 590.517,828.303 a 45,45 0 0,1 -45.8133,63.0566"/>
<path d="M 580.24,832.879 a 33.75,33.75 0 0,1 -34.36,47.2925"/>
<path d="M 569.962,837.455 a 22.5,22.5 0 0,1 -22.9067,31.5283"/>
<path d="M 559.685,842.031 a 11.25,11.25 0 0,1 -11.4533,15.7642"/>
<path d="M 811.627,810 a 90,90 0 0,1 -91.6267,126.113"/>
<path d="M 801.349,814.576 a 78.75,78.75 0 0,1 -80.1733,110.349"/>
<path d="M 791.072,819.152 a 67.5,67.5 0 0,1 -68.72,94.585"/>
<path d="M 780.794,823.727 a 56.25,56.25 0 0,1 -57.2667,78.8208"/>
<path d="M 770.517,828.303 a 45,45 0 0,1 -45.8133,63.0566"/>
<path d="M 760.24,832.879 a 33.75,33.75 0 0,1 -34.36,47.2925"/>
<path d="M 749.962,837.455 a 22.5,22.5 0 0,1 -22.9067,31.5283"/>
<path d="M 739.685,842.031 a 11.25,11.25 0 0,1 -11.4533,15.7642"/>
<path d="M 181.627,855 a 90,90 0 0,1 -91.6267,126.113"/>
<path d="M 171.349,859.576 a 78.75,78.75 0 0,1 -80.1733,110.349"/>
<path d="M 161.072,864.152 a 67.5,67.5 0 0,1 -68.72,94.585"/>
<path d="M 150.794,868.727 a 56.25,56.25 0 0,1 -57.2667,78.8208"/>
<path d="M 140.517,873.303 a 45,45 0 0,1 -45.8133,63.0566"/>
<path d="M 130.24,877.879 a 33.75,33.75 0 0,1 -34.36,47.2925"/>
<path d="M 119.962,882.455 a 22.5,22.5 0 0,1 -22.9067,31.5283"/>
<path d="M 109.685,887.031 a 11.25,11.25 0 0,1 -11.4533,15.7642"/>
<path d="M 361.627,855 a 90,90 0 0,1 -91.6267,126.113"/>
<path d="M 351.349,859.576 a 78.75,78.75 0 0,1 -80.1733,110.349"/>
<path d="M 341.072,864.152 a 67.5,67.5 0 0,1 -68.72,94.585"/>
<path d="M 330.794,868.727 a 56.25,56.25 0 0,1 -57.2667,78.8208"/>
<path d="M 320.517,873.303 a 45,45 0 0,1 -45.8133,63.0566"/>
<path d="M 310.24,877.879 a 33.75,33.75 0 0,1 -34.36,47.2925"/>
<path d="M 299.962,882.455 a 22.5,22.5 0 0,1 -22.9067,31.5283"/>
<path d="M 289.685,887.031 a 11.25,11.25 0 0,1 -11.4533,15.7642"/>
<path d="M 541.627,855 a 90,90 0 0,1 -91.6267,126.113"/>
<path d="M 531.349,859.576 a 78.75,78.75 0 0,1 -80.1733,110.349"/>
<path d="M 521.072,864.152 a 67.5,67.5 0 0,1 -68.72,94.585"/>
<path d="M 510.794,868.727 a 56.25,56.25 0 0,1 -57.2667,78.8208"/>
<path d="M 500.517,873.303 a 45,45 0 0,1 -45.8133,63.0566"/>
<path d="M 490.24,877.879 a 33.75,33.75 0 0,1 -34.36,47.2925"/>
<path d="M 479.962,882.455 a 22.5,22.5 0 0,1 -22.9067,31.5283"/>
<path d="M 469.685,887.031 a 11.25,11.25 0 0,1 -11.4533,15.7642"/>
<path d="M 721.627,855 a 90,90 0 0,1 -91.6267,126.113"/>
<path d="M 711.349,859.576 a 78.75,78.75 0 0,1 -80.1733,110.349"/>
<path d="M 701.072,864.152 a 67.5,67.5 0 0,1 -68.72,94.585"/>
<path d="M 690.794,868.727 a 56.25,56.25 0 0,1 -57.2667,78.8208"/>
<path d="M 680.517,873.303 a 45,45 0 0,1 -45.8133,63.0566"/>
<path d="M 670.24,877.879 a 33.75,33.75 0 0,1 -34.36,47.2925"/>
<path d="M 659.962,882.455 a 22.5,22.5 0 0,1 -22.9067,31.5283"/>
<path d="M 649.685,887.031 a 11.25,11.25 0 0,1 -11.4533,15.7642"/>
<path d="M 901.627,855 a 90,90 0 0,1 -91.6267,126.113"/>
<path d="M 891.349,859.576 a 78.75,78.75 0 0,1 -80.1733,110.349"/>
<path d="M 881.072,864.152 a 67.5,67.5 0 0,1 -68.72,94.585"/>
<path d="M 870.794,868.727 a 56.25,56.25 0 0,1 -57.2667,78.8208"/>
<path d="M 860.517,873.303 a 45,45 0 0,1 -45.8133,63.0566"/>
<path d="M 850.24,877.879 a 33.75,33.75 0 0,1 -34.36,47.2925"/>
<path d="M 839.962,882.455 a 22.5,22.5 0 0,1 -22.9067,31.5283"/>
<path d="M 829.685,887.031 a 11.25,11.25 0 0,1 -11.4533,15.7642"/>
</g></g></svg>