<?xml version="1.0" encoding="UTF-8" standalone="no"?>
<!DOCTYPE svg PUBLIC "-//W3C//DTD SVG 1.1//EN" "http://www.w3.org/Graphics/SVG/1.1/DTD/svg11-flat.dtd"
[
<!ATTLIST g xmlns:fme CDATA #FIXED "http://www.safe.com/fme" >
<!ATTLIST path fme:_creation_instance CDATA #IMPLIED >
<!ATTLIST ellipse fme:_creation_instance CDATA #IMPLIED >
<!ATTLIST text fme:_creation_instance CDATA #IMPLIED >
<!ATTLIST use fme:_creation_instance CDATA #IMPLIED >
]>
<svg xmlns="http://www.w3.org/2000/svg"  viewBox="-10 -10 820 1613.37"><g xmlns:fme="http://www.safe.com/fme" fill="none" stroke="black" stroke-width="0.1" transform="translate(0,1593.37) scale(1, -1)">
<g id="asset" >
<path d="M 0,0 l 200,0 "/>
<path d="M 0,0 l 400,0 "/>
<path d="M 0,0 l 600,0 "/>
<path d="M 0,0 l 800,0 "/>
<path d="M 0,0 l 0,200 "/>
<path d="M 0,0 l 200,200 "/>
<path d="M 0,0 l 400,200 "/>
<path d="M 0,0 l 600,200 "/>
<path d="M 0,0 l 800,200 "/>
<path d="M 0,0 l 0,400 "/>
<path d="M 0,0 l 200,400 "/>
<path d="M 0,0 l 400,400 "/>
<path d="M 0,0 l 600,400 "/>
<path d="M 0,0 l 800,400 "/>
<path d="M 0,0 l 0,600 "/>
<path d="M 0,0 l 200,600 "/>
<path d="M 0,0 l 400,600 "/>
<path d="M 0,0 l 600,600 "/>
<path d="M 0,0 l 800,600 "/>
<path d="M 200,0 l 200,0 "/>
<path d="M 200,0 l 400,0 "/>
<path d="M 200,0 l 600,0 "/>
<path d="M 200,0 l -200,200 "/>
<path d="M 200,0 l 0,200 "/>
<path d="M 200,0 l 200,200 "/>
<path d="M 200,0 l 400,200 "/>
<path d="M 200,0 l 600,200 "/>
<path d="M 200,0 l -200,400 "/>
<path d="M 200,0 l 0,400 "/>
<path d="M 200,0 l 200,400 "/>
<path d="M 200,0 l 400,400 "/>
<path d="M 200,0 l 600,400 "/>
<path d="M 200,0 l -200,600 "/>
<path d="M 200,0 l 0,600 "/>
<path d="M 200,0 l 200,600 "/>
<path d="M 200,0 l 400,600 "/>
<path d="M 200,0 l 600,600 "/>
<path d="M 400,0 l 200,0 "/>
<path d="M 400,0 l 400,0 "/>
<path d="M 400,0 l -400,200 "/>
<path d="M 400,0 l -200,200 "/>
<path d="M 400,0 l 0,200 "/>
<path d="M 400,0 l 200,200 "/>
<path d="M 400,0 l 400,200 "/>
<path d="M 400,0 l -400,400 "/>
<path d="M 400,0 l -200,400 "/>
<path d="M 400,0 l 0,400 "/>
<path d="M 400,0 l 200,400 "/>
<path d="M 400,0 l 400,400 "/>
<path d="M 400,0 l -400,600 "/>
<path d="M 400,0 l -200,600 "/>
<path d="M 400,0 l 0,600 "/>
<path d="M 400,0 l 200,600 "/>
<path d="M 400,0 l 400,600 "/>
<path d="M 600,0 l 200,0 "/>
<path d="M 600,0 l -600,200 "/>
<path d="M 600,0 l -400,200 "/>
<path d="M 600,0 l -200,200 "/>
<path d="M 600,0 l 0,200 "/>
<path d="M 600,0 l 200,200 "/>
<path d="M 600,0 l -600,400 "/>
<path d="M 600,0 l -400,400 "/>
<path d="M 600,0 l -200,400 "/>
<path d="M 600,0 l 0,400 "/>
<path d="M 600,0 l 200,400 "/>
<path d="M 600,0 l -600,600 "/>
<path d="M 600,0 l -400,600 "/>
<path d="M 600,0 l -200,600 "/>
<path d="M 600,0 l 0,600 "/>
<path d="M 600,0 l 200,600 "/>
<path d="M 800,0 l -800,200 "/>
<path d="M 800,0 l -600,200 "/>
<path d="M 800,0 l -400,200 "/>
<path d="M 800,0 l -200,200 "/>
<path d="M 800,0 l 0,200 "/>
<path d="M 800,0 l -800,400 "/>
<path d="M 800,0 l -600,400 "/>
<path d="M 800,0 l -400,400 "/>
<path d="M 800,0 l -200,400 "/>
<path d="M 800,0 l 0,400 "/>
<path d="M 800,0 l -800,600 "/>
<path d="M 800,0 l -600,600 "/>
<path d="M 800,0 l -400,600 "/>
<path d="M 800,0 l -200,600 "/>
<path d="M 800,0 l 0,600 "/>
<path d="M 0,200 l 200,0 "/>
<path d="M 0,200 l 400,0 "/>
<path d="M 0,200 l 600,0 "/>
<path d="M 0,200 l 800,0 "/>
<path d="M 0,200 l 0,200 "/>
<path d="M 0,200 l 200,200 "/>
<path d="M 0,200 l 400,200 "/>
<path d="M 0,200 l 600,200 "/>
<path d="M 0,200 l 800,200 "/>
<path d="M 0,200 l 0,400 "/>
<path d="M 0,200 l 200,400 "/>
<path d="M 0,200 l 400,400 "/>
<path d="M 0,200 l 600,400 "/>
<path d="M 0,200 l 800,400 "/>
<path d="M 200,200 l 200,0 "/>
<path d="M 200,200 l 400,0 "/>
<path d="M 200,200 l 600,0 "/>
<path d="M 200,200 l -200,200 "/>
<path d="M 200,200 l 0,200 "/>
<path d="M 200,200 l 200,200 "/>
<path d="M 200,200 l 400,200 "/>
<path d="M 200,200 l 600,200 "/>
<path d="M 200,200 l -200,400 "/>
<path d="M 200,200 l 0,400 "/>
<path d="M 200,200 l 200,400 "/>
<path d="M 200,200 l 400,400 "/>
<path d="M 200,200 l 600,400 "/>
<path d="M 400,200 l 200,0 "/>
<path d="M 400,200 l 400,0 "/>
<path d="M 400,200 l -400,200 "/>
<path d="M 400,200 l -200,200 "/>
<path d="M 400,200 l 0,200 "/>
<path d="M 400,200 l 200,200 "/>
<path d="M 400,200 l 400,200 "/>
<path d="M 400,200 l -400,400 "/>
<path d="M 400,200 l -200,400 "/>
<path d="M 400,200 l 0,400 "/>
<path d="M 400,200 l 200,400 "/>
<path d="M 400,200 l 400,400 "/>
<path d="M 600,200 l 200,0 "/>
<path d="M 600,200 l -600,200 "/>
<path d="M 600,200 l -400,200 "/>
<path d="M 600,200 l -200,200 "/>
<path d="M 600,200 l 0,200 "/>
<path d="M 600,200 l 200,200 "/>
<path d="M 600,200 l -600,400 "/>
<path d="M 600,200 l -400,400 "/>
<path d="M 600,200 l -200,400 "/>
<path d="M 600,200 l 0,400 "/>
<path d="M 600,200 l 200,400 "/>
<path d="M 800,200 l -800,200 "/>
<path d="M 800,200 l -600,200 "/>
<path d="M 800,200 l -400,200 "/>
<path d="M 800,200 l -200,200 "/>
<path d="M 800,200 l 0,200 "/>
<path d="M 800,200 l -800,400 "/>
<path d="M 800,200 l -600,400 "/>
<path d="M 800,200 l -400,400 "/>
<path d="M 800,200 l -200,400 "/>
<path d="M 800,200 l 0,400 "/>
<path d="M 0,400 l 200,0 "/>
<path d="M 0,400 l 400,0 "/>
<path d="M 0,400 l 600,0 "/>
<path d="M 0,400 l 800,0 "/>
<path d="M 0,400 l 0,200 "/>
<path d="M 0,400 l 200,200 "/>
<path d="M 0,400 l 400,200 "/>
<path d="M 0,400 l 600,200 "/>
<path d="M 0,400 l 800,200 "/>
<path d="M 200,400 l 200,0 "/>
<path d="M 200,400 l 400,0 "/>
<path d="M 200,400 l 600,0 "/>
<path d="M 200,400 l -200,200 "/>
<path d="M 200,400 l 0,200 "/>
<path d="M 200,400 l 200,200 "/>
<path d="M 200,400 l 400,200 "/>
<path d="M 200,400 l 600,200 "/>
<path d="M 400,400 l 200,0 "/>
<path d="M 400,400 l 400,0 "/>
<path d="M 400,400 l -400,200 "/>
<path d="M 400,400 l -200,200 "/>
<path d="M 400,400 l 0,200 "/>
<path d="M 400,400 l 200,200 "/>
<path d="M 400,400 l 400,200 "/>
<path d="M 600,400 l 200,0 "/>
<path d="M 600,400 l -600,200 "/>
<path d="M 600,400 l -400,200 "/>
<path d="M 600,400 l -200,200 "/>
<path d="M 600,400 l 0,200 "/>
<path d="M 600,400 l 200,200 "/>
<path d="M 800,400 l -800,200 "/>
<path d="M 800,400 l -600,200 "/>
<path d="M 800,400 l -400,200 "/>
<path d="M 800,400 l -200,200 "/>
<path d="M 800,400 l 0,200 "/>
<path d="M 0,600 l 200,0 "/>
<path d="M 0,600 l 400,0 "/>
<path d="M 0,600 l 600,0 "/>
<path d="M 0,600 l 800,0 "/>
<path d="M 200,600 l 200,0 "/>
<path d="M 200,600 l 400,0 "/>
<path d="M 200,600 l 600,0 "/>
<path d="M 400,600 l 200,0 "/>
<path d="M 400,600 l 400,0 "/>
<path d="M 600,600 l 200,0 "/>
<path d="M 0,1000 l 172.381,0 "/>
<path d="M 0,1000 l 261.549,0 "/>
<path d="M 0,1000 l 377.856,0 "/>
<path d="M 0,1000 l 609.169,0 "/>
<path d="M 0,1000 l 0,137.939 "/>
<path d="M 0,1000 l 100.979,119.575 "/>
<path d="M 0,1000 l 362.488,135.059 "/>
<path d="M 0,1000 l 439.452,147.704 "/>
<path d="M 0,1000 l 719.158,110.996 "/>
<path d="M 0,1000 l 0,232.135 "/>
<path d="M 0,1000 l 170.171,283.152 "/>
<path d="M 0,1000 l 264.272,230.992 "/>
<path d="M 0,1000 l 371.642,214.317 "/>
<path d="M 0,1000 l 511.76,286.937 "/>
<path d="M 0,1000 l 0,368.983 "/>
<path d="M 0,1000 l 190.119,593.366 "/>
<path d="M 0,1000 l 286.752,450.584 "/>
<path d="M 0,1000 l 426.464,347.539 "/>
<path d="M 0,1000 l 552.573,338.081 "/>
<path d="M 172.381,1000 l 89.1674,0 "/>
<path d="M 172.381,1000 l 205.474,0 "/>
<path d="M 172.381,1000 l 436.787,0 "/>
<path d="M 172.381,1000 l -172.381,137.939 "/>
<path d="M 172.381,1000 l -71.4022,119.575 "/>
<path d="M 172.381,1000 l 190.107,135.059 "/>
<path d="M 172.381,1000 l 267.07,147.704 "/>
<path d="M 172.381,1000 l 546.777,110.996 "/>
<path d="M 172.381,1000 l -172.381,232.135 "/>
<path d="M 172.381,1000 l -2.2104,283.152 "/>
<path d="M 172.381,1000 l 91.8912,230.992 "/>
<path d="M 172.381,1000 l 199.261,214.317 "/>
<path d="M 172.381,1000 l 339.378,286.937 "/>
<path d="M 172.381,1000 l -172.381,368.983 "/>
<path d="M 172.381,1000 l 17.7379,593.366 "/>
<path d="M 172.381,1000 l 114.371,450.584 "/>
<path d="M 172.381,1000 l 254.083,347.539 "/>
<path d="M 172.381,1000 l 380.192,338.081 "/>
<path d="M 261.549,1000 l 116.307,0 "/>
<path d="M 261.549,1000 l 347.62,0 "/>
<path d="M 261.549,1000 l -261.549,137.939 "/>
<path d="M 261.549,1000 l -160.57,119.575 "/>
<path d="M 261.549,1000 l 100.94,135.059 "/>
<path d="M 261.549,1000 l 177.903,147.704 "/>
<path d="M 261.549,1000 l 457.609,110.996 "/>
<path d="M 261.549,1000 l -261.549,232.135 "/>
<path d="M 261.549,1000 l -91.3778,283.152 "/>
<path d="M 261.549,1000 l 2.72382,230.992 "/>
<path d="M 261.549,1000 l 110.094,214.317 "/>
<path d="M 261.549,1000 l 250.211,286.937 "/>
<path d="M 261.549,1000 l -261.549,368.983 "/>
<path d="M 261.549,1000 l -71.4294,593.366 "/>
<path d="M 261.549,1000 l 25.2034,450.584 "/>
<path d="M 261.549,1000 l 164.916,347.539 "/>
<path d="M 261.549,1000 l 291.024,338.081 "/>
<path d="M 377.856,1000 l 231.313,0 "/>
<path d="M 377.856,1000 l -377.856,137.939 "/>
<path d="M 377.856,1000 l -276.877,119.575 "/>
<path d="M 377.856,1000 l -15.3674,135.059 "/>
<path d="M 377.856,1000 l 61.5957,147.704 "/>
<path d="M 377.856,1000 l 341.302,110.996 "/>
<path d="M 377.856,1000 l -377.856,232.135 "/>
<path d="M 377.856,1000 l -207.685,283.152 "/>
<path d="M 377.856,1000 l -113.583,230.992 "/>
<path d="M 377.856,1000 l -6.21357,214.317 "/>
<path d="M 377.856,1000 l 133.904,286.937 "/>
<path d="M 377.856,1000 l -377.856,368.983 "/>
<path d="M 377.856,1000 l -187.737,593.366 "/>
<path d="M 377.856,1000 l -91.1037,450.584 "/>
<path d="M 377.856,1000 l 48.6085,347.539 "/>
<path d="M 377.856,1000 l 174.717,338.081 "/>
<path d="M 609.169,1000 l -609.169,137.939 "/>
<path d="M 609.169,1000 l -508.19,119.575 "/>
<path d="M 609.169,1000 l -246.68,135.059 "/>
<path d="M 609.169,1000 l -169.717,147.704 "/>
<path d="M 609.169,1000 l 109.989,110.996 "/>
<path d="M 609.169,1000 l -609.169,232.135 "/>
<path d="M 609.169,1000 l -438.998,283.152 "/>
<path d="M 609.169,1000 l -344.896,230.992 "/>
<path d="M 609.169,1000 l -237.526,214.317 "/>
<path d="M 609.169,1000 l -97.4091,286.937 "/>
<path d="M 609.169,1000 l -609.169,368.983 "/>
<path d="M 609.169,1000 l -419.049,593.366 "/>
<path d="M 609.169,1000 l -322.417,450.584 "/>
<path d="M 609.169,1000 l -182.704,347.539 "/>
<path d="M 609.169,1000 l -56.5956,338.081 "/>
<path d="M 0,1137.94 l 100.979,-18.3648 "/>
<path d="M 0,1137.94 l 362.488,-2.88053 "/>
<path d="M 0,1137.94 l 439.452,9.76499 "/>
<path d="M 0,1137.94 l 719.158,-26.943 "/>
<path d="M 0,1137.94 l 0,94.196 "/>
<path d="M 0,1137.94 l 170.171,145.213 "/>
<path d="M 0,1137.94 l 264.272,93.0527 "/>
<path d="M 0,1137.94 l 371.642,76.3774 "/>
<path d="M 0,1137.94 l 511.76,148.998 "/>
<path d="M 0,1137.94 l 0,231.044 "/>
<path d="M 0,1137.94 l 190.119,455.427 "/>
<path d="M 0,1137.94 l 286.752,312.645 "/>
<path d="M 0,1137.94 l 426.464,209.599 "/>
<path d="M 0,1137.94 l 552.573,200.142 "/>
<path d="M 100.979,1119.57 l 261.509,15.4843 "/>
<path d="M 100.979,1119.57 l 338.472,28.1298 "/>
<path d="M 100.979,1119.57 l 618.179,-8.5782 "/>
<path d="M 100.979,1119.57 l -100.979,112.561 "/>
<path d="M 100.979,1119.57 l 69.1918,163.577 "/>
<path d="M 100.979,1119.57 l 163.293,111.418 "/>
<path d="M 100.979,1119.57 l 270.663,94.7422 "/>
<path d="M 100.979,1119.57 l 410.78,167.363 "/>
<path d="M 100.979,1119.57 l -100.979,249.409 "/>
<path d="M 100.979,1119.57 l 89.1401,473.792 "/>
<path d="M 100.979,1119.57 l 185.773,331.009 "/>
<path d="M 100.979,1119.57 l 325.485,227.964 "/>
<path d="M 100.979,1119.57 l 451.594,218.507 "/>
<path d="M 362.488,1135.06 l 76.9631,12.6455 "/>
<path d="M 362.488,1135.06 l 356.67,-24.0625 "/>
<path d="M 362.488,1135.06 l -362.488,97.0765 "/>
<path d="M 362.488,1135.06 l -192.318,148.093 "/>
<path d="M 362.488,1135.06 l -98.216,95.9332 "/>
<path d="M 362.488,1135.06 l 9.15379,79.2579 "/>
<path d="M 362.488,1135.06 l 149.271,151.878 "/>
<path d="M 362.488,1135.06 l -362.488,233.924 "/>
<path d="M 362.488,1135.06 l -172.369,458.307 "/>
<path d="M 362.488,1135.06 l -75.7364,315.525 "/>
<path d="M 362.488,1135.06 l 63.9759,212.48 "/>
<path d="M 362.488,1135.06 l 190.085,203.022 "/>
<path d="M 439.452,1147.7 l 279.707,-36.708 "/>
<path d="M 439.452,1147.7 l -439.452,84.431 "/>
<path d="M 439.452,1147.7 l -269.281,135.448 "/>
<path d="M 439.452,1147.7 l -175.179,83.2877 "/>
<path d="M 439.452,1147.7 l -67.8093,66.6124 "/>
<path d="M 439.452,1147.7 l 72.308,139.233 "/>
<path d="M 439.452,1147.7 l -439.452,221.279 "/>
<path d="M 439.452,1147.7 l -249.332,445.662 "/>
<path d="M 439.452,1147.7 l -152.699,302.88 "/>
<path d="M 439.452,1147.7 l -12.9872,199.834 "/>
<path d="M 439.452,1147.7 l 113.122,190.377 "/>
<path d="M 719.158,1111 l -719.158,121.139 "/>
<path d="M 719.158,1111 l -548.987,172.156 "/>
<path d="M 719.158,1111 l -454.886,119.996 "/>
<path d="M 719.158,1111 l -347.516,103.32 "/>
<path d="M 719.158,1111 l -207.398,175.941 "/>
<path d="M 719.158,1111 l -719.158,257.987 "/>
<path d="M 719.158,1111 l -529.039,482.37 "/>
<path d="M 719.158,1111 l -432.406,339.588 "/>
<path d="M 719.158,1111 l -292.694,236.542 "/>
<path d="M 719.158,1111 l -166.585,227.085 "/>
<path d="M 0,1232.14 l 170.171,51.0166 "/>
<path d="M 0,1232.14 l 264.272,-1.1433 "/>
<path d="M 0,1232.14 l 371.642,-17.8186 "/>
<path d="M 0,1232.14 l 511.76,54.8018 "/>
<path d="M 0,1232.14 l 0,136.848 "/>
<path d="M 0,1232.14 l 190.119,361.231 "/>
<path d="M 0,1232.14 l 286.752,218.449 "/>
<path d="M 0,1232.14 l 426.464,115.403 "/>
<path d="M 0,1232.14 l 552.573,105.946 "/>
<path d="M 170.171,1283.15 l 94.1016,-52.1599 "/>
<path d="M 170.171,1283.15 l 201.471,-68.8353 "/>
<path d="M 170.171,1283.15 l 341.589,3.78514 "/>
<path d="M 170.171,1283.15 l -170.171,85.8311 "/>
<path d="M 170.171,1283.15 l 19.9483,310.214 "/>
<path d="M 170.171,1283.15 l 116.581,167.432 "/>
<path d="M 170.171,1283.15 l 256.293,64.3867 "/>
<path d="M 170.171,1283.15 l 382.402,54.9292 "/>
<path d="M 264.272,1230.99 l 107.37,-16.6753 "/>
<path d="M 264.272,1230.99 l 247.487,55.9451 "/>
<path d="M 264.272,1230.99 l -264.272,137.991 "/>
<path d="M 264.272,1230.99 l -74.1532,362.374 "/>
<path d="M 264.272,1230.99 l 22.4796,219.592 "/>
<path d="M 264.272,1230.99 l 162.192,116.547 "/>
<path d="M 264.272,1230.99 l 288.301,107.089 "/>
<path d="M 371.642,1214.32 l 140.117,72.6204 "/>
<path d="M 371.642,1214.32 l -371.642,154.666 "/>
<path d="M 371.642,1214.32 l -181.523,379.049 "/>
<path d="M 371.642,1214.32 l -84.8902,236.267 "/>
<path d="M 371.642,1214.32 l 54.8221,133.222 "/>
<path d="M 371.642,1214.32 l 180.931,123.765 "/>
<path d="M 511.76,1286.94 l -511.76,82.046 "/>
<path d="M 511.76,1286.94 l -321.64,306.429 "/>
<path d="M 511.76,1286.94 l -225.007,163.647 "/>
<path d="M 511.76,1286.94 l -85.2953,60.6015 "/>
<path d="M 511.76,1286.94 l 40.8135,51.1441 "/>
<path d="M 0,1368.98 l 190.119,224.383 "/>
<path d="M 0,1368.98 l 286.752,81.6008 "/>
<path d="M 0,1368.98 l 426.464,-21.4445 "/>
<path d="M 0,1368.98 l 552.573,-30.9019 "/>
<path d="M 190.119,1593.37 l 96.6328,-142.782 "/>
<path d="M 190.119,1593.37 l 236.345,-245.828 "/>
<path d="M 190.119,1593.37 l 362.454,-255.285 "/>
<path d="M 286.752,1450.58 l 139.712,-103.045 "/>
<path d="M 286.752,1450.58 l 265.821,-112.503 "/>
<path d="M 426.464,1347.54 l 126.109,-9.45742 "/>
</g></g></svg>