<?xml version="1.0" encoding="UTF-8" standalone="no"?>
<!DOCTYPE svg PUBLIC "-//W3C//DTD SVG 1.1//EN" "http://www.w3.org/Graphics/SVG/1.1/DTD/svg11-flat.dtd"
[
<!ATTLIST g xmlns:fme CDATA #FIXED "http://www.safe.com/fme" >
<!ATTLIST path fme:_creation_instance CDATA #IMPLIED fme:i CDATA #IMPLIED >
<!ATTLIST ellipse fme:_creation_instance CDATA #IMPLIED fme:i CDATA #IMPLIED >
<!ATTLIST text fme:_creation_instance CDATA #IMPLIED fme:i CDATA #IMPLIED >
<!ATTLIST use fme:_creation_instance CDATA #IMPLIED fme:i CDATA #IMPLIED >
]>
<svg xmlns="http://www.w3.org/2000/svg"  viewBox="-9.0125 -9.0125 739.025 739.025"><g xmlns:fme="http://www.safe.com/fme" fill="none" stroke="black" stroke-width="0.090125" transform="translate(0,721) scale(1, -1)">
<g id="test" >
<path d="M 89,0 l -0.338672,7.75686 -1.01344,7.69783 -1.68049,7.58021 -2.33476,7.4049 -2.97125,7.17323 -3.58513,6.88697 -4.17173,6.5483 -4.72658,6.15979 -5.24545,5.72441 -5.72441,5.24545 -6.15979,4.72658 -6.5483,4.17173 -6.88697,3.58513 -7.17323,2.97125 -7.4049,2.33476 -7.58021,1.68049 -7.69783,1.01344 -7.75686,0.338672 0,2 7.93117,-0.346282 7.87081,-1.03621 7.75055,-1.71826 7.5713,-2.38722 7.33443,-3.03802 7.04174,-3.6657 6.69546,-4.26548 6.29822,-4.83279 5.85304,-5.36333 5.36333,-5.85304 4.83279,-6.29822 4.26548,-6.69546 3.6657,-7.04174 3.03802,-7.33443 2.38722,-7.5713 1.71826,-7.75055 1.03621,-7.87081 0.346282,-7.93117 -2,0 z "/>
<path d="M 179,0 l -0.338672,7.75686 -1.01344,7.69783 -1.68049,7.58021 -2.33476,7.4049 -2.97125,7.17323 -3.58513,6.88697 -4.17173,6.5483 -4.72658,6.15979 -5.24545,5.72441 -5.72441,5.24545 -6.15979,4.72658 -6.5483,4.17173 -6.88697,3.58513 -7.17323,2.97125 -7.4049,2.33476 -7.58021,1.68049 -7.69783,1.01344 -7.75686,0.338672 0,2 7.93117,-0.346282 7.87081,-1.03621 7.75055,-1.71826 7.5713,-2.38722 7.33443,-3.03802 7.04174,-3.6657 6.69546,-4.26548 6.29822,-4.83279 5.85304,-5.36333 5.36333,-5.85304 4.83279,-6.29822 4.26548,-6.69546 3.6657,-7.04174 3.03802,-7.33443 2.38722,-7.5713 1.71826,-7.75055 1.03621,-7.87081 0.346282,-7.93117 -2,0 z "/>
<path d="M 269,0 l -0.338672,7.75686 -1.01344,7.69783 -1.68049,7.58021 -2.33476,7.4049 -2.97125,7.17323 -3.58513,6.88697 -4.17173,6.5483 -4.72658,6.15979 -5.24545,5.72441 -5.72441,5.24545 -6.15979,4.72658 -6.5483,4.17173 -6.88697,3.58513 -7.17323,2.97125 -7.4049,2.33476 -7.58021,1.68049 -7.69783,1.01344 -7.75686,0.338672 0,2 7.93117,-0.346282 7.87081,-1.03621 7.75055,-1.71826 7.5713,-2.38722 7.33443,-3.03802 7.04174,-3.6657 6.69546,-4.26548 6.29822,-4.83279 5.85304,-5.36333 5.36333,-5.85304 4.83279,-6.29822 4.26548,-6.69546 3.6657,-7.04174 3.03802,-7.33443 2.38722,-7.5713 1.71826,-7.75055 1.03621,-7.87081 0.346282,-7.93117 -2,0 z "/>
<path d="M 359,0 l -0.338672,7.75686 -1.01344,7.69783 -1.68049,7.58021 -2.33476,7.4049 -2.97125,7.17323 -3.58513,6.88697 -4.17173,6.5483 -4.72658,6.15979 -5.24545,5.72441 -5.72441,5.24545 -6.15979,4.72658 -6.5483,4.17173 -6.88697,3.58513 -7.17323,2.97125 -7.4049,2.33476 -7.58021,1.68049 -7.69783,1.01344 -7.75686,0.338672 0,2 7.93117,-0.346282 7.87081,-1.03621 7.75055,-1.71826 7.5713,-2.38722 7.33443,-3.03802 7.04174,-3.6657 6.69546,-4.26548 6.29822,-4.83279 5.85304,-5.36333 5.36333,-5.85304 4.83279,-6.29822 4.26548,-6.69546 3.6657,-7.04174 3.03802,-7.33443 2.38722,-7.5713 1.71826,-7.75055 1.03621,-7.87081 0.346282,-7.93117 -2,0 z "/>
<path d="M 449,0 l -0.338672,7.75686 -1.01344,7.69783 -1.68049,7.58021 -2.33476,7.4049 -2.97125,7.17323 -3.58513,6.88697 -4.17173,6.5483 -4.72658,6.15979 -5.24545,5.72441 -5.72441,5.24545 -6.15979,4.72658 -6.5483,4.17173 -6.88697,3.58513 -7.17323,2.97125 -7.4049,2.33476 -7.58021,1.68049 -7.69783,1.01344 -7.75686,0.338672 0,2 7.93117,-0.346282 7.87081,-1.03621 7.75055,-1.71826 7.5713,-2.38722 7.33443,-3.03802 7.04174,-3.6657 6.69546,-4.26548 6.29822,-4.83279 5.85304,-5.36333 5.36333,-5.85304 4.83279,-6.29822 4.26548,-6.69546 3.6657,-7.04174 3.03802,-7.33443 2.38722,-7.5713 1.71826,-7.75055 1.03621,-7.87081 0.346282,-7.93117 -2,0 z "/>
<path d="M 539,0 l -0.338672,7.75686 -1.01344,7.69783 -1.68049,7.58021 -2.33476,7.4049 -2.97125,7.17323 -3.58513,6.88697 -4.17173,6.5483 -4.72658,6.15979 -5.24545,5.72441 -5.72441,5.24545 -6.15979,4.72658 -6.5483,4.17173 -6.88697,3.58513 -7.17323,2.97125 -7.4049,2.33476 -7.58021,1.68049 -7.69783,1.01344 -7.75686,0.338672 0,2 7.93117,-0.346282 7.87081,-1.03621 7.75055,-1.71826 7.5713,-2.38722 7.33443,-3.03802 7.04174,-3.6657 6.69546,-4.26548 6.29822,-4.83279 5.85304,-5.36333 5.36333,-5.85304 4.83279,-6.29822 4.26548,-6.69546 3.6657,-7.04174 3.03802,-7.33443 2.38722,-7.5713 1.71826,-7.75055 1.03621,-7.87081 0.346282,-7.93117 -2,0 z "/>
<path d="M 629,0 l -0.338672,7.75686 -1.01344,7.69783 -1.68049,7.58021 -2.33476,7.4049 -2.97125,7.17323 -3.58513,6.88697 -4.17173,6.5483 -4.72658,6.15979 -5.24545,5.72441 -5.72441,5.24545 -6.15979,4.72658 -6.5483,4.17173 -6.88697,3.58513 -7.17323,2.97125 -7.4049,2.33476 -7.58021,1.68049 -7.69783,1.01344 -7.75686,0.338672 0,2 7.93117,-0.346282 7.87081,-1.03621 7.75055,-1.71826 7.5713,-2.38722 7.33443,-3.03802 7.04174,-3.6657 6.69546,-4.26548 6.29822,-4.83279 5.85304,-5.36333 5.36333,-5.85304 4.83279,-6.29822 4.26548,-6.69546 3.6657,-7.04174 3.03802,-7.33443 2.38722,-7.5713 1.71826,-7.75055 1.03621,-7.87081 0.346282,-7.93117 -2,0 z "/>
<path d="M 719,0 l -0.338672,7.75686 -1.01344,7.69783 -1.68049,7.58021 -2.33476,7.4049 -2.97125,7.17323 -3.58513,6.88697 -4.17173,6.5483 -4.72658,6.15979 -5.24545,5.72441 -5.72441,5.24545 -6.15979,4.72658 -6.5483,4.17173 -6.88697,3.58513 -7.17323,2.97125 -7.4049,2.33476 -7.58021,1.68049 -7.69783,1.01344 -7.75686,0.338672 0,2 7.93117,-0.346282 7.87081,-1.03621 7.75055,-1.71826 7.5713,-2.38722 7.33443,-3.03802 7.04174,-3.6657 6.69546,-4.26548 6.29822,-4.83279 5.85304,-5.36333 5.36333,-5.85304 4.83279,-6.29822 4.26548,-6.69546 3.6657,-7.04174 3.03802,-7.33443 2.38722,-7.5713 1.71826,-7.75055 1.03621,-7.87081 0.346282,-7.93117 -2,0 z "/>
<path d="M 89,90 l -0.338672,7.75686 -1.01344,7.69783 -1.68049,7.58021 -2.33476,7.4049 -2.97125,7.17323 -3.58513,6.88697 -4.17173,6.5483 -4.72658,6.15979 -5.24545,5.72441 -5.72441,5.24545 -6.15979,4.72658 -6.5483,4.17173 -6.88697,3.58513 -7.17323,2.97125 -7.4049,2.33476 -7.58021,1.68049 -7.69783,1.01344 -7.75686,0.338672 0,2 7.93117,-0.346282 7.87081,-1.03621 7.75055,-1.71826 7.5713,-2.38722 7.33443,-3.03802 7.04174,-3.6657 6.69546,-4.26548 6.29822,-4.83279 5.85304,-5.36333 5.36333,-5.85304 4.83279,-6.29822 4.26548,-6.69546 3.6657,-7.04174 3.03802,-7.33443 2.38722,-7.5713 1.71826,-7.75055 1.03621,-7.87081 0.346282,-7.93117 -2,0 z "/>
<path d="M 179,90 l -0.338672,7.75686 -1.01344,7.69783 -1.68049,7.58021 -2.33476,7.4049 -2.97125,7.17323 -3.58513,6.88697 -4.17173,6.5483 -4.72658,6.15979 -5.24545,5.72441 -5.72441,5.24545 -6.15979,4.72658 -6.5483,4.17173 -6.88697,3.58513 -7.17323,2.97125 -7.4049,2.33476 -7.58021,1.68049 -7.69783,1.01344 -7.75686,0.338672 0,2 7.93117,-0.346282 7.87081,-1.03621 7.75055,-1.71826 7.5713,-2.38722 7.33443,-3.03802 7.04174,-3.6657 6.69546,-4.26548 6.29822,-4.83279 5.85304,-5.36333 5.36333,-5.85304 4.83279,-6.29822 4.26548,-6.69546 3.6657,-7.04174 3.03802,-7.33443 2.38722,-7.5713 1.71826,-7.75055 1.03621,-7.87081 0.346282,-7.93117 -2,0 z "/>
<path d="M 269,90 l -0.338672,7.75686 -1.01344,7.69783 -1.68049,7.58021 -2.33476,7.4049 -2.97125,7.17323 -3.58513,6.88697 -4.17173,6.5483 -4.72658,6.15979 -5.24545,5.72441 -5.72441,5.24545 -6.15979,4.72658 -6.5483,4.17173 -6.88697,3.58513 -7.17323,2.97125 -7.4049,2.33476 -7.58021,1.68049 -7.69783,1.01344 -7.75686,0.338672 0,2 7.93117,-0.346282 7.87081,-1.03621 7.75055,-1.71826 7.5713,-2.38722 7.33443,-3.03802 7.04174,-3.6657 6.69546,-4.26548 6.29822,-4.83279 5.85304,-5.36333 5.36333,-5.85304 4.83279,-6.29822 4.26548,-6.69546 3.6657,-7.04174 3.03802,-7.33443 2.38722,-7.5713 1.71826,-7.75055 1.03621,-7.87081 0.346282,-7.93117 -2,0 z "/>
<path d="M 359,90 l -0.338672,7.75686 -1.01344,7.69783 -1.68049,7.58021 -2.33476,7.4049 -2.97125,7.17323 -3.58513,6.88697 -4.17173,6.5483 -4.72658,6.15979 -5.24545,5.72441 -5.72441,5.24545 -6.15979,4.72658 -6.5483,4.17173 -6.88697,3.58513 -7.17323,2.97125 -7.4049,2.33476 -7.58021,1.68049 -7.69783,1.01344 -7.75686,0.338672 0,2 7.93117,-0.346282 7.87081,-1.03621 7.75055,-1.71826 7.5713,-2.38722 7.33443,-3.03802 7.04174,-3.6657 6.69546,-4.26548 6.29822,-4.83279 5.85304,-5.36333 5.36333,-5.85304 4.83279,-6.29822 4.26548,-6.69546 3.6657,-7.04174 3.03802,-7.33443 2.38722,-7.5713 1.71826,-7.75055 1.03621,-7.87081 0.346282,-7.93117 -2,0 z "/>
<path d="M 449,90 l -0.338672,7.75686 -1.01344,7.69783 -1.68049,7.58021 -2.33476,7.4049 -2.97125,7.17323 -3.58513,6.88697 -4.17173,6.5483 -4.72658,6.15979 -5.24545,5.72441 -5.72441,5.24545 -6.15979,4.72658 -6.5483,4.17173 -6.88697,3.58513 -7.17323,2.97125 -7.4049,2.33476 -7.58021,1.68049 -7.69783,1.01344 -7.75686,0.338672 0,2 7.93117,-0.346282 7.87081,-1.03621 7.75055,-1.71826 7.5713,-2.38722 7.33443,-3.03802 7.04174,-3.6657 6.69546,-4.26548 6.29822,-4.83279 5.85304,-5.36333 5.36333,-5.85304 4.83279,-6.29822 4.26548,-6.69546 3.6657,-7.04174 3.03802,-7.33443 2.38722,-7.5713 1.71826,-7.75055 1.03621,-7.87081 0.346282,-7.93117 -2,0 z "/>
<path d="M 539,90 l -0.338672,7.75686 -1.01344,7.69783 -1.68049,7.58021 -2.33476,7.4049 -2.97125,7.17323 -3.58513,6.88697 -4.17173,6.5483 -4.72658,6.15979 -5.24545,5.72441 -5.72441,5.24545 -6.15979,4.72658 -6.5483,4.17173 -6.88697,3.58513 -7.17323,2.97125 -7.4049,2.33476 -7.58021,1.68049 -7.69783,1.01344 -7.75686,0.338672 0,2 7.93117,-0.346282 7.87081,-1.03621 7.75055,-1.71826 7.5713,-2.38722 7.33443,-3.03802 7.04174,-3.6657 6.69546,-4.26548 6.29822,-4.83279 5.85304,-5.36333 5.36333,-5.85304 4.83279,-6.29822 4.26548,-6.69546 3.6657,-7.04174 3.03802,-7.33443 2.38722,-7.5713 1.71826,-7.75055 1.03621,-7.87081 0.346282,-7.93117 -2,0 z "/>
<path d="M 629,90 l -0.338672,7.75686 -1.01344,7.69783 -1.68049,7.58021 -2.33476,7.4049 -2.97125,7.17323 -3.58513,6.88697 -4.17173,6.5483 -4.72658,6.15979 -5.24545,5.72441 -5.72441,5.24545 -6.15979,4.72658 -6.5483,4.17173 -6.88697,3.58513 -7.17323,2.97125 -7.4049,2.33476 -7.58021,1.68049 -7.69783,1.01344 -7.75686,0.338672 0,2 7.93117,-0.346282 7.87081,-1.03621 7.75055,-1.71826 7.5713,-2.38722 7.33443,-3.03802 7.04174,-3.6657 6.69546,-4.26548 6.29822,-4.83279 5.85304,-5.36333 5.36333,-5.85304 4.83279,-6.29822 4.26548,-6.69546 3.6657,-7.04174 3.03802,-7.33443 2.38722,-7.5713 1.71826,-7.75055 1.03621,-7.87081 0.346282,-7.93117 -2,0 z "/>
<path d="M 719,90 l -0.338672,7.75686 -1.01344,7.69783 -1.68049,7.58021 -2.33476,7.4049 -2.97125,7.17323 -3.58513,6.88697 -4.17173,6.5483 -4.72658,6.15979 -5.24545,5.72441 -5.72441,5.24545 -6.15979,4.72658 -6.5483,4.17173 -6.88697,3.58513 -7.17323,2.97125 -7.4049,2.33476 -7.58021,1.68049 -7.69783,1.01344 -7.75686,0.338672 0,2 7.93117,-0.346282 7.87081,-1.03621 7.75055,-1.71826 7.5713,-2.38722 7.33443,-3.03802 7.04174,-3.6657 6.69546,-4.26548 6.29822,-4.83279 5.85304,-5.36333 5.36333,-5.85304 4.83279,-6.29822 4.26548,-6.69546 3.6657,-7.04174 3.03802,-7.33443 2.38722,-7.5713 1.71826,-7.75055 1.03621,-7.87081 0.346282,-7.93117 -2,0 z "/>
<path d="M 89,180 l -0.338672,7.75686 -1.01344,7.69783 -1.68049,7.58021 -2.33476,7.4049 -2.97125,7.17323 -3.58513,6.88697 -4.17173,6.5483 -4.72658,6.15979 -5.24545,5.72441 -5.72441,5.24545 -6.15979,4.72658 -6.5483,4.17173 -6.88697,3.58513 -7.17323,2.97125 -7.4049,2.33476 -7.58021,1.68049 -7.69783,1.01344 -7.75686,0.338672 0,2 7.93117,-0.346282 7.87081,-1.03621 7.75055,-1.71826 7.5713,-2.38722 7.33443,-3.03802 7.04174,-3.6657 6.69546,-4.26548 6.29822,-4.83279 5.85304,-5.36333 5.36333,-5.85304 4.83279,-6.29822 4.26548,-6.69546 3.6657,-7.04174 3.03802,-7.33443 2.38722,-7.5713 1.71826,-7.75055 1.03621,-7.87081 0.346282,-7.93117 -2,0 z "/>
<path d="M 179,180 l -0.338672,7.75686 -1.01344,7.69783 -1.68049,7.58021 -2.33476,7.4049 -2.97125,7.17323 -3.58513,6.88697 -4.17173,6.5483 -4.72658,6.15979 -5.24545,5.72441 -5.72441,5.24545 -6.15979,4.72658 -6.5483,4.17173 -6.88697,3.58513 -7.17323,2.97125 -7.4049,2.33476 -7.58021,1.68049 -7.69783,1.01344 -7.75686,0.338672 0,2 7.93117,-0.346282 7.87081,-1.03621 7.75055,-1.71826 7.5713,-2.38722 7.33443,-3.03802 7.04174,-3.6657 6.69546,-4.26548 6.29822,-4.83279 5.85304,-5.36333 5.36333,-5.85304 4.83279,-6.29822 4.26548,-6.69546 3.6657,-7.04174 3.03802,-7.33443 2.38722,-7.5713 1.71826,-7.75055 1.03621,-7.87081 0.346282,-7.93117 -2,0 z "/>
<path d="M 269,180 l -0.338672,7.75686 -1.01344,7.69783 -1.68049,7.58021 -2.33476,7.4049 -2.97125,7.17323 -3.58513,6.88697 -4.17173,6.5483 -4.72658,6.15979 -5.24545,5.72441 -5.72441,5.24545 -6.15979,4.72658 -6.5483,4.17173 -6.88697,3.58513 -7.17323,2.97125 -7.4049,2.33476 -7.58021,1.68049 -7.69783,1.01344 -7.75686,0.338672 0,2 7.93117,-0.346282 7.87081,-1.03621 7.75055,-1.71826 7.5713,-2.38722 7.33443,-3.03802 7.04174,-3.6657 6.69546,-4.26548 6.29822,-4.83279 5.85304,-5.36333 5.36333,-5.85304 4.83279,-6.29822 4.26548,-6.69546 3.6657,-7.04174 3.03802,-7.33443 2.38722,-7.5713 1.71826,-7.75055 1.03621,-7.87081 0.346282,-7.93117 -2,0 z "/>
<path d="M 359,180 l -0.338672,7.75686 -1.01344,7.69783 -1.68049,7.58021 -2.33476,7.4049 -2.97125,7.17323 -3.58513,6.88697 -4.17173,6.5483 -4.72658,6.15979 -5.24545,5.72441 -5.72441,5.24545 -6.15979,4.72658 -6.5483,4.17173 -6.88697,3.58513 -7.17323,2.97125 -7.4049,2.33476 -7.58021,1.68049 -7.69783,1.01344 -7.75686,0.338672 0,2 7.93117,-0.346282 7.87081,-1.03621 7.75055,-1.71826 7.5713,-2.38722 7.33443,-3.03802 7.04174,-3.6657 6.69546,-4.26548 6.29822,-4.83279 5.85304,-5.36333 5.36333,-5.85304 4.83279,-6.29822 4.26548,-6.69546 3.6657,-7.04174 3.03802,-7.33443 2.38722,-7.5713 1.71826,-7.75055 1.03621,-7.87081 0.346282,-7.93117 -2,0 z "/>
<path d="M 449,180 l -0.338672,7.75686 -1.01344,7.69783 -1.68049,7.58021 -2.33476,7.4049 -2.97125,7.17323 -3.58513,6.88697 -4.17173,6.5483 -4.72658,6.15979 -5.24545,5.72441 -5.72441,5.24545 -6.15979,4.72658 -6.5483,4.17173 -6.88697,3.58513 -7.17323,2.97125 -7.4049,2.33476 -7.58021,1.68049 -7.69783,1.01344 -7.75686,0.338672 0,2 7.93117,-0.346282 7.87081,-1.03621 7.75055,-1.71826 7.5713,-2.38722 7.33443,-3.03802 7.04174,-3.6657 6.69546,-4.26548 6.29822,-4.83279 5.85304,-5.36333 5.36333,-5.85304 4.83279,-6.29822 4.26548,-6.69546 3.6657,-7.04174 3.03802,-7.33443 2.38722,-7.5713 1.71826,-7.75055 1.03621,-7.87081 0.346282,-7.93117 -2,0 z "/>
<path d="M 539,180 l -0.338672,7.75686 -1.01344,7.69783 -1.68049,7.58021 -2.33476,7.4049 -2.97125,7.17323 -3.58513,6.88697 -4.17173,6.5483 -4.72658,6.15979 -5.24545,5.72441 -5.72441,5.24545 -6.15979,4.72658 -6.5483,4.17173 -6.88697,3.58513 -7.17323,2.97125 -7.4049,2.33476 -7.58021,1.68049 -7.69783,1.01344 -7.75686,0.338672 0,2 7.93117,-0.346282 7.87081,-1.03621 7.75055,-1.71826 7.5713,-2.38722 7.33443,-3.03802 7.04174,-3.6657 6.69546,-4.26548 6.29822,-4.83279 5.85304,-5.36333 5.36333,-5.85304 4.83279,-6.29822 4.26548,-6.69546 3.6657,-7.04174 3.03802,-7.33443 2.38722,-7.5713 1.71826,-7.75055 1.03621,-7.87081 0.346282,-7.93117 -2,0 z "/>
<path d="M 629,180 l -0.338672,7.75686 -1.01344,7.69783 -1.68049,7.58021 -2.33476,7.4049 -2.97125,7.17323 -3.58513,6.88697 -4.17173,6.5483 -4.72658,6.15979 -5.24545,5.72441 -5.72441,5.24545 -6.15979,4.72658 -6.5483,4.17173 -6.88697,3.58513 -7.17323,2.97125 -7.4049,2.33476 -7.58021,1.68049 -7.69783,1.01344 -7.75686,0.338672 0,2 7.93117,-0.346282 7.87081,-1.03621 7.75055,-1.71826 7.5713,-2.38722 7.33443,-3.03802 7.04174,-3.6657 6.69546,-4.26548 6.29822,-4.83279 5.85304,-5.36333 5.36333,-5.85304 4.83279,-6.29822 4.26548,-6.69546 3.6657,-7.04174 3.03802,-7.33443 2.38722,-7.5713 1.71826,-7.75055 1.03621,-7.87081 0.346282,-7.93117 -2,0 z "/>
<path d="M 719,180 l -0.338672,7.75686 -1.01344,7.69783 -1.68049,7.58021 -2.33476,7.4049 -2.97125,7.17323 -3.58513,6.88697 -4.17173,6.5483 -4.72658,6.15979 -5.24545,5.72441 -5.72441,5.24545 -6.15979,4.72658 -6.5483,4.17173 -6.88697,3.58513 -7.17323,2.97125 -7.4049,2.33476 -7.58021,1.68049 -7.69783,1.01344 -7.75686,0.338672 0,2 7.93117,-0.346282 7.87081,-1.03621 7.75055,-1.71826 7.5713,-2.38722 7.33443,-3.03802 7.04174,-3.6657 6.69546,-4.26548 6.29822,-4.83279 5.85304,-5.36333 5.36333,-5.85304 4.83279,-6.29822 4.26548,-6.69546 3.6657,-7.04174 3.03802,-7.33443 2.38722,-7.5713 1.71826,-7.75055 1.03621,-7.87081 0.346282,-7.93117 -2,0 z "/>
<path d="M 89,270 l -0.338672,7.75686 -1.01344,7.69783 -1.68049,7.58021 -2.33476,7.4049 -2.97125,7.17323 -3.58513,6.88697 -4.17173,6.5483 -4.72658,6.15979 -5.24545,5.72441 -5.72441,5.24545 -6.15979,4.72658 -6.5483,4.17173 -6.88697,3.58513 -7.17323,2.97125 -7.4049,2.33476 -7.58021,1.68049 -7.69783,1.01344 -7.75686,0.338672 0,2 7.93117,-0.346282 7.87081,-1.03621 7.75055,-1.71826 7.5713,-2.38722 7.33443,-3.03802 7.04174,-3.6657 6.69546,-4.26548 6.29822,-4.83279 5.85304,-5.36333 5.36333,-5.85304 4.83279,-6.29822 4.26548,-6.69546 3.6657,-7.04174 3.03802,-7.33443 2.38722,-7.5713 1.71826,-7.75055 1.03621,-7.87081 0.346282,-7.93117 -2,0 z "/>
<path d="M 179,270 l -0.338672,7.75686 -1.01344,7.69783 -1.68049,7.58021 -2.33476,7.4049 -2.97125,7.17323 -3.58513,6.88697 -4.17173,6.5483 -4.72658,6.15979 -5.24545,5.72441 -5.72441,5.24545 -6.15979,4.72658 -6.5483,4.17173 -6.88697,3.58513 -7.17323,2.97125 -7.4049,2.33476 -7.58021,1.68049 -7.69783,1.01344 -7.75686,0.338672 0,2 7.93117,-0.346282 7.87081,-1.03621 7.75055,-1.71826 7.5713,-2.38722 7.33443,-3.03802 7.04174,-3.6657 6.69546,-4.26548 6.29822,-4.83279 5.85304,-5.36333 5.36333,-5.85304 4.83279,-6.29822 4.26548,-6.69546 3.6657,-7.04174 3.03802,-7.33443 2.38722,-7.5713 1.71826,-7.75055 1.03621,-7.87081 0.346282,-7.93117 -2,0 z "/>
<path d="M 269,270 l -0.338672,7.75686 -1.01344,7.69783 -1.68049,7.58021 -2.33476,7.4049 -2.97125,7.17323 -3.58513,6.88697 -4.17173,6.5483 -4.72658,6.15979 -5.24545,5.72441 -5.72441,5.24545 -6.15979,4.72658 -6.5483,4.17173 -6.88697,3.58513 -7.17323,2.97125 -7.4049,2.33476 -7.58021,1.68049 -7.69783,1.01344 -7.75686,0.338672 0,2 7.93117,-0.346282 7.87081,-1.03621 7.75055,-1.71826 7.5713,-2.38722 7.33443,-3.03802 7.04174,-3.6657 6.69546,-4.26548 6.29822,-4.83279 5.85304,-5.36333 5.36333,-5.85304 4.83279,-6.29822 4.26548,-6.69546 3.6657,-7.04174 3.03802,-7.33443 2.38722,-7.5713 1.71826,-7.75055 1.03621,-7.87081 0.346282,-7.93117 -2,0 z "/>
<path d="M 359,270 l -0.338672,7.75686 -1.01344,7.69783 -1.68049,7.58021 -2.33476,7.4049 -2.97125,7.17323 -3.58513,6.88697 -4.17173,6.5483 -4.72658,6.15979 -5.24545,5.72441 -5.72441,5.24545 -6.15979,4.72658 -6.5483,4.17173 -6.88697,3.58513 -7.17323,2.97125 -7.4049,2.33476 -7.58021,1.68049 -7.69783,1.01344 -7.75686,0.338672 0,2 7.93117,-0.346282 7.87081,-1.03621 7.75055,-1.71826 7.5713,-2.38722 7.33443,-3.03802 7.04174,-3.6657 6.69546,-4.26548 6.29822,-4.83279 5.85304,-5.36333 5.36333,-5.85304 4.83279,-6.29822 4.26548,-6.69546 3.6657,-7.04174 3.03802,-7.33443 2.38722,-7.5713 1.71826,-7.75055 1.03621,-7.87081 0.346282,-7.93117 -2,0 z "/>
<path d="M 449,270 l -0.338672,7.75686 -1.01344,7.69783 -1.68049,7.58021 -2.33476,7.4049 -2.97125,7.17323 -3.58513,6.88697 -4.17173,6.5483 -4.72658,6.15979 -5.24545,5.72441 -5.72441,5.24545 -6.15979,4.72658 -6.5483,4.17173 -6.88697,3.58513 -7.17323,2.97125 -7.4049,2.33476 -7.58021,1.68049 -7.69783,1.01344 -7.75686,0.338672 0,2 7.93117,-0.346282 7.87081,-1.03621 7.75055,-1.71826 7.5713,-2.38722 7.33443,-3.03802 7.04174,-3.6657 6.69546,-4.26548 6.29822,-4.83279 5.85304,-5.36333 5.36333,-5.85304 4.83279,-6.29822 4.26548,-6.69546 3.6657,-7.04174 3.03802,-7.33443 2.38722,-7.5713 1.71826,-7.75055 1.03621,-7.87081 0.346282,-7.93117 -2,0 z "/>
<path d="M 539,270 l -0.338672,7.75686 -1.01344,7.69783 -1.68049,7.58021 -2.33476,7.4049 -2.97125,7.17323 -3.58513,6.88697 -4.17173,6.5483 -4.72658,6.15979 -5.24545,5.72441 -5.72441,5.24545 -6.15979,4.72658 -6.5483,4.17173 -6.88697,3.58513 -7.17323,2.97125 -7.4049,2.33476 -7.58021,1.68049 -7.69783,1.01344 -7.75686,0.338672 0,2 7.93117,-0.346282 7.87081,-1.03621 7.75055,-1.71826 7.5713,-2.38722 7.33443,-3.03802 7.04174,-3.6657 6.69546,-4.26548 6.29822,-4.83279 5.85304,-5.36333 5.36333,-5.85304 4.83279,-6.29822 4.26548,-6.69546 3.6657,-7.04174 3.03802,-7.33443 2.38722,-7.5713 1.71826,-7.75055 1.03621,-7.87081 0.346282,-7.93117 -2,0 z "/>
<path d="M 629,270 l -0.338672,7.75686 -1.01344,7.69783 -1.68049,7.58021 -2.33476,7.4049 -2.97125,7.17323 -3.58513,6.88697 -4.17173,6.5483 -4.72658,6.15979 -5.24545,5.72441 -5.72441,5.24545 -6.15979,4.72658 -6.5483,4.17173 -6.88697,3.58513 -7.17323,2.97125 -7.4049,2.33476 -7.58021,1.68049 -7.69783,1.01344 -7.75686,0.338672 0,2 7.93117,-0.346282 7.87081,-1.03621 7.75055,-1.71826 7.5713,-2.38722 7.33443,-3.03802 7.04174,-3.6657 6.69546,-4.26548 6.29822,-4.83279 5.85304,-5.36333 5.36333,-5.85304 4.83279,-6.29822 4.26548,-6.69546 3.6657,-7.04174 3.03802,-7.33443 2.38722,-7.5713 1.71826,-7.75055 1.03621,-7.87081 0.346282,-7.93117 -2,0 z "/>
<path d="M 719,270 l -0.338672,7.75686 -1.01344,7.69783 -1.68049,7.58021 -2.33476,7.4049 -2.97125,7.17323 -3.58513,6.88697 -4.17173,6.5483 -4.72658,6.15979 -5.24545,5.72441 -5.72441,5.24545 -6.15979,4.72658 -6.5483,4.17173 -6.88697,3.58513 -7.17323,2.97125 -7.4049,2.33476 -7.58021,1.68049 -7.69783,1.01344 -7.75686,0.338672 0,2 7.93117,-0.346282 7.87081,-1.03621 7.75055,-1.71826 7.5713,-2.38722 7.33443,-3.03802 7.04174,-3.6657 6.69546,-4.26548 6.29822,-4.83279 5.85304,-5.36333 5.36333,-5.85304 4.83279,-6.29822 4.26548,-6.69546 3.6657,-7.04174 3.03802,-7.33443 2.38722,-7.5713 1.71826,-7.75055 1.03621,-7.87081 0.346282,-7.93117 -2,0 z "/>
<path d="M 89,360 l -0.338672,7.75686 -1.01344,7.69783 -1.68049,7.58021 -2.33476,7.4049 -2.97125,7.17323 -3.58513,6.88697 -4.17173,6.5483 -4.72658,6.15979 -5.24545,5.72441 -5.72441,5.24545 -6.15979,4.72658 -6.5483,4.17173 -6.88697,3.58513 -7.17323,2.97125 -7.4049,2.33476 -7.58021,1.68049 -7.69783,1.01344 -7.75686,0.338672 0,2 7.93117,-0.346282 7.87081,-1.03621 7.75055,-1.71826 7.5713,-2.38722 7.33443,-3.03802 7.04174,-3.6657 6.69546,-4.26548 6.29822,-4.83279 5.85304,-5.36333 5.36333,-5.85304 4.83279,-6.29822 4.26548,-6.69546 3.6657,-7.04174 3.03802,-7.33443 2.38722,-7.5713 1.71826,-7.75055 1.03621,-7.87081 0.346282,-7.93117 -2,0 z "/>
<path d="M 179,360 l -0.338672,7.75686 -1.01344,7.69783 -1.68049,7.58021 -2.33476,7.4049 -2.97125,7.17323 -3.58513,6.88697 -4.17173,6.5483 -4.72658,6.15979 -5.24545,5.72441 -5.72441,5.24545 -6.15979,4.72658 -6.5483,4.17173 -6.88697,3.58513 -7.17323,2.97125 -7.4049,2.33476 -7.58021,1.68049 -7.69783,1.01344 -7.75686,0.338672 0,2 7.93117,-0.346282 7.87081,-1.03621 7.75055,-1.71826 7.5713,-2.38722 7.33443,-3.03802 7.04174,-3.6657 6.69546,-4.26548 6.29822,-4.83279 5.85304,-5.36333 5.36333,-5.85304 4.83279,-6.29822 4.26548,-6.69546 3.6657,-7.04174 3.03802,-7.33443 2.38722,-7.5713 1.71826,-7.75055 1.03621,-7.87081 0.346282,-7.93117 -2,0 z "/>
<path d="M 269,360 l -0.338672,7.75686 -1.01344,7.69783 -1.68049,7.58021 -2.33476,7.4049 -2.97125,7.17323 -3.58513,6.88697 -4.17173,6.5483 -4.72658,6.15979 -5.24545,5.72441 -5.72441,5.24545 -6.15979,4.72658 -6.5483,4.17173 -6.88697,3.58513 -7.17323,2.97125 -7.4049,2.33476 -7.58021,1.68049 -7.69783,1.01344 -7.75686,0.338672 0,2 7.93117,-0.346282 7.87081,-1.03621 7.75055,-1.71826 7.5713,-2.38722 7.33443,-3.03802 7.04174,-3.6657 6.69546,-4.26548 6.29822,-4.83279 5.85304,-5.36333 5.36333,-5.85304 4.83279,-6.29822 4.26548,-6.69546 3.6657,-7.04174 3.03802,-7.33443 2.38722,-7.5713 1.71826,-7.75055 1.03621,-7.87081 0.346282,-7.93117 -2,0 z "/>
<path d="M 359,360 l -0.338672,7.75686 -1.01344,7.69783 -1.68049,7.58021 -2.33476,7.4049 -2.97125,7.17323 -3.58513,6.88697 -4.17173,6.5483 -4.72658,6.15979 -5.24545,5.72441 -5.72441,5.24545 -6.15979,4.72658 -6.5483,4.17173 -6.88697,3.58513 -7.17323,2.97125 -7.4049,2.33476 -7.58021,1.68049 -7.69783,1.01344 -7.75686,0.338672 0,2 7.93117,-0.346282 7.87081,-1.03621 7.75055,-1.71826 7.5713,-2.38722 7.33443,-3.03802 7.04174,-3.6657 6.69546,-4.26548 6.29822,-4.83279 5.85304,-5.36333 5.36333,-5.85304 4.83279,-6.29822 4.26548,-6.69546 3.6657,-7.04174 3.03802,-7.33443 2.38722,-7.5713 1.71826,-7.75055 1.03621,-7.87081 0.346282,-7.93117 -2,0 z "/>
<path d="M 449,360 l -0.338672,7.75686 -1.01344,7.69783 -1.68049,7.58021 -2.33476,7.4049 -2.97125,7.17323 -3.58513,6.88697 -4.17173,6.5483 -4.72658,6.15979 -5.24545,5.72441 -5.72441,5.24545 -6.15979,4.72658 -6.5483,4.17173 -6.88697,3.58513 -7.17323,2.97125 -7.4049,2.33476 -7.58021,1.68049 -7.69783,1.01344 -7.75686,0.338672 0,2 7.93117,-0.346282 7.87081,-1.03621 7.75055,-1.71826 7.5713,-2.38722 7.33443,-3.03802 7.04174,-3.6657 6.69546,-4.26548 6.29822,-4.83279 5.85304,-5.36333 5.36333,-5.85304 4.83279,-6.29822 4.26548,-6.69546 3.6657,-7.04174 3.03802,-7.33443 2.38722,-7.5713 1.71826,-7.75055 1.03621,-7.87081 0.346282,-7.93117 -2,0 z "/>
<path d="M 539,360 l -0.338672,7.75686 -1.01344,7.69783 -1.68049,7.58021 -2.33476,7.4049 -2.97125,7.17323 -3.58513,6.88697 -4.17173,6.5483 -4.72658,6.15979 -5.24545,5.72441 -5.72441,5.24545 -6.15979,4.72658 -6.5483,4.17173 -6.88697,3.58513 -7.17323,2.97125 -7.4049,2.33476 -7.58021,1.68049 -7.69783,1.01344 -7.75686,0.338672 0,2 7.93117,-0.346282 7.87081,-1.03621 7.75055,-1.71826 7.5713,-2.38722 7.33443,-3.03802 7.04174,-3.6657 6.69546,-4.26548 6.29822,-4.83279 5.85304,-5.36333 5.36333,-5.85304 4.83279,-6.29822 4.26548,-6.69546 3.6657,-7.04174 3.03802,-7.33443 2.38722,-7.5713 1.71826,-7.75055 1.03621,-7.87081 0.346282,-7.93117 -2,0 z "/>
<path d="M 629,360 l -0.338672,7.75686 -1.01344,7.69783 -1.68049,7.58021 -2.33476,7.4049 -2.97125,7.17323 -3.58513,6.88697 -4.17173,6.5483 -4.72658,6.15979 -5.24545,5.72441 -5.72441,5.24545 -6.15979,4.72658 -6.5483,4.17173 -6.88697,3.58513 -7.17323,2.97125 -7.4049,2.33476 -7.58021,1.68049 -7.69783,1.01344 -7.75686,0.338672 0,2 7.93117,-0.346282 7.87081,-1.03621 7.75055,-1.71826 7.5713,-2.38722 7.33443,-3.03802 7.04174,-3.6657 6.69546,-4.26548 6.29822,-4.83279 5.85304,-5.36333 5.36333,-5.85304 4.83279,-6.29822 4.26548,-6.69546 3.6657,-7.04174 3.03802,-7.33443 2.38722,-7.5713 1.71826,-7.75055 1.03621,-7.87081 0.346282,-7.93117 -2,0 z "/>
<path d="M 719,360 l -0.338672,7.75686 -1.01344,7.69783 -1.68049,7.58021 -2.33476,7.4049 -2.97125,7.17323 -3.58513,6.88697 -4.17173,6.5483 -4.72658,6.15979 -5.24545,5.72441 -5.72441,5.24545 -6.15979,4.72658 -6.5483,4.17173 -6.88697,3.58513 -7.17323,2.97125 -7.4049,2.33476 -7.58021,1.68049 -7.69783,1.01344 -7.75686,0.338672 0,2 7.93117,-0.346282 7.87081,-1.03621 7.75055,-1.71826 7.5713,-2.38722 7.33443,-3.03802 7.04174,-3.6657 6.69546,-4.26548 6.29822,-4.83279 5.85304,-5.36333 5.36333,-5.85304 4.83279,-6.29822 4.26548,-6.69546 3.6657,-7.04174 3.03802,-7.33443 2.38722,-7.5713 1.71826,-7.75055 1.03621,-7.87081 0.346282,-7.93117 -2,0 z "/>
<path d="M 89,450 l -0.338672,7.75686 -1.01344,7.69783 -1.68049,7.58021 -2.33476,7.4049 -2.97125,7.17323 -3.58513,6.88697 -4.17173,6.5483 -4.72658,6.15979 -5.24545,5.72441 -5.72441,5.24545 -6.15979,4.72658 -6.5483,4.17173 -6.88697,3.58513 -7.17323,2.97125 -7.4049,2.33476 -7.58021,1.68049 -7.69783,1.01344 -7.75686,0.338672 0,2 7.93117,-0.346282 7.87081,-1.03621 7.75055,-1.71826 7.5713,-2.38722 7.33443,-3.03802 7.04174,-3.6657 6.69546,-4.26548 6.29822,-4.83279 5.85304,-5.36333 5.36333,-5.85304 4.83279,-6.29822 4.26548,-6.69546 3.6657,-7.04174 3.03802,-7.33443 2.38722,-7.5713 1.71826,-7.75055 1.03621,-7.87081 0.346282,-7.93117 -2,0 z "/>
<path d="M 179,450 l -0.338672,7.75686 -1.01344,7.69783 -1.68049,7.58021 -2.33476,7.4049 -2.97125,7.17323 -3.58513,6.88697 -4.17173,6.5483 -4.72658,6.15979 -5.24545,5.72441 -5.72441,5.24545 -6.15979,4.72658 -6.5483,4.17173 -6.88697,3.58513 -7.17323,2.97125 -7.4049,2.33476 -7.58021,1.68049 -7.69783,1.01344 -7.75686,0.338672 0,2 7.93117,-0.346282 7.87081,-1.03621 7.75055,-1.71826 7.5713,-2.38722 7.33443,-3.03802 7.04174,-3.6657 6.69546,-4.26548 6.29822,-4.83279 5.85304,-5.36333 5.36333,-5.85304 4.83279,-6.29822 4.26548,-6.69546 3.6657,-7.04174 3.03802,-7.33443 2.38722,-7.5713 1.71826,-7.75055 1.03621,-7.87081 0.346282,-7.93117 -2,0 z "/>
<path d="M 269,450 l -0.338672,7.75686 -1.01344,7.69783 -1.68049,7.58021 -2.33476,7.4049 -2.97125,7.17323 -3.58513,6.88697 -4.17173,6.5483 -4.72658,6.15979 -5.24545,5.72441 -5.72441,5.24545 -6.15979,4.72658 -6.5483,4.17173 -6.88697,3.58513 -7.17323,2.97125 -7.4049,2.33476 -7.58021,1.68049 -7.69783,1.01344 -7.75686,0.338672 0,2 7.93117,-0.346282 7.87081,-1.03621 7.75055,-1.71826 7.5713,-2.38722 7.33443,-3.03802 7.04174,-3.6657 6.69546,-4.26548 6.29822,-4.83279 5.85304,-5.36333 5.36333,-5.85304 4.83279,-6.29822 4.26548,-6.69546 3.6657,-7.04174 3.03802,-7.33443 2.38722,-7.5713 1.71826,-7.75055 1.03621,-7.87081 0.346282,-7.93117 -2,0 z "/>
<path d="M 359,450 l -0.338672,7.75686 -1.01344,7.69783 -1.68049,7.58021 -2.33476,7.4049 -2.97125,7.17323 -3.58513,6.88697 -4.17173,6.5483 -4.72658,6.15979 -5.24545,5.72441 -5.72441,5.24545 -6.15979,4.72658 -6.5483,4.17173 -6.88697,3.58513 -7.17323,2.97125 -7.4049,2.33476 -7.58021,1.68049 -7.69783,1.01344 -7.75686,0.338672 0,2 7.93117,-0.346282 7.87081,-1.03621 7.75055,-1.71826 7.5713,-2.38722 7.33443,-3.03802 7.04174,-3.6657 6.69546,-4.26548 6.29822,-4.83279 5.85304,-5.36333 5.36333,-5.85304 4.83279,-6.29822 4.26548,-6.69546 3.6657,-7.04174 3.03802,-7.33443 2.38722,-7.5713 1.71826,-7.75055 1.03621,-7.87081 0.346282,-7.93117 -2,0 z "/>
<path d="M 449,450 l -0.338672,7.75686 -1.01344,7.69783 -1.68049,7.58021 -2.33476,7.4049 -2.97125,7.17323 -3.58513,6.88697 -4.17173,6.5483 -4.72658,6.15979 -5.24545,5.72441 -5.72441,5.24545 -6.15979,4.72658 -6.5483,4.17173 -6.88697,3.58513 -7.17323,2.97125 -7.4049,2.33476 -7.58021,1.68049 -7.69783,1.01344 -7.75686,0.338672 0,2 7.93117,-0.346282 7.87081,-1.03621 7.75055,-1.71826 7.5713,-2.38722 7.33443,-3.03802 7.04174,-3.6657 6.69546,-4.26548 6.29822,-4.83279 5.85304,-5.36333 5.36333,-5.85304 4.83279,-6.29822 4.26548,-6.69546 3.6657,-7.04174 3.03802,-7.33443 2.38722,-7.5713 1.71826,-7.75055 1.03621,-7.87081 0.346282,-7.93117 -2,0 z "/>
<path d="M 539,450 l -0.338672,7.75686 -1.01344,7.69783 -1.68049,7.58021 -2.33476,7.4049 -2.97125,7.17323 -3.58513,6.88697 -4.17173,6.5483 -4.72658,6.15979 -5.24545,5.72441 -5.72441,5.24545 -6.15979,4.72658 -6.5483,4.17173 -6.88697,3.58513 -7.17323,2.97125 -7.4049,2.33476 -7.58021,1.68049 -7.69783,1.01344 -7.75686,0.338672 0,2 7.93117,-0.346282 7.87081,-1.03621 7.75055,-1.71826 7.5713,-2.38722 7.33443,-3.03802 7.04174,-3.6657 6.69546,-4.26548 6.29822,-4.83279 5.85304,-5.36333 5.36333,-5.85304 4.83279,-6.29822 4.26548,-6.69546 3.6657,-7.04174 3.03802,-7.33443 2.38722,-7.5713 1.71826,-7.75055 1.03621,-7.87081 0.346282,-7.93117 -2,0 z "/>
<path d="M 629,450 l -0.338672,7.75686 -1.01344,7.69783 -1.68049,7.58021 -2.33476,7.4049 -2.97125,7.17323 -3.58513,6.88697 -4.17173,6.5483 -4.72658,6.15979 -5.24545,5.72441 -5.72441,5.24545 -6.15979,4.72658 -6.5483,4.17173 -6.88697,3.58513 -7.17323,2.97125 -7.4049,2.33476 -7.58021,1.68049 -7.69783,1.01344 -7.75686,0.338672 0,2 7.93117,-0.346282 7.87081,-1.03621 7.75055,-1.71826 7.5713,-2.38722 7.33443,-3.03802 7.04174,-3.6657 6.69546,-4.26548 6.29822,-4.83279 5.85304,-5.36333 5.36333,-5.85304 4.83279,-6.29822 4.26548,-6.69546 3.6657,-7.04174 3.03802,-7.33443 2.38722,-7.5713 1.71826,-7.75055 1.03621,-7.87081 0.346282,-7.93117 -2,0 z "/>
<path d="M 719,450 l -0.338672,7.75686 -1.01344,7.69783 -1.68049,7.58021 -2.33476,7.4049 -2.97125,7.17323 -3.58513,6.88697 -4.17173,6.5483 -4.72658,6.15979 -5.24545,5.72441 -5.72441,5.24545 -6.15979,4.72658 -6.5483,4.17173 -6.88697,3.58513 -7.17323,2.97125 -7.4049,2.33476 -7.58021,1.68049 -7.69783,1.01344 -7.75686,0.338672 0,2 7.93117,-0.346282 7.87081,-1.03621 7.75055,-1.71826 7.5713,-2.38722 7.33443,-3.03802 7.04174,-3.6657 6.69546,-4.26548 6.29822,-4.83279 5.85304,-5.36333 5.36333,-5.85304 4.83279,-6.29822 4.26548,-6.69546 3.6657,-7.04174 3.03802,-7.33443 2.38722,-7.5713 1.71826,-7.75055 1.03621,-7.87081 0.346282,-7.93117 -2,0 z "/>
<path d="M 89,540 l -0.338672,7.75686 -1.01344,7.69783 -1.68049,7.58021 -2.33476,7.4049 -2.97125,7.17323 -3.58513,6.88697 -4.17173,6.5483 -4.72658,6.15979 -5.24545,5.72441 -5.72441,5.24545 -6.15979,4.72658 -6.5483,4.17173 -6.88697,3.58513 -7.17323,2.97125 -7.4049,2.33476 -7.58021,1.68049 -7.69783,1.01344 -7.75686,0.338672 0,2 7.93117,-0.346282 7.87081,-1.03621 7.75055,-1.71826 7.5713,-2.38722 7.33443,-3.03802 7.04174,-3.6657 6.69546,-4.26548 6.29822,-4.83279 5.85304,-5.36333 5.36333,-5.85304 4.83279,-6.29822 4.26548,-6.69546 3.6657,-7.04174 3.03802,-7.33443 2.38722,-7.5713 1.71826,-7.75055 1.03621,-7.87081 0.346282,-7.93117 -2,0 z "/>
<path d="M 179,540 l -0.338672,7.75686 -1.01344,7.69783 -1.68049,7.58021 -2.33476,7.4049 -2.97125,7.17323 -3.58513,6.88697 -4.17173,6.5483 -4.72658,6.15979 -5.24545,5.72441 -5.72441,5.24545 -6.15979,4.72658 -6.5483,4.17173 -6.88697,3.58513 -7.17323,2.97125 -7.4049,2.33476 -7.58021,1.68049 -7.69783,1.01344 -7.75686,0.338672 0,2 7.93117,-0.346282 7.87081,-1.03621 7.75055,-1.71826 7.5713,-2.38722 7.33443,-3.03802 7.04174,-3.6657 6.69546,-4.26548 6.29822,-4.83279 5.85304,-5.36333 5.36333,-5.85304 4.83279,-6.29822 4.26548,-6.69546 3.6657,-7.04174 3.03802,-7.33443 2.38722,-7.5713 1.71826,-7.75055 1.03621,-7.87081 0.346282,-7.93117 -2,0 z "/>
<path d="M 269,540 l -0.338672,7.75686 -1.01344,7.69783 -1.68049,7.58021 -2.33476,7.4049 -2.97125,7.17323 -3.58513,6.88697 -4.17173,6.5483 -4.72658,6.15979 -5.24545,5.72441 -5.72441,5.24545 -6.15979,4.72658 -6.5483,4.17173 -6.88697,3.58513 -7.17323,2.97125 -7.4049,2.33476 -7.58021,1.68049 -7.69783,1.01344 -7.75686,0.338672 0,2 7.93117,-0.346282 7.87081,-1.03621 7.75055,-1.71826 7.5713,-2.38722 7.33443,-3.03802 7.04174,-3.6657 6.69546,-4.26548 6.29822,-4.83279 5.85304,-5.36333 5.36333,-5.85304 4.83279,-6.29822 4.26548,-6.69546 3.6657,-7.04174 3.03802,-7.33443 2.38722,-7.5713 1.71826,-7.75055 1.03621,-7.87081 0.346282,-7.93117 -2,0 z "/>
<path d="M 359,540 l -0.338672,7.75686 -1.01344,7.69783 -1.68049,7.58021 -2.33476,7.4049 -2.97125,7.17323 -3.58513,6.88697 -4.17173,6.5483 -4.72658,6.15979 -5.24545,5.72441 -5.72441,5.24545 -6.15979,4.72658 -6.5483,4.17173 -6.88697,3.58513 -7.17323,2.97125 -7.4049,2.33476 -7.58021,1.68049 -7.69783,1.01344 -7.75686,0.338672 0,2 7.93117,-0.346282 7.87081,-1.03621 7.75055,-1.71826 7.5713,-2.38722 7.33443,-3.03802 7.04174,-3.6657 6.69546,-4.26548 6.29822,-4.83279 5.85304,-5.36333 5.36333,-5.85304 4.83279,-6.29822 4.26548,-6.69546 3.6657,-7.04174 3.03802,-7.33443 2.38722,-7.5713 1.71826,-7.75055 1.03621,-7.87081 0.346282,-7.93117 -2,0 z "/>
<path d="M 449,540 l -0.338672,7.75686 -1.01344,7.69783 -1.68049,7.58021 -2.33476,7.4049 -2.97125,7.17323 -3.58513,6.88697 -4.17173,6.5483 -4.72658,6.15979 -5.24545,5.72441 -5.72441,5.24545 -6.15979,4.72658 -6.5483,4.17173 -6.88697,3.58513 -7.17323,2.97125 -7.4049,2.33476 -7.58021,1.68049 -7.69783,1.01344 -7.75686,0.338672 0,2 7.93117,-0.346282 7.87081,-1.03621 7.75055,-1.71826 7.5713,-2.38722 7.33443,-3.03802 7.04174,-3.6657 6.69546,-4.26548 6.29822,-4.83279 5.85304,-5.36333 5.36333,-5.85304 4.83279,-6.29822 4.26548,-6.69546 3.6657,-7.04174 3.03802,-7.33443 2.38722,-7.5713 1.71826,-7.75055 1.03621,-7.87081 0.346282,-7.93117 -2,0 z "/>
<path d="M 539,540 l -0.338672,7.75686 -1.01344,7.69783 -1.68049,7.58021 -2.33476,7.4049 -2.97125,7.17323 -3.58513,6.88697 -4.17173,6.5483 -4.72658,6.15979 -5.24545,5.72441 -5.72441,5.24545 -6.15979,4.72658 -6.5483,4.17173 -6.88697,3.58513 -7.17323,2.97125 -7.4049,2.33476 -7.58021,1.68049 -7.69783,1.01344 -7.75686,0.338672 0,2 7.93117,-0.346282 7.87081,-1.03621 7.75055,-1.71826 7.5713,-2.38722 7.33443,-3.03802 7.04174,-3.6657 6.69546,-4.26548 6.29822,-4.83279 5.85304,-5.36333 5.36333,-5.85304 4.83279,-6.29822 4.26548,-6.69546 3.6657,-7.04174 3.03802,-7.33443 2.38722,-7.5713 1.71826,-7.75055 1.03621,-7.87081 0.346282,-7.93117 -2,0 z "/>
<path d="M 629,540 l -0.338672,7.75686 -1.01344,7.69783 -1.68049,7.58021 -2.33476,7.4049 -2.97125,7.17323 -3.58513,6.88697 -4.17173,6.5483 -4.72658,6.15979 -5.24545,5.72441 -5.72441,5.24545 -6.15979,4.72658 -6.5483,4.17173 -6.88697,3.58513 -7.17323,2.97125 -7.4049,2.33476 -7.58021,1.68049 -7.69783,1.01344 -7.75686,0.338672 0,2 7.93117,-0.346282 7.87081,-1.03621 7.75055,-1.71826 7.5713,-2.38722 7.33443,-3.03802 7.04174,-3.6657 6.69546,-4.26548 6.29822,-4.83279 5.85304,-5.36333 5.36333,-5.85304 4.83279,-6.29822 4.26548,-6.69546 3.6657,-7.04174 3.03802,-7.33443 2.38722,-7.5713 1.71826,-7.75055 1.03621,-7.87081 0.346282,-7.93117 -2,0 z "/>
<path d="M 719,540 l -0.338672,7.75686 -1.01344,7.69783 -1.68049,7.58021 -2.33476,7.4049 -2.97125,7.17323 -3.58513,6.88697 -4.17173,6.5483 -4.72658,6.15979 -5.24545,5.72441 -5.72441,5.24545 -6.15979,4.72658 -6.5483,4.17173 -6.88697,3.58513 -7.17323,2.97125 -7.4049,2.33476 -7.58021,1.68049 -7.69783,1.01344 -7.75686,0.338672 0,2 7.93117,-0.346282 7.87081,-1.03621 7.75055,-1.71826 7.5713,-2.38722 7.33443,-3.03802 7.04174,-3.6657 6.69546,-4.26548 6.29822,-4.83279 5.85304,-5.36333 5.36333,-5.85304 4.83279,-6.29822 4.26548,-6.69546 3.6657,-7.04174 3.03802,-7.33443 2.38722,-7.5713 1.71826,-7.75055 1.03621,-7.87081 0.346282,-7.93117 -2,0 z "/>
<path d="M 89,630 l -0.338672,7.75686 -1.01344,7.69783 -1.68049,7.58021 -2.33476,7.4049 -2.97125,7.17323 -3.58513,6.88697 -4.17173,6.5483 -4.72658,6.15979 -5.24545,5.72441 -5.72441,5.24545 -6.15979,4.72658 -6.5483,4.17173 -6.88697,3.58513 -7.17323,2.97125 -7.4049,2.33476 -7.58021,1.68049 -7.69783,1.01344 -7.75686,0.338672 0,2 7.93117,-0.346282 7.87081,-1.03621 7.75055,-1.71826 7.5713,-2.38722 7.33443,-3.03802 7.04174,-3.6657 6.69546,-4.26548 6.29822,-4.83279 5.85304,-5.36333 5.36333,-5.85304 4.83279,-6.29822 4.26548,-6.69546 3.6657,-7.04174 3.03802,-7.33443 2.38722,-7.5713 1.71826,-7.75055 1.03621,-7.87081 0.346282,-7.93117 -2,0 z "/>
<path d="M 179,630 l -0.338672,7.75686 -1.01344,7.69783 -1.68049,7.58021 -2.33476,7.4049 -2.97125,7.17323 -3.58513,6.88697 -4.17173,6.5483 -4.72658,6.15979 -5.24545,5.72441 -5.72441,5.24545 -6.15979,4.72658 -6.5483,4.17173 -6.88697,3.58513 -7.17323,2.97125 -7.4049,2.33476 -7.58021,1.68049 -7.69783,1.01344 -7.75686,0.338672 0,2 7.93117,-0.346282 7.87081,-1.03621 7.75055,-1.71826 7.5713,-2.38722 7.33443,-3.03802 7.04174,-3.6657 6.69546,-4.26548 6.29822,-4.83279 5.85304,-5.36333 5.36333,-5.85304 4.83279,-6.29822 4.26548,-6.69546 3.6657,-7.04174 3.03802,-7.33443 2.38722,-7.5713 1.71826,-7.75055 1.03621,-7.87081 0.346282,-7.93117 -2,0 z "/>
<path d="M 269,630 l -0.338672,7.75686 -1.01344,7.69783 -1.68049,7.58021 -2.33476,7.4049 -2.97125,7.17323 -3.58513,6.88697 -4.17173,6.5483 -4.72658,6.15979 -5.24545,5.72441 -5.72441,5.24545 -6.15979,4.72658 -6.5483,4.17173 -6.88697,3.58513 -7.17323,2.97125 -7.4049,2.33476 -7.58021,1.68049 -7.69783,1.01344 -7.75686,0.338672 0,2 7.93117,-0.346282 7.87081,-1.03621 7.75055,-1.71826 7.5713,-2.38722 7.33443,-3.03802 7.04174,-3.6657 6.69546,-4.26548 6.29822,-4.83279 5.85304,-5.36333 5.36333,-5.85304 4.83279,-6.29822 4.26548,-6.69546 3.6657,-7.04174 3.03802,-7.33443 2.38722,-7.5713 1.71826,-7.75055 1.03621,-7.87081 0.346282,-7.93117 -2,0 z "/>
<path d="M 359,630 l -0.338672,7.75686 -1.01344,7.69783 -1.68049,7.58021 -2.33476,7.4049 -2.97125,7.17323 -3.58513,6.88697 -4.17173,6.5483 -4.72658,6.15979 -5.24545,5.72441 -5.72441,5.24545 -6.15979,4.72658 -6.5483,4.17173 -6.88697,3.58513 -7.17323,2.97125 -7.4049,2.33476 -7.58021,1.68049 -7.69783,1.01344 -7.75686,0.338672 0,2 7.93117,-0.346282 7.87081,-1.03621 7.75055,-1.71826 7.5713,-2.38722 7.33443,-3.03802 7.04174,-3.6657 6.69546,-4.26548 6.29822,-4.83279 5.85304,-5.36333 5.36333,-5.85304 4.83279,-6.29822 4.26548,-6.69546 3.6657,-7.04174 3.03802,-7.33443 2.38722,-7.5713 1.71826,-7.75055 1.03621,-7.87081 0.346282,-7.93117 -2,0 z "/>
<path d="M 449,630 l -0.338672,7.75686 -1.01344,7.69783 -1.68049,7.58021 -2.33476,7.4049 -2.97125,7.17323 -3.58513,6.88697 -4.17173,6.5483 -4.72658,6.15979 -5.24545,5.72441 -5.72441,5.24545 -6.15979,4.72658 -6.5483,4.17173 -6.88697,3.58513 -7.17323,2.97125 -7.4049,2.33476 -7.58021,1.68049 -7.69783,1.01344 -7.75686,0.338672 0,2 7.93117,-0.346282 7.87081,-1.03621 7.75055,-1.71826 7.5713,-2.38722 7.33443,-3.03802 7.04174,-3.6657 6.69546,-4.26548 6.29822,-4.83279 5.85304,-5.36333 5.36333,-5.85304 4.83279,-6.29822 4.26548,-6.69546 3.6657,-7.04174 3.03802,-7.33443 2.38722,-7.5713 1.71826,-7.75055 1.03621,-7.87081 0.346282,-7.93117 -2,0 z "/>
<path d="M 539,630 l -0.338672,7.75686 -1.01344,7.69783 -1.68049,7.58021 -2.33476,7.4049 -2.97125,7.17323 -3.58513,6.88697 -4.17173,6.5483 -4.72658,6.15979 -5.24545,5.72441 -5.72441,5.24545 -6.15979,4.72658 -6.5483,4.17173 -6.88697,3.58513 -7.17323,2.97125 -7.4049,2.33476 -7.58021,1.68049 -7.69783,1.01344 -7.75686,0.338672 0,2 7.93117,-0.346282 7.87081,-1.03621 7.75055,-1.71826 7.5713,-2.38722 7.33443,-3.03802 7.04174,-3.6657 6.69546,-4.26548 6.29822,-4.83279 5.85304,-5.36333 5.36333,-5.85304 4.83279,-6.29822 4.26548,-6.69546 3.6657,-7.04174 3.03802,-7.33443 2.38722,-7.5713 1.71826,-7.75055 1.03621,-7.87081 0.346282,-7.93117 -2,0 z "/>
<path d="M 629,630 l -0.338672,7.75686 -1.01344,7.69783 -1.68049,7.58021 -2.33476,7.4049 -2.97125,7.17323 -3.58513,6.88697 -4.17173,6.5483 -4.72658,6.15979 -5.24545,5.72441 -5.72441,5.24545 -6.15979,4.72658 -6.5483,4.17173 -6.88697,3.58513 -7.17323,2.97125 -7.4049,2.33476 -7.58021,1.68049 -7.69783,1.01344 -7.75686,0.338672 0,2 7.93117,-0.346282 7.87081,-1.03621 7.75055,-1.71826 7.5713,-2.38722 7.33443,-3.03802 7.04174,-3.6657 6.69546,-4.26548 6.29822,-4.83279 5.85304,-5.36333 5.36333,-5.85304 4.83279,-6.29822 4.26548,-6.69546 3.6657,-7.04174 3.03802,-7.33443 2.38722,-7.5713 1.71826,-7.75055 1.03621,-7.87081 0.346282,-7.93117 -2,0 z "/>
<path d="M 719,630 l -0.338672,7.75686 -1.01344,7.69783 -1.68049,7.58021 -2.33476,7.4049 -2.97125,7.17323 -3.58513,6.88697 -4.17173,6.5483 -4.72658,6.15979 -5.24545,5.72441 -5.72441,5.24545 -6.15979,4.72658 -6.5483,4.17173 -6.88697,3.58513 -7.17323,2.97125 -7.4049,2.33476 -7.58021,1.68049 -7.69783,1.01344 -7.75686,0.338672 0,2 7.93117,-0.346282 7.87081,-1.03621 7.75055,-1.71826 7.5713,-2.38722 7.33443,-3.03802 7.04174,-3.6657 6.69546,-4.26548 6.29822,-4.83279 5.85304,-5.36333 5.36333,-5.85304 4.83279,-6.29822 4.26548,-6.69546 3.6657,-7.04174 3.03802,-7.33443 2.38722,-7.5713 1.71826,-7.75055 1.03621,-7.87081 0.346282,-7.93117 -2,0 z "/>
</g></g></svg>