<?xml version="1.0" encoding="UTF-8" standalone="no"?>
<!DOCTYPE svg PUBLIC "-//W3C//DTD SVG 1.1//EN" "http://www.w3.org/Graphics/SVG/1.1/DTD/svg11-flat.dtd"
[
<!ATTLIST g xmlns:fme CDATA #FIXED "http://www.safe.com/fme" >
<!ATTLIST path fme:_creation_instance CDATA #IMPLIED fme:i CDATA #IMPLIED >
<!ATTLIST ellipse fme:_creation_instance CDATA #IMPLIED fme:i CDATA #IMPLIED >
<!ATTLIST text fme:_creation_instance CDATA #IMPLIED fme:i CDATA #IMPLIED >
<!ATTLIST use fme:_creation_instance CDATA #IMPLIED fme:i CDATA #IMPLIED >
]>
<svg xmlns="http://www.w3.org/2000/svg"  viewBox="-6.81995 -6.81995 559.236 463.64"><g xmlns:fme="http://www.safe.com/fme" fill="none" stroke="black" stroke-width="0.068199500548025" transform="translate(0,450) scale(1, -1)">
<g id="test" >
<path d="M 77.9423,45 m -0.340998,-0.340998 l 0,0.681995 0.681995,0 0,-0.681995 z "/>
<path d="M 51.9615,0 m -0.340998,-0.340998 l 0,0.681995 0.681995,0 0,-0.681995 z "/>
<path d="M 25.9808,45 m -0.340998,-0.340998 l 0,0.681995 0.681995,0 0,-0.681995 z "/>
<path d="M 129.904,45 m -0.340998,-0.340998 l 0,0.681995 0.681995,0 0,-0.681995 z "/>
<path d="M 103.923,0 m -0.340998,-0.340998 l 0,0.681995 0.681995,0 0,-0.681995 z "/>
<path d="M 77.9423,45 m -0.340998,-0.340998 l 0,0.681995 0.681995,0 0,-0.681995 z "/>
<path d="M 181.865,45 m -0.340998,-0.340998 l 0,0.681995 0.681995,0 0,-0.681995 z "/>
<path d="M 155.885,0 m -0.340998,-0.340998 l 0,0.681995 0.681995,0 0,-0.681995 z "/>
<path d="M 129.904,45 m -0.340998,-0.340998 l 0,0.681995 0.681995,0 0,-0.681995 z "/>
<path d="M 233.827,45 m -0.340998,-0.340998 l 0,0.681995 0.681995,0 0,-0.681995 z "/>
<path d="M 207.846,0 m -0.340998,-0.340998 l 0,0.681995 0.681995,0 0,-0.681995 z "/>
<path d="M 181.865,45 m -0.340998,-0.340998 l 0,0.681995 0.681995,0 0,-0.681995 z "/>
<path d="M 285.788,45 m -0.340998,-0.340998 l 0,0.681995 0.681995,0 0,-0.681995 z "/>
<path d="M 259.808,0 m -0.340998,-0.340998 l 0,0.681995 0.681995,0 0,-0.681995 z "/>
<path d="M 233.827,45 m -0.340998,-0.340998 l 0,0.681995 0.681995,0 0,-0.681995 z "/>
<path d="M 337.75,45 m -0.340998,-0.340998 l 0,0.681995 0.681995,0 0,-0.681995 z "/>
<path d="M 311.769,0 m -0.340998,-0.340998 l 0,0.681995 0.681995,0 0,-0.681995 z "/>
<path d="M 285.788,45 m -0.340998,-0.340998 l 0,0.681995 0.681995,0 0,-0.681995 z "/>
<path d="M 389.711,45 m -0.340998,-0.340998 l 0,0.681995 0.681995,0 0,-0.681995 z "/>
<path d="M 363.731,0 m -0.340998,-0.340998 l 0,0.681995 0.681995,0 0,-0.681995 z "/>
<path d="M 337.75,45 m -0.340998,-0.340998 l 0,0.681995 0.681995,0 0,-0.681995 z "/>
<path d="M 441.673,45 m -0.340998,-0.340998 l 0,0.681995 0.681995,0 0,-0.681995 z "/>
<path d="M 415.692,0 m -0.340998,-0.340998 l 0,0.681995 0.681995,0 0,-0.681995 z "/>
<path d="M 389.711,45 m -0.340998,-0.340998 l 0,0.681995 0.681995,0 0,-0.681995 z "/>
<path d="M 493.634,45 m -0.340998,-0.340998 l 0,0.681995 0.681995,0 0,-0.681995 z "/>
<path d="M 467.654,0 m -0.340998,-0.340998 l 0,0.681995 0.681995,0 0,-0.681995 z "/>
<path d="M 441.673,45 m -0.340998,-0.340998 l 0,0.681995 0.681995,0 0,-0.681995 z "/>
<path d="M 545.596,45 m -0.340998,-0.340998 l 0,0.681995 0.681995,0 0,-0.681995 z "/>
<path d="M 519.615,0 m -0.340998,-0.340998 l 0,0.681995 0.681995,0 0,-0.681995 z "/>
<path d="M 493.634,45 m -0.340998,-0.340998 l 0,0.681995 0.681995,0 0,-0.681995 z "/>
<path d="M 51.9615,90 m -0.340998,-0.340998 l 0,0.681995 0.681995,0 0,-0.681995 z "/>
<path d="M 25.9808,45 m -0.340998,-0.340998 l 0,0.681995 0.681995,0 0,-0.681995 z "/>
<path d="M 0,90 m -0.340998,-0.340998 l 0,0.681995 0.681995,0 0,-0.681995 z "/>
<path d="M 103.923,90 m -0.340998,-0.340998 l 0,0.681995 0.681995,0 0,-0.681995 z "/>
<path d="M 77.9423,45 m -0.340998,-0.340998 l 0,0.681995 0.681995,0 0,-0.681995 z "/>
<path d="M 51.9615,90 m -0.340998,-0.340998 l 0,0.681995 0.681995,0 0,-0.681995 z "/>
<path d="M 155.885,90 m -0.340998,-0.340998 l 0,0.681995 0.681995,0 0,-0.681995 z "/>
<path d="M 129.904,45 m -0.340998,-0.340998 l 0,0.681995 0.681995,0 0,-0.681995 z "/>
<path d="M 103.923,90 m -0.340998,-0.340998 l 0,0.681995 0.681995,0 0,-0.681995 z "/>
<path d="M 207.846,90 m -0.340998,-0.340998 l 0,0.681995 0.681995,0 0,-0.681995 z "/>
<path d="M 181.865,45 m -0.340998,-0.340998 l 0,0.681995 0.681995,0 0,-0.681995 z "/>
<path d="M 155.885,90 m -0.340998,-0.340998 l 0,0.681995 0.681995,0 0,-0.681995 z "/>
<path d="M 259.808,90 m -0.340998,-0.340998 l 0,0.681995 0.681995,0 0,-0.681995 z "/>
<path d="M 233.827,45 m -0.340998,-0.340998 l 0,0.681995 0.681995,0 0,-0.681995 z "/>
<path d="M 207.846,90 m -0.340998,-0.340998 l 0,0.681995 0.681995,0 0,-0.681995 z "/>
<path d="M 311.769,90 m -0.340998,-0.340998 l 0,0.681995 0.681995,0 0,-0.681995 z "/>
<path d="M 285.788,45 m -0.340998,-0.340998 l 0,0.681995 0.681995,0 0,-0.681995 z "/>
<path d="M 259.808,90 m -0.340998,-0.340998 l 0,0.681995 0.681995,0 0,-0.681995 z "/>
<path d="M 363.731,90 m -0.340998,-0.340998 l 0,0.681995 0.681995,0 0,-0.681995 z "/>
<path d="M 337.75,45 m -0.340998,-0.340998 l 0,0.681995 0.681995,0 0,-0.681995 z "/>
<path d="M 311.769,90 m -0.340998,-0.340998 l 0,0.681995 0.681995,0 0,-0.681995 z "/>
<path d="M 415.692,90 m -0.340998,-0.340998 l 0,0.681995 0.681995,0 0,-0.681995 z "/>
<path d="M 389.711,45 m -0.340998,-0.340998 l 0,0.681995 0.681995,0 0,-0.681995 z "/>
<path d="M 363.731,90 m -0.340998,-0.340998 l 0,0.681995 0.681995,0 0,-0.681995 z "/>
<path d="M 467.654,90 m -0.340998,-0.340998 l 0,0.681995 0.681995,0 0,-0.681995 z "/>
<path d="M 441.673,45 m -0.340998,-0.340998 l 0,0.681995 0.681995,0 0,-0.681995 z "/>
<path d="M 415.692,90 m -0.340998,-0.340998 l 0,0.681995 0.681995,0 0,-0.681995 z "/>
<path d="M 519.615,90 m -0.340998,-0.340998 l 0,0.681995 0.681995,0 0,-0.681995 z "/>
<path d="M 493.634,45 m -0.340998,-0.340998 l 0,0.681995 0.681995,0 0,-0.681995 z "/>
<path d="M 467.654,90 m -0.340998,-0.340998 l 0,0.681995 0.681995,0 0,-0.681995 z "/>
<path d="M 77.9423,135 m -0.340998,-0.340998 l 0,0.681995 0.681995,0 0,-0.681995 z "/>
<path d="M 51.9615,90 m -0.340998,-0.340998 l 0,0.681995 0.681995,0 0,-0.681995 z "/>
<path d="M 25.9808,135 m -0.340998,-0.340998 l 0,0.681995 0.681995,0 0,-0.681995 z "/>
<path d="M 129.904,135 m -0.340998,-0.340998 l 0,0.681995 0.681995,0 0,-0.681995 z "/>
<path d="M 103.923,90 m -0.340998,-0.340998 l 0,0.681995 0.681995,0 0,-0.681995 z "/>
<path d="M 77.9423,135 m -0.340998,-0.340998 l 0,0.681995 0.681995,0 0,-0.681995 z "/>
<path d="M 181.865,135 m -0.340998,-0.340998 l 0,0.681995 0.681995,0 0,-0.681995 z "/>
<path d="M 155.885,90 m -0.340998,-0.340998 l 0,0.681995 0.681995,0 0,-0.681995 z "/>
<path d="M 129.904,135 m -0.340998,-0.340998 l 0,0.681995 0.681995,0 0,-0.681995 z "/>
<path d="M 233.827,135 m -0.340998,-0.340998 l 0,0.681995 0.681995,0 0,-0.681995 z "/>
<path d="M 207.846,90 m -0.340998,-0.340998 l 0,0.681995 0.681995,0 0,-0.681995 z "/>
<path d="M 181.865,135 m -0.340998,-0.340998 l 0,0.681995 0.681995,0 0,-0.681995 z "/>
<path d="M 285.788,135 m -0.340998,-0.340998 l 0,0.681995 0.681995,0 0,-0.681995 z "/>
<path d="M 259.808,90 m -0.340998,-0.340998 l 0,0.681995 0.681995,0 0,-0.681995 z "/>
<path d="M 233.827,135 m -0.340998,-0.340998 l 0,0.681995 0.681995,0 0,-0.681995 z "/>
<path d="M 337.75,135 m -0.340998,-0.340998 l 0,0.681995 0.681995,0 0,-0.681995 z "/>
<path d="M 311.769,90 m -0.340998,-0.340998 l 0,0.681995 0.681995,0 0,-0.681995 z "/>
<path d="M 285.788,135 m -0.340998,-0.340998 l 0,0.681995 0.681995,0 0,-0.681995 z "/>
<path d="M 389.711,135 m -0.340998,-0.340998 l 0,0.681995 0.681995,0 0,-0.681995 z "/>
<path d="M 363.731,90 m -0.340998,-0.340998 l 0,0.681995 0.681995,0 0,-0.681995 z "/>
<path d="M 337.75,135 m -0.340998,-0.340998 l 0,0.681995 0.681995,0 0,-0.681995 z "/>
<path d="M 441.673,135 m -0.340998,-0.340998 l 0,0.681995 0.681995,0 0,-0.681995 z "/>
<path d="M 415.692,90 m -0.340998,-0.340998 l 0,0.681995 0.681995,0 0,-0.681995 z "/>
<path d="M 389.711,135 m -0.340998,-0.340998 l 0,0.681995 0.681995,0 0,-0.681995 z "/>
<path d="M 493.634,135 m -0.340998,-0.340998 l 0,0.681995 0.681995,0 0,-0.681995 z "/>
<path d="M 467.654,90 m -0.340998,-0.340998 l 0,0.681995 0.681995,0 0,-0.681995 z "/>
<path d="M 441.673,135 m -0.340998,-0.340998 l 0,0.681995 0.681995,0 0,-0.681995 z "/>
<path d="M 545.596,135 m -0.340998,-0.340998 l 0,0.681995 0.681995,0 0,-0.681995 z "/>
<path d="M 519.615,90 m -0.340998,-0.340998 l 0,0.681995 0.681995,0 0,-0.681995 z "/>
<path d="M 493.634,135 m -0.340998,-0.340998 l 0,0.681995 0.681995,0 0,-0.681995 z "/>
<path d="M 51.9615,180 m -0.340998,-0.340998 l 0,0.681995 0.681995,0 0,-0.681995 z "/>
<path d="M 25.9808,135 m -0.340998,-0.340998 l 0,0.681995 0.681995,0 0,-0.681995 z "/>
<path d="M 0,180 m -0.340998,-0.340998 l 0,0.681995 0.681995,0 0,-0.681995 z "/>
<path d="M 103.923,180 m -0.340998,-0.340998 l 0,0.681995 0.681995,0 0,-0.681995 z "/>
<path d="M 77.9423,135 m -0.340998,-0.340998 l 0,0.681995 0.681995,0 0,-0.681995 z "/>
<path d="M 51.9615,180 m -0.340998,-0.340998 l 0,0.681995 0.681995,0 0,-0.681995 z "/>
<path d="M 155.885,180 m -0.340998,-0.340998 l 0,0.681995 0.681995,0 0,-0.681995 z "/>
<path d="M 129.904,135 m -0.340998,-0.340998 l 0,0.681995 0.681995,0 0,-0.681995 z "/>
<path d="M 103.923,180 m -0.340998,-0.340998 l 0,0.681995 0.681995,0 0,-0.681995 z "/>
<path d="M 207.846,180 m -0.340998,-0.340998 l 0,0.681995 0.681995,0 0,-0.681995 z "/>
<path d="M 181.865,135 m -0.340998,-0.340998 l 0,0.681995 0.681995,0 0,-0.681995 z "/>
<path d="M 155.885,180 m -0.340998,-0.340998 l 0,0.681995 0.681995,0 0,-0.681995 z "/>
<path d="M 259.808,180 m -0.340998,-0.340998 l 0,0.681995 0.681995,0 0,-0.681995 z "/>
<path d="M 233.827,135 m -0.340998,-0.340998 l 0,0.681995 0.681995,0 0,-0.681995 z "/>
<path d="M 207.846,180 m -0.340998,-0.340998 l 0,0.681995 0.681995,0 0,-0.681995 z "/>
<path d="M 311.769,180 m -0.340998,-0.340998 l 0,0.681995 0.681995,0 0,-0.681995 z "/>
<path d="M 285.788,135 m -0.340998,-0.340998 l 0,0.681995 0.681995,0 0,-0.681995 z "/>
<path d="M 259.808,180 m -0.340998,-0.340998 l 0,0.681995 0.681995,0 0,-0.681995 z "/>
<path d="M 363.731,180 m -0.340998,-0.340998 l 0,0.681995 0.681995,0 0,-0.681995 z "/>
<path d="M 337.75,135 m -0.340998,-0.340998 l 0,0.681995 0.681995,0 0,-0.681995 z "/>
<path d="M 311.769,180 m -0.340998,-0.340998 l 0,0.681995 0.681995,0 0,-0.681995 z "/>
<path d="M 415.692,180 m -0.340998,-0.340998 l 0,0.681995 0.681995,0 0,-0.681995 z "/>
<path d="M 389.711,135 m -0.340998,-0.340998 l 0,0.681995 0.681995,0 0,-0.681995 z "/>
<path d="M 363.731,180 m -0.340998,-0.340998 l 0,0.681995 0.681995,0 0,-0.681995 z "/>
<path d="M 467.654,180 m -0.340998,-0.340998 l 0,0.681995 0.681995,0 0,-0.681995 z "/>
<path d="M 441.673,135 m -0.340998,-0.340998 l 0,0.681995 0.681995,0 0,-0.681995 z "/>
<path d="M 415.692,180 m -0.340998,-0.340998 l 0,0.681995 0.681995,0 0,-0.681995 z "/>
<path d="M 519.615,180 m -0.340998,-0.340998 l 0,0.681995 0.681995,0 0,-0.681995 z "/>
<path d="M 493.634,135 m -0.340998,-0.340998 l 0,0.681995 0.681995,0 0,-0.681995 z "/>
<path d="M 467.654,180 m -0.340998,-0.340998 l 0,0.681995 0.681995,0 0,-0.681995 z "/>
<path d="M 77.9423,225 m -0.340998,-0.340998 l 0,0.681995 0.681995,0 0,-0.681995 z "/>
<path d="M 51.9615,180 m -0.340998,-0.340998 l 0,0.681995 0.681995,0 0,-0.681995 z "/>
<path d="M 25.9808,225 m -0.340998,-0.340998 l 0,0.681995 0.681995,0 0,-0.681995 z "/>
<path d="M 129.904,225 m -0.340998,-0.340998 l 0,0.681995 0.681995,0 0,-0.681995 z "/>
<path d="M 103.923,180 m -0.340998,-0.340998 l 0,0.681995 0.681995,0 0,-0.681995 z "/>
<path d="M 77.9423,225 m -0.340998,-0.340998 l 0,0.681995 0.681995,0 0,-0.681995 z "/>
<path d="M 181.865,225 m -0.340998,-0.340998 l 0,0.681995 0.681995,0 0,-0.681995 z "/>
<path d="M 155.885,180 m -0.340998,-0.340998 l 0,0.681995 0.681995,0 0,-0.681995 z "/>
<path d="M 129.904,225 m -0.340998,-0.340998 l 0,0.681995 0.681995,0 0,-0.681995 z "/>
<path d="M 233.827,225 m -0.340998,-0.340998 l 0,0.681995 0.681995,0 0,-0.681995 z "/>
<path d="M 207.846,180 m -0.340998,-0.340998 l 0,0.681995 0.681995,0 0,-0.681995 z "/>
<path d="M 181.865,225 m -0.340998,-0.340998 l 0,0.681995 0.681995,0 0,-0.681995 z "/>
<path d="M 285.788,225 m -0.340998,-0.340998 l 0,0.681995 0.681995,0 0,-0.681995 z "/>
<path d="M 259.808,180 m -0.340998,-0.340998 l 0,0.681995 0.681995,0 0,-0.681995 z "/>
<path d="M 233.827,225 m -0.340998,-0.340998 l 0,0.681995 0.681995,0 0,-0.681995 z "/>
<path d="M 337.75,225 m -0.340998,-0.340998 l 0,0.681995 0.681995,0 0,-0.681995 z "/>
<path d="M 311.769,180 m -0.340998,-0.340998 l 0,0.681995 0.681995,0 0,-0.681995 z "/>
<path d="M 285.788,225 m -0.340998,-0.340998 l 0,0.681995 0.681995,0 0,-0.681995 z "/>
<path d="M 389.711,225 m -0.340998,-0.340998 l 0,0.681995 0.681995,0 0,-0.681995 z "/>
<path d="M 363.731,180 m -0.340998,-0.340998 l 0,0.681995 0.681995,0 0,-0.681995 z "/>
<path d="M 337.75,225 m -0.340998,-0.340998 l 0,0.681995 0.681995,0 0,-0.681995 z "/>
<path d="M 441.673,225 m -0.340998,-0.340998 l 0,0.681995 0.681995,0 0,-0.681995 z "/>
<path d="M 415.692,180 m -0.340998,-0.340998 l 0,0.681995 0.681995,0 0,-0.681995 z "/>
<path d="M 389.711,225 m -0.340998,-0.340998 l 0,0.681995 0.681995,0 0,-0.681995 z "/>
<path d="M 493.634,225 m -0.340998,-0.340998 l 0,0.681995 0.681995,0 0,-0.681995 z "/>
<path d="M 467.654,180 m -0.340998,-0.340998 l 0,0.681995 0.681995,0 0,-0.681995 z "/>
<path d="M 441.673,225 m -0.340998,-0.340998 l 0,0.681995 0.681995,0 0,-0.681995 z "/>
<path d="M 545.596,225 m -0.340998,-0.340998 l 0,0.681995 0.681995,0 0,-0.681995 z "/>
<path d="M 519.615,180 m -0.340998,-0.340998 l 0,0.681995 0.681995,0 0,-0.681995 z "/>
<path d="M 493.634,225 m -0.340998,-0.340998 l 0,0.681995 0.681995,0 0,-0.681995 z "/>
<path d="M 51.9615,270 m -0.340998,-0.340998 l 0,0.681995 0.681995,0 0,-0.681995 z "/>
<path d="M 25.9808,225 m -0.340998,-0.340998 l 0,0.681995 0.681995,0 0,-0.681995 z "/>
<path d="M 0,270 m -0.340998,-0.340998 l 0,0.681995 0.681995,0 0,-0.681995 z "/>
<path d="M 103.923,270 m -0.340998,-0.340998 l 0,0.681995 0.681995,0 0,-0.681995 z "/>
<path d="M 77.9423,225 m -0.340998,-0.340998 l 0,0.681995 0.681995,0 0,-0.681995 z "/>
<path d="M 51.9615,270 m -0.340998,-0.340998 l 0,0.681995 0.681995,0 0,-0.681995 z "/>
<path d="M 155.885,270 m -0.340998,-0.340998 l 0,0.681995 0.681995,0 0,-0.681995 z "/>
<path d="M 129.904,225 m -0.340998,-0.340998 l 0,0.681995 0.681995,0 0,-0.681995 z "/>
<path d="M 103.923,270 m -0.340998,-0.340998 l 0,0.681995 0.681995,0 0,-0.681995 z "/>
<path d="M 207.846,270 m -0.340998,-0.340998 l 0,0.681995 0.681995,0 0,-0.681995 z "/>
<path d="M 181.865,225 m -0.340998,-0.340998 l 0,0.681995 0.681995,0 0,-0.681995 z "/>
<path d="M 155.885,270 m -0.340998,-0.340998 l 0,0.681995 0.681995,0 0,-0.681995 z "/>
<path d="M 259.808,270 m -0.340998,-0.340998 l 0,0.681995 0.681995,0 0,-0.681995 z "/>
<path d="M 233.827,225 m -0.340998,-0.340998 l 0,0.681995 0.681995,0 0,-0.681995 z "/>
<path d="M 207.846,270 m -0.340998,-0.340998 l 0,0.681995 0.681995,0 0,-0.681995 z "/>
<path d="M 311.769,270 m -0.340998,-0.340998 l 0,0.681995 0.681995,0 0,-0.681995 z "/>
<path d="M 285.788,225 m -0.340998,-0.340998 l 0,0.681995 0.681995,0 0,-0.681995 z "/>
<path d="M 259.808,270 m -0.340998,-0.340998 l 0,0.681995 0.681995,0 0,-0.681995 z "/>
<path d="M 363.731,270 m -0.340998,-0.340998 l 0,0.681995 0.681995,0 0,-0.681995 z "/>
<path d="M 337.75,225 m -0.340998,-0.340998 l 0,0.681995 0.681995,0 0,-0.681995 z "/>
<path d="M 311.769,270 m -0.340998,-0.340998 l 0,0.681995 0.681995,0 0,-0.681995 z "/>
<path d="M 415.692,270 m -0.340998,-0.340998 l 0,0.681995 0.681995,0 0,-0.681995 z "/>
<path d="M 389.711,225 m -0.340998,-0.340998 l 0,0.681995 0.681995,0 0,-0.681995 z "/>
<path d="M 363.731,270 m -0.340998,-0.340998 l 0,0.681995 0.681995,0 0,-0.681995 z "/>
<path d="M 467.654,270 m -0.340998,-0.340998 l 0,0.681995 0.681995,0 0,-0.681995 z "/>
<path d="M 441.673,225 m -0.340998,-0.340998 l 0,0.681995 0.681995,0 0,-0.681995 z "/>
<path d="M 415.692,270 m -0.340998,-0.340998 l 0,0.681995 0.681995,0 0,-0.681995 z "/>
<path d="M 519.615,270 m -0.340998,-0.340998 l 0,0.681995 0.681995,0 0,-0.681995 z "/>
<path d="M 493.634,225 m -0.340998,-0.340998 l 0,0.681995 0.681995,0 0,-0.681995 z "/>
<path d="M 467.654,270 m -0.340998,-0.340998 l 0,0.681995 0.681995,0 0,-0.681995 z "/>
<path d="M 77.9423,315 m -0.340998,-0.340998 l 0,0.681995 0.681995,0 0,-0.681995 z "/>
<path d="M 51.9615,270 m -0.340998,-0.340998 l 0,0.681995 0.681995,0 0,-0.681995 z "/>
<path d="M 25.9808,315 m -0.340998,-0.340998 l 0,0.681995 0.681995,0 0,-0.681995 z "/>
<path d="M 129.904,315 m -0.340998,-0.340998 l 0,0.681995 0.681995,0 0,-0.681995 z "/>
<path d="M 103.923,270 m -0.340998,-0.340998 l 0,0.681995 0.681995,0 0,-0.681995 z "/>
<path d="M 77.9423,315 m -0.340998,-0.340998 l 0,0.681995 0.681995,0 0,-0.681995 z "/>
<path d="M 181.865,315 m -0.340998,-0.340998 l 0,0.681995 0.681995,0 0,-0.681995 z "/>
<path d="M 155.885,270 m -0.340998,-0.340998 l 0,0.681995 0.681995,0 0,-0.681995 z "/>
<path d="M 129.904,315 m -0.340998,-0.340998 l 0,0.681995 0.681995,0 0,-0.681995 z "/>
<path d="M 233.827,315 m -0.340998,-0.340998 l 0,0.681995 0.681995,0 0,-0.681995 z "/>
<path d="M 207.846,270 m -0.340998,-0.340998 l 0,0.681995 0.681995,0 0,-0.681995 z "/>
<path d="M 181.865,315 m -0.340998,-0.340998 l 0,0.681995 0.681995,0 0,-0.681995 z "/>
<path d="M 285.788,315 m -0.340998,-0.340998 l 0,0.681995 0.681995,0 0,-0.681995 z "/>
<path d="M 259.808,270 m -0.340998,-0.340998 l 0,0.681995 0.681995,0 0,-0.681995 z "/>
<path d="M 233.827,315 m -0.340998,-0.340998 l 0,0.681995 0.681995,0 0,-0.681995 z "/>
<path d="M 337.75,315 m -0.340998,-0.340998 l 0,0.681995 0.681995,0 0,-0.681995 z "/>
<path d="M 311.769,270 m -0.340998,-0.340998 l 0,0.681995 0.681995,0 0,-0.681995 z "/>
<path d="M 285.788,315 m -0.340998,-0.340998 l 0,0.681995 0.681995,0 0,-0.681995 z "/>
<path d="M 389.711,315 m -0.340998,-0.340998 l 0,0.681995 0.681995,0 0,-0.681995 z "/>
<path d="M 363.731,270 m -0.340998,-0.340998 l 0,0.681995 0.681995,0 0,-0.681995 z "/>
<path d="M 337.75,315 m -0.340998,-0.340998 l 0,0.681995 0.681995,0 0,-0.681995 z "/>
<path d="M 441.673,315 m -0.340998,-0.340998 l 0,0.681995 0.681995,0 0,-0.681995 z "/>
<path d="M 415.692,270 m -0.340998,-0.340998 l 0,0.681995 0.681995,0 0,-0.681995 z "/>
<path d="M 389.711,315 m -0.340998,-0.340998 l 0,0.681995 0.681995,0 0,-0.681995 z "/>
<path d="M 493.634,315 m -0.340998,-0.340998 l 0,0.681995 0.681995,0 0,-0.681995 z "/>
<path d="M 467.654,270 m -0.340998,-0.340998 l 0,0.681995 0.681995,0 0,-0.681995 z "/>
<path d="M 441.673,315 m -0.340998,-0.340998 l 0,0.681995 0.681995,0 0,-0.681995 z "/>
<path d="M 545.596,315 m -0.340998,-0.340998 l 0,0.681995 0.681995,0 0,-0.681995 z "/>
<path d="M 519.615,270 m -0.340998,-0.340998 l 0,0.681995 0.681995,0 0,-0.681995 z "/>
<path d="M 493.634,315 m -0.340998,-0.340998 l 0,0.681995 0.681995,0 0,-0.681995 z "/>
<path d="M 51.9615,360 m -0.340998,-0.340998 l 0,0.681995 0.681995,0 0,-0.681995 z "/>
<path d="M 25.9808,315 m -0.340998,-0.340998 l 0,0.681995 0.681995,0 0,-0.681995 z "/>
<path d="M 0,360 m -0.340998,-0.340998 l 0,0.681995 0.681995,0 0,-0.681995 z "/>
<path d="M 103.923,360 m -0.340998,-0.340998 l 0,0.681995 0.681995,0 0,-0.681995 z "/>
<path d="M 77.9423,315 m -0.340998,-0.340998 l 0,0.681995 0.681995,0 0,-0.681995 z "/>
<path d="M 51.9615,360 m -0.340998,-0.340998 l 0,0.681995 0.681995,0 0,-0.681995 z "/>
<path d="M 155.885,360 m -0.340998,-0.340998 l 0,0.681995 0.681995,0 0,-0.681995 z "/>
<path d="M 129.904,315 m -0.340998,-0.340998 l 0,0.681995 0.681995,0 0,-0.681995 z "/>
<path d="M 103.923,360 m -0.340998,-0.340998 l 0,0.681995 0.681995,0 0,-0.681995 z "/>
<path d="M 207.846,360 m -0.340998,-0.340998 l 0,0.681995 0.681995,0 0,-0.681995 z "/>
<path d="M 181.865,315 m -0.340998,-0.340998 l 0,0.681995 0.681995,0 0,-0.681995 z "/>
<path d="M 155.885,360 m -0.340998,-0.340998 l 0,0.681995 0.681995,0 0,-0.681995 z "/>
<path d="M 259.808,360 m -0.340998,-0.340998 l 0,0.681995 0.681995,0 0,-0.681995 z "/>
<path d="M 233.827,315 m -0.340998,-0.340998 l 0,0.681995 0.681995,0 0,-0.681995 z "/>
<path d="M 207.846,360 m -0.340998,-0.340998 l 0,0.681995 0.681995,0 0,-0.681995 z "/>
<path d="M 311.769,360 m -0.340998,-0.340998 l 0,0.681995 0.681995,0 0,-0.681995 z "/>
<path d="M 285.788,315 m -0.340998,-0.340998 l 0,0.681995 0.681995,0 0,-0.681995 z "/>
<path d="M 259.808,360 m -0.340998,-0.340998 l 0,0.681995 0.681995,0 0,-0.681995 z "/>
<path d="M 363.731,360 m -0.340998,-0.340998 l 0,0.681995 0.681995,0 0,-0.681995 z "/>
<path d="M 337.75,315 m -0.340998,-0.340998 l 0,0.681995 0.681995,0 0,-0.681995 z "/>
<path d="M 311.769,360 m -0.340998,-0.340998 l 0,0.681995 0.681995,0 0,-0.681995 z "/>
<path d="M 415.692,360 m -0.340998,-0.340998 l 0,0.681995 0.681995,0 0,-0.681995 z "/>
<path d="M 389.711,315 m -0.340998,-0.340998 l 0,0.681995 0.681995,0 0,-0.681995 z "/>
<path d="M 363.731,360 m -0.340998,-0.340998 l 0,0.681995 0.681995,0 0,-0.681995 z "/>
<path d="M 467.654,360 m -0.340998,-0.340998 l 0,0.681995 0.681995,0 0,-0.681995 z "/>
<path d="M 441.673,315 m -0.340998,-0.340998 l 0,0.681995 0.681995,0 0,-0.681995 z "/>
<path d="M 415.692,360 m -0.340998,-0.340998 l 0,0.681995 0.681995,0 0,-0.681995 z "/>
<path d="M 519.615,360 m -0.340998,-0.340998 l 0,0.681995 0.681995,0 0,-0.681995 z "/>
<path d="M 493.634,315 m -0.340998,-0.340998 l 0,0.681995 0.681995,0 0,-0.681995 z "/>
<path d="M 467.654,360 m -0.340998,-0.340998 l 0,0.681995 0.681995,0 0,-0.681995 z "/>
<path d="M 77.9423,405 m -0.340998,-0.340998 l 0,0.681995 0.681995,0 0,-0.681995 z "/>
<path d="M 51.9615,360 m -0.340998,-0.340998 l 0,0.681995 0.681995,0 0,-0.681995 z "/>
<path d="M 25.9808,405 m -0.340998,-0.340998 l 0,0.681995 0.681995,0 0,-0.681995 z "/>
<path d="M 129.904,405 m -0.340998,-0.340998 l 0,0.681995 0.681995,0 0,-0.681995 z "/>
<path d="M 103.923,360 m -0.340998,-0.340998 l 0,0.681995 0.681995,0 0,-0.681995 z "/>
<path d="M 77.9423,405 m -0.340998,-0.340998 l 0,0.681995 0.681995,0 0,-0.681995 z "/>
<path d="M 181.865,405 m -0.340998,-0.340998 l 0,0.681995 0.681995,0 0,-0.681995 z "/>
<path d="M 155.885,360 m -0.340998,-0.340998 l 0,0.681995 0.681995,0 0,-0.681995 z "/>
<path d="M 129.904,405 m -0.340998,-0.340998 l 0,0.681995 0.681995,0 0,-0.681995 z "/>
<path d="M 233.827,405 m -0.340998,-0.340998 l 0,0.681995 0.681995,0 0,-0.681995 z "/>
<path d="M 207.846,360 m -0.340998,-0.340998 l 0,0.681995 0.681995,0 0,-0.681995 z "/>
<path d="M 181.865,405 m -0.340998,-0.340998 l 0,0.681995 0.681995,0 0,-0.681995 z "/>
<path d="M 285.788,405 m -0.340998,-0.340998 l 0,0.681995 0.681995,0 0,-0.681995 z "/>
<path d="M 259.808,360 m -0.340998,-0.340998 l 0,0.681995 0.681995,0 0,-0.681995 z "/>
<path d="M 233.827,405 m -0.340998,-0.340998 l 0,0.681995 0.681995,0 0,-0.681995 z "/>
<path d="M 337.75,405 m -0.340998,-0.340998 l 0,0.681995 0.681995,0 0,-0.681995 z "/>
<path d="M 311.769,360 m -0.340998,-0.340998 l 0,0.681995 0.681995,0 0,-0.681995 z "/>
<path d="M 285.788,405 m -0.340998,-0.340998 l 0,0.681995 0.681995,0 0,-0.681995 z "/>
<path d="M 389.711,405 m -0.340998,-0.340998 l 0,0.681995 0.681995,0 0,-0.681995 z "/>
<path d="M 363.731,360 m -0.340998,-0.340998 l 0,0.681995 0.681995,0 0,-0.681995 z "/>
<path d="M 337.75,405 m -0.340998,-0.340998 l 0,0.681995 0.681995,0 0,-0.681995 z "/>
<path d="M 441.673,405 m -0.340998,-0.340998 l 0,0.681995 0.681995,0 0,-0.681995 z "/>
<path d="M 415.692,360 m -0.340998,-0.340998 l 0,0.681995 0.681995,0 0,-0.681995 z "/>
<path d="M 389.711,405 m -0.340998,-0.340998 l 0,0.681995 0.681995,0 0,-0.681995 z "/>
<path d="M 493.634,405 m -0.340998,-0.340998 l 0,0.681995 0.681995,0 0,-0.681995 z "/>
<path d="M 467.654,360 m -0.340998,-0.340998 l 0,0.681995 0.681995,0 0,-0.681995 z "/>
<path d="M 441.673,405 m -0.340998,-0.340998 l 0,0.681995 0.681995,0 0,-0.681995 z "/>
<path d="M 545.596,405 m -0.340998,-0.340998 l 0,0.681995 0.681995,0 0,-0.681995 z "/>
<path d="M 519.615,360 m -0.340998,-0.340998 l 0,0.681995 0.681995,0 0,-0.681995 z "/>
<path d="M 493.634,405 m -0.340998,-0.340998 l 0,0.681995 0.681995,0 0,-0.681995 z "/>
<path d="M 51.9615,450 m -0.340998,-0.340998 l 0,0.681995 0.681995,0 0,-0.681995 z "/>
<path d="M 25.9808,405 m -0.340998,-0.340998 l 0,0.681995 0.681995,0 0,-0.681995 z "/>
<path d="M 0,450 m -0.340998,-0.340998 l 0,0.681995 0.681995,0 0,-0.681995 z "/>
<path d="M 103.923,450 m -0.340998,-0.340998 l 0,0.681995 0.681995,0 0,-0.681995 z "/>
<path d="M 77.9423,405 m -0.340998,-0.340998 l 0,0.681995 0.681995,0 0,-0.681995 z "/>
<path d="M 51.9615,450 m -0.340998,-0.340998 l 0,0.681995 0.681995,0 0,-0.681995 z "/>
<path d="M 155.885,450 m -0.340998,-0.340998 l 0,0.681995 0.681995,0 0,-0.681995 z "/>
<path d="M 129.904,405 m -0.340998,-0.340998 l 0,0.681995 0.681995,0 0,-0.681995 z "/>
<path d="M 103.923,450 m -0.340998,-0.340998 l 0,0.681995 0.681995,0 0,-0.681995 z "/>
<path d="M 207.846,450 m -0.340998,-0.340998 l 0,0.681995 0.681995,0 0,-0.681995 z "/>
<path d="M 181.865,405 m -0.340998,-0.340998 l 0,0.681995 0.681995,0 0,-0.681995 z "/>
<path d="M 155.885,450 m -0.340998,-0.340998 l 0,0.681995 0.681995,0 0,-0.681995 z "/>
<path d="M 259.808,450 m -0.340998,-0.340998 l 0,0.681995 0.681995,0 0,-0.681995 z "/>
<path d="M 233.827,405 m -0.340998,-0.340998 l 0,0.681995 0.681995,0 0,-0.681995 z "/>
<path d="M 207.846,450 m -0.340998,-0.340998 l 0,0.681995 0.681995,0 0,-0.681995 z "/>
<path d="M 311.769,450 m -0.340998,-0.340998 l 0,0.681995 0.681995,0 0,-0.681995 z "/>
<path d="M 285.788,405 m -0.340998,-0.340998 l 0,0.681995 0.681995,0 0,-0.681995 z "/>
<path d="M 259.808,450 m -0.340998,-0.340998 l 0,0.681995 0.681995,0 0,-0.681995 z "/>
<path d="M 363.731,450 m -0.340998,-0.340998 l 0,0.681995 0.681995,0 0,-0.681995 z "/>
<path d="M 337.75,405 m -0.340998,-0.340998 l 0,0.681995 0.681995,0 0,-0.681995 z "/>
<path d="M 311.769,450 m -0.340998,-0.340998 l 0,0.681995 0.681995,0 0,-0.681995 z "/>
<path d="M 415.692,450 m -0.340998,-0.340998 l 0,0.681995 0.681995,0 0,-0.681995 z "/>
<path d="M 389.711,405 m -0.340998,-0.340998 l 0,0.681995 0.681995,0 0,-0.681995 z "/>
<path d="M 363.731,450 m -0.340998,-0.340998 l 0,0.681995 0.681995,0 0,-0.681995 z "/>
<path d="M 467.654,450 m -0.340998,-0.340998 l 0,0.681995 0.681995,0 0,-0.681995 z "/>
<path d="M 441.673,405 m -0.340998,-0.340998 l 0,0.681995 0.681995,0 0,-0.681995 z "/>
<path d="M 415.692,450 m -0.340998,-0.340998 l 0,0.681995 0.681995,0 0,-0.681995 z "/>
<path d="M 519.615,450 m -0.340998,-0.340998 l 0,0.681995 0.681995,0 0,-0.681995 z "/>
<path d="M 493.634,405 m -0.340998,-0.340998 l 0,0.681995 0.681995,0 0,-0.681995 z "/>
<path d="M 467.654,450 m -0.340998,-0.340998 l 0,0.681995 0.681995,0 0,-0.681995 z "/>
<path d="M 77.9423,45 l -25.9808,-45 -25.9808,45 "/>
<path d="M 129.904,45 l -25.9808,-45 -25.9808,45 "/>
<path d="M 181.865,45 l -25.9808,-45 -25.9808,45 "/>
<path d="M 233.827,45 l -25.9808,-45 -25.9808,45 "/>
<path d="M 285.788,45 l -25.9808,-45 -25.9808,45 "/>
<path d="M 337.75,45 l -25.9808,-45 -25.9808,45 "/>
<path d="M 389.711,45 l -25.9808,-45 -25.9808,45 "/>
<path d="M 441.673,45 l -25.9808,-45 -25.9808,45 "/>
<path d="M 493.634,45 l -25.9808,-45 -25.9808,45 "/>
<path d="M 545.596,45 l -25.9808,-45 -25.9808,45 "/>
<path d="M 51.9615,90 l -25.9808,-45 -25.9808,45 "/>
<path d="M 103.923,90 l -25.9808,-45 -25.9808,45 "/>
<path d="M 155.885,90 l -25.9808,-45 -25.9808,45 "/>
<path d="M 207.846,90 l -25.9808,-45 -25.9808,45 "/>
<path d="M 259.808,90 l -25.9808,-45 -25.9808,45 "/>
<path d="M 311.769,90 l -25.9808,-45 -25.9808,45 "/>
<path d="M 363.731,90 l -25.9808,-45 -25.9808,45 "/>
<path d="M 415.692,90 l -25.9808,-45 -25.9808,45 "/>
<path d="M 467.654,90 l -25.9808,-45 -25.9808,45 "/>
<path d="M 519.615,90 l -25.9808,-45 -25.9808,45 "/>
<path d="M 77.9423,135 l -25.9808,-45 -25.9808,45 "/>
<path d="M 129.904,135 l -25.9808,-45 -25.9808,45 "/>
<path d="M 181.865,135 l -25.9808,-45 -25.9808,45 "/>
<path d="M 233.827,135 l -25.9808,-45 -25.9808,45 "/>
<path d="M 285.788,135 l -25.9808,-45 -25.9808,45 "/>
<path d="M 337.75,135 l -25.9808,-45 -25.9808,45 "/>
<path d="M 389.711,135 l -25.9808,-45 -25.9808,45 "/>
<path d="M 441.673,135 l -25.9808,-45 -25.9808,45 "/>
<path d="M 493.634,135 l -25.9808,-45 -25.9808,45 "/>
<path d="M 545.596,135 l -25.9808,-45 -25.9808,45 "/>
<path d="M 51.9615,180 l -25.9808,-45 -25.9808,45 "/>
<path d="M 103.923,180 l -25.9808,-45 -25.9808,45 "/>
<path d="M 155.885,180 l -25.9808,-45 -25.9808,45 "/>
<path d="M 207.846,180 l -25.9808,-45 -25.9808,45 "/>
<path d="M 259.808,180 l -25.9808,-45 -25.9808,45 "/>
<path d="M 311.769,180 l -25.9808,-45 -25.9808,45 "/>
<path d="M 363.731,180 l -25.9808,-45 -25.9808,45 "/>
<path d="M 415.692,180 l -25.9808,-45 -25.9808,45 "/>
<path d="M 467.654,180 l -25.9808,-45 -25.9808,45 "/>
<path d="M 519.615,180 l -25.9808,-45 -25.9808,45 "/>
<path d="M 77.9423,225 l -25.9808,-45 -25.9808,45 "/>
<path d="M 129.904,225 l -25.9808,-45 -25.9808,45 "/>
<path d="M 181.865,225 l -25.9808,-45 -25.9808,45 "/>
<path d="M 233.827,225 l -25.9808,-45 -25.9808,45 "/>
<path d="M 285.788,225 l -25.9808,-45 -25.9808,45 "/>
<path d="M 337.75,225 l -25.9808,-45 -25.9808,45 "/>
<path d="M 389.711,225 l -25.9808,-45 -25.9808,45 "/>
<path d="M 441.673,225 l -25.9808,-45 -25.9808,45 "/>
<path d="M 493.634,225 l -25.9808,-45 -25.9808,45 "/>
<path d="M 545.596,225 l -25.9808,-45 -25.9808,45 "/>
<path d="M 51.9615,270 l -25.9808,-45 -25.9808,45 "/>
<path d="M 103.923,270 l -25.9808,-45 -25.9808,45 "/>
<path d="M 155.885,270 l -25.9808,-45 -25.9808,45 "/>
<path d="M 207.846,270 l -25.9808,-45 -25.9808,45 "/>
<path d="M 259.808,270 l -25.9808,-45 -25.9808,45 "/>
<path d="M 311.769,270 l -25.9808,-45 -25.9808,45 "/>
<path d="M 363.731,270 l -25.9808,-45 -25.9808,45 "/>
<path d="M 415.692,270 l -25.9808,-45 -25.9808,45 "/>
<path d="M 467.654,270 l -25.9808,-45 -25.9808,45 "/>
<path d="M 519.615,270 l -25.9808,-45 -25.9808,45 "/>
<path d="M 77.9423,315 l -25.9808,-45 -25.9808,45 "/>
<path d="M 129.904,315 l -25.9808,-45 -25.9808,45 "/>
<path d="M 181.865,315 l -25.9808,-45 -25.9808,45 "/>
<path d="M 233.827,315 l -25.9808,-45 -25.9808,45 "/>
<path d="M 285.788,315 l -25.9808,-45 -25.9808,45 "/>
<path d="M 337.75,315 l -25.9808,-45 -25.9808,45 "/>
<path d="M 389.711,315 l -25.9808,-45 -25.9808,45 "/>
<path d="M 441.673,315 l -25.9808,-45 -25.9808,45 "/>
<path d="M 493.634,315 l -25.9808,-45 -25.9808,45 "/>
<path d="M 545.596,315 l -25.9808,-45 -25.9808,45 "/>
<path d="M 51.9615,360 l -25.9808,-45 -25.9808,45 "/>
<path d="M 103.923,360 l -25.9808,-45 -25.9808,45 "/>
<path d="M 155.885,360 l -25.9808,-45 -25.9808,45 "/>
<path d="M 207.846,360 l -25.9808,-45 -25.9808,45 "/>
<path d="M 259.808,360 l -25.9808,-45 -25.9808,45 "/>
<path d="M 311.769,360 l -25.9808,-45 -25.9808,45 "/>
<path d="M 363.731,360 l -25.9808,-45 -25.9808,45 "/>
<path d="M 415.692,360 l -25.9808,-45 -25.9808,45 "/>
<path d="M 467.654,360 l -25.9808,-45 -25.9808,45 "/>
<path d="M 519.615,360 l -25.9808,-45 -25.9808,45 "/>
<path d="M 77.9423,405 l -25.9808,-45 -25.9808,45 "/>
<path d="M 129.904,405 l -25.9808,-45 -25.9808,45 "/>
<path d="M 181.865,405 l -25.9808,-45 -25.9808,45 "/>
<path d="M 233.827,405 l -25.9808,-45 -25.9808,45 "/>
<path d="M 285.788,405 l -25.9808,-45 -25.9808,45 "/>
<path d="M 337.75,405 l -25.9808,-45 -25.9808,45 "/>
<path d="M 389.711,405 l -25.9808,-45 -25.9808,45 "/>
<path d="M 441.673,405 l -25.9808,-45 -25.9808,45 "/>
<path d="M 493.634,405 l -25.9808,-45 -25.9808,45 "/>
<path d="M 545.596,405 l -25.9808,-45 -25.9808,45 "/>
<path d="M 51.9615,450 l -25.9808,-45 -25.9808,45 "/>
<path d="M 103.923,450 l -25.9808,-45 -25.9808,45 "/>
<path d="M 155.885,450 l -25.9808,-45 -25.9808,45 "/>
<path d="M 207.846,450 l -25.9808,-45 -25.9808,45 "/>
<path d="M 259.808,450 l -25.9808,-45 -25.9808,45 "/>
<path d="M 311.769,450 l -25.9808,-45 -25.9808,45 "/>
<path d="M 363.731,450 l -25.9808,-45 -25.9808,45 "/>
<path d="M 415.692,450 l -25.9808,-45 -25.9808,45 "/>
<path d="M 467.654,450 l -25.9808,-45 -25.9808,45 "/>
<path d="M 519.615,450 l -25.9808,-45 -25.9808,45 "/>
</g></g></svg>