<?xml version="1.0" encoding="UTF-8" standalone="no"?>
<!DOCTYPE svg PUBLIC "-//W3C//DTD SVG 1.1//EN" "http://www.w3.org/Graphics/SVG/1.1/DTD/svg11-flat.dtd"
[
<!ATTLIST g xmlns:fme CDATA #FIXED "http://www.safe.com/fme" >
<!ATTLIST path fme:_creation_instance CDATA #IMPLIED fme:i CDATA #IMPLIED >
<!ATTLIST ellipse fme:_creation_instance CDATA #IMPLIED fme:i CDATA #IMPLIED >
<!ATTLIST text fme:_creation_instance CDATA #IMPLIED fme:i CDATA #IMPLIED >
<!ATTLIST use fme:_creation_instance CDATA #IMPLIED fme:i CDATA #IMPLIED >
]>
<svg xmlns="http://www.w3.org/2000/svg"  viewBox="-8.05 -8.05 660.1 660.1"><g xmlns:fme="http://www.safe.com/fme" fill="none" stroke="black" stroke-width="0.0805" transform="translate(0,644) scale(1, -1)">
<g id="test" >
<path fme:_creation_instance="0" d="M 642,322 l -4.86152,55.5674 "/>
<path fme:_creation_instance="0" d="M 637.138,377.567 l -14.4368,53.879 "/>
<path fme:_creation_instance="0" d="M 622.702,431.446 l -23.5735,50.5536 "/>
<path fme:_creation_instance="0" d="M 599.128,482 l -31.9939,45.692 "/>
<path fme:_creation_instance="0" d="M 567.134,527.692 l -39.4422,39.4422 "/>
<path fme:_creation_instance="0" d="M 527.692,567.134 l -45.692,31.9939 "/>
<path fme:_creation_instance="0" d="M 482,599.128 l -50.5536,23.5735 "/>
<path fme:_creation_instance="0" d="M 431.446,622.702 l -53.879,14.4368 "/>
<path fme:_creation_instance="0" d="M 377.567,637.138 l -55.5674,4.86152 "/>
<path fme:_creation_instance="0" d="M 322,642 l -55.5674,-4.86152 "/>
<path fme:_creation_instance="0" d="M 266.433,637.138 l -53.879,-14.4368 "/>
<path fme:_creation_instance="0" d="M 212.554,622.702 l -50.5536,-23.5735 "/>
<path fme:_creation_instance="0" d="M 162,599.128 l -45.692,-31.9939 "/>
<path fme:_creation_instance="0" d="M 116.308,567.134 l -39.4422,-39.4422 "/>
<path fme:_creation_instance="0" d="M 76.8658,527.692 l -31.9939,-45.692 "/>
<path fme:_creation_instance="0" d="M 44.8719,482 l -23.5735,-50.5536 "/>
<path fme:_creation_instance="0" d="M 21.2984,431.446 l -14.4368,-53.879 "/>
<path fme:_creation_instance="0" d="M 6.86152,377.567 l -4.86152,-55.5674 "/>
<path fme:_creation_instance="0" d="M 2,322 l 4.86152,-55.5674 "/>
<path fme:_creation_instance="0" d="M 6.86152,266.433 l 14.4368,-53.879 "/>
<path fme:_creation_instance="0" d="M 21.2984,212.554 l 23.5735,-50.5536 "/>
<path fme:_creation_instance="0" d="M 44.8719,162 l 31.9939,-45.692 "/>
<path fme:_creation_instance="0" d="M 76.8658,116.308 l 39.4422,-39.4422 "/>
<path fme:_creation_instance="0" d="M 116.308,76.8658 l 45.692,-31.9939 "/>
<path fme:_creation_instance="0" d="M 162,44.8719 l 50.5536,-23.5735 "/>
<path fme:_creation_instance="0" d="M 212.554,21.2984 l 53.879,-14.4368 "/>
<path fme:_creation_instance="0" d="M 266.433,6.86152 l 55.5674,-4.86152 "/>
<path fme:_creation_instance="0" d="M 322,2 l 55.5674,4.86152 "/>
<path fme:_creation_instance="0" d="M 377.567,6.86152 l 53.879,14.4368 "/>
<path fme:_creation_instance="0" d="M 431.446,21.2984 l 50.5536,23.5735 "/>
<path fme:_creation_instance="0" d="M 482,44.8719 l 45.692,31.9939 "/>
<path fme:_creation_instance="0" d="M 527.692,76.8658 l 39.4422,39.4422 "/>
<path fme:_creation_instance="0" d="M 567.134,116.308 l 31.9939,45.692 "/>
<path fme:_creation_instance="0" d="M 599.128,162 l 23.5735,50.5536 "/>
<path fme:_creation_instance="0" d="M 622.702,212.554 l 14.4368,53.879 "/>
<path fme:_creation_instance="0" d="M 637.138,266.433 l 4.86152,55.5674 "/>
<path fme:_creation_instance="0" d="M 642,322 l -640,5.68434e-14 "/>
<path fme:_creation_instance="0" d="M 637.138,377.567 l -630.277,-111.135 "/>
<path fme:_creation_instance="0" d="M 622.702,431.446 l -601.403,-218.893 "/>
<path fme:_creation_instance="0" d="M 599.128,482 l -554.256,-320 "/>
<path fme:_creation_instance="0" d="M 567.134,527.692 l -490.268,-411.384 "/>
<path fme:_creation_instance="0" d="M 527.692,567.134 l -411.384,-490.268 "/>
<path fme:_creation_instance="0" d="M 482,599.128 l -320,-554.256 "/>
<path fme:_creation_instance="0" d="M 431.446,622.702 l -218.893,-601.403 "/>
<path fme:_creation_instance="0" d="M 377.567,637.138 l -111.135,-630.277 "/>
<path fme:_creation_instance="0" d="M 322,642 l -5.68434e-14,-640 "/>
<path fme:_creation_instance="0" d="M 266.433,637.138 l 111.135,-630.277 "/>
<path fme:_creation_instance="0" d="M 212.554,622.702 l 218.893,-601.403 "/>
<path fme:_creation_instance="0" d="M 162,599.128 l 320,-554.256 "/>
<path fme:_creation_instance="0" d="M 116.308,567.134 l 411.384,-490.268 "/>
<path fme:_creation_instance="0" d="M 76.8658,527.692 l 490.268,-411.384 "/>
<path fme:_creation_instance="0" d="M 44.8719,482 l 554.256,-320 "/>
<path fme:_creation_instance="0" d="M 21.2984,431.446 l 601.403,-218.893 "/>
<path fme:_creation_instance="0" d="M 6.86152,377.567 l 630.277,-111.135 "/>
<path fme:_creation_instance="0" d="M 640.008,321.826 l -4.86152,55.5674 -0.0076106,0.174311 0.0076106,0.174311 0.0227739,0.172985 0.0377639,0.170342 0.0524664,0.166402 0.0667697,0.161196 0.0805648,0.154763 0.0937467,0.147153 0.106215,0.138422 0.117875,0.128638 0.128638,0.117875 0.138422,0.106215 0.147153,0.0937467 0.154763,0.0805648 0.161196,0.0667697 0.166402,0.0524664 0.170342,0.0377639 0.172985,0.0227739 0.174311,0.0076106 0.174311,-0.0076106 0.172985,-0.0227739 0.170342,-0.0377639 0.166402,-0.0524664 0.161196,-0.0667697 0.154763,-0.0805648 0.147153,-0.0937467 0.138422,-0.106215 0.128638,-0.117875 0.117875,-0.128638 0.106215,-0.138422 0.0937467,-0.147153 0.0805648,-0.154763 0.0667697,-0.161196 0.0524664,-0.166402 0.0377639,-0.170342 0.0227739,-0.172985 4.86152,-55.5674 0.0076106,-0.174311 -0.0076106,-0.174311 -0.0227739,-0.172985 -0.0377639,-0.170342 -0.0524664,-0.166402 -0.0667697,-0.161196 -0.0805648,-0.154763 -0.0937467,-0.147153 -0.106215,-0.138422 -0.117875,-0.128638 -0.128638,-0.117875 -0.138422,-0.106215 -0.147153,-0.0937467 -0.154763,-0.0805648 -0.161196,-0.0667697 -0.166402,-0.0524664 -0.170342,-0.0377639 -0.172985,-0.0227739 -0.174311,-0.0076106 -0.174311,0.0076106 -0.172985,0.0227739 -0.170342,0.0377639 -0.166402,0.0524664 -0.161196,0.0667697 -0.154763,0.0805648 -0.147153,0.0937467 -0.138422,0.106215 -0.128638,0.117875 -0.117875,0.128638 -0.106215,0.138422 -0.0937467,0.147153 -0.0805648,0.154763 -0.0667697,0.161196 -0.0524664,0.166402 -0.0377639,0.170342 -0.0227739,0.172985 z "/>
<path fme:_creation_instance="0" d="M 635.207,377.05 l -14.4368,53.879 -0.0377639,0.170342 -0.0227739,0.172985 -0.0076106,0.174311 0.0076106,0.174311 0.0227739,0.172985 0.0377639,0.170342 0.0524664,0.166402 0.0667697,0.161196 0.0805648,0.154763 0.0937467,0.147153 0.106215,0.138422 0.117875,0.128638 0.128638,0.117875 0.138422,0.106215 0.147153,0.0937467 0.154763,0.0805648 0.161196,0.0667697 0.166402,0.0524664 0.170342,0.0377639 0.172985,0.0227739 0.174311,0.0076106 0.174311,-0.0076106 0.172985,-0.0227739 0.170342,-0.0377639 0.166402,-0.0524664 0.161196,-0.0667697 0.154763,-0.0805648 0.147153,-0.0937467 0.138422,-0.106215 0.128638,-0.117875 0.117875,-0.128638 0.106215,-0.138422 0.0937467,-0.147153 0.0805648,-0.154763 0.0667697,-0.161196 0.0524664,-0.166402 14.4368,-53.879 0.0377639,-0.170342 0.0227739,-0.172985 0.0076106,-0.174311 -0.0076106,-0.174311 -0.0227739,-0.172985 -0.0377639,-0.170342 -0.0524664,-0.166402 -0.0667697,-0.161196 -0.0805648,-0.154763 -0.0937467,-0.147153 -0.106215,-0.138422 -0.117875,-0.128638 -0.128638,-0.117875 -0.138422,-0.106215 -0.147153,-0.0937467 -0.154763,-0.0805648 -0.161196,-0.0667697 -0.166402,-0.0524664 -0.170342,-0.0377639 -0.172985,-0.0227739 -0.174311,-0.0076106 -0.174311,0.0076106 -0.172985,0.0227739 -0.170342,0.0377639 -0.166402,0.0524664 -0.161196,0.0667697 -0.154763,0.0805648 -0.147153,0.0937467 -0.138422,0.106215 -0.128638,0.117875 -0.117875,0.128638 -0.106215,0.138422 -0.0937467,0.147153 -0.0805648,0.154763 -0.0667697,0.161196 -0.0524664,0.166402 z "/>
<path fme:_creation_instance="0" d="M 620.889,430.601 l -23.5735,50.5536 -0.0667697,0.161196 -0.0524664,0.166402 -0.0377639,0.170342 -0.0227739,0.172985 -0.0076106,0.174311 0.0076106,0.174311 0.0227739,0.172985 0.0377639,0.170342 0.0524664,0.166402 0.0667697,0.161196 0.0805648,0.154763 0.0937467,0.147153 0.106215,0.138422 0.117875,0.128638 0.128638,0.117875 0.138422,0.106215 0.147153,0.0937467 0.154763,0.0805648 0.161196,0.0667697 0.166402,0.0524664 0.170342,0.0377639 0.172985,0.0227739 0.174311,0.0076106 0.174311,-0.0076106 0.172985,-0.0227739 0.170342,-0.0377639 0.166402,-0.0524664 0.161196,-0.0667697 0.154763,-0.0805648 0.147153,-0.0937467 0.138422,-0.106215 0.128638,-0.117875 0.117875,-0.128638 0.106215,-0.138422 0.0937467,-0.147153 0.0805648,-0.154763 23.5735,-50.5536 0.0667697,-0.161196 0.0524664,-0.166402 0.0377639,-0.170342 0.0227739,-0.172985 0.0076106,-0.174311 -0.0076106,-0.174311 -0.0227739,-0.172985 -0.0377639,-0.170342 -0.0524664,-0.166402 -0.0667697,-0.161196 -0.0805648,-0.154763 -0.0937467,-0.147153 -0.106215,-0.138422 -0.117875,-0.128638 -0.128638,-0.117875 -0.138422,-0.106215 -0.147153,-0.0937467 -0.154763,-0.0805648 -0.161196,-0.0667697 -0.166402,-0.0524664 -0.170342,-0.0377639 -0.172985,-0.0227739 -0.174311,-0.0076106 -0.174311,0.0076106 -0.172985,0.0227739 -0.170342,0.0377639 -0.166402,0.0524664 -0.161196,0.0667697 -0.154763,0.0805648 -0.147153,0.0937467 -0.138422,0.106215 -0.128638,0.117875 -0.117875,0.128638 -0.106215,0.138422 -0.0937467,0.147153 -0.0805648,0.154763 z "/>
<path fme:_creation_instance="0" d="M 597.49,480.853 l -31.9939,45.692 -0.0937467,0.147153 -0.0805648,0.154763 -0.0667697,0.161196 -0.0524664,0.166402 -0.0377639,0.170342 -0.0227739,0.172985 -0.0076106,0.174311 0.0076106,0.174311 0.0227739,0.172985 0.0377639,0.170342 0.0524664,0.166402 0.0667697,0.161196 0.0805648,0.154763 0.0937467,0.147153 0.106215,0.138422 0.117875,0.128638 0.128638,0.117875 0.138422,0.106215 0.147153,0.0937467 0.154763,0.0805648 0.161196,0.0667697 0.166402,0.0524664 0.170342,0.0377639 0.172985,0.0227739 0.174311,0.0076106 0.174311,-0.0076106 0.172985,-0.0227739 0.170342,-0.0377639 0.166402,-0.0524664 0.161196,-0.0667697 0.154763,-0.0805648 0.147153,-0.0937467 0.138422,-0.106215 0.128638,-0.117875 0.117875,-0.128638 0.106215,-0.138422 31.9939,-45.692 0.0937467,-0.147153 0.0805648,-0.154763 0.0667697,-0.161196 0.0524664,-0.166402 0.0377639,-0.170342 0.0227739,-0.172985 0.0076106,-0.174311 -0.0076106,-0.174311 -0.0227739,-0.172985 -0.0377639,-0.170342 -0.0524664,-0.166402 -0.0667697,-0.161196 -0.0805648,-0.154763 -0.0937467,-0.147153 -0.106215,-0.138422 -0.117875,-0.128638 -0.128638,-0.117875 -0.138422,-0.106215 -0.147153,-0.0937467 -0.154763,-0.0805648 -0.161196,-0.0667697 -0.166402,-0.0524664 -0.170342,-0.0377639 -0.172985,-0.0227739 -0.174311,-0.0076106 -0.174311,0.0076106 -0.172985,0.0227739 -0.170342,0.0377639 -0.166402,0.0524664 -0.161196,0.0667697 -0.154763,0.0805648 -0.147153,0.0937467 -0.138422,0.106215 -0.128638,0.117875 -0.117875,0.128638 -0.106215,0.138422 z "/>
<path fme:_creation_instance="0" d="M 565.72,526.278 l -39.4422,39.4422 -0.117875,0.128638 -0.106215,0.138422 -0.0937467,0.147153 -0.0805648,0.154763 -0.0667697,0.161196 -0.0524664,0.166402 -0.0377639,0.170342 -0.0227739,0.172985 -0.0076106,0.174311 0.0076106,0.174311 0.0227739,0.172985 0.0377639,0.170342 0.0524664,0.166402 0.0667697,0.161196 0.0805648,0.154763 0.0937467,0.147153 0.106215,0.138422 0.117875,0.128638 0.128638,0.117875 0.138422,0.106215 0.147153,0.0937467 0.154763,0.0805648 0.161196,0.0667697 0.166402,0.0524664 0.170342,0.0377639 0.172985,0.0227739 0.174311,0.0076106 0.174311,-0.0076106 0.172985,-0.0227739 0.170342,-0.0377639 0.166402,-0.0524664 0.161196,-0.0667697 0.154763,-0.0805648 0.147153,-0.0937467 0.138422,-0.106215 0.128638,-0.117875 39.4422,-39.4422 0.117875,-0.128638 0.106215,-0.138422 0.0937467,-0.147153 0.0805648,-0.154763 0.0667697,-0.161196 0.0524664,-0.166402 0.0377639,-0.170342 0.0227739,-0.172985 0.0076106,-0.174311 -0.0076106,-0.174311 -0.0227739,-0.172985 -0.0377639,-0.170342 -0.0524664,-0.166402 -0.0667697,-0.161196 -0.0805648,-0.154763 -0.0937467,-0.147153 -0.106215,-0.138422 -0.117875,-0.128638 -0.128638,-0.117875 -0.138422,-0.106215 -0.147153,-0.0937467 -0.154763,-0.0805648 -0.161196,-0.0667697 -0.166402,-0.0524664 -0.170342,-0.0377639 -0.172985,-0.0227739 -0.174311,-0.0076106 -0.174311,0.0076106 -0.172985,0.0227739 -0.170342,0.0377639 -0.166402,0.0524664 -0.161196,0.0667697 -0.154763,0.0805648 -0.147153,0.0937467 -0.138422,0.106215 -0.128638,0.117875 z "/>
<path fme:_creation_instance="0" d="M 526.545,565.496 l -45.692,31.9939 -0.138422,0.106215 -0.128638,0.117875 -0.117875,0.128638 -0.106215,0.138422 -0.0937467,0.147153 -0.0805648,0.154763 -0.0667697,0.161196 -0.0524664,0.166402 -0.0377639,0.170342 -0.0227739,0.172985 -0.0076106,0.174311 0.0076106,0.174311 0.0227739,0.172985 0.0377639,0.170342 0.0524664,0.166402 0.0667697,0.161196 0.0805648,0.154763 0.0937467,0.147153 0.106215,0.138422 0.117875,0.128638 0.128638,0.117875 0.138422,0.106215 0.147153,0.0937467 0.154763,0.0805648 0.161196,0.0667697 0.166402,0.0524664 0.170342,0.0377639 0.172985,0.0227739 0.174311,0.0076106 0.174311,-0.0076106 0.172985,-0.0227739 0.170342,-0.0377639 0.166402,-0.0524664 0.161196,-0.0667697 0.154763,-0.0805648 0.147153,-0.0937467 45.692,-31.9939 0.138422,-0.106215 0.128638,-0.117875 0.117875,-0.128638 0.106215,-0.138422 0.0937467,-0.147153 0.0805648,-0.154763 0.0667697,-0.161196 0.0524664,-0.166402 0.0377639,-0.170342 0.0227739,-0.172985 0.0076106,-0.174311 -0.0076106,-0.174311 -0.0227739,-0.172985 -0.0377639,-0.170342 -0.0524664,-0.166402 -0.0667697,-0.161196 -0.0805648,-0.154763 -0.0937467,-0.147153 -0.106215,-0.138422 -0.117875,-0.128638 -0.128638,-0.117875 -0.138422,-0.106215 -0.147153,-0.0937467 -0.154763,-0.0805648 -0.161196,-0.0667697 -0.166402,-0.0524664 -0.170342,-0.0377639 -0.172985,-0.0227739 -0.174311,-0.0076106 -0.174311,0.0076106 -0.172985,0.0227739 -0.170342,0.0377639 -0.166402,0.0524664 -0.161196,0.0667697 -0.154763,0.0805648 -0.147153,0.0937467 z "/>
<path fme:_creation_instance="0" d="M 481.155,597.316 l -50.5536,23.5735 -0.154763,0.0805648 -0.147153,0.0937467 -0.138422,0.106215 -0.128638,0.117875 -0.117875,0.128638 -0.106215,0.138422 -0.0937467,0.147153 -0.0805648,0.154763 -0.0667697,0.161196 -0.0524664,0.166402 -0.0377639,0.170342 -0.0227739,0.172985 -0.0076106,0.174311 0.0076106,0.174311 0.0227739,0.172985 0.0377639,0.170342 0.0524664,0.166402 0.0667697,0.161196 0.0805648,0.154763 0.0937467,0.147153 0.106215,0.138422 0.117875,0.128638 0.128638,0.117875 0.138422,0.106215 0.147153,0.0937467 0.154763,0.0805648 0.161196,0.0667697 0.166402,0.0524664 0.170342,0.0377639 0.172985,0.0227739 0.174311,0.0076106 0.174311,-0.0076106 0.172985,-0.0227739 0.170342,-0.0377639 0.166402,-0.0524664 0.161196,-0.0667697 50.5536,-23.5735 0.154763,-0.0805648 0.147153,-0.0937467 0.138422,-0.106215 0.128638,-0.117875 0.117875,-0.128638 0.106215,-0.138422 0.0937467,-0.147153 0.0805648,-0.154763 0.0667697,-0.161196 0.0524664,-0.166402 0.0377639,-0.170342 0.0227739,-0.172985 0.0076106,-0.174311 -0.0076106,-0.174311 -0.0227739,-0.172985 -0.0377639,-0.170342 -0.0524664,-0.166402 -0.0667697,-0.161196 -0.0805648,-0.154763 -0.0937467,-0.147153 -0.106215,-0.138422 -0.117875,-0.128638 -0.128638,-0.117875 -0.138422,-0.106215 -0.147153,-0.0937467 -0.154763,-0.0805648 -0.161196,-0.0667697 -0.166402,-0.0524664 -0.170342,-0.0377639 -0.172985,-0.0227739 -0.174311,-0.0076106 -0.174311,0.0076106 -0.172985,0.0227739 -0.170342,0.0377639 -0.166402,0.0524664 -0.161196,0.0667697 z "/>
<path fme:_creation_instance="0" d="M 430.929,620.77 l -53.879,14.4368 -0.166402,0.0524664 -0.161196,0.0667697 -0.154763,0.0805648 -0.147153,0.0937467 -0.138422,0.106215 -0.128638,0.117875 -0.117875,0.128638 -0.106215,0.138422 -0.0937467,0.147153 -0.0805648,0.154763 -0.0667697,0.161196 -0.0524664,0.166402 -0.0377639,0.170342 -0.0227739,0.172985 -0.0076106,0.174311 0.0076106,0.174311 0.0227739,0.172985 0.0377639,0.170342 0.0524664,0.166402 0.0667697,0.161196 0.0805648,0.154763 0.0937467,0.147153 0.106215,0.138422 0.117875,0.128638 0.128638,0.117875 0.138422,0.106215 0.147153,0.0937467 0.154763,0.0805648 0.161196,0.0667697 0.166402,0.0524664 0.170342,0.0377639 0.172985,0.0227739 0.174311,0.0076106 0.174311,-0.0076106 0.172985,-0.0227739 0.170342,-0.0377639 53.879,-14.4368 0.166402,-0.0524664 0.161196,-0.0667697 0.154763,-0.0805648 0.147153,-0.0937467 0.138422,-0.106215 0.128638,-0.117875 0.117875,-0.128638 0.106215,-0.138422 0.0937467,-0.147153 0.0805648,-0.154763 0.0667697,-0.161196 0.0524664,-0.166402 0.0377639,-0.170342 0.0227739,-0.172985 0.0076106,-0.174311 -0.0076106,-0.174311 -0.0227739,-0.172985 -0.0377639,-0.170342 -0.0524664,-0.166402 -0.0667697,-0.161196 -0.0805648,-0.154763 -0.0937467,-0.147153 -0.106215,-0.138422 -0.117875,-0.128638 -0.128638,-0.117875 -0.138422,-0.106215 -0.147153,-0.0937467 -0.154763,-0.0805648 -0.161196,-0.0667697 -0.166402,-0.0524664 -0.170342,-0.0377639 -0.172985,-0.0227739 -0.174311,-0.0076106 -0.174311,0.0076106 -0.172985,0.0227739 -0.170342,0.0377639 z "/>
<path fme:_creation_instance="0" d="M 377.393,635.146 l -55.5674,4.86152 -0.172985,0.0227739 -0.170342,0.0377639 -0.166402,0.0524664 -0.161196,0.0667697 -0.154763,0.0805648 -0.147153,0.0937467 -0.138422,0.106215 -0.128638,0.117875 -0.117875,0.128638 -0.106215,0.138422 -0.0937467,0.147153 -0.0805648,0.154763 -0.0667697,0.161196 -0.0524664,0.166402 -0.0377639,0.170342 -0.0227739,0.172985 -0.0076106,0.174311 0.0076106,0.174311 0.0227739,0.172985 0.0377639,0.170342 0.0524664,0.166402 0.0667697,0.161196 0.0805648,0.154763 0.0937467,0.147153 0.106215,0.138422 0.117875,0.128638 0.128638,0.117875 0.138422,0.106215 0.147153,0.0937467 0.154763,0.0805648 0.161196,0.0667697 0.166402,0.0524664 0.170342,0.0377639 0.172985,0.0227739 0.174311,0.0076106 0.174311,-0.0076106 55.5674,-4.86152 0.172985,-0.0227739 0.170342,-0.0377639 0.166402,-0.0524664 0.161196,-0.0667697 0.154763,-0.0805648 0.147153,-0.0937467 0.138422,-0.106215 0.128638,-0.117875 0.117875,-0.128638 0.106215,-0.138422 0.0937467,-0.147153 0.0805648,-0.154763 0.0667697,-0.161196 0.0524664,-0.166402 0.0377639,-0.170342 0.0227739,-0.172985 0.0076106,-0.174311 -0.0076106,-0.174311 -0.0227739,-0.172985 -0.0377639,-0.170342 -0.0524664,-0.166402 -0.0667697,-0.161196 -0.0805648,-0.154763 -0.0937467,-0.147153 -0.106215,-0.138422 -0.117875,-0.128638 -0.128638,-0.117875 -0.138422,-0.106215 -0.147153,-0.0937467 -0.154763,-0.0805648 -0.161196,-0.0667697 -0.166402,-0.0524664 -0.170342,-0.0377639 -0.172985,-0.0227739 -0.174311,-0.0076106 -0.174311,0.0076106 z "/>
<path fme:_creation_instance="0" d="M 322.174,640.008 l -55.5674,-4.86152 -0.174311,-0.0076106 -0.174311,0.0076106 -0.172985,0.0227739 -0.170342,0.0377639 -0.166402,0.0524664 -0.161196,0.0667697 -0.154763,0.0805648 -0.147153,0.0937467 -0.138422,0.106215 -0.128638,0.117875 -0.117875,0.128638 -0.106215,0.138422 -0.0937467,0.147153 -0.0805648,0.154763 -0.0667697,0.161196 -0.0524664,0.166402 -0.0377639,0.170342 -0.0227739,0.172985 -0.0076106,0.174311 0.0076106,0.174311 0.0227739,0.172985 0.0377639,0.170342 0.0524664,0.166402 0.0667697,0.161196 0.0805648,0.154763 0.0937467,0.147153 0.106215,0.138422 0.117875,0.128638 0.128638,0.117875 0.138422,0.106215 0.147153,0.0937467 0.154763,0.0805648 0.161196,0.0667697 0.166402,0.0524664 0.170342,0.0377639 0.172985,0.0227739 55.5674,4.86152 0.174311,0.0076106 0.174311,-0.0076106 0.172985,-0.0227739 0.170342,-0.0377639 0.166402,-0.0524664 0.161196,-0.0667697 0.154763,-0.0805648 0.147153,-0.0937467 0.138422,-0.106215 0.128638,-0.117875 0.117875,-0.128638 0.106215,-0.138422 0.0937467,-0.147153 0.0805648,-0.154763 0.0667697,-0.161196 0.0524664,-0.166402 0.0377639,-0.170342 0.0227739,-0.172985 0.0076106,-0.174311 -0.0076106,-0.174311 -0.0227739,-0.172985 -0.0377639,-0.170342 -0.0524664,-0.166402 -0.0667697,-0.161196 -0.0805648,-0.154763 -0.0937467,-0.147153 -0.106215,-0.138422 -0.117875,-0.128638 -0.128638,-0.117875 -0.138422,-0.106215 -0.147153,-0.0937467 -0.154763,-0.0805648 -0.161196,-0.0667697 -0.166402,-0.0524664 -0.170342,-0.0377639 -0.172985,-0.0227739 z "/>
<path fme:_creation_instance="0" d="M 266.95,635.207 l -53.879,-14.4368 -0.170342,-0.0377639 -0.172985,-0.0227739 -0.174311,-0.0076106 -0.174311,0.0076106 -0.172985,0.0227739 -0.170342,0.0377639 -0.166402,0.0524664 -0.161196,0.0667697 -0.154763,0.0805648 -0.147153,0.0937467 -0.138422,0.106215 -0.128638,0.117875 -0.117875,0.128638 -0.106215,0.138422 -0.0937467,0.147153 -0.0805648,0.154763 -0.0667697,0.161196 -0.0524664,0.166402 -0.0377639,0.170342 -0.0227739,0.172985 -0.0076106,0.174311 0.0076106,0.174311 0.0227739,0.172985 0.0377639,0.170342 0.0524664,0.166402 0.0667697,0.161196 0.0805648,0.154763 0.0937467,0.147153 0.106215,0.138422 0.117875,0.128638 0.128638,0.117875 0.138422,0.106215 0.147153,0.0937467 0.154763,0.0805648 0.161196,0.0667697 0.166402,0.0524664 53.879,14.4368 0.170342,0.0377639 0.172985,0.0227739 0.174311,0.0076106 0.174311,-0.0076106 0.172985,-0.0227739 0.170342,-0.0377639 0.166402,-0.0524664 0.161196,-0.0667697 0.154763,-0.0805648 0.147153,-0.0937467 0.138422,-0.106215 0.128638,-0.117875 0.117875,-0.128638 0.106215,-0.138422 0.0937467,-0.147153 0.0805648,-0.154763 0.0667697,-0.161196 0.0524664,-0.166402 0.0377639,-0.170342 0.0227739,-0.172985 0.0076106,-0.174311 -0.0076106,-0.174311 -0.0227739,-0.172985 -0.0377639,-0.170342 -0.0524664,-0.166402 -0.0667697,-0.161196 -0.0805648,-0.154763 -0.0937467,-0.147153 -0.106215,-0.138422 -0.117875,-0.128638 -0.128638,-0.117875 -0.138422,-0.106215 -0.147153,-0.0937467 -0.154763,-0.0805648 -0.161196,-0.0667697 -0.166402,-0.0524664 z "/>
<path fme:_creation_instance="0" d="M 213.399,620.889 l -50.5536,-23.5735 -0.161196,-0.0667697 -0.166402,-0.0524664 -0.170342,-0.0377639 -0.172985,-0.0227739 -0.174311,-0.0076106 -0.174311,0.0076106 -0.172985,0.0227739 -0.170342,0.0377639 -0.166402,0.0524664 -0.161196,0.0667697 -0.154763,0.0805648 -0.147153,0.0937467 -0.138422,0.106215 -0.128638,0.117875 -0.117875,0.128638 -0.106215,0.138422 -0.0937467,0.147153 -0.0805648,0.154763 -0.0667697,0.161196 -0.0524664,0.166402 -0.0377639,0.170342 -0.0227739,0.172985 -0.0076106,0.174311 0.0076106,0.174311 0.0227739,0.172985 0.0377639,0.170342 0.0524664,0.166402 0.0667697,0.161196 0.0805648,0.154763 0.0937467,0.147153 0.106215,0.138422 0.117875,0.128638 0.128638,0.117875 0.138422,0.106215 0.147153,0.0937467 0.154763,0.0805648 50.5536,23.5735 0.161196,0.0667697 0.166402,0.0524664 0.170342,0.0377639 0.172985,0.0227739 0.174311,0.0076106 0.174311,-0.0076106 0.172985,-0.0227739 0.170342,-0.0377639 0.166402,-0.0524664 0.161196,-0.0667697 0.154763,-0.0805648 0.147153,-0.0937467 0.138422,-0.106215 0.128638,-0.117875 0.117875,-0.128638 0.106215,-0.138422 0.0937467,-0.147153 0.0805648,-0.154763 0.0667697,-0.161196 0.0524664,-0.166402 0.0377639,-0.170342 0.0227739,-0.172985 0.0076106,-0.174311 -0.0076106,-0.174311 -0.0227739,-0.172985 -0.0377639,-0.170342 -0.0524664,-0.166402 -0.0667697,-0.161196 -0.0805648,-0.154763 -0.0937467,-0.147153 -0.106215,-0.138422 -0.117875,-0.128638 -0.128638,-0.117875 -0.138422,-0.106215 -0.147153,-0.0937467 -0.154763,-0.0805648 z "/>
<path fme:_creation_instance="0" d="M 163.147,597.49 l -45.692,-31.9939 -0.147153,-0.0937467 -0.154763,-0.0805648 -0.161196,-0.0667697 -0.166402,-0.0524664 -0.170342,-0.0377639 -0.172985,-0.0227739 -0.174311,-0.0076106 -0.174311,0.0076106 -0.172985,0.0227739 -0.170342,0.0377639 -0.166402,0.0524664 -0.161196,0.0667697 -0.154763,0.0805648 -0.147153,0.0937467 -0.138422,0.106215 -0.128638,0.117875 -0.117875,0.128638 -0.106215,0.138422 -0.0937467,0.147153 -0.0805648,0.154763 -0.0667697,0.161196 -0.0524664,0.166402 -0.0377639,0.170342 -0.0227739,0.172985 -0.0076106,0.174311 0.0076106,0.174311 0.0227739,0.172985 0.0377639,0.170342 0.0524664,0.166402 0.0667697,0.161196 0.0805648,0.154763 0.0937467,0.147153 0.106215,0.138422 0.117875,0.128638 0.128638,0.117875 0.138422,0.106215 45.692,31.9939 0.147153,0.0937467 0.154763,0.0805648 0.161196,0.0667697 0.166402,0.0524664 0.170342,0.0377639 0.172985,0.0227739 0.174311,0.0076106 0.174311,-0.0076106 0.172985,-0.0227739 0.170342,-0.0377639 0.166402,-0.0524664 0.161196,-0.0667697 0.154763,-0.0805648 0.147153,-0.0937467 0.138422,-0.106215 0.128638,-0.117875 0.117875,-0.128638 0.106215,-0.138422 0.0937467,-0.147153 0.0805648,-0.154763 0.0667697,-0.161196 0.0524664,-0.166402 0.0377639,-0.170342 0.0227739,-0.172985 0.0076106,-0.174311 -0.0076106,-0.174311 -0.0227739,-0.172985 -0.0377639,-0.170342 -0.0524664,-0.166402 -0.0667697,-0.161196 -0.0805648,-0.154763 -0.0937467,-0.147153 -0.106215,-0.138422 -0.117875,-0.128638 -0.128638,-0.117875 -0.138422,-0.106215 z "/>
<path fme:_creation_instance="0" d="M 117.722,565.72 l -39.4422,-39.4422 -0.128638,-0.117875 -0.138422,-0.106215 -0.147153,-0.0937467 -0.154763,-0.0805648 -0.161196,-0.0667697 -0.166402,-0.0524664 -0.170342,-0.0377639 -0.172985,-0.0227739 -0.174311,-0.0076106 -0.174311,0.0076106 -0.172985,0.0227739 -0.170342,0.0377639 -0.166402,0.0524664 -0.161196,0.0667697 -0.154763,0.0805648 -0.147153,0.0937467 -0.138422,0.106215 -0.128638,0.117875 -0.117875,0.128638 -0.106215,0.138422 -0.0937467,0.147153 -0.0805648,0.154763 -0.0667697,0.161196 -0.0524664,0.166402 -0.0377639,0.170342 -0.0227739,0.172985 -0.0076106,0.174311 0.0076106,0.174311 0.0227739,0.172985 0.0377639,0.170342 0.0524664,0.166402 0.0667697,0.161196 0.0805648,0.154763 0.0937467,0.147153 0.106215,0.138422 0.117875,0.128638 39.4422,39.4422 0.128638,0.117875 0.138422,0.106215 0.147153,0.0937467 0.154763,0.0805648 0.161196,0.0667697 0.166402,0.0524664 0.170342,0.0377639 0.172985,0.0227739 0.174311,0.0076106 0.174311,-0.0076106 0.172985,-0.0227739 0.170342,-0.0377639 0.166402,-0.0524664 0.161196,-0.0667697 0.154763,-0.0805648 0.147153,-0.0937467 0.138422,-0.106215 0.128638,-0.117875 0.117875,-0.128638 0.106215,-0.138422 0.0937467,-0.147153 0.0805648,-0.154763 0.0667697,-0.161196 0.0524664,-0.166402 0.0377639,-0.170342 0.0227739,-0.172985 0.0076106,-0.174311 -0.0076106,-0.174311 -0.0227739,-0.172985 -0.0377639,-0.170342 -0.0524664,-0.166402 -0.0667697,-0.161196 -0.0805648,-0.154763 -0.0937467,-0.147153 -0.106215,-0.138422 -0.117875,-0.128638 z "/>
<path fme:_creation_instance="0" d="M 78.5041,526.545 l -31.9939,-45.692 -0.106215,-0.138422 -0.117875,-0.128638 -0.128638,-0.117875 -0.138422,-0.106215 -0.147153,-0.0937467 -0.154763,-0.0805648 -0.161196,-0.0667697 -0.166402,-0.0524664 -0.170342,-0.0377639 -0.172985,-0.0227739 -0.174311,-0.0076106 -0.174311,0.0076106 -0.172985,0.0227739 -0.170342,0.0377639 -0.166402,0.0524664 -0.161196,0.0667697 -0.154763,0.0805648 -0.147153,0.0937467 -0.138422,0.106215 -0.128638,0.117875 -0.117875,0.128638 -0.106215,0.138422 -0.0937467,0.147153 -0.0805648,0.154763 -0.0667697,0.161196 -0.0524664,0.166402 -0.0377639,0.170342 -0.0227739,0.172985 -0.0076106,0.174311 0.0076106,0.174311 0.0227739,0.172985 0.0377639,0.170342 0.0524664,0.166402 0.0667697,0.161196 0.0805648,0.154763 0.0937467,0.147153 31.9939,45.692 0.106215,0.138422 0.117875,0.128638 0.128638,0.117875 0.138422,0.106215 0.147153,0.0937467 0.154763,0.0805648 0.161196,0.0667697 0.166402,0.0524664 0.170342,0.0377639 0.172985,0.0227739 0.174311,0.0076106 0.174311,-0.0076106 0.172985,-0.0227739 0.170342,-0.0377639 0.166402,-0.0524664 0.161196,-0.0667697 0.154763,-0.0805648 0.147153,-0.0937467 0.138422,-0.106215 0.128638,-0.117875 0.117875,-0.128638 0.106215,-0.138422 0.0937467,-0.147153 0.0805648,-0.154763 0.0667697,-0.161196 0.0524664,-0.166402 0.0377639,-0.170342 0.0227739,-0.172985 0.0076106,-0.174311 -0.0076106,-0.174311 -0.0227739,-0.172985 -0.0377639,-0.170342 -0.0524664,-0.166402 -0.0667697,-0.161196 -0.0805648,-0.154763 -0.0937467,-0.147153 z "/>
<path fme:_creation_instance="0" d="M 46.6845,481.155 l -23.5735,-50.5536 -0.0805648,-0.154763 -0.0937467,-0.147153 -0.106215,-0.138422 -0.117875,-0.128638 -0.128638,-0.117875 -0.138422,-0.106215 -0.147153,-0.0937467 -0.154763,-0.0805648 -0.161196,-0.0667697 -0.166402,-0.0524664 -0.170342,-0.0377639 -0.172985,-0.0227739 -0.174311,-0.0076106 -0.174311,0.0076106 -0.172985,0.0227739 -0.170342,0.0377639 -0.166402,0.0524664 -0.161196,0.0667697 -0.154763,0.0805648 -0.147153,0.0937467 -0.138422,0.106215 -0.128638,0.117875 -0.117875,0.128638 -0.106215,0.138422 -0.0937467,0.147153 -0.0805648,0.154763 -0.0667697,0.161196 -0.0524664,0.166402 -0.0377639,0.170342 -0.0227739,0.172985 -0.0076106,0.174311 0.0076106,0.174311 0.0227739,0.172985 0.0377639,0.170342 0.0524664,0.166402 0.0667697,0.161196 23.5735,50.5536 0.078211,0.150676 0.0907075,0.1435 0.10255,0.135291 0.113654,0.126106 0.123939,0.116013 0.133332,0.105085 0.141763,0.0933988 0.149173,0.08104 0.155508,0.0680972 0.160723,0.0546639 0.16478,0.0408367 0.16765,0.0267152 0.169311,0.0124013 0.169753,-0.00200195 0.168972,-0.0163908 0.166973,-0.0306616 0.163771,-0.0447114 0.159389,-0.0584391 0.153859,-0.0717457 0.14722,-0.0845354 0.139521,-0.096716 0.130816,-0.1082 0.121169,-0.118904 0.110649,-0.128752 0.0993312,-0.137671 0.087298,-0.145599 0.0746358,-0.152478 0.0614359,-0.158258 0.0477933,-0.162898 0.0338064,-0.166365 0.0195759,-0.168632 0.00520438,-0.169685 -0.00920467,-0.169515 -0.0235474,-0.168124 -0.0377205,-0.165521 -0.0516217,-0.161726 -0.0651511,-0.156766 z "/>
<path fme:_creation_instance="0" d="M 23.2302,430.929 l -14.4368,-53.879 -0.0524664,-0.166402 -0.0667697,-0.161196 -0.0805648,-0.154763 -0.0937467,-0.147153 -0.106215,-0.138422 -0.117875,-0.128638 -0.128638,-0.117875 -0.138422,-0.106215 -0.147153,-0.0937467 -0.154763,-0.0805648 -0.161196,-0.0667697 -0.166402,-0.0524664 -0.170342,-0.0377639 -0.172985,-0.0227739 -0.174311,-0.0076106 -0.174311,0.0076106 -0.172985,0.0227739 -0.170342,0.0377639 -0.166402,0.0524664 -0.161196,0.0667697 -0.154763,0.0805648 -0.147153,0.0937467 -0.138422,0.106215 -0.128638,0.117875 -0.117875,0.128638 -0.106215,0.138422 -0.0937467,0.147153 -0.0805648,0.154763 -0.0667697,0.161196 -0.0524664,0.166402 -0.0377639,0.170342 -0.0227739,0.172985 -0.0076106,0.174311 0.0076106,0.174311 0.0227739,0.172985 0.0377639,0.170342 14.4368,53.879 0.0508583,0.161968 0.0644109,0.157071 0.0774994,0.151043 0.0900295,0.143926 0.101911,0.135773 0.113058,0.126641 0.123391,0.116597 0.132834,0.105712 0.141321,0.0940664 0.148789,0.0817427 0.155185,0.06883 0.160464,0.0554214 0.164586,0.0416135 0.167522,0.0275058 0.169251,0.0131998 0.169761,-0.00120119 0.169047,-0.0155936 0.167116,-0.0298736 0.16398,-0.0439384 0.159663,-0.0576866 0.154196,-0.0710191 0.147618,-0.08384 0.139976,-0.0960568 0.131325,-0.107582 0.121729,-0.118331 0.111255,-0.128228 0.0999795,-0.137201 0.0879839,-0.145186 0.0753543,-0.152124 0.0621818,-0.157967 0.0485612,-0.162671 0.0345908,-0.166203 0.0203712,-0.168538 0.00600474,-0.169659 -0.00840495,-0.169557 -0.0227541,-0.168233 -0.0369393,-0.165697 z "/>
<path fme:_creation_instance="0" d="M 8.85391,377.393 l -4.86152,-55.5674 -0.0227739,-0.172985 -0.0377639,-0.170342 -0.0524664,-0.166402 -0.0667697,-0.161196 -0.0805648,-0.154763 -0.0937467,-0.147153 -0.106215,-0.138422 -0.117875,-0.128638 -0.128638,-0.117875 -0.138422,-0.106215 -0.147153,-0.0937467 -0.154763,-0.0805648 -0.161196,-0.0667697 -0.166402,-0.0524664 -0.170342,-0.0377639 -0.172985,-0.0227739 -0.174311,-0.0076106 -0.174311,0.0076106 -0.172985,0.0227739 -0.170342,0.0377639 -0.166402,0.0524664 -0.161196,0.0667697 -0.154763,0.0805648 -0.147153,0.0937467 -0.138422,0.106215 -0.128638,0.117875 -0.117875,0.128638 -0.106215,0.138422 -0.0937467,0.147153 -0.0805648,0.154763 -0.0667697,0.161196 -0.0524664,0.166402 -0.0377639,0.170342 -0.0227739,0.172985 -0.0076106,0.174311 0.0076106,0.174311 4.86152,55.5674 0.0227739,0.172985 0.0377639,0.170342 0.0524664,0.166402 0.0667697,0.161196 0.0805648,0.154763 0.0937467,0.147153 0.106215,0.138422 0.117875,0.128638 0.128638,0.117875 0.138422,0.106215 0.147153,0.0937467 0.154763,0.0805648 0.161196,0.0667697 0.166402,0.0524664 0.170342,0.0377639 0.172985,0.0227739 0.174311,0.0076106 0.174311,-0.0076106 0.172985,-0.0227739 0.170342,-0.0377639 0.166402,-0.0524664 0.161196,-0.0667697 0.154763,-0.0805648 0.147153,-0.0937467 0.138422,-0.106215 0.128638,-0.117875 0.117875,-0.128638 0.106215,-0.138422 0.0937467,-0.147153 0.0805648,-0.154763 0.0667697,-0.161196 0.0524664,-0.166402 0.0377639,-0.170342 0.0227739,-0.172985 0.0076106,-0.174311 -0.0076106,-0.174311 z "/>
<path fme:_creation_instance="0" d="M 3.99239,322.174 l 4.86152,-55.5674 0.0076106,-0.174311 -0.0076106,-0.174311 -0.0227739,-0.172985 -0.0377639,-0.170342 -0.0524664,-0.166402 -0.0667697,-0.161196 -0.0805648,-0.154763 -0.0937467,-0.147153 -0.106215,-0.138422 -0.117875,-0.128638 -0.128638,-0.117875 -0.138422,-0.106215 -0.147153,-0.0937467 -0.154763,-0.0805648 -0.161196,-0.0667697 -0.166402,-0.0524664 -0.170342,-0.0377639 -0.172985,-0.0227739 -0.174311,-0.0076106 -0.174311,0.0076106 -0.172985,0.0227739 -0.170342,0.0377639 -0.166402,0.0524664 -0.161196,0.0667697 -0.154763,0.0805648 -0.147153,0.0937467 -0.138422,0.106215 -0.128638,0.117875 -0.117875,0.128638 -0.106215,0.138422 -0.0937467,0.147153 -0.0805648,0.154763 -0.0667697,0.161196 -0.0524664,0.166402 -0.0377639,0.170342 -0.0227739,0.172985 -4.86152,55.5674 -0.0076106,0.174311 0.0076106,0.174311 0.0227739,0.172985 0.0377639,0.170342 0.0524664,0.166402 0.0667697,0.161196 0.0805648,0.154763 0.0937467,0.147153 0.106215,0.138422 0.117875,0.128638 0.128638,0.117875 0.138422,0.106215 0.147153,0.0937467 0.154763,0.0805648 0.161196,0.0667697 0.166402,0.0524664 0.170342,0.0377639 0.172985,0.0227739 0.174311,0.0076106 0.174311,-0.0076106 0.172985,-0.0227739 0.170342,-0.0377639 0.166402,-0.0524664 0.161196,-0.0667697 0.154763,-0.0805648 0.147153,-0.0937467 0.138422,-0.106215 0.128638,-0.117875 0.117875,-0.128638 0.106215,-0.138422 0.0937467,-0.147153 0.0805648,-0.154763 0.0667697,-0.161196 0.0524664,-0.166402 0.0377639,-0.170342 0.0227739,-0.172985 z "/>
<path fme:_creation_instance="0" d="M 8.79337,266.95 l 14.4368,-53.879 0.0377639,-0.170342 0.0227739,-0.172985 0.0076106,-0.174311 -0.0076106,-0.174311 -0.0227739,-0.172985 -0.0377639,-0.170342 -0.0524664,-0.166402 -0.0667697,-0.161196 -0.0805648,-0.154763 -0.0937467,-0.147153 -0.106215,-0.138422 -0.117875,-0.128638 -0.128638,-0.117875 -0.138422,-0.106215 -0.147153,-0.0937467 -0.154763,-0.0805648 -0.161196,-0.0667697 -0.166402,-0.0524664 -0.170342,-0.0377639 -0.172985,-0.0227739 -0.174311,-0.0076106 -0.174311,0.0076106 -0.172985,0.0227739 -0.170342,0.0377639 -0.166402,0.0524664 -0.161196,0.0667697 -0.154763,0.0805648 -0.147153,0.0937467 -0.138422,0.106215 -0.128638,0.117875 -0.117875,0.128638 -0.106215,0.138422 -0.0937467,0.147153 -0.0805648,0.154763 -0.0667697,0.161196 -0.0524664,0.166402 -14.4368,53.879 -0.0377639,0.170342 -0.0227739,0.172985 -0.0076106,0.174311 0.0076106,0.174311 0.0227739,0.172985 0.0377639,0.170342 0.0524664,0.166402 0.0667697,0.161196 0.0805648,0.154763 0.0937467,0.147153 0.106215,0.138422 0.117875,0.128638 0.128638,0.117875 0.138422,0.106215 0.147153,0.0937467 0.154763,0.0805648 0.161196,0.0667697 0.166402,0.0524664 0.170342,0.0377639 0.172985,0.0227739 0.174311,0.0076106 0.174311,-0.0076106 0.172985,-0.0227739 0.170342,-0.0377639 0.166402,-0.0524664 0.161196,-0.0667697 0.154763,-0.0805648 0.147153,-0.0937467 0.138422,-0.106215 0.128638,-0.117875 0.117875,-0.128638 0.106215,-0.138422 0.0937467,-0.147153 0.0805648,-0.154763 0.0667697,-0.161196 0.0524664,-0.166402 z "/>
<path fme:_creation_instance="0" d="M 23.111,213.399 l 23.5735,-50.5536 0.0667697,-0.161196 0.0524664,-0.166402 0.0377639,-0.170342 0.0227739,-0.172985 0.0076106,-0.174311 -0.0076106,-0.174311 -0.0227739,-0.172985 -0.0377639,-0.170342 -0.0524664,-0.166402 -0.0667697,-0.161196 -0.0805648,-0.154763 -0.0937467,-0.147153 -0.106215,-0.138422 -0.117875,-0.128638 -0.128638,-0.117875 -0.138422,-0.106215 -0.147153,-0.0937467 -0.154763,-0.0805648 -0.161196,-0.0667697 -0.166402,-0.0524664 -0.170342,-0.0377639 -0.172985,-0.0227739 -0.174311,-0.0076106 -0.174311,0.0076106 -0.172985,0.0227739 -0.170342,0.0377639 -0.166402,0.0524664 -0.161196,0.0667697 -0.154763,0.0805648 -0.147153,0.0937467 -0.138422,0.106215 -0.128638,0.117875 -0.117875,0.128638 -0.106215,0.138422 -0.0937467,0.147153 -0.0805648,0.154763 -23.5735,50.5536 -0.0667697,0.161196 -0.0524664,0.166402 -0.0377639,0.170342 -0.0227739,0.172985 -0.0076106,0.174311 0.0076106,0.174311 0.0227739,0.172985 0.0377639,0.170342 0.0524664,0.166402 0.0667697,0.161196 0.0805648,0.154763 0.0937467,0.147153 0.106215,0.138422 0.117875,0.128638 0.128638,0.117875 0.138422,0.106215 0.147153,0.0937467 0.154763,0.0805648 0.161196,0.0667697 0.166402,0.0524664 0.170342,0.0377639 0.172985,0.0227739 0.174311,0.0076106 0.174311,-0.0076106 0.172985,-0.0227739 0.170342,-0.0377639 0.166402,-0.0524664 0.161196,-0.0667697 0.154763,-0.0805648 0.147153,-0.0937467 0.138422,-0.106215 0.128638,-0.117875 0.117875,-0.128638 0.106215,-0.138422 0.0937467,-0.147153 0.0805648,-0.154763 z "/>
<path fme:_creation_instance="0" d="M 46.5102,163.147 l 31.9939,-45.692 0.0937467,-0.147153 0.0805648,-0.154763 0.0667697,-0.161196 0.0524664,-0.166402 0.0377639,-0.170342 0.0227739,-0.172985 0.0076106,-0.174311 -0.0076106,-0.174311 -0.0227739,-0.172985 -0.0377639,-0.170342 -0.0524664,-0.166402 -0.0667697,-0.161196 -0.0805648,-0.154763 -0.0937467,-0.147153 -0.106215,-0.138422 -0.117875,-0.128638 -0.128638,-0.117875 -0.138422,-0.106215 -0.147153,-0.0937467 -0.154763,-0.0805648 -0.161196,-0.0667697 -0.166402,-0.0524664 -0.170342,-0.0377639 -0.172985,-0.0227739 -0.174311,-0.0076106 -0.174311,0.0076106 -0.172985,0.0227739 -0.170342,0.0377639 -0.166402,0.0524664 -0.161196,0.0667697 -0.154763,0.0805648 -0.147153,0.0937467 -0.138422,0.106215 -0.128638,0.117875 -0.117875,0.128638 -0.106215,0.138422 -31.9939,45.692 -0.0937467,0.147153 -0.0805648,0.154763 -0.0667697,0.161196 -0.0524664,0.166402 -0.0377639,0.170342 -0.0227739,0.172985 -0.0076106,0.174311 0.0076106,0.174311 0.0227739,0.172985 0.0377639,0.170342 0.0524664,0.166402 0.0667697,0.161196 0.0805648,0.154763 0.0937467,0.147153 0.106215,0.138422 0.117875,0.128638 0.128638,0.117875 0.138422,0.106215 0.147153,0.0937467 0.154763,0.0805648 0.161196,0.0667697 0.166402,0.0524664 0.170342,0.0377639 0.172985,0.0227739 0.174311,0.0076106 0.174311,-0.0076106 0.172985,-0.0227739 0.170342,-0.0377639 0.166402,-0.0524664 0.161196,-0.0667697 0.154763,-0.0805648 0.147153,-0.0937467 0.138422,-0.106215 0.128638,-0.117875 0.117875,-0.128638 0.106215,-0.138422 z "/>
<path fme:_creation_instance="0" d="M 78.28,117.722 l 39.4422,-39.4422 0.117875,-0.128638 0.106215,-0.138422 0.0937467,-0.147153 0.0805648,-0.154763 0.0667697,-0.161196 0.0524664,-0.166402 0.0377639,-0.170342 0.0227739,-0.172985 0.0076106,-0.174311 -0.0076106,-0.174311 -0.0227739,-0.172985 -0.0377639,-0.170342 -0.0524664,-0.166402 -0.0667697,-0.161196 -0.0805648,-0.154763 -0.0937467,-0.147153 -0.106215,-0.138422 -0.117875,-0.128638 -0.128638,-0.117875 -0.138422,-0.106215 -0.147153,-0.0937467 -0.154763,-0.0805648 -0.161196,-0.0667697 -0.166402,-0.0524664 -0.170342,-0.0377639 -0.172985,-0.0227739 -0.174311,-0.0076106 -0.174311,0.0076106 -0.172985,0.0227739 -0.170342,0.0377639 -0.166402,0.0524664 -0.161196,0.0667697 -0.154763,0.0805648 -0.147153,0.0937467 -0.138422,0.106215 -0.128638,0.117875 -39.4422,39.4422 -0.117875,0.128638 -0.106215,0.138422 -0.0937467,0.147153 -0.0805648,0.154763 -0.0667697,0.161196 -0.0524664,0.166402 -0.0377639,0.170342 -0.0227739,0.172985 -0.0076106,0.174311 0.0076106,0.174311 0.0227739,0.172985 0.0377639,0.170342 0.0524664,0.166402 0.0667697,0.161196 0.0805648,0.154763 0.0937467,0.147153 0.106215,0.138422 0.117875,0.128638 0.128638,0.117875 0.138422,0.106215 0.147153,0.0937467 0.154763,0.0805648 0.161196,0.0667697 0.166402,0.0524664 0.170342,0.0377639 0.172985,0.0227739 0.174311,0.0076106 0.174311,-0.0076106 0.172985,-0.0227739 0.170342,-0.0377639 0.166402,-0.0524664 0.161196,-0.0667697 0.154763,-0.0805648 0.147153,-0.0937467 0.138422,-0.106215 0.128638,-0.117875 z "/>
<path fme:_creation_instance="0" d="M 117.455,78.5041 l 45.692,-31.9939 0.138422,-0.106215 0.128638,-0.117875 0.117875,-0.128638 0.106215,-0.138422 0.0937467,-0.147153 0.0805648,-0.154763 0.0667697,-0.161196 0.0524664,-0.166402 0.0377639,-0.170342 0.0227739,-0.172985 0.0076106,-0.174311 -0.0076106,-0.174311 -0.0227739,-0.172985 -0.0377639,-0.170342 -0.0524664,-0.166402 -0.0667697,-0.161196 -0.0805648,-0.154763 -0.0937467,-0.147153 -0.106215,-0.138422 -0.117875,-0.128638 -0.128638,-0.117875 -0.138422,-0.106215 -0.147153,-0.0937467 -0.154763,-0.0805648 -0.161196,-0.0667697 -0.166402,-0.0524664 -0.170342,-0.0377639 -0.172985,-0.0227739 -0.174311,-0.0076106 -0.174311,0.0076106 -0.172985,0.0227739 -0.170342,0.0377639 -0.166402,0.0524664 -0.161196,0.0667697 -0.154763,0.0805648 -0.147153,0.0937467 -45.692,31.9939 -0.138422,0.106215 -0.128638,0.117875 -0.117875,0.128638 -0.106215,0.138422 -0.0937467,0.147153 -0.0805648,0.154763 -0.0667697,0.161196 -0.0524664,0.166402 -0.0377639,0.170342 -0.0227739,0.172985 -0.0076106,0.174311 0.0076106,0.174311 0.0227739,0.172985 0.0377639,0.170342 0.0524664,0.166402 0.0667697,0.161196 0.0805648,0.154763 0.0937467,0.147153 0.106215,0.138422 0.117875,0.128638 0.128638,0.117875 0.138422,0.106215 0.147153,0.0937467 0.154763,0.0805648 0.161196,0.0667697 0.166402,0.0524664 0.170342,0.0377639 0.172985,0.0227739 0.174311,0.0076106 0.174311,-0.0076106 0.172985,-0.0227739 0.170342,-0.0377639 0.166402,-0.0524664 0.161196,-0.0667697 0.154763,-0.0805648 0.147153,-0.0937467 z "/>
<path fme:_creation_instance="0" d="M 162.845,46.6845 l 50.5536,-23.5735 0.154763,-0.0805648 0.147153,-0.0937467 0.138422,-0.106215 0.128638,-0.117875 0.117875,-0.128638 0.106215,-0.138422 0.0937467,-0.147153 0.0805648,-0.154763 0.0667697,-0.161196 0.0524664,-0.166402 0.0377639,-0.170342 0.0227739,-0.172985 0.0076106,-0.174311 -0.0076106,-0.174311 -0.0227739,-0.172985 -0.0377639,-0.170342 -0.0524664,-0.166402 -0.0667697,-0.161196 -0.0805648,-0.154763 -0.0937467,-0.147153 -0.106215,-0.138422 -0.117875,-0.128638 -0.128638,-0.117875 -0.138422,-0.106215 -0.147153,-0.0937467 -0.154763,-0.0805648 -0.161196,-0.0667697 -0.166402,-0.0524664 -0.170342,-0.0377639 -0.172985,-0.0227739 -0.174311,-0.0076106 -0.174311,0.0076106 -0.172985,0.0227739 -0.170342,0.0377639 -0.166402,0.0524664 -0.161196,0.0667697 -50.5536,23.5735 -0.154763,0.0805648 -0.147153,0.0937467 -0.138422,0.106215 -0.128638,0.117875 -0.117875,0.128638 -0.106215,0.138422 -0.0937467,0.147153 -0.0805648,0.154763 -0.0667697,0.161196 -0.0524664,0.166402 -0.0377639,0.170342 -0.0227739,0.172985 -0.0076106,0.174311 0.0076106,0.174311 0.0227739,0.172985 0.0377639,0.170342 0.0524664,0.166402 0.0667697,0.161196 0.0805648,0.154763 0.0937467,0.147153 0.106215,0.138422 0.117875,0.128638 0.128638,0.117875 0.138422,0.106215 0.147153,0.0937467 0.154763,0.0805648 0.161196,0.0667697 0.166402,0.0524664 0.170342,0.0377639 0.172985,0.0227739 0.174311,0.0076106 0.174311,-0.0076106 0.172985,-0.0227739 0.170342,-0.0377639 0.166402,-0.0524664 0.161196,-0.0667697 z "/>
<path fme:_creation_instance="0" d="M 213.071,23.2302 l 53.879,-14.4368 0.166402,-0.0524664 0.161196,-0.0667697 0.154763,-0.0805648 0.147153,-0.0937467 0.138422,-0.106215 0.128638,-0.117875 0.117875,-0.128638 0.106215,-0.138422 0.0937467,-0.147153 0.0805648,-0.154763 0.0667697,-0.161196 0.0524664,-0.166402 0.0377639,-0.170342 0.0227739,-0.172985 0.0076106,-0.174311 -0.0076106,-0.174311 -0.0227739,-0.172985 -0.0377639,-0.170342 -0.0524664,-0.166402 -0.0667697,-0.161196 -0.0805648,-0.154763 -0.0937467,-0.147153 -0.106215,-0.138422 -0.117875,-0.128638 -0.128638,-0.117875 -0.138422,-0.106215 -0.147153,-0.0937467 -0.154763,-0.0805648 -0.161196,-0.0667697 -0.166402,-0.0524664 -0.170342,-0.0377639 -0.172985,-0.0227739 -0.174311,-0.0076106 -0.174311,0.0076106 -0.172985,0.0227739 -0.170342,0.0377639 -53.879,14.4368 -0.166402,0.0524664 -0.161196,0.0667697 -0.154763,0.0805648 -0.147153,0.0937467 -0.138422,0.106215 -0.128638,0.117875 -0.117875,0.128638 -0.106215,0.138422 -0.0937467,0.147153 -0.0805648,0.154763 -0.0667697,0.161196 -0.0524664,0.166402 -0.0377639,0.170342 -0.0227739,0.172985 -0.0076106,0.174311 0.0076106,0.174311 0.0227739,0.172985 0.0377639,0.170342 0.0524664,0.166402 0.0667697,0.161196 0.0805648,0.154763 0.0937467,0.147153 0.106215,0.138422 0.117875,0.128638 0.128638,0.117875 0.138422,0.106215 0.147153,0.0937467 0.154763,0.0805648 0.161196,0.0667697 0.166402,0.0524664 0.170342,0.0377639 0.172985,0.0227739 0.174311,0.0076106 0.174311,-0.0076106 0.172985,-0.0227739 0.170342,-0.0377639 z "/>
<path fme:_creation_instance="0" d="M 266.607,8.85391 l 55.5674,-4.86152 0.172985,-0.0227739 0.170342,-0.0377639 0.166402,-0.0524664 0.161196,-0.0667697 0.154763,-0.0805648 0.147153,-0.0937467 0.138422,-0.106215 0.128638,-0.117875 0.117875,-0.128638 0.106215,-0.138422 0.0937467,-0.147153 0.0805648,-0.154763 0.0667697,-0.161196 0.0524664,-0.166402 0.0377639,-0.170342 0.0227739,-0.172985 0.0076106,-0.174311 -0.0076106,-0.174311 -0.0227739,-0.172985 -0.0377639,-0.170342 -0.0524664,-0.166402 -0.0667697,-0.161196 -0.0805648,-0.154763 -0.0937467,-0.147153 -0.106215,-0.138422 -0.117875,-0.128638 -0.128638,-0.117875 -0.138422,-0.106215 -0.147153,-0.0937467 -0.154763,-0.0805648 -0.161196,-0.0667697 -0.166402,-0.0524664 -0.170342,-0.0377639 -0.172985,-0.0227739 -0.174311,-0.0076106 -0.174311,0.0076106 -55.5674,4.86152 -0.172985,0.0227739 -0.170342,0.0377639 -0.166402,0.0524664 -0.161196,0.0667697 -0.154763,0.0805648 -0.147153,0.0937467 -0.138422,0.106215 -0.128638,0.117875 -0.117875,0.128638 -0.106215,0.138422 -0.0937467,0.147153 -0.0805648,0.154763 -0.0667697,0.161196 -0.0524664,0.166402 -0.0377639,0.170342 -0.0227739,0.172985 -0.0076106,0.174311 0.0076106,0.174311 0.0227739,0.172985 0.0377639,0.170342 0.0524664,0.166402 0.0667697,0.161196 0.0805648,0.154763 0.0937467,0.147153 0.106215,0.138422 0.117875,0.128638 0.128638,0.117875 0.138422,0.106215 0.147153,0.0937467 0.154763,0.0805648 0.161196,0.0667697 0.166402,0.0524664 0.170342,0.0377639 0.172985,0.0227739 0.174311,0.0076106 0.174311,-0.0076106 z "/>
<path fme:_creation_instance="0" d="M 321.826,3.99239 l 55.5674,4.86152 0.174311,0.0076106 0.174311,-0.0076106 0.172985,-0.0227739 0.170342,-0.0377639 0.166402,-0.0524664 0.161196,-0.0667697 0.154763,-0.0805648 0.147153,-0.0937467 0.138422,-0.106215 0.128638,-0.117875 0.117875,-0.128638 0.106215,-0.138422 0.0937467,-0.147153 0.0805648,-0.154763 0.0667697,-0.161196 0.0524664,-0.166402 0.0377639,-0.170342 0.0227739,-0.172985 0.0076106,-0.174311 -0.0076106,-0.174311 -0.0227739,-0.172985 -0.0377639,-0.170342 -0.0524664,-0.166402 -0.0667697,-0.161196 -0.0805648,-0.154763 -0.0937467,-0.147153 -0.106215,-0.138422 -0.117875,-0.128638 -0.128638,-0.117875 -0.138422,-0.106215 -0.147153,-0.0937467 -0.154763,-0.0805648 -0.161196,-0.0667697 -0.166402,-0.0524664 -0.170342,-0.0377639 -0.172985,-0.0227739 -55.5674,-4.86152 -0.174311,-0.0076106 -0.174311,0.0076106 -0.172985,0.0227739 -0.170342,0.0377639 -0.166402,0.0524664 -0.161196,0.0667697 -0.154763,0.0805648 -0.147153,0.0937467 -0.138422,0.106215 -0.128638,0.117875 -0.117875,0.128638 -0.106215,0.138422 -0.0937467,0.147153 -0.0805648,0.154763 -0.0667697,0.161196 -0.0524664,0.166402 -0.0377639,0.170342 -0.0227739,0.172985 -0.0076106,0.174311 0.0076106,0.174311 0.0227739,0.172985 0.0377639,0.170342 0.0524664,0.166402 0.0667697,0.161196 0.0805648,0.154763 0.0937467,0.147153 0.106215,0.138422 0.117875,0.128638 0.128638,0.117875 0.138422,0.106215 0.147153,0.0937467 0.154763,0.0805648 0.161196,0.0667697 0.166402,0.0524664 0.170342,0.0377639 0.172985,0.0227739 z "/>
<path fme:_creation_instance="0" d="M 377.05,8.79337 l 53.879,14.4368 0.170342,0.0377639 0.172985,0.0227739 0.174311,0.0076106 0.174311,-0.0076106 0.172985,-0.0227739 0.170342,-0.0377639 0.166402,-0.0524664 0.161196,-0.0667697 0.154763,-0.0805648 0.147153,-0.0937467 0.138422,-0.106215 0.128638,-0.117875 0.117875,-0.128638 0.106215,-0.138422 0.0937467,-0.147153 0.0805648,-0.154763 0.0667697,-0.161196 0.0524664,-0.166402 0.0377639,-0.170342 0.0227739,-0.172985 0.0076106,-0.174311 -0.0076106,-0.174311 -0.0227739,-0.172985 -0.0377639,-0.170342 -0.0524664,-0.166402 -0.0667697,-0.161196 -0.0805648,-0.154763 -0.0937467,-0.147153 -0.106215,-0.138422 -0.117875,-0.128638 -0.128638,-0.117875 -0.138422,-0.106215 -0.147153,-0.0937467 -0.154763,-0.0805648 -0.161196,-0.0667697 -0.166402,-0.0524664 -53.879,-14.4368 -0.170342,-0.0377639 -0.172985,-0.0227739 -0.174311,-0.0076106 -0.174311,0.0076106 -0.172985,0.0227739 -0.170342,0.0377639 -0.166402,0.0524664 -0.161196,0.0667697 -0.154763,0.0805648 -0.147153,0.0937467 -0.138422,0.106215 -0.128638,0.117875 -0.117875,0.128638 -0.106215,0.138422 -0.0937467,0.147153 -0.0805648,0.154763 -0.0667697,0.161196 -0.0524664,0.166402 -0.0377639,0.170342 -0.0227739,0.172985 -0.0076106,0.174311 0.0076106,0.174311 0.0227739,0.172985 0.0377639,0.170342 0.0524664,0.166402 0.0667697,0.161196 0.0805648,0.154763 0.0937467,0.147153 0.106215,0.138422 0.117875,0.128638 0.128638,0.117875 0.138422,0.106215 0.147153,0.0937467 0.154763,0.0805648 0.161196,0.0667697 0.166402,0.0524664 z "/>
<path fme:_creation_instance="0" d="M 430.601,23.111 l 50.5536,23.5735 0.161196,0.0667697 0.166402,0.0524664 0.170342,0.0377639 0.172985,0.0227739 0.174311,0.0076106 0.174311,-0.0076106 0.172985,-0.0227739 0.170342,-0.0377639 0.166402,-0.0524664 0.161196,-0.0667697 0.154763,-0.0805648 0.147153,-0.0937467 0.138422,-0.106215 0.128638,-0.117875 0.117875,-0.128638 0.106215,-0.138422 0.0937467,-0.147153 0.0805648,-0.154763 0.0667697,-0.161196 0.0524664,-0.166402 0.0377639,-0.170342 0.0227739,-0.172985 0.0076106,-0.174311 -0.0076106,-0.174311 -0.0227739,-0.172985 -0.0377639,-0.170342 -0.0524664,-0.166402 -0.0667697,-0.161196 -0.0805648,-0.154763 -0.0937467,-0.147153 -0.106215,-0.138422 -0.117875,-0.128638 -0.128638,-0.117875 -0.138422,-0.106215 -0.147153,-0.0937467 -0.154763,-0.0805648 -50.5536,-23.5735 -0.161196,-0.0667697 -0.166402,-0.0524664 -0.170342,-0.0377639 -0.172985,-0.0227739 -0.174311,-0.0076106 -0.174311,0.0076106 -0.172985,0.0227739 -0.170342,0.0377639 -0.166402,0.0524664 -0.161196,0.0667697 -0.154763,0.0805648 -0.147153,0.0937467 -0.138422,0.106215 -0.128638,0.117875 -0.117875,0.128638 -0.106215,0.138422 -0.0937467,0.147153 -0.0805648,0.154763 -0.0667697,0.161196 -0.0524664,0.166402 -0.0377639,0.170342 -0.0227739,0.172985 -0.0076106,0.174311 0.0076106,0.174311 0.0227739,0.172985 0.0377639,0.170342 0.0524664,0.166402 0.0667697,0.161196 0.0805648,0.154763 0.0937467,0.147153 0.106215,0.138422 0.117875,0.128638 0.128638,0.117875 0.138422,0.106215 0.147153,0.0937467 0.154763,0.0805648 z "/>
<path fme:_creation_instance="0" d="M 480.853,46.5102 l 45.692,31.9939 0.147153,0.0937467 0.154763,0.0805648 0.161196,0.0667697 0.166402,0.0524664 0.170342,0.0377639 0.172985,0.0227739 0.174311,0.0076106 0.174311,-0.0076106 0.172985,-0.0227739 0.170342,-0.0377639 0.166402,-0.0524664 0.161196,-0.0667697 0.154763,-0.0805648 0.147153,-0.0937467 0.138422,-0.106215 0.128638,-0.117875 0.117875,-0.128638 0.106215,-0.138422 0.0937467,-0.147153 0.0805648,-0.154763 0.0667697,-0.161196 0.0524664,-0.166402 0.0377639,-0.170342 0.0227739,-0.172985 0.0076106,-0.174311 -0.0076106,-0.174311 -0.0227739,-0.172985 -0.0377639,-0.170342 -0.0524664,-0.166402 -0.0667697,-0.161196 -0.0805648,-0.154763 -0.0937467,-0.147153 -0.106215,-0.138422 -0.117875,-0.128638 -0.128638,-0.117875 -0.138422,-0.106215 -45.692,-31.9939 -0.147153,-0.0937467 -0.154763,-0.0805648 -0.161196,-0.0667697 -0.166402,-0.0524664 -0.170342,-0.0377639 -0.172985,-0.0227739 -0.174311,-0.0076106 -0.174311,0.0076106 -0.172985,0.0227739 -0.170342,0.0377639 -0.166402,0.0524664 -0.161196,0.0667697 -0.154763,0.0805648 -0.147153,0.0937467 -0.138422,0.106215 -0.128638,0.117875 -0.117875,0.128638 -0.106215,0.138422 -0.0937467,0.147153 -0.0805648,0.154763 -0.0667697,0.161196 -0.0524664,0.166402 -0.0377639,0.170342 -0.0227739,0.172985 -0.0076106,0.174311 0.0076106,0.174311 0.0227739,0.172985 0.0377639,0.170342 0.0524664,0.166402 0.0667697,0.161196 0.0805648,0.154763 0.0937467,0.147153 0.106215,0.138422 0.117875,0.128638 0.128638,0.117875 0.138422,0.106215 z "/>
<path fme:_creation_instance="0" d="M 526.278,78.28 l 39.4422,39.4422 0.128638,0.117875 0.138422,0.106215 0.147153,0.0937467 0.154763,0.0805648 0.161196,0.0667697 0.166402,0.0524664 0.170342,0.0377639 0.172985,0.0227739 0.174311,0.0076106 0.174311,-0.0076106 0.172985,-0.0227739 0.170342,-0.0377639 0.166402,-0.0524664 0.161196,-0.0667697 0.154763,-0.0805648 0.147153,-0.0937467 0.138422,-0.106215 0.128638,-0.117875 0.117875,-0.128638 0.106215,-0.138422 0.0937467,-0.147153 0.0805648,-0.154763 0.0667697,-0.161196 0.0524664,-0.166402 0.0377639,-0.170342 0.0227739,-0.172985 0.0076106,-0.174311 -0.0076106,-0.174311 -0.0227739,-0.172985 -0.0377639,-0.170342 -0.0524664,-0.166402 -0.0667697,-0.161196 -0.0805648,-0.154763 -0.0937467,-0.147153 -0.106215,-0.138422 -0.117875,-0.128638 -39.4422,-39.4422 -0.128638,-0.117875 -0.138422,-0.106215 -0.147153,-0.0937467 -0.154763,-0.0805648 -0.161196,-0.0667697 -0.166402,-0.0524664 -0.170342,-0.0377639 -0.172985,-0.0227739 -0.174311,-0.0076106 -0.174311,0.0076106 -0.172985,0.0227739 -0.170342,0.0377639 -0.166402,0.0524664 -0.161196,0.0667697 -0.154763,0.0805648 -0.147153,0.0937467 -0.138422,0.106215 -0.128638,0.117875 -0.117875,0.128638 -0.106215,0.138422 -0.0937467,0.147153 -0.0805648,0.154763 -0.0667697,0.161196 -0.0524664,0.166402 -0.0377639,0.170342 -0.0227739,0.172985 -0.0076106,0.174311 0.0076106,0.174311 0.0227739,0.172985 0.0377639,0.170342 0.0524664,0.166402 0.0667697,0.161196 0.0805648,0.154763 0.0937467,0.147153 0.106215,0.138422 0.117875,0.128638 z "/>
<path fme:_creation_instance="0" d="M 565.496,117.455 l 31.9939,45.692 0.106215,0.138422 0.117875,0.128638 0.128638,0.117875 0.138422,0.106215 0.147153,0.0937467 0.154763,0.0805648 0.161196,0.0667697 0.166402,0.0524664 0.170342,0.0377639 0.172985,0.0227739 0.174311,0.0076106 0.174311,-0.0076106 0.172985,-0.0227739 0.170342,-0.0377639 0.166402,-0.0524664 0.161196,-0.0667697 0.154763,-0.0805648 0.147153,-0.0937467 0.138422,-0.106215 0.128638,-0.117875 0.117875,-0.128638 0.106215,-0.138422 0.0937467,-0.147153 0.0805648,-0.154763 0.0667697,-0.161196 0.0524664,-0.166402 0.0377639,-0.170342 0.0227739,-0.172985 0.0076106,-0.174311 -0.0076106,-0.174311 -0.0227739,-0.172985 -0.0377639,-0.170342 -0.0524664,-0.166402 -0.0667697,-0.161196 -0.0805648,-0.154763 -0.0937467,-0.147153 -31.9939,-45.692 -0.106215,-0.138422 -0.117875,-0.128638 -0.128638,-0.117875 -0.138422,-0.106215 -0.147153,-0.0937467 -0.154763,-0.0805648 -0.161196,-0.0667697 -0.166402,-0.0524664 -0.170342,-0.0377639 -0.172985,-0.0227739 -0.174311,-0.0076106 -0.174311,0.0076106 -0.172985,0.0227739 -0.170342,0.0377639 -0.166402,0.0524664 -0.161196,0.0667697 -0.154763,0.0805648 -0.147153,0.0937467 -0.138422,0.106215 -0.128638,0.117875 -0.117875,0.128638 -0.106215,0.138422 -0.0937467,0.147153 -0.0805648,0.154763 -0.0667697,0.161196 -0.0524664,0.166402 -0.0377639,0.170342 -0.0227739,0.172985 -0.0076106,0.174311 0.0076106,0.174311 0.0227739,0.172985 0.0377639,0.170342 0.0524664,0.166402 0.0667697,0.161196 0.0805648,0.154763 0.0937467,0.147153 z "/>
<path fme:_creation_instance="0" d="M 597.316,162.845 l 23.5735,50.5536 0.0805648,0.154763 0.0937467,0.147153 0.106215,0.138422 0.117875,0.128638 0.128638,0.117875 0.138422,0.106215 0.147153,0.0937467 0.154763,0.0805648 0.161196,0.0667697 0.166402,0.0524664 0.170342,0.0377639 0.172985,0.0227739 0.174311,0.0076106 0.174311,-0.0076106 0.172985,-0.0227739 0.170342,-0.0377639 0.166402,-0.0524664 0.161196,-0.0667697 0.154763,-0.0805648 0.147153,-0.0937467 0.138422,-0.106215 0.128638,-0.117875 0.117875,-0.128638 0.106215,-0.138422 0.0937467,-0.147153 0.0805648,-0.154763 0.0667697,-0.161196 0.0524664,-0.166402 0.0377639,-0.170342 0.0227739,-0.172985 0.0076106,-0.174311 -0.0076106,-0.174311 -0.0227739,-0.172985 -0.0377639,-0.170342 -0.0524664,-0.166402 -0.0667697,-0.161196 -23.5735,-50.5536 -0.0805648,-0.154763 -0.0937467,-0.147153 -0.106215,-0.138422 -0.117875,-0.128638 -0.128638,-0.117875 -0.138422,-0.106215 -0.147153,-0.0937467 -0.154763,-0.0805648 -0.161196,-0.0667697 -0.166402,-0.0524664 -0.170342,-0.0377639 -0.172985,-0.0227739 -0.174311,-0.0076106 -0.174311,0.0076106 -0.172985,0.0227739 -0.170342,0.0377639 -0.166402,0.0524664 -0.161196,0.0667697 -0.154763,0.0805648 -0.147153,0.0937467 -0.138422,0.106215 -0.128638,0.117875 -0.117875,0.128638 -0.106215,0.138422 -0.0937467,0.147153 -0.0805648,0.154763 -0.0667697,0.161196 -0.0524664,0.166402 -0.0377639,0.170342 -0.0227739,0.172985 -0.0076106,0.174311 0.0076106,0.174311 0.0227739,0.172985 0.0377639,0.170342 0.0524664,0.166402 0.0667697,0.161196 z "/>
<path fme:_creation_instance="0" d="M 620.77,213.071 l 14.4368,53.879 0.0508583,0.161968 0.0644109,0.157071 0.0774994,0.151043 0.0900295,0.143926 0.101911,0.135773 0.113058,0.126641 0.123391,0.116597 0.132834,0.105712 0.141321,0.0940664 0.148789,0.0817427 0.155185,0.06883 0.160464,0.0554214 0.164586,0.0416135 0.167522,0.0275058 0.169251,0.0131998 0.169761,-0.00120119 0.169047,-0.0155936 0.167116,-0.0298736 0.16398,-0.0439384 0.159663,-0.0576866 0.154196,-0.0710191 0.147618,-0.08384 0.139976,-0.0960568 0.131325,-0.107582 0.121729,-0.118331 0.111255,-0.128228 0.0999795,-0.137201 0.0879839,-0.145186 0.0753543,-0.152124 0.0621818,-0.157967 0.0485612,-0.162671 0.0345908,-0.166203 0.0203712,-0.168538 0.00600474,-0.169659 -0.00840495,-0.169557 -0.0227541,-0.168233 -0.0369393,-0.165697 -14.4368,-53.879 -0.0524664,-0.166402 -0.0667697,-0.161196 -0.0805648,-0.154763 -0.0937467,-0.147153 -0.106215,-0.138422 -0.117875,-0.128638 -0.128638,-0.117875 -0.138422,-0.106215 -0.147153,-0.0937467 -0.154763,-0.0805648 -0.161196,-0.0667697 -0.166402,-0.0524664 -0.170342,-0.0377639 -0.172985,-0.0227739 -0.174311,-0.0076106 -0.174311,0.0076106 -0.172985,0.0227739 -0.170342,0.0377639 -0.166402,0.0524664 -0.161196,0.0667697 -0.154763,0.0805648 -0.147153,0.0937467 -0.138422,0.106215 -0.128638,0.117875 -0.117875,0.128638 -0.106215,0.138422 -0.0937467,0.147153 -0.0805648,0.154763 -0.0667697,0.161196 -0.0524664,0.166402 -0.0377639,0.170342 -0.0227739,0.172985 -0.0076106,0.174311 0.0076106,0.174311 0.0227739,0.172985 0.0377639,0.170342 z "/>
<path fme:_creation_instance="0" d="M 635.146,266.607 l 4.86152,55.5674 0.0219603,0.168338 0.0361572,0.16587 0.0500937,0.162206 0.0636693,0.157373 0.0767861,0.151407 0.0893496,0.144349 0.101269,0.136252 0.11246,0.127173 0.122839,0.117177 0.132334,0.106338 0.140876,0.094732 0.148402,0.0824437 0.154859,0.0695613 0.1602,0.0561777 0.164387,0.0423894 0.16739,0.0282957 0.169187,0.0139981 0.169764,-0.000400399 0.169119,-0.014796 0.167255,-0.029085 0.164186,-0.0431644 0.159934,-0.0569328 0.154529,-0.070291 0.148011,-0.0831428 0.140427,-0.0953955 0.131831,-0.106961 0.122285,-0.117756 0.111858,-0.127702 0.100626,-0.136728 0.0886677,-0.144769 0.076071,-0.151767 0.0629262,-0.157672 0.049328,-0.16244 0.0353744,-0.166038 0.0211659,-0.16844 0.00680496,-0.169628 -0.00760504,-0.169594 -4.86152,-55.5674 -0.0227739,-0.172985 -0.0377639,-0.170342 -0.0524664,-0.166402 -0.0667697,-0.161196 -0.0805648,-0.154763 -0.0937467,-0.147153 -0.106215,-0.138422 -0.117875,-0.128638 -0.128638,-0.117875 -0.138422,-0.106215 -0.147153,-0.0937467 -0.154763,-0.0805648 -0.161196,-0.0667697 -0.166402,-0.0524664 -0.170342,-0.0377639 -0.172985,-0.0227739 -0.174311,-0.0076106 -0.174311,0.0076106 -0.172985,0.0227739 -0.170342,0.0377639 -0.166402,0.0524664 -0.161196,0.0667697 -0.154763,0.0805648 -0.147153,0.0937467 -0.138422,0.106215 -0.128638,0.117875 -0.117875,0.128638 -0.106215,0.138422 -0.0937467,0.147153 -0.0805648,0.154763 -0.0667697,0.161196 -0.0524664,0.166402 -0.0377639,0.170342 -0.0227739,0.172985 -0.0076106,0.174311 0.0076106,0.174311 z "/>
<path fme:_creation_instance="0" d="M 642,320 l -640,5.68434e-14 -0.174311,0.0076106 -0.172985,0.0227739 -0.170342,0.0377639 -0.166402,0.0524664 -0.161196,0.0667697 -0.154763,0.0805648 -0.147153,0.0937467 -0.138422,0.106215 -0.128638,0.117875 -0.117875,0.128638 -0.106215,0.138422 -0.0937467,0.147153 -0.0805648,0.154763 -0.0667697,0.161196 -0.0524664,0.166402 -0.0377639,0.170342 -0.0227739,0.172985 -0.0076106,0.174311 0.0076106,0.174311 0.0227739,0.172985 0.0377639,0.170342 0.0524664,0.166402 0.0667697,0.161196 0.0805648,0.154763 0.0937467,0.147153 0.106215,0.138422 0.117875,0.128638 0.128638,0.117875 0.138422,0.106215 0.147153,0.0937467 0.154763,0.0805648 0.161196,0.0667697 0.166402,0.0524664 0.170342,0.0377639 0.172985,0.0227739 0.174311,0.0076106 640,-5.68434e-14 0.174311,-0.0076106 0.172985,-0.0227739 0.170342,-0.0377639 0.166402,-0.0524664 0.161196,-0.0667697 0.154763,-0.0805648 0.147153,-0.0937467 0.138422,-0.106215 0.128638,-0.117875 0.117875,-0.128638 0.106215,-0.138422 0.0937467,-0.147153 0.0805648,-0.154763 0.0667697,-0.161196 0.0524664,-0.166402 0.0377639,-0.170342 0.0227739,-0.172985 0.0076106,-0.174311 -0.0076106,-0.174311 -0.0227739,-0.172985 -0.0377639,-0.170342 -0.0524664,-0.166402 -0.0667697,-0.161196 -0.0805648,-0.154763 -0.0937467,-0.147153 -0.106215,-0.138422 -0.117875,-0.128638 -0.128638,-0.117875 -0.138422,-0.106215 -0.147153,-0.0937467 -0.154763,-0.0805648 -0.161196,-0.0667697 -0.166402,-0.0524664 -0.170342,-0.0377639 -0.172985,-0.0227739 -0.174311,-0.0076106 z "/>
<path fme:_creation_instance="0" d="M 637.486,375.598 l -630.277,-111.135 -0.172985,-0.0227739 -0.174311,-0.0076106 -0.174311,0.0076106 -0.172985,0.0227739 -0.170342,0.0377639 -0.166402,0.0524664 -0.161196,0.0667697 -0.154763,0.0805648 -0.147153,0.0937467 -0.138422,0.106215 -0.128638,0.117875 -0.117875,0.128638 -0.106215,0.138422 -0.0937467,0.147153 -0.0805648,0.154763 -0.0667697,0.161196 -0.0524664,0.166402 -0.0377639,0.170342 -0.0227739,0.172985 -0.0076106,0.174311 0.0076106,0.174311 0.0227739,0.172985 0.0377639,0.170342 0.0524664,0.166402 0.0667697,0.161196 0.0805648,0.154763 0.0937467,0.147153 0.106215,0.138422 0.117875,0.128638 0.128638,0.117875 0.138422,0.106215 0.147153,0.0937467 0.154763,0.0805648 0.161196,0.0667697 0.166402,0.0524664 0.170342,0.0377639 630.277,111.135 0.172985,0.0227739 0.174311,0.0076106 0.174311,-0.0076106 0.172985,-0.0227739 0.170342,-0.0377639 0.166402,-0.0524664 0.161196,-0.0667697 0.154763,-0.0805648 0.147153,-0.0937467 0.138422,-0.106215 0.128638,-0.117875 0.117875,-0.128638 0.106215,-0.138422 0.0937467,-0.147153 0.0805648,-0.154763 0.0667697,-0.161196 0.0524664,-0.166402 0.0377639,-0.170342 0.0227739,-0.172985 0.0076106,-0.174311 -0.0076106,-0.174311 -0.0227739,-0.172985 -0.0377639,-0.170342 -0.0524664,-0.166402 -0.0667697,-0.161196 -0.0805648,-0.154763 -0.0937467,-0.147153 -0.106215,-0.138422 -0.117875,-0.128638 -0.128638,-0.117875 -0.138422,-0.106215 -0.147153,-0.0937467 -0.154763,-0.0805648 -0.161196,-0.0667697 -0.166402,-0.0524664 -0.170342,-0.0377639 z "/>
<path fme:_creation_instance="0" d="M 623.386,429.567 l -601.403,-218.893 -0.166402,-0.0524664 -0.170342,-0.0377639 -0.172985,-0.0227739 -0.174311,-0.0076106 -0.174311,0.0076106 -0.172985,0.0227739 -0.170342,0.0377639 -0.166402,0.0524664 -0.161196,0.0667697 -0.154763,0.0805648 -0.147153,0.0937467 -0.138422,0.106215 -0.128638,0.117875 -0.117875,0.128638 -0.106215,0.138422 -0.0937467,0.147153 -0.0805648,0.154763 -0.0667697,0.161196 -0.0524664,0.166402 -0.0377639,0.170342 -0.0227739,0.172985 -0.0076106,0.174311 0.0076106,0.174311 0.0227739,0.172985 0.0377639,0.170342 0.0524664,0.166402 0.0667697,0.161196 0.0805648,0.154763 0.0937467,0.147153 0.106215,0.138422 0.117875,0.128638 0.128638,0.117875 0.138422,0.106215 0.147153,0.0937467 0.154763,0.0805648 0.161196,0.0667697 601.403,218.893 0.166402,0.0524664 0.170342,0.0377639 0.172985,0.0227739 0.174311,0.0076106 0.174311,-0.0076106 0.172985,-0.0227739 0.170342,-0.0377639 0.166402,-0.0524664 0.161196,-0.0667697 0.154763,-0.0805648 0.147153,-0.0937467 0.138422,-0.106215 0.128638,-0.117875 0.117875,-0.128638 0.106215,-0.138422 0.0937467,-0.147153 0.0805648,-0.154763 0.0667697,-0.161196 0.0524664,-0.166402 0.0377639,-0.170342 0.0227739,-0.172985 0.0076106,-0.174311 -0.0076106,-0.174311 -0.0227739,-0.172985 -0.0377639,-0.170342 -0.0524664,-0.166402 -0.0667697,-0.161196 -0.0805648,-0.154763 -0.0937467,-0.147153 -0.106215,-0.138422 -0.117875,-0.128638 -0.128638,-0.117875 -0.138422,-0.106215 -0.147153,-0.0937467 -0.154763,-0.0805648 -0.161196,-0.0667697 z "/>
<path fme:_creation_instance="0" d="M 600.128,480.268 l -554.256,-320 -0.154763,-0.0805648 -0.161196,-0.0667697 -0.166402,-0.0524664 -0.170342,-0.0377639 -0.172985,-0.0227739 -0.174311,-0.0076106 -0.174311,0.0076106 -0.172985,0.0227739 -0.170342,0.0377639 -0.166402,0.0524664 -0.161196,0.0667697 -0.154763,0.0805648 -0.147153,0.0937467 -0.138422,0.106215 -0.128638,0.117875 -0.117875,0.128638 -0.106215,0.138422 -0.0937467,0.147153 -0.0805648,0.154763 -0.0667697,0.161196 -0.0524664,0.166402 -0.0377639,0.170342 -0.0227739,0.172985 -0.0076106,0.174311 0.0076106,0.174311 0.0227739,0.172985 0.0377639,0.170342 0.0524664,0.166402 0.0667697,0.161196 0.0805648,0.154763 0.0937467,0.147153 0.106215,0.138422 0.117875,0.128638 0.128638,0.117875 0.138422,0.106215 0.147153,0.0937467 554.256,320 0.150491,0.0785662 0.156611,0.0655207 0.161604,0.052003 0.165432,0.0381107 0.168068,0.0239439 0.169493,0.00960445 0.169697,-0.00480415 0.168678,-0.0191781 0.166444,-0.0334139 0.163011,-0.047409 0.158403,-0.0610625 0.152654,-0.074276 0.145805,-0.0869544 0.137905,-0.0990062 0.129012,-0.110345 0.119189,-0.120888 0.108508,-0.130561 0.0970448,-0.139292 0.0848824,-0.147021 0.0721084,-0.15369 0.0588148,-0.159251 0.0450975,-0.163665 0.0310553,-0.1669 0.0167893,-0.168933 0.00240232,-0.169748 -0.012002,-0.16934 -0.0263198,-0.167712 -0.0404479,-0.164876 -0.0542847,-0.160852 -0.0677303,-0.155669 -0.0806879,-0.149364 -0.0930642,-0.141983 -0.10477,-0.133579 -0.115721,-0.124213 -0.125838,-0.113951 -0.135048,-0.102869 -0.143286,-0.0910457 z "/>
<path fme:_creation_instance="0" d="M 568.42,526.16 l -490.268,-411.384 -0.138422,-0.106215 -0.147153,-0.0937467 -0.154763,-0.0805648 -0.161196,-0.0667697 -0.166402,-0.0524664 -0.170342,-0.0377639 -0.172985,-0.0227739 -0.174311,-0.0076106 -0.174311,0.0076106 -0.172985,0.0227739 -0.170342,0.0377639 -0.166402,0.0524664 -0.161196,0.0667697 -0.154763,0.0805648 -0.147153,0.0937467 -0.138422,0.106215 -0.128638,0.117875 -0.117875,0.128638 -0.106215,0.138422 -0.0937467,0.147153 -0.0805648,0.154763 -0.0667697,0.161196 -0.0524664,0.166402 -0.0377639,0.170342 -0.0227739,0.172985 -0.0076106,0.174311 0.0076106,0.174311 0.0227739,0.172985 0.0377639,0.170342 0.0524664,0.166402 0.0667697,0.161196 0.0805648,0.154763 0.0937467,0.147153 0.106215,0.138422 0.117875,0.128638 0.128638,0.117875 490.268,411.384 0.138422,0.106215 0.147153,0.0937467 0.154763,0.0805648 0.161196,0.0667697 0.166402,0.0524664 0.170342,0.0377639 0.172985,0.0227739 0.174311,0.0076106 0.174311,-0.0076106 0.172985,-0.0227739 0.170342,-0.0377639 0.166402,-0.0524664 0.161196,-0.0667697 0.154763,-0.0805648 0.147153,-0.0937467 0.138422,-0.106215 0.128638,-0.117875 0.117875,-0.128638 0.106215,-0.138422 0.0937467,-0.147153 0.0805648,-0.154763 0.0667697,-0.161196 0.0524664,-0.166402 0.0377639,-0.170342 0.0227739,-0.172985 0.0076106,-0.174311 -0.0076106,-0.174311 -0.0227739,-0.172985 -0.0377639,-0.170342 -0.0524664,-0.166402 -0.0667697,-0.161196 -0.0805648,-0.154763 -0.0937467,-0.147153 -0.106215,-0.138422 -0.117875,-0.128638 -0.128638,-0.117875 z "/>
<path fme:_creation_instance="0" d="M 529.224,565.849 l -411.384,-490.268 -0.117875,-0.128638 -0.128638,-0.117875 -0.138422,-0.106215 -0.147153,-0.0937467 -0.154763,-0.0805648 -0.161196,-0.0667697 -0.166402,-0.0524664 -0.170342,-0.0377639 -0.172985,-0.0227739 -0.174311,-0.0076106 -0.174311,0.0076106 -0.172985,0.0227739 -0.170342,0.0377639 -0.166402,0.0524664 -0.161196,0.0667697 -0.154763,0.0805648 -0.147153,0.0937467 -0.138422,0.106215 -0.128638,0.117875 -0.117875,0.128638 -0.106215,0.138422 -0.0937467,0.147153 -0.0805648,0.154763 -0.0667697,0.161196 -0.0524664,0.166402 -0.0377639,0.170342 -0.0227739,0.172985 -0.0076106,0.174311 0.0076106,0.174311 0.0227739,0.172985 0.0377639,0.170342 0.0524664,0.166402 0.0667697,0.161196 0.0805648,0.154763 0.0937467,0.147153 0.106215,0.138422 411.384,490.268 0.114544,0.125299 0.124757,0.115134 0.134072,0.104139 0.14242,0.0923934 0.149743,0.0799824 0.155986,0.0669952 0.161106,0.0535253 0.165065,0.0396697 0.167834,0.0255284 0.169395,0.011203 0.169735,-0.003203 0.168851,-0.017586 0.166752,-0.0318422 0.163451,-0.045869 0.158972,-0.0595654 0.153348,-0.0728326 0.146619,-0.085575 0.138833,-0.0977008 0.130047,-0.109123 0.120325,-0.119758 0.109735,-0.129531 0.0983546,-0.138371 0.0862656,-0.146213 0.0735551,-0.153002 0.0603146,-0.158689 0.0466395,-0.163232 0.0326284,-0.1666 0.0183823,-0.168767 0.00400362,-0.169718 -0.0104039,-0.169446 -0.0247364,-0.167953 -0.0388907,-0.16525 -0.0527648,-0.161357 -0.0662587,-0.156301 -0.0792752,-0.150118 -0.0917205,-0.142855 -0.103505,-0.134562 z "/>
<path fme:_creation_instance="0" d="M 483.732,598.128 l -320,-554.256 -0.0937467,-0.147153 -0.106215,-0.138422 -0.117875,-0.128638 -0.128638,-0.117875 -0.138422,-0.106215 -0.147153,-0.0937467 -0.154763,-0.0805648 -0.161196,-0.0667697 -0.166402,-0.0524664 -0.170342,-0.0377639 -0.172985,-0.0227739 -0.174311,-0.0076106 -0.174311,0.0076106 -0.172985,0.0227739 -0.170342,0.0377639 -0.166402,0.0524664 -0.161196,0.0667697 -0.154763,0.0805648 -0.147153,0.0937467 -0.138422,0.106215 -0.128638,0.117875 -0.117875,0.128638 -0.106215,0.138422 -0.0937467,0.147153 -0.0805648,0.154763 -0.0667697,0.161196 -0.0524664,0.166402 -0.0377639,0.170342 -0.0227739,0.172985 -0.0076106,0.174311 0.0076106,0.174311 0.0227739,0.172985 0.0377639,0.170342 0.0524664,0.166402 0.0667697,0.161196 0.0805648,0.154763 320,554.256 0.0937467,0.147153 0.106215,0.138422 0.117875,0.128638 0.128638,0.117875 0.138422,0.106215 0.147153,0.0937467 0.154763,0.0805648 0.161196,0.0667697 0.166402,0.0524664 0.170342,0.0377639 0.172985,0.0227739 0.174311,0.0076106 0.174311,-0.0076106 0.172985,-0.0227739 0.170342,-0.0377639 0.166402,-0.0524664 0.161196,-0.0667697 0.154763,-0.0805648 0.147153,-0.0937467 0.138422,-0.106215 0.128638,-0.117875 0.117875,-0.128638 0.106215,-0.138422 0.0937467,-0.147153 0.0805648,-0.154763 0.0667697,-0.161196 0.0524664,-0.166402 0.0377639,-0.170342 0.0227739,-0.172985 0.0076106,-0.174311 -0.0076106,-0.174311 -0.0227739,-0.172985 -0.0377639,-0.170342 -0.0524664,-0.166402 -0.0667697,-0.161196 -0.0805648,-0.154763 z "/>
<path fme:_creation_instance="0" d="M 433.326,622.018 l -218.893,-601.403 -0.0667697,-0.161196 -0.0805648,-0.154763 -0.0937467,-0.147153 -0.106215,-0.138422 -0.117875,-0.128638 -0.128638,-0.117875 -0.138422,-0.106215 -0.147153,-0.0937467 -0.154763,-0.0805648 -0.161196,-0.0667697 -0.166402,-0.0524664 -0.170342,-0.0377639 -0.172985,-0.0227739 -0.174311,-0.0076106 -0.174311,0.0076106 -0.172985,0.0227739 -0.170342,0.0377639 -0.166402,0.0524664 -0.161196,0.0667697 -0.154763,0.0805648 -0.147153,0.0937467 -0.138422,0.106215 -0.128638,0.117875 -0.117875,0.128638 -0.106215,0.138422 -0.0937467,0.147153 -0.0805648,0.154763 -0.0667697,0.161196 -0.0524664,0.166402 -0.0377639,0.170342 -0.0227739,0.172985 -0.0076106,0.174311 0.0076106,0.174311 0.0227739,0.172985 0.0377639,0.170342 0.0524664,0.166402 218.893,601.403 0.0647812,0.156919 0.0778554,0.15086 0.0903688,0.143714 0.102231,0.135532 0.113357,0.126374 0.123665,0.116305 0.133083,0.105399 0.141542,0.0937329 0.148982,0.0813916 0.155347,0.0684638 0.160594,0.0550428 0.164683,0.0412252 0.167586,0.0271106 0.169282,0.0128006 0.169757,-0.00160157 0.16901,-0.0159922 0.167045,-0.0302677 0.163876,-0.044325 0.159527,-0.058063 0.154028,-0.0713826 0.147419,-0.084188 0.139749,-0.0963867 0.131071,-0.107891 0.121449,-0.118618 0.110952,-0.12849 0.0996556,-0.137437 0.0876412,-0.145393 0.0749953,-0.152302 0.061809,-0.158113 0.0481774,-0.162785 0.0341987,-0.166285 0.0199736,-0.168586 0.00560457,-0.169672 -0.00880483,-0.169536 -0.0231508,-0.168179 -0.03733,-0.16561 -0.0512402,-0.161847 z "/>
<path fme:_creation_instance="0" d="M 379.537,636.791 l -111.135,-630.277 -0.0377639,-0.170342 -0.0524664,-0.166402 -0.0667697,-0.161196 -0.0805648,-0.154763 -0.0937467,-0.147153 -0.106215,-0.138422 -0.117875,-0.128638 -0.128638,-0.117875 -0.138422,-0.106215 -0.147153,-0.0937467 -0.154763,-0.0805648 -0.161196,-0.0667697 -0.166402,-0.0524664 -0.170342,-0.0377639 -0.172985,-0.0227739 -0.174311,-0.0076106 -0.174311,0.0076106 -0.172985,0.0227739 -0.170342,0.0377639 -0.166402,0.0524664 -0.161196,0.0667697 -0.154763,0.0805648 -0.147153,0.0937467 -0.138422,0.106215 -0.128638,0.117875 -0.117875,0.128638 -0.106215,0.138422 -0.0937467,0.147153 -0.0805648,0.154763 -0.0667697,0.161196 -0.0524664,0.166402 -0.0377639,0.170342 -0.0227739,0.172985 -0.0076106,0.174311 0.0076106,0.174311 0.0227739,0.172985 111.135,630.277 0.0377639,0.170342 0.0524664,0.166402 0.0667697,0.161196 0.0805648,0.154763 0.0937467,0.147153 0.106215,0.138422 0.117875,0.128638 0.128638,0.117875 0.138422,0.106215 0.147153,0.0937467 0.154763,0.0805648 0.161196,0.0667697 0.166402,0.0524664 0.170342,0.0377639 0.172985,0.0227739 0.174311,0.0076106 0.174311,-0.0076106 0.172985,-0.0227739 0.170342,-0.0377639 0.166402,-0.0524664 0.161196,-0.0667697 0.154763,-0.0805648 0.147153,-0.0937467 0.138422,-0.106215 0.128638,-0.117875 0.117875,-0.128638 0.106215,-0.138422 0.0937467,-0.147153 0.0805648,-0.154763 0.0667697,-0.161196 0.0524664,-0.166402 0.0377639,-0.170342 0.0227739,-0.172985 0.0076106,-0.174311 -0.0076106,-0.174311 -0.0227739,-0.172985 z "/>
<path fme:_creation_instance="0" d="M 324,642 l -5.68434e-14,-640 -0.0076106,-0.174311 -0.0227739,-0.172985 -0.0377639,-0.170342 -0.0524664,-0.166402 -0.0667697,-0.161196 -0.0805648,-0.154763 -0.0937467,-0.147153 -0.106215,-0.138422 -0.117875,-0.128638 -0.128638,-0.117875 -0.138422,-0.106215 -0.147153,-0.0937467 -0.154763,-0.0805648 -0.161196,-0.0667697 -0.166402,-0.0524664 -0.170342,-0.0377639 -0.172985,-0.0227739 -0.174311,-0.0076106 -0.174311,0.0076106 -0.172985,0.0227739 -0.170342,0.0377639 -0.166402,0.0524664 -0.161196,0.0667697 -0.154763,0.0805648 -0.147153,0.0937467 -0.138422,0.106215 -0.128638,0.117875 -0.117875,0.128638 -0.106215,0.138422 -0.0937467,0.147153 -0.0805648,0.154763 -0.0667697,0.161196 -0.0524664,0.166402 -0.0377639,0.170342 -0.0227739,0.172985 -0.0076106,0.174311 5.68434e-14,640 0.0076106,0.174311 0.0227739,0.172985 0.0377639,0.170342 0.0524664,0.166402 0.0667697,0.161196 0.0805648,0.154763 0.0937467,0.147153 0.106215,0.138422 0.117875,0.128638 0.128638,0.117875 0.138422,0.106215 0.147153,0.0937467 0.154763,0.0805648 0.161196,0.0667697 0.166402,0.0524664 0.170342,0.0377639 0.172985,0.0227739 0.174311,0.0076106 0.174311,-0.0076106 0.172985,-0.0227739 0.170342,-0.0377639 0.166402,-0.0524664 0.161196,-0.0667697 0.154763,-0.0805648 0.147153,-0.0937467 0.138422,-0.106215 0.128638,-0.117875 0.117875,-0.128638 0.106215,-0.138422 0.0937467,-0.147153 0.0805648,-0.154763 0.0667697,-0.161196 0.0524664,-0.166402 0.0377639,-0.170342 0.0227739,-0.172985 0.0076106,-0.174311 z "/>
<path fme:_creation_instance="0" d="M 268.402,637.486 l 111.135,-630.277 0.0227739,-0.172985 0.0076106,-0.174311 -0.0076106,-0.174311 -0.0227739,-0.172985 -0.0377639,-0.170342 -0.0524664,-0.166402 -0.0667697,-0.161196 -0.0805648,-0.154763 -0.0937467,-0.147153 -0.106215,-0.138422 -0.117875,-0.128638 -0.128638,-0.117875 -0.138422,-0.106215 -0.147153,-0.0937467 -0.154763,-0.0805648 -0.161196,-0.0667697 -0.166402,-0.0524664 -0.170342,-0.0377639 -0.172985,-0.0227739 -0.174311,-0.0076106 -0.174311,0.0076106 -0.172985,0.0227739 -0.170342,0.0377639 -0.166402,0.0524664 -0.161196,0.0667697 -0.154763,0.0805648 -0.147153,0.0937467 -0.138422,0.106215 -0.128638,0.117875 -0.117875,0.128638 -0.106215,0.138422 -0.0937467,0.147153 -0.0805648,0.154763 -0.0667697,0.161196 -0.0524664,0.166402 -0.0377639,0.170342 -111.135,630.277 -0.0227739,0.172985 -0.0076106,0.174311 0.0076106,0.174311 0.0227739,0.172985 0.0377639,0.170342 0.0524664,0.166402 0.0667697,0.161196 0.0805648,0.154763 0.0937467,0.147153 0.106215,0.138422 0.117875,0.128638 0.128638,0.117875 0.138422,0.106215 0.147153,0.0937467 0.154763,0.0805648 0.161196,0.0667697 0.166402,0.0524664 0.170342,0.0377639 0.172985,0.0227739 0.174311,0.0076106 0.174311,-0.0076106 0.172985,-0.0227739 0.170342,-0.0377639 0.166402,-0.0524664 0.161196,-0.0667697 0.154763,-0.0805648 0.147153,-0.0937467 0.138422,-0.106215 0.128638,-0.117875 0.117875,-0.128638 0.106215,-0.138422 0.0937467,-0.147153 0.0805648,-0.154763 0.0667697,-0.161196 0.0524664,-0.166402 0.0377639,-0.170342 z "/>
<path fme:_creation_instance="0" d="M 214.433,623.386 l 218.893,-601.403 0.0524664,-0.166402 0.0377639,-0.170342 0.0227739,-0.172985 0.0076106,-0.174311 -0.0076106,-0.174311 -0.0227739,-0.172985 -0.0377639,-0.170342 -0.0524664,-0.166402 -0.0667697,-0.161196 -0.0805648,-0.154763 -0.0937467,-0.147153 -0.106215,-0.138422 -0.117875,-0.128638 -0.128638,-0.117875 -0.138422,-0.106215 -0.147153,-0.0937467 -0.154763,-0.0805648 -0.161196,-0.0667697 -0.166402,-0.0524664 -0.170342,-0.0377639 -0.172985,-0.0227739 -0.174311,-0.0076106 -0.174311,0.0076106 -0.172985,0.0227739 -0.170342,0.0377639 -0.166402,0.0524664 -0.161196,0.0667697 -0.154763,0.0805648 -0.147153,0.0937467 -0.138422,0.106215 -0.128638,0.117875 -0.117875,0.128638 -0.106215,0.138422 -0.0937467,0.147153 -0.0805648,0.154763 -0.0667697,0.161196 -218.893,601.403 -0.0524664,0.166402 -0.0377639,0.170342 -0.0227739,0.172985 -0.0076106,0.174311 0.0076106,0.174311 0.0227739,0.172985 0.0377639,0.170342 0.0524664,0.166402 0.0667697,0.161196 0.0805648,0.154763 0.0937467,0.147153 0.106215,0.138422 0.117875,0.128638 0.128638,0.117875 0.138422,0.106215 0.147153,0.0937467 0.154763,0.0805648 0.161196,0.0667697 0.166402,0.0524664 0.170342,0.0377639 0.172985,0.0227739 0.174311,0.0076106 0.174311,-0.0076106 0.172985,-0.0227739 0.170342,-0.0377639 0.166402,-0.0524664 0.161196,-0.0667697 0.154763,-0.0805648 0.147153,-0.0937467 0.138422,-0.106215 0.128638,-0.117875 0.117875,-0.128638 0.106215,-0.138422 0.0937467,-0.147153 0.0805648,-0.154763 0.0667697,-0.161196 z "/>
<path fme:_creation_instance="0" d="M 163.732,600.128 l 320,-554.256 0.0785662,-0.150491 0.0655207,-0.156611 0.052003,-0.161604 0.0381107,-0.165432 0.0239439,-0.168068 0.00960445,-0.169493 -0.00480415,-0.169697 -0.0191781,-0.168678 -0.0334139,-0.166444 -0.047409,-0.163011 -0.0610625,-0.158403 -0.074276,-0.152654 -0.0869544,-0.145805 -0.0990062,-0.137905 -0.110345,-0.129012 -0.120888,-0.119189 -0.130561,-0.108508 -0.139292,-0.0970448 -0.147021,-0.0848824 -0.15369,-0.0721084 -0.159251,-0.0588148 -0.163665,-0.0450975 -0.1669,-0.0310553 -0.168933,-0.0167893 -0.169748,-0.00240232 -0.16934,0.012002 -0.167712,0.0263198 -0.164876,0.0404479 -0.160852,0.0542847 -0.155669,0.0677303 -0.149364,0.0806879 -0.141983,0.0930642 -0.133579,0.10477 -0.124213,0.115721 -0.113951,0.125838 -0.102869,0.135048 -0.0910457,0.143286 -320,554.256 -0.0805648,0.154763 -0.0667697,0.161196 -0.0524664,0.166402 -0.0377639,0.170342 -0.0227739,0.172985 -0.0076106,0.174311 0.0076106,0.174311 0.0227739,0.172985 0.0377639,0.170342 0.0524664,0.166402 0.0667697,0.161196 0.0805648,0.154763 0.0937467,0.147153 0.106215,0.138422 0.117875,0.128638 0.128638,0.117875 0.138422,0.106215 0.147153,0.0937467 0.154763,0.0805648 0.161196,0.0667697 0.166402,0.0524664 0.170342,0.0377639 0.172985,0.0227739 0.174311,0.0076106 0.174311,-0.0076106 0.172985,-0.0227739 0.170342,-0.0377639 0.166402,-0.0524664 0.161196,-0.0667697 0.154763,-0.0805648 0.147153,-0.0937467 0.138422,-0.106215 0.128638,-0.117875 0.117875,-0.128638 0.106215,-0.138422 0.0937467,-0.147153 z "/>
<path fme:_creation_instance="0" d="M 117.84,568.42 l 411.384,-490.268 0.106215,-0.138422 0.0937467,-0.147153 0.0805648,-0.154763 0.0667697,-0.161196 0.0524664,-0.166402 0.0377639,-0.170342 0.0227739,-0.172985 0.0076106,-0.174311 -0.0076106,-0.174311 -0.0227739,-0.172985 -0.0377639,-0.170342 -0.0524664,-0.166402 -0.0667697,-0.161196 -0.0805648,-0.154763 -0.0937467,-0.147153 -0.106215,-0.138422 -0.117875,-0.128638 -0.128638,-0.117875 -0.138422,-0.106215 -0.147153,-0.0937467 -0.154763,-0.0805648 -0.161196,-0.0667697 -0.166402,-0.0524664 -0.170342,-0.0377639 -0.172985,-0.0227739 -0.174311,-0.0076106 -0.174311,0.0076106 -0.172985,0.0227739 -0.170342,0.0377639 -0.166402,0.0524664 -0.161196,0.0667697 -0.154763,0.0805648 -0.147153,0.0937467 -0.138422,0.106215 -0.128638,0.117875 -0.117875,0.128638 -411.384,490.268 -0.106215,0.138422 -0.0937467,0.147153 -0.0805648,0.154763 -0.0667697,0.161196 -0.0524664,0.166402 -0.0377639,0.170342 -0.0227739,0.172985 -0.0076106,0.174311 0.0076106,0.174311 0.0227739,0.172985 0.0377639,0.170342 0.0524664,0.166402 0.0667697,0.161196 0.0805648,0.154763 0.0937467,0.147153 0.106215,0.138422 0.117875,0.128638 0.128638,0.117875 0.138422,0.106215 0.147153,0.0937467 0.154763,0.0805648 0.161196,0.0667697 0.166402,0.0524664 0.170342,0.0377639 0.172985,0.0227739 0.174311,0.0076106 0.174311,-0.0076106 0.172985,-0.0227739 0.170342,-0.0377639 0.166402,-0.0524664 0.161196,-0.0667697 0.154763,-0.0805648 0.147153,-0.0937467 0.138422,-0.106215 0.128638,-0.117875 0.117875,-0.128638 z "/>
<path fme:_creation_instance="0" d="M 78.1514,529.224 l 490.268,-411.384 0.128638,-0.117875 0.117875,-0.128638 0.106215,-0.138422 0.0937467,-0.147153 0.0805648,-0.154763 0.0667697,-0.161196 0.0524664,-0.166402 0.0377639,-0.170342 0.0227739,-0.172985 0.0076106,-0.174311 -0.0076106,-0.174311 -0.0227739,-0.172985 -0.0377639,-0.170342 -0.0524664,-0.166402 -0.0667697,-0.161196 -0.0805648,-0.154763 -0.0937467,-0.147153 -0.106215,-0.138422 -0.117875,-0.128638 -0.128638,-0.117875 -0.138422,-0.106215 -0.147153,-0.0937467 -0.154763,-0.0805648 -0.161196,-0.0667697 -0.166402,-0.0524664 -0.170342,-0.0377639 -0.172985,-0.0227739 -0.174311,-0.0076106 -0.174311,0.0076106 -0.172985,0.0227739 -0.170342,0.0377639 -0.166402,0.0524664 -0.161196,0.0667697 -0.154763,0.0805648 -0.147153,0.0937467 -0.138422,0.106215 -490.268,411.384 -0.128638,0.117875 -0.117875,0.128638 -0.106215,0.138422 -0.0937467,0.147153 -0.0805648,0.154763 -0.0667697,0.161196 -0.0524664,0.166402 -0.0377639,0.170342 -0.0227739,0.172985 -0.0076106,0.174311 0.0076106,0.174311 0.0227739,0.172985 0.0377639,0.170342 0.0524664,0.166402 0.0667697,0.161196 0.0805648,0.154763 0.0937467,0.147153 0.106215,0.138422 0.117875,0.128638 0.128638,0.117875 0.138422,0.106215 0.147153,0.0937467 0.154763,0.0805648 0.161196,0.0667697 0.166402,0.0524664 0.170342,0.0377639 0.172985,0.0227739 0.174311,0.0076106 0.174311,-0.0076106 0.172985,-0.0227739 0.170342,-0.0377639 0.166402,-0.0524664 0.161196,-0.0667697 0.154763,-0.0805648 0.147153,-0.0937467 0.138422,-0.106215 z "/>
<path fme:_creation_instance="0" d="M 45.8719,483.732 l 554.256,-320 0.147153,-0.0937467 0.138422,-0.106215 0.128638,-0.117875 0.117875,-0.128638 0.106215,-0.138422 0.0937467,-0.147153 0.0805648,-0.154763 0.0667697,-0.161196 0.0524664,-0.166402 0.0377639,-0.170342 0.0227739,-0.172985 0.0076106,-0.174311 -0.0076106,-0.174311 -0.0227739,-0.172985 -0.0377639,-0.170342 -0.0524664,-0.166402 -0.0667697,-0.161196 -0.0805648,-0.154763 -0.0937467,-0.147153 -0.106215,-0.138422 -0.117875,-0.128638 -0.128638,-0.117875 -0.138422,-0.106215 -0.147153,-0.0937467 -0.154763,-0.0805648 -0.161196,-0.0667697 -0.166402,-0.0524664 -0.170342,-0.0377639 -0.172985,-0.0227739 -0.174311,-0.0076106 -0.174311,0.0076106 -0.172985,0.0227739 -0.170342,0.0377639 -0.166402,0.0524664 -0.161196,0.0667697 -0.154763,0.0805648 -554.256,320 -0.147153,0.0937467 -0.138422,0.106215 -0.128638,0.117875 -0.117875,0.128638 -0.106215,0.138422 -0.0937467,0.147153 -0.0805648,0.154763 -0.0667697,0.161196 -0.0524664,0.166402 -0.0377639,0.170342 -0.0227739,0.172985 -0.0076106,0.174311 0.0076106,0.174311 0.0227739,0.172985 0.0377639,0.170342 0.0524664,0.166402 0.0667697,0.161196 0.0805648,0.154763 0.0937467,0.147153 0.106215,0.138422 0.117875,0.128638 0.128638,0.117875 0.138422,0.106215 0.147153,0.0937467 0.154763,0.0805648 0.161196,0.0667697 0.166402,0.0524664 0.170342,0.0377639 0.172985,0.0227739 0.174311,0.0076106 0.174311,-0.0076106 0.172985,-0.0227739 0.170342,-0.0377639 0.166402,-0.0524664 0.161196,-0.0667697 0.154763,-0.0805648 z "/>
<path fme:_creation_instance="0" d="M 21.9824,433.326 l 601.403,-218.893 0.161196,-0.0667697 0.154763,-0.0805648 0.147153,-0.0937467 0.138422,-0.106215 0.128638,-0.117875 0.117875,-0.128638 0.106215,-0.138422 0.0937467,-0.147153 0.0805648,-0.154763 0.0667697,-0.161196 0.0524664,-0.166402 0.0377639,-0.170342 0.0227739,-0.172985 0.0076106,-0.174311 -0.0076106,-0.174311 -0.0227739,-0.172985 -0.0377639,-0.170342 -0.0524664,-0.166402 -0.0667697,-0.161196 -0.0805648,-0.154763 -0.0937467,-0.147153 -0.106215,-0.138422 -0.117875,-0.128638 -0.128638,-0.117875 -0.138422,-0.106215 -0.147153,-0.0937467 -0.154763,-0.0805648 -0.161196,-0.0667697 -0.166402,-0.0524664 -0.170342,-0.0377639 -0.172985,-0.0227739 -0.174311,-0.0076106 -0.174311,0.0076106 -0.172985,0.0227739 -0.170342,0.0377639 -0.166402,0.0524664 -601.403,218.893 -0.161196,0.0667697 -0.154763,0.0805648 -0.147153,0.0937467 -0.138422,0.106215 -0.128638,0.117875 -0.117875,0.128638 -0.106215,0.138422 -0.0937467,0.147153 -0.0805648,0.154763 -0.0667697,0.161196 -0.0524664,0.166402 -0.0377639,0.170342 -0.0227739,0.172985 -0.0076106,0.174311 0.0076106,0.174311 0.0227739,0.172985 0.0377639,0.170342 0.0524664,0.166402 0.0667697,0.161196 0.0805648,0.154763 0.0937467,0.147153 0.106215,0.138422 0.117875,0.128638 0.128638,0.117875 0.138422,0.106215 0.147153,0.0937467 0.154763,0.0805648 0.161196,0.0667697 0.166402,0.0524664 0.170342,0.0377639 0.172985,0.0227739 0.174311,0.0076106 0.174311,-0.0076106 0.172985,-0.0227739 0.170342,-0.0377639 0.166402,-0.0524664 z "/>
<path fme:_creation_instance="0" d="M 7.20882,379.537 l 630.277,-111.135 0.170342,-0.0377639 0.166402,-0.0524664 0.161196,-0.0667697 0.154763,-0.0805648 0.147153,-0.0937467 0.138422,-0.106215 0.128638,-0.117875 0.117875,-0.128638 0.106215,-0.138422 0.0937467,-0.147153 0.0805648,-0.154763 0.0667697,-0.161196 0.0524664,-0.166402 0.0377639,-0.170342 0.0227739,-0.172985 0.0076106,-0.174311 -0.0076106,-0.174311 -0.0227739,-0.172985 -0.0377639,-0.170342 -0.0524664,-0.166402 -0.0667697,-0.161196 -0.0805648,-0.154763 -0.0937467,-0.147153 -0.106215,-0.138422 -0.117875,-0.128638 -0.128638,-0.117875 -0.138422,-0.106215 -0.147153,-0.0937467 -0.154763,-0.0805648 -0.161196,-0.0667697 -0.166402,-0.0524664 -0.170342,-0.0377639 -0.172985,-0.0227739 -0.174311,-0.0076106 -0.174311,0.0076106 -0.172985,0.0227739 -630.277,111.135 -0.170342,0.0377639 -0.166402,0.0524664 -0.161196,0.0667697 -0.154763,0.0805648 -0.147153,0.0937467 -0.138422,0.106215 -0.128638,0.117875 -0.117875,0.128638 -0.106215,0.138422 -0.0937467,0.147153 -0.0805648,0.154763 -0.0667697,0.161196 -0.0524664,0.166402 -0.0377639,0.170342 -0.0227739,0.172985 -0.0076106,0.174311 0.0076106,0.174311 0.0227739,0.172985 0.0377639,0.170342 0.0524664,0.166402 0.0667697,0.161196 0.0805648,0.154763 0.0937467,0.147153 0.106215,0.138422 0.117875,0.128638 0.128638,0.117875 0.138422,0.106215 0.147153,0.0937467 0.154763,0.0805648 0.161196,0.0667697 0.166402,0.0524664 0.170342,0.0377639 0.172985,0.0227739 0.174311,0.0076106 0.174311,-0.0076106 0.172985,-0.0227739 z "/>
</g></g></svg>