<?xml version="1.0" encoding="UTF-8" standalone="no"?>
<!DOCTYPE svg PUBLIC "-//W3C//DTD SVG 1.1//EN" "http://www.w3.org/Graphics/SVG/1.1/DTD/svg11-flat.dtd"
[
<!ATTLIST g xmlns:fme CDATA #FIXED "http://www.safe.com/fme" >
<!ATTLIST path fme:_creation_instance CDATA #IMPLIED >
<!ATTLIST ellipse fme:_creation_instance CDATA #IMPLIED >
<!ATTLIST text fme:_creation_instance CDATA #IMPLIED >
<!ATTLIST use fme:_creation_instance CDATA #IMPLIED >
]>
<svg xmlns="http://www.w3.org/2000/svg"  viewBox="-10 -10 820 1800.16"><g xmlns:fme="http://www.safe.com/fme" fill="none" stroke="black" stroke-width="0.1" transform="translate(0,1780.16) scale(1, -1)">
<g id="asset" >
<path d="M 0,0 m -0.5,-0.5 l 0,1 1,0 0,-1 z "/>
<path d="M 200,0 m -0.5,-0.5 l 0,1 1,0 0,-1 z "/>
<path d="M 400,0 m -0.5,-0.5 l 0,1 1,0 0,-1 z "/>
<path d="M 600,0 m -0.5,-0.5 l 0,1 1,0 0,-1 z "/>
<path d="M 800,0 m -0.5,-0.5 l 0,1 1,0 0,-1 z "/>
<path d="M 0,200 m -0.5,-0.5 l 0,1 1,0 0,-1 z "/>
<path d="M 200,200 m -0.5,-0.5 l 0,1 1,0 0,-1 z "/>
<path d="M 400,200 m -0.5,-0.5 l 0,1 1,0 0,-1 z "/>
<path d="M 600,200 m -0.5,-0.5 l 0,1 1,0 0,-1 z "/>
<path d="M 800,200 m -0.5,-0.5 l 0,1 1,0 0,-1 z "/>
<path d="M 0,400 m -0.5,-0.5 l 0,1 1,0 0,-1 z "/>
<path d="M 200,400 m -0.5,-0.5 l 0,1 1,0 0,-1 z "/>
<path d="M 400,400 m -0.5,-0.5 l 0,1 1,0 0,-1 z "/>
<path d="M 600,400 m -0.5,-0.5 l 0,1 1,0 0,-1 z "/>
<path d="M 800,400 m -0.5,-0.5 l 0,1 1,0 0,-1 z "/>
<path d="M 0,600 m -0.5,-0.5 l 0,1 1,0 0,-1 z "/>
<path d="M 200,600 m -0.5,-0.5 l 0,1 1,0 0,-1 z "/>
<path d="M 400,600 m -0.5,-0.5 l 0,1 1,0 0,-1 z "/>
<path d="M 600,600 m -0.5,-0.5 l 0,1 1,0 0,-1 z "/>
<path d="M 800,600 m -0.5,-0.5 l 0,1 1,0 0,-1 z "/>
<path d="M 0,800 m -0.5,-0.5 l 0,1 1,0 0,-1 z "/>
<path d="M 200,800 m -0.5,-0.5 l 0,1 1,0 0,-1 z "/>
<path d="M 400,800 m -0.5,-0.5 l 0,1 1,0 0,-1 z "/>
<path d="M 600,800 m -0.5,-0.5 l 0,1 1,0 0,-1 z "/>
<path d="M 800,800 m -0.5,-0.5 l 0,1 1,0 0,-1 z "/>
<path d="M 0,0 l 200,0 "/>
<path d="M 0,0 l 0,200 "/>
<path d="M 200,0 l 200,0 "/>
<path d="M 200,0 l 0,200 "/>
<path d="M 400,0 l 200,0 "/>
<path d="M 400,0 l 0,200 "/>
<path d="M 600,0 l 200,0 "/>
<path d="M 600,0 l 0,200 "/>
<path d="M 800,0 l 0,200 "/>
<path d="M 0,200 l 200,0 "/>
<path d="M 0,200 l 0,200 "/>
<path d="M 200,200 l 200,0 "/>
<path d="M 200,200 l 0,200 "/>
<path d="M 400,200 l 200,0 "/>
<path d="M 400,200 l 0,200 "/>
<path d="M 600,200 l 200,0 "/>
<path d="M 600,200 l 0,200 "/>
<path d="M 800,200 l 0,200 "/>
<path d="M 0,400 l 200,0 "/>
<path d="M 0,400 l 0,200 "/>
<path d="M 200,400 l 200,0 "/>
<path d="M 200,400 l 0,200 "/>
<path d="M 400,400 l 200,0 "/>
<path d="M 400,400 l 0,200 "/>
<path d="M 600,400 l 200,0 "/>
<path d="M 600,400 l 0,200 "/>
<path d="M 800,400 l 0,200 "/>
<path d="M 0,600 l 200,0 "/>
<path d="M 0,600 l 0,200 "/>
<path d="M 200,600 l 200,0 "/>
<path d="M 200,600 l 0,200 "/>
<path d="M 400,600 l 200,0 "/>
<path d="M 400,600 l 0,200 "/>
<path d="M 600,600 l 200,0 "/>
<path d="M 600,600 l 0,200 "/>
<path d="M 800,600 l 0,200 "/>
<path d="M 0,800 l 200,0 "/>
<path d="M 200,800 l 200,0 "/>
<path d="M 400,800 l 200,0 "/>
<path d="M 600,800 l 200,0 "/>
<path d="M 0,1000 m -0.5,-0.5 l 0,1 1,0 0,-1 z "/>
<path d="M 113.441,1000 m -0.5,-0.5 l 0,1 1,0 0,-1 z "/>
<path d="M 376.618,1000 m -0.5,-0.5 l 0,1 1,0 0,-1 z "/>
<path d="M 587.152,1000 m -0.5,-0.5 l 0,1 1,0 0,-1 z "/>
<path d="M 600.88,1000 m -0.5,-0.5 l 0,1 1,0 0,-1 z "/>
<path d="M 0,1173.09 m -0.5,-0.5 l 0,1 1,0 0,-1 z "/>
<path d="M 174.181,1127.75 m -0.5,-0.5 l 0,1 1,0 0,-1 z "/>
<path d="M 215.441,1189.34 m -0.5,-0.5 l 0,1 1,0 0,-1 z "/>
<path d="M 599.464,1184.41 m -0.5,-0.5 l 0,1 1,0 0,-1 z "/>
<path d="M 423.523,1126.89 m -0.5,-0.5 l 0,1 1,0 0,-1 z "/>
<path d="M 0,1332.59 m -0.5,-0.5 l 0,1 1,0 0,-1 z "/>
<path d="M 188.22,1229.45 m -0.5,-0.5 l 0,1 1,0 0,-1 z "/>
<path d="M 310.832,1329.61 m -0.5,-0.5 l 0,1 1,0 0,-1 z "/>
<path d="M 467.444,1246.82 m -0.5,-0.5 l 0,1 1,0 0,-1 z "/>
<path d="M 671.913,1264 m -0.5,-0.5 l 0,1 1,0 0,-1 z "/>
<path d="M 0,1391.64 m -0.5,-0.5 l 0,1 1,0 0,-1 z "/>
<path d="M 188.769,1350.53 m -0.5,-0.5 l 0,1 1,0 0,-1 z "/>
<path d="M 200.571,1355.71 m -0.5,-0.5 l 0,1 1,0 0,-1 z "/>
<path d="M 508.749,1454.16 m -0.5,-0.5 l 0,1 1,0 0,-1 z "/>
<path d="M 520.17,1531.28 m -0.5,-0.5 l 0,1 1,0 0,-1 z "/>
<path d="M 0,1676.68 m -0.5,-0.5 l 0,1 1,0 0,-1 z "/>
<path d="M 198.952,1780.16 m -0.5,-0.5 l 0,1 1,0 0,-1 z "/>
<path d="M 361.713,1664.05 m -0.5,-0.5 l 0,1 1,0 0,-1 z "/>
<path d="M 396.726,1728.49 m -0.5,-0.5 l 0,1 1,0 0,-1 z "/>
<path d="M 736.885,1408.74 m -0.5,-0.5 l 0,1 1,0 0,-1 z "/>
<path d="M 0,1000 l 113.441,0 "/>
<path d="M 0,1000 l 0,173.094 "/>
<path d="M 113.441,1000 l 263.177,0 "/>
<path d="M 113.441,1000 l 60.7397,127.75 "/>
<path d="M 376.618,1000 l 210.534,0 "/>
<path d="M 376.618,1000 l -161.177,189.344 "/>
<path d="M 587.152,1000 l 13.728,0 "/>
<path d="M 587.152,1000 l 12.3115,184.406 "/>
<path d="M 600.88,1000 l -177.358,126.888 "/>
<path d="M 0,1173.09 l 174.181,-45.3433 "/>
<path d="M 0,1173.09 l 0,159.494 "/>
<path d="M 174.181,1127.75 l 41.2602,61.594 "/>
<path d="M 174.181,1127.75 l 14.0393,101.697 "/>
<path d="M 215.441,1189.34 l 384.023,-4.93828 "/>
<path d="M 215.441,1189.34 l 95.3913,140.262 "/>
<path d="M 599.464,1184.41 l -175.941,-57.5182 "/>
<path d="M 599.464,1184.41 l -132.019,62.4159 "/>
<path d="M 423.523,1126.89 l 248.39,137.112 "/>
<path d="M 0,1332.59 l 188.22,-103.139 "/>
<path d="M 0,1332.59 l 0,59.0556 "/>
<path d="M 188.22,1229.45 l 122.612,100.159 "/>
<path d="M 188.22,1229.45 l 0.548587,121.078 "/>
<path d="M 310.832,1329.61 l 156.612,-82.7843 "/>
<path d="M 310.832,1329.61 l -110.261,26.1004 "/>
<path d="M 467.444,1246.82 l 204.469,17.1779 "/>
<path d="M 467.444,1246.82 l 41.3043,207.339 "/>
<path d="M 671.913,1264 l -151.743,267.283 "/>
<path d="M 0,1391.64 l 188.769,-41.1173 "/>
<path d="M 0,1391.64 l 0,285.04 "/>
<path d="M 188.769,1350.53 l 11.8023,5.1812 "/>
<path d="M 188.769,1350.53 l 10.1831,429.636 "/>
<path d="M 200.571,1355.71 l 308.178,98.4543 "/>
<path d="M 200.571,1355.71 l 161.142,308.346 "/>
<path d="M 508.749,1454.16 l 11.4214,77.1219 "/>
<path d="M 508.749,1454.16 l -112.022,274.331 "/>
<path d="M 520.17,1531.28 l 216.715,-122.547 "/>
<path d="M 0,1676.68 l 198.952,103.479 "/>
<path d="M 198.952,1780.16 l 162.761,-116.109 "/>
<path d="M 361.713,1664.05 l 35.0137,64.4384 "/>
<path d="M 396.726,1728.49 l 340.158,-319.756 "/>
</g></g></svg>