<?xml version="1.0" encoding="UTF-8" standalone="no"?>
<!DOCTYPE svg PUBLIC "-//W3C//DTD SVG 1.1//EN" "http://www.w3.org/Graphics/SVG/1.1/DTD/svg11-flat.dtd"
[
<!ATTLIST g xmlns:fme CDATA #FIXED "http://www.safe.com/fme" >
<!ATTLIST path fme:_creation_instance CDATA #IMPLIED fme:i CDATA #IMPLIED >
<!ATTLIST ellipse fme:_creation_instance CDATA #IMPLIED fme:i CDATA #IMPLIED >
<!ATTLIST text fme:_creation_instance CDATA #IMPLIED fme:i CDATA #IMPLIED >
<!ATTLIST use fme:_creation_instance CDATA #IMPLIED fme:i CDATA #IMPLIED >
]>
<svg xmlns="http://www.w3.org/2000/svg"  viewBox="-0.415922 -0.415922 53.3473 25.7871"><g xmlns:fme="http://www.safe.com/fme" fill="none" stroke="black" stroke-width="0.004159217480564" transform="translate(0,24.9553) scale(1, -1)">
<g id="test" >
<path fme:_creation_instance="0" d="M 51.3334,13.4883 l -0.834992,-0.548345 -0.821078,-0.564333 -0.791084,-0.607395 -0.000712143,-0.000541737 -0.000716962,-0.000535343 -0.000721723,-0.000528907 -0.807706,-0.586382 -0.785029,-0.616411 -0.00185873,-0.00142463 -0.00189159,-0.00138071 -0.0019234,-0.00133604 -0.825882,-0.559454 -0.797277,-0.599516 -8.25674e-05,-6.20202e-05 -8.26314e-05,-6.19349e-05 -8.26953e-05,-6.18496e-05 -0.800601,-0.598142 -0.790245,-0.606133 -0.747288,-0.659322 -0.00139046,-0.00120422 -0.00141237,-0.00117844 -0.00143381,-0.00115227 -0.785212,-0.619227 -0.000179438,-0.000141175 -0.00017976,-0.000140765 -0.000180081,-0.000140354 -0.787278,-0.612157 -0.752673,-0.654237 -0.00176343,-0.00149735 -0.00179759,-0.00145616 -0.0018308,-0.00141418 -1.59682,-1.20422 -0.0032767,-0.0023687 -0.00336978,-0.00223431 -0.00345734,-0.00209627 -0.865405,-0.501073 -0.00479317,-0.00260337 -0.00492798,-0.00233815 -0.00504814,-0.00206597 -0.93548,-0.35338 -0.00196656,-0.000719436 -0.00198119,-0.0006781 -0.00199495,-0.000636467 -0.95582,-0.293953 -0.00303353,-0.000880736 -0.00305983,-0.000784486 -0.00308308,-0.000687453 -0.979347,-0.202189 -0.00404025,-0.000747926 -0.00406757,-0.00058132 -0.00408802,-0.000413733 -0.996776,-0.0802305 -0.0048767,-0.000272856 -0.0048842,-3.44084e-05 -0.00488006,0.000204122 -0.997808,0.066179 -0.00540803,0.000506526 -0.00537255,0.000799418 -0.00532122,0.00108995 -0.973849,0.227197 -0.00552795,0.00145746 -0.00543563,0.00177098 -0.00532555,0.0020787 -0.920777,0.390088 -0.00519583,0.00237853 -0.00505148,0.00267144 -0.00489064,0.00295562 -0.840721,0.541468 -0.00204917,0.00135567 -0.00201524,0.00140561 -0.0019801,0.0014547 -0.798562,0.601913 -0.00415122,0.00330527 -0.00397005,0.00352081 -0.00377769,0.00372645 -0.690718,0.718491 -0.73719,0.670725 -0.00273205,0.00258122 -0.00263312,0.00268207 -0.00253047,0.00277912 -0.65924,0.751932 -0.00259772,0.0030864 -0.00247112,0.00318866 -0.0023405,0.00328573 -1.12726,1.65205 -0.00194655,0.00296432 -0.00184022,0.00303147 -0.00173158,0.00309482 -0.472537,0.880856 -0.479582,0.877041 -0.000820298,0.00153159 -0.000793565,0.00154561 -0.000766592,0.00155916 -0.432534,0.899375 -0.467529,0.879282 -0.50326,0.856494 -0.578444,0.809329 -0.589766,0.799874 -0.668772,0.725705 -0.769642,0.613741 -0.86148,0.487177 -0.888232,0.448226 -0.909218,0.398481 -0.942008,0.313773 -0.95861,0.266279 -0.967581,0.21604 -0.987204,0.0982884 -0.995017,0.0613022 -0.997763,0.0372553 -0.999198,0.0306933 -0.000434251,1.42836e-05 -0.000434185,1.61702e-05 -0.00043411,1.80565e-05 -0.999043,0.0437289 -0.00107445,5.28214e-05 -0.00107382,6.43767e-05 -0.00107307,7.59245e-05 -0.997112,0.0759424 -0.00163398,0.000137931 -0.0016315,0.000164706 -0.00162858,0.000191436 -0.992171,0.124883 -0.0020471,0.000279176 -0.00204089,0.000321408 -0.00203382,0.000363503 -0.982531,0.186101 -0.00228296,0.000460015 -0.00227163,0.000513053 -0.00225907,0.000565813 -0.967142,0.254238 -0.00122932,0.00033154 -0.001225,0.000347165 -0.00122048,0.000362734 -0.956727,0.290986 -0.00264853,0.000845944 -0.00262399,0.000919248 -0.00259742,0.000991842 -0.929157,0.369685 -0.00232101,0.000957388 -0.00229625,0.00101536 -0.00227003,0.00107268 -0.898703,0.438558 -0.00137288,0.000683036 -0.00136225,0.000704007 -0.00135129,0.000724812 -0.877584,0.479422 -0.00139847,0.00077858 -0.00138583,0.000800863 -0.00137284,0.000822942 -0.853308,0.52084 -1.71299,1.03173 -0.00726964,0.0048227 -0.00682165,0.00543794 -0.00632174,0.00601179 -0.00577372,0.00653989 -0.00518177,0.00701822 -0.00455037,0.00744313 -0.00388434,0.0078114 -0.00318875,0.00812021 -0.0024689,0.00836723 -0.00173025,0.00855057 -0.000978433,0.00866884 -0.000219171,0.00872112 0.000541759,0.00870704 0.00129857,0.00862669 0.00204549,0.00848068 0.00277685,0.00827014 0.00348707,0.00799665 0.00417075,0.0076623 0.0048227,0.00726964 0.00543794,0.00682165 0.00601179,0.00632174 0.00653989,0.00577372 0.00701822,0.00518177 0.00744313,0.00455037 0.0078114,0.00388434 0.00812021,0.00318875 0.00836723,0.0024689 0.00855057,0.00173025 0.00866884,0.000978433 0.00872112,0.000219171 0.00870704,-0.000541759 0.00862669,-0.00129857 0.00848068,-0.00204549 0.00827014,-0.00277685 0.00799665,-0.00348707 0.0076623,-0.00417075 1.71325,-1.03188 0.000168616,-0.000101783 0.000168415,-0.000102115 0.000168214,-0.000102447 0.851511,-0.519743 0.873458,-0.477168 0.893249,-0.435897 0.921779,-0.36675 0.950907,-0.289216 0.961915,-0.252863 0.976051,-0.184874 0.986655,-0.124189 0.99305,-0.075633 0.99678,-0.0436298 0.998877,-0.0306834 0.000220328,-7.01109e-06 0.000220312,-7.49676e-06 0.000220295,-7.98239e-06 0.999304,-0.0373128 0.000806305,-3.33649e-05 0.00080601,-3.98706e-05 0.000805662,-4.63738e-05 0.998108,-0.0614926 0.0012539,-8.51644e-05 0.00125273,-0.000100916 0.00125137,-0.000116652 0.99508,-0.0990726 0.00398585,-0.000477815 0.00396346,-0.000637406 0.00393468,-0.000795969 0.975968,-0.217912 0.00166468,-0.000386651 0.00165783,-0.000415043 0.0016505,-0.000443313 0.963518,-0.267643 0.00162079,-0.000464973 0.00161272,-0.000492235 0.0016042,-0.000519357 0.948753,-0.31602 0.00287928,-0.00100811 0.00284719,-0.00109546 0.00281245,-0.0011818 0.915899,-0.401409 0.00165073,-0.000741339 0.00163705,-0.000771087 0.00162283,-0.000800583 0.892769,-0.450515 0.00140289,-0.000721879 0.00139133,-0.000743922 0.00137942,-0.00076578 0.870453,-0.492252 0.00452812,-0.00272101 0.00437811,-0.00295634 0.00421588,-0.00318342 0.781845,-0.623473 0.00390529,-0.00328058 0.00373294,-0.00347544 0.00355089,-0.00366125 0.677673,-0.735364 0.00241864,-0.00272238 0.00231791,-0.00280864 0.00221411,-0.00289117 0.593451,-0.80487 0.000291823,-0.000397838 0.000289857,-0.000399273 0.000287883,-0.000400698 0.581473,-0.813566 0.00169455,-0.0024471 0.00162096,-0.00249645 0.00154595,-0.00254359 0.506601,-0.862181 0.000709669,-0.00122763 0.000692191,-0.00123757 0.000674573,-0.00124726 0.469477,-0.882945 0.000624576,-0.00119398 0.000608431,-0.00120228 0.000592176,-0.00121037 0.43228,-0.898848 0.478523,-0.875105 0.000127868,-0.000234584 0.000127241,-0.000234925 0.000126613,-0.000235264 0.470209,-0.876517 1.12085,-1.64265 0.651525,-0.743132 0.73549,-0.669178 0.00163207,-0.00151852 0.00159782,-0.00155452 0.00156277,-0.00158975 0.687508,-0.715152 0.789247,-0.594892 0.830397,-0.534818 0.904948,-0.383382 0.957523,-0.223388 0.982335,-0.0651528 0.983308,0.0791465 0.968658,0.199982 0.948284,0.291636 0.924868,0.349372 0.853052,0.493921 1.5892,1.19848 0.752115,0.653752 0.00138536,0.00118221 0.00140666,0.00115678 0.0014275,0.00113097 0.789165,0.613624 0.782776,0.617306 0.747793,0.659768 0.00173278,0.00149391 0.00176651,0.00145388 0.0017993,0.00141308 0.793471,0.608608 0.000335157,0.000255951 0.000336234,0.000254536 0.000337304,0.000253115 0.800983,0.598428 0.799126,0.600906 0.00132292,0.000977843 0.00133882,0.000955948 0.00135437,0.000933795 0.825016,0.558868 0.783747,0.615405 0.000993326,0.000769927 0.00100292,0.000757383 0.00101236,0.000744719 0.808146,0.586701 0.792107,0.60818 0.00140106,0.00105633 0.00141938,0.00103158 0.00143726,0.00100652 0.824116,0.566421 0.000580492,0.000395981 0.00058326,0.000391892 0.000586,0.000387784 0.835873,0.548923 0.00749399,0.00446611 0.00785472,0.00379597 0.00815567,0.00309694 0.00839455,0.00237434 0.00856955,0.00163367 0.00867932,0.000880569 0.00872304,0.000120765 0.00870037,-0.000639957 0.00861149,-0.00139581 0.00845707,-0.00214104 0.00823828,-0.00286997 0.0079568,-0.00357707 0.00761476,-0.00425693 0.00721477,-0.00490441 0.00675986,-0.00551455 0.00625352,-0.00608273 0.00569957,-0.00660461 0.00510226,-0.00707623 0.00446611,-0.00749399 0.00379597,-0.00785472 0.00309694,-0.00815567 0.00237434,-0.00839455 0.00163367,-0.00856955 0.000880569,-0.00867932 0.000120765,-0.00872304 -0.000639957,-0.00870037 -0.00139581,-0.00861149 -0.00214104,-0.00845707 -0.00286997,-0.00823828 -0.00357707,-0.0079568 -0.00425693,-0.00761476 -0.00490441,-0.00721477 -0.00551455,-0.00675986 -0.00608273,-0.00625352 -0.00660461,-0.00569957 -0.00707623,-0.00510226 z "/>
<path fme:_creation_instance="0" d="M 51.3714,13.609 l 1.13689,-2.84246 0.00284475,-0.00810614 0.00213851,-0.00832039 0.00141649,-0.00847323 0.000684014,-0.00856354 -5.35083e-05,-0.00859065 -0.000790636,-0.00855435 -0.00152193,-0.00845493 -0.00224199,-0.0082931 -0.0029455,-0.00807007 -0.00362728,-0.00778748 -0.00428228,-0.00744742 -0.00490569,-0.0070524 -0.00549288,-0.00660532 -0.00603954,-0.0061095 -0.00654162,-0.00556859 -0.00699543,-0.00498658 -0.00739761,-0.00436777 -0.00774519,-0.00371673 -0.00803561,-0.00303825 -0.00826673,-0.00233735 -0.00843684,-0.0016192 -0.00854468,-0.000889103 -0.00858946,-0.000152442 -0.00857085,0.000585344 -0.00848898,0.00131881 -0.00834446,0.00204254 -0.00813836,0.0027512 -0.0078722,0.00343955 -0.00754794,0.00410252 -0.00716797,0.00473522 -0.0067351,0.00533296 -0.00625253,0.00589135 -0.00572381,0.00640625 -3.16207,3.86081 2.36995,-4.39896 0.0037359,-0.00770775 0.0030626,-0.00799918 0.00236683,-0.00823192 0.00165369,-0.00840427 0.000928427,-0.00851495 0.00019635,-0.00856317 -0.000537169,-0.00854856 -0.00126675,-0.00847123 -0.00198703,-0.00833175 -0.00269273,-0.00813115 -0.00337868,-0.00787089 -0.00403985,-0.00755288 -0.00467137,-0.00717946 -0.00526862,-0.00675337 -0.00582722,-0.00627773 -0.00634306,-0.00575604 -0.00681237,-0.00519211 -0.0072317,-0.00459009 -0.00759797,-0.0039544 -0.0079085,-0.00328969 -0.008161,-0.00260085 -0.00835363,-0.00189292 -0.00848498,-0.00117111 -0.00855407,-0.000440711 -0.00856041,0.000292926 -0.00850394,0.00102441 -0.00838508,0.00174838 -0.0082047,0.00245953 -0.00796413,0.00315263 -0.00766512,0.0038226 -0.00730988,0.00446452 -0.00690101,0.00507369 -0.00644152,0.00564564 -0.00593476,0.00617617 -3.23709,3.67131 2.54636,-4.19916 0.00416536,-0.00759217 0.0034929,-0.00792407 0.00279424,-0.00819655 0.00207463,-0.00840757 0.00133946,-0.00855553 0.000594243,-0.00863934 -0.000155428,-0.00865835 -0.000903934,-0.00861244 -0.00164566,-0.00850194 -0.00237505,-0.00832769 -0.00308662,-0.00809098 -0.00377505,-0.0077936 -0.00443517,-0.00743778 -0.00506203,-0.00702617 -0.00565093,-0.00656188 -0.00619745,-0.00604838 -0.00669749,-0.00548952 -0.00714731,-0.0048895 -0.00754354,-0.0042528 -0.00788319,-0.00358422 -0.00816372,-0.00288875 -0.00838304,-0.00217163 -0.00853948,-0.00143822 -0.00863189,-0.00069402 -0.00865957,5.5382e-05 -0.00862231,0.000804368 -0.00852039,0.00154732 -0.00835457,0.00227867 -0.00812611,0.00299294 -0.0078367,0.00368475 -0.00748852,0.00434894 -0.00708419,0.00498051 -0.00662673,0.00557474 -0.00611958,0.00612715 -3.42571,3.74073 2.58533,-4.36148 0.00405694,-0.00756695 0.00339289,-0.00788706 0.00270384,-0.00814903 0.00199485,-0.00835093 0.00127115,-0.00849127 0.000538091,-0.00856901 -0.00019894,-0.00858358 -0.000934504,-0.00853488 -0.00166318,-0.00842326 -0.00237959,-0.00824955 -0.00307847,-0.00801502 -0.00375465,-0.00772141 -0.00440315,-0.00737087 -0.00501919,-0.006966 -0.00559823,-0.00650978 -0.006136,-0.00600557 -0.00662854,-0.00545709 -0.00707222,-0.00486839 -0.00746376,-0.00424379 -0.00780028,-0.00358791 -0.0080793,-0.00290558 -0.00829876,-0.00220183 -0.00845704,-0.00148185 -0.00855298,-0.000750941 -0.00858588,-1.45007e-05 -0.00855547,0.000722047 -0.008462,0.00145327 -0.00830615,0.00217378 -0.00808907,0.00287827 -0.00781236,0.00356154 -0.00747805,0.00421855 -0.00708862,0.00484447 -0.00664694,0.00543467 -0.00615625,0.00598481 -3.51573,3.72448 2.60853,-4.39276 0.00401791,-0.00747079 0.0033703,-0.00778443 0.00269843,-0.00804206 0.00200716,-0.00824182 0.00130143,-0.00838227 0.000586349,-0.00846241 -0.000132955,-0.00848166 -0.000851303,-0.00843988 -0.00156353,-0.00833736 -0.0022645,-0.00817486 -0.00294917,-0.00795353 -0.00361263,-0.00767497 -0.00425009,-0.00734118 -0.00485697,-0.00695457 -0.0054289,-0.00651792 -0.00596177,-0.00603436 -0.00645173,-0.00550739 -0.00689528,-0.00494079 -0.0072892,-0.00433863 -0.00763068,-0.00370526 -0.00791725,-0.00304522 -0.00814685,-0.00236327 -0.00831783,-0.00166432 -0.00842895,-0.000953389 -0.00847943,-0.000235599 -0.00846889,0.000483886 -0.00839741,0.00119989 -0.00826551,0.00190726 -0.00807413,0.0026009 -0.00782465,0.00327583 -0.00751887,0.00392719 -0.00715898,0.00455029 -0.00674759,0.00514065 -0.00628764,0.00569402 -0.00578244,0.00620641 -3.21918,3.76334 2.47842,-4.29858 0.00396438,-0.00761338 0.00329687,-0.00792531 0.00260506,-0.00817885 0.00189407,-0.00837212 0.00116911,-0.00850371 0.000435544,-0.00857264 -0.000301233,-0.00857841 -0.00103579,-0.00852098 -0.00176272,-0.00840076 -0.00247665,-0.00821864 -0.00317234,-0.00797597 -0.00384466,-0.00767454 -0.00448865,-0.00731655 -0.00509956,-0.00690466 -0.00567291,-0.0064419 -0.00620445,-0.00593167 -0.00669028,-0.00537774 -0.00712682,-0.00478418 -0.00751085,-0.00415537 -0.00783953,-0.00349595 -0.00811046,-0.00281077 -0.00832162,-0.00210488 -0.00847148,-0.00138348 -0.00855891,-0.000651887 -0.00858329,8.45089e-05 -0.00854442,0.000820282 -0.00844259,0.00155001 -0.00827857,0.00226832 -0.00805354,0.00296992 -0.00776918,0.00364963 -0.00742757,0.00430245 -0.00703124,0.00492358 -0.0065831,0.00550842 -0.00608646,0.00605268 -3.42829,3.71525 2.60325,-4.33242 0.00412013,-0.00757935 0.00345155,-0.00790625 0.00275728,-0.00817431 0.0020425,-0.00838154 0.00131251,-0.00852639 0.000572756,-0.00860778 -0.000171262,-0.00862512 -0.000914006,-0.00857826 -0.00164995,-0.00846756 -0.00237361,-0.00829385 -0.00307961,-0.00805841 -0.00376268,-0.007763 -0.00441776,-0.00740982 -0.00503996,-0.00700149 -0.00562465,-0.00654105 -0.00616747,-0.00603193 -0.0066644,-0.00547793 -0.00711174,-0.00488315 -0.00750614,-0.00425204 -0.00784468,-0.00358928 -0.00812485,-0.0028998 -0.00834454,-0.00218875 -0.00850213,-0.00146141 -0.00859645,-0.000723187 -0.00862679,2.04136e-05 -0.00859293,0.000763863 -0.00849512,0.00150163 -0.00833409,0.00222822 -0.00811103,0.00293822 -0.00782761,0.00362636 -0.00748593,0.00428751 -0.00708855,0.00491675 -0.00663841,0.00550941 -0.00613886,0.00606105 -3.37974,3.63789 2.64582,-4.21233 0.00422848,-0.0074173 0.00358036,-0.00775097 0.00290614,-0.00802813 0.00221074,-0.00824676 0.00149922,-0.00840528 0.00077677,-0.00850253 4.86588e-05,-0.0085378 -0.000679807,-0.00851084 -0.00140332,-0.00842183 -0.0021166,-0.00827143 -0.00281445,-0.00806073 -0.00349178,-0.00779127 -0.00414366,-0.00746502 -0.00476534,-0.00708435 -0.00535228,-0.00665204 -0.0059002,-0.00617123 -0.00640511,-0.00564544 -0.00686333,-0.0050785 -0.00727152,-0.00447454 -0.0076267,-0.00383796 -0.00792629,-0.0031734 -0.00816809,-0.00248571 -0.00835036,-0.0017799 -0.00847175,-0.00106111 -0.00853138,-0.00033459 -0.00852883,0.00039437 -0.0084641,0.00112046 -0.00833768,0.00183837 -0.00815047,0.00254289 -0.00790385,0.00322887 -0.00759962,0.00389131 -0.00723998,0.00452539 -0.00682757,0.00512648 -0.00636539,0.00569019 -3.57126,3.47788 2.83804,-4.10634 0.00464149,-0.00738479 0.00398032,-0.00776116 0.00328887,-0.00807848 0.0025724,-0.00833434 0.00183636,-0.0085268 0.00108635,-0.00865439 0.000328075,-0.00871613 -0.000432697,-0.00871156 -0.00119018,-0.00864072 -0.0019386,-0.00850414 -0.00267228,-0.00830286 -0.00338563,-0.00803841 -0.00407321,-0.00771281 -0.00472981,-0.00732853 -0.00535043,-0.0068885 -0.00593034,-0.00639606 -0.00646514,-0.00585496 -0.00695075,-0.00526932 -0.00738347,-0.00464358 -0.00776003,-0.00398252 -0.00807755,-0.00329116 -0.00833361,-0.00257477 -0.00852628,-0.00183878 -0.00865408,-0.00108881 -0.00871604,-0.000330548 -0.00871169,0.000430225 -0.00864106,0.00118772 -0.00850469,0.00193619 -0.00830362,0.00266992 -0.00803937,0.00338334 -0.00771397,0.00407103 -0.00732988,0.00472773 -0.00689002,0.00534848 -0.00639774,0.00592853 -3.5987,3.63907 2.72757,-4.32079 0.00428515,-0.00748493 0.00362425,-0.00782634 0.0029364,-0.00810952 0.0022267,-0.00833238 0.00150044,-0.00849326 0.000763013,-0.00859096 1.99135e-05,-0.00862475 -0.000723334,-0.00859439 -0.0014612,-0.0085001 -0.0021882,-0.00834257 -0.00289892,-0.00812299 -0.00358807,-0.00784299 -0.00425054,-0.00750464 -0.00488139,-0.00711047 -0.00547592,-0.00666341 -0.00602973,-0.00616678 -0.00653868,-0.00562427 -0.00699899,-0.00503993 -0.00740723,-0.0044181 -0.00776038,-0.00376341 -0.0080558,-0.00308072 -0.0082913,-0.00237511 -0.00846512,-0.00165184 -0.00857597,-0.000916277 -0.00862302,-0.000173899 -0.00860593,0.000569772 -0.00852483,0.0013092 -0.00838031,0.0020389 -0.00817346,0.00275343 -0.0079058,0.00344747 -0.00757934,0.00411587 -0.00719649,0.00475366 -0.00676011,0.00535608 -0.00627345,0.00591866 -3.40699,3.50406 2.75249,-4.05759 0.00454603,-0.00736928 0.0038915,-0.00773491 0.0032078,-0.00804255 0.00250005,-0.0082899 0.00177356,-0.00847509 0.00103376,-0.00859674 0.000286223,-0.00865394 -0.000463464,-0.00864626 -0.00120968,-0.00857376 -0.00194682,-0.00843697 -0.00266937,-0.00823694 -0.0033719,-0.00797514 -0.00404916,-0.00765356 -0.00469605,-0.0072746 -0.00530774,-0.00684109 -0.00587964,-0.0063563 -0.00640745,-0.00582385 -0.00688723,-0.00524774 -0.00731537,-0.00463228 -0.00768866,-0.0039821 -0.00800432,-0.00330206 -0.00825996,-0.00259726 -0.00845367,-0.00187299 -0.008584,-0.00113468 -0.00864998,-0.000387865 -0.00865111,0.000361861 -0.00858738,0.00110887 -0.00845926,0.00184757 -0.00826773,0.00257242 -0.00801421,0.00327798 -0.0077006,0.00395897 -0.00732926,0.00461027 -0.00690297,0.00522701 -0.00642493,0.00580456 -3.70667,3.65238 2.73509,-4.404 0.00425211,-0.00755965 0.00358105,-0.00789967 0.00288305,-0.00818027 0.00216336,-0.00839932 0.0014274,-0.00855519 0.000680698,-0.0086467 -7.11245e-05,-0.00867316 -0.000822412,-0.00863437 -0.00156751,-0.00853063 -0.00230082,-0.00836272 -0.00301682,-0.00813189 -0.00371012,-0.00783988 -0.00437552,-0.0074889 -0.00500799,-0.00708158 -0.0056028,-0.00662099 -0.00615545,-0.00611058 -0.0066618,-0.00555421 -0.00711803,-0.00495605 -0.00752071,-0.00432061 -0.00786682,-0.00365267 -0.00815374,-0.00295725 -0.00837932,-0.00223958 -0.00854187,-0.00150506 -0.00864016,-0.000759224 -0.00867345,-7.67257e-06 -0.00864149,0.000743936 -0.00854452,0.00148995 -0.00838327,0.00222475 -0.00815896,0.00294282 -0.00787327,0.00363875 -0.00752834,0.0043073 -0.00712678,0.00494345 -0.00667161,0.00554242 -0.00616625,0.00609968 -3.50545,3.78218 2.55233,-4.46118 0.00393233,-0.00761243 0.00326626,-0.0079211 0.00257621,-0.00817162 0.00186724,-0.00836216 0.00114457,-0.0084913 0.000413489,-0.00855811 -0.000320623,-0.0085621 -0.00105238,-0.00850322 -0.00177641,-0.00838192 -0.0024874,-0.00819909 -0.00318014,-0.00795607 -0.00384952,-0.00765464 -0.00449064,-0.00729701 -0.0050988,-0.00688582 -0.00566953,-0.00642407 -0.00619863,-0.00591517 -0.00668223,-0.00536284 -0.00711678,-0.00477114 -0.00749907,-0.00414441 -0.00782632,-0.00348726 -0.00809611,-0.00280451 -0.00830646,-0.00210117 -0.00845584,-0.00138241 -0.00854314,-0.000653494 -0.00856772,8.02169e-05 -0.00852941,0.000813339 -0.00842847,0.00154049 -0.00826567,0.00225633 -0.00804218,0.00295561 -0.00775965,0.00363319 -0.00742016,0.0042841 -0.00702619,0.00490356 -0.00658065,0.00548702 -0.00608679,0.00603019 -0.00554825,0.0065291 -3.31136,4.25338 1.87503,-4.98103 0.00269156,-0.00820948 0.00197293,-0.00841116 0.00123957,-0.00855006 0.000496951,-0.00862514 -0.000249373,-0.00863585 -0.000993836,-0.0085821 -0.00173088,-0.00846429 -0.00245501,-0.0082833 -0.00316081,-0.00804048 -0.00384302,-0.00773765 -0.00449654,-0.00737707 -0.0051165,-0.00696143 -0.00569828,-0.00649382 -0.00623752,-0.00597775 -0.0067302,-0.00541705 -0.00717265,-0.00481593 -0.00756156,-0.00417886 -0.00789404,-0.00351059 -0.00816759,-0.00281613 -0.00838018,-0.00210064 -0.00853022,-0.00136948 -0.00861659,-0.00062809 -0.00863864,0.000117985 -0.00859622,0.000863179 -0.00848963,0.00160193 -0.00831968,0.00232872 -0.00808763,0.00303814 -0.00779522,0.00372487 -0.00744462,0.00438381 -0.00703845,0.00501002 -0.00657975,0.00559884 -0.00607193,0.00614587 -0.0055188,0.00664702 -0.00492447,0.00709856 -0.00429339,0.00749712 -2.41267,4.66992 1.16097,-5.09465 0.00154007,-0.00839915 0.000817892,-0.00849992 8.97482e-05,-0.00853871 -0.00063905,-0.00851524 -0.00136319,-0.00842967 -0.00207739,-0.00828264 -0.00277644,-0.00807521 -0.00345524,-0.0078089 -0.00410885,-0.00748565 -0.0047325,-0.00710781 -0.00532164,-0.00667815 -0.00587198,-0.00619979 -0.0063795,-0.00567623 -0.00684051,-0.00511127 -0.00725163,-0.00450905 -0.00760987,-0.00387394 -0.00791263,-0.00321059 -0.00815769,-0.00252383 -0.00834327,-0.00181866 -0.008468,-0.00110023 -0.008531,-0.000373783 -0.00853178,0.000355393 -0.00847036,0.00108198 -0.00834717,0.00180067 -0.00816311,0.00250624 -0.00791953,0.00319353 -0.00761821,0.00385753 -0.00726133,0.00449341 -0.00685151,0.00509652 -0.00639172,0.00566246 -0.00588533,0.00618712 -0.00533603,0.00666667 -0.00474781,0.0070976 -0.00412498,0.00747677 -0.00347207,0.00780143 -1.92693,4.88064 0.656346,-5.17703 0.000714366,-0.00858474 -2.71235e-05,-0.00861437 -0.000768411,-0.00858007 -0.001504,-0.0084821 -0.00222842,-0.00832119 -0.00293631,-0.00809853 -0.00362241,-0.00781577 -0.00428163,-0.00747501 -0.00490907,-0.00707878 -0.00550008,-0.00663002 -0.00605028,-0.00613206 -0.00655559,-0.00558859 -0.00701224,-0.00500366 -0.00741686,-0.00438159 -0.00776644,-0.00372701 -0.00805838,-0.00304477 -0.00829053,-0.00233993 -0.00846115,-0.00161773 -0.00856898,-0.000883527 -0.00861323,-0.000142766 -0.00859356,0.000599054 -0.00851011,0.00133643 -0.00836352,0.00206389 -0.00815486,0.00277603 -0.00788569,0.00346757 -0.00755799,0.00413338 -0.00717422,0.00476851 -0.0067372,0.00536826 -0.00625019,0.00592818 -0.00571679,0.0064441 -0.00514097,0.0069122 -0.00452701,0.007329 -0.00387944,0.00769142 -0.00320309,0.00799677 -0.00250297,0.00824277 -1.3308,5.17461 -0.146242,-5.30062 -0.000610155,-0.00860951 -0.00135029,-0.00852483 -0.00208036,-0.00837664 -0.00279493,-0.00816604 -0.00348868,-0.00789462 -0.00415645,-0.00756438 -0.00479325,-0.00717779 -0.00539434,-0.00673773 -0.00595524,-0.00624748 -0.00647178,-0.00571068 -0.00694011,-0.00513135 -0.00735674,-0.00451378 -0.00771857,-0.00386259 -0.00802289,-0.00318263 -0.00826745,-0.00247896 -0.00845042,-0.00175682 -0.00857043,-0.00102159 -0.0086266,-0.00027875 -0.0086185,0.000466166 -0.0085462,0.00120761 -0.00841024,0.00194005 -0.00821162,0.00265805 -0.00795183,0.00335624 -0.0076328,0.00402943 -0.00725691,0.0046726 -0.00682696,0.00528097 -0.00634615,0.00584999 -0.00581806,0.00637543 -0.00524663,0.00685338 -0.00463612,0.00728027 -0.00399107,0.00765293 -0.00331628,0.00796857 -0.0026168,0.00822486 -0.00189782,0.00841987 -0.0011647,0.00855216 -0.497908,5.38583 -1.13835,-5.22623 -0.00219814,-0.00834302 -0.0029091,-0.00812249 -0.00359841,-0.00784151 -0.00426093,-0.00750215 -0.00489174,-0.00710695 -0.00548613,-0.00665884 -0.00603968,-0.00616117 -0.00654828,-0.00561764 -0.00700813,-0.00503229 -0.00741581,-0.00440948 -0.0077683,-0.00375384 -0.00806295,-0.00307027 -0.00829759,-0.00236384 -0.00847047,-0.00163981 -0.00858029,-0.000903582 -0.00862624,-0.000160624 -0.00860798,0.00058353 -0.00852564,0.00132334 -0.00837984,0.0020533 -0.00817166,0.00276797 -0.00790266,0.00346205 -0.00757483,0.00413035 -0.00719061,0.0047679 -0.00675287,0.00536996 -0.00626486,0.00593205 -0.00573022,0.00644999 -0.00515292,0.00691991 -0.00453727,0.00733832 -0.00388784,0.00770211 -0.00320947,0.00800856 -0.00250721,0.0082554 -0.00178629,0.00844079 -0.00105207,0.00856335 -0.000310019,0.00862216 0.000434339,0.00861679 0.50654,5.40084 -2.13516,-4.89361 -0.00382811,-0.00782493 -0.00449458,-0.00746209 -0.00512694,-0.00704262 -0.0057204,-0.0065697 -0.00627045,-0.00604694 -0.00677291,-0.00547829 -0.00722399,-0.00486806 -0.00762024,-0.0042209 -0.00795866,-0.0035417 -0.0082367,-0.00283563 -0.00845223,-0.00210804 -0.00860362,-0.00136446 -0.00868972,-0.000610519 -0.00870988,0.000148053 -0.00866395,0.000905501 -0.00855227,0.00165608 -0.0083757,0.00239409 -0.00813557,0.00311393 -0.0078337,0.00381015 -0.00747238,0.00447745 -0.00705436,0.00511077 -0.00658281,0.00570531 -0.00606131,0.00625656 -0.00549381,0.00676033 -0.00488463,0.0072128 -0.00423837,0.00761053 -0.00355995,0.00795052 -0.00285452,0.00823017 -0.00212743,0.00844737 -0.0013842,0.00860046 -0.000630457,0.0086883 0.000128067,0.0087102 0.000885619,0.00866601 0.00163645,0.00855605 0.00237486,0.00838117 1.68798,5.09896 -3.05655,-4.33938 -0.00527288,-0.00683844 -0.00584319,-0.00635804 -0.00636992,-0.00583023 -0.00684916,-0.00525895 -0.00727732,-0.00464845 -0.00765122,-0.00400329 -0.00796807,-0.00332828 -0.0082255,-0.00262845 -0.00842159,-0.00190902 -0.00855489,-0.00117536 -0.00862439,-0.000432927 -0.00862959,0.00031273 -0.00857043,0.00105606 -0.00844737,0.00179151 -0.00826132,0.0025136 -0.00801366,0.00321695 -0.00770625,0.00389631 -0.00734138,0.00454661 -0.00692176,0.00516302 -0.00645053,0.00574092 -0.0059312,0.00627602 -0.00536764,0.00676432 -0.00476406,0.00720217 -0.00412495,0.00758632 -0.00345508,0.00791391 -0.00275945,0.00818248 -0.00204325,0.00839004 -0.0013118,0.00853503 -0.00057058,0.00861638 0.000174899,0.00863348 0.000919075,0.0085862 0.0016564,0.0084749 0.00238137,0.0083004 0.00308858,0.00806401 0.00377276,0.00776748 2.47961,4.58957 -3.48711,-3.85022 -0.0060858,-0.00616094 -0.00659602,-0.00561131 -0.00705676,-0.00501959 -0.00746459,-0.00439024 -0.00781643,-0.00372795 -0.00810966,-0.00303771 -0.00834206,-0.00232469 -0.00851191,-0.00159424 -0.00861792,-0.000851825 -0.00865931,-0.000103025 -0.00863575,0.000646547 -0.00854743,0.00139127 -0.00839501,0.00212556 -0.00817963,0.00284391 -0.00790291,0.00354093 -0.00756692,0.0042114 -0.00717419,0.00485028 -0.00672765,0.00545279 -0.00623066,0.00601441 -0.00568694,0.00653092 -0.00510058,0.00699845 -0.00447596,0.0074135 -0.00381777,0.00777295 -0.00313096,0.00807411 -0.00242066,0.00831472 -0.00169221,0.00849297 -0.000951073,0.00860754 -0.0002028,0.00865754 0.000546994,0.00864263 0.00129269,0.0085629 0.00202868,0.00841895 0.00274947,0.00821186 0.00344963,0.00794319 0.00412392,0.00761495 0.00476729,0.0072296 3.11607,4.30737 -4.12626,-3.31743 -0.00688054,-0.00506359 -0.00728762,-0.00445785 -0.00764151,-0.00381957 -0.00793963,-0.00315342 -0.00817981,-0.00246426 -0.00836029,-0.00175711 -0.00847975,-0.00103713 -0.00853733,-0.000309587 -0.0085326,0.000420216 -0.0084656,0.00114695 -0.00833681,0.00186532 -0.00814718,0.00257007 -0.00789809,0.00325607 -0.00759136,0.0039183 -0.00722923,0.00455193 -0.00681433,0.00515235 -0.00634971,0.00571516 -0.00583874,0.00623626 -0.00528516,0.00671185 -0.00469301,0.00713845 -0.00406661,0.00751296 -0.00341052,0.00783264 -0.00272955,0.00809515 -0.00202866,0.00829858 -0.00131296,0.00844144 -0.000587681,0.0085227 0.000141889,0.00854176 0.000870423,0.00849848 0.0015926,0.00839318 0.00230316,0.00822662 0.00299691,0.00800002 0.00366879,0.00771504 0.00431389,0.00737375 0.00492751,0.00697865 3.13376,4.0585 -3.94397,-3.25076 -0.0068426,-0.00516377 -0.00725971,-0.00455876 -0.00762347,-0.00392026 -0.00793121,-0.00325294 -0.00818067,-0.00256172 -0.00837001,-0.00185167 -0.00849784,-0.00112802 -0.00856323,-0.000396077 -0.00856568,0.000338776 -0.0085052,0.00107114 -0.00838221,0.00179563 -0.00819762,0.00250693 -0.0079528,0.0031998 -0.00764953,0.00386916 -0.00729005,0.00451009 -0.00687699,0.00511788 -0.00641341,0.00568805 -0.00590269,0.00621643 -0.00534859,0.00669912 -0.00475519,0.00713259 -0.00412685,0.00751364 -0.00346818,0.00783948 -0.00278403,0.00810771 -0.00207941,0.00831636 -0.00135952,0.00846389 -0.000629632,0.00854923 0.00010488,0.00857174 0.000838622,0.00853126 0.0015662,0.00842809 0.00228227,0.00826299 0.00298157,0.00803716 0.00365896,0.00775227 0.00430946,0.00741042 0.00492829,0.00701411 0.0055109,0.00656625 3.59693,3.93052 -4.49269,-2.76359 -0.00746622,-0.00416369 -0.00779456,-0.00351079 -0.00806593,-0.00283224 -0.00827836,-0.00213298 -0.00843028,-0.00141814 -0.0085206,-0.000692937 -0.00854865,3.73321e-05 -0.00851422,0.000767329 -0.00841758,0.00149172 -0.00825941,0.00220521 -0.00804089,0.00290258 -0.0077636,0.00357874 -0.00742957,0.00422874 -0.00704125,0.00484784 -0.00660147,0.00543152 -0.00611345,0.0059755 -0.00558075,0.00647581 -0.00500726,0.00692879 -0.00439718,0.00733114 -0.00375497,0.00767991 -0.00308531,0.00797255 -0.00239311,0.00820694 -0.00168342,0.00838134 -0.000961423,0.0084945 -0.000232402,0.00854557 0.000498317,0.00853419 0.00122539,0.00846045 0.00194352,0.00832487 0.00264744,0.00812846 0.00333201,0.00787264 0.00399223,0.00755929 0.00462327,0.0071907 0.00522053,0.00676955 0.00577964,0.00629894 0.0062965,0.00578228 3.8601,3.25194 -4.43558,-2.40855 -0.00765427,-0.00374326 -0.00794515,-0.00307807 -0.00817834,-0.00239054 -0.00835215,-0.00168566 -0.00846533,-0.000968537 -0.00851705,-0.000244383 -0.00850694,0.000481545 -0.00843506,0.00120398 -0.00830195,0.00191767 -0.00810857,0.00261744 -0.00785632,0.0032982 -0.00754703,0.00395503 -0.00718295,0.00458313 -0.00676672,0.00517797 -0.00630137,0.00573521 -0.00579026,0.00625082 -0.00523712,0.00672104 -0.00464596,0.00714247 -0.00402107,0.00751205 -0.00336699,0.00782708 -0.00268846,0.0080853 -0.00199042,0.00828481 -0.00127792,0.00842418 -0.000556145,0.00850239 0.000169666,0.00851887 0.000894246,0.0084735 0.00161233,0.00836662 0.00231872,0.00819899 0.00300826,0.00797184 0.00367597,0.00768681 0.00431699,0.00734598 0.00492667,0.00695182 0.00550058,0.00650718 0.00603456,0.00601531 0.00652473,0.00547976 4.17671,3.21456 -4.82765,-2.04838 -0.0081085,-0.00303337 -0.00834048,-0.00232068 -0.00850994,-0.0015906 -0.00861563,-0.000848596 -0.00865674,-0.000100233 -0.00863296,0.000648881 -0.00854449,0.00139313 -0.00839198,0.00212694 -0.00817656,0.00284481 -0.00789987,0.00354136 -0.00756397,0.00421136 -0.00717137,0.0048498 -0.00672503,0.00545189 -0.00622828,0.00601312 -0.00568485,0.00652929 -0.00509882,0.00699651 -0.00447457,0.0074113 -0.00381678,0.00777054 -0.00313039,0.00807154 -0.00242053,0.00831205 -0.00169254,0.00849026 -0.000951854,0.00860483 -0.000204038,0.00865491 0.000545308,0.00864013 0.00129057,0.00856058 0.00202615,0.00841688 0.00274655,0.00821009 0.00344637,0.00794177 0.00412035,0.00761392 0.00476345,0.00722901 0.00537085,0.00678992 0.005938,0.00629994 0.00646064,0.00576274 0.00693486,0.00518235 4.21042,2.87102 -4.7167,-1.91059 -0.00821517,-0.00291771 -0.00843807,-0.00219111 -0.00859684,-0.00144786 -0.00869027,-0.000693606 -0.00871766,6.59205e-05 -0.00867879,0.000824946 -0.00857396,0.0015777 -0.00840397,0.00231847 -0.0081701,0.00304161 -0.00787414,0.00374164 -0.00751834,0.00441323 -0.00710539,0.00505127 -0.00663844,0.00565093 -0.00612104,0.00620764 -0.00555712,0.00671717 -0.00495096,0.00717565 -0.00430718,0.00757959 -0.00363065,0.00792593 -0.00292654,0.00821202 -0.00220018,0.00843571 -0.0014571,0.00859528 -0.000702947,0.00868952 5.65488e-05,0.00871773 0.000815615,0.00867967 0.00156848,0.00857565 0.00230943,0.00840646 0.00303282,0.00817337 0.00373317,0.00787816 0.00440514,0.00752308 0.00504363,0.00711082 0.00564379,0.00664452 0.00620106,0.00612771 0.00671119,0.00556434 0.00717032,0.00495867 4.25018,2.67314 -4.69251,-1.79512 -0.00812422,-0.00271511 -0.00832677,-0.00200988 -0.00846823,-0.00128989 -0.00854755,-0.000560447 -0.00856415,0.000173112 -0.00851792,0.000905401 -0.00840919,0.00163105 -0.00823875,0.00234472 -0.00800786,0.0030412 -0.00771821,0.00371536 -0.00737194,0.00436225 -0.00697157,0.00497714 -0.00652004,0.00555551 -0.00602068,0.00609312 -0.00547714,0.00658602 -0.00489341,0.00703059 -0.00427378,0.00742358 -0.00362279,0.0077621 -0.00294521,0.00804366 -0.00224603,0.0082662 -0.00153036,0.00842809 -0.000803466,0.00852814 -7.06767e-05,0.00856561 0.000662631,0.00854024 0.00139108,0.0084522 0.00210932,0.00830214 0.00281208,0.00809116 0.00349421,0.00782082 0.0041507,0.00749309 0.00477673,0.00711038 0.00536772,0.0066755 0.00591932,0.00619164 0.00642748,0.00566235 0.00688849,0.00509151 4.07283,2.74867 -4.5101,-1.9838 -0.00793165,-0.00309291 -0.00816598,-0.00240706 -0.00834113,-0.00170377 -0.00845581,-0.000988132 -0.00850922,-0.00026533 -0.00850095,0.000459395 -0.00843107,0.00118079 -0.00830008,0.00189363 -0.00810894,0.00259274 -0.00785903,0.00327306 -0.00755215,0.00392966 -0.00719054,0.00455778 -0.00677681,0.00515286 -0.00631397,0.0057106 -0.00580537,0.00622695 -0.00525469,0.00669817 -0.00466592,0.00712084 -0.00404334,0.0074919 -0.00339146,0.00780866 -0.00271499,0.00806883 -0.00201884,0.00827052 -0.00130807,0.00841226 -0.00058781,0.00849304 0.000136707,0.00851226 0.000860233,0.00846978 0.00157753,0.00836592 0.00228338,0.00820142 0.00297269,0.00797749 0.00364046,0.00769573 0.00428183,0.0073582 0.00489218,0.00696734 0.00546707,0.00652598 0.00600233,0.00603732 0.00649409,0.0055049 3.74966,2.91353 -4.18647,-2.30101 -0.007681,-0.0038026 -0.0079784,-0.00313092 -0.00821719,-0.00243624 -0.00839562,-0.00172367 -0.00851238,-0.00099843 -0.00856661,-0.00026586 -0.00855791,0.000468663 -0.00848635,0.00119974 -0.00835244,0.00192201 -0.00815719,0.00263016 -0.00790201,0.00331899 -0.00758879,0.00398344 -0.00721982,0.00461862 -0.00679782,0.00521988 -0.00632588,0.0057828 -0.00580747,0.00630323 -0.0052464,0.00677737 -0.0046468,0.00720172 -0.00401306,0.00757317 -0.00334984,0.00788898 -0.00266201,0.00814685 -0.00195463,0.00834487 -0.00123289,0.00848159 -0.000502097,0.00855601 0.000232387,0.00856758 0.000965163,0.00851622 0.00169085,0.00840229 0.00240412,0.00822665 0.00309972,0.00799057 0.00377256,0.0076958 0.00441768,0.00734449 0.00503035,0.00693924 0.00560608,0.00648301 0.00614062,0.00597915 3.64954,3.26085 -4.17725,-2.57852 -0.0073986,-0.00414442 -0.00772314,-0.00350266 -0.00799214,-0.0028357 -0.00820366,-0.00214836 -0.00835619,-0.00144556 -0.00844862,-0.000732374 -0.00848029,-1.39161e-05 -0.00845098,0.000704642 -0.00836089,0.00141813 -0.00821067,0.00212142 -0.0080014,0.00280946 -0.0077346,0.00347729 -0.00741217,0.00412011 -0.00703643,0.00473331 -0.00661009,0.00531246 -0.00613621,0.00585341 -0.00561821,0.00635226 -0.0050598,0.00680544 -0.004465,0.00720967 -0.0038381,0.00756205 -0.00318359,0.00786004 -0.00250619,0.00810152 -0.00181076,0.00828473 -0.00110231,0.00840836 -0.000385933,0.00847152 0.000333219,0.00847375 0.00104997,0.00841505 0.00175918,0.00829583 0.00245573,0.00811695 0.00313463,0.0078797 0.00379098,0.00758578 0.00442006,0.00723731 0.00501736,0.00683678 0.00557858,0.0063871 2.91396,3.06375 -3.27707,-2.74921 -0.00686721,-0.00527188 -0.00729745,-0.00465816 -0.007673,-0.00400952 -0.00799105,-0.00333083 -0.00824919,-0.00262718 -0.00844551,-0.00190383 -0.00857853,-0.00116622 -0.00864725,-0.000419865 -0.00865116,0.000329638 -0.00859023,0.00107667 -0.00846491,0.00181563 -0.00827615,0.00254098 -0.00802536,0.00324729 -0.00771441,0.00392926 -0.00734565,0.00458178 -0.00692183,0.00519996 -0.00644612,0.00577916 -0.00592211,0.00631505 -0.00535371,0.00680361 -0.00474518,0.00724117 -0.00410108,0.00762446 -0.00342625,0.0079506 -0.00272573,0.00821716 -0.00200479,0.00842212 -0.00126882,0.00856396 -0.000523341,0.00864161 0.000226061,0.00865449 0.000973768,0.0086025 0.00171418,0.00848604 0.00244174,0.00830597 0.003151,0.00806365 0.00383664,0.00776089 0.00449353,0.00739996 2.23284,3.34185 -2.58645,-3.13821 -0.00578518,-0.00643107 -0.00631932,-0.00590704 -0.00680617,-0.00533882 -0.00724209,-0.00473064 -0.00762383,-0.00408707 -0.00794852,-0.00341291 -0.00821373,-0.00271322 -0.00841748,-0.00199323 -0.00855824,-0.00125832 -0.00863497,-0.000513993 -0.00864708,0.000234178 -0.00859449,0.000980597 -0.00847759,0.00171968 -0.00829726,0.00244589 -0.00805484,0.0031538 -0.00775215,0.00383812 -0.00739145,0.00449371 -0.00697544,0.00511568 -0.00650724,0.00569937 -0.00599034,0.00624041 -0.00542862,0.00673476 -0.00482629,0.00717871 -0.00418783,0.00756895 -0.00351805,0.00790255 -0.00282193,0.00817702 -0.0021047,0.0083903 -0.00137173,0.0085408 -0.000628484,0.00862739 0.00011946,0.00864943 0.000866511,0.00860675 0.00160708,0.00849966 0.00233562,0.00832897 0.00304668,0.00809596 1.92631,4.51589 -2.70696,-4.11281 -0.00499449,-0.00692535 -0.00556707,-0.00647404 -0.00609905,-0.00597553 -0.00658657,-0.00543346 -0.00702607,-0.00485177 -0.00741435,-0.00423471 -0.00774857,-0.00358678 -0.0080263,-0.0029127 -0.00824552,-0.00221738 -0.00840462,-0.0015059 -0.00850245,-0.000783442 -0.00853829,-5.52694e-05 -0.00851188,0.000673306 -0.00842341,0.00139697 -0.00827353,0.00211045 -0.00806334,0.00280855 -0.00779436,0.00348617 -0.00746855,0.00413837 -0.00708829,0.00476041 -0.00665636,0.00534773 -0.0061759,0.00589607 -0.00565041,0.00640143 -0.00508373,0.00686011 -0.00447998,0.00726878 -0.00384358,0.00762445 -0.00317915,0.00792454 -0.00249154,0.00816686 -0.00178577,0.00834964 -0.00106698,0.00847154 -0.00034041,0.00853168 0.000388641,0.00852962 0.00111486,0.00846537 0.00183295,0.00833941 0.00253767,0.00815264 1.63252,4.55029 -2.38413,-4.23013 -0.00447829,-0.00721188 -0.00507383,-0.00680607 -0.0056328,-0.0063512 -0.00615119,-0.00585057 -0.00662524,-0.00530777 -0.00705155,-0.00472673 -0.00742704,-0.00411162 -0.007749,-0.00346687 -0.00801513,-0.00279715 -0.00822349,-0.00210726 -0.00837258,-0.00140219 -0.00846134,-0.000687015 -0.00848912,3.31123e-05 -0.00845572,0.000753001 -0.00836139,0.00146746 -0.0082068,0.00217135 -0.00799306,0.00285959 -0.00772172,0.00352722 -0.00739474,0.00416943 -0.00701446,0.00478159 -0.00658363,0.0053593 -0.00610536,0.00589838 -0.00558309,0.00639495 -0.00502058,0.00684544 -0.00442189,0.0072466 -0.00379133,0.00759553 -0.00313345,0.00788972 -0.00245299,0.00812706 -0.00175486,0.00830583 -0.00104407,0.00842474 -0.000325762,0.00848293 0.000394894,0.00848 0.00111271,0.00841595 0.0018225,0.00829125 1.19802,4.52482 -1.87922,-4.3257 -0.00374705,-0.00770418 -0.00439272,-0.00735519 -0.00500615,-0.00695222 -0.00558283,-0.00649822 -0.00611854,-0.00599653 -0.00660934,-0.00545082 -0.00705164,-0.00486511 -0.00744217,-0.00424369 -0.00777809,-0.00359113 -0.00805692,-0.0029122 -0.00827661,-0.00221191 -0.00843556,-0.00149538 -0.0085326,-0.000767871 -0.00856701,-3.47299e-05 -0.00853854,0.000698666 -0.00844741,0.00142693 -0.00829427,0.00214473 -0.00808026,0.00284678 -0.00780695,0.00352795 -0.00747634,0.00418321 -0.00709085,0.00480778 -0.00665332,0.00539705 -0.00616696,0.00594672 -0.00563533,0.00645274 -0.00506235,0.0069114 -0.00445221,0.00731934 -0.00380939,0.00767355 -0.00313862,0.00797144 -0.00244481,0.00821083 -0.00173305,0.00838996 -0.00100858,0.0085075 -0.000276702,0.00856261 0.000457206,0.00855487 0.00118776,0.00848434 0.874626,4.75409 -1.66324,-4.56004 -0.00326032,-0.00787798 -0.00391953,-0.00757162 -0.00455025,-0.00721023 -0.0051479,-0.00679642 -0.00570812,-0.00633321 -0.00622685,-0.00582396 -0.00670032,-0.00527238 -0.00712508,-0.00468247 -0.00749804,-0.00405852 -0.0078165,-0.00340507 -0.00807814,-0.00272686 -0.00828106,-0.00202884 -0.00842379,-0.00131607 -0.00850527,-0.000593726 -0.00852494,0.00013293 -0.00848263,0.00085862 -0.00837866,0.00157807 -0.00821378,0.00228605 -0.0079892,0.0029774 -0.00770654,0.00364712 -0.00736786,0.00429032 -0.00697562,0.00490234 -0.00653267,0.00547872 -0.00604224,0.00601528 -0.00550788,0.0065081 -0.00493349,0.00695362 -0.00432323,0.00734859 -0.00368155,0.00769015 -0.00301311,0.0079758 -0.00232276,0.00820347 -0.00161553,0.00837152 -0.00089655,0.0084787 -0.000171056,0.00852426 0.00055568,0.00850784 0.492971,4.55256 -1.1254,-4.4728 -0.00241381,-0.00812224 -0.00309276,-0.00788873 -0.00374949,-0.00759859 -0.00437931,-0.00725389 -0.00497768,-0.00685711 -0.00554031,-0.0064111 -0.00606317,-0.00591906 -0.00654249,-0.00538452 -0.00697484,-0.00481132 -0.00735712,-0.00420358 -0.00768657,-0.00356565 -0.00796083,-0.00290213 -0.00817794,-0.00221777 -0.00833633,-0.00151749 -0.00843487,-0.000806308 -0.00847285,-8.93405e-05 -0.00845,0.000628268 -0.00836648,0.00134137 -0.00822289,0.00204483 -0.00802026,0.00273362 -0.00776005,0.00340278 -0.00744412,0.00404751 -0.00707475,0.00466317 -0.00665458,0.00524536 -0.00618663,0.00578989 -0.00567427,0.00629285 -0.00512116,0.00675062 -0.00453129,0.00715993 -0.00390888,0.00751784 -0.00325841,0.00782176 -0.00258455,0.00806953 -0.00189212,0.00825936 -0.00118612,0.0083899 -0.000471594,0.00846019 -0.0657118,4.9383 -0.839941,-4.8786 -0.00181837,-0.00838987 -0.00253125,-0.008203 -0.00322548,-0.00795567 -0.00389593,-0.00764972 -0.00453767,-0.00728738 -0.00514597,-0.00687135 -0.00571635,-0.00640467 -0.0062446,-0.00589079 -0.00672682,-0.0053335 -0.00715948,-0.00473691 -0.00753937,-0.0041054 -0.0078637,-0.00344364 -0.00813008,-0.0027565 -0.00833654,-0.00204905 -0.00848156,-0.00132649 -0.00856408,-0.000594165 -0.00858348,0.000142544 -0.00853962,0.000878203 -0.00843284,0.00160739 -0.0082639,0.00232473 -0.00803406,0.00302494 -0.00774502,0.00370285 -0.0073989,0.00435348 -0.00699824,0.00497202 -0.00654602,0.00555392 -0.00604555,0.00609489 -0.00550053,0.00659095 -0.00491497,0.00703843 -0.00429319,0.00743404 -0.00363978,0.00777486 -0.00295953,0.00805839 -0.00225748,0.00828252 -0.00153879,0.00844562 -0.000808761,0.00854648 -0.255508,4.96529 -0.68602,-4.93275 -0.00155646,-0.00848829 -0.0022825,-0.00832249 -0.00299155,-0.00809471 -0.00367832,-0.00780664 -0.00433769,-0.00746043 -0.00496476,-0.00705867 -0.00555486,-0.00660433 -0.00610358,-0.00610081 -0.00660685,-0.00555186 -0.00706092,-0.00496156 -0.0074624,-0.0043343 -0.00780831,-0.00367477 -0.00809606,-0.00298788 -0.00832353,-0.00227872 -0.008489,-0.0015526 -0.00859125,-0.00081492 -0.00862952,-7.11674e-05 -0.00860352,0.000673115 -0.00851345,0.00141239 -0.00835998,0.00214114 -0.00814424,0.00285394 -0.00786786,0.00354549 -0.00753287,0.00421064 -0.00714179,0.00484443 -0.00669752,0.00544214 -0.00620337,0.00599932 -0.00566303,0.00651182 -0.0050805,0.00697583 -0.00446015,0.00738788 -0.00380657,0.00774491 -0.00312465,0.00804427 -0.00241945,0.00828371 -0.00169624,0.00846147 -0.000960398,0.00857621 -0.345372,5.04461 -0.687631,-5.00811 -0.00154882,-0.00852237 -0.00228052,-0.00835636 -0.00299511,-0.00812766 -0.00368723,-0.00783798 -0.00435168,-0.00748949 -0.00498348,-0.0070848 -0.00557789,-0.00662696 -0.00613045,-0.0061194 -0.00663702,-0.00556593 -0.00709379,-0.00497069 -0.00749733,-0.00433816 -0.00784462,-0.00367308 -0.00813305,-0.00298044 -0.00836046,-0.00226543 -0.00852515,-0.00153343 -0.00862587,-0.00078993 -0.00866187,-4.0499e-05 -0.00863288,0.000709236 -0.00853911,0.00145365 -0.00838128,0.00218716 -0.00816057,0.00290425 -0.00787862,0.00359956 -0.00753757,0.00426786 -0.00713996,0.00490414 -0.00668878,0.00550362 -0.00618741,0.00606181 -0.00563962,0.00657452 -0.00504951,0.00703789 -0.00442152,0.00744847 -0.00376036,0.00780316 -0.00307098,0.0080993 -0.00235856,0.00833467 -0.00162844,0.00850751 -0.000886107,0.00861652 -0.303369,5.12243 -0.82518,-5.05266 -0.00177827,-0.00853216 -0.00251443,-0.00834491 -0.00323149,-0.00809428 -0.003924,-0.00778217 -0.00458671,-0.00741094 -0.00521457,-0.00698342 -0.00580283,-0.00650285 -0.00634701,-0.00597289 -0.00684298,-0.00539755 -0.00728696,-0.00478122 -0.0076756,-0.00412857 -0.00800593,-0.00344456 -0.00827545,-0.00273438 -0.00848211,-0.00200344 -0.00862434,-0.00125727 -0.00870105,-0.000501557 -0.00871168,0.000257967 -0.00865613,0.00101553 -0.00853483,0.00176538 -0.0083487,0.00250183 -0.00809915,0.00321926 -0.00778808,0.00391225 -0.00741786,0.00457551 -0.00699128,0.00520402 -0.0065116,0.00579301 -0.00598246,0.00633798 -0.00540788,0.00683482 -0.00479222,0.00727974 -0.00414015,0.00766936 -0.00345664,0.00800072 -0.00274687,0.00827131 -0.00201624,0.00847907 -0.00127029,0.00862243 -0.000514693,0.00870029 -0.0799702,5.15962 -1.08137,-5.03002 -0.00213934,-0.00823072 -0.00283093,-0.00801918 -0.00350205,-0.00774966 -0.00414783,-0.00742408 -0.00476362,-0.00704481 -0.00534496,-0.0066146 -0.00588764,-0.00613654 -0.00638775,-0.00561411 -0.00684165,-0.00505107 -0.00724608,-0.0044515 -0.0075981,-0.00381974 -0.00789517,-0.00316036 -0.00813514,-0.00247812 -0.00831627,-0.00177795 -0.00843726,-0.00106493 -0.00849724,-0.000344206 -0.00849575,0.000379007 -0.00843283,0.00109948 -0.00830892,0.001812 -0.00812492,0.00251142 -0.00788215,0.00319267 -0.00758239,0.00385083 -0.00722778,0.00448115 -0.0068209,0.00507905 -0.0063647,0.00564023 -0.00586246,0.00616061 -0.00531782,0.00663643 -0.00473473,0.00706427 -0.00411739,0.00744101 -0.00347028,0.00776394 -0.00279806,0.00803071 -0.00210561,0.00823941 -0.00139794,0.00838852 -0.000680151,0.00847696 4.2555e-05,0.0085041 0.247348,5.19925 -1.45781,-4.976 -0.00274033,-0.00806374 -0.00341652,-0.00780133 -0.00406794,-0.00748232 -0.00468986,-0.00710905 -0.00527775,-0.00668421 -0.00582736,-0.00621089 -0.00633471,-0.00569252 -0.00679611,-0.00513286 -0.00720821,-0.00453597 -0.00756803,-0.00390618 -0.00787296,-0.00324805 -0.00812078,-0.00256637 -0.0083097,-0.00186607 -0.00843835,-0.00115223 -0.00850579,-0.000430043 -0.00851153,0.000295268 -0.00845554,0.00101844 -0.00833821,0.00173422 -0.00816041,0.00243742 -0.00792342,0.00312295 -0.00762895,0.00378582 -0.00727915,0.00442123 -0.00687656,0.00502457 -0.00642408,0.00559147 -0.00592501,0.00611781 -0.00538296,0.00659978 -0.00480187,0.00703388 -0.00418594,0.00741695 -0.00353966,0.00774623 -0.0028677,0.00801933 -0.00217494,0.00823426 -0.00146641,0.00838946 -0.000747237,0.00848381 -2.26466e-05,0.00851662 0.000702109,0.00848766 0.652193,5.18492 -1.86991,-4.85658 -0.00347514,-0.00797307 -0.0041548,-0.00764095 -0.00480303,-0.00725103 -0.00541492,-0.00680625 -0.00598586,-0.00630999 -0.00651151,-0.005766 -0.0069879,-0.00517839 -0.00741144,-0.0045516 -0.00777891,-0.00389039 -0.00808753,-0.00319974 -0.00833497,-0.00248489 -0.00851937,-0.00175124 -0.00863931,-0.00100435 -0.00869391,-0.000249858 -0.00868274,0.000506524 -0.00860588,0.00125907 -0.00846393,0.0020021 -0.00825795,0.00272998 -0.0079895,0.00343721 -0.00766061,0.00411844 -0.00727377,0.00476851 -0.00683191,0.00538251 -0.00633837,0.0059558 -0.00579688,0.00648403 -0.00521154,0.00696321 -0.00458678,0.00738972 -0.00392731,0.00776033 -0.00323814,0.00807223 -0.00252448,0.00832307 -0.00179172,0.00851095 -0.0010454,0.00863444 -0.000291176,0.00869262 0.000465251,0.00868505 0.00121816,0.00861177 0.957657,5.14517 -2.17726,-4.72544 -0.00389889,-0.00759175 -0.00453201,-0.00723166 -0.00513213,-0.00681889 -0.00569486,-0.00635646 -0.00621611,-0.00584774 -0.00669209,-0.00529641 -0.00711932,-0.00470652 -0.0074947,-0.00408234 -0.00781549,-0.00342843 -0.00807936,-0.00274954 -0.00828438,-0.00205063 -0.00842906,-0.00133679 -0.00851234,-0.000613203 -0.00853363,0.000114846 -0.00849276,0.000842059 -0.00839003,0.00156314 -0.00822619,0.00227283 -0.00800244,0.00296597 -0.0077204,0.00363751 -0.00738213,0.00428255 -0.00699008,0.0048964 -0.00654713,0.00547459 -0.00605649,0.0060129 -0.00552173,0.00650742 -0.00494676,0.00695454 -0.00433576,0.007351 -0.00369318,0.00769392 -0.00302369,0.00798081 -0.00233219,0.00820956 -0.0016237,0.00837852 -0.000903377,0.00848646 -0.000176479,0.00853258 0.000551705,0.00851655 0.00127587,0.00843849 0.00199074,0.00829897 1.437,5.03303 -2.61049,-4.50309 -0.00458149,-0.00717988 -0.00517583,-0.00676398 -0.00573263,-0.00629902 -0.00624784,-0.00578836 -0.00671773,-0.00523572 -0.00713889,-0.00464509 -0.00750826,-0.00402077 -0.00782317,-0.00336728 -0.00808133,-0.00268937 -0.00828087,-0.00199194 -0.00842034,-0.00128007 -0.00849872,-0.000558911 -0.00851545,0.000166303 -0.00847042,0.000890309 -0.00836394,0.00160786 -0.00819678,0.00231374 -0.00797017,0.00300284 -0.00768574,0.00367016 -0.00734555,0.00431086 -0.00695208,0.00492028 -0.00650818,0.00549401 -0.00601707,0.00602789 -0.00548232,0.00651804 -0.00490779,0.00696091 -0.00429766,0.00735328 -0.00365636,0.00769231 -0.00298853,0.00797555 -0.00229902,0.00820092 -0.00159284,0.00836681 -0.000875099,0.008472 -0.000151012,0.00851574 0.00057417,0.0084977 0.00129519,0.00841802 0.00200681,0.00827728 0.00270387,0.00807649 1.84335,4.81456 -2.86589,-4.26883 -0.00502526,-0.00683917 -0.00558707,-0.00638844 -0.00610864,-0.00589169 -0.00658621,-0.0053525 -0.00701634,-0.00477477 -0.00739594,-0.00416264 -0.00772227,-0.00352053 -0.00799297,-0.00285306 -0.0082061,-0.00216504 -0.00836013,-0.00146142 -0.00845394,-0.000747283 -0.00848686,-2.77607e-05 -0.00845865,0.000691962 -0.00836951,0.0014067 -0.00822009,0.00211131 -0.00801146,0.0028007 -0.00774513,0.00346993 -0.00742301,0.00411416 -0.00704743,0.00472876 -0.00662109,0.0053093 -0.00614705,0.0058516 -0.00562874,0.00635175 -0.00506989,0.00680615 -0.00447452,0.00721153 -0.00384692,0.00756496 -0.00319161,0.00786391 -0.00251332,0.00810621 -0.00181692,0.00829013 -0.00110744,0.00841434 -0.000389974,0.00847794 0.000330296,0.00848047 0.00104819,0.00842192 0.00175853,0.00830271 0.0024562,0.0081237 0.00313619,0.00788618 2.10857,4.7096 -3.10104,-4.10853 -0.00549699,-0.00666358 -0.00605157,-0.00616431 -0.00656098,-0.00561905 -0.00702144,-0.00503186 -0.0074295,-0.00440712 -0.00778213,-0.00374949 -0.00807668,-0.00306388 -0.00831097,-0.00235541 -0.00848324,-0.00162937 -0.00859221,-0.000891167 -0.00863706,-0.000146314 -0.00861746,0.000599631 -0.00853356,0.0013411 -0.00838598,0.00207256 -0.00817583,0.00278856 -0.00790466,0.00348375 -0.00757451,0.00415294 -0.00718784,0.00479115 -0.00674754,0.0053936 -0.00625688,0.0059558 -0.00571954,0.00647357 -0.00513952,0.00694302 -0.00452114,0.00736067 -0.00386903,0.00772339 -0.00318805,0.00802848 -0.00248327,0.00827367 -0.00175997,0.00845711 -0.00102354,0.00857745 -0.000279464,0.00863378 0.000466694,0.00862568 0.00120937,0.00855322 0.00194302,0.00841694 0.00266217,0.00821785 0.00336146,0.00795744 2.15805,4.54973 -3.02184,-4.02976 -0.00547811,-0.00668298 -0.00603462,-0.00618509 -0.00654606,-0.00564102 -0.00700862,-0.00505482 -0.00741885,-0.00443088 -0.00777368,-0.00377385 -0.00807046,-0.00308864 -0.00830698,-0.00238037 -0.00848146,-0.00165432 -0.00859262,-0.000915919 -0.00863961,-0.000170679 -0.00862209,0.000575835 -0.00854018,0.00131805 -0.00839451,0.00205042 -0.00818615,0.00276748 -0.00791666,0.00346388 -0.00758806,0.00413441 -0.0072028,0.00477407 -0.00676375,0.00537808 -0.00627419,0.00594193 -0.00573779,0.00646141 -0.00515854,0.00693264 -0.00454077,0.0073521 -0.00388909,0.00771667 -0.00320837,0.00802361 -0.0025037,0.00827064 -0.00178032,0.00845591 -0.00104366,0.00857804 -0.000299202,0.00863611 0.000447491,0.0086297 0.00119084,0.00855885 0.0019253,0.00842409 0.00264538,0.00822642 0.00334571,0.00796732 2.57311,5.45447 0.00394408,0.00751628 0.0045673,0.00715472 0.0051576,0.00674161 0.00571075,0.00627993 0.00622276,0.005773 0.00668992,0.00522448 0.00710889,0.00463831 0.00747663,0.00401873 0.00779051,0.00337019 0.00804826,0.00269736 0.00824802,0.00200511 0.00838835,0.0012984 0.00846824,0.000582343 0.00848712,-0.000137912 0.00844485,-0.000857174 0.00834173,-0.00157026 0.00817851,-0.00227203 0.00795637,-0.00295743 0.0076769,-0.00362153 0.00734212,-0.00425953 0.00695443,-0.00486684 0.00651664,-0.00543908 0.0060319,-0.00597214 0.0055037,-0.00646216 0.00493584,-0.00690563 0.00433242,-0.00729934 0.00369779,-0.00764046 0.00303651,-0.00792653 0.00235335,-0.00815549 0.00165324,-0.00832568 0.00094122,-0.0084359 0.000222415,-0.00848533 -0.000497992,-0.00847362 -0.00121481,-0.00840086 -0.00192288,-0.00826757 -0.00261709,-0.00807472 -0.00329245,-0.00782368 -2.15345,-4.56488 3.02809,4.03809 0.00548225,0.00668761 0.00603952,0.00618897 0.00655163,0.00564405 0.00701475,0.00505692 0.00742541,0.00443198 0.00778054,0.0037739 0.00807749,0.0030876 0.00831404,0.00237821 0.00848842,0.00165103 0.00859932,0.000911508 0.00864592,0.00016517 0.00862786,-0.000582403 0.00854528,-0.00132562 0.00839881,-0.00205893 0.00818953,-0.00277684 0.007919,-0.00347398 0.00758926,-0.00414515 0.00720277,-0.00478531 0.00676242,-0.0053897 0.0062715,-0.00595378 0.00573368,-0.00647334 0.00515298,-0.00694449 0.00453375,-0.00736371 0.00388062,-0.00772787 0.00319847,-0.00803424 0.0024924,-0.00828053 0.00176769,-0.00846489 0.00102976,-0.00858596 0.000284136,-0.00864282 -0.000463615,-0.00863506 -0.0012079,-0.00856272 -0.00194315,-0.00842635 -0.00266387,-0.00822696 -0.00336467,-0.00796606 -2.16464,-4.56363 3.04327,4.032 0.00545383,0.0066156 0.00600047,0.00612411 0.006503,0.00558761 0.00695773,0.00501003 0.00736131,0.00439562 0.00771078,0.00374889 0.00800357,0.00307462 0.00823752,0.00237773 0.00841092,0.00166337 0.00852249,0.000936786 0.00857141,0.000203311 0.00855732,-0.000531657 0.00848033,-0.00126272 0.00834099,-0.0019845 0.00814034,-0.00269169 0.00787986,-0.00337909 0.00756144,-0.00404165 0.00718744,-0.00467451 0.00676061,-0.005273 0.00628408,-0.00583273 0.00576136,-0.00634958 0.00519628,-0.00681975 0.00459301,-0.0072398 0.00395597,-0.00760662 0.00328985,-0.00791753 0.00259955,-0.00817023 0.00189013,-0.00836288 0.00116683,-0.00849405 0.000434944,-0.00856278 -0.000300137,-0.00856856 -0.00103301,-0.00851136 -0.00175829,-0.00839159 -0.00247065,-0.00821013 -0.00316484,-0.00796832 -1.99051,-4.44592 2.70489,4.02902 0.00507975,0.00690704 0.00565274,0.00644652 0.00618417,0.00593862 0.00667014,0.00538705 0.00710708,0.00479589 0.00749177,0.00416947 0.00782139,0.0035124 0.00809351,0.00282952 0.00830614,0.00212583 0.00845771,0.00140651 0.0085471,0.000676855 0.00857367,-5.77766e-05 0.00853721,-0.000791983 0.00843799,-0.00152037 0.00827674,-0.00223758 0.00805465,-0.00293834 0.00777334,-0.00361749 0.0074349,-0.00427006 0.0070418,-0.00489124 0.00659693,-0.00547646 0.00610357,-0.00602142 0.00556534,-0.00652212 0.00498621,-0.00697488 0.00437041,-0.00737636 0.00372249,-0.00772361 0.00304721,-0.00801409 0.00234952,-0.00824566 0.00163456,-0.00841661 0.000907589,-0.00852569 0.000173944,-0.0085721 -0.00056098,-0.00855549 -0.00129178,-0.00847599 -0.00201308,-0.00833418 -0.00271959,-0.00813111 -1.71221,-4.47204 2.3874,4.11827 0.00457754,0.00717423 0.00517095,0.00675905 0.00572691,0.00629491 0.0062414,0.00578519 0.00671068,0.00523357 0.00713136,0.00464404 0.0075004,0.00402088 0.00781511,0.0033686 0.00807323,0.00269192 0.00827287,0.00199575 0.00841261,0.00128512 0.00849141,0.000565185 0.00850871,-0.000158843 0.0084644,-0.000881721 0.00835878,-0.00159821 0.00819262,-0.00230313 0.00796713,-0.00299137 0.00768394,-0.00365794 0.0073451,-0.00429802 0.00695306,-0.00490697 0.00651067,-0.00548039 0.00602113,-0.00601411 0.00548797,-0.00650428 0.00491507,-0.00694734 0.00430658,-0.00734008 0.00366689,-0.00767967 0.00300065,-0.00796364 0.00231268,-0.00818993 0.00160796,-0.00835691 0.000891589,-0.00846336 0.000168763,-0.00850852 -0.000555284,-0.00849206 -0.00127531,-0.0084141 -0.0019861,-0.0082752 -1.30128,-4.55765 1.96971,4.27499 0.00388621,0.00756945 0.00451563,0.00721168 0.00511235,0.00680169 0.00567206,0.00634247 0.0061907,0.00583732 0.00666453,0.00528992 0.0070901,0.00470421 0.00746434,0.00408445 0.00778455,0.00343511 0.00804839,0.00276091 0.00825396,0.00206672 0.00839977,0.00135756 0.00848477,0.000638576 0.00850834,-8.50323e-05 0.00847032,-0.000808024 0.00837096,-0.00152517 0.00821101,-0.00223127 0.0079916,-0.00292121 0.00771434,-0.00359001 0.00738122,-0.00423281 0.00699467,-0.00484497 0.00655747,-0.00542206 0.0060728,-0.00595988 0.00554417,-0.00645456 0.00497539,-0.00690251 0.00437059,-0.00730049 0.00373415,-0.0076456 0.00307068,-0.00793537 0.00238497,-0.00816769 0.001682,-0.00834087 0.000966845,-0.00845366 0.000244693,-0.00850525 -0.000479229,-0.00849526 -0.00119968,-0.00842377 -0.905759,-4.86633 1.77442,4.60856 0.00339923,0.00781738 0.00405266,0.00749947 0.00467665,0.00712707 0.00526665,0.00670288 0.00581838,0.00622998 0.00632782,0.00571181 0.00679129,0.00515214 0.00720541,0.00455503 0.00756717,0.00392481 0.00787394,0.00326608 0.00812349,0.00258361 0.00831401,0.00188237 0.00844412,0.00116745 0.00851287,0.000444053 0.00851976,-0.000282576 0.00846474,-0.00100715 0.00834821,-0.00172441 0.00817101,-0.00242914 0.00793444,-0.00311621 0.00764022,-0.00378064 0.00729047,-0.0044176 0.00688775,-0.00502246 0.00643498,-0.00559082 0.00593544,-0.00611855 0.00539278,-0.00660183 0.00481093,-0.00703713 0.00419412,-0.00742129 0.00354683,-0.00775153 0.00287377,-0.00802544 0.00217983,-0.00824103 0.00147004,-0.00839673 0.000749577,-0.00849143 2.36649e-05,-0.00852441 -0.00070242,-0.00849546 -0.598856,-4.76089 1.34251,4.58244 0.00274842,0.00808458 0.00342811,0.00782064 0.0040828,0.00749967 0.00470773,0.00712401 0.00529833,0.00669641 0.0058503,0.00621999 0.00635961,0.00569821 0.00682255,0.00513489 0.00723575,0.00453412 0.00759618,0.0039003 0.00790123,0.00323803 0.00814867,0.00255216 0.00833669,0.00184767 0.00846392,0.00112972 0.00852945,0.000403525 0.00853278,-0.000325611 0.00847389,-0.00105237 0.00835322,-0.00177146 0.00817164,-0.00247763 0.00793047,-0.00316574 0.00763148,-0.00383076 0.00727685,-0.00446785 0.00686916,-0.00507237 0.00641139,-0.00563989 0.00590686,-0.0061663 0.00535927,-0.00664775 0.0047726,-0.00708072 0.00415113,-0.00746207 0.00349939,-0.007789 0.00282214,-0.00805915 0.0021243,-0.00827053 0.00141098,-0.0084216 0.000687377,-0.00851127 -4.12428e-05,-0.00853889 -0.229442,-4.82287 1.01015,4.69873 0.00215832,0.00829268 0.00286034,0.00807746 0.00354135,0.00780293 0.00419637,0.0074711 0.00482057,0.00708442 0.00540937,0.00664572 0.00595846,0.00615822 0.00646379,0.0056255 0.00692166,0.00505148 0.00732871,0.00444036 0.00768195,0.00379664 0.00797878,0.00312505 0.00821702,0.0024305 0.00839493,0.00171812 0.0085112,0.000993112 0.00856498,0.000260815 0.00855586,-0.000473396 0.00848392,-0.00120413 0.00834969,-0.00192603 0.00815414,-0.00263378 0.00789873,-0.00332219 0.00758531,-0.00398621 0.0072162,-0.00462096 0.0067941,-0.00522178 0.00632212,-0.00578426 0.00580371,-0.00630426 0.00524269,-0.00677798 0.00464318,-0.00720192 0.00400957,-0.00757299 0.00334652,-0.00788845 0.0026589,-0.00814599 0.00195175,-0.00834371 0.00123027,-0.00848017 0.000499764,-0.00855436 0.0761226,-4.91137 0.78917,4.83217 0.0017467,0.0084077 0.00246158,0.00822684 0.00315831,0.00798532 0.00383175,0.00768492 0.00447693,0.00732785 0.0050891,0.00691674 0.00566375,0.00645463 0.00619663,0.00594492 0.00668381,0.00539138 0.00712171,0.00479807 0.00750709,0.00416939 0.00783712,0.00350996 0.00810935,0.00282465 0.00832179,0.00211851 0.00847286,0.00139675 0.00856145,0.000664688 0.00858691,-7.22756e-05 0.00854905,-0.000808706 0.00844815,-0.00153917 0.00828495,-0.00225829 0.00806066,-0.00296075 0.00777693,-0.00364139 0.00743585,-0.00429517 0.00703994,-0.00491727 0.00659211,-0.00550312 0.00609568,-0.00604839 0.0055543,-0.00654905 0.00497195,-0.00700143 0.00435295,-0.00740217 0.00370185,-0.00774833 0.00302344,-0.00803735 0.00232275,-0.00826711 0.00160492,-0.00843591 0.000875265,-0.00854249 0.296388,-5.00455 0.681361,4.96245 0.00154283,0.00849597 0.00227002,0.0083312 0.00298028,0.00810431 0.00366831,0.00781699 0.004329,0.00747139 0.00495741,0.00707007 0.00554885,0.00661605 0.00609892,0.00611269 0.00660352,0.00556376 0.00705888,0.00497334 0.0074616,0.00434584 0.0078087,0.00368593 0.00809757,0.00299854 0.00832606,0.0022888 0.00849247,0.00156199 0.00859556,0.000823531 0.00863456,7.89336e-05 0.00860918,-0.000666253 0.00851961,-0.00140647 0.00836651,-0.0021362 0.00815103,-0.00285001 0.00787478,-0.00354256 0.00753981,-0.0042087 0.00714862,-0.00484346 0.00670413,-0.0054421 0.00620965,-0.00600017 0.00566888,-0.0065135 0.00508583,-0.00697826 0.00446486,-0.007391 0.00381061,-0.00774862 0.00312794,-0.00804847 0.00242195,-0.00828831 0.0016979,-0.00846634 0.000961185,-0.00858126 0.345935,-5.05284 0.697979,5.01874 0.00156757,0.00853687 0.00230193,0.00836879 0.00301895,0.00813765 0.00371323,0.00784521 0.00437953,0.00749367 0.00501285,0.00708568 0.00560839,0.0066243 0.00616169,0.00611302 0.00666856,0.00555569 0.0071252,0.0049565 0.00752816,0.00431998 0.00787441,0.00365091 0.00816133,0.00295433 0.00838677,0.0022355 0.00854903,0.00149983 0.00864689,0.000752854 0.0086796,2.09913e-07 0.00864692,-0.000752436 0.00854911,-0.00149941 0.00838688,-0.00223509 0.00816148,-0.00295394 0.00787459,-0.00365053 0.00752837,-0.00431961 0.00712544,-0.00495616 0.00666883,-0.00555537 0.00616198,-0.00611273 0.00560871,-0.00662403 0.00501319,-0.00708544 0.0043799,-0.00749346 0.00371361,-0.00784503 0.00301934,-0.00813751 0.00230233,-0.00836867 0.00156798,-0.0085368 0.00082181,-0.00864061 0.263428,-5.11921 0.871754,5.06338 0.00184686,0.00849827 0.00257824,0.00830567 0.00329012,0.00805026 0.00397712,0.00773396 0.00463404,0.00735916 0.00525591,0.00692871 0.00583802,0.00644585 0.00637599,0.00591424 0.00686573,0.00533791 0.00730355,0.0047212 0.00768613,0.00406878 0.00801057,0.00338559 0.00827444,0.0026768 0.00847572,0.00194776 0.00861289,0.00120399 0.00868493,0.000451111 0.00869128,-0.000305178 0.0086319,-0.00105916 0.00850723,-0.00180513 0.00831823,-0.00253745 0.00806631,-0.00325057 0.00775338,-0.00393911 0.00738181,-0.00459786 0.00695442,-0.00522184 0.00647442,-0.00580632 0.00594546,-0.00634689 0.00537154,-0.00683945 0.00475698,-0.00728029 0.00410645,-0.00766607 0.00342486,-0.00799386 0.00271737,-0.0082612 0.00198933,-0.00846606 0.00124624,-0.00860688 0.000493727,-0.00868261 0.0699637,-5.25784 1.29008,5.12729 0.0024477,0.0082206 0.00314315,0.0079806 0.00381548,0.0076819 0.00445973,0.00732668 0.00507118,0.00691756 0.00564531,0.00645754 0.00617792,0.00595002 0.00666507,0.00539873 0.00710319,0.00480771 0.00748905,0.00418133 0.00781982,0.00352418 0.00809305,0.00284111 0.00830675,0.00213714 0.00845933,0.00141744 0.00854968,0.000687313 0.00857713,-4.78696e-05 0.00854148,-0.000782699 0.00844298,-0.00151177 0.00828238,-0.00222972 0.00806084,-0.00293127 0.00778,-0.00361125 0.00744192,-0.00426466 0.00704909,-0.0048867 0.0066044,-0.00547278 0.00611112,-0.00601861 0.00557288,-0.00652015 0.00499365,-0.00697373 0.00437767,-0.007376 0.00372949,-0.00772401 0.00305388,-0.00801519 0.00235579,-0.0082474 0.00164037,-0.00841894 0.00091289,-0.00852854 0.000178689,-0.0085754 -0.000556826,-0.00855917 -0.559456,-5.16654 1.78873,4.9041 0.00324682,0.00784893 0.00390119,0.00754508 0.00452742,0.00718679 0.00512098,0.00677666 0.00567759,0.00631763 0.00619325,0.00581302 0.00666422,0.00526647 0.0070871,0.00468193 0.00745886,0.00406361 0.0077768,0.00341597 0.00803864,0.00274368 0.00824248,0.0020516 0.00838685,0.00134472 0.00847071,0.000628132 0.00849346,-9.29846e-05 0.00845493,-0.00081343 0.0083554,-0.00152801 0.00819559,-0.00223156 0.00797665,-0.00291901 0.00770016,-0.00358541 0.00736811,-0.00422593 0.0069829,-0.00483597 0.00654732,-0.00541111 0.0060645,-0.00594722 0.00553792,-0.00644042 0.00497139,-0.00688715 0.00436899,-0.00728419 0.00373507,-0.00762868 0.00307421,-0.00791813 0.00239116,-0.00815045 0.00169086,-0.00832397 0.000978365,-0.00843744 0.000258809,-0.00849003 -0.000462614,-0.00848136 -0.0011807,-0.00841151 -0.931663,-5.06413 2.05779,4.73673 0.00373509,0.00768204 0.00437706,0.00733526 0.00498709,0.00693495 0.00556074,0.00648405 0.00609381,0.00598583 0.00658242,0.00544394 0.007023,0.00486233 0.00741233,0.00424523 0.00774758,0.00359717 0.00802631,0.00292285 0.00824647,0.00222721 0.00840645,0.00151532 0.00850511,0.000792377 0.0085417,6.36483e-05 0.00851597,-0.000665545 0.0084281,-0.00138988 0.00827874,-0.00210408 0.00806897,-0.00280292 0.00780033,-0.00348131 0.00747477,-0.0041343 0.00709468,-0.00475713 0.00666281,-0.00534524 0.00618233,-0.00589436 0.00565675,-0.00640046 0.00508989,-0.00685987 0.00448589,-0.00726922 0.00384915,-0.00762553 0.00318434,-0.0079262 0.00249629,-0.00816904 0.00179002,-0.00835228 0.0010707,-0.00847457 0.00034356,-0.00853502 -0.000386085,-0.00853321 -0.00111291,-0.00846913 -0.00183162,-0.00834325 -1.33624,-5.04686 2.58072,4.57893 0.00447945,0.00721359 0.00507527,0.00680757 0.0056345,0.00635246 0.00615311,0.00585155 0.00662735,0.00530845 0.0070538,0.00472707 0.0074294,0.00411162 0.00775143,0.00346651 0.00801757,0.00279642 0.0082259,0.00210616 0.00837493,0.00140071 0.00846356,0.000685167 0.00849118,-3.53173e-05 0.00845757,-0.000755547 0.00836298,-0.00147033 0.0082081,-0.00217451 0.00799403,-0.00286301 0.00772233,-0.00353087 0.00739494,-0.00417328 0.00701424,-0.00478559 0.00658296,-0.0053634 0.00610422,-0.00590253 0.00558147,-0.00639911 0.00501847,-0.00684955 0.00441929,-0.0072506 0.00378825,-0.00759938 0.00312989,-0.00789336 0.00244896,-0.00813043 0.00175038,-0.00830888 0.00103918,-0.00842742 0.000320485,-0.0084852 -0.000400521,-0.0084818 -0.00111864,-0.00841725 -0.00182869,-0.008292 -0.00252556,-0.00810697 -1.7489,-4.87467 2.85937,4.34439 0.00510153,0.0070609 0.00569667,0.00659014 0.00624858,0.00606937 0.00675307,0.00550254 0.00720632,0.00489396 0.00760489,0.00424824 0.00794575,0.00357029 0.00822632,0.00286525 0.00844446,0.00213846 0.00859853,0.00139544 0.00868734,0.000641841 0.00871024,-0.000116633 0.00866704,-0.000874221 0.00855808,-0.00162518 0.00838417,-0.0023638 0.00814665,-0.00308448 0.0078473,-0.00378176 0.00748841,-0.00445035 0.0070727,-0.00508516 0.00660331,-0.00568139 0.00608382,-0.0062345 0.00551817,-0.00674031 0.00491064,-0.00719497 0.00426585,-0.00759503 0.00358868,-0.00793746 0.00288429,-0.00821966 0.00215801,-0.00843948 0.00141536,-0.00859527 0.00066196,-0.00868583 -9.64581e-05,-0.00871049 -0.000854145,-0.00866905 -0.00160535,-0.00856182 -0.00234437,-0.00838963 -0.00306561,-0.00815377 -2.09136,-4.90283 3.41221,4.14014 0.00581074,0.00645711 0.0063492,0.00592846 0.00683974,0.00535508 0.00727868,0.00474129 0.00766269,0.00409172 0.00798888,0.00341127 0.00825478,0.00270508 0.0084584,0.00197849 0.00859819,0.00123696 0.0086731,0.000486096 0.00868256,-0.000268434 0.00862651,-0.00102094 0.00850536,-0.00176574 0.00832003,-0.00249722 0.00807192,-0.00320985 0.00776289,-0.00389826 0.00739529,-0.00455726 0.00697189,-0.00518186 0.00649588,-0.00576737 0.00597085,-0.00630935 0.00540076,-0.00680373 0.00478992,-0.00724677 0.00414294,-0.00763512 0.00346469,-0.00796586 0.0027603,-0.00823648 0.00203508,-0.00844496 0.00129451,-0.00858971 0.000544163,-0.00866965 -0.000210287,-0.00868417 -0.00096315,-0.00863315 -0.00170875,-0.00851699 -0.00244145,-0.00833656 -0.00315572,-0.00809323 -0.00384619,-0.00778882 -0.00450763,-0.00742564 -2.95087,-4.41653 4.10217,3.4414 0.0068628,0.0052688 0.00729255,0.00465586 0.0076677,0.00400807 0.00798546,0.00333027 0.00824344,0.00262754 0.00843971,0.00190515 0.0085728,0.00116849 0.00864172,0.000423089 0.00864594,-0.000325482 0.00858545,-0.00107162 0.00846068,-0.00180973 0.00827258,-0.00253429 0.00802256,-0.00323989 0.00771247,-0.00392123 0.00734466,-0.00457322 0.00692186,-0.00519097 0.00644725,-0.00576986 0.00592437,-0.00630556 0.00535714,-0.00679406 0.00474982,-0.0072317 0.00410693,-0.00761521 0.0034333,-0.00794171 0.00273397,-0.00820876 0.00201418,-0.00841435 0.00127931,-0.00855697 0.000534856,-0.00863552 -0.000213597,-0.00864943 -0.000960452,-0.00859859 -0.00170012,-0.00848339 -0.00242705,-0.00830468 -0.00313582,-0.0080638 -0.00382112,-0.00776256 -0.00447781,-0.00740321 -0.00510098,-0.00698844 -0.00568597,-0.00652135 -3.60622,-3.7916 4.48326,2.76741 0.00761196,0.00425199 0.00795341,0.00357277 0.00823439,0.00286639 0.00845278,0.00213822 0.0086069,0.00139379 0.0086956,0.000638772 0.00871818,-0.000121107 0.0086745,-0.000880064 0.00856486,-0.00163233 0.00839012,-0.00237219 0.00815159,-0.00309401 0.0078511,-0.00379232 0.00749092,-0.00446179 0.00707379,-0.00509735 0.00660288,-0.00569415 0.00608178,-0.00624767 0.00551445,-0.00675369 0.00490519,-0.00720836 0.00425865,-0.00760824 0.00357972,-0.00795028 0.00287359,-0.00823188 0.00214561,-0.0084509 0.00140132,-0.00860568 0.000646372,-0.00869503 -0.000113486,-0.00871829 -0.000872482,-0.00867526 -0.00162484,-0.00856629 -0.00236486,-0.00839219 -0.00308689,-0.0081543 -0.00378545,-0.00785441 -0.00445524,-0.00749481 -0.00509116,-0.00707824 -0.00568838,-0.00660786 -0.00624235,-0.00608724 -3.83866,-3.42982 4.52343,2.48621 0.00763636,0.00378282 0.00793071,0.00311891 0.00816746,0.00243235 0.0083449,0.00172812 0.00846173,0.00101134 0.00851711,0.000287219 0.00851064,-0.000438988 0.00844236,-0.00116201 0.00831277,-0.00187659 0.0081228,-0.00257754 0.00787385,-0.00325977 0.00756772,-0.00391833 0.00720662,-0.00454844 0.00679319,-0.00514551 0.00633042,-0.00570521 0.00582168,-0.00622348 0.00527066,-0.00669655 0.00468136,-0.00712099 0.00405807,-0.00749371 0.0034053,-0.00781202 0.00272781,-0.00807358 0.0020305,-0.00827652 0.00131845,-0.00841935 0.000596817,-0.00850103 -0.000129146,-0.00852097 -0.000854171,-0.00847904 -0.00157299,-0.00837552 -0.00228039,-0.00821118 -0.00297123,-0.00798721 -0.00364049,-0.00770523 -0.00428331,-0.00736729 -0.00489502,-0.00697585 -0.00547118,-0.00653375 -0.00600761,-0.00604419 -0.00650041,-0.00551074 -4.10881,-3.19259 4.78862,2.10632 0.00811791,0.00315634 0.00836177,0.00243798 0.0085422,0.00170111 0.00865782,0.000951348 0.00870776,0.000194365 0.00869165,-0.000564093 0.00860959,-0.00131827 0.00846222,-0.00206245 0.00825066,-0.00279098 0.0079765,-0.00349834 0.00764183,-0.00417916 0.00724919,-0.00482827 0.00680155,-0.00544076 0.00630231,-0.00601197 0.00575527,-0.00653757 0.00516456,-0.00701358 0.00453467,-0.00743638 0.00387038,-0.00780276 0.00317673,-0.00810995 0.00245898,-0.00835562 0.00172257,-0.0085379 0.000973099,-0.0086554 0.000216243,-0.00870725 -0.000542253,-0.00869304 -0.00129664,-0.00861288 -0.00204118,-0.00846738 -0.00277024,-0.00825764 -0.00347829,-0.00798526 -0.00415994,-0.00765231 -0.00481004,-0.00726129 -0.00542365,-0.0068152 -0.00599611,-0.0063174 -0.00652309,-0.00577167 -0.00700058,-0.00518216 -4.27204,-2.88311 4.82754,1.84677 0.00821535,0.00274124 0.00842173,0.00202013 0.00856493,0.00128386 0.0086439,0.000537965 0.00865803,-0.000211966 0.00860722,-0.000960307 0.00849185,-0.00170145 0.00831278,-0.00242982 0.00807137,-0.00313997 0.00776941,-0.00382657 0.00740918,-0.00448447 0.00699337,-0.00510873 0.00652511,-0.00569467 0.00600791,-0.0062379 0.00544564,-0.00673434 0.00484253,-0.00718027 0.0042031,-0.00757234 0.00353214,-0.00790762 0.00283469,-0.00818358 0.00211597,-0.00839816 0.00138138,-0.00854975 0.000636437,-0.00863721 -0.000113284,-0.00865988 -0.000862156,-0.0086176 -0.00160456,-0.00851069 -0.00233493,-0.00833993 -0.00304779,-0.00810663 -0.00373778,-0.00781252 -0.00439974,-0.0074598 -0.0050287,-0.00705114 -0.00561994,-0.00658959 -0.00616903,-0.00607861 -0.00667185,-0.00552204 -0.00712462,-0.00492405 -4.15456,-2.613 4.5341,1.83663 0.00811106,0.00288571 0.0083292,0.00217737 0.00848561,0.0014529 0.00857913,0.000717658 0.00860907,-2.29027e-05 0.00857519,-0.000763294 0.00847776,-0.00149803 0.0083175,-0.00222166 0.00809559,-0.00292882 0.00781367,-0.00361428 0.00747385,-0.00427295 0.00707863,-0.00489995 0.00663095,-0.00549063 0.00613412,-0.00604062 0.00559183,-0.00654584 0.00500809,-0.00700254 0.00438724,-0.00740734 0.00373386,-0.00775724 0.00305282,-0.00804965 0.00234914,-0.00828239 0.00162806,-0.00845375 0.00089491,-0.00856246 0.000155126,-0.0086077 -0.000585807,-0.00858914 -0.0013224,-0.00850693 -0.00204919,-0.00836166 -0.00276079,-0.00815442 -0.00345193,-0.00788674 -0.00411749,-0.00756061 -0.00475252,-0.00717844 -0.00535234,-0.00674307 -0.00591248,-0.00625772 -0.00642881,-0.00572599 -0.00689748,-0.00515182 -4.14581,-2.82696 4.616,1.95858 0.00794776,0.0029809 0.00817193,0.00229613 0.00833722,0.00159482 0.00844244,0.000882015 0.00848682,0.000162857 0.00847006,-0.000557475 0.00839227,-0.00127379 0.00825401,-0.00198093 0.00805627,-0.00267379 0.00780049,-0.00334739 0.00748851,-0.00399687 0.00712256,-0.00461755 0.0067053,-0.00520496 0.00623973,-0.00575487 0.00572919,-0.00626331 0.00517738,-0.00672663 0.00458826,-0.00714147 0.00396608,-0.00750486 0.00331532,-0.00781418 0.00264068,-0.00806719 0.00194701,-0.00826207 0.00123931,-0.00839743 0.000522678,-0.00847228 -0.000197717,-0.00848608 -0.000916687,-0.00843874 -0.00162905,-0.0083306 -0.00232968,-0.00816243 -0.00301352,-0.00793545 -0.00367565,-0.00765129 -0.00431129,-0.00731201 -0.00491587,-0.00692004 -0.00548503,-0.0064782 -0.00601467,-0.00598969 -0.00650097,-0.00545803 -3.79778,-2.92293 4.19337,2.27702 0.00776503,0.00379161 0.00806338,0.00310708 0.00830151,0.00239935 0.00847766,0.0016737 0.0085905,0.000935558 0.0086392,0.000190427 0.00862338,-0.000556125 0.00854317,-0.00129853 0.00839917,-0.00203123 0.00819245,-0.00274876 0.00792456,-0.00344577 0.00759749,-0.00411705 0.00721369,-0.00475759 0.00677602,-0.0053626 0.00628776,-0.00592757 0.00575254,-0.00644828 0.00517437,-0.00692083 0.00455756,-0.00734171 0.00390672,-0.00770776 0.0032267,-0.00801626 0.00252259,-0.0082649 0.00179965,-0.00845182 0.00106326,-0.00857563 0.000318941,-0.00863541 -0.000427764,-0.0086307 -0.00117128,-0.00856155 -0.00190604,-0.00842846 -0.00262657,-0.00823244 -0.00332749,-0.00797495 -0.00400356,-0.0076579 -0.00464974,-0.00728368 -0.0052612,-0.00685506 -0.00583336,-0.00637525 -0.00636198,-0.00584784 -3.58509,-3.02027 3.95696,2.43405 0.00757843,0.00422003 0.00791563,0.00354741 0.00819327,0.00284809 0.00840927,0.00212735 0.00856199,0.0013906 0.00865028,0.000643383 0.0086735,-0.000108673 0.00863145,-0.000859911 0.00852446,-0.00160468 0.00835333,-0.00233737 0.00811934,-0.00305248 0.00782427,-0.00374462 0.00747032,-0.00440858 0.00706017,-0.00503938 0.0065969,-0.00563226 0.00608399,-0.00618275 0.0055253,-0.00668673 0.00492504,-0.0071404 0.00428772,-0.00754034 0.00361815,-0.00788355 0.00292134,-0.00816744 0.00220256,-0.00838988 0.00146721,-0.00854919 0.000720814,-0.00864418 -3.10035e-05,-0.00867412 -0.000782588,-0.0086388 -0.00152828,-0.00853848 -0.00226248,-0.00837392 -0.00297965,-0.00814635 -0.00367441,-0.00785749 -0.00434152,-0.0075095 -0.00497596,-0.00710501 -0.00557296,-0.00664707 -3.11858,-3.40781 3.5324,2.91154 0.00684784,0.00516739 0.00726553,0.00456145 0.00762975,0.00392195 0.00793782,0.00325358 0.00818747,0.00256127 0.00837687,0.00185011 0.00850461,0.00112534 0.00856977,0.000392279 0.00857186,-0.000343667 0.00851086,-0.00107708 0.00838723,-0.00180257 0.00820187,-0.0025148 0.00795615,-0.00320851 0.00765187,-0.00387861 0.00729129,-0.00452017 0.00687704,-0.00512846 0.00641218,-0.00569901 0.00590013,-0.00622762 0.00534466,-0.0067104 0.00474986,-0.00714379 0.0041201,-0.0075246 0.00346001,-0.00785004 0.00277447,-0.00811771 0.0020685,-0.00832563 0.00134731,-0.00847228 0.000616208,-0.00855658 -0.000119431,-0.00857791 -0.000854191,-0.00853611 -0.00158266,-0.00843149 -0.00229949,-0.00826481 -0.00299939,-0.00803732 -0.00367722,-0.00775067 -0.00432799,-0.00740698 -0.0049469,-0.00700878 -3.16205,-4.09514 4.04869,3.25506 0.00701696,0.0051551 0.00743879,0.00452517 0.00780423,0.00386093 0.0081105,0.00316742 0.00835528,0.0024499 0.00853672,0.00171381 0.00865344,0.000964717 0.00870456,0.000208315 0.00868968,-0.000549667 0.00860893,-0.00130348 0.00846291,-0.00204741 0.00825273,-0.00277582 0.00797998,-0.00348319 0.00764674,-0.00416415 0.00725552,-0.00481354 0.0068093,-0.00542644 0.00631145,-0.00599819 0.00576576,-0.00652448 0.00517635,-0.0070013 0.0045477,-0.00742504 0.00388457,-0.00779249 0.003192,-0.00810086 0.00247522,-0.00834782 0.00173968,-0.00853149 0.000990945,-0.00865048 0.000234701,-0.00870389 -0.000523322,-0.00869131 -0.00127738,-0.00861284 -0.00202175,-0.00846908 -0.00275079,-0.00826111 -0.00345898,-0.00799051 -0.00414095,-0.00765933 -0.00479152,-0.00727008 -2.48411,-3.43381 2.81947,3.11306 0.00599035,0.00607222 0.00648603,0.00553963 0.00693452,0.00496675 0.00733256,0.00435772 0.00767725,0.00371699 0.00796608,0.00304922 0.00819695,0.00235926 0.00836819,0.00165213 0.00847854,0.000932991 0.00852721,0.000207059 0.00851383,-0.00052038 0.00843851,-0.00124403 0.0083018,-0.00195863 0.00810469,-0.00265898 0.00784861,-0.00333999 0.00753542,-0.00399669 0.00716741,-0.00462432 0.00674726,-0.0052183 0.00627801,-0.00577432 0.00576309,-0.00628832 0.00520623,-0.00675657 0.0046115,-0.00717567 0.00398322,-0.00754255 0.00332595,-0.00785456 0.00264449,-0.00810943 0.00194379,-0.00830529 0.00122895,-0.00844072 0.000505159,-0.00851475 -0.000222302,-0.00852682 -0.000948146,-0.00847686 -0.00166709,-0.00836522 -0.00237391,-0.00819272 -0.00306345,-0.00796062 -0.00373071,-0.00767059 -2.07024,-3.83187 2.47321,3.51121 0.00526723,0.00683173 0.00583642,0.00635236 0.00636218,0.00582571 0.00684059,0.00525571 0.0072681,0.0046466 0.00764153,0.00400292 0.00795808,0.00332944 0.00821542,0.00263119 0.00841162,0.00191336 0.00854522,0.00118129 0.00861524,0.000440423 0.00862114,-0.000303716 0.00856289,-0.0010456 0.00844091,-0.00177969 0.00825612,-0.00250055 0.00800989,-0.00320279 0.00770406,-0.00388121 0.00734089,-0.00453074 0.0069231,-0.00514655 0.00645379,-0.00572406 0.00593645,-0.00625898 0.00537493,-0.00674733 0.00477342,-0.00718546 0.00413638,-0.00757011 0.00346856,-0.00789844 0.00277493,-0.00816799 0.00206065,-0.00837675 0.00133104,-0.00852318 0.000591518,-0.00860618 -0.000152403,-0.00862514 -0.00089519,-0.00857991 -0.00163132,-0.00847084 -0.0023553,-0.00829872 -1.21551,-3.67175 1.5133,3.46836 0.00375302,0.00768676 0.00439622,0.00733789 0.00500725,0.00693534 0.00558164,0.00648204 0.00611518,0.0059813 0.00660398,0.0054368 0.00704446,0.00485252 0.0074334,0.00423274 0.00776794,0.00358198 0.00804564,0.00290501 0.00826448,0.00220678 0.00842284,0.00149241 0.00851956,0.000767116 0.00855395,3.62104e-05 0.00852575,-0.00069496 0.00843517,-0.00142105 0.00828286,-0.00213673 0.00806995,-0.00283679 0.00779799,-0.00351608 0.00746897,-0.00416965 0.00708529,-0.00479271 0.00664978,-0.0053807 0.0061656,-0.00592932 0.00563631,-0.00643455 0.00506578,-0.0068927 0.00445819,-0.00730041 0.00381797,-0.00765471 0.00314981,-0.00795299 0.00245861,-0.00819309 0.00174942,-0.00837323 0.00102742,-0.00849211 0.000297911,-0.00854884 -0.00043378,-0.00854303 -0.410569,-4.37757 0.924567,4.24475 0.0021864,0.00830512 0.00289093,0.0080869 0.00357413,0.00780903 0.00423098,0.00747356 0.00485662,0.00708298 0.00544645,0.00664015 0.0059961,0.00614835 0.00650152,0.0056112 0.006959,0.00503266 0.00736515,0.00441701 0.00771697,0.00376878 0.00801188,0.00309275 0.0082477,0.00239391 0.00842268,0.00167742 0.00853555,0.000948552 0.00858546,0.000212689 0.00857205,-0.000524743 0.00849541,-0.0012583 0.00835612,-0.00198258 0.00815519,-0.00269224 0.00789412,-0.00338204 0.00757482,-0.0040469 0.00719966,-0.00468191 0.00677139,-0.00528239 0.00629318,-0.0058439 0.00576856,-0.00636232 0.00520139,-0.00683381 0.00459585,-0.00725489 0.00395642,-0.00762247 0.00328781,-0.00793383 0.00259495,-0.00818667 0.00188295,-0.00837913 0.00115706,-0.00850979 0.403938,-4.36936 0.119863,4.34449 0.000614688,0.00864906 0.00136162,0.0085633 0.00209832,0.00841316 0.00281924,0.00819976 0.00351896,0.00792471 0.00419223,0.00759008 0.00483398,0.00719839 0.00543938,0.00675257 0.00600389,0.00625599 0.00652326,0.00571237 0.00699359,0.0051258 0.00741133,0.0045007 0.00777335,0.00384176 0.00807693,0.00315393 0.00831979,0.00244239 0.00850009,0.00171249 0.00861648,0.000969714 0.0086681,0.000219646 0.00865454,-0.000532073 0.00857591,-0.00127979 0.00843281,-0.00201789 0.0082263,-0.00274081 0.00795795,-0.00344313 0.00762977,-0.00411956 0.00724422,-0.00476502 0.0068042,-0.00537466 0.00631303,-0.00594388 0.0057744,-0.00646842 0.00519235,-0.00694432 0.00457126,-0.00736802 0.00391581,-0.00773632 0.00323091,-0.00804645 0.00252172,-0.00829609 1.11194,-4.32363 -0.556485,4.38937 -0.000709825,0.00847268 1.24675e-05,0.00850235 0.00073467,0.00847056 0.00145156,0.00837754 0.00215796,0.00822395 0.00284876,0.00801092 0.00351896,0.00773997 0.00416373,0.00741307 0.00477839,0.00703258 0.00535852,0.00660125 0.0058999,0.0061222 0.00639864,0.00559889 0.00685112,0.00503511 0.00725407,0.00443493 0.00760459,0.00380269 0.00790012,0.00314296 0.00813855,0.00246051 0.00831815,0.00176027 0.00843761,0.00104731 0.00849608,0.000326778 0.00849313,-0.000396118 0.00842878,-0.00111615 0.0083035,-0.00182811 0.0081182,-0.00252686 0.00787421,-0.00320734 0.00757329,-0.00386464 0.00721763,-0.004494 0.00680979,-0.00509087 0.00635272,-0.00565094 0.00584973,-0.00617015 0.00530445,-0.00664477 0.00472083,-0.00707135 0.00410308,-0.00744681 0.00345567,-0.00776843 1.73692,-4.39937 -1.04396,4.58117 -0.00153379,0.00835421 -0.000819304,0.00845424 -9.89073e-05,0.00849327 0.000622203,0.00847102 0.00133882,0.00838766 0.00204579,0.00824379 0.00273799,0.00804045 0.00341044,0.00777909 0.00405829,0.00746161 0.00467685,0.0070903 0.00526168,0.00666784 0.00580854,0.00619727 0.0063135,0.00568199 0.00677291,0.00512572 0.00718346,0.00453247 0.00754218,0.00390652 0.00784649,0.00325239 0.00809418,0.00257479 0.00828349,0.00187861 0.00841303,0.00116888 0.00848188,0.000450723 0.00848953,-0.00027069 0.00843593,-0.00099015 0.00832148,-0.00170247 0.00814698,-0.0024025 0.00791372,-0.0030852 0.00762335,-0.00374565 0.00727799,-0.00437906 0.00688012,-0.00498089 0.00643262,-0.00554678 0.0059387,-0.00607266 0.00540194,-0.00655472 0.00482621,-0.0069895 0.00421566,-0.00737384 1.98908,-3.85002 -1.50464,3.99707 -0.0026819,0.00817507 -0.00196926,0.00837535 -0.00124205,0.00851362 -0.00050564,0.00858887 0.000234512,0.00860055 0.000972928,0.00854856 0.00170414,0.00843329 0.00242274,0.00825559 0.00312341,0.00801678 0.00380095,0.00771863 0.00445036,0.00736334 0.00506682,0.00695354 0.00564578,0.00649227 0.00618295,0.00598294 0.00667434,0.00542933 0.00711633,0.00483552 0.00750564,0.00420592 0.00783939,0.00354518 0.00811511,0.0028582 0.00833076,0.00215007 0.00848474,0.00142602 0.00857592,0.000691408 0.00860361,-4.83181e-05 0.00856761,-0.000787686 0.00846819,-0.00152122 0.00830609,-0.0022435 0.0080825,-0.00294917 0.00779908,-0.00363301 0.00745793,-0.00428995 0.00706157,-0.00491514 0.00661294,-0.00550395 0.00611536,-0.00605201 0.0055725,-0.00655527 2.85106,-3.66213 -2.28744,3.99818 -0.00393205,0.00761181 -0.00326608,0.00792045 -0.00257614,0.00817094 -0.00186729,0.00836146 -0.00114473,0.0084906 -0.000413774,0.00855743 0.000320223,0.00856144 0.00105187,0.00850261 0.00177579,0.00838137 0.00248669,0.00819861 0.00317932,0.00795567 0.00384863,0.00765433 0.00448968,0.00729682 0.00509778,0.00688574 0.00566846,0.00642412 0.00619753,0.00591535 0.00668111,0.00536316 0.00711566,0.0047716 0.00749797,0.00414502 0.00782525,0.00348802 0.00809509,0.00280541 0.00830551,0.00210221 0.00845497,0.00138358 0.00854237,0.000654794 0.00856706,-7.87982e-05 0.00852888,-0.000811812 0.00842809,-0.00153887 0.00826544,-0.00225463 0.00804211,-0.00295384 0.00775976,-0.00363137 0.00742046,-0.00428224 0.00702668,-0.00490168 0.00658133,-0.00548515 0.00608767,-0.00602835 3.39269,-3.66051 -2.62941,4.23385 -0.00419177,0.00744076 -0.0035416,0.00777129 -0.00286561,0.00804513 -0.00216871,0.0082603 -0.00145599,0.00841522 -0.000732657,0.00850877 -3.97817e-06,0.00854025 0.00072473,0.00850945 0.00144815,0.00841658 0.00216101,0.00826232 0.00285811,0.0080478 0.00353436,0.00777458 0.00418484,0.00744466 0.00480479,0.00706045 0.0053897,0.00662473 0.00593529,0.0061407 0.0064376,0.00561188 0.00689296,0.00504213 0.00729804,0.0044356 0.00764989,0.00379672 0.00794595,0.00313015 0.00818405,0.00244075 0.00836246,0.00173355 0.00847988,0.0010137 0.00853545,0.000286466 0.00852876,-0.000442862 0.00845987,-0.00116896 0.00832928,-0.00188653 0.00813794,-0.00259035 0.00788724,-0.00327527 0.00757901,-0.0039363 0.00721551,-0.00456862 0.00679938,-0.00516762 0.00633366,-0.00572893 3.58306,-3.53058 -2.82244,4.1607 -0.00457674,0.0074243 -0.00391243,0.00779485 -0.00321836,0.0081061 -0.0024998,0.0083557 -0.00176224,0.00854173 -0.00101127,0.0086628 -0.000252602,0.00871796 0.000507983,0.00870682 0.0012647,0.00862944 0.0020118,0.00848642 0.0027436,0.00827885 0.00345453,0.0080083 0.00413918,0.00767684 0.00479235,0.00728698 0.00540906,0.00684169 0.00598462,0.00634436 0.00651467,0.00579877 0.00699516,0.00520908 0.00742244,0.00457975 0.00779325,0.00391559 0.00810479,0.00322165 0.00835468,0.0025032 0.00854102,0.00176571 0.00866238,0.00101479 0.00871786,0.000256145 0.00870702,-0.000504444 0.00862995,-0.0012612 0.00848724,-0.00200836 0.00827996,-0.00274024 0.00800971,-0.00345128 0.00767852,-0.00413606 0.00728893,-0.00478939 0.00684389,-0.00540628 0.0063468,-0.00598205 3.53324,-3.63391 -2.70747,4.28894 -0.00427372,0.00746281 -0.00361671,0.00780241 -0.00293296,0.0080843 -0.00222752,0.0083064 -0.0015056,0.00846707 -0.000772545,0.00856512 -3.37783e-05,0.00859983 0.000705238,0.00857093 0.00143904,0.00847864 0.0021622,0.00832364 0.00286936,0.00810709 0.00355531,0.00783058 0.00421496,0.00749615 0.00484344,0.00710628 0.00543609,0.00666386 0.00598855,0.00617215 0.00649671,0.00563479 0.00695682,0.00505576 0.00736549,0.00443934 0.00771967,0.00379009 0.00801677,0.0031128 0.00825457,0.0024125 0.00843133,0.00169435 0.00854573,0.000963667 0.00859693,0.00022586 0.00858454,-0.000513618 0.00850867,-0.0012493 0.00836986,-0.00197574 0.00816916,-0.00268756 0.00790804,-0.00337951 0.00758843,-0.00404647 0.00721269,-0.0046835 0.00678362,-0.00528589 0.00630437,-0.00584919 3.44381,-3.48244 -2.7748,4.01485 -0.00461409,0.00733669 -0.00396148,0.00770866 -0.00327912,0.00802272 -0.00257213,0.00827653 -0.00184582,0.00846816 -0.00110564,0.00859618 -0.000357158,0.00865963 0.000394008,0.00865803 0.00114221,0.0085914 0.00188184,0.00846023 0.00260733,0.00826551 0.00331324,0.0080087 0.00399425,0.00769173 0.00464527,0.00731698 0.00526139,0.00688728 0.00583798,0.00640583 0.00637073,0.00587627 0.00685562,0.00530257 0.00728901,0.00468904 0.00766765,0.00404028 0.0079887,0.00336117 0.00824973,0.00265682 0.0084488,0.00193251 0.0085844,0.00119368 0.00865552,0.00044589 0.00866162,-0.000305252 0.00860265,-0.0010541 0.00847907,-0.00179503 0.00829179,-0.00252248 0.00804223,-0.00323098 0.00773226,-0.00391521 0.00736421,-0.00457003 0.00694084,-0.00519052 0.00646533,-0.00577203 3.70826,-3.6113 -2.7654,4.40271 -0.00429572,0.00754814 -0.00362459,0.00789241 -0.00292612,0.00817714 -0.00220557,0.00840019 -0.00146839,0.00855988 -0.000720139,0.008655 3.35469e-05,0.00868485 0.00078698,0.00864918 0.00153448,0.00854828 0.0022704,0.0083829 0.0029892,0.00815429 0.00368545,0.00786417 0.0043539,0.00751473 0.00498951,0.00710862 0.00558749,0.00664888 0.00614332,0.006139 0.00665282,0.0055828 0.00711213,0.0049845 0.0075178,0.0043486 0.00786676,0.00367991 0.00815639,0.00298345 0.0083845,0.00226449 0.00854936,0.00152845 0.00864973,0.000780884 0.00868487,2.74255e-05 0.00865449,-0.00072624 0.00855884,-0.00147443 0.00839863,-0.00221149 0.00817507,-0.00293188 0.00788985,-0.00363015 0.00754512,-0.00430104 0.00714347,-0.00493949 0.00668794,-0.00554068 0.00618197,-0.00610007 3.44901,-3.71245 -2.61149,4.34614 -0.0041245,0.00758828 -0.00345434,0.00791586 -0.00275843,0.00818441 -0.00204193,0.0083919 -0.0013102,0.00853679 -0.000568704,0.008618 0.000177038,0.00863493 0.000921459,0.00858745 0.00165901,0.00847591 0.00238418,0.00830115 0.00309157,0.00806447 0.0037759,0.00776763 0.00443206,0.00741285 0.00505516,0.00700277 0.00564055,0.00654046 0.00618387,0.00602936 0.00668106,0.00547328 0.00712842,0.00487638 0.0075226,0.00424311 0.00786066,0.00357818 0.0081401,0.00288656 0.00835881,0.00217341 0.00851517,0.00144405 0.00860801,0.000703916 0.00863665,-4.14685e-05 0.00860086,-0.000786543 0.00850091,-0.00152575 0.00833755,-0.00225358 0.008112,-0.00296459 0.00782594,-0.0036535 0.0074815,-0.00431515 0.00708126,-0.00494461 0.00662819,-0.00553719 0.00612569,-0.00608846 3.48245,-3.77395 -2.57035,4.45802 -0.00401118,0.00771367 -0.003326,0.00803293 -0.00261569,0.00829146 -0.0018856,0.00848733 -0.00114126,0.00861903 -0.000388297,0.00868559 0.000367605,0.00868649 0.00112073,0.00862173 0.00186538,0.00849179 0.00259593,0.00829767 0.00330686,0.00804083 0.00399279,0.0077232 0.00464854,0.0073472 0.00526915,0.00691565 0.00584993,0.00643183 0.00638649,0.0058994 0.00687478,0.00532237 0.0073111,0.00470511 0.00769215,0.00405228 0.00801506,0.00336882 0.00827739,0.00265989 0.00847714,0.00193086 0.00861282,0.00118724 0.00868339,0.000434636 0.00868832,-0.00032125 0.00862758,-0.00107471 0.00850163,-0.00182004 0.0083114,-0.00255162 0.00805836,-0.00326391 0.0077444,-0.00395152 0.00737189,-0.00460927 0.00694367,-0.00523217 0.00646296,-0.00581553 0.00593339,-0.00635492 3.16633,-3.70156 -2.47625,4.16999 -0.00406388,0.00756584 -0.00339972,0.00788663 -0.00271049,0.00814925 -0.00200127,0.00835177 -0.00127728,0.00849268 -0.000543876,0.00857096 0.000193541,0.00858601 0.000929531,0.00853774 0.00165866,0.0084265 0.00237556,0.00825311 0.00307494,0.00801884 0.00375164,0.00772543 0.00440067,0.00737504 0.00501724,0.00697025 0.0055968,0.00651405 0.00613509,0.00600981 0.00662812,0.00546124 0.00707226,0.00487239 0.00746425,0.0042476 0.00780117,0.00359148 0.00808056,0.00290888 0.00830035,0.00220481 0.00845892,0.00148449 0.0085551,0.000753217 0.00858818,1.63884e-05 0.00855791,-0.000720561 0.00846453,-0.0014522 0.00830871,-0.00217312 0.00809161,-0.00287802 0.00781482,-0.00356168 0.0074804,-0.00421908 0.00709081,-0.00484536 0.00664891,-0.0054359 0.00615798,-0.00598635 3.51795,-3.72682 -2.61916,4.41856 -0.00407622,0.00760698 -0.00340515,0.00793011 -0.00270872,0.00819418 -0.00199211,0.00839722 -0.00126066,0.00853771 -0.000519822,0.00861461 0.000224887,0.00862735 0.00096792,0.00857583 0.00170374,0.00846044 0.00242688,0.00828203 0.00313194,0.00804193 0.00381367,0.00774194 0.004467,0.00738429 0.00508705,0.00697163 0.00566922,0.00650705 0.00620916,0.005994 0.00670285,0.00543631 0.00714662,0.00483813 0.00753716,0.00420392 0.00787157,0.00353839 0.00814734,0.0028465 0.00836243,0.00213342 0.00851524,0.00140445 0.00860462,0.000665012 0.00862992,-7.93762e-05 0.00859093,-0.000823173 0.00848796,-0.00156084 0.00832177,-0.00228688 0.0080936,-0.00299589 0.00780515,-0.00368258 0.00745856,-0.00434184 0.00705642,-0.00496877 0.00660172,-0.00555869 0.00609785,-0.0061072 3.39217,-3.70411 -2.60258,4.29187 -0.00418987,0.00764186 -0.0035086,0.00797765 -0.00280067,0.00825284 -0.00207148,0.00846535 -0.00132655,0.00861356 -0.000571541,0.00869635 0.000187806,0.00871309 0.000945726,0.00866364 0.00169646,0.0085484 0.00243432,0.00836823 0.00315368,0.0081245 0.00384909,0.00781906 0.00451526,0.00745423 0.00514714,0.00703278 0.00573993,0.00655792 0.00628912,0.00603325 0.00679054,0.00546276 0.00724038,0.00485077 0.00763523,0.00420194 0.00797209,0.0035212 0.0082484,0.00281371 0.00846206,0.00208485 0.00861145,0.00134015 0.00869543,0.000585279 0.00871337,-0.000174041 0.00866513,-0.000932038 0.00855107,-0.00168296 0.00837206,-0.00242109 0.00812947,-0.00314084 0.00782513,-0.00383673 0.00746135,-0.00450348 0.00704091,-0.00513603 0.00656698,-0.00572956 0.00604318,-0.00627958 3.4038,-3.86038 -2.44893,4.54555 -0.00377837,0.00780602 -0.00308783,0.00810403 -0.00237407,0.00834109 -0.00164245,0.00851542 -0.000898478,0.0086257 -0.000147749,0.00867111 0.00060409,0.00865131 0.00135139,0.00856643 0.00208852,0.00841713 0.00280994,0.00820453 0.00351023,0.00793021 0.00418412,0.00759626 0.00482655,0.00720517 0.00543267,0.00675989 0.00599793,0.00626377 0.00651808,0.00572055 0.00698921,0.00513429 0.00740777,0.00450943 0.00777062,0.00385064 0.00807503,0.0031629 0.0083187,0.00245137 0.00849981,0.0017214 0.00861699,0.000978483 0.00866937,0.000228209 0.00865654,-0.000523782 0.00857861,-0.00127183 0.00843615,-0.00201032 0.00823025,-0.00273369 0.00796245,-0.00343649 0.00763476,-0.00411345 0.00724965,-0.00475948 0.00681002,-0.0053697 0.00631916,-0.00593954 0.00578079,-0.00646471 3.40862,-4.16184 -0.895865,2.23985 -0.00288333,0.00823362 -0.00215475,0.00845358 -0.00140977,0.00860922 -0.000654063,0.00869932 0.000106622,0.00872323 0.000866496,0.00868074 0.00161977,0.00857219 0.00236073,0.00839839 0.00308371,0.00816068 0.00378323,0.00786087 0.00445395,0.00750122 0.00509078,0.00708449 0.00568886,0.00661384 0.00624365,0.00609286 0.00675091,0.0055255 0.0072068,0.0049161 0.00760785,0.00426928 0.00795099,0.00358996 0.00823362,0.00288333 0.00845358,0.00215475 0.00860922,0.00140977 0.00869932,0.000654063 0.00872323,-0.000106622 0.00868074,-0.000866496 0.00857219,-0.00161977 0.00839839,-0.00236073 0.00816068,-0.00308371 0.00786087,-0.00378323 0.00750122,-0.00445395 0.00708449,-0.00509078 0.00661384,-0.00568886 0.00609286,-0.00624365 0.0055255,-0.00675091 0.0049161,-0.0072068 0.00426928,-0.00760785 0.00358996,-0.00795099 z "/>
</g></g></svg>