<?xml version="1.0" encoding="UTF-8" standalone="no"?>
<!DOCTYPE svg PUBLIC "-//W3C//DTD SVG 1.1//EN" "http://www.w3.org/Graphics/SVG/1.1/DTD/svg11-flat.dtd"
[
<!ATTLIST g xmlns:fme CDATA #FIXED "http://www.safe.com/fme" >
<!ATTLIST path fme:_creation_instance CDATA #IMPLIED fme:i CDATA #IMPLIED >
<!ATTLIST ellipse fme:_creation_instance CDATA #IMPLIED fme:i CDATA #IMPLIED >
<!ATTLIST text fme:_creation_instance CDATA #IMPLIED fme:i CDATA #IMPLIED >
<!ATTLIST use fme:_creation_instance CDATA #IMPLIED fme:i CDATA #IMPLIED >
]>
<svg xmlns="http://www.w3.org/2000/svg"  viewBox="-5.2023 -5.2023 426.588 413.988"><g xmlns:fme="http://www.safe.com/fme" fill="none" stroke="black" stroke-width="0.052022970773009" transform="translate(0,403.584) scale(1, -1)">
<g id="test" >
<path d="M 12.7279,3.55271e-15 l 25.4558,25.4558 -12.7279,12.7279 -25.4558,-25.4558 12.7279,-12.7279 "/>
<path d="M 25.2,38.0558 l 25.4558,-25.4558 12.7279,12.7279 -25.4558,25.4558 -12.7279,-12.7279 "/>
<path d="M 12.7279,25.2 l 25.4558,25.4558 -12.7279,12.7279 -25.4558,-25.4558 12.7279,-12.7279 "/>
<path d="M 25.2,63.2558 l 25.4558,-25.4558 12.7279,12.7279 -25.4558,25.4558 -12.7279,-12.7279 "/>
<path d="M 12.7279,50.4 l 25.4558,25.4558 -12.7279,12.7279 -25.4558,-25.4558 12.7279,-12.7279 "/>
<path d="M 25.2,88.4558 l 25.4558,-25.4558 12.7279,12.7279 -25.4558,25.4558 -12.7279,-12.7279 "/>
<path d="M 12.7279,75.6 l 25.4558,25.4558 -12.7279,12.7279 -25.4558,-25.4558 12.7279,-12.7279 "/>
<path d="M 25.2,113.656 l 25.4558,-25.4558 12.7279,12.7279 -25.4558,25.4558 -12.7279,-12.7279 "/>
<path d="M 12.7279,100.8 l 25.4558,25.4558 -12.7279,12.7279 -25.4558,-25.4558 12.7279,-12.7279 "/>
<path d="M 25.2,138.856 l 25.4558,-25.4558 12.7279,12.7279 -25.4558,25.4558 -12.7279,-12.7279 "/>
<path d="M 12.7279,126 l 25.4558,25.4558 -12.7279,12.7279 -25.4558,-25.4558 12.7279,-12.7279 "/>
<path d="M 25.2,164.056 l 25.4558,-25.4558 12.7279,12.7279 -25.4558,25.4558 -12.7279,-12.7279 "/>
<path d="M 12.7279,151.2 l 25.4558,25.4558 -12.7279,12.7279 -25.4558,-25.4558 12.7279,-12.7279 "/>
<path d="M 25.2,189.256 l 25.4558,-25.4558 12.7279,12.7279 -25.4558,25.4558 -12.7279,-12.7279 "/>
<path d="M 12.7279,176.4 l 25.4558,25.4558 -12.7279,12.7279 -25.4558,-25.4558 12.7279,-12.7279 "/>
<path d="M 25.2,214.456 l 25.4558,-25.4558 12.7279,12.7279 -25.4558,25.4558 -12.7279,-12.7279 "/>
<path d="M 12.7279,201.6 l 25.4558,25.4558 -12.7279,12.7279 -25.4558,-25.4558 12.7279,-12.7279 "/>
<path d="M 25.2,239.656 l 25.4558,-25.4558 12.7279,12.7279 -25.4558,25.4558 -12.7279,-12.7279 "/>
<path d="M 12.7279,226.8 l 25.4558,25.4558 -12.7279,12.7279 -25.4558,-25.4558 12.7279,-12.7279 "/>
<path d="M 25.2,264.856 l 25.4558,-25.4558 12.7279,12.7279 -25.4558,25.4558 -12.7279,-12.7279 "/>
<path d="M 12.7279,252 l 25.4558,25.4558 -12.7279,12.7279 -25.4558,-25.4558 12.7279,-12.7279 "/>
<path d="M 25.2,290.056 l 25.4558,-25.4558 12.7279,12.7279 -25.4558,25.4558 -12.7279,-12.7279 "/>
<path d="M 12.7279,277.2 l 25.4558,25.4558 -12.7279,12.7279 -25.4558,-25.4558 12.7279,-12.7279 "/>
<path d="M 25.2,315.256 l 25.4558,-25.4558 12.7279,12.7279 -25.4558,25.4558 -12.7279,-12.7279 "/>
<path d="M 12.7279,302.4 l 25.4558,25.4558 -12.7279,12.7279 -25.4558,-25.4558 12.7279,-12.7279 "/>
<path d="M 25.2,340.456 l 25.4558,-25.4558 12.7279,12.7279 -25.4558,25.4558 -12.7279,-12.7279 "/>
<path d="M 12.7279,327.6 l 25.4558,25.4558 -12.7279,12.7279 -25.4558,-25.4558 12.7279,-12.7279 "/>
<path d="M 25.2,365.656 l 25.4558,-25.4558 12.7279,12.7279 -25.4558,25.4558 -12.7279,-12.7279 "/>
<path d="M 12.7279,352.8 l 25.4558,25.4558 -12.7279,12.7279 -25.4558,-25.4558 12.7279,-12.7279 "/>
<path d="M 25.2,390.856 l 25.4558,-25.4558 12.7279,12.7279 -25.4558,25.4558 -12.7279,-12.7279 "/>
<path d="M 63.1279,0 l 25.4558,25.4558 -12.7279,12.7279 -25.4558,-25.4558 12.7279,-12.7279 "/>
<path d="M 75.6,38.0558 l 25.4558,-25.4558 12.7279,12.7279 -25.4558,25.4558 -12.7279,-12.7279 "/>
<path d="M 63.1279,25.2 l 25.4558,25.4558 -12.7279,12.7279 -25.4558,-25.4558 12.7279,-12.7279 "/>
<path d="M 75.6,63.2558 l 25.4558,-25.4558 12.7279,12.7279 -25.4558,25.4558 -12.7279,-12.7279 "/>
<path d="M 63.1279,50.4 l 25.4558,25.4558 -12.7279,12.7279 -25.4558,-25.4558 12.7279,-12.7279 "/>
<path d="M 75.6,88.4558 l 25.4558,-25.4558 12.7279,12.7279 -25.4558,25.4558 -12.7279,-12.7279 "/>
<path d="M 63.1279,75.6 l 25.4558,25.4558 -12.7279,12.7279 -25.4558,-25.4558 12.7279,-12.7279 "/>
<path d="M 75.6,113.656 l 25.4558,-25.4558 12.7279,12.7279 -25.4558,25.4558 -12.7279,-12.7279 "/>
<path d="M 63.1279,100.8 l 25.4558,25.4558 -12.7279,12.7279 -25.4558,-25.4558 12.7279,-12.7279 "/>
<path d="M 75.6,138.856 l 25.4558,-25.4558 12.7279,12.7279 -25.4558,25.4558 -12.7279,-12.7279 "/>
<path d="M 63.1279,126 l 25.4558,25.4558 -12.7279,12.7279 -25.4558,-25.4558 12.7279,-12.7279 "/>
<path d="M 75.6,164.056 l 25.4558,-25.4558 12.7279,12.7279 -25.4558,25.4558 -12.7279,-12.7279 "/>
<path d="M 63.1279,151.2 l 25.4558,25.4558 -12.7279,12.7279 -25.4558,-25.4558 12.7279,-12.7279 "/>
<path d="M 75.6,189.256 l 25.4558,-25.4558 12.7279,12.7279 -25.4558,25.4558 -12.7279,-12.7279 "/>
<path d="M 63.1279,176.4 l 25.4558,25.4558 -12.7279,12.7279 -25.4558,-25.4558 12.7279,-12.7279 "/>
<path d="M 75.6,214.456 l 25.4558,-25.4558 12.7279,12.7279 -25.4558,25.4558 -12.7279,-12.7279 "/>
<path d="M 63.1279,201.6 l 25.4558,25.4558 -12.7279,12.7279 -25.4558,-25.4558 12.7279,-12.7279 "/>
<path d="M 75.6,239.656 l 25.4558,-25.4558 12.7279,12.7279 -25.4558,25.4558 -12.7279,-12.7279 "/>
<path d="M 63.1279,226.8 l 25.4558,25.4558 -12.7279,12.7279 -25.4558,-25.4558 12.7279,-12.7279 "/>
<path d="M 75.6,264.856 l 25.4558,-25.4558 12.7279,12.7279 -25.4558,25.4558 -12.7279,-12.7279 "/>
<path d="M 63.1279,252 l 25.4558,25.4558 -12.7279,12.7279 -25.4558,-25.4558 12.7279,-12.7279 "/>
<path d="M 75.6,290.056 l 25.4558,-25.4558 12.7279,12.7279 -25.4558,25.4558 -12.7279,-12.7279 "/>
<path d="M 63.1279,277.2 l 25.4558,25.4558 -12.7279,12.7279 -25.4558,-25.4558 12.7279,-12.7279 "/>
<path d="M 75.6,315.256 l 25.4558,-25.4558 12.7279,12.7279 -25.4558,25.4558 -12.7279,-12.7279 "/>
<path d="M 63.1279,302.4 l 25.4558,25.4558 -12.7279,12.7279 -25.4558,-25.4558 12.7279,-12.7279 "/>
<path d="M 75.6,340.456 l 25.4558,-25.4558 12.7279,12.7279 -25.4558,25.4558 -12.7279,-12.7279 "/>
<path d="M 63.1279,327.6 l 25.4558,25.4558 -12.7279,12.7279 -25.4558,-25.4558 12.7279,-12.7279 "/>
<path d="M 75.6,365.656 l 25.4558,-25.4558 12.7279,12.7279 -25.4558,25.4558 -12.7279,-12.7279 "/>
<path d="M 63.1279,352.8 l 25.4558,25.4558 -12.7279,12.7279 -25.4558,-25.4558 12.7279,-12.7279 "/>
<path d="M 75.6,390.856 l 25.4558,-25.4558 12.7279,12.7279 -25.4558,25.4558 -12.7279,-12.7279 "/>
<path d="M 113.528,3.55271e-15 l 25.4558,25.4558 -12.7279,12.7279 -25.4558,-25.4558 12.7279,-12.7279 "/>
<path d="M 126,38.0558 l 25.4558,-25.4558 12.7279,12.7279 -25.4558,25.4558 -12.7279,-12.7279 "/>
<path d="M 113.528,25.2 l 25.4558,25.4558 -12.7279,12.7279 -25.4558,-25.4558 12.7279,-12.7279 "/>
<path d="M 126,63.2558 l 25.4558,-25.4558 12.7279,12.7279 -25.4558,25.4558 -12.7279,-12.7279 "/>
<path d="M 113.528,50.4 l 25.4558,25.4558 -12.7279,12.7279 -25.4558,-25.4558 12.7279,-12.7279 "/>
<path d="M 126,88.4558 l 25.4558,-25.4558 12.7279,12.7279 -25.4558,25.4558 -12.7279,-12.7279 "/>
<path d="M 113.528,75.6 l 25.4558,25.4558 -12.7279,12.7279 -25.4558,-25.4558 12.7279,-12.7279 "/>
<path d="M 126,113.656 l 25.4558,-25.4558 12.7279,12.7279 -25.4558,25.4558 -12.7279,-12.7279 "/>
<path d="M 113.528,100.8 l 25.4558,25.4558 -12.7279,12.7279 -25.4558,-25.4558 12.7279,-12.7279 "/>
<path d="M 126,138.856 l 25.4558,-25.4558 12.7279,12.7279 -25.4558,25.4558 -12.7279,-12.7279 "/>
<path d="M 113.528,126 l 25.4558,25.4558 -12.7279,12.7279 -25.4558,-25.4558 12.7279,-12.7279 "/>
<path d="M 126,164.056 l 25.4558,-25.4558 12.7279,12.7279 -25.4558,25.4558 -12.7279,-12.7279 "/>
<path d="M 113.528,151.2 l 25.4558,25.4558 -12.7279,12.7279 -25.4558,-25.4558 12.7279,-12.7279 "/>
<path d="M 126,189.256 l 25.4558,-25.4558 12.7279,12.7279 -25.4558,25.4558 -12.7279,-12.7279 "/>
<path d="M 113.528,176.4 l 25.4558,25.4558 -12.7279,12.7279 -25.4558,-25.4558 12.7279,-12.7279 "/>
<path d="M 126,214.456 l 25.4558,-25.4558 12.7279,12.7279 -25.4558,25.4558 -12.7279,-12.7279 "/>
<path d="M 113.528,201.6 l 25.4558,25.4558 -12.7279,12.7279 -25.4558,-25.4558 12.7279,-12.7279 "/>
<path d="M 126,239.656 l 25.4558,-25.4558 12.7279,12.7279 -25.4558,25.4558 -12.7279,-12.7279 "/>
<path d="M 113.528,226.8 l 25.4558,25.4558 -12.7279,12.7279 -25.4558,-25.4558 12.7279,-12.7279 "/>
<path d="M 126,264.856 l 25.4558,-25.4558 12.7279,12.7279 -25.4558,25.4558 -12.7279,-12.7279 "/>
<path d="M 113.528,252 l 25.4558,25.4558 -12.7279,12.7279 -25.4558,-25.4558 12.7279,-12.7279 "/>
<path d="M 126,290.056 l 25.4558,-25.4558 12.7279,12.7279 -25.4558,25.4558 -12.7279,-12.7279 "/>
<path d="M 113.528,277.2 l 25.4558,25.4558 -12.7279,12.7279 -25.4558,-25.4558 12.7279,-12.7279 "/>
<path d="M 126,315.256 l 25.4558,-25.4558 12.7279,12.7279 -25.4558,25.4558 -12.7279,-12.7279 "/>
<path d="M 113.528,302.4 l 25.4558,25.4558 -12.7279,12.7279 -25.4558,-25.4558 12.7279,-12.7279 "/>
<path d="M 126,340.456 l 25.4558,-25.4558 12.7279,12.7279 -25.4558,25.4558 -12.7279,-12.7279 "/>
<path d="M 113.528,327.6 l 25.4558,25.4558 -12.7279,12.7279 -25.4558,-25.4558 12.7279,-12.7279 "/>
<path d="M 126,365.656 l 25.4558,-25.4558 12.7279,12.7279 -25.4558,25.4558 -12.7279,-12.7279 "/>
<path d="M 113.528,352.8 l 25.4558,25.4558 -12.7279,12.7279 -25.4558,-25.4558 12.7279,-12.7279 "/>
<path d="M 126,390.856 l 25.4558,-25.4558 12.7279,12.7279 -25.4558,25.4558 -12.7279,-12.7279 "/>
<path d="M 163.928,3.55271e-15 l 25.4558,25.4558 -12.7279,12.7279 -25.4558,-25.4558 12.7279,-12.7279 "/>
<path d="M 176.4,38.0558 l 25.4558,-25.4558 12.7279,12.7279 -25.4558,25.4558 -12.7279,-12.7279 "/>
<path d="M 163.928,25.2 l 25.4558,25.4558 -12.7279,12.7279 -25.4558,-25.4558 12.7279,-12.7279 "/>
<path d="M 176.4,63.2558 l 25.4558,-25.4558 12.7279,12.7279 -25.4558,25.4558 -12.7279,-12.7279 "/>
<path d="M 163.928,50.4 l 25.4558,25.4558 -12.7279,12.7279 -25.4558,-25.4558 12.7279,-12.7279 "/>
<path d="M 176.4,88.4558 l 25.4558,-25.4558 12.7279,12.7279 -25.4558,25.4558 -12.7279,-12.7279 "/>
<path d="M 163.928,75.6 l 25.4558,25.4558 -12.7279,12.7279 -25.4558,-25.4558 12.7279,-12.7279 "/>
<path d="M 176.4,113.656 l 25.4558,-25.4558 12.7279,12.7279 -25.4558,25.4558 -12.7279,-12.7279 "/>
<path d="M 163.928,100.8 l 25.4558,25.4558 -12.7279,12.7279 -25.4558,-25.4558 12.7279,-12.7279 "/>
<path d="M 176.4,138.856 l 25.4558,-25.4558 12.7279,12.7279 -25.4558,25.4558 -12.7279,-12.7279 "/>
<path d="M 163.928,126 l 25.4558,25.4558 -12.7279,12.7279 -25.4558,-25.4558 12.7279,-12.7279 "/>
<path d="M 176.4,164.056 l 25.4558,-25.4558 12.7279,12.7279 -25.4558,25.4558 -12.7279,-12.7279 "/>
<path d="M 163.928,151.2 l 25.4558,25.4558 -12.7279,12.7279 -25.4558,-25.4558 12.7279,-12.7279 "/>
<path d="M 176.4,189.256 l 25.4558,-25.4558 12.7279,12.7279 -25.4558,25.4558 -12.7279,-12.7279 "/>
<path d="M 163.928,176.4 l 25.4558,25.4558 -12.7279,12.7279 -25.4558,-25.4558 12.7279,-12.7279 "/>
<path d="M 176.4,214.456 l 25.4558,-25.4558 12.7279,12.7279 -25.4558,25.4558 -12.7279,-12.7279 "/>
<path d="M 163.928,201.6 l 25.4558,25.4558 -12.7279,12.7279 -25.4558,-25.4558 12.7279,-12.7279 "/>
<path d="M 176.4,239.656 l 25.4558,-25.4558 12.7279,12.7279 -25.4558,25.4558 -12.7279,-12.7279 "/>
<path d="M 163.928,226.8 l 25.4558,25.4558 -12.7279,12.7279 -25.4558,-25.4558 12.7279,-12.7279 "/>
<path d="M 176.4,264.856 l 25.4558,-25.4558 12.7279,12.7279 -25.4558,25.4558 -12.7279,-12.7279 "/>
<path d="M 163.928,252 l 25.4558,25.4558 -12.7279,12.7279 -25.4558,-25.4558 12.7279,-12.7279 "/>
<path d="M 176.4,290.056 l 25.4558,-25.4558 12.7279,12.7279 -25.4558,25.4558 -12.7279,-12.7279 "/>
<path d="M 163.928,277.2 l 25.4558,25.4558 -12.7279,12.7279 -25.4558,-25.4558 12.7279,-12.7279 "/>
<path d="M 176.4,315.256 l 25.4558,-25.4558 12.7279,12.7279 -25.4558,25.4558 -12.7279,-12.7279 "/>
<path d="M 163.928,302.4 l 25.4558,25.4558 -12.7279,12.7279 -25.4558,-25.4558 12.7279,-12.7279 "/>
<path d="M 176.4,340.456 l 25.4558,-25.4558 12.7279,12.7279 -25.4558,25.4558 -12.7279,-12.7279 "/>
<path d="M 163.928,327.6 l 25.4558,25.4558 -12.7279,12.7279 -25.4558,-25.4558 12.7279,-12.7279 "/>
<path d="M 176.4,365.656 l 25.4558,-25.4558 12.7279,12.7279 -25.4558,25.4558 -12.7279,-12.7279 "/>
<path d="M 163.928,352.8 l 25.4558,25.4558 -12.7279,12.7279 -25.4558,-25.4558 12.7279,-12.7279 "/>
<path d="M 176.4,390.856 l 25.4558,-25.4558 12.7279,12.7279 -25.4558,25.4558 -12.7279,-12.7279 "/>
<path d="M 214.328,3.55271e-15 l 25.4558,25.4558 -12.7279,12.7279 -25.4558,-25.4558 12.7279,-12.7279 "/>
<path d="M 226.8,38.0558 l 25.4558,-25.4558 12.7279,12.7279 -25.4558,25.4558 -12.7279,-12.7279 "/>
<path d="M 214.328,25.2 l 25.4558,25.4558 -12.7279,12.7279 -25.4558,-25.4558 12.7279,-12.7279 "/>
<path d="M 226.8,63.2558 l 25.4558,-25.4558 12.7279,12.7279 -25.4558,25.4558 -12.7279,-12.7279 "/>
<path d="M 214.328,50.4 l 25.4558,25.4558 -12.7279,12.7279 -25.4558,-25.4558 12.7279,-12.7279 "/>
<path d="M 226.8,88.4558 l 25.4558,-25.4558 12.7279,12.7279 -25.4558,25.4558 -12.7279,-12.7279 "/>
<path d="M 214.328,75.6 l 25.4558,25.4558 -12.7279,12.7279 -25.4558,-25.4558 12.7279,-12.7279 "/>
<path d="M 226.8,113.656 l 25.4558,-25.4558 12.7279,12.7279 -25.4558,25.4558 -12.7279,-12.7279 "/>
<path d="M 214.328,100.8 l 25.4558,25.4558 -12.7279,12.7279 -25.4558,-25.4558 12.7279,-12.7279 "/>
<path d="M 226.8,138.856 l 25.4558,-25.4558 12.7279,12.7279 -25.4558,25.4558 -12.7279,-12.7279 "/>
<path d="M 214.328,126 l 25.4558,25.4558 -12.7279,12.7279 -25.4558,-25.4558 12.7279,-12.7279 "/>
<path d="M 226.8,164.056 l 25.4558,-25.4558 12.7279,12.7279 -25.4558,25.4558 -12.7279,-12.7279 "/>
<path d="M 214.328,151.2 l 25.4558,25.4558 -12.7279,12.7279 -25.4558,-25.4558 12.7279,-12.7279 "/>
<path d="M 226.8,189.256 l 25.4558,-25.4558 12.7279,12.7279 -25.4558,25.4558 -12.7279,-12.7279 "/>
<path d="M 214.328,176.4 l 25.4558,25.4558 -12.7279,12.7279 -25.4558,-25.4558 12.7279,-12.7279 "/>
<path d="M 226.8,214.456 l 25.4558,-25.4558 12.7279,12.7279 -25.4558,25.4558 -12.7279,-12.7279 "/>
<path d="M 214.328,201.6 l 25.4558,25.4558 -12.7279,12.7279 -25.4558,-25.4558 12.7279,-12.7279 "/>
<path d="M 226.8,239.656 l 25.4558,-25.4558 12.7279,12.7279 -25.4558,25.4558 -12.7279,-12.7279 "/>
<path d="M 214.328,226.8 l 25.4558,25.4558 -12.7279,12.7279 -25.4558,-25.4558 12.7279,-12.7279 "/>
<path d="M 226.8,264.856 l 25.4558,-25.4558 12.7279,12.7279 -25.4558,25.4558 -12.7279,-12.7279 "/>
<path d="M 214.328,252 l 25.4558,25.4558 -12.7279,12.7279 -25.4558,-25.4558 12.7279,-12.7279 "/>
<path d="M 226.8,290.056 l 25.4558,-25.4558 12.7279,12.7279 -25.4558,25.4558 -12.7279,-12.7279 "/>
<path d="M 214.328,277.2 l 25.4558,25.4558 -12.7279,12.7279 -25.4558,-25.4558 12.7279,-12.7279 "/>
<path d="M 226.8,315.256 l 25.4558,-25.4558 12.7279,12.7279 -25.4558,25.4558 -12.7279,-12.7279 "/>
<path d="M 214.328,302.4 l 25.4558,25.4558 -12.7279,12.7279 -25.4558,-25.4558 12.7279,-12.7279 "/>
<path d="M 226.8,340.456 l 25.4558,-25.4558 12.7279,12.7279 -25.4558,25.4558 -12.7279,-12.7279 "/>
<path d="M 214.328,327.6 l 25.4558,25.4558 -12.7279,12.7279 -25.4558,-25.4558 12.7279,-12.7279 "/>
<path d="M 226.8,365.656 l 25.4558,-25.4558 12.7279,12.7279 -25.4558,25.4558 -12.7279,-12.7279 "/>
<path d="M 214.328,352.8 l 25.4558,25.4558 -12.7279,12.7279 -25.4558,-25.4558 12.7279,-12.7279 "/>
<path d="M 226.8,390.856 l 25.4558,-25.4558 12.7279,12.7279 -25.4558,25.4558 -12.7279,-12.7279 "/>
<path d="M 264.728,3.55271e-15 l 25.4558,25.4558 -12.7279,12.7279 -25.4558,-25.4558 12.7279,-12.7279 "/>
<path d="M 277.2,38.0558 l 25.4558,-25.4558 12.7279,12.7279 -25.4558,25.4558 -12.7279,-12.7279 "/>
<path d="M 264.728,25.2 l 25.4558,25.4558 -12.7279,12.7279 -25.4558,-25.4558 12.7279,-12.7279 "/>
<path d="M 277.2,63.2558 l 25.4558,-25.4558 12.7279,12.7279 -25.4558,25.4558 -12.7279,-12.7279 "/>
<path d="M 264.728,50.4 l 25.4558,25.4558 -12.7279,12.7279 -25.4558,-25.4558 12.7279,-12.7279 "/>
<path d="M 277.2,88.4558 l 25.4558,-25.4558 12.7279,12.7279 -25.4558,25.4558 -12.7279,-12.7279 "/>
<path d="M 264.728,75.6 l 25.4558,25.4558 -12.7279,12.7279 -25.4558,-25.4558 12.7279,-12.7279 "/>
<path d="M 277.2,113.656 l 25.4558,-25.4558 12.7279,12.7279 -25.4558,25.4558 -12.7279,-12.7279 "/>
<path d="M 264.728,100.8 l 25.4558,25.4558 -12.7279,12.7279 -25.4558,-25.4558 12.7279,-12.7279 "/>
<path d="M 277.2,138.856 l 25.4558,-25.4558 12.7279,12.7279 -25.4558,25.4558 -12.7279,-12.7279 "/>
<path d="M 264.728,126 l 25.4558,25.4558 -12.7279,12.7279 -25.4558,-25.4558 12.7279,-12.7279 "/>
<path d="M 277.2,164.056 l 25.4558,-25.4558 12.7279,12.7279 -25.4558,25.4558 -12.7279,-12.7279 "/>
<path d="M 264.728,151.2 l 25.4558,25.4558 -12.7279,12.7279 -25.4558,-25.4558 12.7279,-12.7279 "/>
<path d="M 277.2,189.256 l 25.4558,-25.4558 12.7279,12.7279 -25.4558,25.4558 -12.7279,-12.7279 "/>
<path d="M 264.728,176.4 l 25.4558,25.4558 -12.7279,12.7279 -25.4558,-25.4558 12.7279,-12.7279 "/>
<path d="M 277.2,214.456 l 25.4558,-25.4558 12.7279,12.7279 -25.4558,25.4558 -12.7279,-12.7279 "/>
<path d="M 264.728,201.6 l 25.4558,25.4558 -12.7279,12.7279 -25.4558,-25.4558 12.7279,-12.7279 "/>
<path d="M 277.2,239.656 l 25.4558,-25.4558 12.7279,12.7279 -25.4558,25.4558 -12.7279,-12.7279 "/>
<path d="M 264.728,226.8 l 25.4558,25.4558 -12.7279,12.7279 -25.4558,-25.4558 12.7279,-12.7279 "/>
<path d="M 277.2,264.856 l 25.4558,-25.4558 12.7279,12.7279 -25.4558,25.4558 -12.7279,-12.7279 "/>
<path d="M 264.728,252 l 25.4558,25.4558 -12.7279,12.7279 -25.4558,-25.4558 12.7279,-12.7279 "/>
<path d="M 277.2,290.056 l 25.4558,-25.4558 12.7279,12.7279 -25.4558,25.4558 -12.7279,-12.7279 "/>
<path d="M 264.728,277.2 l 25.4558,25.4558 -12.7279,12.7279 -25.4558,-25.4558 12.7279,-12.7279 "/>
<path d="M 277.2,315.256 l 25.4558,-25.4558 12.7279,12.7279 -25.4558,25.4558 -12.7279,-12.7279 "/>
<path d="M 264.728,302.4 l 25.4558,25.4558 -12.7279,12.7279 -25.4558,-25.4558 12.7279,-12.7279 "/>
<path d="M 277.2,340.456 l 25.4558,-25.4558 12.7279,12.7279 -25.4558,25.4558 -12.7279,-12.7279 "/>
<path d="M 264.728,327.6 l 25.4558,25.4558 -12.7279,12.7279 -25.4558,-25.4558 12.7279,-12.7279 "/>
<path d="M 277.2,365.656 l 25.4558,-25.4558 12.7279,12.7279 -25.4558,25.4558 -12.7279,-12.7279 "/>
<path d="M 264.728,352.8 l 25.4558,25.4558 -12.7279,12.7279 -25.4558,-25.4558 12.7279,-12.7279 "/>
<path d="M 277.2,390.856 l 25.4558,-25.4558 12.7279,12.7279 -25.4558,25.4558 -12.7279,-12.7279 "/>
<path d="M 315.128,3.55271e-15 l 25.4558,25.4558 -12.7279,12.7279 -25.4558,-25.4558 12.7279,-12.7279 "/>
<path d="M 327.6,38.0558 l 25.4558,-25.4558 12.7279,12.7279 -25.4558,25.4558 -12.7279,-12.7279 "/>
<path d="M 315.128,25.2 l 25.4558,25.4558 -12.7279,12.7279 -25.4558,-25.4558 12.7279,-12.7279 "/>
<path d="M 327.6,63.2558 l 25.4558,-25.4558 12.7279,12.7279 -25.4558,25.4558 -12.7279,-12.7279 "/>
<path d="M 315.128,50.4 l 25.4558,25.4558 -12.7279,12.7279 -25.4558,-25.4558 12.7279,-12.7279 "/>
<path d="M 327.6,88.4558 l 25.4558,-25.4558 12.7279,12.7279 -25.4558,25.4558 -12.7279,-12.7279 "/>
<path d="M 315.128,75.6 l 25.4558,25.4558 -12.7279,12.7279 -25.4558,-25.4558 12.7279,-12.7279 "/>
<path d="M 327.6,113.656 l 25.4558,-25.4558 12.7279,12.7279 -25.4558,25.4558 -12.7279,-12.7279 "/>
<path d="M 315.128,100.8 l 25.4558,25.4558 -12.7279,12.7279 -25.4558,-25.4558 12.7279,-12.7279 "/>
<path d="M 327.6,138.856 l 25.4558,-25.4558 12.7279,12.7279 -25.4558,25.4558 -12.7279,-12.7279 "/>
<path d="M 315.128,126 l 25.4558,25.4558 -12.7279,12.7279 -25.4558,-25.4558 12.7279,-12.7279 "/>
<path d="M 327.6,164.056 l 25.4558,-25.4558 12.7279,12.7279 -25.4558,25.4558 -12.7279,-12.7279 "/>
<path d="M 315.128,151.2 l 25.4558,25.4558 -12.7279,12.7279 -25.4558,-25.4558 12.7279,-12.7279 "/>
<path d="M 327.6,189.256 l 25.4558,-25.4558 12.7279,12.7279 -25.4558,25.4558 -12.7279,-12.7279 "/>
<path d="M 315.128,176.4 l 25.4558,25.4558 -12.7279,12.7279 -25.4558,-25.4558 12.7279,-12.7279 "/>
<path d="M 327.6,214.456 l 25.4558,-25.4558 12.7279,12.7279 -25.4558,25.4558 -12.7279,-12.7279 "/>
<path d="M 315.128,201.6 l 25.4558,25.4558 -12.7279,12.7279 -25.4558,-25.4558 12.7279,-12.7279 "/>
<path d="M 327.6,239.656 l 25.4558,-25.4558 12.7279,12.7279 -25.4558,25.4558 -12.7279,-12.7279 "/>
<path d="M 315.128,226.8 l 25.4558,25.4558 -12.7279,12.7279 -25.4558,-25.4558 12.7279,-12.7279 "/>
<path d="M 327.6,264.856 l 25.4558,-25.4558 12.7279,12.7279 -25.4558,25.4558 -12.7279,-12.7279 "/>
<path d="M 315.128,252 l 25.4558,25.4558 -12.7279,12.7279 -25.4558,-25.4558 12.7279,-12.7279 "/>
<path d="M 327.6,290.056 l 25.4558,-25.4558 12.7279,12.7279 -25.4558,25.4558 -12.7279,-12.7279 "/>
<path d="M 315.128,277.2 l 25.4558,25.4558 -12.7279,12.7279 -25.4558,-25.4558 12.7279,-12.7279 "/>
<path d="M 327.6,315.256 l 25.4558,-25.4558 12.7279,12.7279 -25.4558,25.4558 -12.7279,-12.7279 "/>
<path d="M 315.128,302.4 l 25.4558,25.4558 -12.7279,12.7279 -25.4558,-25.4558 12.7279,-12.7279 "/>
<path d="M 327.6,340.456 l 25.4558,-25.4558 12.7279,12.7279 -25.4558,25.4558 -12.7279,-12.7279 "/>
<path d="M 315.128,327.6 l 25.4558,25.4558 -12.7279,12.7279 -25.4558,-25.4558 12.7279,-12.7279 "/>
<path d="M 327.6,365.656 l 25.4558,-25.4558 12.7279,12.7279 -25.4558,25.4558 -12.7279,-12.7279 "/>
<path d="M 315.128,352.8 l 25.4558,25.4558 -12.7279,12.7279 -25.4558,-25.4558 12.7279,-12.7279 "/>
<path d="M 327.6,390.856 l 25.4558,-25.4558 12.7279,12.7279 -25.4558,25.4558 -12.7279,-12.7279 "/>
<path d="M 365.528,3.55271e-15 l 25.4558,25.4558 -12.7279,12.7279 -25.4558,-25.4558 12.7279,-12.7279 "/>
<path d="M 378,38.0558 l 25.4558,-25.4558 12.7279,12.7279 -25.4558,25.4558 -12.7279,-12.7279 "/>
<path d="M 365.528,25.2 l 25.4558,25.4558 -12.7279,12.7279 -25.4558,-25.4558 12.7279,-12.7279 "/>
<path d="M 378,63.2558 l 25.4558,-25.4558 12.7279,12.7279 -25.4558,25.4558 -12.7279,-12.7279 "/>
<path d="M 365.528,50.4 l 25.4558,25.4558 -12.7279,12.7279 -25.4558,-25.4558 12.7279,-12.7279 "/>
<path d="M 378,88.4558 l 25.4558,-25.4558 12.7279,12.7279 -25.4558,25.4558 -12.7279,-12.7279 "/>
<path d="M 365.528,75.6 l 25.4558,25.4558 -12.7279,12.7279 -25.4558,-25.4558 12.7279,-12.7279 "/>
<path d="M 378,113.656 l 25.4558,-25.4558 12.7279,12.7279 -25.4558,25.4558 -12.7279,-12.7279 "/>
<path d="M 365.528,100.8 l 25.4558,25.4558 -12.7279,12.7279 -25.4558,-25.4558 12.7279,-12.7279 "/>
<path d="M 378,138.856 l 25.4558,-25.4558 12.7279,12.7279 -25.4558,25.4558 -12.7279,-12.7279 "/>
<path d="M 365.528,126 l 25.4558,25.4558 -12.7279,12.7279 -25.4558,-25.4558 12.7279,-12.7279 "/>
<path d="M 378,164.056 l 25.4558,-25.4558 12.7279,12.7279 -25.4558,25.4558 -12.7279,-12.7279 "/>
<path d="M 365.528,151.2 l 25.4558,25.4558 -12.7279,12.7279 -25.4558,-25.4558 12.7279,-12.7279 "/>
<path d="M 378,189.256 l 25.4558,-25.4558 12.7279,12.7279 -25.4558,25.4558 -12.7279,-12.7279 "/>
<path d="M 365.528,176.4 l 25.4558,25.4558 -12.7279,12.7279 -25.4558,-25.4558 12.7279,-12.7279 "/>
<path d="M 378,214.456 l 25.4558,-25.4558 12.7279,12.7279 -25.4558,25.4558 -12.7279,-12.7279 "/>
<path d="M 365.528,201.6 l 25.4558,25.4558 -12.7279,12.7279 -25.4558,-25.4558 12.7279,-12.7279 "/>
<path d="M 378,239.656 l 25.4558,-25.4558 12.7279,12.7279 -25.4558,25.4558 -12.7279,-12.7279 "/>
<path d="M 365.528,226.8 l 25.4558,25.4558 -12.7279,12.7279 -25.4558,-25.4558 12.7279,-12.7279 "/>
<path d="M 378,264.856 l 25.4558,-25.4558 12.7279,12.7279 -25.4558,25.4558 -12.7279,-12.7279 "/>
<path d="M 365.528,252 l 25.4558,25.4558 -12.7279,12.7279 -25.4558,-25.4558 12.7279,-12.7279 "/>
<path d="M 378,290.056 l 25.4558,-25.4558 12.7279,12.7279 -25.4558,25.4558 -12.7279,-12.7279 "/>
<path d="M 365.528,277.2 l 25.4558,25.4558 -12.7279,12.7279 -25.4558,-25.4558 12.7279,-12.7279 "/>
<path d="M 378,315.256 l 25.4558,-25.4558 12.7279,12.7279 -25.4558,25.4558 -12.7279,-12.7279 "/>
<path d="M 365.528,302.4 l 25.4558,25.4558 -12.7279,12.7279 -25.4558,-25.4558 12.7279,-12.7279 "/>
<path d="M 378,340.456 l 25.4558,-25.4558 12.7279,12.7279 -25.4558,25.4558 -12.7279,-12.7279 "/>
<path d="M 365.528,327.6 l 25.4558,25.4558 -12.7279,12.7279 -25.4558,-25.4558 12.7279,-12.7279 "/>
<path d="M 378,365.656 l 25.4558,-25.4558 12.7279,12.7279 -25.4558,25.4558 -12.7279,-12.7279 "/>
<path d="M 365.528,352.8 l 25.4558,25.4558 -12.7279,12.7279 -25.4558,-25.4558 12.7279,-12.7279 "/>
<path d="M 378,390.856 l 25.4558,-25.4558 12.7279,12.7279 -25.4558,25.4558 -12.7279,-12.7279 "/>
</g></g></svg>