<?xml version="1.0" encoding="UTF-8" standalone="no"?>
<!DOCTYPE svg PUBLIC "-//W3C//DTD SVG 1.1//EN" "http://www.w3.org/Graphics/SVG/1.1/DTD/svg11-flat.dtd"
[
<!ATTLIST g xmlns:fme CDATA #FIXED "http://www.safe.com/fme" >
<!ATTLIST path fme:_creation_instance CDATA #IMPLIED fme:i CDATA #IMPLIED >
<!ATTLIST ellipse fme:_creation_instance CDATA #IMPLIED fme:i CDATA #IMPLIED >
<!ATTLIST text fme:_creation_instance CDATA #IMPLIED fme:i CDATA #IMPLIED >
<!ATTLIST use fme:_creation_instance CDATA #IMPLIED fme:i CDATA #IMPLIED >
]>
<svg xmlns="http://www.w3.org/2000/svg"  viewBox="-6.81995 -6.81995 559.236 463.64"><g xmlns:fme="http://www.safe.com/fme" fill="none" stroke="black" stroke-width="0.068199500548025" transform="translate(0,450) scale(1, -1)">
<g id="test" >
<path d="M 77.9423,45 m -0.340998,-0.340998 l 0,0.681995 0.681995,0 0,-0.681995 z "/>
<path d="M 51.9615,30 m -0.340998,-0.340998 l 0,0.681995 0.681995,0 0,-0.681995 z "/>
<path d="M 51.9615,0 m -0.340998,-0.340998 l 0,0.681995 0.681995,0 0,-0.681995 z "/>
<path d="M 51.9615,30 m -0.340998,-0.340998 l 0,0.681995 0.681995,0 0,-0.681995 z "/>
<path d="M 25.9808,45 m -0.340998,-0.340998 l 0,0.681995 0.681995,0 0,-0.681995 z "/>
<path d="M 51.9615,30 m -0.340998,-0.340998 l 0,0.681995 0.681995,0 0,-0.681995 z "/>
<path d="M 129.904,45 m -0.340998,-0.340998 l 0,0.681995 0.681995,0 0,-0.681995 z "/>
<path d="M 103.923,30 m -0.340998,-0.340998 l 0,0.681995 0.681995,0 0,-0.681995 z "/>
<path d="M 103.923,0 m -0.340998,-0.340998 l 0,0.681995 0.681995,0 0,-0.681995 z "/>
<path d="M 103.923,30 m -0.340998,-0.340998 l 0,0.681995 0.681995,0 0,-0.681995 z "/>
<path d="M 77.9423,45 m -0.340998,-0.340998 l 0,0.681995 0.681995,0 0,-0.681995 z "/>
<path d="M 103.923,30 m -0.340998,-0.340998 l 0,0.681995 0.681995,0 0,-0.681995 z "/>
<path d="M 181.865,45 m -0.340998,-0.340998 l 0,0.681995 0.681995,0 0,-0.681995 z "/>
<path d="M 155.885,30 m -0.340998,-0.340998 l 0,0.681995 0.681995,0 0,-0.681995 z "/>
<path d="M 155.885,0 m -0.340998,-0.340998 l 0,0.681995 0.681995,0 0,-0.681995 z "/>
<path d="M 155.885,30 m -0.340998,-0.340998 l 0,0.681995 0.681995,0 0,-0.681995 z "/>
<path d="M 129.904,45 m -0.340998,-0.340998 l 0,0.681995 0.681995,0 0,-0.681995 z "/>
<path d="M 155.885,30 m -0.340998,-0.340998 l 0,0.681995 0.681995,0 0,-0.681995 z "/>
<path d="M 233.827,45 m -0.340998,-0.340998 l 0,0.681995 0.681995,0 0,-0.681995 z "/>
<path d="M 207.846,30 m -0.340998,-0.340998 l 0,0.681995 0.681995,0 0,-0.681995 z "/>
<path d="M 207.846,0 m -0.340998,-0.340998 l 0,0.681995 0.681995,0 0,-0.681995 z "/>
<path d="M 207.846,30 m -0.340998,-0.340998 l 0,0.681995 0.681995,0 0,-0.681995 z "/>
<path d="M 181.865,45 m -0.340998,-0.340998 l 0,0.681995 0.681995,0 0,-0.681995 z "/>
<path d="M 207.846,30 m -0.340998,-0.340998 l 0,0.681995 0.681995,0 0,-0.681995 z "/>
<path d="M 285.788,45 m -0.340998,-0.340998 l 0,0.681995 0.681995,0 0,-0.681995 z "/>
<path d="M 259.808,30 m -0.340998,-0.340998 l 0,0.681995 0.681995,0 0,-0.681995 z "/>
<path d="M 259.808,0 m -0.340998,-0.340998 l 0,0.681995 0.681995,0 0,-0.681995 z "/>
<path d="M 259.808,30 m -0.340998,-0.340998 l 0,0.681995 0.681995,0 0,-0.681995 z "/>
<path d="M 233.827,45 m -0.340998,-0.340998 l 0,0.681995 0.681995,0 0,-0.681995 z "/>
<path d="M 259.808,30 m -0.340998,-0.340998 l 0,0.681995 0.681995,0 0,-0.681995 z "/>
<path d="M 337.75,45 m -0.340998,-0.340998 l 0,0.681995 0.681995,0 0,-0.681995 z "/>
<path d="M 311.769,30 m -0.340998,-0.340998 l 0,0.681995 0.681995,0 0,-0.681995 z "/>
<path d="M 311.769,0 m -0.340998,-0.340998 l 0,0.681995 0.681995,0 0,-0.681995 z "/>
<path d="M 311.769,30 m -0.340998,-0.340998 l 0,0.681995 0.681995,0 0,-0.681995 z "/>
<path d="M 285.788,45 m -0.340998,-0.340998 l 0,0.681995 0.681995,0 0,-0.681995 z "/>
<path d="M 311.769,30 m -0.340998,-0.340998 l 0,0.681995 0.681995,0 0,-0.681995 z "/>
<path d="M 389.711,45 m -0.340998,-0.340998 l 0,0.681995 0.681995,0 0,-0.681995 z "/>
<path d="M 363.731,30 m -0.340998,-0.340998 l 0,0.681995 0.681995,0 0,-0.681995 z "/>
<path d="M 363.731,0 m -0.340998,-0.340998 l 0,0.681995 0.681995,0 0,-0.681995 z "/>
<path d="M 363.731,30 m -0.340998,-0.340998 l 0,0.681995 0.681995,0 0,-0.681995 z "/>
<path d="M 337.75,45 m -0.340998,-0.340998 l 0,0.681995 0.681995,0 0,-0.681995 z "/>
<path d="M 363.731,30 m -0.340998,-0.340998 l 0,0.681995 0.681995,0 0,-0.681995 z "/>
<path d="M 441.673,45 m -0.340998,-0.340998 l 0,0.681995 0.681995,0 0,-0.681995 z "/>
<path d="M 415.692,30 m -0.340998,-0.340998 l 0,0.681995 0.681995,0 0,-0.681995 z "/>
<path d="M 415.692,0 m -0.340998,-0.340998 l 0,0.681995 0.681995,0 0,-0.681995 z "/>
<path d="M 415.692,30 m -0.340998,-0.340998 l 0,0.681995 0.681995,0 0,-0.681995 z "/>
<path d="M 389.711,45 m -0.340998,-0.340998 l 0,0.681995 0.681995,0 0,-0.681995 z "/>
<path d="M 415.692,30 m -0.340998,-0.340998 l 0,0.681995 0.681995,0 0,-0.681995 z "/>
<path d="M 493.634,45 m -0.340998,-0.340998 l 0,0.681995 0.681995,0 0,-0.681995 z "/>
<path d="M 467.654,30 m -0.340998,-0.340998 l 0,0.681995 0.681995,0 0,-0.681995 z "/>
<path d="M 467.654,0 m -0.340998,-0.340998 l 0,0.681995 0.681995,0 0,-0.681995 z "/>
<path d="M 467.654,30 m -0.340998,-0.340998 l 0,0.681995 0.681995,0 0,-0.681995 z "/>
<path d="M 441.673,45 m -0.340998,-0.340998 l 0,0.681995 0.681995,0 0,-0.681995 z "/>
<path d="M 467.654,30 m -0.340998,-0.340998 l 0,0.681995 0.681995,0 0,-0.681995 z "/>
<path d="M 545.596,45 m -0.340998,-0.340998 l 0,0.681995 0.681995,0 0,-0.681995 z "/>
<path d="M 519.615,30 m -0.340998,-0.340998 l 0,0.681995 0.681995,0 0,-0.681995 z "/>
<path d="M 519.615,0 m -0.340998,-0.340998 l 0,0.681995 0.681995,0 0,-0.681995 z "/>
<path d="M 519.615,30 m -0.340998,-0.340998 l 0,0.681995 0.681995,0 0,-0.681995 z "/>
<path d="M 493.634,45 m -0.340998,-0.340998 l 0,0.681995 0.681995,0 0,-0.681995 z "/>
<path d="M 519.615,30 m -0.340998,-0.340998 l 0,0.681995 0.681995,0 0,-0.681995 z "/>
<path d="M 51.9615,90 m -0.340998,-0.340998 l 0,0.681995 0.681995,0 0,-0.681995 z "/>
<path d="M 25.9808,75 m -0.340998,-0.340998 l 0,0.681995 0.681995,0 0,-0.681995 z "/>
<path d="M 25.9808,45 m -0.340998,-0.340998 l 0,0.681995 0.681995,0 0,-0.681995 z "/>
<path d="M 25.9808,75 m -0.340998,-0.340998 l 0,0.681995 0.681995,0 0,-0.681995 z "/>
<path d="M 0,90 m -0.340998,-0.340998 l 0,0.681995 0.681995,0 0,-0.681995 z "/>
<path d="M 25.9808,75 m -0.340998,-0.340998 l 0,0.681995 0.681995,0 0,-0.681995 z "/>
<path d="M 103.923,90 m -0.340998,-0.340998 l 0,0.681995 0.681995,0 0,-0.681995 z "/>
<path d="M 77.9423,75 m -0.340998,-0.340998 l 0,0.681995 0.681995,0 0,-0.681995 z "/>
<path d="M 77.9423,45 m -0.340998,-0.340998 l 0,0.681995 0.681995,0 0,-0.681995 z "/>
<path d="M 77.9423,75 m -0.340998,-0.340998 l 0,0.681995 0.681995,0 0,-0.681995 z "/>
<path d="M 51.9615,90 m -0.340998,-0.340998 l 0,0.681995 0.681995,0 0,-0.681995 z "/>
<path d="M 77.9423,75 m -0.340998,-0.340998 l 0,0.681995 0.681995,0 0,-0.681995 z "/>
<path d="M 155.885,90 m -0.340998,-0.340998 l 0,0.681995 0.681995,0 0,-0.681995 z "/>
<path d="M 129.904,75 m -0.340998,-0.340998 l 0,0.681995 0.681995,0 0,-0.681995 z "/>
<path d="M 129.904,45 m -0.340998,-0.340998 l 0,0.681995 0.681995,0 0,-0.681995 z "/>
<path d="M 129.904,75 m -0.340998,-0.340998 l 0,0.681995 0.681995,0 0,-0.681995 z "/>
<path d="M 103.923,90 m -0.340998,-0.340998 l 0,0.681995 0.681995,0 0,-0.681995 z "/>
<path d="M 129.904,75 m -0.340998,-0.340998 l 0,0.681995 0.681995,0 0,-0.681995 z "/>
<path d="M 207.846,90 m -0.340998,-0.340998 l 0,0.681995 0.681995,0 0,-0.681995 z "/>
<path d="M 181.865,75 m -0.340998,-0.340998 l 0,0.681995 0.681995,0 0,-0.681995 z "/>
<path d="M 181.865,45 m -0.340998,-0.340998 l 0,0.681995 0.681995,0 0,-0.681995 z "/>
<path d="M 181.865,75 m -0.340998,-0.340998 l 0,0.681995 0.681995,0 0,-0.681995 z "/>
<path d="M 155.885,90 m -0.340998,-0.340998 l 0,0.681995 0.681995,0 0,-0.681995 z "/>
<path d="M 181.865,75 m -0.340998,-0.340998 l 0,0.681995 0.681995,0 0,-0.681995 z "/>
<path d="M 259.808,90 m -0.340998,-0.340998 l 0,0.681995 0.681995,0 0,-0.681995 z "/>
<path d="M 233.827,75 m -0.340998,-0.340998 l 0,0.681995 0.681995,0 0,-0.681995 z "/>
<path d="M 233.827,45 m -0.340998,-0.340998 l 0,0.681995 0.681995,0 0,-0.681995 z "/>
<path d="M 233.827,75 m -0.340998,-0.340998 l 0,0.681995 0.681995,0 0,-0.681995 z "/>
<path d="M 207.846,90 m -0.340998,-0.340998 l 0,0.681995 0.681995,0 0,-0.681995 z "/>
<path d="M 233.827,75 m -0.340998,-0.340998 l 0,0.681995 0.681995,0 0,-0.681995 z "/>
<path d="M 311.769,90 m -0.340998,-0.340998 l 0,0.681995 0.681995,0 0,-0.681995 z "/>
<path d="M 285.788,75 m -0.340998,-0.340998 l 0,0.681995 0.681995,0 0,-0.681995 z "/>
<path d="M 285.788,45 m -0.340998,-0.340998 l 0,0.681995 0.681995,0 0,-0.681995 z "/>
<path d="M 285.788,75 m -0.340998,-0.340998 l 0,0.681995 0.681995,0 0,-0.681995 z "/>
<path d="M 259.808,90 m -0.340998,-0.340998 l 0,0.681995 0.681995,0 0,-0.681995 z "/>
<path d="M 285.788,75 m -0.340998,-0.340998 l 0,0.681995 0.681995,0 0,-0.681995 z "/>
<path d="M 363.731,90 m -0.340998,-0.340998 l 0,0.681995 0.681995,0 0,-0.681995 z "/>
<path d="M 337.75,75 m -0.340998,-0.340998 l 0,0.681995 0.681995,0 0,-0.681995 z "/>
<path d="M 337.75,45 m -0.340998,-0.340998 l 0,0.681995 0.681995,0 0,-0.681995 z "/>
<path d="M 337.75,75 m -0.340998,-0.340998 l 0,0.681995 0.681995,0 0,-0.681995 z "/>
<path d="M 311.769,90 m -0.340998,-0.340998 l 0,0.681995 0.681995,0 0,-0.681995 z "/>
<path d="M 337.75,75 m -0.340998,-0.340998 l 0,0.681995 0.681995,0 0,-0.681995 z "/>
<path d="M 415.692,90 m -0.340998,-0.340998 l 0,0.681995 0.681995,0 0,-0.681995 z "/>
<path d="M 389.711,75 m -0.340998,-0.340998 l 0,0.681995 0.681995,0 0,-0.681995 z "/>
<path d="M 389.711,45 m -0.340998,-0.340998 l 0,0.681995 0.681995,0 0,-0.681995 z "/>
<path d="M 389.711,75 m -0.340998,-0.340998 l 0,0.681995 0.681995,0 0,-0.681995 z "/>
<path d="M 363.731,90 m -0.340998,-0.340998 l 0,0.681995 0.681995,0 0,-0.681995 z "/>
<path d="M 389.711,75 m -0.340998,-0.340998 l 0,0.681995 0.681995,0 0,-0.681995 z "/>
<path d="M 467.654,90 m -0.340998,-0.340998 l 0,0.681995 0.681995,0 0,-0.681995 z "/>
<path d="M 441.673,75 m -0.340998,-0.340998 l 0,0.681995 0.681995,0 0,-0.681995 z "/>
<path d="M 441.673,45 m -0.340998,-0.340998 l 0,0.681995 0.681995,0 0,-0.681995 z "/>
<path d="M 441.673,75 m -0.340998,-0.340998 l 0,0.681995 0.681995,0 0,-0.681995 z "/>
<path d="M 415.692,90 m -0.340998,-0.340998 l 0,0.681995 0.681995,0 0,-0.681995 z "/>
<path d="M 441.673,75 m -0.340998,-0.340998 l 0,0.681995 0.681995,0 0,-0.681995 z "/>
<path d="M 519.615,90 m -0.340998,-0.340998 l 0,0.681995 0.681995,0 0,-0.681995 z "/>
<path d="M 493.634,75 m -0.340998,-0.340998 l 0,0.681995 0.681995,0 0,-0.681995 z "/>
<path d="M 493.634,45 m -0.340998,-0.340998 l 0,0.681995 0.681995,0 0,-0.681995 z "/>
<path d="M 493.634,75 m -0.340998,-0.340998 l 0,0.681995 0.681995,0 0,-0.681995 z "/>
<path d="M 467.654,90 m -0.340998,-0.340998 l 0,0.681995 0.681995,0 0,-0.681995 z "/>
<path d="M 493.634,75 m -0.340998,-0.340998 l 0,0.681995 0.681995,0 0,-0.681995 z "/>
<path d="M 77.9423,135 m -0.340998,-0.340998 l 0,0.681995 0.681995,0 0,-0.681995 z "/>
<path d="M 51.9615,120 m -0.340998,-0.340998 l 0,0.681995 0.681995,0 0,-0.681995 z "/>
<path d="M 51.9615,90 m -0.340998,-0.340998 l 0,0.681995 0.681995,0 0,-0.681995 z "/>
<path d="M 51.9615,120 m -0.340998,-0.340998 l 0,0.681995 0.681995,0 0,-0.681995 z "/>
<path d="M 25.9808,135 m -0.340998,-0.340998 l 0,0.681995 0.681995,0 0,-0.681995 z "/>
<path d="M 51.9615,120 m -0.340998,-0.340998 l 0,0.681995 0.681995,0 0,-0.681995 z "/>
<path d="M 129.904,135 m -0.340998,-0.340998 l 0,0.681995 0.681995,0 0,-0.681995 z "/>
<path d="M 103.923,120 m -0.340998,-0.340998 l 0,0.681995 0.681995,0 0,-0.681995 z "/>
<path d="M 103.923,90 m -0.340998,-0.340998 l 0,0.681995 0.681995,0 0,-0.681995 z "/>
<path d="M 103.923,120 m -0.340998,-0.340998 l 0,0.681995 0.681995,0 0,-0.681995 z "/>
<path d="M 77.9423,135 m -0.340998,-0.340998 l 0,0.681995 0.681995,0 0,-0.681995 z "/>
<path d="M 103.923,120 m -0.340998,-0.340998 l 0,0.681995 0.681995,0 0,-0.681995 z "/>
<path d="M 181.865,135 m -0.340998,-0.340998 l 0,0.681995 0.681995,0 0,-0.681995 z "/>
<path d="M 155.885,120 m -0.340998,-0.340998 l 0,0.681995 0.681995,0 0,-0.681995 z "/>
<path d="M 155.885,90 m -0.340998,-0.340998 l 0,0.681995 0.681995,0 0,-0.681995 z "/>
<path d="M 155.885,120 m -0.340998,-0.340998 l 0,0.681995 0.681995,0 0,-0.681995 z "/>
<path d="M 129.904,135 m -0.340998,-0.340998 l 0,0.681995 0.681995,0 0,-0.681995 z "/>
<path d="M 155.885,120 m -0.340998,-0.340998 l 0,0.681995 0.681995,0 0,-0.681995 z "/>
<path d="M 233.827,135 m -0.340998,-0.340998 l 0,0.681995 0.681995,0 0,-0.681995 z "/>
<path d="M 207.846,120 m -0.340998,-0.340998 l 0,0.681995 0.681995,0 0,-0.681995 z "/>
<path d="M 207.846,90 m -0.340998,-0.340998 l 0,0.681995 0.681995,0 0,-0.681995 z "/>
<path d="M 207.846,120 m -0.340998,-0.340998 l 0,0.681995 0.681995,0 0,-0.681995 z "/>
<path d="M 181.865,135 m -0.340998,-0.340998 l 0,0.681995 0.681995,0 0,-0.681995 z "/>
<path d="M 207.846,120 m -0.340998,-0.340998 l 0,0.681995 0.681995,0 0,-0.681995 z "/>
<path d="M 285.788,135 m -0.340998,-0.340998 l 0,0.681995 0.681995,0 0,-0.681995 z "/>
<path d="M 259.808,120 m -0.340998,-0.340998 l 0,0.681995 0.681995,0 0,-0.681995 z "/>
<path d="M 259.808,90 m -0.340998,-0.340998 l 0,0.681995 0.681995,0 0,-0.681995 z "/>
<path d="M 259.808,120 m -0.340998,-0.340998 l 0,0.681995 0.681995,0 0,-0.681995 z "/>
<path d="M 233.827,135 m -0.340998,-0.340998 l 0,0.681995 0.681995,0 0,-0.681995 z "/>
<path d="M 259.808,120 m -0.340998,-0.340998 l 0,0.681995 0.681995,0 0,-0.681995 z "/>
<path d="M 337.75,135 m -0.340998,-0.340998 l 0,0.681995 0.681995,0 0,-0.681995 z "/>
<path d="M 311.769,120 m -0.340998,-0.340998 l 0,0.681995 0.681995,0 0,-0.681995 z "/>
<path d="M 311.769,90 m -0.340998,-0.340998 l 0,0.681995 0.681995,0 0,-0.681995 z "/>
<path d="M 311.769,120 m -0.340998,-0.340998 l 0,0.681995 0.681995,0 0,-0.681995 z "/>
<path d="M 285.788,135 m -0.340998,-0.340998 l 0,0.681995 0.681995,0 0,-0.681995 z "/>
<path d="M 311.769,120 m -0.340998,-0.340998 l 0,0.681995 0.681995,0 0,-0.681995 z "/>
<path d="M 389.711,135 m -0.340998,-0.340998 l 0,0.681995 0.681995,0 0,-0.681995 z "/>
<path d="M 363.731,120 m -0.340998,-0.340998 l 0,0.681995 0.681995,0 0,-0.681995 z "/>
<path d="M 363.731,90 m -0.340998,-0.340998 l 0,0.681995 0.681995,0 0,-0.681995 z "/>
<path d="M 363.731,120 m -0.340998,-0.340998 l 0,0.681995 0.681995,0 0,-0.681995 z "/>
<path d="M 337.75,135 m -0.340998,-0.340998 l 0,0.681995 0.681995,0 0,-0.681995 z "/>
<path d="M 363.731,120 m -0.340998,-0.340998 l 0,0.681995 0.681995,0 0,-0.681995 z "/>
<path d="M 441.673,135 m -0.340998,-0.340998 l 0,0.681995 0.681995,0 0,-0.681995 z "/>
<path d="M 415.692,120 m -0.340998,-0.340998 l 0,0.681995 0.681995,0 0,-0.681995 z "/>
<path d="M 415.692,90 m -0.340998,-0.340998 l 0,0.681995 0.681995,0 0,-0.681995 z "/>
<path d="M 415.692,120 m -0.340998,-0.340998 l 0,0.681995 0.681995,0 0,-0.681995 z "/>
<path d="M 389.711,135 m -0.340998,-0.340998 l 0,0.681995 0.681995,0 0,-0.681995 z "/>
<path d="M 415.692,120 m -0.340998,-0.340998 l 0,0.681995 0.681995,0 0,-0.681995 z "/>
<path d="M 493.634,135 m -0.340998,-0.340998 l 0,0.681995 0.681995,0 0,-0.681995 z "/>
<path d="M 467.654,120 m -0.340998,-0.340998 l 0,0.681995 0.681995,0 0,-0.681995 z "/>
<path d="M 467.654,90 m -0.340998,-0.340998 l 0,0.681995 0.681995,0 0,-0.681995 z "/>
<path d="M 467.654,120 m -0.340998,-0.340998 l 0,0.681995 0.681995,0 0,-0.681995 z "/>
<path d="M 441.673,135 m -0.340998,-0.340998 l 0,0.681995 0.681995,0 0,-0.681995 z "/>
<path d="M 467.654,120 m -0.340998,-0.340998 l 0,0.681995 0.681995,0 0,-0.681995 z "/>
<path d="M 545.596,135 m -0.340998,-0.340998 l 0,0.681995 0.681995,0 0,-0.681995 z "/>
<path d="M 519.615,120 m -0.340998,-0.340998 l 0,0.681995 0.681995,0 0,-0.681995 z "/>
<path d="M 519.615,90 m -0.340998,-0.340998 l 0,0.681995 0.681995,0 0,-0.681995 z "/>
<path d="M 519.615,120 m -0.340998,-0.340998 l 0,0.681995 0.681995,0 0,-0.681995 z "/>
<path d="M 493.634,135 m -0.340998,-0.340998 l 0,0.681995 0.681995,0 0,-0.681995 z "/>
<path d="M 519.615,120 m -0.340998,-0.340998 l 0,0.681995 0.681995,0 0,-0.681995 z "/>
<path d="M 51.9615,180 m -0.340998,-0.340998 l 0,0.681995 0.681995,0 0,-0.681995 z "/>
<path d="M 25.9808,165 m -0.340998,-0.340998 l 0,0.681995 0.681995,0 0,-0.681995 z "/>
<path d="M 25.9808,135 m -0.340998,-0.340998 l 0,0.681995 0.681995,0 0,-0.681995 z "/>
<path d="M 25.9808,165 m -0.340998,-0.340998 l 0,0.681995 0.681995,0 0,-0.681995 z "/>
<path d="M 0,180 m -0.340998,-0.340998 l 0,0.681995 0.681995,0 0,-0.681995 z "/>
<path d="M 25.9808,165 m -0.340998,-0.340998 l 0,0.681995 0.681995,0 0,-0.681995 z "/>
<path d="M 103.923,180 m -0.340998,-0.340998 l 0,0.681995 0.681995,0 0,-0.681995 z "/>
<path d="M 77.9423,165 m -0.340998,-0.340998 l 0,0.681995 0.681995,0 0,-0.681995 z "/>
<path d="M 77.9423,135 m -0.340998,-0.340998 l 0,0.681995 0.681995,0 0,-0.681995 z "/>
<path d="M 77.9423,165 m -0.340998,-0.340998 l 0,0.681995 0.681995,0 0,-0.681995 z "/>
<path d="M 51.9615,180 m -0.340998,-0.340998 l 0,0.681995 0.681995,0 0,-0.681995 z "/>
<path d="M 77.9423,165 m -0.340998,-0.340998 l 0,0.681995 0.681995,0 0,-0.681995 z "/>
<path d="M 155.885,180 m -0.340998,-0.340998 l 0,0.681995 0.681995,0 0,-0.681995 z "/>
<path d="M 129.904,165 m -0.340998,-0.340998 l 0,0.681995 0.681995,0 0,-0.681995 z "/>
<path d="M 129.904,135 m -0.340998,-0.340998 l 0,0.681995 0.681995,0 0,-0.681995 z "/>
<path d="M 129.904,165 m -0.340998,-0.340998 l 0,0.681995 0.681995,0 0,-0.681995 z "/>
<path d="M 103.923,180 m -0.340998,-0.340998 l 0,0.681995 0.681995,0 0,-0.681995 z "/>
<path d="M 129.904,165 m -0.340998,-0.340998 l 0,0.681995 0.681995,0 0,-0.681995 z "/>
<path d="M 207.846,180 m -0.340998,-0.340998 l 0,0.681995 0.681995,0 0,-0.681995 z "/>
<path d="M 181.865,165 m -0.340998,-0.340998 l 0,0.681995 0.681995,0 0,-0.681995 z "/>
<path d="M 181.865,135 m -0.340998,-0.340998 l 0,0.681995 0.681995,0 0,-0.681995 z "/>
<path d="M 181.865,165 m -0.340998,-0.340998 l 0,0.681995 0.681995,0 0,-0.681995 z "/>
<path d="M 155.885,180 m -0.340998,-0.340998 l 0,0.681995 0.681995,0 0,-0.681995 z "/>
<path d="M 181.865,165 m -0.340998,-0.340998 l 0,0.681995 0.681995,0 0,-0.681995 z "/>
<path d="M 259.808,180 m -0.340998,-0.340998 l 0,0.681995 0.681995,0 0,-0.681995 z "/>
<path d="M 233.827,165 m -0.340998,-0.340998 l 0,0.681995 0.681995,0 0,-0.681995 z "/>
<path d="M 233.827,135 m -0.340998,-0.340998 l 0,0.681995 0.681995,0 0,-0.681995 z "/>
<path d="M 233.827,165 m -0.340998,-0.340998 l 0,0.681995 0.681995,0 0,-0.681995 z "/>
<path d="M 207.846,180 m -0.340998,-0.340998 l 0,0.681995 0.681995,0 0,-0.681995 z "/>
<path d="M 233.827,165 m -0.340998,-0.340998 l 0,0.681995 0.681995,0 0,-0.681995 z "/>
<path d="M 311.769,180 m -0.340998,-0.340998 l 0,0.681995 0.681995,0 0,-0.681995 z "/>
<path d="M 285.788,165 m -0.340998,-0.340998 l 0,0.681995 0.681995,0 0,-0.681995 z "/>
<path d="M 285.788,135 m -0.340998,-0.340998 l 0,0.681995 0.681995,0 0,-0.681995 z "/>
<path d="M 285.788,165 m -0.340998,-0.340998 l 0,0.681995 0.681995,0 0,-0.681995 z "/>
<path d="M 259.808,180 m -0.340998,-0.340998 l 0,0.681995 0.681995,0 0,-0.681995 z "/>
<path d="M 285.788,165 m -0.340998,-0.340998 l 0,0.681995 0.681995,0 0,-0.681995 z "/>
<path d="M 363.731,180 m -0.340998,-0.340998 l 0,0.681995 0.681995,0 0,-0.681995 z "/>
<path d="M 337.75,165 m -0.340998,-0.340998 l 0,0.681995 0.681995,0 0,-0.681995 z "/>
<path d="M 337.75,135 m -0.340998,-0.340998 l 0,0.681995 0.681995,0 0,-0.681995 z "/>
<path d="M 337.75,165 m -0.340998,-0.340998 l 0,0.681995 0.681995,0 0,-0.681995 z "/>
<path d="M 311.769,180 m -0.340998,-0.340998 l 0,0.681995 0.681995,0 0,-0.681995 z "/>
<path d="M 337.75,165 m -0.340998,-0.340998 l 0,0.681995 0.681995,0 0,-0.681995 z "/>
<path d="M 415.692,180 m -0.340998,-0.340998 l 0,0.681995 0.681995,0 0,-0.681995 z "/>
<path d="M 389.711,165 m -0.340998,-0.340998 l 0,0.681995 0.681995,0 0,-0.681995 z "/>
<path d="M 389.711,135 m -0.340998,-0.340998 l 0,0.681995 0.681995,0 0,-0.681995 z "/>
<path d="M 389.711,165 m -0.340998,-0.340998 l 0,0.681995 0.681995,0 0,-0.681995 z "/>
<path d="M 363.731,180 m -0.340998,-0.340998 l 0,0.681995 0.681995,0 0,-0.681995 z "/>
<path d="M 389.711,165 m -0.340998,-0.340998 l 0,0.681995 0.681995,0 0,-0.681995 z "/>
<path d="M 467.654,180 m -0.340998,-0.340998 l 0,0.681995 0.681995,0 0,-0.681995 z "/>
<path d="M 441.673,165 m -0.340998,-0.340998 l 0,0.681995 0.681995,0 0,-0.681995 z "/>
<path d="M 441.673,135 m -0.340998,-0.340998 l 0,0.681995 0.681995,0 0,-0.681995 z "/>
<path d="M 441.673,165 m -0.340998,-0.340998 l 0,0.681995 0.681995,0 0,-0.681995 z "/>
<path d="M 415.692,180 m -0.340998,-0.340998 l 0,0.681995 0.681995,0 0,-0.681995 z "/>
<path d="M 441.673,165 m -0.340998,-0.340998 l 0,0.681995 0.681995,0 0,-0.681995 z "/>
<path d="M 519.615,180 m -0.340998,-0.340998 l 0,0.681995 0.681995,0 0,-0.681995 z "/>
<path d="M 493.634,165 m -0.340998,-0.340998 l 0,0.681995 0.681995,0 0,-0.681995 z "/>
<path d="M 493.634,135 m -0.340998,-0.340998 l 0,0.681995 0.681995,0 0,-0.681995 z "/>
<path d="M 493.634,165 m -0.340998,-0.340998 l 0,0.681995 0.681995,0 0,-0.681995 z "/>
<path d="M 467.654,180 m -0.340998,-0.340998 l 0,0.681995 0.681995,0 0,-0.681995 z "/>
<path d="M 493.634,165 m -0.340998,-0.340998 l 0,0.681995 0.681995,0 0,-0.681995 z "/>
<path d="M 77.9423,225 m -0.340998,-0.340998 l 0,0.681995 0.681995,0 0,-0.681995 z "/>
<path d="M 51.9615,210 m -0.340998,-0.340998 l 0,0.681995 0.681995,0 0,-0.681995 z "/>
<path d="M 51.9615,180 m -0.340998,-0.340998 l 0,0.681995 0.681995,0 0,-0.681995 z "/>
<path d="M 51.9615,210 m -0.340998,-0.340998 l 0,0.681995 0.681995,0 0,-0.681995 z "/>
<path d="M 25.9808,225 m -0.340998,-0.340998 l 0,0.681995 0.681995,0 0,-0.681995 z "/>
<path d="M 51.9615,210 m -0.340998,-0.340998 l 0,0.681995 0.681995,0 0,-0.681995 z "/>
<path d="M 129.904,225 m -0.340998,-0.340998 l 0,0.681995 0.681995,0 0,-0.681995 z "/>
<path d="M 103.923,210 m -0.340998,-0.340998 l 0,0.681995 0.681995,0 0,-0.681995 z "/>
<path d="M 103.923,180 m -0.340998,-0.340998 l 0,0.681995 0.681995,0 0,-0.681995 z "/>
<path d="M 103.923,210 m -0.340998,-0.340998 l 0,0.681995 0.681995,0 0,-0.681995 z "/>
<path d="M 77.9423,225 m -0.340998,-0.340998 l 0,0.681995 0.681995,0 0,-0.681995 z "/>
<path d="M 103.923,210 m -0.340998,-0.340998 l 0,0.681995 0.681995,0 0,-0.681995 z "/>
<path d="M 181.865,225 m -0.340998,-0.340998 l 0,0.681995 0.681995,0 0,-0.681995 z "/>
<path d="M 155.885,210 m -0.340998,-0.340998 l 0,0.681995 0.681995,0 0,-0.681995 z "/>
<path d="M 155.885,180 m -0.340998,-0.340998 l 0,0.681995 0.681995,0 0,-0.681995 z "/>
<path d="M 155.885,210 m -0.340998,-0.340998 l 0,0.681995 0.681995,0 0,-0.681995 z "/>
<path d="M 129.904,225 m -0.340998,-0.340998 l 0,0.681995 0.681995,0 0,-0.681995 z "/>
<path d="M 155.885,210 m -0.340998,-0.340998 l 0,0.681995 0.681995,0 0,-0.681995 z "/>
<path d="M 233.827,225 m -0.340998,-0.340998 l 0,0.681995 0.681995,0 0,-0.681995 z "/>
<path d="M 207.846,210 m -0.340998,-0.340998 l 0,0.681995 0.681995,0 0,-0.681995 z "/>
<path d="M 207.846,180 m -0.340998,-0.340998 l 0,0.681995 0.681995,0 0,-0.681995 z "/>
<path d="M 207.846,210 m -0.340998,-0.340998 l 0,0.681995 0.681995,0 0,-0.681995 z "/>
<path d="M 181.865,225 m -0.340998,-0.340998 l 0,0.681995 0.681995,0 0,-0.681995 z "/>
<path d="M 207.846,210 m -0.340998,-0.340998 l 0,0.681995 0.681995,0 0,-0.681995 z "/>
<path d="M 285.788,225 m -0.340998,-0.340998 l 0,0.681995 0.681995,0 0,-0.681995 z "/>
<path d="M 259.808,210 m -0.340998,-0.340998 l 0,0.681995 0.681995,0 0,-0.681995 z "/>
<path d="M 259.808,180 m -0.340998,-0.340998 l 0,0.681995 0.681995,0 0,-0.681995 z "/>
<path d="M 259.808,210 m -0.340998,-0.340998 l 0,0.681995 0.681995,0 0,-0.681995 z "/>
<path d="M 233.827,225 m -0.340998,-0.340998 l 0,0.681995 0.681995,0 0,-0.681995 z "/>
<path d="M 259.808,210 m -0.340998,-0.340998 l 0,0.681995 0.681995,0 0,-0.681995 z "/>
<path d="M 337.75,225 m -0.340998,-0.340998 l 0,0.681995 0.681995,0 0,-0.681995 z "/>
<path d="M 311.769,210 m -0.340998,-0.340998 l 0,0.681995 0.681995,0 0,-0.681995 z "/>
<path d="M 311.769,180 m -0.340998,-0.340998 l 0,0.681995 0.681995,0 0,-0.681995 z "/>
<path d="M 311.769,210 m -0.340998,-0.340998 l 0,0.681995 0.681995,0 0,-0.681995 z "/>
<path d="M 285.788,225 m -0.340998,-0.340998 l 0,0.681995 0.681995,0 0,-0.681995 z "/>
<path d="M 311.769,210 m -0.340998,-0.340998 l 0,0.681995 0.681995,0 0,-0.681995 z "/>
<path d="M 389.711,225 m -0.340998,-0.340998 l 0,0.681995 0.681995,0 0,-0.681995 z "/>
<path d="M 363.731,210 m -0.340998,-0.340998 l 0,0.681995 0.681995,0 0,-0.681995 z "/>
<path d="M 363.731,180 m -0.340998,-0.340998 l 0,0.681995 0.681995,0 0,-0.681995 z "/>
<path d="M 363.731,210 m -0.340998,-0.340998 l 0,0.681995 0.681995,0 0,-0.681995 z "/>
<path d="M 337.75,225 m -0.340998,-0.340998 l 0,0.681995 0.681995,0 0,-0.681995 z "/>
<path d="M 363.731,210 m -0.340998,-0.340998 l 0,0.681995 0.681995,0 0,-0.681995 z "/>
<path d="M 441.673,225 m -0.340998,-0.340998 l 0,0.681995 0.681995,0 0,-0.681995 z "/>
<path d="M 415.692,210 m -0.340998,-0.340998 l 0,0.681995 0.681995,0 0,-0.681995 z "/>
<path d="M 415.692,180 m -0.340998,-0.340998 l 0,0.681995 0.681995,0 0,-0.681995 z "/>
<path d="M 415.692,210 m -0.340998,-0.340998 l 0,0.681995 0.681995,0 0,-0.681995 z "/>
<path d="M 389.711,225 m -0.340998,-0.340998 l 0,0.681995 0.681995,0 0,-0.681995 z "/>
<path d="M 415.692,210 m -0.340998,-0.340998 l 0,0.681995 0.681995,0 0,-0.681995 z "/>
<path d="M 493.634,225 m -0.340998,-0.340998 l 0,0.681995 0.681995,0 0,-0.681995 z "/>
<path d="M 467.654,210 m -0.340998,-0.340998 l 0,0.681995 0.681995,0 0,-0.681995 z "/>
<path d="M 467.654,180 m -0.340998,-0.340998 l 0,0.681995 0.681995,0 0,-0.681995 z "/>
<path d="M 467.654,210 m -0.340998,-0.340998 l 0,0.681995 0.681995,0 0,-0.681995 z "/>
<path d="M 441.673,225 m -0.340998,-0.340998 l 0,0.681995 0.681995,0 0,-0.681995 z "/>
<path d="M 467.654,210 m -0.340998,-0.340998 l 0,0.681995 0.681995,0 0,-0.681995 z "/>
<path d="M 545.596,225 m -0.340998,-0.340998 l 0,0.681995 0.681995,0 0,-0.681995 z "/>
<path d="M 519.615,210 m -0.340998,-0.340998 l 0,0.681995 0.681995,0 0,-0.681995 z "/>
<path d="M 519.615,180 m -0.340998,-0.340998 l 0,0.681995 0.681995,0 0,-0.681995 z "/>
<path d="M 519.615,210 m -0.340998,-0.340998 l 0,0.681995 0.681995,0 0,-0.681995 z "/>
<path d="M 493.634,225 m -0.340998,-0.340998 l 0,0.681995 0.681995,0 0,-0.681995 z "/>
<path d="M 519.615,210 m -0.340998,-0.340998 l 0,0.681995 0.681995,0 0,-0.681995 z "/>
<path d="M 51.9615,270 m -0.340998,-0.340998 l 0,0.681995 0.681995,0 0,-0.681995 z "/>
<path d="M 25.9808,255 m -0.340998,-0.340998 l 0,0.681995 0.681995,0 0,-0.681995 z "/>
<path d="M 25.9808,225 m -0.340998,-0.340998 l 0,0.681995 0.681995,0 0,-0.681995 z "/>
<path d="M 25.9808,255 m -0.340998,-0.340998 l 0,0.681995 0.681995,0 0,-0.681995 z "/>
<path d="M 0,270 m -0.340998,-0.340998 l 0,0.681995 0.681995,0 0,-0.681995 z "/>
<path d="M 25.9808,255 m -0.340998,-0.340998 l 0,0.681995 0.681995,0 0,-0.681995 z "/>
<path d="M 103.923,270 m -0.340998,-0.340998 l 0,0.681995 0.681995,0 0,-0.681995 z "/>
<path d="M 77.9423,255 m -0.340998,-0.340998 l 0,0.681995 0.681995,0 0,-0.681995 z "/>
<path d="M 77.9423,225 m -0.340998,-0.340998 l 0,0.681995 0.681995,0 0,-0.681995 z "/>
<path d="M 77.9423,255 m -0.340998,-0.340998 l 0,0.681995 0.681995,0 0,-0.681995 z "/>
<path d="M 51.9615,270 m -0.340998,-0.340998 l 0,0.681995 0.681995,0 0,-0.681995 z "/>
<path d="M 77.9423,255 m -0.340998,-0.340998 l 0,0.681995 0.681995,0 0,-0.681995 z "/>
<path d="M 155.885,270 m -0.340998,-0.340998 l 0,0.681995 0.681995,0 0,-0.681995 z "/>
<path d="M 129.904,255 m -0.340998,-0.340998 l 0,0.681995 0.681995,0 0,-0.681995 z "/>
<path d="M 129.904,225 m -0.340998,-0.340998 l 0,0.681995 0.681995,0 0,-0.681995 z "/>
<path d="M 129.904,255 m -0.340998,-0.340998 l 0,0.681995 0.681995,0 0,-0.681995 z "/>
<path d="M 103.923,270 m -0.340998,-0.340998 l 0,0.681995 0.681995,0 0,-0.681995 z "/>
<path d="M 129.904,255 m -0.340998,-0.340998 l 0,0.681995 0.681995,0 0,-0.681995 z "/>
<path d="M 207.846,270 m -0.340998,-0.340998 l 0,0.681995 0.681995,0 0,-0.681995 z "/>
<path d="M 181.865,255 m -0.340998,-0.340998 l 0,0.681995 0.681995,0 0,-0.681995 z "/>
<path d="M 181.865,225 m -0.340998,-0.340998 l 0,0.681995 0.681995,0 0,-0.681995 z "/>
<path d="M 181.865,255 m -0.340998,-0.340998 l 0,0.681995 0.681995,0 0,-0.681995 z "/>
<path d="M 155.885,270 m -0.340998,-0.340998 l 0,0.681995 0.681995,0 0,-0.681995 z "/>
<path d="M 181.865,255 m -0.340998,-0.340998 l 0,0.681995 0.681995,0 0,-0.681995 z "/>
<path d="M 259.808,270 m -0.340998,-0.340998 l 0,0.681995 0.681995,0 0,-0.681995 z "/>
<path d="M 233.827,255 m -0.340998,-0.340998 l 0,0.681995 0.681995,0 0,-0.681995 z "/>
<path d="M 233.827,225 m -0.340998,-0.340998 l 0,0.681995 0.681995,0 0,-0.681995 z "/>
<path d="M 233.827,255 m -0.340998,-0.340998 l 0,0.681995 0.681995,0 0,-0.681995 z "/>
<path d="M 207.846,270 m -0.340998,-0.340998 l 0,0.681995 0.681995,0 0,-0.681995 z "/>
<path d="M 233.827,255 m -0.340998,-0.340998 l 0,0.681995 0.681995,0 0,-0.681995 z "/>
<path d="M 311.769,270 m -0.340998,-0.340998 l 0,0.681995 0.681995,0 0,-0.681995 z "/>
<path d="M 285.788,255 m -0.340998,-0.340998 l 0,0.681995 0.681995,0 0,-0.681995 z "/>
<path d="M 285.788,225 m -0.340998,-0.340998 l 0,0.681995 0.681995,0 0,-0.681995 z "/>
<path d="M 285.788,255 m -0.340998,-0.340998 l 0,0.681995 0.681995,0 0,-0.681995 z "/>
<path d="M 259.808,270 m -0.340998,-0.340998 l 0,0.681995 0.681995,0 0,-0.681995 z "/>
<path d="M 285.788,255 m -0.340998,-0.340998 l 0,0.681995 0.681995,0 0,-0.681995 z "/>
<path d="M 363.731,270 m -0.340998,-0.340998 l 0,0.681995 0.681995,0 0,-0.681995 z "/>
<path d="M 337.75,255 m -0.340998,-0.340998 l 0,0.681995 0.681995,0 0,-0.681995 z "/>
<path d="M 337.75,225 m -0.340998,-0.340998 l 0,0.681995 0.681995,0 0,-0.681995 z "/>
<path d="M 337.75,255 m -0.340998,-0.340998 l 0,0.681995 0.681995,0 0,-0.681995 z "/>
<path d="M 311.769,270 m -0.340998,-0.340998 l 0,0.681995 0.681995,0 0,-0.681995 z "/>
<path d="M 337.75,255 m -0.340998,-0.340998 l 0,0.681995 0.681995,0 0,-0.681995 z "/>
<path d="M 415.692,270 m -0.340998,-0.340998 l 0,0.681995 0.681995,0 0,-0.681995 z "/>
<path d="M 389.711,255 m -0.340998,-0.340998 l 0,0.681995 0.681995,0 0,-0.681995 z "/>
<path d="M 389.711,225 m -0.340998,-0.340998 l 0,0.681995 0.681995,0 0,-0.681995 z "/>
<path d="M 389.711,255 m -0.340998,-0.340998 l 0,0.681995 0.681995,0 0,-0.681995 z "/>
<path d="M 363.731,270 m -0.340998,-0.340998 l 0,0.681995 0.681995,0 0,-0.681995 z "/>
<path d="M 389.711,255 m -0.340998,-0.340998 l 0,0.681995 0.681995,0 0,-0.681995 z "/>
<path d="M 467.654,270 m -0.340998,-0.340998 l 0,0.681995 0.681995,0 0,-0.681995 z "/>
<path d="M 441.673,255 m -0.340998,-0.340998 l 0,0.681995 0.681995,0 0,-0.681995 z "/>
<path d="M 441.673,225 m -0.340998,-0.340998 l 0,0.681995 0.681995,0 0,-0.681995 z "/>
<path d="M 441.673,255 m -0.340998,-0.340998 l 0,0.681995 0.681995,0 0,-0.681995 z "/>
<path d="M 415.692,270 m -0.340998,-0.340998 l 0,0.681995 0.681995,0 0,-0.681995 z "/>
<path d="M 441.673,255 m -0.340998,-0.340998 l 0,0.681995 0.681995,0 0,-0.681995 z "/>
<path d="M 519.615,270 m -0.340998,-0.340998 l 0,0.681995 0.681995,0 0,-0.681995 z "/>
<path d="M 493.634,255 m -0.340998,-0.340998 l 0,0.681995 0.681995,0 0,-0.681995 z "/>
<path d="M 493.634,225 m -0.340998,-0.340998 l 0,0.681995 0.681995,0 0,-0.681995 z "/>
<path d="M 493.634,255 m -0.340998,-0.340998 l 0,0.681995 0.681995,0 0,-0.681995 z "/>
<path d="M 467.654,270 m -0.340998,-0.340998 l 0,0.681995 0.681995,0 0,-0.681995 z "/>
<path d="M 493.634,255 m -0.340998,-0.340998 l 0,0.681995 0.681995,0 0,-0.681995 z "/>
<path d="M 77.9423,315 m -0.340998,-0.340998 l 0,0.681995 0.681995,0 0,-0.681995 z "/>
<path d="M 51.9615,300 m -0.340998,-0.340998 l 0,0.681995 0.681995,0 0,-0.681995 z "/>
<path d="M 51.9615,270 m -0.340998,-0.340998 l 0,0.681995 0.681995,0 0,-0.681995 z "/>
<path d="M 51.9615,300 m -0.340998,-0.340998 l 0,0.681995 0.681995,0 0,-0.681995 z "/>
<path d="M 25.9808,315 m -0.340998,-0.340998 l 0,0.681995 0.681995,0 0,-0.681995 z "/>
<path d="M 51.9615,300 m -0.340998,-0.340998 l 0,0.681995 0.681995,0 0,-0.681995 z "/>
<path d="M 129.904,315 m -0.340998,-0.340998 l 0,0.681995 0.681995,0 0,-0.681995 z "/>
<path d="M 103.923,300 m -0.340998,-0.340998 l 0,0.681995 0.681995,0 0,-0.681995 z "/>
<path d="M 103.923,270 m -0.340998,-0.340998 l 0,0.681995 0.681995,0 0,-0.681995 z "/>
<path d="M 103.923,300 m -0.340998,-0.340998 l 0,0.681995 0.681995,0 0,-0.681995 z "/>
<path d="M 77.9423,315 m -0.340998,-0.340998 l 0,0.681995 0.681995,0 0,-0.681995 z "/>
<path d="M 103.923,300 m -0.340998,-0.340998 l 0,0.681995 0.681995,0 0,-0.681995 z "/>
<path d="M 181.865,315 m -0.340998,-0.340998 l 0,0.681995 0.681995,0 0,-0.681995 z "/>
<path d="M 155.885,300 m -0.340998,-0.340998 l 0,0.681995 0.681995,0 0,-0.681995 z "/>
<path d="M 155.885,270 m -0.340998,-0.340998 l 0,0.681995 0.681995,0 0,-0.681995 z "/>
<path d="M 155.885,300 m -0.340998,-0.340998 l 0,0.681995 0.681995,0 0,-0.681995 z "/>
<path d="M 129.904,315 m -0.340998,-0.340998 l 0,0.681995 0.681995,0 0,-0.681995 z "/>
<path d="M 155.885,300 m -0.340998,-0.340998 l 0,0.681995 0.681995,0 0,-0.681995 z "/>
<path d="M 233.827,315 m -0.340998,-0.340998 l 0,0.681995 0.681995,0 0,-0.681995 z "/>
<path d="M 207.846,300 m -0.340998,-0.340998 l 0,0.681995 0.681995,0 0,-0.681995 z "/>
<path d="M 207.846,270 m -0.340998,-0.340998 l 0,0.681995 0.681995,0 0,-0.681995 z "/>
<path d="M 207.846,300 m -0.340998,-0.340998 l 0,0.681995 0.681995,0 0,-0.681995 z "/>
<path d="M 181.865,315 m -0.340998,-0.340998 l 0,0.681995 0.681995,0 0,-0.681995 z "/>
<path d="M 207.846,300 m -0.340998,-0.340998 l 0,0.681995 0.681995,0 0,-0.681995 z "/>
<path d="M 285.788,315 m -0.340998,-0.340998 l 0,0.681995 0.681995,0 0,-0.681995 z "/>
<path d="M 259.808,300 m -0.340998,-0.340998 l 0,0.681995 0.681995,0 0,-0.681995 z "/>
<path d="M 259.808,270 m -0.340998,-0.340998 l 0,0.681995 0.681995,0 0,-0.681995 z "/>
<path d="M 259.808,300 m -0.340998,-0.340998 l 0,0.681995 0.681995,0 0,-0.681995 z "/>
<path d="M 233.827,315 m -0.340998,-0.340998 l 0,0.681995 0.681995,0 0,-0.681995 z "/>
<path d="M 259.808,300 m -0.340998,-0.340998 l 0,0.681995 0.681995,0 0,-0.681995 z "/>
<path d="M 337.75,315 m -0.340998,-0.340998 l 0,0.681995 0.681995,0 0,-0.681995 z "/>
<path d="M 311.769,300 m -0.340998,-0.340998 l 0,0.681995 0.681995,0 0,-0.681995 z "/>
<path d="M 311.769,270 m -0.340998,-0.340998 l 0,0.681995 0.681995,0 0,-0.681995 z "/>
<path d="M 311.769,300 m -0.340998,-0.340998 l 0,0.681995 0.681995,0 0,-0.681995 z "/>
<path d="M 285.788,315 m -0.340998,-0.340998 l 0,0.681995 0.681995,0 0,-0.681995 z "/>
<path d="M 311.769,300 m -0.340998,-0.340998 l 0,0.681995 0.681995,0 0,-0.681995 z "/>
<path d="M 389.711,315 m -0.340998,-0.340998 l 0,0.681995 0.681995,0 0,-0.681995 z "/>
<path d="M 363.731,300 m -0.340998,-0.340998 l 0,0.681995 0.681995,0 0,-0.681995 z "/>
<path d="M 363.731,270 m -0.340998,-0.340998 l 0,0.681995 0.681995,0 0,-0.681995 z "/>
<path d="M 363.731,300 m -0.340998,-0.340998 l 0,0.681995 0.681995,0 0,-0.681995 z "/>
<path d="M 337.75,315 m -0.340998,-0.340998 l 0,0.681995 0.681995,0 0,-0.681995 z "/>
<path d="M 363.731,300 m -0.340998,-0.340998 l 0,0.681995 0.681995,0 0,-0.681995 z "/>
<path d="M 441.673,315 m -0.340998,-0.340998 l 0,0.681995 0.681995,0 0,-0.681995 z "/>
<path d="M 415.692,300 m -0.340998,-0.340998 l 0,0.681995 0.681995,0 0,-0.681995 z "/>
<path d="M 415.692,270 m -0.340998,-0.340998 l 0,0.681995 0.681995,0 0,-0.681995 z "/>
<path d="M 415.692,300 m -0.340998,-0.340998 l 0,0.681995 0.681995,0 0,-0.681995 z "/>
<path d="M 389.711,315 m -0.340998,-0.340998 l 0,0.681995 0.681995,0 0,-0.681995 z "/>
<path d="M 415.692,300 m -0.340998,-0.340998 l 0,0.681995 0.681995,0 0,-0.681995 z "/>
<path d="M 493.634,315 m -0.340998,-0.340998 l 0,0.681995 0.681995,0 0,-0.681995 z "/>
<path d="M 467.654,300 m -0.340998,-0.340998 l 0,0.681995 0.681995,0 0,-0.681995 z "/>
<path d="M 467.654,270 m -0.340998,-0.340998 l 0,0.681995 0.681995,0 0,-0.681995 z "/>
<path d="M 467.654,300 m -0.340998,-0.340998 l 0,0.681995 0.681995,0 0,-0.681995 z "/>
<path d="M 441.673,315 m -0.340998,-0.340998 l 0,0.681995 0.681995,0 0,-0.681995 z "/>
<path d="M 467.654,300 m -0.340998,-0.340998 l 0,0.681995 0.681995,0 0,-0.681995 z "/>
<path d="M 545.596,315 m -0.340998,-0.340998 l 0,0.681995 0.681995,0 0,-0.681995 z "/>
<path d="M 519.615,300 m -0.340998,-0.340998 l 0,0.681995 0.681995,0 0,-0.681995 z "/>
<path d="M 519.615,270 m -0.340998,-0.340998 l 0,0.681995 0.681995,0 0,-0.681995 z "/>
<path d="M 519.615,300 m -0.340998,-0.340998 l 0,0.681995 0.681995,0 0,-0.681995 z "/>
<path d="M 493.634,315 m -0.340998,-0.340998 l 0,0.681995 0.681995,0 0,-0.681995 z "/>
<path d="M 519.615,300 m -0.340998,-0.340998 l 0,0.681995 0.681995,0 0,-0.681995 z "/>
<path d="M 51.9615,360 m -0.340998,-0.340998 l 0,0.681995 0.681995,0 0,-0.681995 z "/>
<path d="M 25.9808,345 m -0.340998,-0.340998 l 0,0.681995 0.681995,0 0,-0.681995 z "/>
<path d="M 25.9808,315 m -0.340998,-0.340998 l 0,0.681995 0.681995,0 0,-0.681995 z "/>
<path d="M 25.9808,345 m -0.340998,-0.340998 l 0,0.681995 0.681995,0 0,-0.681995 z "/>
<path d="M 0,360 m -0.340998,-0.340998 l 0,0.681995 0.681995,0 0,-0.681995 z "/>
<path d="M 25.9808,345 m -0.340998,-0.340998 l 0,0.681995 0.681995,0 0,-0.681995 z "/>
<path d="M 103.923,360 m -0.340998,-0.340998 l 0,0.681995 0.681995,0 0,-0.681995 z "/>
<path d="M 77.9423,345 m -0.340998,-0.340998 l 0,0.681995 0.681995,0 0,-0.681995 z "/>
<path d="M 77.9423,315 m -0.340998,-0.340998 l 0,0.681995 0.681995,0 0,-0.681995 z "/>
<path d="M 77.9423,345 m -0.340998,-0.340998 l 0,0.681995 0.681995,0 0,-0.681995 z "/>
<path d="M 51.9615,360 m -0.340998,-0.340998 l 0,0.681995 0.681995,0 0,-0.681995 z "/>
<path d="M 77.9423,345 m -0.340998,-0.340998 l 0,0.681995 0.681995,0 0,-0.681995 z "/>
<path d="M 155.885,360 m -0.340998,-0.340998 l 0,0.681995 0.681995,0 0,-0.681995 z "/>
<path d="M 129.904,345 m -0.340998,-0.340998 l 0,0.681995 0.681995,0 0,-0.681995 z "/>
<path d="M 129.904,315 m -0.340998,-0.340998 l 0,0.681995 0.681995,0 0,-0.681995 z "/>
<path d="M 129.904,345 m -0.340998,-0.340998 l 0,0.681995 0.681995,0 0,-0.681995 z "/>
<path d="M 103.923,360 m -0.340998,-0.340998 l 0,0.681995 0.681995,0 0,-0.681995 z "/>
<path d="M 129.904,345 m -0.340998,-0.340998 l 0,0.681995 0.681995,0 0,-0.681995 z "/>
<path d="M 207.846,360 m -0.340998,-0.340998 l 0,0.681995 0.681995,0 0,-0.681995 z "/>
<path d="M 181.865,345 m -0.340998,-0.340998 l 0,0.681995 0.681995,0 0,-0.681995 z "/>
<path d="M 181.865,315 m -0.340998,-0.340998 l 0,0.681995 0.681995,0 0,-0.681995 z "/>
<path d="M 181.865,345 m -0.340998,-0.340998 l 0,0.681995 0.681995,0 0,-0.681995 z "/>
<path d="M 155.885,360 m -0.340998,-0.340998 l 0,0.681995 0.681995,0 0,-0.681995 z "/>
<path d="M 181.865,345 m -0.340998,-0.340998 l 0,0.681995 0.681995,0 0,-0.681995 z "/>
<path d="M 259.808,360 m -0.340998,-0.340998 l 0,0.681995 0.681995,0 0,-0.681995 z "/>
<path d="M 233.827,345 m -0.340998,-0.340998 l 0,0.681995 0.681995,0 0,-0.681995 z "/>
<path d="M 233.827,315 m -0.340998,-0.340998 l 0,0.681995 0.681995,0 0,-0.681995 z "/>
<path d="M 233.827,345 m -0.340998,-0.340998 l 0,0.681995 0.681995,0 0,-0.681995 z "/>
<path d="M 207.846,360 m -0.340998,-0.340998 l 0,0.681995 0.681995,0 0,-0.681995 z "/>
<path d="M 233.827,345 m -0.340998,-0.340998 l 0,0.681995 0.681995,0 0,-0.681995 z "/>
<path d="M 311.769,360 m -0.340998,-0.340998 l 0,0.681995 0.681995,0 0,-0.681995 z "/>
<path d="M 285.788,345 m -0.340998,-0.340998 l 0,0.681995 0.681995,0 0,-0.681995 z "/>
<path d="M 285.788,315 m -0.340998,-0.340998 l 0,0.681995 0.681995,0 0,-0.681995 z "/>
<path d="M 285.788,345 m -0.340998,-0.340998 l 0,0.681995 0.681995,0 0,-0.681995 z "/>
<path d="M 259.808,360 m -0.340998,-0.340998 l 0,0.681995 0.681995,0 0,-0.681995 z "/>
<path d="M 285.788,345 m -0.340998,-0.340998 l 0,0.681995 0.681995,0 0,-0.681995 z "/>
<path d="M 363.731,360 m -0.340998,-0.340998 l 0,0.681995 0.681995,0 0,-0.681995 z "/>
<path d="M 337.75,345 m -0.340998,-0.340998 l 0,0.681995 0.681995,0 0,-0.681995 z "/>
<path d="M 337.75,315 m -0.340998,-0.340998 l 0,0.681995 0.681995,0 0,-0.681995 z "/>
<path d="M 337.75,345 m -0.340998,-0.340998 l 0,0.681995 0.681995,0 0,-0.681995 z "/>
<path d="M 311.769,360 m -0.340998,-0.340998 l 0,0.681995 0.681995,0 0,-0.681995 z "/>
<path d="M 337.75,345 m -0.340998,-0.340998 l 0,0.681995 0.681995,0 0,-0.681995 z "/>
<path d="M 415.692,360 m -0.340998,-0.340998 l 0,0.681995 0.681995,0 0,-0.681995 z "/>
<path d="M 389.711,345 m -0.340998,-0.340998 l 0,0.681995 0.681995,0 0,-0.681995 z "/>
<path d="M 389.711,315 m -0.340998,-0.340998 l 0,0.681995 0.681995,0 0,-0.681995 z "/>
<path d="M 389.711,345 m -0.340998,-0.340998 l 0,0.681995 0.681995,0 0,-0.681995 z "/>
<path d="M 363.731,360 m -0.340998,-0.340998 l 0,0.681995 0.681995,0 0,-0.681995 z "/>
<path d="M 389.711,345 m -0.340998,-0.340998 l 0,0.681995 0.681995,0 0,-0.681995 z "/>
<path d="M 467.654,360 m -0.340998,-0.340998 l 0,0.681995 0.681995,0 0,-0.681995 z "/>
<path d="M 441.673,345 m -0.340998,-0.340998 l 0,0.681995 0.681995,0 0,-0.681995 z "/>
<path d="M 441.673,315 m -0.340998,-0.340998 l 0,0.681995 0.681995,0 0,-0.681995 z "/>
<path d="M 441.673,345 m -0.340998,-0.340998 l 0,0.681995 0.681995,0 0,-0.681995 z "/>
<path d="M 415.692,360 m -0.340998,-0.340998 l 0,0.681995 0.681995,0 0,-0.681995 z "/>
<path d="M 441.673,345 m -0.340998,-0.340998 l 0,0.681995 0.681995,0 0,-0.681995 z "/>
<path d="M 519.615,360 m -0.340998,-0.340998 l 0,0.681995 0.681995,0 0,-0.681995 z "/>
<path d="M 493.634,345 m -0.340998,-0.340998 l 0,0.681995 0.681995,0 0,-0.681995 z "/>
<path d="M 493.634,315 m -0.340998,-0.340998 l 0,0.681995 0.681995,0 0,-0.681995 z "/>
<path d="M 493.634,345 m -0.340998,-0.340998 l 0,0.681995 0.681995,0 0,-0.681995 z "/>
<path d="M 467.654,360 m -0.340998,-0.340998 l 0,0.681995 0.681995,0 0,-0.681995 z "/>
<path d="M 493.634,345 m -0.340998,-0.340998 l 0,0.681995 0.681995,0 0,-0.681995 z "/>
<path d="M 77.9423,405 m -0.340998,-0.340998 l 0,0.681995 0.681995,0 0,-0.681995 z "/>
<path d="M 51.9615,390 m -0.340998,-0.340998 l 0,0.681995 0.681995,0 0,-0.681995 z "/>
<path d="M 51.9615,360 m -0.340998,-0.340998 l 0,0.681995 0.681995,0 0,-0.681995 z "/>
<path d="M 51.9615,390 m -0.340998,-0.340998 l 0,0.681995 0.681995,0 0,-0.681995 z "/>
<path d="M 25.9808,405 m -0.340998,-0.340998 l 0,0.681995 0.681995,0 0,-0.681995 z "/>
<path d="M 51.9615,390 m -0.340998,-0.340998 l 0,0.681995 0.681995,0 0,-0.681995 z "/>
<path d="M 129.904,405 m -0.340998,-0.340998 l 0,0.681995 0.681995,0 0,-0.681995 z "/>
<path d="M 103.923,390 m -0.340998,-0.340998 l 0,0.681995 0.681995,0 0,-0.681995 z "/>
<path d="M 103.923,360 m -0.340998,-0.340998 l 0,0.681995 0.681995,0 0,-0.681995 z "/>
<path d="M 103.923,390 m -0.340998,-0.340998 l 0,0.681995 0.681995,0 0,-0.681995 z "/>
<path d="M 77.9423,405 m -0.340998,-0.340998 l 0,0.681995 0.681995,0 0,-0.681995 z "/>
<path d="M 103.923,390 m -0.340998,-0.340998 l 0,0.681995 0.681995,0 0,-0.681995 z "/>
<path d="M 181.865,405 m -0.340998,-0.340998 l 0,0.681995 0.681995,0 0,-0.681995 z "/>
<path d="M 155.885,390 m -0.340998,-0.340998 l 0,0.681995 0.681995,0 0,-0.681995 z "/>
<path d="M 155.885,360 m -0.340998,-0.340998 l 0,0.681995 0.681995,0 0,-0.681995 z "/>
<path d="M 155.885,390 m -0.340998,-0.340998 l 0,0.681995 0.681995,0 0,-0.681995 z "/>
<path d="M 129.904,405 m -0.340998,-0.340998 l 0,0.681995 0.681995,0 0,-0.681995 z "/>
<path d="M 155.885,390 m -0.340998,-0.340998 l 0,0.681995 0.681995,0 0,-0.681995 z "/>
<path d="M 233.827,405 m -0.340998,-0.340998 l 0,0.681995 0.681995,0 0,-0.681995 z "/>
<path d="M 207.846,390 m -0.340998,-0.340998 l 0,0.681995 0.681995,0 0,-0.681995 z "/>
<path d="M 207.846,360 m -0.340998,-0.340998 l 0,0.681995 0.681995,0 0,-0.681995 z "/>
<path d="M 207.846,390 m -0.340998,-0.340998 l 0,0.681995 0.681995,0 0,-0.681995 z "/>
<path d="M 181.865,405 m -0.340998,-0.340998 l 0,0.681995 0.681995,0 0,-0.681995 z "/>
<path d="M 207.846,390 m -0.340998,-0.340998 l 0,0.681995 0.681995,0 0,-0.681995 z "/>
<path d="M 285.788,405 m -0.340998,-0.340998 l 0,0.681995 0.681995,0 0,-0.681995 z "/>
<path d="M 259.808,390 m -0.340998,-0.340998 l 0,0.681995 0.681995,0 0,-0.681995 z "/>
<path d="M 259.808,360 m -0.340998,-0.340998 l 0,0.681995 0.681995,0 0,-0.681995 z "/>
<path d="M 259.808,390 m -0.340998,-0.340998 l 0,0.681995 0.681995,0 0,-0.681995 z "/>
<path d="M 233.827,405 m -0.340998,-0.340998 l 0,0.681995 0.681995,0 0,-0.681995 z "/>
<path d="M 259.808,390 m -0.340998,-0.340998 l 0,0.681995 0.681995,0 0,-0.681995 z "/>
<path d="M 337.75,405 m -0.340998,-0.340998 l 0,0.681995 0.681995,0 0,-0.681995 z "/>
<path d="M 311.769,390 m -0.340998,-0.340998 l 0,0.681995 0.681995,0 0,-0.681995 z "/>
<path d="M 311.769,360 m -0.340998,-0.340998 l 0,0.681995 0.681995,0 0,-0.681995 z "/>
<path d="M 311.769,390 m -0.340998,-0.340998 l 0,0.681995 0.681995,0 0,-0.681995 z "/>
<path d="M 285.788,405 m -0.340998,-0.340998 l 0,0.681995 0.681995,0 0,-0.681995 z "/>
<path d="M 311.769,390 m -0.340998,-0.340998 l 0,0.681995 0.681995,0 0,-0.681995 z "/>
<path d="M 389.711,405 m -0.340998,-0.340998 l 0,0.681995 0.681995,0 0,-0.681995 z "/>
<path d="M 363.731,390 m -0.340998,-0.340998 l 0,0.681995 0.681995,0 0,-0.681995 z "/>
<path d="M 363.731,360 m -0.340998,-0.340998 l 0,0.681995 0.681995,0 0,-0.681995 z "/>
<path d="M 363.731,390 m -0.340998,-0.340998 l 0,0.681995 0.681995,0 0,-0.681995 z "/>
<path d="M 337.75,405 m -0.340998,-0.340998 l 0,0.681995 0.681995,0 0,-0.681995 z "/>
<path d="M 363.731,390 m -0.340998,-0.340998 l 0,0.681995 0.681995,0 0,-0.681995 z "/>
<path d="M 441.673,405 m -0.340998,-0.340998 l 0,0.681995 0.681995,0 0,-0.681995 z "/>
<path d="M 415.692,390 m -0.340998,-0.340998 l 0,0.681995 0.681995,0 0,-0.681995 z "/>
<path d="M 415.692,360 m -0.340998,-0.340998 l 0,0.681995 0.681995,0 0,-0.681995 z "/>
<path d="M 415.692,390 m -0.340998,-0.340998 l 0,0.681995 0.681995,0 0,-0.681995 z "/>
<path d="M 389.711,405 m -0.340998,-0.340998 l 0,0.681995 0.681995,0 0,-0.681995 z "/>
<path d="M 415.692,390 m -0.340998,-0.340998 l 0,0.681995 0.681995,0 0,-0.681995 z "/>
<path d="M 493.634,405 m -0.340998,-0.340998 l 0,0.681995 0.681995,0 0,-0.681995 z "/>
<path d="M 467.654,390 m -0.340998,-0.340998 l 0,0.681995 0.681995,0 0,-0.681995 z "/>
<path d="M 467.654,360 m -0.340998,-0.340998 l 0,0.681995 0.681995,0 0,-0.681995 z "/>
<path d="M 467.654,390 m -0.340998,-0.340998 l 0,0.681995 0.681995,0 0,-0.681995 z "/>
<path d="M 441.673,405 m -0.340998,-0.340998 l 0,0.681995 0.681995,0 0,-0.681995 z "/>
<path d="M 467.654,390 m -0.340998,-0.340998 l 0,0.681995 0.681995,0 0,-0.681995 z "/>
<path d="M 545.596,405 m -0.340998,-0.340998 l 0,0.681995 0.681995,0 0,-0.681995 z "/>
<path d="M 519.615,390 m -0.340998,-0.340998 l 0,0.681995 0.681995,0 0,-0.681995 z "/>
<path d="M 519.615,360 m -0.340998,-0.340998 l 0,0.681995 0.681995,0 0,-0.681995 z "/>
<path d="M 519.615,390 m -0.340998,-0.340998 l 0,0.681995 0.681995,0 0,-0.681995 z "/>
<path d="M 493.634,405 m -0.340998,-0.340998 l 0,0.681995 0.681995,0 0,-0.681995 z "/>
<path d="M 519.615,390 m -0.340998,-0.340998 l 0,0.681995 0.681995,0 0,-0.681995 z "/>
<path d="M 51.9615,450 m -0.340998,-0.340998 l 0,0.681995 0.681995,0 0,-0.681995 z "/>
<path d="M 25.9808,435 m -0.340998,-0.340998 l 0,0.681995 0.681995,0 0,-0.681995 z "/>
<path d="M 25.9808,405 m -0.340998,-0.340998 l 0,0.681995 0.681995,0 0,-0.681995 z "/>
<path d="M 25.9808,435 m -0.340998,-0.340998 l 0,0.681995 0.681995,0 0,-0.681995 z "/>
<path d="M 0,450 m -0.340998,-0.340998 l 0,0.681995 0.681995,0 0,-0.681995 z "/>
<path d="M 25.9808,435 m -0.340998,-0.340998 l 0,0.681995 0.681995,0 0,-0.681995 z "/>
<path d="M 103.923,450 m -0.340998,-0.340998 l 0,0.681995 0.681995,0 0,-0.681995 z "/>
<path d="M 77.9423,435 m -0.340998,-0.340998 l 0,0.681995 0.681995,0 0,-0.681995 z "/>
<path d="M 77.9423,405 m -0.340998,-0.340998 l 0,0.681995 0.681995,0 0,-0.681995 z "/>
<path d="M 77.9423,435 m -0.340998,-0.340998 l 0,0.681995 0.681995,0 0,-0.681995 z "/>
<path d="M 51.9615,450 m -0.340998,-0.340998 l 0,0.681995 0.681995,0 0,-0.681995 z "/>
<path d="M 77.9423,435 m -0.340998,-0.340998 l 0,0.681995 0.681995,0 0,-0.681995 z "/>
<path d="M 155.885,450 m -0.340998,-0.340998 l 0,0.681995 0.681995,0 0,-0.681995 z "/>
<path d="M 129.904,435 m -0.340998,-0.340998 l 0,0.681995 0.681995,0 0,-0.681995 z "/>
<path d="M 129.904,405 m -0.340998,-0.340998 l 0,0.681995 0.681995,0 0,-0.681995 z "/>
<path d="M 129.904,435 m -0.340998,-0.340998 l 0,0.681995 0.681995,0 0,-0.681995 z "/>
<path d="M 103.923,450 m -0.340998,-0.340998 l 0,0.681995 0.681995,0 0,-0.681995 z "/>
<path d="M 129.904,435 m -0.340998,-0.340998 l 0,0.681995 0.681995,0 0,-0.681995 z "/>
<path d="M 207.846,450 m -0.340998,-0.340998 l 0,0.681995 0.681995,0 0,-0.681995 z "/>
<path d="M 181.865,435 m -0.340998,-0.340998 l 0,0.681995 0.681995,0 0,-0.681995 z "/>
<path d="M 181.865,405 m -0.340998,-0.340998 l 0,0.681995 0.681995,0 0,-0.681995 z "/>
<path d="M 181.865,435 m -0.340998,-0.340998 l 0,0.681995 0.681995,0 0,-0.681995 z "/>
<path d="M 155.885,450 m -0.340998,-0.340998 l 0,0.681995 0.681995,0 0,-0.681995 z "/>
<path d="M 181.865,435 m -0.340998,-0.340998 l 0,0.681995 0.681995,0 0,-0.681995 z "/>
<path d="M 259.808,450 m -0.340998,-0.340998 l 0,0.681995 0.681995,0 0,-0.681995 z "/>
<path d="M 233.827,435 m -0.340998,-0.340998 l 0,0.681995 0.681995,0 0,-0.681995 z "/>
<path d="M 233.827,405 m -0.340998,-0.340998 l 0,0.681995 0.681995,0 0,-0.681995 z "/>
<path d="M 233.827,435 m -0.340998,-0.340998 l 0,0.681995 0.681995,0 0,-0.681995 z "/>
<path d="M 207.846,450 m -0.340998,-0.340998 l 0,0.681995 0.681995,0 0,-0.681995 z "/>
<path d="M 233.827,435 m -0.340998,-0.340998 l 0,0.681995 0.681995,0 0,-0.681995 z "/>
<path d="M 311.769,450 m -0.340998,-0.340998 l 0,0.681995 0.681995,0 0,-0.681995 z "/>
<path d="M 285.788,435 m -0.340998,-0.340998 l 0,0.681995 0.681995,0 0,-0.681995 z "/>
<path d="M 285.788,405 m -0.340998,-0.340998 l 0,0.681995 0.681995,0 0,-0.681995 z "/>
<path d="M 285.788,435 m -0.340998,-0.340998 l 0,0.681995 0.681995,0 0,-0.681995 z "/>
<path d="M 259.808,450 m -0.340998,-0.340998 l 0,0.681995 0.681995,0 0,-0.681995 z "/>
<path d="M 285.788,435 m -0.340998,-0.340998 l 0,0.681995 0.681995,0 0,-0.681995 z "/>
<path d="M 363.731,450 m -0.340998,-0.340998 l 0,0.681995 0.681995,0 0,-0.681995 z "/>
<path d="M 337.75,435 m -0.340998,-0.340998 l 0,0.681995 0.681995,0 0,-0.681995 z "/>
<path d="M 337.75,405 m -0.340998,-0.340998 l 0,0.681995 0.681995,0 0,-0.681995 z "/>
<path d="M 337.75,435 m -0.340998,-0.340998 l 0,0.681995 0.681995,0 0,-0.681995 z "/>
<path d="M 311.769,450 m -0.340998,-0.340998 l 0,0.681995 0.681995,0 0,-0.681995 z "/>
<path d="M 337.75,435 m -0.340998,-0.340998 l 0,0.681995 0.681995,0 0,-0.681995 z "/>
<path d="M 415.692,450 m -0.340998,-0.340998 l 0,0.681995 0.681995,0 0,-0.681995 z "/>
<path d="M 389.711,435 m -0.340998,-0.340998 l 0,0.681995 0.681995,0 0,-0.681995 z "/>
<path d="M 389.711,405 m -0.340998,-0.340998 l 0,0.681995 0.681995,0 0,-0.681995 z "/>
<path d="M 389.711,435 m -0.340998,-0.340998 l 0,0.681995 0.681995,0 0,-0.681995 z "/>
<path d="M 363.731,450 m -0.340998,-0.340998 l 0,0.681995 0.681995,0 0,-0.681995 z "/>
<path d="M 389.711,435 m -0.340998,-0.340998 l 0,0.681995 0.681995,0 0,-0.681995 z "/>
<path d="M 467.654,450 m -0.340998,-0.340998 l 0,0.681995 0.681995,0 0,-0.681995 z "/>
<path d="M 441.673,435 m -0.340998,-0.340998 l 0,0.681995 0.681995,0 0,-0.681995 z "/>
<path d="M 441.673,405 m -0.340998,-0.340998 l 0,0.681995 0.681995,0 0,-0.681995 z "/>
<path d="M 441.673,435 m -0.340998,-0.340998 l 0,0.681995 0.681995,0 0,-0.681995 z "/>
<path d="M 415.692,450 m -0.340998,-0.340998 l 0,0.681995 0.681995,0 0,-0.681995 z "/>
<path d="M 441.673,435 m -0.340998,-0.340998 l 0,0.681995 0.681995,0 0,-0.681995 z "/>
<path d="M 519.615,450 m -0.340998,-0.340998 l 0,0.681995 0.681995,0 0,-0.681995 z "/>
<path d="M 493.634,435 m -0.340998,-0.340998 l 0,0.681995 0.681995,0 0,-0.681995 z "/>
<path d="M 493.634,405 m -0.340998,-0.340998 l 0,0.681995 0.681995,0 0,-0.681995 z "/>
<path d="M 493.634,435 m -0.340998,-0.340998 l 0,0.681995 0.681995,0 0,-0.681995 z "/>
<path d="M 467.654,450 m -0.340998,-0.340998 l 0,0.681995 0.681995,0 0,-0.681995 z "/>
<path d="M 493.634,435 m -0.340998,-0.340998 l 0,0.681995 0.681995,0 0,-0.681995 z "/>
<path d="M 51.9615,30 l 25.9808,15 "/>
<path d="M 51.9615,30 l 7.10543e-15,-30 "/>
<path d="M 51.9615,30 l -25.9808,15 "/>
<path d="M 103.923,30 l 25.9808,15 "/>
<path d="M 103.923,30 l 0,-30 "/>
<path d="M 103.923,30 l -25.9808,15 "/>
<path d="M 155.885,30 l 25.9808,15 "/>
<path d="M 155.885,30 l 0,-30 "/>
<path d="M 155.885,30 l -25.9808,15 "/>
<path d="M 207.846,30 l 25.9808,15 "/>
<path d="M 207.846,30 l 0,-30 "/>
<path d="M 207.846,30 l -25.9808,15 "/>
<path d="M 259.808,30 l 25.9808,15 "/>
<path d="M 259.808,30 l 0,-30 "/>
<path d="M 259.808,30 l -25.9808,15 "/>
<path d="M 311.769,30 l 25.9808,15 "/>
<path d="M 311.769,30 l 0,-30 "/>
<path d="M 311.769,30 l -25.9808,15 "/>
<path d="M 363.731,30 l 25.9808,15 "/>
<path d="M 363.731,30 l 0,-30 "/>
<path d="M 363.731,30 l -25.9808,15 "/>
<path d="M 415.692,30 l 25.9808,15 "/>
<path d="M 415.692,30 l 0,-30 "/>
<path d="M 415.692,30 l -25.9808,15 "/>
<path d="M 467.654,30 l 25.9808,15 "/>
<path d="M 467.654,30 l 0,-30 "/>
<path d="M 467.654,30 l -25.9808,15 "/>
<path d="M 519.615,30 l 25.9808,15 "/>
<path d="M 519.615,30 l 0,-30 "/>
<path d="M 519.615,30 l -25.9808,15 "/>
<path d="M 25.9808,75 l 25.9808,15 "/>
<path d="M 25.9808,75 l 3.55271e-15,-30 "/>
<path d="M 25.9808,75 l -25.9808,15 "/>
<path d="M 77.9423,75 l 25.9808,15 "/>
<path d="M 77.9423,75 l 0,-30 "/>
<path d="M 77.9423,75 l -25.9808,15 "/>
<path d="M 129.904,75 l 25.9808,15 "/>
<path d="M 129.904,75 l 0,-30 "/>
<path d="M 129.904,75 l -25.9808,15 "/>
<path d="M 181.865,75 l 25.9808,15 "/>
<path d="M 181.865,75 l 0,-30 "/>
<path d="M 181.865,75 l -25.9808,15 "/>
<path d="M 233.827,75 l 25.9808,15 "/>
<path d="M 233.827,75 l 0,-30 "/>
<path d="M 233.827,75 l -25.9808,15 "/>
<path d="M 285.788,75 l 25.9808,15 "/>
<path d="M 285.788,75 l 0,-30 "/>
<path d="M 285.788,75 l -25.9808,15 "/>
<path d="M 337.75,75 l 25.9808,15 "/>
<path d="M 337.75,75 l 0,-30 "/>
<path d="M 337.75,75 l -25.9808,15 "/>
<path d="M 389.711,75 l 25.9808,15 "/>
<path d="M 389.711,75 l 0,-30 "/>
<path d="M 389.711,75 l -25.9808,15 "/>
<path d="M 441.673,75 l 25.9808,15 "/>
<path d="M 441.673,75 l 0,-30 "/>
<path d="M 441.673,75 l -25.9808,15 "/>
<path d="M 493.634,75 l 25.9808,15 "/>
<path d="M 493.634,75 l 0,-30 "/>
<path d="M 493.634,75 l -25.9808,15 "/>
<path d="M 51.9615,120 l 25.9808,15 "/>
<path d="M 51.9615,120 l 7.10543e-15,-30 "/>
<path d="M 51.9615,120 l -25.9808,15 "/>
<path d="M 103.923,120 l 25.9808,15 "/>
<path d="M 103.923,120 l 0,-30 "/>
<path d="M 103.923,120 l -25.9808,15 "/>
<path d="M 155.885,120 l 25.9808,15 "/>
<path d="M 155.885,120 l 0,-30 "/>
<path d="M 155.885,120 l -25.9808,15 "/>
<path d="M 207.846,120 l 25.9808,15 "/>
<path d="M 207.846,120 l 0,-30 "/>
<path d="M 207.846,120 l -25.9808,15 "/>
<path d="M 259.808,120 l 25.9808,15 "/>
<path d="M 259.808,120 l 0,-30 "/>
<path d="M 259.808,120 l -25.9808,15 "/>
<path d="M 311.769,120 l 25.9808,15 "/>
<path d="M 311.769,120 l 0,-30 "/>
<path d="M 311.769,120 l -25.9808,15 "/>
<path d="M 363.731,120 l 25.9808,15 "/>
<path d="M 363.731,120 l 0,-30 "/>
<path d="M 363.731,120 l -25.9808,15 "/>
<path d="M 415.692,120 l 25.9808,15 "/>
<path d="M 415.692,120 l 0,-30 "/>
<path d="M 415.692,120 l -25.9808,15 "/>
<path d="M 467.654,120 l 25.9808,15 "/>
<path d="M 467.654,120 l 0,-30 "/>
<path d="M 467.654,120 l -25.9808,15 "/>
<path d="M 519.615,120 l 25.9808,15 "/>
<path d="M 519.615,120 l 0,-30 "/>
<path d="M 519.615,120 l -25.9808,15 "/>
<path d="M 25.9808,165 l 25.9808,15 "/>
<path d="M 25.9808,165 l 3.55271e-15,-30 "/>
<path d="M 25.9808,165 l -25.9808,15 "/>
<path d="M 77.9423,165 l 25.9808,15 "/>
<path d="M 77.9423,165 l 0,-30 "/>
<path d="M 77.9423,165 l -25.9808,15 "/>
<path d="M 129.904,165 l 25.9808,15 "/>
<path d="M 129.904,165 l 0,-30 "/>
<path d="M 129.904,165 l -25.9808,15 "/>
<path d="M 181.865,165 l 25.9808,15 "/>
<path d="M 181.865,165 l 0,-30 "/>
<path d="M 181.865,165 l -25.9808,15 "/>
<path d="M 233.827,165 l 25.9808,15 "/>
<path d="M 233.827,165 l 0,-30 "/>
<path d="M 233.827,165 l -25.9808,15 "/>
<path d="M 285.788,165 l 25.9808,15 "/>
<path d="M 285.788,165 l 0,-30 "/>
<path d="M 285.788,165 l -25.9808,15 "/>
<path d="M 337.75,165 l 25.9808,15 "/>
<path d="M 337.75,165 l 0,-30 "/>
<path d="M 337.75,165 l -25.9808,15 "/>
<path d="M 389.711,165 l 25.9808,15 "/>
<path d="M 389.711,165 l 0,-30 "/>
<path d="M 389.711,165 l -25.9808,15 "/>
<path d="M 441.673,165 l 25.9808,15 "/>
<path d="M 441.673,165 l 0,-30 "/>
<path d="M 441.673,165 l -25.9808,15 "/>
<path d="M 493.634,165 l 25.9808,15 "/>
<path d="M 493.634,165 l 0,-30 "/>
<path d="M 493.634,165 l -25.9808,15 "/>
<path d="M 51.9615,210 l 25.9808,15 "/>
<path d="M 51.9615,210 l 7.10543e-15,-30 "/>
<path d="M 51.9615,210 l -25.9808,15 "/>
<path d="M 103.923,210 l 25.9808,15 "/>
<path d="M 103.923,210 l 0,-30 "/>
<path d="M 103.923,210 l -25.9808,15 "/>
<path d="M 155.885,210 l 25.9808,15 "/>
<path d="M 155.885,210 l 0,-30 "/>
<path d="M 155.885,210 l -25.9808,15 "/>
<path d="M 207.846,210 l 25.9808,15 "/>
<path d="M 207.846,210 l 0,-30 "/>
<path d="M 207.846,210 l -25.9808,15 "/>
<path d="M 259.808,210 l 25.9808,15 "/>
<path d="M 259.808,210 l 0,-30 "/>
<path d="M 259.808,210 l -25.9808,15 "/>
<path d="M 311.769,210 l 25.9808,15 "/>
<path d="M 311.769,210 l 0,-30 "/>
<path d="M 311.769,210 l -25.9808,15 "/>
<path d="M 363.731,210 l 25.9808,15 "/>
<path d="M 363.731,210 l 0,-30 "/>
<path d="M 363.731,210 l -25.9808,15 "/>
<path d="M 415.692,210 l 25.9808,15 "/>
<path d="M 415.692,210 l 0,-30 "/>
<path d="M 415.692,210 l -25.9808,15 "/>
<path d="M 467.654,210 l 25.9808,15 "/>
<path d="M 467.654,210 l 0,-30 "/>
<path d="M 467.654,210 l -25.9808,15 "/>
<path d="M 519.615,210 l 25.9808,15 "/>
<path d="M 519.615,210 l 0,-30 "/>
<path d="M 519.615,210 l -25.9808,15 "/>
<path d="M 25.9808,255 l 25.9808,15 "/>
<path d="M 25.9808,255 l 3.55271e-15,-30 "/>
<path d="M 25.9808,255 l -25.9808,15 "/>
<path d="M 77.9423,255 l 25.9808,15 "/>
<path d="M 77.9423,255 l 0,-30 "/>
<path d="M 77.9423,255 l -25.9808,15 "/>
<path d="M 129.904,255 l 25.9808,15 "/>
<path d="M 129.904,255 l 0,-30 "/>
<path d="M 129.904,255 l -25.9808,15 "/>
<path d="M 181.865,255 l 25.9808,15 "/>
<path d="M 181.865,255 l 0,-30 "/>
<path d="M 181.865,255 l -25.9808,15 "/>
<path d="M 233.827,255 l 25.9808,15 "/>
<path d="M 233.827,255 l 0,-30 "/>
<path d="M 233.827,255 l -25.9808,15 "/>
<path d="M 285.788,255 l 25.9808,15 "/>
<path d="M 285.788,255 l 0,-30 "/>
<path d="M 285.788,255 l -25.9808,15 "/>
<path d="M 337.75,255 l 25.9808,15 "/>
<path d="M 337.75,255 l 0,-30 "/>
<path d="M 337.75,255 l -25.9808,15 "/>
<path d="M 389.711,255 l 25.9808,15 "/>
<path d="M 389.711,255 l 0,-30 "/>
<path d="M 389.711,255 l -25.9808,15 "/>
<path d="M 441.673,255 l 25.9808,15 "/>
<path d="M 441.673,255 l 0,-30 "/>
<path d="M 441.673,255 l -25.9808,15 "/>
<path d="M 493.634,255 l 25.9808,15 "/>
<path d="M 493.634,255 l 0,-30 "/>
<path d="M 493.634,255 l -25.9808,15 "/>
<path d="M 51.9615,300 l 25.9808,15 "/>
<path d="M 51.9615,300 l 7.10543e-15,-30 "/>
<path d="M 51.9615,300 l -25.9808,15 "/>
<path d="M 103.923,300 l 25.9808,15 "/>
<path d="M 103.923,300 l 0,-30 "/>
<path d="M 103.923,300 l -25.9808,15 "/>
<path d="M 155.885,300 l 25.9808,15 "/>
<path d="M 155.885,300 l 0,-30 "/>
<path d="M 155.885,300 l -25.9808,15 "/>
<path d="M 207.846,300 l 25.9808,15 "/>
<path d="M 207.846,300 l 0,-30 "/>
<path d="M 207.846,300 l -25.9808,15 "/>
<path d="M 259.808,300 l 25.9808,15 "/>
<path d="M 259.808,300 l 0,-30 "/>
<path d="M 259.808,300 l -25.9808,15 "/>
<path d="M 311.769,300 l 25.9808,15 "/>
<path d="M 311.769,300 l 0,-30 "/>
<path d="M 311.769,300 l -25.9808,15 "/>
<path d="M 363.731,300 l 25.9808,15 "/>
<path d="M 363.731,300 l 0,-30 "/>
<path d="M 363.731,300 l -25.9808,15 "/>
<path d="M 415.692,300 l 25.9808,15 "/>
<path d="M 415.692,300 l 0,-30 "/>
<path d="M 415.692,300 l -25.9808,15 "/>
<path d="M 467.654,300 l 25.9808,15 "/>
<path d="M 467.654,300 l 0,-30 "/>
<path d="M 467.654,300 l -25.9808,15 "/>
<path d="M 519.615,300 l 25.9808,15 "/>
<path d="M 519.615,300 l 0,-30 "/>
<path d="M 519.615,300 l -25.9808,15 "/>
<path d="M 25.9808,345 l 25.9808,15 "/>
<path d="M 25.9808,345 l 3.55271e-15,-30 "/>
<path d="M 25.9808,345 l -25.9808,15 "/>
<path d="M 77.9423,345 l 25.9808,15 "/>
<path d="M 77.9423,345 l 0,-30 "/>
<path d="M 77.9423,345 l -25.9808,15 "/>
<path d="M 129.904,345 l 25.9808,15 "/>
<path d="M 129.904,345 l 0,-30 "/>
<path d="M 129.904,345 l -25.9808,15 "/>
<path d="M 181.865,345 l 25.9808,15 "/>
<path d="M 181.865,345 l 0,-30 "/>
<path d="M 181.865,345 l -25.9808,15 "/>
<path d="M 233.827,345 l 25.9808,15 "/>
<path d="M 233.827,345 l 0,-30 "/>
<path d="M 233.827,345 l -25.9808,15 "/>
<path d="M 285.788,345 l 25.9808,15 "/>
<path d="M 285.788,345 l 0,-30 "/>
<path d="M 285.788,345 l -25.9808,15 "/>
<path d="M 337.75,345 l 25.9808,15 "/>
<path d="M 337.75,345 l 0,-30 "/>
<path d="M 337.75,345 l -25.9808,15 "/>
<path d="M 389.711,345 l 25.9808,15 "/>
<path d="M 389.711,345 l 0,-30 "/>
<path d="M 389.711,345 l -25.9808,15 "/>
<path d="M 441.673,345 l 25.9808,15 "/>
<path d="M 441.673,345 l 0,-30 "/>
<path d="M 441.673,345 l -25.9808,15 "/>
<path d="M 493.634,345 l 25.9808,15 "/>
<path d="M 493.634,345 l 0,-30 "/>
<path d="M 493.634,345 l -25.9808,15 "/>
<path d="M 51.9615,390 l 25.9808,15 "/>
<path d="M 51.9615,390 l 7.10543e-15,-30 "/>
<path d="M 51.9615,390 l -25.9808,15 "/>
<path d="M 103.923,390 l 25.9808,15 "/>
<path d="M 103.923,390 l 0,-30 "/>
<path d="M 103.923,390 l -25.9808,15 "/>
<path d="M 155.885,390 l 25.9808,15 "/>
<path d="M 155.885,390 l 0,-30 "/>
<path d="M 155.885,390 l -25.9808,15 "/>
<path d="M 207.846,390 l 25.9808,15 "/>
<path d="M 207.846,390 l 0,-30 "/>
<path d="M 207.846,390 l -25.9808,15 "/>
<path d="M 259.808,390 l 25.9808,15 "/>
<path d="M 259.808,390 l 0,-30 "/>
<path d="M 259.808,390 l -25.9808,15 "/>
<path d="M 311.769,390 l 25.9808,15 "/>
<path d="M 311.769,390 l 0,-30 "/>
<path d="M 311.769,390 l -25.9808,15 "/>
<path d="M 363.731,390 l 25.9808,15 "/>
<path d="M 363.731,390 l 0,-30 "/>
<path d="M 363.731,390 l -25.9808,15 "/>
<path d="M 415.692,390 l 25.9808,15 "/>
<path d="M 415.692,390 l 0,-30 "/>
<path d="M 415.692,390 l -25.9808,15 "/>
<path d="M 467.654,390 l 25.9808,15 "/>
<path d="M 467.654,390 l 0,-30 "/>
<path d="M 467.654,390 l -25.9808,15 "/>
<path d="M 519.615,390 l 25.9808,15 "/>
<path d="M 519.615,390 l 0,-30 "/>
<path d="M 519.615,390 l -25.9808,15 "/>
<path d="M 25.9808,435 l 25.9808,15 "/>
<path d="M 25.9808,435 l 3.55271e-15,-30 "/>
<path d="M 25.9808,435 l -25.9808,15 "/>
<path d="M 77.9423,435 l 25.9808,15 "/>
<path d="M 77.9423,435 l 0,-30 "/>
<path d="M 77.9423,435 l -25.9808,15 "/>
<path d="M 129.904,435 l 25.9808,15 "/>
<path d="M 129.904,435 l 0,-30 "/>
<path d="M 129.904,435 l -25.9808,15 "/>
<path d="M 181.865,435 l 25.9808,15 "/>
<path d="M 181.865,435 l 0,-30 "/>
<path d="M 181.865,435 l -25.9808,15 "/>
<path d="M 233.827,435 l 25.9808,15 "/>
<path d="M 233.827,435 l 0,-30 "/>
<path d="M 233.827,435 l -25.9808,15 "/>
<path d="M 285.788,435 l 25.9808,15 "/>
<path d="M 285.788,435 l 0,-30 "/>
<path d="M 285.788,435 l -25.9808,15 "/>
<path d="M 337.75,435 l 25.9808,15 "/>
<path d="M 337.75,435 l 0,-30 "/>
<path d="M 337.75,435 l -25.9808,15 "/>
<path d="M 389.711,435 l 25.9808,15 "/>
<path d="M 389.711,435 l 0,-30 "/>
<path d="M 389.711,435 l -25.9808,15 "/>
<path d="M 441.673,435 l 25.9808,15 "/>
<path d="M 441.673,435 l 0,-30 "/>
<path d="M 441.673,435 l -25.9808,15 "/>
<path d="M 493.634,435 l 25.9808,15 "/>
<path d="M 493.634,435 l 0,-30 "/>
<path d="M 493.634,435 l -25.9808,15 "/>
</g></g></svg>